<svg width="120" height="120" viewBox="0 0 120 120" fill="none" xmlns="http://www.w3.org/2000/svg">
  <!-- Background circle -->
  <circle cx="60" cy="60" r="60" fill="#e9f5f9" />
  
  <!-- Musical notes -->
  <path d="M40 30 L40 65 C40 70 35 75 30 75 C25 75 20 70 20 65 C20 60 25 55 30 55 L30 30 L40 30" fill="#6a98d0" />
  <circle cx="25" cy="65" r="10" fill="#6a98d0" />
  
  <path d="M70 40 L70 75 C70 80 65 85 60 85 C55 85 50 80 50 75 C50 70 55 65 60 65 L60 40 L70 40" fill="#f7a072" />
  <circle cx="55" cy="75" r="10" fill="#f7a072" />
  
  <path d="M100 50 L100 85 C100 90 95 95 90 95 C85 95 80 90 80 85 C80 80 85 75 90 75 L90 50 L100 50" fill="#8ecae6" />
  <circle cx="85" cy="85" r="10" fill="#8ecae6" />
  
  <!-- Sound waves around -->
  <path d="M35 40 C30 40 30 30 35 30" stroke="#3d5a80" stroke-width="1" opacity="0.7" />
  <path d="M45 40 C50 40 50 30 45 30" stroke="#3d5a80" stroke-width="1" opacity="0.7" />
  
  <path d="M65 50 C60 50 60 40 65 40" stroke="#3d5a80" stroke-width="1" opacity="0.7" />
  <path d="M75 50 C80 50 80 40 75 40" stroke="#3d5a80" stroke-width="1" opacity="0.7" />
  
  <path d="M95 60 C90 60 90 50 95 50" stroke="#3d5a80" stroke-width="1" opacity="0.7" />
  <path d="M105 60 C110 60 110 50 105 50" stroke="#3d5a80" stroke-width="1" opacity="0.7" />
</svg>
