<?xml version="1.0" encoding="UTF-8"?>
<!DOCTYPE svg PUBLIC "-//W3C//DTD SVG 1.1//EN" "http://www.w3.org/Graphics/SVG/1.1/DTD/svg11.dtd">
<!-- Creator: CorelDRAW 2020 (64 Bit) -->
<svg xmlns="http://www.w3.org/2000/svg" xml:space="preserve" width="57mm" height="87mm" version="1.1" style="shape-rendering:geometricPrecision; text-rendering:geometricPrecision; image-rendering:optimizeQuality; fill-rule:evenodd; clip-rule:evenodd"
viewBox="0 0 5700 8700"
 xmlns:xlink="http://www.w3.org/1999/xlink"
 xmlns:xodm="http://www.corel.com/coreldraw/odm/2003">
 <defs>
  <style type="text/css">
   <![CDATA[
    .fil2 {fill:none;fill-rule:nonzero}
    .fil8 {fill:#023155}
    .fil18 {fill:#043A68}
    .fil22 {fill:#1169B5}
    .fil4 {fill:#1886EF}
    .fil7 {fill:#2E4905}
    .fil17 {fill:#48710B}
    .fil19 {fill:#558D0D}
    .fil15 {fill:#564704}
    .fil10 {fill:#570C01}
    .fil13 {fill:#685609}
    .fil20 {fill:#6D1102}
    .fil3 {fill:#75BB17}
    .fil11 {fill:#86BCED}
    .fil25 {fill:#8A730C}
    .fil23 {fill:#8F1502}
    .fil27 {fill:#A6961B}
    .fil14 {fill:#A7CD66}
    .fil26 {fill:#AF1A01}
    .fil9 {fill:#B2D479}
    .fil24 {fill:#CA2307}
    .fil6 {fill:#EECC25}
    .fil21 {fill:#EEDB75}
    .fil5 {fill:#F1401B}
    .fil16 {fill:#F1836A}
    .fil12 {fill:#F49783}
    .fil28 {fill:whitesmoke}
    .fil0 {fill:#4967AF;fill-opacity:0.501961}
    .fil1 {fill:#4967AF;fill-rule:nonzero;fill-opacity:0.501961}
   ]]>
  </style>
 </defs>
 <g id="Camada_x0020_1">
  <metadata id="CorelCorpID_0Corel-Layer"/>
  <g id="_3106567941168">
   <g>
    <g>
     <g>
      <path class="fil0" d="M5588.81 111.51c281.86,-88.93 -976.31,1874.68 -1136.8,2026.34 -247.83,231.54 -548.26,538.25 -868.74,665.06 1.8,-95.21 440.25,-353.9 515.36,-419.81 518.5,-464.22 608.47,-763.48 848.45,-1294.84 77.37,-164.38 184.36,-318.76 278.11,-474.11 35.61,-58.67 278.19,-523.31 363.62,-502.64z"/>
     </g>
     <g>
      <path class="fil0" d="M5474.47 448.91c181.52,-49.71 -1187.91,1893.68 -1412.81,2080.32 -192.5,158.09 -394.09,305.87 -604.58,439.14 -91.75,57.87 -193.1,131.67 -298.61,162.55 0.93,-51.83 239.22,-169.89 277.51,-195.82 85.16,-57.53 169.4,-116.58 250.93,-179.17 558.11,-437.55 679.87,-752.87 972.71,-1275.54 99.57,-171.57 229.33,-330.25 346.55,-489.92 45.68,-62.01 377.9,-572.87 468.3,-541.56z"/>
     </g>
     <g>
      <path class="fil0" d="M5374.17 504.07c-12.53,894.5 -1387.78,1876.33 -2024.65,2294.56 -173.88,113.22 -353.13,218.11 -538.12,312.16 -100.27,50.58 -749.01,400.4 -839.73,303.71 180.27,-109.21 411.1,-152.88 602.4,-244.07 256.48,-124.53 502.85,-270 735.33,-435.08 505.4,-359.05 848.4,-816.49 1227.94,-1295.81 160,-200.84 324.3,-397.93 481.72,-600.88 32.26,-41.45 369.37,-407.94 355.11,-334.59z"/>
     </g>
     <g>
      <path class="fil0" d="M5177.66 876.67c-123.24,784.76 -1213.48,1561.25 -1804.28,1959.63 -312.06,209.04 -642.21,392.12 -990.84,532.77 -251.24,100.17 -528.3,198.49 -800.76,213.21 -8.14,0.53 -45.07,6.62 -50.52,-3.2 15.12,-6.44 31.17,-10.82 46.99,-15.13 189.58,-53.6 381.6,-91.18 567.37,-158.91 419.35,-157.25 821.83,-376.36 1171.75,-657.11 333.73,-266.3 601.47,-607.43 887.5,-921.98 184.89,-202.15 374.13,-400.15 557.61,-603.66 45.4,-50.28 436.58,-409.63 415.18,-345.62z"/>
     </g>
     <g>
      <path class="fil0" d="M4986.85 983.87c-362.93,705.21 -1058.15,1277.28 -1706.73,1705.26 -497.22,325.33 -1048.37,595.98 -1636.92,703.04 -31.59,5.58 -63.29,10.62 -95.07,15.05 -64.75,9.29 -643,-10.26 -633.97,-14.52 208.93,-18.04 415.48,-0.86 624.25,-36.04 1.23,-0.2 2.49,-0.41 3.72,-0.62 611.78,-110.66 1180.07,-398.76 1662.37,-786.21 310.94,-247.71 600.37,-524.29 883.22,-803.16 210.36,-206.82 418.45,-415.13 622.29,-628.42 34.58,-36.13 416.18,-394.96 276.84,-154.38z"/>
     </g>
     <g>
      <path class="fil0" d="M4712.13 1373.2c-343.54,547.34 -880.1,993.94 -1408.98,1352.27 -524.48,354.08 -1112.94,645.62 -1741.62,751.46 -127.67,21.38 -256.68,34.76 -386.14,37.34 -149.41,2.39 -299.17,-9.69 -445.4,-41.08 -29.47,-6.33 -284.77,-103.33 -274.91,-104.95 94.53,15.32 186.9,43.44 281.17,60.7 110.98,20.32 223.35,32.7 336.25,33.15 160.17,-0.32 319.72,-17.92 476.94,-48.04 629.97,-125.22 1159.46,-451.39 1653.04,-847.4 175.89,-139.73 348.72,-283.37 518.51,-430.45 232.71,-201.05 462.84,-404.16 689.21,-612.36 39.87,-36.68 471.84,-394.94 301.93,-150.64z"/>
     </g>
     <g>
      <path class="fil0" d="M4642.76 1292.18c-390.24,510.66 -894.67,938.84 -1432.88,1286.11 -510.9,327.43 -1083.78,598.2 -1690.67,678.42 -177.13,23.97 -356.77,30.75 -534.62,10.52 -74.05,-8.8 -147.52,-22.98 -219.37,-42.97 -37.23,-10.24 -266.55,-116.63 -220.2,-113.94 76.85,15.77 151.91,39.54 228.11,58.06 83.62,20.66 168.37,36.47 254.39,42.5 159.82,9.76 319.91,-0.77 477.93,-25.74 598.73,-95.84 1130.45,-396.53 1614.74,-748.36 263.84,-191.2 517.4,-396.6 763.04,-610.6 225.38,-195.82 445.85,-396.34 665.3,-598.75 192.94,-176.97 272.7,-157.99 94.23,64.75z"/>
     </g>
     <g>
      <path class="fil1" d="M4326.19 1679.56c-317.81,360.67 -691.53,672.44 -1090.89,938.84 -512.73,340.18 -1088.63,619.44 -1701.71,713.14 -259.06,39.63 -524.89,44.87 -781.93,-11.43 -66.55,-14.52 -132.13,-33.23 -196.19,-56.4 -58.74,-21.69 -444.71,-184.11 -416.74,-273.26 5.33,-5.39 16.52,0.09 22.37,2.3 149.17,80.18 286.23,175.42 449.82,226.17 49.32,14.72 99.33,26.97 149.85,36.8 250.19,48.4 506.99,37.89 756.54,-8.87 597.42,-115.59 1125.81,-443.05 1617.29,-787.32 127.1,-88.92 252.23,-180.65 375.54,-274.76 245.62,-187.23 486.07,-380.05 725.42,-575.18 215.76,-175.16 295.23,-152.46 90.63,69.97z"/>
     </g>
    </g>
   </g>
   <path class="fil2" d="M5716.45 144.32c-654.25,1544.03 -3951.67,4213.37 -5705.06,3035.72"/>
   <g>
    <g>
     <g>
      <path class="fil0" d="M2471.08 1474.99c-29.54,-149.46 406.9,76.03 434.04,97.11 66.18,53.61 119.58,122.07 144.41,204.4 13.85,46.96 17.49,96.15 11.95,144.73 -5.7,53.84 -22.65,105.66 -46.59,154.05 -33.9,68.44 -80.53,129.96 -139.79,178.4 -56.79,45.35 -122.75,77.29 -193.26,94.69 -22.1,5.42 -44.52,9.41 -67.12,12.04 -114.64,12.79 -230.84,-9.94 -336.55,-54.5 -67.18,-28.59 -156.13,-69.71 -200.84,-130.92 26.34,-11.93 180.98,94.4 211.53,106.26 31.27,12.15 63.32,22.39 96.06,29.77 94.87,20.52 194.64,22.04 288,-6.73 62.69,-19.45 120.75,-52.05 167.75,-98.11 44.17,-45.58 93.37,-118.61 78.67,-186.39 -9.54,-44.59 -40.68,-93.24 -57.3,-136.31 -1.29,-4.17 -2.73,-8.31 -4.21,-12.42 -6.13,-17.66 -12.05,-35.08 -21.14,-51.51 -21.66,-39.05 -54.3,-70.92 -87.68,-99.97 -2.14,-1.84 -4.31,-3.67 -6.47,-5.49 -33.48,-28.23 -289.92,-191.49 -271.46,-239.1z"/>
     </g>
     <g>
      <path class="fil0" d="M2677.83 1564.07c-20.5,-106.04 191.72,0.05 217.83,16.96 70.31,47.83 126.66,114.24 154.29,195.39 15.65,46.89 20.65,96.55 16.27,145.72 -4.18,54.87 -20.17,108.02 -43.44,157.72 -33.09,70.8 -79.62,134.66 -139.28,185.41 -57.85,47.88 -125.47,81.94 -198,101.19 -125.9,32.89 -258.63,20.19 -381.03,-20.89 -12.61,-4.3 -25.12,-8.91 -37.51,-13.81 -130.53,-51.57 -250.71,-134.43 -342.69,-240.69 -26.03,-30.23 -56.39,-65.23 -69.98,-103.52 19.45,-2.12 73.77,76.54 86.01,89.14 52.65,53.8 110.81,102.71 175.28,141.79 52.81,31.42 108.81,57.55 167.16,76.87 122.37,40.79 268.13,57.63 388.36,-0.06 91.89,-44.32 78.16,-96.24 105.8,-177.07 6.12,-21.41 14.41,-42.18 22.27,-63 11.08,-28.48 24.62,-55.86 34.96,-84.69 10.22,-28.62 17.27,-58.51 17.48,-89.03 0.5,-16.11 -1.02,-32.17 -4.49,-47.91 -1.15,-5.15 -2.45,-10.28 -3.93,-15.35 -13.35,-45.63 -39.12,-86.05 -68.15,-123.26 -13.84,-17.87 -109.23,-105.81 -97.21,-130.91z"/>
     </g>
     <g>
      <path class="fil0" d="M2703.15 1626.8c37.49,1.15 74.8,16.9 107.05,34.96 54.3,32.04 100.83,78.64 124.04,138.06 12.27,31.89 16.83,66.07 14.69,100.1 -1.89,41.4 -13.76,81.61 -30.95,119.14 -25.39,55.46 -60.87,105.97 -107.08,146.05 -43.8,36.85 -95.12,63.12 -150.33,78.07 -113.68,30.33 -234.15,12.61 -342.44,-29.47 -114.17,-44.54 -217.51,-116.37 -300.6,-206.31 -58.54,-63.94 -107.15,-137.43 -137.8,-218.78 -11.85,-31.73 -20.64,-64.62 -25.97,-98.08 -16.08,-116.53 4.74,-257.41 79.82,-352.35 2.16,-2.63 8.3,-11.54 12.71,-10.38 -1,5.02 -2.66,9.89 -4.34,14.71 -38.23,104.7 -75.18,203.81 -61.39,317.87 1.04,7.94 2.26,15.87 3.69,23.75 23.08,112.61 85.68,212.98 166.36,293.57 81.59,80.21 183.89,144.13 296.32,169.55 97.73,22.82 199.05,11.98 286.4,-38.68 32.36,-18.46 61.33,-42.14 85.35,-70.66 5.44,-6.88 10.6,-13.98 15.5,-21.25 16.92,-24.91 32.05,-50.75 44.35,-78.28 9.43,-21.3 16.81,-43.88 18.22,-67.27 1.1,-14.41 -0.37,-28.73 -4.2,-42.64 -1.53,-5.49 -3.37,-10.91 -5.44,-16.21 -11.83,-30.03 -29.15,-57.4 -47.56,-83.76 -6.93,-10.08 -88.14,-114.54 -36.4,-101.71z"/>
     </g>
     <g>
      <path class="fil0" d="M2863.98 1754.35c22.4,9.75 40.21,28.56 52.99,48.96 17.83,28.59 25.83,62.11 26.54,95.59 2.18,41.68 -7.65,83.07 -23.13,121.54 -23.21,57.8 -57.6,110.61 -103.42,153.03 -44.18,39.43 -96.67,67.8 -153.4,84.53 -116.8,34.07 -241.75,18.01 -354.4,-23.57 -118.5,-43.93 -226.2,-116.16 -313.37,-207.52 -86.76,-91.97 -154.21,-204.68 -177.51,-330.08 -9.65,-59.02 -10.06,-119.08 -0.96,-178.21 11.16,-71.52 36.13,-140.56 71.05,-203.86 14.51,-26.03 141.31,-228.15 185.75,-205.39 -46.46,77.62 -117.55,136.52 -160.79,218.32 -12.11,23.03 -22.83,46.84 -31.69,71.31 -32.81,92.72 -42.87,192.53 -23.62,289.3 26.51,116.47 93.71,219.6 182.44,298.52 90.35,78.29 198.16,124.35 316.65,136.99 80.94,10.11 166.31,10.04 244.84,-14.25 9.93,-3.09 19.83,-6.33 29.56,-10.01 33.86,-12.6 65.26,-30.44 92.51,-54.27 30.14,-27.26 53.96,-60.43 73.38,-95.98 2.9,-5.33 5.69,-10.73 8.35,-16.19 8.76,-18.13 16.16,-36.86 22.03,-56.12 5.31,-18.85 8.59,-38.14 10.08,-57.67 0.97,-14.2 -6.23,-88.88 26.12,-64.97z"/>
     </g>
     <g>
      <path class="fil0" d="M2835.32 1836.86c8.08,13.47 12.54,28.68 14.21,44.24 4.72,30.65 -2.21,62.07 -12.95,90.73 -17.17,45.45 -42.63,87.63 -77.71,121.51 -32.95,30.55 -72.44,52.5 -115.35,65.58 -96.11,29 -199.94,13.28 -292.29,-21.56 -103.58,-39.23 -197.32,-103.73 -272.9,-184.52 -71.4,-77.15 -128.39,-171.41 -146.61,-276.09 -15.99,-106.87 8.76,-214.17 60.94,-307.94 27.51,-48.88 61.93,-93.68 101.16,-133.7 37.85,-38.41 80.36,-72.3 125.96,-101.06 18.08,-11.33 181.89,-72.13 178.55,-66.77 -50.96,34.2 -109.17,56.86 -160.66,90.68 -30.36,20.01 -59.35,42.22 -85.84,67.16 -49.31,47.11 -92.07,101.52 -123.47,162.18 -44.37,86.45 -64.25,184.95 -43.44,280.86 22.84,91.69 82.61,170.38 154.48,229.88 75.75,61.09 166.49,103.45 261,125.89 58.78,14.52 121.27,21.64 181.21,10.03 11.77,-2.3 23.44,-5.06 34.88,-8.66 24.48,-7.68 47.36,-19.31 67.48,-35.27 24.44,-19.81 43.95,-44.72 60.24,-71.48 3.86,-6.37 7.55,-12.87 11.02,-19.45 5.67,-10.81 10.78,-21.91 16.39,-32.75 5.94,-12.87 12.01,-26.22 20.35,-37.76 8.49,-11.83 20.68,-17.52 32.83,-6.64 4.57,4.06 7.97,9.4 10.52,14.91z"/>
     </g>
     <g>
      <path class="fil0" d="M2810.48 2005.42c-10.94,32.74 -28.12,63.06 -50.7,89.18 -31.29,34.05 -70.77,58.89 -114.23,74.37 -97.91,34.77 -206.43,21.34 -302.62,-12.47 -107.98,-37.79 -206.11,-102.82 -285.62,-184.8 -76.81,-80.24 -137.87,-178.87 -159.03,-289.03 -19.1,-114.52 4.98,-230.26 59.04,-332.18 55.16,-102.73 137.61,-189.44 233.41,-255.29 19.27,-13.19 39.09,-25.6 59.44,-37.05 80.09,-44.84 169.21,-76.9 260.78,-86.62 8.67,-0.94 97.53,2.08 89.8,8.05 -27.6,7.45 -56.32,10.92 -84.37,16.34 -71.26,13.7 -141.14,34.26 -205.82,67.63 -34.06,17.88 -66.78,38.35 -97.82,61.07 -88.33,64.93 -164.55,148.94 -211.76,248.49 -43.65,92.71 -59.91,197.88 -31.4,297.49 29.88,92.03 96.63,166.97 171.19,226.22 76.48,59.15 164.02,105.9 256.55,134.22 4.39,1.37 8.81,2.65 13.23,3.92 68.32,19.8 140.81,32.4 211.41,17.37 23.51,-5.12 46.08,-13.46 67.32,-24.77 5.24,-2.81 10.41,-5.76 15.5,-8.83 27.16,-16.11 69.69,-63.09 102.75,-63.57 3.99,0 7.23,1.5 9.21,5.15 7.03,12.77 -1.29,33.26 -6.26,45.11z"/>
     </g>
     <g>
      <path class="fil0" d="M2758.55 1962.85c-11.14,25.04 -25.81,48.45 -44.69,68.4 -24,24.12 -53.33,41.56 -85.63,52.11 -80.19,25.97 -168.42,10.58 -245.37,-18.95 -92.37,-35.59 -175.71,-94.37 -242.24,-167.45 -59.52,-65.97 -108.35,-146.6 -121.76,-235.64 -11.27,-87.18 12.78,-174.46 56.94,-249.43 49.22,-82.24 120.91,-149.91 202.4,-199.72 39.65,-24.03 81.8,-43.87 125.79,-58.55 45.69,-15 93.93,-24.26 142.12,-24.16 6.44,-0.04 93.84,8.68 65.2,22.24 -19.13,4.48 -38.74,6.71 -58.2,9.16 -51.16,6.19 -101.86,14.11 -150,33.36 -34.62,14.28 -67.89,31.79 -99.32,52.15 -73.62,48.01 -138.7,112.21 -179.96,190.4 -34.36,65.92 -49.95,141.31 -31.88,214.41 20.02,70 70.86,130.49 124.02,178.16 62.43,54.83 135.9,98.17 214.61,124.97 33.21,11.4 67.7,19.7 102.78,22.46 24.27,1.9 48.81,2.03 72.86,-2.24 18.53,-3.38 36.4,-9.54 52.68,-19.08 14.33,-8.27 27.1,-18.8 38.93,-30.31 7.1,-6.96 13.97,-14.16 20.84,-21.35 33.27,-34.13 66.02,-20.54 51.65,29.59 -3.01,10.13 -7.03,20.03 -11.77,29.47z"/>
     </g>
     <g>
      <path class="fil1" d="M2658.6 2080.1c-9.07,5.24 -18.55,9.72 -28.27,13.62 -81.82,33 -175.45,19.89 -256.56,-8.36 -97.28,-33.89 -185.45,-93.15 -256.39,-167.55 -65.49,-69.48 -118.6,-154.84 -135.46,-249.95 -14.62,-95.63 8.6,-192.18 55.23,-276 50.39,-89.52 125.06,-164.19 210.63,-220.37 85.27,-55.5 182.72,-94.34 284.3,-105.03 15.32,-1.67 30.71,-2.66 46.11,-2.91 26.87,-0.29 208.54,15.56 199.12,66.62 -1.71,3.39 -5.68,3.61 -9.16,3.71 -69.14,-13.26 -131.38,-37.56 -203.47,-31.79 -8.03,0.74 -16.06,1.67 -24.04,2.79 -94.7,13.2 -185.04,51.6 -262.96,106.59 -76.15,54.19 -141.89,125.72 -180.92,211.27 -32.93,72.6 -44.12,153.8 -22.06,231.18 23.64,72.02 75.09,134.85 129.46,186.02 50.08,46.35 106.85,85.62 168.01,115.92 15.82,7.84 31.84,15.32 48.12,22.17 61.28,25.68 127.39,42.65 194.25,37.62 5.87,-0.49 11.75,-1.14 17.6,-1.93 19.74,-2.7 46.05,-11.14 65.77,-4.46 6.06,2.5 9.82,7.55 10.24,14.12 -0.09,25.62 -29.7,46.43 -49.55,56.72z"/>
     </g>
    </g>
   </g>
   <path class="fil2" d="M2503.4 1398.31c202.92,125.09 559.27,307.06 386.65,604.55 -243.28,420.86 -882.09,59.39 -950.57,-327.48 -67.25,-423.81 493.47,-826.71 887.98,-680.45"/>
   <g>
    <g>
     <g>
      <path class="fil0" d="M320.68 8604.35c-253.2,21.12 730.3,-1547.63 807.2,-1638.34 114.85,-135.06 238.64,-262.54 373.62,-377.62 131.55,-111.38 274.19,-210.46 427.59,-289.4 128.23,-65.55 294.18,-147.49 442.8,-144.97 -19.39,56.57 -363.68,151.07 -423.36,183.73 -39.41,21.71 -78.02,44.88 -115.54,69.71 -244.56,165.31 -470.2,381.23 -628.36,632.27 -121.64,189.8 -58.63,357.59 -141.76,555.65 -76.23,174.83 -186.6,341.64 -288.7,502.11 -38.39,60.01 -352.39,560.15 -453.49,506.86z"/>
     </g>
     <g>
      <path class="fil0" d="M503.9 8268.64c-216.55,48.42 543.67,-1235.58 609.49,-1316.55 215.92,-265.54 468.28,-505.32 766.69,-676.03 9.73,-5.51 19.52,-10.96 29.34,-16.3 273.07,-147.4 679.1,-291.98 991.63,-192.84 -58.13,67.02 -523.84,55.91 -634.54,93.94 -114.51,40.52 -224.43,93.42 -328.24,156.43 -456.27,284.43 -409.11,477.44 -591.73,858.76 -3.7,7.28 -7.32,14.63 -11.14,21.86 -94.29,173.92 -218,337.13 -330.43,499.56 -46.05,66.37 -399.4,614.65 -501.07,571.17z"/>
     </g>
     <g>
      <path class="fil0" d="M612.37 8214.48c39.06,-396.6 400.58,-837.12 641.25,-1127.67 210.36,-254.61 456.18,-485.1 747.06,-645 297.92,-161.14 633.3,-232.54 970.02,-181.76 68.37,10.51 136.22,24.45 203.12,42.04 202.1,53.56 395.83,142.83 563.29,268.58 20.31,15.13 176.79,122.26 163.33,157.14 -65.73,-32.17 -123.52,-85.62 -183.99,-126.39 -106.39,-71.82 -219.03,-134.69 -339.22,-180.32 -134.03,-49.97 -274.04,-82.88 -415.91,-100.61 -320.38,-37.78 -645.19,37.82 -907.72,226.87 -243.82,180.06 -419.89,452.76 -598.62,692.87 -5.79,7.75 -11.69,15.45 -17.52,23.17 -150.88,195.09 -297.94,392.68 -444.92,590.71 -39.7,53.35 -399.33,428.06 -380.17,360.37z"/>
     </g>
     <g>
      <path class="fil0" d="M831.07 7821.96c41.16,-267.57 252.66,-538.41 413.18,-744.16 204.29,-264.04 449.34,-501.33 740.58,-667.6 303.56,-170.23 647.07,-247.23 993.62,-199.98 230.67,32.62 455.15,102.99 658.78,216.95 47.37,26.65 93.45,55.66 138.05,86.72 66,45.95 537.02,402.87 483.94,506.82 -168.76,-124.68 -287,-309.19 -462.18,-432.33 -16.32,-11.33 -32.84,-22.4 -49.54,-33.15 -235.64,-150.56 -503.1,-240.28 -781.15,-267.1 -341.08,-29.82 -637.32,78.97 -893.68,297.26 -117.99,102.5 -230.02,212.34 -337.97,325.29 -106.42,110.73 -212.65,221.16 -313.91,336.71 -59.91,68.08 -118.53,137.3 -177.03,206.6 -47.66,56.38 -433.62,430.77 -412.69,367.97z"/>
     </g>
     <g>
      <path class="fil0" d="M1024.63 7703.29c89.24,-184.65 204.89,-357.02 331.87,-517.65 194.29,-247.82 426.95,-471.67 703.26,-625.98 273.2,-150.32 580.96,-218.13 891.26,-172.95 258.58,38.95 506.13,130.68 720.7,281.25 140.53,98.61 264.18,218.82 373.44,350.9 38.84,47.16 75.72,95.98 111.06,145.82 26.49,37.36 255.62,444.62 246.72,440.06 -111.41,-121.64 -187.73,-276.65 -285.36,-409.19 -17.69,-24.02 -35.86,-47.74 -54.61,-70.95 -124.19,-152.1 -265.16,-291.21 -429.72,-399.4 -209.79,-136.6 -449.58,-213.49 -698.66,-232.72 -287.89,-18.48 -550.71,85.74 -786.17,244.04 -108.51,74.05 -210.47,157.43 -307.67,245.7 -119.34,108.05 -234.54,220.03 -344.8,337.37 -66.79,71.09 -131.78,143.83 -196.84,216.5 -35.48,39.64 -411.94,418.59 -274.48,167.2z"/>
     </g>
     <g>
      <path class="fil0" d="M1287.86 7303.56c22.64,-39.01 47.04,-77.01 72.41,-114.3 176.32,-264.33 410.41,-497.23 684.96,-658.58 277.9,-160.45 593.48,-234 913.25,-192.01 266.98,36.63 523.1,128.11 746.78,279.39 198.31,134.93 364.66,309.79 508.2,500.93 51.87,69.07 101.06,140.15 148.35,212.42 35.54,54.48 349.54,609 340.43,604.88 -137.62,-139.78 -224.1,-334.1 -332.08,-496.08 -65.07,-96.51 -132.46,-191.6 -204.86,-282.77 -144.08,-181.14 -309.58,-346.8 -508.02,-468 -219.66,-131.49 -467.05,-194.47 -721.81,-202.63 -283.05,-5.1 -553.29,92.59 -793.01,237.82 -1.02,0.62 -2.04,1.28 -3.05,1.9l-572.16 442.54c-38.95,35.63 -78.1,71.1 -118.08,105.59 -59,51.4 -288.71,224.57 -161.31,28.9z"/>
     </g>
     <g>
      <path class="fil0" d="M1359.58 7382.48c27.27,-38.21 55.58,-75.7 84.59,-112.61 184.78,-237.44 406.97,-451.89 671.91,-597.83 250.19,-135.77 531.25,-196.03 814.11,-151.33 238,38.58 464.77,126.05 660.19,268.26 176.43,128.39 321.43,293.32 445.63,471.69 81.09,116.46 154.12,238.38 223.78,361.95 45.2,80.52 223.51,473.25 216.07,466.58 -119.45,-139.88 -193.6,-313.71 -287.78,-470.26 -65.31,-107.13 -133.1,-212.93 -207.32,-314.15 -123.66,-168.16 -266.86,-323.5 -442.33,-438.52 -189.43,-122.6 -406.19,-186.42 -630,-205.52 -250.81,-17.87 -490.82,58.34 -707.02,181.49 -65.68,37.81 -129.03,79.64 -190.39,124.1 -166.62,120.48 -321.35,254.7 -470.31,396.27 -28.67,27.4 -57.11,55.07 -85.66,82.59 -185.23,178.53 -264.39,161.96 -95.47,-62.71z"/>
     </g>
     <g>
      <path class="fil1" d="M1633.53 7031.82c134.49,-153.03 290.39,-288.6 466.59,-391.62 255.07,-147.27 545.17,-213.99 838.35,-172.79 247.11,36.23 483.63,123.21 688.76,266.73 184.55,129.12 337.49,296.64 469.64,477.93 172.26,236.71 312.49,494.6 462.26,745.59 36.68,61.59 312.13,412.43 283.69,468.44 -6.88,4.32 -18.14,-5.42 -23.47,-9.19 -141.36,-127.82 -233.21,-303.3 -332.93,-462.97 -146.83,-232.78 -284.51,-472.87 -454.48,-690.02 -132.28,-168.51 -285.63,-321.57 -470.4,-432.04 -198.15,-116.09 -421.8,-174.68 -649.54,-194.11 -208.61,-15.29 -414.43,26.61 -605.86,109.18 -41.74,18.02 -82.98,37.21 -123.54,57.76 -164.79,83.87 -315.29,190 -462.48,301.22 -186.46,140.6 -262.34,115.36 -86.59,-74.11z"/>
     </g>
    </g>
   </g>
   <path class="fil2" d="M206.04 8539.11c557.19,-690.45 1455.57,-2340.55 2743.11,-2140.42 1155.6,179.62 1413.84,1211.63 2056.76,1867.56"/>
   <g>
    <path class="fil3" d="M3198.51 4511.04l-36.86 18.67c-17.29,6.8 -41.74,33.86 -45.02,56.34 -6.41,43.86 15.12,35.62 3.17,81.71l-14.1 5.11c-38.66,29.96 -96.74,10.91 -133.43,0.17 -83.34,-24.39 -193.8,-82.71 -275.65,-119.11 -8.65,-3.85 -41.58,-19.7 -47.65,-24.47 -13.49,3.15 -4.68,0.43 -14.92,5.28 -1.86,0.88 -7.88,4.81 -10.55,6.48 -7.44,4.65 -11.51,7.23 -18.8,9.43l-18.63 17.12c-7.09,5.08 -11.52,9.76 -17.28,14.45 -9.86,8.02 -25.54,17.43 -37.95,26.36l-74.28 58.04c-15.31,14.63 -85.86,79.36 -93.31,98.78 -7.12,18.53 -0.09,41.9 8.3,51.44 10.31,-1.61 16.34,7.74 33.97,12.1 42.57,10.54 140.77,-23.08 216.08,33.49 16.95,12.73 37.87,36.59 42.45,57.66 4.67,28.83 0.06,43.85 -13.36,60.97 -9.69,12.36 -26.12,29.49 -39.39,36.92 -99.37,55.61 -249.44,41.14 -286.73,-35.28 -9.27,-19 -20.42,-31.09 -42.53,-36.58 -65.17,-16.18 -122.91,25.09 -156.29,71.73 -18.54,25.92 -15.06,12.79 -41.69,54.48 -0.65,1.02 -2.58,4 -3.29,4.97 -12.4,16.95 -10.48,6.64 -21.93,29.84l-22.39 38.04c-12.75,18.71 -10.08,10.01 -20.09,35.5 -5.63,14.35 -7.43,14.85 -14.43,26.36l-6.11 10.07c-11.61,17.16 -14.24,18.98 -18.81,46.89l0.66 7.64c28.36,4.03 56.14,11.69 85.21,16.98 33.22,6.05 51.13,14.18 81.39,20.33 51.97,10.55 222.78,51.76 271.29,77.08 4.57,2.39 10.2,6.25 14.31,9.21l15.59 12.56c22.07,23.61 10.58,49.92 -12.97,65.08 -25.67,16.52 -46.31,-0.19 -80.43,-3.9 6.71,9.06 2.19,5.46 13.82,10.39l18.28 5.64c-5.34,1.25 -9.14,1.74 -12.93,3.12 -15.49,5.65 -5.12,2.52 -12.91,7.16 -8.74,5.19 1.58,0.22 -10.69,5.35 -0.92,0.39 -2.07,0.65 -2.99,1.03l-68.03 56.36c-6.34,7.88 -13.98,13.5 -16.22,23.92 -1.12,5.21 -0.4,9.97 -0.95,15.38 -2.97,29.07 3.92,-19.11 -0.92,7.41 -0.2,1.11 -0.58,2.18 -0.81,3.19 -6.69,30.11 2.83,2.4 1.37,32.93 -0.88,18.39 -2.33,1.09 -1.59,13.13 0.05,0.81 0.13,1.97 0.27,2.73 0.14,0.74 0.49,1.85 0.72,2.55 0.23,0.7 0.8,1.76 1.11,2.44l3.09 4.65c22.29,35.2 24.66,85.25 34.74,102.01 21.99,36.56 4.88,38.52 28.64,59.64 11.08,9.84 13.83,6.64 17.97,22.15l16.03 -3.99c-21.59,-26.21 -31.83,-25.78 -43.26,-63.9 -7.46,-24.88 -25.21,-60.87 -27.95,-86.96 20.77,8.42 30.94,29.64 79.32,46.86 33.25,11.84 73.42,7.44 109.7,11.32l27.86 -5.25c0.92,-0.98 2.38,-3.58 2.97,-2.71 0.59,0.88 2.94,-2.88 5.82,-4.82 0.53,-0.36 8.31,-4.72 8.5,-4.81 33.92,-15.85 71.01,-19.76 108.99,-79.01 37.96,-59.23 -12.42,-99.23 29.36,-131.48 9.54,-7.37 24.99,-17.26 34.72,-11.07 66.99,-9.98 56.49,-14.95 140.63,19.73 45.08,18.58 80.61,36.2 123.67,56.93 21.2,10.2 39.47,21.98 58.81,30.3 18.36,7.9 38.83,19.93 58.55,29.35 11.27,5.38 17.42,8.79 28.56,15.34 12.02,7.08 18.89,8.17 29.79,14.29 19.4,10.87 40.16,21.45 62.13,30.86 8.72,-11 24.51,-33.56 38.05,-37.18 6.91,-17.16 46.46,-47.55 62.66,-64.75l79.03 -77.97c0.62,-0.49 1.59,-1.17 2.2,-1.65 0.61,-0.49 1.58,-1.19 2.17,-1.68l42.21 -44.59c31.75,-39.13 83.07,-78.84 40.72,-119.94 -11.97,-11.62 -27.57,-12.97 -41.82,-26.83 -43.07,0 -8.96,-10.27 -41.56,-1.95 -21.84,5.57 -105.69,5.25 -129.35,-3.71l-33.17 -10.78c-0.91,-0.16 -2.08,-0.36 -2.97,-0.44 -0.93,-0.09 -2.26,-0.01 -3.11,-0.03l-6.54 0.84c-37.67,-7.04 -85.58,-64.47 -74.95,-115.09 8.21,-39.12 29.78,-61.04 63.74,-81.08 0.65,-0.38 16.33,-8.47 17.02,-8.61 38.86,-7.84 13.05,-4.4 19.3,6.96 15.99,-4.38 14.9,-9.11 34.98,-14.81 17.32,7.34 138.4,-29.44 220.46,60.44 11.08,12.13 14.58,22.78 29.15,30.77 34.73,19.04 60.54,13.51 103.6,13.21 12.3,12.86 28.86,44.6 37.33,62.73 0.4,0.84 0.91,1.87 1.3,2.72 0.39,0.86 0.9,1.87 1.28,2.74 12.83,29.58 2.26,32.01 14.05,39.8 -8.23,2.38 -21.95,9.68 -29.24,11.35 -13.81,3.16 -30.27,1.01 -44.78,0.94 3.45,8.24 -0.41,11.93 44,7.93 17.35,-1.57 25.64,-7.53 44.28,-7.95 2.48,-9.35 0.58,-6.1 0.02,-12.03l6.5 -10.16c8.56,-22.34 -9.05,-27.34 -22.29,-57.21 -17.47,-39.4 -10.26,-44.77 -34.77,-58.1l-5.28 -2.94c23.21,-20.42 42.75,-52.17 55.51,-79.75l51.69 -108.1c0.4,-0.87 0.87,-1.92 1.26,-2.8 0.41,-0.91 0.88,-1.95 1.29,-2.86l43.24 -101.69 1.02 -4.98 -274.21 -53.05c-76.1,-16.94 -206.4,-33.85 -214.35,-106.98 -6.96,-29.79 -24.8,-9.92 -21.84,-53.24 18.62,-13.89 23.03,-22.91 51.2,-28.14 52.88,-9.82 122.04,-52.38 94.4,-123.41 -4.4,9.82 4.61,1.41 -6.25,7.13 -27.73,-14 -61.83,-31.35 -96.47,-34.52 -79.41,-7.28 -84.72,7.55 -120.43,11.34z"/>
    <path class="fil4" d="M1597.68 4259.82c-14.7,6.34 -18.63,21.24 -31.13,38.42l-114.18 138.62c-0.51,0.67 -1.17,1.66 -1.69,2.32l-47.11 45.19c-22.27,16.85 -105.05,36.73 -119.73,-5.67 -8.17,-23.59 3.21,-9.53 -16.02,-24.37l-4.23 -3.11c-7.68,-6.92 1.16,-5 -13.99,-14.26 -68.91,-42.12 -208.9,-30.11 -255.3,3.28 -19.1,13.75 -37.52,23.83 -52.87,43.44 -0.52,0.66 -1.23,1.6 -1.74,2.27l-11.23 16.89c-2.89,5.87 -3.78,8.74 -5.39,14.99 -8.04,31.28 8.32,35.65 12.57,64.49 4.1,27.83 -0.55,15.8 7.07,41.38 2.29,7.66 0.08,-0.9 1.14,4.13 1.15,5.44 3.53,21.55 0.02,30.81l-2.71 5.2c-0.28,0.56 -1.21,1.65 -1.55,2.6 14.67,-6.06 28.71,15.37 32.1,28.09l14.44 0c-7.11,-10.93 1.48,1.66 -6.25,-7.68 -0.79,-0.95 -3.16,-3.69 -3.95,-4.65 -10.68,-13.03 -19.08,-23.9 -21.72,-40.02 -2.74,-16.76 -10.27,-52.89 -7.7,-62.01 14.05,1.4 8.63,23.25 101.44,39.41 39.98,1.02 74.23,-7.15 108.54,-6 83.88,2.83 54.06,83.16 -1.39,102.84 -31.46,11.16 -66.65,9.72 -99.14,3.06 7.66,8.66 -2.69,3.96 19.32,8.39 19.77,3.98 36.86,-1.24 64.94,-1.24l-7.23 4.8c-0.59,0.43 -1.7,1.18 -2.36,1.66l-203 146.09c-16.43,11.91 -10.15,3.53 -35.99,24.21 -25.34,20.29 -33.91,0.2 -21.07,69.67l6.08 39.1c1.71,20.19 -1.11,23.63 16.9,27.45 -5.66,-22.05 -19.8,-91.57 -18.18,-112.37l88.75 55.97c48.79,28.63 74.09,47.05 132.71,72.21l41.89 18.16c20.37,10.27 15.21,12.66 42.18,15.74 24.72,-1.37 32.93,7.4 55.36,9.23 37.86,3.08 78.26,-1.96 98.96,-32.74 14.4,-21.41 1.98,-23.82 3.37,-49.58 3.36,-62.39 76.49,-101.68 131.29,-116.52 164.94,-44.69 318.05,53.39 212.04,164.09 -14.86,15.52 -1.84,8.15 -20.06,11.91 -13.73,-7.45 -7.24,4.31 -34.91,13.24 -28.16,9.09 -18.26,12.15 -35.16,17.02 -20.18,5.8 -0.19,-4.45 -40.88,11.28 -49.79,19.25 -62.12,46.23 -41.35,96.66l8.75 29.85c6.08,19.41 7.13,18.99 7.13,44.64l10.82 0c-3.83,-20.8 -15.72,-68.45 -14.75,-83.74 48.39,38.58 155.36,62.76 215.82,76.97 72.02,16.92 168.75,39.74 244.85,46.29 -1.78,-31.75 -20.33,-57.33 -5.19,-63.92 4.57,-27.91 7.2,-29.73 18.81,-46.89l6.11 -10.07c7,-11.51 8.8,-12.01 14.43,-26.36 10.01,-25.49 7.34,-16.79 20.09,-35.5l22.39 -38.04c11.45,-23.2 9.53,-12.89 21.93,-29.84 0.71,-0.97 2.64,-3.95 3.29,-4.97 26.63,-41.69 23.15,-28.56 41.69,-54.48 33.38,-46.64 91.12,-87.91 156.29,-71.73 22.11,5.49 33.26,17.58 42.53,36.58 37.29,76.42 187.36,90.89 286.73,35.28 13.27,-7.43 29.7,-24.56 39.39,-36.92 13.42,-17.12 18.03,-32.14 13.36,-60.97 -23.45,-5.94 -18.79,-16.76 -68.58,-30.93 -30.18,-8.58 -54.52,-11.01 -91.08,-9.18 -91.85,4.62 -100.36,23.2 -132.84,-63.14 -8.39,-9.54 -15.42,-32.91 -8.3,-51.44 7.45,-19.42 78,-84.15 93.31,-98.78l74.28 -58.04c12.41,-8.93 28.09,-18.34 37.95,-26.36 5.76,-4.69 10.19,-9.37 17.28,-14.45l18.63 -17.12c-7.71,-10.44 -25.91,-16.93 -40.37,-23.86 -16.66,-7.98 -22.42,-12.93 -42.18,-21.6 -16.97,-7.45 -31.54,-13.09 -48.02,-20.59 -17.08,-7.78 -26.96,-13.18 -44.55,-19.67 -63.1,-23.3 -129.31,-57.94 -206.89,-31.7 -11.01,10.45 -23.94,8.41 -26.66,28.66 -2.56,19.1 4.89,28.6 -0.14,51.16 -5.44,24.37 -32.37,49.28 -51.18,57.72 -9.01,10.4 -23.8,18.43 -41.91,21.59 -36.2,23.48 -110.2,18.96 -154.17,6.87 -23.08,-6.36 -42.51,-12.49 -58.53,-28.44 -17.03,-16.96 -26.99,-29.13 -31.4,-58.3 -4.85,-23.07 -25.81,-21.64 -12.3,-67.1 19.27,-64.86 109.16,-75.01 165.41,-100.6l-0.37 -15.36c-29.4,-9.69 -63.05,-23.51 -93.14,-30.52 -80.74,-18.81 -226.19,-48.57 -307.79,-55.81 -7.12,14.32 -2.49,12.38 -12.83,16.72z"/>
    <path class="fil5" d="M2620.69 4168.37c50.87,25.74 61.41,41.19 140.78,40.25 49.5,-0.58 125.24,-24.81 126.23,43.42l-21.77 -3.59 22.64 9.6c-10.13,21.07 -25.86,36.25 -42.75,51.69l-191.15 149.75c-9.38,5.75 -33.65,14.67 -24.79,25.76l115.54 57.04c23.01,12.02 39,17.71 59.76,28.34 18.08,9.26 43.6,24.25 67.86,25.37 24.31,-0.18 33.11,9.99 54.3,17.63 19.04,6.87 36.46,13.22 54.94,17.94 44.44,11.36 91.66,2.98 112.28,-29.33 1.04,-21.11 -9.88,-29.4 -9.43,-52.29 0.97,-48.54 65.57,-90.28 101.49,-86.76 49.02,-0.77 121.82,-24.85 192.91,22.84 17,11.4 30.59,17.19 42.13,41.06 27.64,71.03 -41.52,113.59 -94.4,123.41 -28.17,5.23 -32.58,14.25 -51.2,28.14 -2.96,43.32 14.88,23.45 21.84,53.24 88.64,45.38 238.2,70.27 339.81,88.77 25.54,4.65 111.96,14.41 125.38,21.01 1.02,-15.04 2.62,-42.58 11.09,-52.54 7.48,-34.84 86.83,-241.47 145.23,-232.63l12.93 -0.78c104.78,-23.25 82.69,29.5 150.95,64.7 63.02,32.51 114.33,37.35 192.5,22.55 0.81,-0.33 9.86,-3.64 9.96,-3.69 8.65,-4.73 6.45,-3.5 8.74,-6.84 4.17,-11.33 -0.37,-3.76 9.54,-12.24 3.27,-2.8 9.61,-6.5 14.2,-10.54 6.15,-5.4 17.35,-16.53 22.66,-24.35 18.68,-27.47 8.27,-46.46 1.46,-75.36l4.81 -11.77c-15.11,-9.83 -22.49,-23.86 -37.57,-31.73 -11.33,-5.91 -15.25,-4.05 -27.28,-8.98 -11.3,-4.63 -12.67,-10.39 -28.26,-3.71 -91.39,-23.03 -99.97,-3.61 -152.37,-8.75 -36.02,-3.54 -94.08,-33.44 -65.97,-76.83 11.71,-18.07 23.1,-32.49 36.43,-47.89l29.62 -30.62c6.15,-6.64 2.26,-3.22 10.29,-10.34 0.89,-0.79 5.76,-4.76 6.64,-5.51 0.61,-0.51 1.52,-1.27 2.12,-1.79l80.57 -63.04c6.93,-9.37 3.02,-4.87 11.59,-13.19 1.43,-1.39 7.32,-6.27 8.77,-7.31 10.88,-7.82 13.42,-6.09 21.63,-15.6 -12.1,-8.48 -11.45,-4.04 -21.4,-16.05 -1.85,-5.78 -3.79,-7.07 -18.73,-13.24 -42.65,-17.61 -117.07,-52.71 -161.31,-67.56 -73.74,-24.74 -209.67,-82.48 -269.4,-19.51 0.83,9.93 1.45,11.96 3.36,20.77l3.74 12.58c11.88,35.07 -3.26,51.94 -27.9,70.23 -8.56,6.36 -23.64,13.66 -34.8,17.37 -46,15.32 -86.27,17 -132.71,7.16 -15.34,-3.25 -29.45,-9.32 -44.42,-3.74 -26.91,-6.57 -63.35,-31.47 -70.19,-60.23 -12.05,-50.68 16.69,-62.09 39.53,-81.19 11.13,10.52 2.31,1.06 5.9,13.32 10.36,35.43 32.55,57.56 35.78,78.02l13.06 -2.05c17.49,5.87 3.05,5.06 18.37,-1.11 0.25,-0.1 7.13,-3.91 8.05,-4.62 9.38,-7.19 2.81,0.63 9.69,-10.32l-36.11 8.85c-6.26,-38.85 -19.18,-26.77 -38.12,-77.08 19.53,-16.08 39.68,-26.38 75.09,-25.05 7.66,32.13 10.6,26.45 22.68,45.98 17.08,27.64 20.67,28.34 16.67,39.26l3.95 0c6.7,-11.44 -4.9,-1.82 8.13,-12.04 -7.24,-12.67 -15.77,-30.61 -25.59,-46.53 -29.99,-48.57 -13.42,-23.71 -33.89,-36.88 64.72,-40.12 -58.44,-72.19 -66.34,-76.44l-6.7 -4.67c-3.62,-7.28 -19.33,-9.3 -29.12,-10.99l-202.48 -38.32c-11.38,-2.2 -28.98,-2.09 -42.97,-5.19 -16.65,-3.69 -23.26,-8.38 -42.45,-2.54l-14.56 -1.1 -45.1 91.41c-3.59,6.34 -3.93,5.92 -7.98,11.67l-44.39 67.69c-12.87,14.58 -17.74,22.4 -31.8,36.53 -41.03,41.23 -118.74,41.48 -143.55,5.95 -53.56,-76.68 -210.11,-80.07 -295.65,-11.52 -0.62,0.49 -1.61,1.17 -2.2,1.69 -11.05,9.79 -17.04,34.06 -15.78,51.21 0.86,11.7 12.09,39.39 18.96,43.77z"/>
    <path class="fil6" d="M1981.79 3879.96l-9.27 -28.14c22.61,4.19 22.76,17.57 81.88,11.92 69.49,-6.64 190.16,1.43 164.96,97.34l-23.79 -5.91c5.74,9.69 -0.07,6.16 12.03,9.06l0 8.02c-24.24,8.78 -31.27,52.22 -148.55,52.27 -46.81,0.02 -86.66,-7.08 -117.67,-34.88 -13.74,-12.32 -18.39,-11.83 -14.66,-29.43 -28.9,-6.73 -41.26,-30.64 -100.31,-12.03 -12.49,3.93 -3.96,1.94 -14.51,5.55 -22.39,7.67 -20.83,6.08 -46.91,25.32l-44.2 44.09c-3.09,3.64 -2.2,2.86 -5.27,6.76l-54.79 65.59c-0.49,0.7 -1.14,1.68 -1.61,2.4 -0.47,0.73 -1.04,1.77 -1.5,2.51l-46.65 65.71c-25.32,36.89 -17.7,29.12 -8.35,62.55 7.86,28.1 -2.44,5.34 -4.94,31.16 10.34,-4.34 5.71,-2.4 12.83,-16.72 3.69,-18.37 -2.61,-27.32 -6.21,-44.29 24,-1.98 302.94,57.87 354.88,74.16 19.88,6.24 59.53,18.73 63.68,45.52 2.44,15.78 -3.83,16.51 -11.05,26.3 -56.25,25.59 -146.14,35.74 -165.41,100.6 -13.51,45.46 7.45,44.03 12.3,67.1 13.24,7.23 14.22,14.05 33.68,23.84 13.56,6.83 29.89,13.8 43.1,16.44 42.27,8.46 68.08,3.88 107.63,4.55l0 -5.59 -0.45 0.36c30.11,-3.09 66.48,-18.86 89.45,-38.09l4.4 -3.67c0.59,-0.48 5.69,-4.4 6.6,-5.1 43.92,-34.09 21.88,-60.81 27.53,-90.99 4.14,-22.07 33.58,-37.57 58.48,-36.36 46.59,2.76 49.12,-7.15 115.5,19.24 33.93,13.49 65.54,25.87 99.57,40.41 63.79,27.24 127.41,61.93 195.68,87.81l-5.09 -19.39 -4.9 -20.7c-8.86,-11.09 15.41,-20.01 24.79,-25.76l191.15 -149.75c16.89,-15.44 32.62,-30.62 42.75,-51.69l-22.64 -9.6c-41.61,-8.76 -96.83,6.63 -152.07,-3.77 -36.23,-6.82 -83.46,-34.06 -93.17,-76.31 -6.87,-4.38 -18.1,-32.07 -18.96,-43.77 -1.26,-17.15 4.73,-41.42 15.78,-51.21 0.59,-0.52 1.58,-1.2 2.2,-1.69 85.54,-68.55 242.09,-65.16 295.65,11.52 24.81,35.53 102.52,35.28 143.55,-5.95 14.06,-14.13 18.93,-21.95 31.8,-36.53l44.39 -67.69c4.05,-5.75 4.39,-5.33 7.98,-11.67l45.1 -91.41 14.56 1.1c-3.66,-4.14 3.04,-7.16 -24.08,-7.16 -0.65,29.39 -5.32,3.27 -12.04,32.1 -22.42,0 -152.29,-24.4 -174.97,-29.66 -22.44,-5.21 -44.39,-5.19 -57.76,-14.48l-32.1 0c9.48,-12.94 17.58,-15.11 32.1,-12.03l-8 -8.03 11.58 -16.05c-20.92,-57.28 -18.14,-68.99 -50.18,-70.33 11.52,-8.18 10.19,-9.76 18.34,-18.01 35.01,-35.4 28.5,-40.32 16.24,-80.19 5.85,-10.78 5.74,-4.39 -9.45,-14.35 -25.82,-16.94 -63.77,-26.87 -102.78,-29.79l-48.51 0c-29.39,2.26 -56.66,8.73 -76.68,19.41 -79,42.15 -50.07,47.53 -55.52,113.01 -18,1.49 -48.19,24.58 -114.83,2.47l-253.54 -99.57c-49.13,-22.59 -51.84,-5.53 -71.89,5.93l-127.67 76.98c-5.28,4.66 -5.05,5.47 -5.82,6.22l-6.39 5.65c-0.72,0.48 -1.76,1.05 -2.52,1.49 -35.39,20.81 -79.59,66.94 -87.45,69.04 0,29.04 -1.26,32.86 7.14,55.83l5.52 12.35c9.38,10.73 0.04,1.2 10.31,8.06z"/>
    <path class="fil7" d="M2696.09 5514.34l1.87 0.69c1.68,25.55 7.39,20.3 15.07,42.78l6.44 17.53c7.68,14.95 17.35,41.59 19.06,60.36l11.86 -0.43c30.37,1.21 44.92,-5.1 78.37,2.61 14.9,3.43 48.65,13.23 59.84,23.69 -1.44,17.18 -4.35,5.29 30.91,18.39 19.65,7.3 9.05,7.79 34.31,17.86l73.21 31.12c13.76,7.4 3.11,8.36 33.26,18.9 1.69,0.59 7.43,2.56 8.83,3.21l73.99 42.67c14,8.23 5.44,7.72 19.5,4.3 19.09,4.46 27.47,9.49 43.24,20.45 15.01,10.43 25.62,16.09 41.93,19.78 -3.2,-21.88 -16.41,-44.46 -25.04,-64.14 -5.72,-13.02 -21.5,-49.59 -24.51,-62.97 -21.97,-9.41 -42.73,-19.99 -62.13,-30.86 -10.9,-6.12 -17.77,-7.21 -29.79,-14.29 -11.14,-6.55 -17.29,-9.96 -28.56,-15.34 -19.72,-9.42 -40.19,-21.45 -58.55,-29.35 -19.34,-8.32 -37.61,-20.1 -58.81,-30.3 -43.06,-20.73 -78.59,-38.35 -123.67,-56.93 -84.14,-34.68 -73.64,-29.71 -140.63,-19.73z"/>
    <path class="fil8" d="M1536.28 5288.4c-6.39,11.26 -5.66,6.18 -6.81,20.06 9.75,3.53 10.45,8.82 17.4,18.71l5.2 6.84c9.6,9.8 29.66,14.16 41.23,18.96l11.15 4.9c22.52,8.03 17.01,-1.22 39.06,13.1 5.9,3.82 2.46,2.98 10.24,5.82 4.02,1.46 12.3,2.54 16.71,3.35l70.34 17.94c24.39,10.63 25.52,3.72 44.17,7.99 11.45,2.62 -2.13,-0.86 11.65,4.4l73.8 18.49c33.83,1.83 22.52,2.34 42.99,9.17 11.49,3.83 35.85,7.68 49.42,3.83l58.4 10.03c-2.81,-29.03 -12,-32.83 -16.12,-57.78l12.01 -0.69c-10.17,-7.37 -3.08,1.52 -10.13,-8.76l-5.66 -15.67c-6.71,-28.58 -19.01,-54.98 -23.66,-97.45l-0.66 -7.64c-15.14,6.59 3.41,32.17 5.19,63.92 -76.1,-6.55 -172.83,-29.37 -244.85,-46.29 -60.46,-14.21 -167.43,-38.39 -215.82,-76.97 -0.97,15.29 10.92,62.94 14.75,83.74z"/>
    <path class="fil7" d="M2017.12 5393.52l45.56 11.24c10.97,0.24 15.73,4.36 25.18,7.42l83.54 16.75c10.92,0.4 7.96,-0.52 17.99,2.07 0.09,0.02 8.06,2.92 8.81,3.23l8.16 3.87c15.27,6.22 52.49,12.72 71.79,16.5 60.56,11.87 51.26,23.33 73.91,14.38 34.12,3.71 54.76,20.42 80.43,3.9 23.55,-15.16 35.04,-41.47 12.97,-65.08l-15.59 -12.56c-4.11,-2.96 -9.74,-6.82 -14.31,-9.21 -48.51,-25.32 -219.32,-66.53 -271.29,-77.08 -30.26,-6.15 -48.17,-14.28 -81.39,-20.33 -29.07,-5.29 -56.85,-12.95 -85.21,-16.98 4.65,42.47 16.95,68.87 23.66,97.45l5.66 15.67c7.05,10.28 -0.04,1.39 10.13,8.76z"/>
    <path class="fil9" d="M3236.28 5673.96c25.95,9.02 12.55,-1.85 33.3,-11.14 8.2,-3.67 0.56,-1 13.41,-3.92 0.81,1.07 1.68,1.45 2,3.48l4.8 10.09c1.55,4.16 2.8,10.63 3.77,14.67 8.13,-0.02 22.32,-1.71 29.37,1.19 16.31,6.71 10.92,8.3 10.92,29.42l9.77 3.75c6.77,5.45 10.03,17.62 9.67,20.44 -3.03,23.29 -26.92,28.82 -30.06,31.48 -26.39,22.33 10.34,-17.4 -6.1,7.62l-23.76 23c-12.27,11.66 -7.95,4.92 -10.36,22.05 20.75,-6.91 39.52,-26.02 53.3,-43.09l15.56 -14.24c16.78,-21.12 11.78,-11.18 39.1,-39.34 0.57,-0.59 1.4,-1.45 2,-2.01 0.6,-0.57 1.49,-1.35 2.12,-1.89l40.87 -39.38c13.94,-18.02 -6.71,5.84 5.04,-7 8.39,-9.17 -0.24,0 8.78,-7.28 9.52,-7.68 7.26,-6.89 13.98,-14.1l80.07 -98.21c0.27,-0.41 0.81,-1.42 1.05,-1.84 0.45,-0.79 2.35,-5.1 2.73,-6.06 5.88,-14.88 4.38,-30.04 -2.43,-47.94 -0.35,-0.91 -0.82,-1.93 -1.2,-2.81 -0.37,-0.87 -0.91,-1.87 -1.3,-2.71l-25.52 -58.75c-1.31,-2.67 -3.58,-6.81 -4.13,-7.91 -0.48,-0.96 -2.16,-4.41 -2.62,-5.4l-11.75 -24.37c-0.44,-0.76 -1.11,-1.71 -1.55,-2.46 -9.88,-16.84 -10.93,-29.43 -16.12,-36.05 -13.33,-17.04 -23.65,-4.9 -29.47,-26.7l-28.07 0c14.25,13.86 29.85,15.21 41.82,26.83 42.35,41.1 -8.97,80.81 -40.72,119.94l-42.21 44.59c-0.59,0.49 -1.56,1.19 -2.17,1.68 -0.61,0.48 -1.58,1.16 -2.2,1.65l-79.03 77.97c-16.2,17.2 -55.75,47.59 -62.66,64.75z"/>
    <path class="fil8" d="M893.57 5039.61c1.08,12.84 6,10.41 16.94,16.99l46.46 29.86c0.9,0.4 2.07,0.64 2.99,1.02l22.53 13.58c27.94,17.58 52.35,23.36 80.72,43.81 12.28,8.85 10.28,8.11 24.87,4.81 20.82,6.79 29.2,15.49 53.06,25.41 16.32,6.78 31.16,16.06 49.2,22.01 41.9,13.81 66.41,29.57 120.52,17.72 2.43,-16.79 -9.17,-94.27 -23.86,-110.82 -52.14,-4.8 -60.09,6.25 -106.08,-14.68 -26.97,-3.08 -21.81,-5.47 -42.18,-15.74l-41.89 -18.16c-58.62,-25.16 -83.92,-43.58 -132.71,-72.21l-88.75 -55.97c-1.62,20.8 12.52,90.32 18.18,112.37z"/>
    <path class="fil9" d="M3688.29 5320.5l20.04 0c0.28,-0.6 0.28,-2.4 0.35,-1.94l48.68 -65.67c4.42,-7.81 3.64,-6.97 5.65,-15.96 3.62,-16.21 -1.32,-4.03 11.7,-22.41 6.63,-9.36 0.12,2.81 7.58,-12.66l59.23 -149.01c12.27,-39.88 24.72,-27.53 12.18,-57.99 -0.19,-0.46 -6.88,-13.25 -6.97,-13.39 -5.98,-9.93 -14.18,-17.03 -16.77,-27.7 -4.06,-16.71 7.69,-35.82 14.8,-38.55 -2.58,-9.73 -0.39,-5 -8.01,-12.84 -1.63,6.39 -13.74,34.71 -17.01,39.77 -18.43,-13.97 -13.68,-35.67 -34.3,-45.26l-43.24 101.69c-0.41,0.91 -0.88,1.95 -1.29,2.86 -0.39,0.88 -0.86,1.93 -1.26,2.8l-51.69 108.1c-12.76,27.58 -32.3,59.33 -55.51,79.75l5.28 2.94c24.51,13.33 17.3,18.7 34.77,58.1 13.24,29.87 30.85,34.87 22.29,57.21l-6.5 10.16z"/>
    <path class="fil7" d="M3316.59 5218.28c21.86,2.12 44.27,-2.87 66.72,-2.17 10.91,0.34 21.57,1.54 32.35,2.72 15.9,1.74 19.59,1.87 27.82,9.38 3.73,11.68 29.28,13.44 42.16,18.04 11.88,4.23 6.68,3.21 10.22,5.83l29.79 22.38c27.52,25.59 1.68,23.08 46.75,53.71 10.23,6.95 12.9,10.18 27.59,4.38 14.51,0.07 30.97,2.22 44.78,-0.94 7.29,-1.67 21.01,-8.97 29.24,-11.35 -11.79,-7.79 -1.22,-10.22 -14.05,-39.8 -0.38,-0.87 -0.89,-1.88 -1.28,-2.74 -0.39,-0.85 -0.9,-1.88 -1.3,-2.72 -8.47,-18.13 -25.03,-49.87 -37.33,-62.73 -43.06,0.3 -68.87,5.83 -103.6,-13.21 -14.57,-7.99 -18.07,-18.64 -29.15,-30.77 -82.06,-89.88 -203.14,-53.1 -220.46,-60.44 2.86,17.49 -0.46,3.48 2.06,12.77l30.3 62.12c12.34,8.91 1.62,0.37 5.79,1.33l1.01 33.51 10.59 0.7z"/>
    <path class="fil10" d="M3932.34 4555.71c16.05,9.42 1.46,-1.58 11.14,12.4 7,10.09 -1.61,1.24 8.26,11.54 26.98,28.17 12.35,19.6 25.69,34.51 5.48,6.12 2.3,1.85 6.23,5.68 10.2,9.93 13.68,16.08 16.94,30.08 34.35,-2.24 62.72,-4.08 79.87,20.53l35.69 41.58c58.35,43.12 123.13,44.58 194.05,38.67 16.57,-12.74 14.39,1.93 30.89,-17.19 -21.09,-8.22 -8.05,4.23 -19.23,-18.67 -0.42,-0.85 -0.84,-1.94 -1.26,-2.78 -2.97,-5.9 -0.7,-1.86 -4.3,-7.68l-21.47 -38.74c-1.3,-2.57 -5.97,-12.83 -6.49,-13.54 -6.69,-9.09 -0.01,-5.62 -12.56,-9.14 -78.17,14.8 -129.48,9.96 -192.5,-22.55 -68.26,-35.2 -46.17,-87.95 -150.95,-64.7z"/>
    <path class="fil11" d="M1180.92 5089.32c45.99,20.93 53.94,9.88 106.08,14.68 0.87,-0.83 2.27,-3.13 2.81,-2.27l11.79 -6.65c5.92,-2.22 14.18,-3.22 19.21,-4.81 7.31,10.24 30.14,81.82 23.46,109.85l-33.41 14.7c-54.11,11.85 -78.62,-3.91 -120.52,-17.72 -18.04,-5.95 -32.88,-15.23 -49.2,-22.01 -23.86,-9.92 -32.24,-18.62 -53.06,-25.41 0,14.56 -0.86,8.94 13.69,16.85 15.18,8.26 -12.6,-6.09 5.53,2.41l54.88 25.29c5.88,4.32 0.91,1.43 7.24,4.79 0.09,0.05 8.12,3.43 8.47,3.57 8.71,3.54 4.46,1.96 11.62,4.44 54.02,18.71 126.88,32.13 175.73,-6.62 11.41,-9.05 17.06,-21.92 18.5,-37.25 5.65,-60.14 -3.77,-84.55 80.95,-128.13 27.64,-14.22 47.42,-18.93 84.11,-24.24 46.96,-6.79 58.72,4.01 99.28,4.75 -27.46,-22.51 -96.72,-12 -128.15,-7.36 -7.36,3.99 -78.04,26.47 -85.54,26.66 -1.35,-63.69 -20.11,-71.62 -15.21,-102.68 16.13,-11.49 38.42,-24.03 64.15,-28.07 54.91,-15.42 119.96,-10.11 165.33,12.06 39.29,19.21 81.23,69.26 45.33,115.09 -11.94,-7.45 -6.73,-6.32 -20.07,-9.98 9.2,18.84 15.56,31.99 -12.04,38.42l0 16.03c18.22,-3.76 5.2,3.61 20.06,-11.91 106.01,-110.7 -47.1,-208.78 -212.04,-164.09 -54.8,14.84 -127.93,54.13 -131.29,116.52 -1.39,25.76 11.03,28.17 -3.37,49.58 -20.7,30.78 -61.1,35.82 -98.96,32.74 -22.43,-1.83 -30.64,-10.6 -55.36,-9.23z"/>
    <path class="fil9" d="M2505.73 5748.24c16.58,-3.1 20.01,-6.65 34.97,-5.28 6.11,-8.74 41.76,-19.42 56.13,-21.88 18.06,24.55 24.61,63.95 30.15,92.22 4.2,21.48 9.81,3.42 6.96,32.85 -9.71,7.44 -28.41,16.93 -39.82,20.73 -8.25,3.57 -14.14,5.93 -21.51,11.37 6.49,0 13.11,0.53 19.47,-0.74 1.13,-0.22 2.12,-0.54 3.2,-0.82l62.5 -33.79 48.68 -67.69c1.96,-5.7 1.01,-2.01 2.59,-9.49l0.59 -52.39c-3.3,-18.88 5.37,-10.06 -8.48,-15.65l0 -12.03c19.88,-8.03 -0.56,-18.41 29.02,-31.17 59.61,-25.71 129.89,6.59 158.42,7.09 -11.19,-10.46 -44.94,-20.26 -59.84,-23.69 -33.45,-7.71 -48,-1.4 -78.37,-2.61l-33.18 12.49c-12.92,-16.25 -14.97,-36.06 -22.91,-58.81l-16.05 -40.32c-0.34,-0.94 -0.82,-1.93 -1.12,-2.87 -3.02,-9.31 -2.45,-5.51 -2.89,-16.61 6.77,-5.75 15.14,-10.82 23.72,-14.12l-1.87 -0.69c-9.73,-6.19 -25.18,3.7 -34.72,11.07 -41.78,32.25 8.6,72.25 -29.36,131.48 -37.98,59.25 -75.07,63.16 -108.99,79.01 -0.19,0.09 -7.97,4.45 -8.5,4.81 -2.88,1.94 -5.23,5.7 -5.82,4.82 -0.59,-0.87 -2.05,1.73 -2.97,2.71z"/>
    <path class="fil12" d="M3774.18 4789.12c-3.09,25.87 -2.46,5.74 6.38,13.12 10,-11.57 10.99,-13.36 16.53,-28.64 6.02,-16.6 4.71,-18.6 15.57,-28.73 21.26,3.53 -0.34,-3.33 30.76,20.48l3.71 3.21c5.28,5.11 0.66,1.12 5.35,6.21l14.46 16.06c-0.6,6.46 -13.12,56.28 -13.89,58.09 -14.27,33.81 16.05,-21.27 -6.02,8.82 -4.58,6.24 -2.38,-0.55 -6.84,10.37 -4.8,11.76 -3.44,18 -3.44,34.27 10.81,-6.95 10.08,-12.1 20.75,-31.82l24.09 -58.98c0.5,-0.98 2.03,-3.48 2.44,-4.38l19.94 -46.33c0.19,-0.51 0.45,-1.7 0.63,-2.18l32.99 -54.42c20.67,-49.35 87.41,-54.2 142.88,-33.82 -17.15,-24.61 -45.52,-22.77 -79.87,-20.53 -20.45,4.11 -30.91,11.77 -46.26,15.28l-38.9 -69.63c-5.77,-9.32 -9.12,-12.26 -12.78,-21.42 5.61,-10.11 7.73,-8.73 16.75,-17.66 -58.4,-8.84 -137.75,197.79 -145.23,232.63z"/>
    <path class="fil12" d="M4201.38 4208.98l-80.57 63.04c-0.6,0.52 -1.51,1.28 -2.12,1.79 -0.88,0.75 -5.75,4.72 -6.64,5.51 -8.03,7.12 -4.14,3.7 -10.29,10.34l-29.62 30.62c-13.33,15.4 -24.72,29.82 -36.43,47.89 -28.11,43.39 29.95,73.29 65.97,76.83 52.4,5.14 60.98,-14.28 152.37,8.75 -2.59,-6.2 -2.2,-10.02 -22.21,-14.11 -45.34,-9.28 -60.71,-5.04 -98.17,-1.92 6.05,-11.43 3.61,-7.44 11.33,-16.76l5.51 -6.52c0.56,-0.62 1.3,-1.55 1.87,-2.15 2.18,-2.33 5.8,-5.56 8.3,-7.75l10.28 -9.79c14.83,-17.74 30.45,-28.11 49.54,-42.56l10.67 -9.57c15.21,-13.84 19.25,-12.18 22.88,-33.29l-10.01 4.71c-1.04,0.57 -7.19,4.26 -8.23,4.97l-27.58 24.06c-4.46,3.23 -3.3,1.98 -6.89,4.85 -3.57,2.85 -4.24,2.86 -7.48,7.11l-6.03 -23.45c-6.68,-24.87 4.21,-6.25 -13.78,-18.08 10.2,-4.44 4.2,2.49 6.89,-8.81 5.12,-21.53 -18.24,-41.56 -2.18,-58.48 11.99,-12.64 26.99,-18.49 37.37,-34.82 6.1,-9.61 1.25,1.2 7.34,-14.41l-22.09 12z"/>
    <path class="fil7" d="M2360.06 5846.17c23.18,0.76 20.55,5.87 32.89,14.38 24.65,17 97.12,20.51 130.65,18.18l-13.68 -65c-2.98,-8.78 -2.44,-6.61 -6.05,-14.16 -7.48,-15.61 -12.3,-22.41 -12.51,-43.39l-13.49 -2.69c-36.28,-3.88 -76.45,0.52 -109.7,-11.32 -48.38,-17.22 -58.55,-38.44 -79.32,-46.86 2.74,26.09 20.49,62.08 27.95,86.96 11.43,38.12 21.67,37.69 43.26,63.9z"/>
    <path class="fil8" d="M1483.33 4904.09c-10.27,36.1 21.22,69 21.46,103.72l15.14 0.37c31.43,-4.64 100.69,-15.15 128.15,7.36 8.43,5.96 13.77,7.63 25.84,5.72 13.34,3.66 8.13,2.53 20.07,9.98 35.9,-45.83 -6.04,-95.88 -45.33,-115.09 -45.37,-22.17 -110.42,-27.48 -165.33,-12.06z"/>
    <path class="fil10" d="M3786.46 4891.91c-7.7,-19.24 -12.34,-34.59 -23.37,-50.25 -13.42,-6.6 -99.84,-16.36 -125.38,-21.01 -101.61,-18.5 -251.17,-43.39 -339.81,-88.77 7.95,73.13 138.25,90.04 214.35,106.98l274.21 53.05z"/>
    <path class="fil13" d="M1981.79 3879.96c-2.88,13.01 -0.79,37.43 11.25,50.47 31.13,33.75 115.51,10.35 169.49,18.7 10.73,1.66 19.31,6.38 33.04,6.04l23.79 5.91c25.2,-95.91 -95.47,-103.98 -164.96,-97.34 -59.12,5.65 -59.27,-7.73 -81.88,-11.92l9.27 28.14z"/>
    <path class="fil10" d="M2634.78 4505.95c9.96,5.89 2.28,-2.14 9.51,9.55 4.56,7.36 1.59,1.2 4.68,13.96 6.07,4.77 39,20.62 47.65,24.47 81.85,36.4 192.31,94.72 275.65,119.11 36.69,10.74 94.77,29.79 133.43,-0.17 0.02,-21.8 -4.57,-18.95 -16.11,-42.2 -21.33,0.19 -33.68,6.58 -55.25,7.57 -49.1,2.24 -128.17,-20.36 -161.3,-42.24 -24.26,-1.12 -49.78,-16.11 -67.86,-25.37 -20.76,-10.63 -36.75,-16.32 -59.76,-28.34l-115.54 -57.04 4.9 20.7z"/>
    <path class="fil14" d="M3236.28 5673.96c-13.54,3.62 -29.33,26.18 -38.05,37.18 3.01,13.38 18.79,49.95 24.51,62.97 8.63,19.68 21.84,42.26 25.04,64.14 -16.31,-3.69 -26.92,-9.35 -41.93,-19.78 -15.77,-10.96 -24.15,-15.99 -43.24,-20.45l21.79 18.46c16.44,12.31 11.24,6.02 24.17,11.8 2.83,1.27 60.1,52.8 74.44,-2.19 2.41,-17.13 -1.91,-10.39 10.36,-22.05l23.76 -23c16.44,-25.02 -20.29,14.71 6.1,-7.62 3.14,-2.66 27.03,-8.19 30.06,-31.48 0.36,-2.82 -2.9,-14.99 -9.67,-20.44l-9.77 -3.75c0,-21.12 5.39,-22.71 -10.92,-29.42 -7.05,-2.9 -21.24,-1.21 -29.37,-1.19 -0.97,-4.04 -2.22,-10.51 -3.77,-14.67l-4.8 -10.09c-0.32,-2.03 -1.19,-2.41 -2,-3.48 -12.85,2.92 -5.21,0.25 -13.41,3.92 -20.75,9.29 -7.35,20.16 -33.3,11.14z"/>
    <path class="fil15" d="M1610.51 4243.1c81.6,7.24 227.05,37 307.79,55.81 30.09,7.01 63.74,20.83 93.14,30.52l0.37 15.36c7.22,-9.79 13.49,-10.52 11.05,-26.3 -4.15,-26.79 -43.8,-39.28 -63.68,-45.52 -51.94,-16.29 -330.88,-76.14 -354.88,-74.16 3.6,16.97 9.9,25.92 6.21,44.29z"/>
    <path class="fil15" d="M2222.69 4433.23c77.58,-26.24 143.79,8.4 206.89,31.7 17.59,6.49 27.47,11.89 44.55,19.67 16.48,7.5 31.05,13.14 48.02,20.59 19.76,8.67 25.52,13.62 42.18,21.6 14.46,6.93 32.66,13.42 40.37,23.86 7.29,-2.2 11.36,-4.78 18.8,-9.43 2.67,-1.67 8.69,-5.6 10.55,-6.48 10.24,-4.85 1.43,-2.13 14.92,-5.28 -3.09,-12.76 -0.12,-6.6 -4.68,-13.96 -7.23,-11.69 0.45,-3.66 -9.51,-9.55l5.09 19.39c-68.27,-25.88 -131.89,-60.57 -195.68,-87.81 -34.03,-14.54 -65.64,-26.92 -99.57,-40.41 -66.38,-26.39 -68.91,-16.48 -115.5,-19.24l-26.31 15.7c0.61,13.46 1.03,5.38 2.95,10.84l2.27 5.66c0.45,1.2 1.82,4.83 2.28,6.03 6.16,16.29 -1.01,13.23 12.38,17.12z"/>
    <path class="fil9" d="M3206.75 5320.48c0,-33.57 5.69,-27.89 14.47,-37.7l17.28 -14.8c38.21,-24.62 -0.52,-6.32 48.52,-27.72 64.13,-28 91.56,-12.05 156.46,-12.05 -8.23,-7.51 -11.92,-7.64 -27.82,-9.38 -10.78,-1.18 -21.44,-2.38 -32.35,-2.72 -22.45,-0.7 -44.86,4.29 -66.72,2.17 -14.75,9.89 -54.02,19.47 -73.73,29.21 -7.69,-10.05 -1.62,-4.31 -6.41,-13.32l-12.17 -19.6c-0.42,-0.87 -0.81,-1.97 -1.21,-2.86 -0.4,-0.9 -0.73,-2.02 -1.13,-2.93 -11.81,-27.23 -12.64,-22.08 -24.08,-59.69l-1.68 -9.16c11.79,-7.91 19.08,-16.17 35.68,-17.27 -6.25,-11.36 19.56,-14.8 -19.3,-6.96 -0.69,0.14 -16.37,8.23 -17.02,8.61 -33.96,20.04 -55.53,41.96 -63.74,81.08 -10.63,50.62 37.28,108.05 74.95,115.09z"/>
    <path class="fil16" d="M4201.38 4208.98l22.09 -12c-6.09,15.61 -1.24,4.8 -7.34,14.41 -10.38,16.33 -25.38,22.18 -37.37,34.82 -16.06,16.92 7.3,36.95 2.18,58.48 -2.69,11.3 3.31,4.37 -6.89,8.81 17.99,11.83 7.1,-6.79 13.78,18.08l6.03 23.45c3.24,-4.25 3.91,-4.26 7.48,-7.11 3.59,-2.87 2.43,-1.62 6.89,-4.85l27.58 -24.06c1.04,-0.71 7.19,-4.4 8.23,-4.97l10.01 -4.71 11.78 4.82c3.71,-5.98 5.44,-9.59 10.98,-14.17 6.37,-5.26 31.53,-21.28 41.44,-34.81 -2.68,-11.48 -2.25,-8.14 -7.71,-16.36l-5.1 -6.94c-12.6,-18.28 -40.39,-67.77 -49.25,-75.06 -2.04,-1.67 -5.77,-4.33 -6.9,-4.92 -9.35,-4.79 -13.79,-5.06 -27.32,-5.06 9.95,12.01 9.3,7.57 21.4,16.05 -8.21,9.51 -10.75,7.78 -21.63,15.6 -1.45,1.04 -7.34,5.92 -8.77,7.31 -8.57,8.32 -4.66,3.82 -11.59,13.19z"/>
    <path class="fil17" d="M2540.7 5742.96c-14.96,-1.37 -18.39,2.18 -34.97,5.28l-27.86 5.25 13.49 2.69c0.21,20.98 5.03,27.78 12.51,43.39 3.61,7.55 3.07,5.38 6.05,14.16l13.68 65c-33.53,2.33 -106,-1.18 -130.65,-18.18 -12.34,-8.51 -9.71,-13.62 -32.89,-14.38 2.2,15.13 -3.44,1.45 4.2,11.85 4.87,6.62 -1.03,0.71 8.97,7.08 3.04,1.94 7,4.16 10.08,5.98 19.07,11.31 12.24,2.84 39.87,12.29 0.96,0.32 1.94,0.8 2.9,1.11l6.21 1.82c8.89,2.25 18.45,3.42 28.22,3.99l89.97 0c10.27,-1.18 19.17,-4.34 22.13,-12.04 7.37,-5.44 13.26,-7.8 21.51,-11.37 8.2,-13.42 -2.47,-3.88 10.33,-10.91l-21.53 -64.91c-0.37,-0.76 -0.94,-1.78 -1.34,-2.51l-3.03 -4.73c-29.39,-43.85 -13.72,-41.38 -25.86,-43.28 -10.37,9.53 -11.78,2.42 -11.99,2.42z"/>
    <path class="fil8" d="M986.15 4694.53c1.77,6.27 -3.5,6.23 9.83,11.96 9.65,4.15 9.69,3.5 19.87,0.09 51.81,9.26 43.1,17.94 86.38,9.59l-8.29 -45.2c-2.9,-26.32 -11.51,-10.31 -4.29,-41.16 -5.94,-0.76 -15.7,-1.59 -20.96,-2.49 -5.79,-0.98 -5.62,-0.76 -10.57,-2.42l-10.15 -5.32c-92.81,-16.16 -87.39,-38.01 -101.44,-39.41 -2.57,9.12 4.96,45.25 7.7,62.01 2.64,16.12 11.04,26.99 21.72,40.02 0.79,0.96 3.16,3.7 3.95,4.65 7.73,9.34 -0.86,-3.25 6.25,7.68z"/>
    <path class="fil7" d="M2664.05 4920.09c-4.58,-21.07 -25.5,-44.93 -42.45,-57.66 -75.31,-56.57 -173.51,-22.95 -216.08,-33.49 -17.63,-4.36 -23.66,-13.71 -33.97,-12.1 32.48,86.34 40.99,67.76 132.84,63.14 36.56,-1.83 60.9,0.6 91.08,9.18 49.79,14.17 45.13,24.99 68.58,30.93z"/>
    <path class="fil16" d="M3774.18 4789.12c-8.47,9.96 -10.07,37.5 -11.09,52.54 11.03,15.66 15.67,31.01 23.37,50.25l-1.02 4.98c20.62,9.59 15.87,31.29 34.3,45.26 3.27,-5.06 15.38,-33.38 17.01,-39.77 0,-16.27 -1.36,-22.51 3.44,-34.27 4.46,-10.92 2.26,-4.13 6.84,-10.37 22.07,-30.09 -8.25,24.99 6.02,-8.82 0.77,-1.81 13.29,-51.63 13.89,-58.09l-14.46 -16.06c-4.69,-5.09 -0.07,-1.1 -5.35,-6.21l-3.71 -3.21c-31.1,-23.81 -9.5,-16.95 -30.76,-20.48 -10.86,10.13 -9.55,12.13 -15.57,28.73 -5.54,15.28 -6.53,17.07 -16.53,28.64 -8.84,-7.38 -9.47,12.75 -6.38,-13.12z"/>
    <path class="fil18" d="M1047.97 4619.58l10.15 5.32c4.95,1.66 4.78,1.44 10.57,2.42 5.26,0.9 15.02,1.73 20.96,2.49 -7.22,30.85 1.39,14.84 4.29,41.16l8.29 45.2c-43.28,8.35 -34.57,-0.33 -86.38,-9.59 0.25,0.59 1.68,9.23 4.01,12.02 16.21,0.36 20.05,5.75 36.12,0.88 32.49,6.66 67.68,8.1 99.14,-3.06 55.45,-19.68 85.27,-100.01 1.39,-102.84 -34.31,-1.15 -68.56,7.02 -108.54,6z"/>
    <path class="fil12" d="M4294.49 4632.43l39.41 -14.09c7.14,10.16 7.57,16.48 13.74,26.74l27.84 36.36c4.63,5.51 7.21,8.91 9.09,14.83 6.7,21.06 0.08,21.69 -10.12,34.37l33.68 -18.46c27.28,-29.72 6.41,-35.3 30.5,-41.73 -18.47,-38.49 11.76,-14.78 -31.29,-77.05l-15.85 -24.28c-6.88,-10.37 -5.59,-11.95 -10.97,-21.13 -14.99,-25.59 -22.93,0.71 -26.16,-38.05l-12.01 0c6.81,28.9 17.22,47.89 -1.46,75.36 -5.31,7.82 -16.51,18.95 -22.66,24.35 -4.59,4.04 -10.93,7.74 -14.2,10.54 -9.91,8.48 -5.37,0.91 -9.54,12.24z"/>
    <path class="fil10" d="M2865.93 4248.45l21.77 3.59c-0.99,-68.23 -76.73,-44 -126.23,-43.42 -79.37,0.94 -89.91,-14.51 -140.78,-40.25 9.71,42.25 56.94,69.49 93.17,76.31 55.24,10.4 110.46,-4.99 152.07,3.77z"/>
    <path class="fil19" d="M3231.86 5122.66c-16.6,1.1 -23.89,9.36 -35.68,17.27l1.68 9.16c11.44,37.61 12.27,32.46 24.08,59.69 0.4,0.91 0.73,2.03 1.13,2.93 0.4,0.89 0.79,1.99 1.21,2.86l12.17 19.6c4.79,9.01 -1.28,3.27 6.41,13.32 19.71,-9.74 58.98,-19.32 73.73,-29.21l-10.59 -0.7 -1.01 -33.51c-4.17,-0.96 6.55,7.58 -5.79,-1.33l-30.3 -62.12c-2.52,-9.29 0.8,4.72 -2.06,-12.77 -20.08,5.7 -18.99,10.43 -34.98,14.81z"/>
    <path class="fil15" d="M2102.8 4592.36c-37.12,1.21 -32.15,7.58 -40.51,-21.1 -2.13,-7.28 -2.17,-2.86 -2.66,-13.43l-16.52 -0.51c-39.55,-0.67 -65.36,3.91 -107.63,-4.55 -13.21,-2.64 -29.54,-9.61 -43.1,-16.44 -19.46,-9.79 -20.44,-16.61 -33.68,-23.84 4.41,29.17 14.37,41.34 31.4,58.3 16.02,15.95 35.45,22.08 58.53,28.44 43.97,12.09 117.97,16.61 154.17,-6.87z"/>
    <path class="fil20" d="M3186.62 4463.19l0.25 1.29 11.64 46.56c35.71,-3.79 41.02,-18.62 120.43,-11.34 34.64,3.17 68.74,20.52 96.47,34.52 10.86,-5.72 1.85,2.69 6.25,-7.13 -11.54,-23.87 -25.13,-29.66 -42.13,-41.06 -71.09,-47.69 -143.89,-23.61 -192.91,-22.84z"/>
    <path class="fil12" d="M2873.04 4596c33.13,21.88 112.2,44.48 161.3,42.24 21.57,-0.99 33.92,-7.38 55.25,-7.57 11.54,23.25 16.13,20.4 16.11,42.2l14.1 -5.11c11.95,-46.09 -9.58,-37.85 -3.17,-81.71 3.28,-22.48 27.73,-49.54 45.02,-56.34l-6.72 -16.31c-8.14,-14.61 -9.08,-10.38 -9.01,-27.53 12.85,-9.31 23.3,-17.16 40.95,-21.39l-0.25 -1.29c-35.92,-3.52 -100.52,38.22 -101.49,86.76 -0.45,22.89 10.47,31.18 9.43,52.29 -20.62,32.31 -67.84,40.69 -112.28,29.33 -18.48,-4.72 -35.9,-11.07 -54.94,-17.94 -21.19,-7.64 -29.99,-17.81 -54.3,-17.63z"/>
    <path class="fil21" d="M2925.89 3831.81l16.03 0c3.61,-5.39 2.27,-3.67 7.35,-8.69l20.08 -16.04c10.72,-9.13 2.67,0.68 9.34,-10.72 8.32,-14.23 11.15,-35.61 3.53,-52.98 -0.37,-0.87 -0.97,-1.82 -1.37,-2.66l-39.76 -76.35c-5.55,-13.86 -8.61,-15.24 -19.22,-17.14 12.26,39.87 18.77,44.79 -16.24,80.19 -8.15,8.25 -6.82,9.83 -18.34,18.01 32.04,1.34 29.26,13.05 50.18,70.33l-11.58 16.05z"/>
    <path class="fil21" d="M2043.11 4551.73c39.39,-1.34 61.76,-15.4 89.88,-15.52 0.93,7.6 1.77,11.61 2.85,15.72 0.27,1.03 2.78,8.73 3.19,9.62 5.08,11.09 -3.35,-0.03 5.68,9.22 18.81,-8.44 45.74,-33.35 51.18,-57.72 5.03,-22.56 -2.42,-32.06 0.14,-51.16 2.72,-20.25 15.65,-18.21 26.66,-28.66 -13.39,-3.89 -6.22,-0.83 -12.38,-17.12 -0.46,-1.2 -1.83,-4.83 -2.28,-6.03l-2.27 -5.66c-1.92,-5.46 -2.34,2.62 -2.95,-10.84l26.31 -15.7c-24.9,-1.21 -54.34,14.29 -58.48,36.36 -5.65,30.18 16.39,56.9 -27.53,90.99 -0.91,0.7 -6.01,4.62 -6.6,5.1l-4.4 3.67c-22.97,19.23 -59.34,35 -89.45,38.09l0.45 -0.36z"/>
    <path class="fil22" d="M1519.93 5008.18l-15.14 -0.37c-0.24,-34.72 -31.73,-67.62 -21.46,-103.72 -25.73,4.04 -48.02,16.58 -64.15,28.07 -4.9,31.06 13.86,38.99 15.21,102.68 7.5,-0.19 78.18,-22.67 85.54,-26.66z"/>
    <path class="fil23" d="M3599.99 4112.71c16.72,6.23 6.22,4.55 20.85,1.07l16.8 -7.62c0.55,-0.3 1.74,-0.93 2.56,-1.49 4,-10.92 0.41,-11.62 -16.67,-39.26 -12.08,-19.53 -15.02,-13.85 -22.68,-45.98 -35.41,-1.33 -55.56,8.97 -75.09,25.05 18.94,50.31 31.86,38.23 38.12,77.08l36.11 -8.85z"/>
    <path class="fil24" d="M4294.49 4632.43c-2.29,3.34 -0.09,2.11 -8.74,6.84 -0.1,0.05 -9.15,3.36 -9.96,3.69 12.55,3.52 5.87,0.05 12.56,9.14 0.52,0.71 5.19,10.97 6.49,13.54l21.47 38.74c3.6,5.82 1.33,1.78 4.3,7.68 0.42,0.84 0.84,1.93 1.26,2.78 11.18,22.9 -1.86,10.45 19.23,18.67 -16.5,19.12 -14.32,4.45 -30.89,17.19 16.19,0 28.98,-0.61 40.45,-3.74 5.24,-1.44 10.08,-2.61 14.97,-5.34 19.37,-10.79 8.24,-1.93 8.82,-10.98 10.2,-12.68 16.82,-13.31 10.12,-34.37 -1.88,-5.92 -4.46,-9.32 -9.09,-14.83l-27.84 -36.36c-6.17,-10.26 -6.6,-16.58 -13.74,-26.74l-39.41 14.09z"/>
    <path class="fil12" d="M3539.8 4180.89c-4.16,-9.95 6.7,-8.01 -8.03,-8.01 0.97,-0.92 3.37,-3.77 3.86,-4.41 0.36,-0.47 1.38,-1.71 1.8,-2.28 10.38,-14.13 4.09,-19.44 26.45,-25.41l0 -12.02 -13.06 2.05c-3.23,-20.46 -25.42,-42.59 -35.78,-78.02 -3.59,-12.26 5.23,-2.8 -5.9,-13.32 -22.84,19.1 -51.58,30.51 -39.53,81.19 6.84,28.76 43.28,53.66 70.19,60.23z"/>
    <path class="fil19" d="M2540.7 5742.96c0.21,0 1.62,7.11 11.99,-2.42 12.14,1.9 -3.53,-0.57 25.86,43.28l3.03 4.73c0.4,0.73 0.97,1.75 1.34,2.51l21.53 64.91c-12.8,7.03 -2.13,-2.51 -10.33,10.91 11.41,-3.8 30.11,-13.29 39.82,-20.73 2.85,-29.43 -2.76,-11.37 -6.96,-32.85 -5.54,-28.27 -12.09,-67.67 -30.15,-92.22 -14.37,2.46 -50.02,13.14 -56.13,21.88z"/>
    <path class="fil25" d="M2825.97 3771.62c3.38,27.54 4.78,21.9 17.3,38.25 13.12,17.14 4.11,20.52 22.41,33.82 28.55,3.38 38.23,-11.54 58.15,-15.89l-25.55 -40.87c-1.48,-4.8 -1.19,-7.85 -2.84,-13.57 -1.28,-4.47 -6.46,-14.97 -9.7,-19.72 -17.03,4.19 -43.73,6.04 -59.77,17.98z"/>
    <path class="fil26" d="M4000.6 4649.92c-3.26,-14 -6.74,-20.15 -16.94,-30.08 -3.93,-3.83 -0.75,0.44 -6.23,-5.68 -13.34,-14.91 1.29,-6.34 -25.69,-34.51 -9.87,-10.3 -1.26,-1.45 -8.26,-11.54 -9.68,-13.98 4.91,-2.98 -11.14,-12.4l-12.93 0.78c-9.02,8.93 -11.14,7.55 -16.75,17.66 3.66,9.16 7.01,12.1 12.78,21.42l38.9 69.63c15.35,-3.51 25.81,-11.17 46.26,-15.28z"/>
    <path class="fil12" d="M3644.15 4104.67l16.03 0c5.63,-21.09 15.36,-9.05 16.05,-40.13 -10.04,-4.05 -17.53,-25.19 -23.91,-36.28 -0.45,-0.77 -0.98,-1.82 -1.41,-2.6l-21.71 -34.47c-24.65,-42.99 -58.34,-63.08 -109.44,-63.08l6.7 4.67c7.9,4.25 131.06,36.32 66.34,76.44 20.47,13.17 3.9,-11.69 33.89,36.88 9.82,15.92 18.35,33.86 25.59,46.53 -13.03,10.22 -1.43,0.6 -8.13,12.04z"/>
    <path class="fil22" d="M1287 5104c14.69,16.55 26.29,94.03 23.86,110.82l33.41 -14.7c6.68,-28.03 -16.15,-99.61 -23.46,-109.85 -5.03,1.59 -13.29,2.59 -19.21,4.81l-11.79 6.65c-0.54,-0.86 -1.94,1.44 -2.81,2.27z"/>
    <path class="fil19" d="M2750.39 5635.27l-11.86 0.43c-1.71,-18.77 -11.38,-45.41 -19.06,-60.36l-6.44 -17.53c-7.68,-22.48 -13.39,-17.23 -15.07,-42.78 -8.58,3.3 -16.95,8.37 -23.72,14.12 0.44,11.1 -0.13,7.3 2.89,16.61 0.3,0.94 0.78,1.93 1.12,2.87l16.05 40.32c7.94,22.75 9.99,42.56 22.91,58.81l33.18 -12.49z"/>
    <path class="fil27" d="M2043.11 4551.73l0 5.59 16.52 0.51c0.49,10.57 0.53,6.15 2.66,13.43 8.36,28.68 3.39,22.31 40.51,21.1 18.11,-3.16 32.9,-11.19 41.91,-21.59 -9.03,-9.25 -0.6,1.87 -5.68,-9.22 -0.41,-0.89 -2.92,-8.59 -3.19,-9.62 -1.08,-4.11 -1.92,-8.12 -2.85,-15.72 -28.12,0.12 -50.49,14.18 -89.88,15.52z"/>
    <path class="fil26" d="M3161.65 4529.71l36.86 -18.67 -11.64 -46.56c-17.65,4.23 -28.1,12.08 -40.95,21.39 -0.07,17.15 0.87,12.92 9.01,27.53l6.72 16.31z"/>
    <path class="fil11" d="M1962.83 5441.96c7.21,7.91 2.28,4.2 15.44,7.71l59.47 -6.12c0.65,-1.31 2,-4.02 2.67,-5.35l22.27 -33.44 -45.56 -11.24 -12.01 0.69c4.12,24.95 13.31,28.75 16.12,57.78l-58.4 -10.03z"/>
    <path class="fil28" d="M2965.99 3855.89c4.12,4.12 14.52,-5.78 4.66,-2.17 -0.1,0.04 -11.39,-4.57 -4.66,2.17z"/>
    <polygon class="fil28" points="2933.89,3851.87 2942.52,3849.67 "/>
   </g>
  </g>
 </g>
</svg>
