<?xml version="1.0" encoding="UTF-8"?>
<!DOCTYPE svg PUBLIC "-//W3C//DTD SVG 1.1//EN" "http://www.w3.org/Graphics/SVG/1.1/DTD/svg11.dtd">
<!-- Creator: CorelDRAW 2020 (64 Bit) -->
<svg xmlns="http://www.w3.org/2000/svg" xml:space="preserve" width="70mm" height="93mm" version="1.1" style="shape-rendering:geometricPrecision; text-rendering:geometricPrecision; image-rendering:optimizeQuality; fill-rule:evenodd; clip-rule:evenodd"
viewBox="0 0 7000 9300"
 xmlns:xlink="http://www.w3.org/1999/xlink"
 xmlns:xodm="http://www.corel.com/coreldraw/odm/2003">
 <defs>
  <style type="text/css">
   <![CDATA[
    .str0 {stroke:#373435;stroke-width:50;stroke-miterlimit:22.9256}
    .str1 {stroke:#373435;stroke-width:7.62;stroke-miterlimit:22.9256}
    .fil4 {fill:none;fill-rule:nonzero}
    .fil3 {fill:#373435;fill-rule:nonzero}
    .fil5 {fill:#FFFBD6;fill-rule:nonzero}
    .fil2 {fill:#FFF212;fill-rule:nonzero}
    .fil0 {fill:url(#id0)}
    .fil1 {fill:url(#id1)}
   ]]>
  </style>
  <radialGradient id="id0" gradientUnits="userSpaceOnUse" gradientTransform="matrix(0.901565 -0 -0 1 347 0)" cx="3521.08" cy="3839.18" r="3882.55" fx="3521.08" fy="3839.18">
   <stop offset="0" style="stop-opacity:1; stop-color:#E8E239"/>
   <stop offset="0.290196" style="stop-opacity:1; stop-color:#ABA73A"/>
   <stop offset="1" style="stop-opacity:1; stop-color:#6E6D3B"/>
  </radialGradient>
  <radialGradient id="id1" gradientUnits="userSpaceOnUse" gradientTransform="matrix(0.766714 -0 -0 1.04166 840 -186)" cx="3602.72" cy="4468.87" r="1831.06" fx="3602.72" fy="4468.87">
   <stop offset="0" style="stop-opacity:1; stop-color:#C3C949"/>
   <stop offset="0.439216" style="stop-opacity:1; stop-color:#949640"/>
   <stop offset="1" style="stop-opacity:1; stop-color:#666338"/>
  </radialGradient>
 </defs>
 <g id="Camada_x0020_1">
  <metadata id="CorelCorpID_0Corel-Layer"/>
  <g id="_2257455308848">
   <path class="fil0" d="M3701.25 7470.12c240.1,-212.29 192.23,-191.75 495.94,-350.17 342.77,-178.79 651.57,-239.08 1035.1,-251.35 109.3,-3.5 284.94,0.1 402.55,19.26 321.33,52.35 370.22,69.1 659.52,158.23 72.54,22.36 123.55,56.7 201.57,73 -14.31,-113.23 -215.2,-882.13 -272.57,-1128.99 -7.92,-34.1 -88.49,-321.86 -83.29,-349.05 4.82,-25.43 26.6,-58.85 49.92,10.76 7.18,21.45 15.85,44.15 24.48,66.43 15.35,39.61 34.1,88.96 46.48,126.54l95.55 257.14c68.15,172.94 128.61,347.16 191.43,516.6 32.81,88.5 366.25,967.57 377.73,1031.27 -31.14,6.36 -68.83,-17.59 -100.22,-32.68 -172.24,-82.78 -598.78,-234.24 -773.82,-289.63 -773.8,-244.92 -1598.44,-265.37 -2300.02,194.44l-200.54 143.95c6.02,-23.63 136.14,-181.97 150.19,-195.75zm-46.79 19.95c-71.19,92.9 -80.67,142.62 -103.4,175.8 -4.58,-47.84 58.03,-177.11 134.41,-307.88 86.59,-148.19 249.39,-314.21 327.45,-393.67 390.45,-397.51 924.38,-652.48 1460.55,-638.6 152.85,3.96 258.77,33.81 409.44,56.49 4.79,-60.52 -128.44,-499.89 -121.02,-568.22 22.21,-17.31 228,-122.72 256.12,-124.56l205.04 846.32c11.39,43.86 66.95,248.27 65.38,288.76 -69.09,-15.56 -254.84,-99.17 -407.07,-136.08 -627.43,-152.07 -1192.5,-5.33 -1734.45,347.12 -154.6,100.54 -425.6,348.81 -492.45,454.52zm-278.31 -12.16c-240.11,-201.71 -192.25,-182.2 -495.95,-332.71 -342.77,-169.88 -651.57,-227.17 -1035.1,-238.82 -109.31,-3.33 -284.94,0.09 -402.56,18.31 -321.33,49.73 -370.22,65.65 -659.52,150.33 -72.53,21.24 -123.54,53.86 -201.58,69.36 14.33,-107.58 215.21,-838.14 272.58,-1072.68 7.93,-32.4 88.48,-305.8 83.3,-331.64 -4.82,-24.17 -26.6,-55.9 -49.92,10.23 -7.19,20.37 -15.86,41.95 -24.48,63.11 -15.35,37.64 -34.12,84.53 -46.5,120.23l-95.54 244.31c-68.15,164.33 -128.6,329.84 -191.43,490.83 -32.81,84.09 -366.24,919.31 -377.72,979.84 31.13,6.04 68.82,-16.72 100.21,-31.06 172.25,-78.65 598.77,-222.55 773.83,-275.18 773.79,-232.69 1598.43,-252.13 2300.02,184.74l200.53 136.77c-6.02,-22.45 -136.13,-172.89 -150.17,-185.97zm46.78 18.94c71.19,88.26 80.67,135.51 103.39,167.03 4.6,-45.44 -58.02,-168.27 -134.4,-292.52 -86.58,-140.8 -249.38,-298.54 -327.45,-374.03 -390.44,-377.68 -924.38,-619.92 -1460.55,-606.75 -152.85,3.77 -258.77,32.12 -409.45,53.67 -4.79,-57.5 128.45,-474.95 121.03,-539.88 -22.22,-16.44 -228,-116.6 -256.13,-118.34l-205.05 804.11c-11.37,41.67 -66.93,235.88 -65.37,274.35 69.1,-14.79 254.84,-94.22 407.07,-129.29 627.43,-144.48 1192.5,-5.06 1734.45,329.8 154.6,95.52 425.61,331.41 492.46,431.85zm555.44 -967.11c25.24,-6.35 954.8,-1077.9 1666.17,-1492.37 638.99,-372.3 907.33,-429.46 908.55,-432.29l-24.43 7.48c-1310.47,277.8 -1359.89,-252.88 -1583.81,-129.36 -163.19,72.63 -74.02,666.35 -212.97,944.53 -183.56,367.47 -571.95,738.1 -753.51,1102.01zm1639.72 -2918.67c-244.34,42.74 -411.83,219.38 -388.48,488.09 18.98,218.57 226.95,429.2 481.07,397.38 226.04,-28.29 402.46,-230.92 384.02,-489.17 -17.19,-240.83 -264.64,-433.39 -476.61,-396.3zm861.49 -667.22l-275.58 2.12c9.67,41.4 76.61,70.99 104.8,91.42l114.09 78.1c3.72,72.63 -64.89,199.92 -74.87,283.66 59.06,-14.54 182.2,-141.95 234.99,-164.43 49.65,12.05 181.54,139.31 242.47,155.82 -8.92,-86.52 -86.41,-210.35 -81.79,-285.06 21.86,-10.95 220.44,-158.04 227.38,-170.78 -78.83,-7.62 -239.81,13.33 -301.67,-6.45 -14.64,-38.87 -28.56,-88.1 -42.45,-124.83l-31.47 -92.14c-4.86,-11.93 -3.45,-9.53 -8.43,-18.19 -7.18,-12.5 -5.72,-9.96 -12.38,-17.33l-8.81 10.23c-23.91,36.88 -54,199.56 -86.28,257.86zm-504.11 -1265.29l-275.58 2.12c9.67,41.4 76.61,71 104.8,91.42l114.09 78.1c3.72,72.64 -64.89,199.92 -74.87,283.67 59.06,-14.55 182.2,-141.96 234.99,-164.43 49.64,12.04 181.54,139.3 242.47,155.81 -8.92,-86.52 -86.41,-210.35 -81.79,-285.06 21.85,-10.95 220.44,-158.04 227.38,-170.77 -78.83,-7.63 -239.81,13.32 -301.67,-6.46 -14.64,-38.87 -28.56,-88.1 -42.45,-124.83l-31.47 -92.14c-4.86,-11.93 -3.45,-9.53 -8.43,-18.19 -7.18,-12.49 -5.72,-9.96 -12.38,-17.32l-8.81 10.22c-23.91,36.88 -54,199.56 -86.28,257.86zm-1029.23 -897.63l-275.57 2.12c9.67,41.39 76.61,70.99 104.8,91.41l114.08 78.1c3.73,72.64 -64.88,199.92 -74.86,283.67 59.05,-14.55 182.2,-141.96 234.98,-164.43 49.65,12.04 181.54,139.31 242.47,155.82 -8.91,-86.52 -86.4,-210.35 -81.78,-285.06 21.85,-10.95 220.43,-158.05 227.38,-170.78 -78.84,-7.63 -239.82,13.33 -301.68,-6.46 -14.63,-38.87 -28.56,-88.1 -42.45,-124.82l-31.47 -92.15c-4.86,-11.92 -3.45,-9.53 -8.42,-18.18 -7.19,-12.5 -5.72,-9.97 -12.38,-17.33l-8.82 10.22c-23.91,36.88 -54,199.57 -86.28,257.87zm-1479.65 -500.35l-275.58 2.12c9.67,41.4 76.61,70.99 104.8,91.42l114.08 78.1c3.73,72.64 -64.88,199.92 -74.86,283.66 59.05,-14.54 182.2,-141.95 234.99,-164.42 49.64,12.04 181.54,139.3 242.47,155.81 -8.92,-86.52 -86.41,-210.35 -81.79,-285.06 21.85,-10.95 220.43,-158.04 227.38,-170.78 -78.84,-7.62 -239.82,13.33 -301.68,-6.45 -14.63,-38.87 -28.56,-88.1 -42.45,-124.83l-31.47 -92.14c-4.86,-11.93 -3.45,-9.53 -8.42,-18.19 -7.19,-12.5 -5.72,-9.96 -12.38,-17.32l-8.81 10.22c-23.92,36.88 -54.01,199.56 -86.28,257.86zm-1474.09 465.92l-283.65 0.09c19.92,48.26 170.32,146.58 210.42,171.21 7.62,65.81 -71.83,206.02 -80.84,284.31 52.55,-11.94 214.02,-152.54 233.89,-155.05 54.41,7.32 180.84,147.75 243.72,164.36 -8.03,-77.85 -81.62,-216.58 -69.07,-285.27 13.06,-29.65 200.58,-110.05 212.48,-168.32l-274.9 -2.79c-31.25,-52.76 -56.63,-236.89 -95.54,-266.86l-96.51 258.32zm-1163.58 926.56l-275.58 2.12c9.67,41.4 76.62,71 104.8,91.42l114.09 78.1c3.72,72.64 -64.88,199.92 -74.87,283.67 59.06,-14.55 182.2,-141.96 234.99,-164.43 49.65,12.04 181.54,139.3 242.47,155.81 -8.92,-86.52 -86.41,-210.35 -81.78,-285.06 21.85,-10.95 220.43,-158.04 227.38,-170.77 -78.84,-7.63 -239.82,13.32 -301.68,-6.46 -14.64,-38.87 -28.56,-88.1 -42.45,-124.83l-31.47 -92.14c-4.86,-11.93 -3.45,-9.53 -8.43,-18.19 -7.18,-12.49 -5.71,-9.96 -12.38,-17.32l-8.81 10.22c-23.91,36.88 -54,199.56 -86.28,257.86zm2294.95 4851.03c-25.23,-6.42 -954.79,-1091.48 -1666.17,-1511.17 -638.99,-377 -907.33,-434.89 -908.54,-437.74l24.42 7.57c1310.47,281.31 1359.9,-256.07 1583.81,-130.99 163.2,73.54 74.03,674.75 212.97,956.43 183.56,372.11 571.95,747.41 753.51,1115.9zm-2777.22 -3568.2l-275.58 2.11c9.67,41.4 76.62,71 104.81,91.42l114.08 78.1c3.73,72.64 -64.88,199.92 -74.87,283.67 59.06,-14.55 182.2,-141.96 234.99,-164.43 49.65,12.04 181.54,139.31 242.47,155.81 -8.92,-86.51 -86.41,-210.34 -81.78,-285.05 21.85,-10.95 220.43,-158.05 227.38,-170.78 -78.84,-7.63 -239.82,13.32 -301.68,-6.46 -14.64,-38.87 -28.56,-88.1 -42.45,-124.82l-31.47 -92.15c-4.86,-11.93 -3.45,-9.53 -8.43,-18.18 -7.18,-12.5 -5.71,-9.97 -12.38,-17.33l-8.81 10.22c-23.91,36.88 -54,199.57 -86.28,257.87zm1137.51 612.74c244.33,43.28 411.82,222.15 388.47,494.25 -18.98,221.32 -226.95,434.61 -481.07,402.39 -226.03,-28.65 -402.46,-233.83 -384.02,-495.34 17.19,-243.87 264.64,-438.85 476.62,-401.3z"/>
   <path class="fil1" d="M4931.03 3519.89c-613.34,333.46 -1096.98,493.85 -1388.33,478.54 -291.26,11.03 -686.39,-113.64 -1379.03,-486.38 5.36,35.98 86.75,224.26 244.67,488.98 238.33,399.47 560.09,578.31 783.4,1049.6 257.84,544.17 194.81,1115.13 327.7,1451.38 46.51,93.44 81.67,-30.03 86.25,-40.01 213.02,-464.53 170.55,-939.74 380.59,-1405.1 174.64,-386.95 579.99,-629.74 757.52,-1013.36 104.09,-249.16 189.25,-524.74 187.23,-523.65zm-1832.28 -273.04c-0.11,265.98 212.97,469.41 454.72,469.54 239.41,0.14 457.11,-203.17 457.11,-469.54 0,-254.09 -204.02,-465.61 -448.59,-469.82 -255.39,-4.41 -463.15,211.76 -463.24,469.82z"/>
   <path class="fil2 str0" d="M5127.26 8158.15l200.51 0 225.54 537.77c9.97,25.5 20.4,55.4 31.07,89.71 10.89,34.53 21.32,70.93 31.29,109.41l5.56 0c-6.48,-39.4 -11.59,-76.96 -15.76,-112.43 -3.94,-35.46 -6.72,-66.29 -8.11,-92.01l0 -532.45 180.8 0 0 1045.88 -198.42 0 -232.26 -560.26c-9.51,-22.26 -19.02,-48.92 -28.29,-80.21 -9.26,-31.29 -18.31,-65.83 -27.35,-103.84l-5.56 0c6.95,43.12 12.28,82.52 16.46,118.91 3.93,36.16 6.26,66.53 6.72,90.86l0 534.54 -182.2 0 0 -1045.88z"/>
   <polygon class="fil3 str0" points="5162.03,8190.13 5162.03,9172.04 5277.47,9172.04 5277.47,8437.92 5293.23,8437.92 5602.92,9172.04 5744.78,9172.04 5744.78,8190.13 5629.34,8190.13 5629.34,8913.35 5615.67,8913.35 5303.89,8190.13 "/>
   <path class="fil3 str0" d="M4629.59 8133.11c126.79,0 214.87,38.02 264.71,114.05 49.84,76.03 74.64,220.67 74.64,433.92 0,213.26 -24.8,357.91 -74.64,433.94 -49.84,76.03 -137.92,114.04 -264.71,114.04 -126.8,0 -214.89,-38.01 -264.73,-114.04 -49.83,-76.03 -74.64,-220.68 -74.64,-433.94 0,-213.25 24.81,-357.89 74.64,-433.92 49.84,-76.03 137.93,-114.05 264.73,-114.05z"/>
   <path class="fil4 str0" d="M4630.74 8165.1c-116.13,0 -195.87,34.77 -239.92,104.54 -43.81,69.77 -65.83,206.76 -65.83,411.44 0,204.22 21.8,340.99 65.61,410.29 43.57,69.55 123.78,104.31 240.14,104.31 115.9,0 195.64,-34.53 239.22,-103.61 43.81,-68.84 65.6,-206.07 65.6,-410.99 0,-205.6 -21.79,-342.83 -65.6,-412.14 -43.58,-69.31 -123.32,-103.84 -239.22,-103.84z"/>
   <path class="fil5 str0" d="M4633.15 8264.19c66.05,0 111.49,25.04 136.52,75.34 24.81,50.3 37.33,166.89 37.33,350.25 0,182.42 -12.52,298.56 -37.33,348.86 -25.03,50.3 -70.47,75.34 -136.52,75.34 -66.53,0 -112.43,-25.04 -137.47,-75.34 -25.26,-50.3 -37.78,-166.44 -37.78,-348.86 0,-183.36 12.52,-299.95 37.78,-350.25 25.04,-50.3 70.94,-75.34 137.47,-75.34z"/>
   <polygon class="fil2 str0" points="3565.61,8158.15 4208.16,8158.15 4208.16,8330.6 3984.25,8330.6 3984.25,9204.03 3789.53,9204.03 3789.53,8330.6 3565.61,8330.6 "/>
   <polygon class="fil3 str0" points="3598.99,8190.13 3598.99,8297.23 3824.3,8297.23 3824.3,9172.04 3950.87,9172.04 3950.87,8297.23 4174.79,8297.23 4174.79,8190.13 "/>
   <polygon class="fil2 str0" points="2863.24,8158.15 3505.79,8158.15 3505.79,8330.6 3281.88,8330.6 3281.88,9204.03 3087.16,9204.03 3087.16,8330.6 2863.24,8330.6 "/>
   <polygon class="fil3 str0" points="2896.63,8190.13 2896.63,8297.23 3121.94,8297.23 3121.94,9172.04 3248.5,9172.04 3248.5,8297.23 3472.42,8297.23 3472.42,8190.13 "/>
   <polygon class="fil3 str0" points="2249.67,8158.15 2786.52,8158.15 2786.52,8331.99 2443,8331.99 2443,8574 2762.88,8574 2762.88,8739.5 2443,8739.5 2443,9027.4 2794.87,9027.4 2794.87,9204.03 2249.67,9204.03 "/>
   <polygon class="fil3 str0" points="2284.44,8190.13 2284.44,9172.04 2760.1,9172.04 2760.1,9059.38 2409.62,9059.38 2409.62,8707.51 2729.5,8707.51 2729.5,8607.37 2409.62,8607.37 2409.62,8300.01 2751.75,8300.01 2751.75,8190.13 "/>
   <path class="fil3 str0" d="M2078.83 8487.77l-182.2 0 0 -17.63c0,-58.87 -12.05,-104.07 -36.16,-135.36 -23.87,-31.53 -58.64,-47.29 -104.53,-47.29 -55.64,0 -93.88,21.09 -114.52,63.05 -20.86,42.18 -31.29,156 -31.29,341.67 0,152.53 10.43,253.83 31.29,303.66 20.64,49.84 58.42,74.64 113.36,74.64 47.28,0 82.06,-18.78 103.61,-56.33 21.78,-37.78 32.69,-97.81 32.69,-180.11l0 -33.37 -134.91 0 0 -166.9 322.66 0 0 570.23 -132.13 0 -8.11 -111.03c-24.8,47.28 -55.63,81.83 -92.25,103.61 -36.63,21.56 -82.75,32.45 -138.39,32.45 -110.1,0 -187.3,-40.79 -231.57,-122.15 -44.27,-81.6 -66.53,-233.66 -66.53,-456.42 0,-198.66 25.27,-334.26 75.8,-407.05 50.31,-72.55 138.86,-108.94 265.18,-108.94 112.66,0 195.65,26.89 248.5,80.44 53.08,53.77 79.5,137.45 79.5,251.04l0 21.79z"/>
   <path class="fil3 str1" d="M2044.06 8455.77c0,-100.13 -23.41,-173.38 -70.23,-219.74 -47.06,-46.36 -121.01,-69.54 -222.07,-69.54 -116.83,0 -197.26,33.14 -241.31,99.21 -43.81,66.06 -65.83,200.74 -65.83,404.49 0,200.04 19.94,337.73 59.57,412.84 39.64,75.1 108.26,112.65 206.08,112.65 53.54,0 97.59,-10.43 131.89,-31.05 34.55,-20.87 63.75,-54.48 87.86,-101.07l27.58 0 14.14 108.48 73.71 0 0 -506.25 -255.9 0 0 102.92 136.3 0c0,5.79 0.22,14.37 0.69,25.27 0.46,10.66 0.7,18.77 0.7,23.64 0,99.68 -13.91,172.23 -41.5,217.19 -27.58,45.21 -71.62,67.69 -132.35,67.69 -66.07,0 -112.2,-27.58 -137.93,-82.75 -25.73,-55.4 -38.71,-164.11 -38.71,-326.15 0,-189.84 12.75,-310.14 38.02,-361.37 25.26,-51.23 70.7,-76.73 135.84,-76.73 56.55,0 99.9,16.69 129.8,49.84 29.9,33.37 46.36,83.44 49.61,150.43l114.04 0z"/>
  </g>
 </g>
</svg>
