<?xml version="1.0" encoding="UTF-8"?>
<!DOCTYPE svg PUBLIC "-//W3C//DTD SVG 1.1//EN" "http://www.w3.org/Graphics/SVG/1.1/DTD/svg11.dtd">
<!-- Creator: CorelDRAW 2020 (64 Bit) -->
<svg xmlns="http://www.w3.org/2000/svg" xml:space="preserve" width="57mm" height="85mm" version="1.1" style="shape-rendering:geometricPrecision; text-rendering:geometricPrecision; image-rendering:optimizeQuality; fill-rule:evenodd; clip-rule:evenodd"
viewBox="0 0 5700 8500"
 xmlns:xlink="http://www.w3.org/1999/xlink"
 xmlns:xodm="http://www.corel.com/coreldraw/odm/2003">
 <defs>
  <style type="text/css">
   <![CDATA[
    .str0 {stroke:#373435;stroke-width:141.11;stroke-miterlimit:22.9256}
    .fil2 {fill:none}
    .fil3 {fill:#1886EF}
    .fil5 {fill:#75BB17}
    .fil4 {fill:#EECC25}
    .fil6 {fill:#F1401B}
    .fil0 {fill:#4967AF;fill-opacity:0.501961}
    .fil1 {fill:#4967AF;fill-rule:nonzero;fill-opacity:0.501961}
   ]]>
  </style>
 </defs>
 <g id="Camada_x0020_1">
  <metadata id="CorelCorpID_0Corel-Layer"/>
  <g id="_1645253892784">
   <path class="fil0" d="M5665.94 10.6c292.5,-88.93 -1013.19,1874.74 -1179.75,2026.4 -257.19,231.55 -568.96,538.27 -901.55,665.08 1.87,-95.21 456.88,-353.91 534.83,-419.82 538.08,-464.23 631.45,-763.5 880.5,-1294.88 80.29,-164.38 191.32,-318.77 288.61,-474.12 36.96,-58.67 288.7,-523.33 377.36,-502.66z"/>
   <path class="fil0" d="M5547.28 348.01c188.37,-49.71 -1232.78,1893.74 -1466.18,2080.39 -199.77,158.09 -408.98,305.88 -627.42,439.15 -95.21,57.87 -200.39,131.67 -309.89,162.55 0.97,-51.83 248.26,-169.89 288,-195.82 88.37,-57.53 175.79,-116.59 260.4,-179.18 579.2,-437.56 705.56,-752.89 1009.46,-1275.58 103.33,-171.57 237.99,-330.26 359.64,-489.93 47.4,-62.01 392.17,-572.89 485.99,-541.58z"/>
   <path class="fil0" d="M5443.19 403.17c-13.01,894.53 -1440.2,1876.39 -2101.13,2294.63 -180.45,113.23 -366.47,218.12 -558.45,312.17 -104.05,50.59 -777.3,400.42 -871.45,303.72 187.08,-109.21 426.63,-152.88 625.16,-244.07 266.17,-124.54 521.84,-270.01 763.1,-435.1 524.5,-359.06 880.45,-816.51 1274.33,-1295.85 166.04,-200.84 336.55,-397.94 499.91,-600.9 33.48,-41.45 383.33,-407.95 368.53,-334.6z"/>
   <path class="fil0" d="M5239.26 775.78c-127.9,784.79 -1259.32,1561.3 -1872.44,1959.7 -323.85,209.04 -666.47,392.13 -1028.27,532.78 -260.73,100.17 -548.25,198.5 -831,213.22 -8.45,0.53 -46.78,6.62 -52.43,-3.2 15.69,-6.44 32.34,-10.82 48.76,-15.13 196.74,-53.6 396.02,-91.19 588.8,-158.92 435.19,-157.25 852.88,-376.37 1216.02,-657.13 346.33,-266.31 624.19,-607.45 921.02,-922.01 191.87,-202.15 388.26,-400.16 578.67,-603.67 47.12,-50.29 453.07,-409.65 430.87,-345.64z"/>
   <path class="fil0" d="M5041.24 882.99c-376.64,705.23 -1098.12,1277.32 -1771.2,1705.31 -516,325.34 -1087.97,596 -1698.75,703.06 -32.79,5.58 -65.68,10.62 -98.67,15.05 -67.19,9.29 -667.28,-10.26 -657.91,-14.52 216.82,-18.04 431.17,-0.86 647.83,-36.04 1.27,-0.2 2.58,-0.41 3.86,-0.62 634.89,-110.66 1224.64,-398.77 1725.16,-786.23 322.69,-247.72 623.05,-524.31 916.58,-803.19 218.31,-206.82 434.26,-415.14 645.8,-628.44 35.89,-36.13 431.9,-394.97 287.3,-154.38z"/>
   <path class="fil0" d="M4756.14 1272.33c-356.52,547.36 -913.34,993.97 -1462.2,1352.31 -544.29,354.09 -1154.98,645.64 -1807.41,751.49 -132.49,21.38 -266.37,34.76 -400.73,37.34 -155.05,2.39 -310.47,-9.69 -462.22,-41.09 -30.58,-6.33 -295.53,-103.33 -285.29,-104.95 98.1,15.32 193.96,43.44 291.79,60.7 115.17,20.32 231.78,32.7 348.95,33.15 166.22,-0.32 331.8,-17.92 494.95,-48.04 653.77,-125.22 1203.26,-451.4 1715.49,-847.42 182.53,-139.74 361.89,-283.38 538.09,-430.47 241.5,-201.05 480.32,-404.17 715.25,-612.38 41.37,-36.68 489.66,-394.95 313.33,-150.64z"/>
   <path class="fil0" d="M4684.15 1191.31c-404.98,510.67 -928.46,938.87 -1487,1286.15 -530.2,327.44 -1124.72,598.22 -1754.54,678.44 -183.82,23.97 -370.24,30.75 -554.81,10.52 -76.85,-8.8 -153.09,-22.98 -227.66,-42.97 -38.63,-10.24 -276.62,-116.64 -228.52,-113.95 79.76,15.77 157.65,39.55 236.73,58.07 86.78,20.66 174.73,36.47 264,42.5 165.86,9.76 331.99,-0.77 495.98,-25.74 621.35,-95.85 1173.15,-396.55 1675.74,-748.39 273.8,-191.2 536.94,-396.61 791.86,-610.62 233.89,-195.82 462.69,-396.35 690.43,-598.76 200.23,-176.98 283,-158 97.79,64.75z"/>
   <path class="fil1" d="M4355.62 1578.7c-329.81,360.68 -717.65,672.46 -1132.09,938.87 -532.1,340.19 -1129.76,619.46 -1765.99,713.16 -268.85,39.63 -544.72,44.87 -811.47,-11.43 -69.06,-14.52 -137.12,-33.23 -203.6,-56.4 -60.96,-21.69 -461.51,-184.12 -432.48,-273.27 5.53,-5.39 17.14,0.09 23.21,2.3 154.81,80.18 297.04,175.43 466.81,226.18 51.19,14.72 103.08,26.97 155.51,36.8 259.64,48.4 526.14,37.89 785.12,-8.87 619.99,-115.6 1168.34,-443.07 1678.38,-787.35 131.9,-88.92 261.76,-180.65 389.73,-274.76 254.89,-187.24 504.43,-380.07 752.82,-575.2 223.91,-175.17 306.38,-152.47 94.05,69.97z"/>
   <path class="fil0" d="M2430.44 1374.12c-30.65,-149.46 422.27,76.04 450.43,97.11 68.69,53.62 124.1,122.08 149.87,204.42 14.37,46.95 18.15,96.15 12.4,144.73 -5.91,53.84 -23.51,105.66 -48.35,154.06 -35.18,68.43 -83.57,129.95 -145.07,178.4 -58.93,45.35 -127.39,77.29 -200.56,94.69 -22.93,5.42 -46.21,9.41 -69.66,12.04 -118.96,12.8 -239.56,-9.93 -349.26,-54.5 -69.71,-28.59 -162.03,-69.71 -208.43,-130.92 27.33,-11.94 187.82,94.39 219.52,106.26 32.45,12.15 65.72,22.39 99.69,29.77 98.46,20.52 202,22.04 298.89,-6.73 65.05,-19.45 125.3,-52.06 174.08,-98.11 45.84,-45.59 96.9,-118.62 81.64,-186.4 -9.9,-44.59 -42.21,-93.25 -59.46,-136.31 -1.34,-4.18 -2.84,-8.31 -4.38,-12.42 -6.36,-17.66 -12.5,-35.09 -21.93,-51.52 -22.48,-39.04 -56.35,-70.92 -90.99,-99.97 -2.23,-1.84 -4.47,-3.67 -6.71,-5.49 -34.75,-28.23 -300.88,-191.5 -281.72,-239.11z"/>
   <path class="fil0" d="M2644.99 1463.21c-21.27,-106.05 198.97,0.05 226.07,16.95 72.96,47.84 131.44,114.25 160.12,195.4 16.23,46.9 21.43,96.55 16.88,145.72 -4.34,54.88 -20.94,108.03 -45.08,157.73 -34.34,70.81 -82.63,134.67 -144.54,185.42 -60.04,47.88 -130.22,81.94 -205.48,101.19 -130.66,32.89 -268.4,20.19 -395.43,-20.89 -13.09,-4.3 -26.07,-8.91 -38.92,-13.81 -135.46,-51.57 -260.18,-134.43 -355.64,-240.7 -27.01,-30.23 -58.51,-65.23 -72.62,-103.52 20.18,-2.12 76.55,76.54 89.26,89.14 54.64,53.8 114.99,102.72 181.9,141.8 54.8,31.41 112.92,57.55 173.48,76.87 126.99,40.79 278.25,57.63 403.03,-0.06 95.36,-44.32 81.11,-96.24 109.79,-177.07 6.35,-21.42 14.96,-42.19 23.11,-63.01 11.5,-28.48 25.55,-55.86 36.28,-84.69 10.6,-28.62 17.93,-58.51 18.14,-89.03 0.52,-16.11 -1.06,-32.18 -4.66,-47.92 -1.19,-5.15 -2.54,-10.28 -4.07,-15.35 -13.86,-45.63 -40.6,-86.05 -70.73,-123.26 -14.37,-17.87 -113.36,-105.81 -100.89,-130.91z"/>
   <path class="fil0" d="M2671.27 1525.94c38.91,1.14 77.63,16.9 111.09,34.96 56.36,32.04 104.65,78.64 128.73,138.06 12.73,31.89 17.47,66.07 15.25,100.11 -1.97,41.4 -14.28,81.61 -32.12,119.14 -26.35,55.46 -63.17,105.97 -111.13,146.05 -45.45,36.86 -98.71,63.13 -156.01,78.08 -117.97,30.32 -242.99,12.6 -355.37,-29.47 -118.48,-44.55 -225.73,-116.37 -311.95,-206.32 -60.76,-63.95 -111.2,-137.43 -143.01,-218.79 -12.29,-31.73 -21.42,-64.62 -26.95,-98.08 -16.68,-116.54 4.91,-257.42 82.84,-352.36 2.24,-2.63 8.61,-11.54 13.18,-10.38 -1.03,5.02 -2.75,9.89 -4.5,14.71 -39.67,104.71 -78.02,203.81 -63.71,317.88 1.08,7.94 2.35,15.87 3.83,23.75 23.95,112.62 88.92,212.99 172.65,293.58 84.67,80.21 190.83,144.14 307.51,169.56 101.42,22.82 206.57,11.98 297.22,-38.68 33.58,-18.47 63.64,-42.15 88.57,-70.67 5.65,-6.88 11,-13.98 16.09,-21.25 17.56,-24.91 33.25,-50.75 46.02,-78.28 9.79,-21.31 17.44,-43.88 18.91,-67.28 1.14,-14.4 -0.39,-28.73 -4.36,-42.64 -1.58,-5.49 -3.49,-10.9 -5.65,-16.21 -12.27,-30.03 -30.25,-57.4 -49.35,-83.76 -7.19,-10.08 -91.47,-114.54 -37.78,-101.71z"/>
   <path class="fil0" d="M2838.18 1653.5c23.24,9.74 41.72,28.55 54.99,48.96 18.51,28.59 26.81,62.11 27.54,95.58 2.27,41.69 -7.93,83.08 -24,121.56 -24.09,57.79 -59.78,110.6 -107.33,153.03 -45.84,39.43 -100.32,67.8 -159.19,84.53 -121.21,34.07 -250.89,18.01 -367.79,-23.57 -122.98,-43.94 -234.75,-116.17 -325.21,-207.53 -90.03,-91.98 -160.03,-204.69 -184.21,-330.09 -10.02,-59.02 -10.44,-119.09 -1,-178.21 11.58,-71.53 37.49,-140.57 73.74,-203.87 15.05,-26.03 146.64,-228.16 192.76,-205.4 -48.22,77.63 -121.99,136.53 -166.86,218.33 -12.57,23.03 -23.69,46.84 -32.88,71.31 -34.06,92.72 -44.5,192.54 -24.52,289.31 27.51,116.47 97.25,219.61 189.33,298.53 93.77,78.29 205.64,124.35 328.61,136.99 84,10.12 172.6,10.04 254.09,-14.25 10.3,-3.08 20.58,-6.32 30.68,-10.01 35.14,-12.6 67.73,-30.44 96.01,-54.27 31.27,-27.26 55.99,-60.43 76.15,-95.98 3,-5.34 5.9,-10.73 8.66,-16.19 9.09,-18.13 16.77,-36.86 22.86,-56.12 5.52,-18.86 8.91,-38.15 10.46,-57.68 1.01,-14.19 -6.46,-88.88 27.11,-64.96z"/>
   <path class="fil0" d="M2808.43 1736.01c8.39,13.47 13.02,28.68 14.76,44.24 4.89,30.65 -2.3,62.07 -13.44,90.73 -17.83,45.45 -44.25,87.64 -80.66,121.51 -34.19,30.55 -75.16,52.5 -119.7,65.59 -99.74,29 -207.49,13.27 -303.33,-21.56 -107.5,-39.24 -204.77,-103.74 -283.21,-184.53 -74.1,-77.16 -133.24,-171.42 -152.14,-276.11 -16.6,-106.86 9.09,-214.17 63.23,-307.94 28.56,-48.88 64.27,-93.68 104.99,-133.71 39.28,-38.41 83.39,-72.29 130.72,-101.06 18.76,-11.32 188.76,-72.13 185.29,-66.77 -52.89,34.2 -113.29,56.86 -166.73,90.68 -31.5,20.02 -61.59,42.22 -89.08,67.16 -51.17,47.11 -95.55,101.53 -128.14,162.19 -46.04,86.45 -66.67,184.96 -45.08,280.87 23.71,91.7 85.74,170.39 160.32,229.89 78.61,61.08 172.78,103.45 270.86,125.89 61,14.52 125.85,21.64 188.06,10.03 12.21,-2.3 24.32,-5.06 36.19,-8.66 25.4,-7.68 49.15,-19.31 70.03,-35.27 25.36,-19.81 45.61,-44.72 62.51,-71.49 4.01,-6.37 7.84,-12.86 11.44,-19.44 5.89,-10.81 11.19,-21.92 17.01,-32.75 6.17,-12.87 12.46,-26.22 21.12,-37.77 8.81,-11.83 21.46,-17.52 34.07,-6.63 4.74,4.06 8.27,9.4 10.91,14.91z"/>
   <path class="fil0" d="M2782.66 1904.57c-11.36,32.74 -29.18,63.06 -52.62,89.18 -32.47,34.05 -73.44,58.89 -118.54,74.37 -101.61,34.78 -214.23,21.35 -314.05,-12.46 -112.06,-37.8 -213.9,-102.83 -296.41,-184.81 -79.71,-80.25 -143.08,-178.88 -165.04,-289.04 -19.82,-114.52 5.16,-230.27 61.27,-332.19 57.24,-102.74 142.81,-189.44 242.23,-255.3 20,-13.19 40.56,-25.6 61.68,-37.05 83.11,-44.84 175.61,-76.9 270.63,-86.63 9.01,-0.94 101.22,2.09 93.2,8.06 -28.65,7.45 -58.46,10.92 -87.56,16.34 -73.95,13.7 -146.47,34.26 -213.6,67.63 -35.34,17.88 -69.3,38.36 -101.51,61.08 -91.67,64.92 -170.76,148.93 -219.76,248.49 -45.3,92.71 -62.17,197.89 -32.59,297.5 31.02,92.03 100.28,166.97 177.67,226.22 79.36,59.16 170.21,105.91 266.23,134.23 4.55,1.37 9.15,2.65 13.73,3.92 70.9,19.8 146.13,32.4 219.4,17.38 24.4,-5.13 47.82,-13.47 69.86,-24.78 5.44,-2.81 10.8,-5.76 16.09,-8.83 28.18,-16.11 72.32,-63.09 106.63,-63.58 4.14,0.01 7.5,1.51 9.55,5.15 7.3,12.78 -1.33,33.27 -6.49,45.12z"/>
   <path class="fil0" d="M2728.77 1861.99c-11.57,25.05 -26.79,48.46 -46.39,68.41 -24.9,24.12 -55.34,41.56 -88.85,52.11 -83.22,25.97 -174.79,10.58 -254.65,-18.95 -95.85,-35.59 -182.34,-94.37 -251.39,-167.46 -61.77,-65.97 -112.43,-146.6 -126.35,-235.64 -11.7,-87.18 13.26,-174.46 59.08,-249.44 51.09,-82.24 125.48,-149.92 210.06,-199.73 41.14,-24.02 84.88,-43.87 130.53,-58.55 47.42,-15 97.48,-24.25 147.5,-24.16 6.68,-0.04 97.38,8.68 67.66,22.25 -19.86,4.48 -40.2,6.7 -60.41,9.15 -53.09,6.19 -105.7,14.11 -155.66,33.36 -35.93,14.29 -70.45,31.79 -103.07,52.16 -76.41,48.01 -143.94,112.21 -186.76,190.41 -35.66,65.91 -51.83,141.3 -33.09,214.41 20.78,70 73.54,130.49 128.72,178.16 64.78,54.83 141.03,98.18 222.71,124.97 34.47,11.41 70.26,19.71 106.66,22.47 25.19,1.9 50.66,2.03 75.62,-2.24 19.23,-3.39 37.77,-9.54 54.67,-19.08 14.87,-8.27 28.12,-18.8 40.39,-30.31 7.37,-6.96 14.5,-14.17 21.63,-21.36 34.53,-34.12 68.52,-20.53 53.6,29.59 -3.12,10.13 -7.3,20.04 -12.21,29.47z"/>
   <path class="fil1" d="M2625.04 1979.26c-9.41,5.23 -19.25,9.72 -29.33,13.61 -84.92,33.01 -182.08,19.89 -266.26,-8.36 -100.95,-33.89 -192.45,-93.15 -266.07,-167.56 -67.97,-69.47 -123.08,-154.84 -140.58,-249.95 -15.17,-95.64 8.92,-192.19 57.32,-276.01 52.3,-89.52 129.79,-164.19 218.59,-220.38 88.48,-55.5 189.62,-94.34 295.04,-105.03 15.89,-1.67 31.86,-2.66 47.84,-2.91 27.89,-0.29 216.42,15.56 206.65,66.62 -1.78,3.4 -5.9,3.61 -9.51,3.72 -71.75,-13.27 -136.35,-37.56 -211.16,-31.8 -8.33,0.74 -16.66,1.67 -24.94,2.8 -98.29,13.19 -192.04,51.59 -272.9,106.58 -79.02,54.2 -147.25,125.73 -187.75,211.28 -34.17,72.6 -45.78,153.81 -22.89,231.18 24.52,72.03 77.92,134.86 134.34,186.04 51.98,46.35 110.89,85.62 174.36,115.92 16.42,7.84 33.05,15.32 49.94,22.17 63.59,25.68 132.21,42.65 201.58,37.62 6.1,-0.49 12.2,-1.14 18.27,-1.93 20.49,-2.7 47.79,-11.14 68.26,-4.46 6.29,2.5 10.19,7.55 10.63,14.13 -0.1,25.61 -30.83,46.42 -51.43,56.72z"/>
   <path class="fil0" d="M198.81 8503.7c-262.76,21.12 757.89,-1547.67 837.69,-1638.39 119.19,-135.06 247.65,-262.55 387.73,-377.63 136.52,-111.38 284.55,-210.47 443.74,-289.41 133.08,-65.55 305.3,-147.49 459.53,-144.97 -20.12,56.57 -377.42,151.07 -439.35,183.73 -40.9,21.71 -80.97,44.88 -119.91,69.72 -253.79,165.31 -487.96,381.24 -652.09,632.28 -126.24,189.81 -60.85,357.61 -147.12,555.67 -79.1,174.84 -193.64,341.65 -299.6,502.13 -39.84,60.01 -365.7,560.16 -470.62,506.87z"/>
   <path class="fil0" d="M388.95 8167.98c-224.73,48.42 564.21,-1235.62 632.51,-1316.59 224.08,-265.55 485.97,-505.33 795.65,-676.05 10.1,-5.51 20.26,-10.96 30.45,-16.3 283.39,-147.4 704.75,-291.99 1029.09,-192.85 -60.33,67.03 -543.63,55.92 -658.51,93.95 -118.83,40.52 -232.91,93.42 -340.64,156.43 -473.5,284.44 -424.56,477.46 -614.08,858.79 -3.84,7.28 -7.6,14.63 -11.56,21.86 -97.85,173.93 -226.24,337.14 -342.91,499.58 -47.79,66.37 -414.49,614.66 -520,571.18z"/>
   <path class="fil0" d="M501.52 8113.82c40.53,-396.61 415.71,-837.14 665.47,-1127.7 218.31,-254.62 473.41,-485.12 775.28,-645.02 309.17,-161.15 657.22,-232.55 1006.66,-181.77 70.95,10.51 141.37,24.45 210.79,42.04 209.74,53.56 410.78,142.84 584.57,268.59 21.08,15.13 183.47,122.26 169.5,157.15 -68.21,-32.18 -128.19,-85.63 -190.94,-126.4 -110.41,-71.82 -227.3,-134.69 -352.03,-180.32 -139.1,-49.98 -284.39,-82.89 -431.62,-100.62 -332.49,-37.78 -669.57,37.82 -942.01,226.88 -253.03,180.07 -435.75,452.77 -621.23,692.89 -6.01,7.75 -12.14,15.45 -18.19,23.17 -156.57,195.1 -309.19,392.69 -461.72,590.73 -41.2,53.35 -414.42,428.07 -394.53,360.38z"/>
   <path class="fil0" d="M728.48 7721.29c42.71,-267.58 262.2,-538.43 428.79,-744.18 212,-264.05 466.31,-501.35 768.55,-667.62 315.03,-170.24 671.51,-247.24 1031.15,-199.99 239.39,32.62 472.35,102.99 683.67,216.96 49.16,26.65 96.98,55.66 143.26,86.72 68.5,45.95 557.31,402.88 502.22,506.83 -175.13,-124.68 -297.84,-309.2 -479.64,-432.34 -16.93,-11.33 -34.08,-22.4 -51.41,-33.15 -244.54,-150.56 -522.1,-240.29 -810.65,-267.11 -353.97,-29.82 -661.4,78.97 -927.44,297.27 -122.45,102.5 -238.71,212.35 -350.74,325.3 -110.44,110.73 -220.68,221.17 -325.77,336.72 -62.17,68.08 -123,137.31 -183.71,206.61 -49.46,56.38 -450,430.78 -428.28,367.98z"/>
   <path class="fil0" d="M929.35 7602.62c92.61,-184.66 212.63,-357.04 344.41,-517.67 201.63,-247.83 443.07,-471.69 729.82,-626 283.52,-150.32 602.91,-218.14 924.93,-172.96 268.34,38.96 525.25,130.69 747.92,281.26 145.84,98.62 274.16,218.83 387.55,350.91 40.3,47.17 78.58,95.99 115.25,145.83 27.49,37.36 265.28,444.63 256.04,440.07 -115.62,-121.64 -194.82,-276.66 -296.14,-409.2 -18.36,-24.02 -37.21,-47.74 -56.67,-70.95 -128.88,-152.11 -275.18,-291.22 -445.95,-399.41 -217.72,-136.61 -466.56,-213.5 -725.05,-232.73 -298.77,-18.48 -571.52,85.74 -815.87,244.05 -112.61,74.05 -218.42,157.43 -319.29,245.7 -123.85,108.06 -243.4,220.04 -357.83,337.38 -69.31,71.1 -136.75,143.84 -204.27,216.51 -36.82,39.64 -427.5,418.6 -284.85,167.21z"/>
   <path class="fil0" d="M1202.52 7202.87c23.5,-39.01 48.82,-77.01 75.15,-114.3 182.98,-264.34 425.91,-497.25 710.83,-658.6 288.4,-160.46 615.9,-234.01 947.75,-192.02 277.06,36.63 542.86,128.12 774.99,279.4 205.8,134.94 378.43,309.8 527.39,500.95 53.83,69.07 104.88,140.15 153.96,212.42 36.88,54.49 362.74,609.02 353.29,604.9 -142.82,-139.78 -232.57,-334.11 -344.63,-496.09 -67.52,-96.52 -137.46,-191.61 -212.6,-282.78 -149.52,-181.15 -321.27,-346.81 -527.2,-468.02 -227.96,-131.49 -484.7,-194.47 -749.08,-202.63 -293.74,-5.1 -574.19,92.59 -822.97,237.83 -1.05,0.62 -2.11,1.28 -3.16,1.9l-593.77 442.55c-40.42,35.63 -81.05,71.1 -122.54,105.59 -61.23,51.4 -299.62,224.58 -167.41,28.9z"/>
   <path class="fil0" d="M1276.95 7281.8c28.3,-38.22 57.68,-75.71 87.79,-112.62 191.76,-237.45 422.34,-451.9 697.29,-597.85 259.64,-135.77 551.32,-196.03 844.86,-151.33 246.99,38.58 482.33,126.05 685.13,268.27 183.09,128.39 333.57,293.33 462.46,471.7 84.15,116.47 159.94,238.39 232.23,361.96 46.91,80.53 231.96,473.27 224.24,466.6 -123.97,-139.89 -200.92,-313.72 -298.65,-470.28 -67.78,-107.13 -138.13,-212.93 -215.16,-314.16 -128.33,-168.16 -276.94,-323.51 -459.03,-438.53 -196.59,-122.6 -421.54,-186.43 -653.8,-205.53 -260.29,-17.87 -509.36,58.35 -733.73,181.5 -68.16,37.81 -133.9,79.64 -197.58,124.1 -172.91,120.49 -333.49,254.71 -488.08,396.28 -29.75,27.41 -59.26,55.08 -88.89,82.6 -192.23,178.53 -274.38,161.96 -99.08,-62.71z"/>
   <path class="fil1" d="M1561.25 6931.12c139.57,-153.03 301.36,-288.6 484.22,-391.63 264.7,-147.27 565.76,-213.99 870.01,-172.79 256.45,36.23 501.9,123.21 714.78,266.74 191.52,129.12 350.24,296.64 487.38,477.94 178.77,236.72 324.29,494.62 479.72,745.61 38.07,61.6 323.92,412.45 294.41,468.46 -7.14,4.32 -18.83,-5.42 -24.36,-9.19 -146.7,-127.83 -242.02,-303.31 -345.51,-462.99 -152.37,-232.78 -295.25,-472.88 -471.64,-690.04 -137.28,-168.51 -296.42,-321.58 -488.17,-432.05 -205.64,-116.1 -437.73,-174.69 -674.08,-194.12 -216.49,-15.29 -430.08,26.61 -628.74,109.19 -43.32,18.02 -86.12,37.21 -128.21,57.76 -171.01,83.87 -327.2,190 -479.95,301.23 -193.5,140.6 -272.25,115.36 -89.86,-74.12z"/>
   <path class="fil2 str0" d="M2108.02 3967.92c-208.65,105.68 -388.75,237.23 -521.28,380.78"/>
   <path class="fil3" d="M1432.76 4279.4c-258.6,-27.37 -495.73,191.68 -529.65,489.28 -33.93,297.61 148.21,561.04 406.81,588.41 258.6,27.37 495.73,-191.68 529.66,-489.28 33.92,-297.6 -148.22,-561.04 -406.82,-588.41z"/>
   <path class="fil4" d="M2583.22 3390.07c-252.66,-26.74 -484.33,187.28 -517.48,478.04 -33.14,290.75 144.81,548.13 397.46,574.87 252.66,26.75 484.33,-187.28 517.48,-478.03 33.14,-290.76 -144.81,-548.13 -397.46,-574.88z"/>
   <path class="fil5" d="M2716.72 4624.19c-277.47,-29.37 -531.91,205.68 -568.3,524.99 -36.4,319.32 159.03,601.98 436.5,631.35 277.47,29.37 531.9,-205.68 568.3,-525 36.4,-319.31 -159.03,-601.97 -436.5,-631.34z"/>
   <path class="fil2 str0" d="M3542.69 3913.4c-195.31,-115.29 -486.86,-156.12 -814.84,-114.12"/>
   <path class="fil6" d="M3784.09 3786.04c-258.6,-27.38 -495.73,191.68 -529.65,489.28 -33.93,297.6 148.21,561.04 406.81,588.41 258.6,27.37 495.73,-191.69 529.66,-489.28 33.92,-297.6 -148.22,-561.04 -406.82,-588.41z"/>
   <path class="fil2 str0" d="M1399.08 4935.31c84.56,217.95 373.84,341.15 759.48,323.43"/>
   <path class="fil2 str0" d="M2872.42 5084.58c339.37,-150.09 606.24,-374.32 720.83,-605.65"/>
  </g>
 </g>
</svg>
