<svg width="80" height="80" viewBox="0 0 80 80" fill="none" xmlns="http://www.w3.org/2000/svg">
  <circle cx="40" cy="40" r="40" fill="#e9f5f9" />
  
  <!-- Main circle -->
  <circle cx="40" cy="40" r="30" fill="#73d13d" opacity="0.8" />
  <circle cx="40" cy="40" r="25" fill="#f8f9fa" />
  
  <!-- Therapy tools -->
  <!-- Puzzle piece (ABA) -->
  <path d="M30 25 C30 22 32 22 32 25 L32 30 L37 30 C40 30 40 32 37 32 L32 32 L32 37 C32 40 30 40 30 37 L30 32 L25 32 C22 32 22 30 25 30 L30 30 Z" fill="#6a98d0" />
  
  <!-- Music notes -->
  <circle cx="45" cy="30" r="5" fill="#f7a072" opacity="0.9" />
  <path d="M45 30 L50 25" stroke="#3d5a80" stroke-width="1.5" />
  <path d="M50 25 L50 35" stroke="#3d5a80" stroke-width="1.5" />
  <circle cx="50" cy="35" r="2" fill="#3d5a80" />
  
  <!-- Sensory brush -->
  <rect x="25" y="45" width="12" height="5" rx="1" fill="#8ecae6" />
  <path d="M25 45 L25 50 L28 47 L31 50 L34 47 L37 50" stroke="#f8f9fa" stroke-width="1" />
  
  <!-- Communication board -->
  <rect x="45" y="45" width="10" height="10" rx="2" fill="#3d5a80" />
  <rect x="46" y="46" width="3" height="3" rx="1" fill="#f8f9fa" />
  <rect x="51" y="46" width="3" height="3" rx="1" fill="#f7a072" />
  <rect x="46" y="51" width="3" height="3" rx="1" fill="#6a98d0" />
  <rect x="51" y="51" width="3" height="3" rx="1" fill="#73d13d" />
  
  <!-- Text: "TERAPIAS" at the bottom -->
  <text x="40" y="65" font-family="Arial" font-size="8" fill="#3d5a80" text-anchor="middle" font-weight="bold">TERAPIAS</text>
</svg>