<svg width="120" height="120" viewBox="0 0 120 120" fill="none" xmlns="http://www.w3.org/2000/svg">
  <!-- Background circle -->
  <circle cx="60" cy="60" r="60" fill="#e9f5f9" />
  
  <!-- Parent 1 -->
  <circle cx="40" cy="45" r="15" fill="#6a98d0" />
  <circle cx="40" cy="30" r="8" fill="#f8f9fa" />
  
  <!-- Parent 2 -->
  <circle cx="80" cy="45" r="15" fill="#8ecae6" />
  <circle cx="80" cy="30" r="8" fill="#f8f9fa" />
  
  <!-- Child -->
  <circle cx="60" cy="75" r="12" fill="#f7a072" />
  <circle cx="60" cy="63" r="7" fill="#f8f9fa" />
  
  <!-- Heart/Connection -->
  <path d="M45 55 C40 45 50 35 60 45 C70 35 80 45 75 55 C70 65 65 70 60 75 C55 70 50 65 45 55" fill="#ff7875" opacity="0.7" />
  
  <!-- Holding hands lines -->
  <line x1="50" y1="55" x2="55" y2="63" stroke="#3d5a80" stroke-width="2" />
  <line x1="70" y1="55" x2="65" y2="63" stroke="#3d5a80" stroke-width="2" />
  
  <!-- Smiles -->
  <path d="M35 33 C36 35 44 35 45 33" stroke="#3d5a80" stroke-width="1.5" stroke-linecap="round" />
  <path d="M75 33 C76 35 84 35 85 33" stroke="#3d5a80" stroke-width="1.5" stroke-linecap="round" />
  <path d="M55 70 C56 72 64 72 65 70" stroke="#3d5a80" stroke-width="1.5" stroke-linecap="round" />
</svg>
