<svg width="80" height="80" viewBox="0 0 80 80" fill="none" xmlns="http://www.w3.org/2000/svg">
  <circle cx="40" cy="40" r="40" fill="#e9f5f9" />
  
  <!-- Light bulb background -->
  <path d="M40 15 C30 15 22 23 22 33 C22 40 26 45 30 48 C32 50 33 52 33 55 L33 60 L47 60 L47 55 C47 52 48 50 50 48 C54 45 58 40 58 33 C58 23 50 15 40 15 Z" fill="#8ecae6" opacity="0.8" />
  
  <!-- Glass bulb area -->
  <path d="M40 20 C32 20 26 26 26 35 C26 41 30 45 33 47 C35 49 37 51 37 55 L37 55 L43 55 L43 55 C43 51 45 49 47 47 C50 45 54 41 54 35 C54 26 48 20 40 20 Z" fill="#f8f9fa" />
  
  <!-- Filament/connections -->
  <path d="M37 36 L43 36" stroke="#f7a072" stroke-width="2" stroke-linecap="round" />
  <path d="M40 33 L40 39" stroke="#f7a072" stroke-width="2" stroke-linecap="round" />
  
  <!-- Bulb base -->
  <rect x="33" y="60" width="14" height="5" rx="1" fill="#3d5a80" />
  <rect x="35" y="65" width="10" height="3" rx="1" fill="#3d5a80" />
  
  <!-- Text: "IDEIA" -->
  <text x="40" y="75" font-family="Arial" font-size="6" fill="#3d5a80" text-anchor="middle" font-weight="bold">IDEIA</text>
</svg>