<svg width="500" height="400" viewBox="0 0 500 400" fill="none" xmlns="http://www.w3.org/2000/svg">
  <!-- Background -->
  <rect width="500" height="400" rx="20" fill="#e9f5f9" opacity="0.3" />
  
  <!-- Central Brain Shape -->
  <path d="M200 140 C160 140 160 200 200 220 C180 240 180 280 220 300 C260 320 300 320 340 300 C380 280 380 240 360 220 C400 200 400 140 360 140 C340 100 300 100 280 120 C260 100 220 100 200 140" fill="#6a98d0" opacity="0.8" />
  
  <!-- Brain Details -->
  <path d="M280 120 L280 300" stroke="#f8f9fa" stroke-width="3" stroke-linecap="round" />
  <path d="M240 140 C240 180 220 200 220 240" stroke="#f8f9fa" stroke-width="3" stroke-linecap="round" />
  <path d="M320 140 C320 180 340 200 340 240" stroke="#f8f9fa" stroke-width="3" stroke-linecap="round" />
  
  <!-- Light Bulb Idea -->
  <circle cx="280" cy="80" r="30" fill="#f7a072" opacity="0.9" />
  <path d="M260 80 L300 80" stroke="#f8f9fa" stroke-width="3" stroke-linecap="round" />
  <path d="M280 60 L280 100" stroke="#f8f9fa" stroke-width="3" stroke-linecap="round" />
  <path d="M265 65 L295 95" stroke="#f8f9fa" stroke-width="3" stroke-linecap="round" />
  <path d="M265 95 L295 65" stroke="#f8f9fa" stroke-width="3" stroke-linecap="round" />
  
  <!-- IDEIA Text -->
  <rect x="180" y="320" width="200" height="60" rx="10" fill="#8ecae6" opacity="0.8" />
  <text x="280" y="340" font-family="Arial" font-size="24" fill="#f8f9fa" text-anchor="middle" font-weight="bold">IDEIA</text>
  <text x="280" y="360" font-family="Arial" font-size="12" fill="#f8f9fa" text-anchor="middle">Intervenção e Desenvolvimento Individual</text>
  
  <!-- Connected Elements -->
  <circle cx="100" cy="100" r="30" fill="#f7a072" opacity="0.7" />
  <text x="100" y="105" font-family="Arial" font-size="14" fill="#3d5a80" text-anchor="middle" font-weight="bold">I</text>
  <path d="M125 115 L170 140" stroke="#3d5a80" stroke-width="2" stroke-dasharray="4 2" />
  
  <circle cx="100" cy="200" r="30" fill="#8ecae6" opacity="0.7" />
  <text x="100" y="205" font-family="Arial" font-size="14" fill="#3d5a80" text-anchor="middle" font-weight="bold">D</text>
  <path d="M130 200 L170 200" stroke="#3d5a80" stroke-width="2" stroke-dasharray="4 2" />
  
  <circle cx="100" cy="300" r="30" fill="#73d13d" opacity="0.7" />
  <text x="100" y="305" font-family="Arial" font-size="14" fill="#3d5a80" text-anchor="middle" font-weight="bold">E</text>
  <path d="M125 285 L170 260" stroke="#3d5a80" stroke-width="2" stroke-dasharray="4 2" />
  
  <circle cx="460" cy="100" r="30" fill="#6a98d0" opacity="0.7" />
  <text x="460" y="105" font-family="Arial" font-size="14" fill="#3d5a80" text-anchor="middle" font-weight="bold">I</text>
  <path d="M435 115 L390 140" stroke="#3d5a80" stroke-width="2" stroke-dasharray="4 2" />
  
  <circle cx="460" cy="200" r="30" fill="#f7a072" opacity="0.7" />
  <text x="460" y="205" font-family="Arial" font-size="14" fill="#3d5a80" text-anchor="middle" font-weight="bold">A</text>
  <path d="M430 200 L390 200" stroke="#3d5a80" stroke-width="2" stroke-dasharray="4 2" />
  
  <!-- Connector Line -->
  <path d="M280 120 L280 80" stroke="#3d5a80" stroke-width="3" stroke-dasharray="6 3" />
  <path d="M280 300 L280 320" stroke="#3d5a80" stroke-width="3" stroke-dasharray="6 3" />
</svg>