<?xml version="1.0" encoding="UTF-8"?>
<svg width="150" height="150" viewBox="0 0 150 150" xmlns="http://www.w3.org/2000/svg">
    <!-- Círculo de fundo -->
    <circle cx="75" cy="75" r="70" fill="none" stroke="white" stroke-width="2" />
    
    <!-- Elementos do Logo -->
    <g transform="translate(30, 30)">
        <!-- E -->
        <path d="M0,0 H30 V10 H10 V25 H25 V35 H10 V50 H30 V60 H0 Z" fill="white" />
        
        <!-- I -->
        <path d="M40,0 H60 V60 H40 Z" fill="#9DCB5B" />
        
        <!-- B -->
        <path d="M70,0 H90 Q100,0 100,10 V20 Q100,30 90,30 H90 Q100,30 100,40 V50 Q100,60 90,60 H70 Z M80,10 V25 H85 Q90,25 90,20 V15 Q90,10 85,10 Z M80,35 V50 H85 Q90,50 90,45 V40 Q90,35 85,35 Z" fill="#E8694B" />
        
        <!-- M -->
        <path d="M110,0 H120 V35 L130,20 L140,35 V0 H150 V60 H140 L130,45 L120,60 H110 Z" fill="white" />
    </g>
    
    <!-- Pequenos círculos decorativos -->
    <circle cx="30" cy="110" r="5" fill="#9DCB5B" />
    <circle cx="45" cy="110" r="5" fill="#E8694B" />
    <circle cx="60" cy="110" r="5" fill="white" />
    <circle cx="75" cy="110" r="5" fill="#439CD5" />
    <circle cx="90" cy="110" r="5" fill="#E8694B" />
    <circle cx="105" cy="110" r="5" fill="#9DCB5B" />
    <circle cx="120" cy="110" r="5" fill="white" />
</svg>