<?xml version="1.0" encoding="UTF-8"?>
<!DOCTYPE svg PUBLIC "-//W3C//DTD SVG 1.1//EN" "http://www.w3.org/Graphics/SVG/1.1/DTD/svg11.dtd">
<!-- Creator: CorelDRAW 2020 (64 Bit) -->
<svg xmlns="http://www.w3.org/2000/svg" xml:space="preserve" width="57mm" height="85mm" version="1.1" style="shape-rendering:geometricPrecision; text-rendering:geometricPrecision; image-rendering:optimizeQuality; fill-rule:evenodd; clip-rule:evenodd"
viewBox="0 0 5700 8500"
 xmlns:xlink="http://www.w3.org/1999/xlink"
 xmlns:xodm="http://www.corel.com/coreldraw/odm/2003">
 <defs>
  <style type="text/css">
   <![CDATA[
    .fil10 {fill:#00161D}
    .fil18 {fill:#0017C6}
    .fil16 {fill:#0038B5}
    .fil20 {fill:#0051CF}
    .fil17 {fill:#006AFB}
    .fil21 {fill:#012BD7}
    .fil8 {fill:#014B00}
    .fil9 {fill:#0154AC}
    .fil5 {fill:#017301}
    .fil13 {fill:#0176E8}
    .fil2 {fill:#0CA3FC}
    .fil22 {fill:#162C37}
    .fil1 {fill:#62BC05}
    .fil14 {fill:#8EBBCD}
    .fil15 {fill:#A20000}
    .fil19 {fill:#CC4C0B}
    .fil4 {fill:#CD0001}
    .fil11 {fill:#E60000}
    .fil23 {fill:#EBE45C}
    .fil26 {fill:#F04B31}
    .fil25 {fill:#F5706C}
    .fil24 {fill:#F5B014}
    .fil3 {fill:#FD2501}
    .fil12 {fill:#FE7401}
    .fil6 {fill:#FED501}
    .fil0 {fill:#FEFEFE}
    .fil7 {fill:#FF9D01}
   ]]>
  </style>
   <clipPath id="id0">
    <rect x="175.59" y="15.17" width="5499.26" height="8453.5"/>
   </clipPath>
 </defs>
 <g id="Camada_x0020_1">
  <metadata id="CorelCorpID_0Corel-Layer"/>
  <g style="clip-path:url(#id0)">
   <image x="175.59" y="15.17" width="5499.26" height="8453.5" xlink:href="logo_ideia_Images\logo_ideia_ImgID1.png"/>
  </g>
  <polygon class="fil0" points="175.59,8468.67 5674.85,8468.67 5674.85,15.17 175.59,15.17 "/>
  <path class="fil1" d="M208.08 3096.1c-1.15,-104.03 -19.58,-77.49 24.8,-169.1 51.27,-105.82 70.76,-161.55 143.91,-264.96 30.32,-42.86 42.95,-90.74 73.43,-129.7 33.99,-106.57 106.75,-209.49 216.82,-248.58 213.13,-75.69 489.5,165.15 603.29,308.93l137.82 211.67c19.88,34.95 17.91,54.6 45.9,76.27 -1.92,-380.8 -23.78,-464.63 124.41,-823.94 153.3,-371.73 281.06,-579.68 546.6,-890.58 69.91,-81.86 276.68,-272.77 379.3,-338.49 136.46,-87.38 309.68,-216.12 468.68,-253.57 12.73,119.89 -8.17,250.4 -6.69,358.94 3.05,225.36 -9.45,164.99 -25.31,363.84l27.59 -134.77c8.01,-57.29 7.48,-95.53 11.46,-158.62 11.13,-176.3 31.91,-457.81 10.78,-631.95 -9.79,-80.6 -27.38,-245.9 -21.44,-319.19 -352,-26.92 -934.57,130.44 -1194.44,264.34 -169.7,87.43 -322.16,166.89 -461.6,267.69 -180.34,130.35 -423.17,356.92 -555.86,541.63l-213.73 335.03c-107.78,187.86 -167.37,284.13 -225.16,503.46 -14.44,54.79 -31.21,84.28 -45.81,133.53 -65.62,221.27 -127.89,891.17 -64.75,998.12z"/>
  <path class="fil2" d="M3710.95 3372.16c-22.68,-12.44 -14.11,-5.74 -27.48,-28.68 -45.01,-77.25 -17.83,-186.22 -28.43,-271.3 -47.02,-101.98 -165.27,-72.21 -264.55,-41.75 -45.95,14.11 -97.77,29.28 -148.6,41.39 -53.5,12.74 -103.93,12.95 -156.84,31.51l-303.53 17.01c-5.33,149.19 46.41,275.09 70.35,415.67 11.26,66.06 43.84,123.11 57.67,191.93 24.29,120.91 50.06,149.16 56.05,182.36 44.36,40.16 85.59,178.78 1.25,205.05 -51.45,16.03 -91.97,-4.22 -116.37,-28.4 -31.39,-31.09 -25.13,-48.23 -78.72,-70.11 -83.99,-34.28 -180.65,11.95 -221.01,59.8 -59.77,70.86 -50.86,136.97 -47.37,251.82 50.91,102.35 87.24,157.61 212.02,193.94 43.93,12.79 136.24,22.52 184.28,14.73 64.77,-10.48 78.57,-37.76 143.9,-53.74 26.18,-51.55 50.22,-30.43 93.97,-110.17 19.64,-35.78 34.66,-95.09 47.43,-141.9 15.9,-58.27 32.54,-95.65 85.86,-111.85 37.57,-11.41 137.45,-17.56 162.7,-3.78 109.89,10.05 224.64,128.58 239.5,214.19 18,5.71 8.25,-0.25 18.09,24.66 2.09,5.26 9.6,35.25 11.18,42.17 7.07,30.89 12.35,52.47 8.97,83.39 21.16,37.21 12.55,125.07 6.29,163.4 -10.41,63.79 -24.36,85.85 -44.51,139.94l-10.26 35.44c148.93,-20.64 574.77,-300.26 670.02,-376.81 140.48,-112.91 338.46,-311.11 454.54,-453.78 27.38,-33.66 33.19,-54.93 65.45,-78.09 14.21,-26.95 40.19,-51.4 60.36,-75.84l104.28 -176.5c4.96,-14.44 180.53,-330.62 210.71,-450.21l93.01 -274.71c0.95,-2.03 2.59,-4.55 3.57,-6.46l7.41 -11.28c6.33,-14.16 2.5,2.9 4.08,-16.21 3.73,-44.79 52.06,30.13 -4.09,-12.01 -74.5,-1.5 -223.17,46.63 -293.08,66.63 -49.04,14.02 -88.06,38.76 -134.34,48.1 -69.38,14.03 -107.91,-15.69 -146.68,-27.14 -32.5,-5.76 -85.73,-44.52 -105.97,-69.98 -20.24,-25.46 -42.1,-93.54 -43.38,-125.03 -9.88,-242.93 245.71,-237.32 190.99,-457.4 -9.02,-36.26 -122.81,-169.6 -142.79,-187.89 -51.61,-55.15 -393.58,-165.68 -553.67,150.87 -56.42,111.55 -43.55,239.67 1.8,347.02 64.3,152.19 326.47,289.29 321.57,517.16 -3.23,150.23 -56.89,212.85 -138.87,279.37 -124.77,101.26 -323.32,152.86 -479.73,51.04 -42.15,-27.43 -91.59,-57.82 -97.03,-107.57z"/>
  <path class="fil3" d="M2941.04 1296.83c-9.49,57.54 -39.42,107.55 -118.76,88.17 -77.77,-18.99 -98.86,-75.05 -118.48,-106.68 -47.68,-76.92 -208.13,-109.82 -331.33,-71.91 -181.98,55.98 -336.39,313.29 -266.6,564.28l-3.93 -77.21c56.8,37.52 71.23,89.45 162.28,115.77 84.15,24.33 160.75,12.59 220.4,-24.53 100.15,-62.34 216.07,-190.84 398.03,-134.82 238.8,73.51 347.03,354.49 241.81,506.19 -47.41,68.37 -83.53,93.22 -185.32,92.47l-0.63 -37.34c-11.11,73.18 -30.74,132.27 -50.85,197.11 -21.84,70.44 -27.25,142.08 -43.28,216.37 53.02,-5.39 38.83,-8.31 102.2,-30.13 180.52,-62.17 286.99,-126.7 424.98,-181.97l276.03 -183.01c163.18,-116.85 479.24,-439.6 518.29,-693.48 12.84,-110.75 38.09,-128.93 27.76,-263.12 -35.58,-462.71 -289.87,-774.18 -619.68,-1063.44 -12.19,-10.69 -28.62,-23.11 -39.94,-30.14l-116.09 -69.79 -46.44 -16.54c-133.11,-26.49 -263.65,-34.71 -402.06,-40.78 -5.94,73.29 11.65,238.59 21.44,319.19 21.13,174.14 0.35,455.65 -10.78,631.95 -3.98,63.09 -3.45,101.33 -11.46,158.62l-27.59 134.77z"/>
  <path class="fil4" d="M4165.88 1536.11c-39.05,253.88 -355.11,576.63 -518.29,693.48l-276.03 183.01c-137.99,55.27 -244.46,119.8 -424.98,181.97 -63.37,21.82 -49.18,24.74 -102.2,30.13 -12.56,47.75 -32.47,160.77 -39.16,199.87l-6.02 -44.8c-21.71,55.74 -12.21,261.88 -17.68,340.57l303.53 -17.01c-2.11,-2.68 -8.16,-8.68 -7.81,-6.58l97.22 -36.31c-75.06,-2.12 -237.73,42.89 -295.23,23.16 -38.32,-13.13 -16.62,18.61 -26.96,-26.97 -5.11,4.26 -1.36,16.94 -33.23,28.33 -46.51,-375.17 53.28,-270.59 301.49,-312.92 37.71,-6.44 115.71,-20.81 149.64,-34.06 51.64,-20.16 57.89,-36.72 138.69,-38.9 101.23,-2.74 251.15,-6.06 323.96,37.66 95.53,57.39 82.36,190.13 57.7,267.97 16.15,43.25 -39.98,111.7 -55.05,151.46 -33.35,87.96 -15.83,131.26 -24.52,215.99 5.44,49.75 54.88,80.14 97.03,107.57 156.41,101.82 354.96,50.22 479.73,-51.04 81.98,-66.52 135.64,-129.14 138.87,-279.37 4.9,-227.87 -257.27,-364.97 -321.57,-517.16 -45.35,-107.35 -58.22,-235.47 -1.8,-347.02 160.09,-316.55 502.06,-206.02 553.67,-150.87 57.91,29.16 124.06,97.5 154.21,160.28 25.06,52.2 40.16,208.26 15.87,271.54 -8.53,98.67 -95.49,197.69 -54.32,317.8 46.78,136.48 140.73,60.56 240.19,30.83 50.1,-14.98 97.52,-19.39 154.64,-35.32 97.72,-27.26 392.73,-113.69 473.98,-108.6l-29.6 -51.7c-3.67,-13.03 -1.7,-4.9 -3.24,-18.18 -2.55,-21.96 0.89,-57.33 1.09,-81.23 1.08,-126.82 -29.89,-312.99 -52.72,-434.04 -15.48,-82.1 -62.57,-157.4 -98.57,-230.5 -107.42,-218.11 -311.83,-192.25 -384.69,-270.78 -163.5,-176.19 -149.95,-226.84 -224.19,-354.69 -40.54,-69.79 -144.2,-99.91 -199.33,-129.79 -19.81,-10.74 -29.52,-20.83 -46.41,-32.59 -35.03,37.35 -40.7,38.6 -84.03,68.87 -62.42,43.62 -5.69,200.54 -110.32,199.52 -112.59,-1.11 -87.62,-10.18 -82.38,45.79 -103.38,-8.03 7.31,14.16 -110.61,-10.39l-40.02 52.37c-0.95,1.18 -4.37,7.9 -5.11,6.13 -0.78,-1.87 -3.49,4.47 -5.44,6.52z"/>
  <path class="fil5" d="M450.22 2532.34c46.64,57.29 -10,343.3 354.59,327.27 229.97,-10.13 302.2,-133.37 526.34,82.06 186.25,179.01 -58.09,301.06 -39.16,506.68 9.58,104.12 78.09,147.21 190.64,153.2 117.91,6.27 223.87,1.66 280.59,-71.77 48.58,-62.89 50.22,-207.34 10.05,-272.69 -41.7,-67.83 -122.07,-128.45 -39.4,-246.9 54.95,-78.73 348.08,-169.9 460.05,-229.48 224.39,-119.4 407.33,-262.72 580.39,-445.53 42.8,-45.22 76.76,-66.96 106.23,-132.6 18.38,-40.9 8.13,-40.14 41.87,-56.38l8.41 -51.74c-15.53,-116.61 -131.98,-138.43 -210.42,-83.33 -75.25,52.87 -118.03,106 -249.6,102.21 -183.66,-5.26 -319.41,-175.51 -364.93,-342.65 -69.79,-250.99 84.62,-508.3 266.6,-564.28 123.2,-37.91 283.65,-5.01 331.33,71.91 19.62,31.63 40.71,87.69 118.48,106.68 79.34,19.38 109.27,-30.63 118.76,-88.17 15.86,-198.85 28.36,-138.48 25.31,-363.84 -1.48,-108.54 19.42,-239.05 6.69,-358.94 -159,37.45 -332.22,166.19 -468.68,253.57 -102.62,65.72 -309.39,256.63 -379.3,338.49 -265.54,310.9 -393.3,518.85 -546.6,890.58 -148.19,359.31 -126.33,443.14 -124.41,823.94 -27.99,-21.67 -26.02,-41.32 -45.9,-76.27l-137.82 -211.67c-113.79,-143.78 -390.16,-384.62 -603.29,-308.93 -110.07,39.09 -182.83,142.01 -216.82,248.58z"/>
  <path class="fil6" d="M655.86 3081.13c-22.45,54.19 -8.11,9.54 8.78,27.95 34.11,-2.41 31.08,-6.07 49.95,-9.97l-110.73 22.04c15.77,6 25.39,7.31 42.24,15.44 -1.9,128.83 -10.46,16.75 14.83,106.37 71.04,251.69 105.39,373.09 245.65,601.92l131.37 208.48c11.59,17.32 19.22,34.49 30.04,50.24l76.69 92.37c19.54,23.02 22.12,29.31 37.93,52.17 69.88,101.15 403.77,433.9 510.58,507.23 202.01,138.7 203.66,147.94 461.73,209.1 82.95,19.66 316.81,10.51 401.47,-10.25l208.03 -52.42c114.64,-43.21 191.93,-167.33 309.42,-202.03 58.15,-17.18 198.71,-70.24 233.29,-103.33 87.45,-83.75 184.09,-89.43 220.8,-267.77 -1.37,-50.21 -8.52,-155.39 -39.56,-178.59 -0.67,-0.51 -19.52,-8.88 -25.03,-12.17 -25.73,-15.36 -14.93,-5.96 -29.81,-22.22 -25.25,-13.78 -125.13,-7.63 -162.7,3.78 -53.32,16.2 -69.96,53.58 -85.86,111.85 -12.77,46.81 -27.79,106.12 -47.43,141.9 -43.75,79.74 -67.79,58.62 -93.97,110.17 -11.43,22.5 -0.01,4.68 -24.66,17.74 -9.04,4.79 -18.57,9.32 -27.15,13.46 -80.79,38.95 -102.39,-0.94 -195.92,66.46 -65.45,47.19 -346.53,-56.08 -393.87,-85.96 -255.41,-161.19 -220.92,-339.69 -118.55,-597.9l108.73 -230.34c76.38,-172.51 168.45,-322.02 173.21,-518.59 -74.4,2.54 -44.15,-13.11 -103.79,-22.34l-336.54 -27.9c-78.75,-10.48 -145.28,-28.23 -197.57,26.68 -67.25,70.62 -19.73,89.33 -21.22,175.89 5.89,31.73 37.57,54.79 51.69,140.09 27.31,164.92 -39.92,329.87 -169.79,391.41 -203.87,96.59 -419.3,97.53 -581.64,-57.24 -269.21,-256.67 -29.67,-481.84 -13.89,-538.38 70.21,-251.51 -383.34,-187.55 -536.75,-155.34z"/>
  <path class="fil7" d="M215.35 3170.65c23.64,129.89 45.44,262.45 81.08,377.06 12.84,41.27 34.94,136.78 52.44,178.61 23.2,55.5 48.52,107.7 72.42,165.05 36.68,88.01 196.47,374.1 251.46,446.67l69.94 108.5c20.3,37.61 1.85,16.37 33.05,34.03 -2.08,-48.83 -16.77,-134.29 42.1,-108.02 23.99,10.72 23.84,30.67 34.98,45.92 17.71,24.26 19.19,13.72 40.96,38.55 25.26,28.81 21.31,74.14 130.75,108.23 28.17,8.79 12.02,5.83 23.34,1.68 2.33,-0.86 8.66,-5.34 10.94,-6.96l12.27 -11.03c1.57,-1.37 4.08,-4.43 6.44,-6.28 3.84,55.65 13.73,12.97 46.09,64.19 9.17,14.51 10.56,20.87 20.28,28.26 36.12,27.49 18.19,-21.3 51.15,41.22 16.14,30.63 6.43,31.03 30.87,57.48l65 63.84c42.71,29.56 48.54,20.03 116.01,124.26 20.83,32.18 12.14,24.03 38.42,51.74l224.82 313.18c99.36,155.63 177.57,208.11 271.58,318.16 26.67,31.22 50.48,39.87 78.33,61.27 23.4,17.97 32.79,30.08 52.96,46.48 31.66,25.72 70.22,49.02 105.91,74.12 50.07,35.22 323.78,196.68 358.82,163.51 17.73,-20.52 10.81,-6.65 13.13,-46.02 1.06,-17.94 -1.95,-43.49 0.4,-60.64 6.35,-46.47 23.47,-28.69 36.84,-90.68 33.81,-156.87 6.21,-117.82 89.17,-158.75 1.35,-50.18 -4,-106.24 10.97,-142.14 57.29,62.26 50.45,287.96 89.53,338.07 0.59,0.75 2.54,2.6 3.2,3.27l22.36 16.85c18.37,20.6 27.82,53.29 42.84,77.85 34.38,56.18 120.13,152.64 160.38,117.08 17.96,-15.88 5.52,-11.51 7.83,-48.82 -3.12,-36.29 -47.2,-181.7 -62.28,-236.75 -18.13,-66.19 -54.19,-153.39 -56.67,-221.2 -36.24,-32.77 -30.13,-57.7 -37.72,-109.95 -6.08,-41.93 -11.33,-80.33 -12.53,-123.6 -1.97,-70.77 -5.68,-190.25 7.33,-256.79 18.55,-94.82 47.57,-113.19 120.18,-148.78 82.51,-40.46 139.61,-6.83 195.97,36.82 160.9,124.6 494.43,7.31 542.58,-416.09 3.38,-30.92 -1.9,-52.5 -8.97,-83.39 -1.58,-6.92 -9.09,-36.91 -11.18,-42.17 -9.84,-24.91 -0.09,-18.95 -18.09,-24.66 -28.16,11.04 -5.26,0.71 -21.83,11.75l-37.79 -25.52 -14.51 50.36c-14.09,-13.97 -3.37,-4.91 -12.31,-17.82 -1.57,-2.26 -6.03,-9.67 -7.64,-11.77 -14.7,-19.08 5.89,-8.79 -18.63,-17.75 -0.75,37.45 4.07,23.84 -15.85,48.72l-16.54 -39.18c-36.71,178.34 -133.35,184.02 -220.8,267.77 -34.58,33.09 -175.14,86.15 -233.29,103.33 -117.49,34.7 -194.78,158.82 -309.42,202.03l-208.03 52.42c-84.66,20.76 -318.52,29.91 -401.47,10.25 -258.07,-61.16 -259.72,-70.4 -461.73,-209.1 -106.81,-73.33 -440.7,-406.08 -510.58,-507.23 -15.81,-22.86 -18.39,-29.15 -37.93,-52.17l-76.69 -92.37c-10.82,-15.75 -18.45,-32.92 -30.04,-50.24l-131.37 -208.48c-140.26,-228.83 -174.61,-350.23 -245.65,-601.92 -25.29,-89.62 -16.73,22.46 -14.83,-106.37 -16.85,-8.13 -26.47,-9.44 -42.24,-15.44l110.73 -22.04c-18.87,3.9 -15.84,7.56 -49.95,9.97 -16.89,-18.41 -31.23,26.24 -8.78,-27.95l-440.51 89.52z"/>
  <path class="fil8" d="M450.22 2532.34c-30.48,38.96 -43.11,86.84 -73.43,129.7 -73.15,103.41 -92.64,159.14 -143.91,264.96 -44.38,91.61 -25.95,65.07 -24.8,169.1l7.27 74.55 440.51 -89.52c153.41,-32.21 606.96,-96.17 536.75,155.34 -15.78,56.54 -255.32,281.71 13.89,538.38 162.34,154.77 377.77,153.83 581.64,57.24 129.87,-61.54 197.1,-226.49 169.79,-391.41 -14.12,-85.3 -45.8,-108.36 -51.69,-140.09 -31.81,-21.26 -41.79,-26.95 -45.52,-91.64 -7.26,-125.85 109.51,-150.98 221.54,-146.39l451.34 47.23c109.88,27.43 137.89,12.35 247.92,10.55 5.47,-78.69 -4.03,-284.83 17.68,-340.57 2.88,-119.3 20.41,-226.41 43.9,-334.84 23.51,-108.49 66.44,-203.05 79.31,-298.73 -33.74,16.24 -23.49,15.48 -41.87,56.38 -29.47,65.64 -63.43,87.38 -106.23,132.6 -173.06,182.81 -356,326.13 -580.39,445.53 -111.97,59.58 -405.1,150.75 -460.05,229.48 -82.67,118.45 -2.3,179.07 39.4,246.9 40.17,65.35 38.53,209.8 -10.05,272.69 -56.72,73.43 -162.68,78.04 -280.59,71.77 -112.55,-5.99 -181.06,-49.08 -190.64,-153.2 -18.93,-205.62 225.41,-327.67 39.16,-506.68 -224.14,-215.43 -296.37,-92.19 -526.34,-82.06 -364.59,16.03 -307.95,-269.98 -354.59,-327.27z"/>
  <path class="fil9" d="M4593.27 4517.16l-330.71 293.31c-62.71,48.86 -109.82,95.23 -175.55,143.27 -34.15,24.96 -56.05,45.41 -93.5,64.72 -38.51,19.85 -66.95,35.87 -95.79,56.17 -129.96,91.42 -275.06,138.25 -431.87,194.64 -108.47,39.02 -429.11,44.76 -565.59,59.92 -21.32,-37.7 -19.25,-74.97 -19.35,-126.95 -18.77,32.29 -15.48,63.89 -0.86,141.13 7.88,41.67 13.12,106.03 15.41,155.12 2.48,67.81 38.54,155.01 56.67,221.2 15.08,55.05 59.16,200.46 62.28,236.75 15.93,14.16 1.85,-4.78 18.83,22.67 4.42,7.15 13.92,29.65 15.87,35.18 8.33,23.64 11.09,49.35 19.99,68.61 58.6,34.84 216.09,-30.27 279.61,-51.7 138.3,-46.63 125.17,-47.39 244.24,-107.35 77.72,-26.88 306.91,-138.34 352.47,-182.69l105.57 -94.32c17.54,-15.02 20.39,-17.07 38.91,-31.25 44.71,-34.27 105.52,-93.67 159.61,-111.14 -2.47,12.71 15.95,-10.82 -13.35,-5.83l-22.18 14.91c-1.29,1.05 -3.88,4.02 -6.27,5.39l-33.55 -86.59c1.46,-32.48 10.86,-29.58 12.32,-119.21l53.17 -36.15c1.29,-0.91 3.66,-2.77 4.91,-3.61 1.15,-0.78 3.58,-2.43 4.72,-3.12 25.49,-15.7 34.91,-9.43 64.18,-38.97l44.1 -74.09c31.67,-58.46 128.11,-137.76 149.92,-186.3 16.47,-36.63 55.67,-81.81 88.87,-106.47l14.89 -8.75c33.01,-26.33 -10.91,28.62 8.59,-9.63 8.73,-17.15 6.15,-51 60.54,-78.52l10.76 -4.42c20.48,-11.37 7.54,-17.7 42.54,-50.83 25.58,-24.2 49.14,-19.4 38.79,-47.88 -5.46,-15.02 -11.25,-6.13 -19.23,-31.64 18.2,-9.35 16.81,-8.25 27.4,-19.34 0.78,-0.82 2.52,-3.07 3.31,-3.94l24.38 -30.73c13.52,-30.93 2.12,-22.95 5.62,-42.55 5.28,-29.54 11.22,-22.97 20.22,-37.96 -8.95,-4.72 -13.86,-5.2 -14.91,-5.6l-9.69 -3.98c-1.1,-0.37 -3.83,-1.53 -4.99,-1.86 -22.51,-6.22 9.69,-10.91 -37.36,-0.71 0.18,-47.27 11.86,-72.66 19.87,-111.3 -80.44,12.37 -59.25,19.16 -108.64,63.34 -22.56,20.19 -19.44,13.68 -39.88,40.18 -25.77,33.41 -6.37,20.69 -45.29,38.87z"/>
  <path class="fil10" d="M3592.95 5923.85c-119.07,59.96 -105.94,60.72 -244.24,107.35 -63.52,21.43 -221.01,86.54 -279.61,51.7 -0.58,42.24 -14.41,39.4 -65.23,45.12 -177.77,19.98 -500.92,2.12 -672.72,-34.46 -116.9,-24.88 -233.35,-44.44 -340.68,-78.74 -107.44,-34.33 -196.3,-77.33 -298.24,-110.35 16.26,133.58 75.42,302.35 82.98,468.01 3.13,68.21 -18.02,121.37 31.77,155.93 63.99,25.94 1401.88,-123.65 1571.42,-149.63 194.19,-29.76 570.47,-52.98 695.14,-160.07 67.82,-58.27 74.8,-303.62 153.76,-495.88 19.44,-47.36 42.97,-111.32 52.87,-163.8 -23.54,-22.61 3.59,-11.16 -23.99,-5.5 -20.76,4.26 -35.62,26 -57.16,41.41 -34.86,24.95 -50.32,19.15 -85.36,44.9 -161.5,118.67 -307.57,227.21 -520.71,284.01z"/>
  <path class="fil11" d="M4165.88 1536.11c1.95,-2.05 4.66,-8.39 5.44,-6.52 0.74,1.77 4.16,-4.95 5.11,-6.13l40.02 -52.37c117.92,24.55 7.23,2.36 110.61,10.39 -5.24,-55.97 -30.21,-46.9 82.38,-45.79 104.63,1.02 47.9,-155.9 110.32,-199.52 43.33,-30.27 49,-31.52 84.03,-68.87 16.89,11.76 26.6,21.85 46.41,32.59 55.13,29.88 158.79,60 199.33,129.79 74.24,127.85 60.69,178.5 224.19,354.69 72.86,78.53 277.27,52.67 384.69,270.78 36,73.1 83.09,148.4 98.57,230.5 22.83,121.05 53.8,307.22 52.72,434.04 -0.2,23.9 -3.64,59.27 -1.09,81.23 1.54,13.28 -0.43,5.15 3.24,18.18l29.6 51.7c-6.57,19.47 1.91,17.16 -13.97,13.83l16.52 0.02c36.8,-50.85 -1.93,-196.59 -9.6,-264.71 -10.41,-92.32 -5.82,-194.33 -23.5,-283.39 -27.67,-139.33 -102.45,-360.64 -158.72,-462.3 -75.04,-135.56 -132.15,-271.8 -212.11,-405.35 -45.67,-76.27 -85.03,-108.09 -135.6,-174.04 -24.38,-31.81 -32.08,-64.32 -54.3,-96.44 -15.63,-22.61 -50.26,-64.03 -70.58,-88.49l-307.61 -301.33c-184.85,-171.4 -529.17,-369.11 -774.57,-462.9 -83.69,-31.98 -386.47,-145.67 -479.48,-136.08l116.09 69.79c11.32,7.03 27.75,19.45 39.94,30.14 329.81,289.26 584.1,600.73 619.68,1063.44 10.33,134.19 -14.92,152.37 -27.76,263.12z"/>
  <path class="fil10" d="M2086.19 7348.7c21.03,149.49 177.26,282.3 301.03,334.92 49.24,20.94 119.53,22.84 163.19,45.48 54.17,42.59 37.61,315.39 379.94,320.52 96.61,1.45 185.33,-45.73 250.95,-98.19 96.98,-77.52 70.39,-110.66 121.19,-228.15 142.03,-32.58 246.86,-73.77 330.17,-148.99 30.35,-27.4 79.18,-87.37 102.83,-136.46 53.75,-111.61 5.25,-77.66 120.84,-129.2 94.34,-42.07 263.84,-103.35 242.03,-236.04 -24.28,-147.72 -182.31,-26.98 -327.46,20.74 -355.82,117 -843.18,175.2 -1231.02,214.33 -137.69,13.89 -319.61,44.33 -453.69,41.04z"/>
  <path class="fil12" d="M775.74 4480.57c9.61,29.5 36.21,55.1 54.14,80.49 120.11,170.11 287.37,349.97 446.86,580.92 255.12,369.42 232.98,365.49 415.49,762.49 101.94,33.02 190.8,76.02 298.24,110.35 107.33,34.3 223.78,53.86 340.68,78.74 171.8,36.58 494.95,54.44 672.72,34.46 50.82,-5.72 64.65,-2.88 65.23,-45.12 -8.9,-19.26 -11.66,-44.97 -19.99,-68.61 -1.95,-5.53 -11.45,-28.03 -15.87,-35.18 -16.98,-27.45 -2.9,-8.51 -18.83,-22.67 -2.31,37.31 10.13,32.94 -7.83,48.82 -40.25,35.56 -126,-60.9 -160.38,-117.08 -15.02,-24.56 -24.47,-57.25 -42.84,-77.85l-22.36 -16.85c-0.66,-0.67 -2.61,-2.52 -3.2,-3.27 -39.08,-50.11 -32.24,-275.81 -89.53,-338.07 -14.97,35.9 -9.62,91.96 -10.97,142.14 -82.96,40.93 -55.36,1.88 -89.17,158.75 -13.37,61.99 -30.49,44.21 -36.84,90.68 -2.35,17.15 0.66,42.7 -0.4,60.64 -2.32,39.37 4.6,25.5 -13.13,46.02 -35.04,33.17 -308.75,-128.29 -358.82,-163.51 -35.69,-25.1 -74.25,-48.4 -105.91,-74.12 -20.17,-16.4 -29.56,-28.51 -52.96,-46.48 -27.85,-21.4 -51.66,-30.05 -78.33,-61.27 -94.01,-110.05 -172.22,-162.53 -271.58,-318.16l-224.82 -313.18c-26.28,-27.71 -17.59,-19.56 -38.42,-51.74 -67.47,-104.23 -73.3,-94.7 -116.01,-124.26l-65 -63.84c-24.44,-26.45 -14.73,-26.85 -30.87,-57.48 -32.96,-62.52 -15.03,-13.73 -51.15,-41.22 -9.72,-7.39 -11.11,-13.75 -20.28,-28.26 -32.36,-51.22 -42.25,-8.54 -46.09,-64.19 -2.36,1.85 -4.87,4.91 -6.44,6.28l-12.27 11.03c-2.28,1.62 -8.61,6.1 -10.94,6.96 -11.32,4.15 4.83,7.11 -23.34,-1.68 -109.44,-34.09 -105.49,-79.42 -130.75,-108.23 -21.77,-24.83 -23.25,-14.29 -40.96,-38.55 -11.14,-15.25 -10.99,-35.2 -34.98,-45.92 -58.87,-26.27 -44.18,59.19 -42.1,108.02z"/>
  <path class="fil13" d="M4852.8 3910.2c-32.26,23.16 -38.07,44.43 -65.45,78.09 -116.08,142.67 -314.06,340.87 -454.54,453.78 -95.25,76.55 -521.09,356.17 -670.02,376.81l10.26 -35.44c-15.39,18.01 -21.68,30.32 -36.44,49.64 -17.96,23.5 -22.71,26.95 -43.68,46.69 -98.92,93.13 -237.56,168.23 -384.03,105.55 -96.64,-41.34 -134.72,-118.48 -245.18,-45.88 -71.58,47.04 -90.77,175.35 -82.81,262.8 0.1,51.98 -1.97,89.25 19.35,126.95 136.48,-15.16 457.12,-20.9 565.59,-59.92 156.81,-56.39 301.91,-103.22 431.87,-194.64 28.84,-20.3 57.28,-36.32 95.79,-56.17 37.45,-19.31 59.35,-39.76 93.5,-64.72 65.73,-48.04 112.84,-94.41 175.55,-143.27l330.71 -293.31c22.33,-56.91 107.54,-113.97 155.37,-197.97 28.02,-49.21 37.27,-17.88 93.78,-85.52 28.47,-34.07 49.16,-54.54 85.84,-85.55 55.37,-46.81 36.37,-46.51 65.12,-112.4l99.63 -161.36c22.09,-27.94 12.18,-27.65 16.65,-49.98l57.62 -107.33c-48.03,2.09 -52.41,15.52 -111.52,18.21 -123.24,5.61 -75.31,63.49 -139.71,122.09 -21.98,19.99 -39.3,26.76 -63.25,52.85z"/>
  <path class="fil7" d="M2565.36 3148.26c-4.76,196.57 -96.83,346.08 -173.21,518.59l-108.73 230.34c-102.37,258.21 -136.86,436.71 118.55,597.9 47.34,29.88 328.42,133.15 393.87,85.96 93.53,-67.4 115.13,-27.51 195.92,-66.46 8.58,-4.14 18.11,-8.67 27.15,-13.46 24.65,-13.06 13.23,4.76 24.66,-17.74 -65.33,15.98 -79.13,43.26 -143.9,53.74 -48.04,7.79 -140.35,-1.94 -184.28,-14.73 -124.78,-36.33 -161.11,-91.59 -212.02,-193.94l-25.28 -53.43c-22.24,-97.72 -2.64,-219.96 82.92,-277.92 219.66,-148.79 249.49,15.66 320.76,48.46 40.17,18.48 80.8,-1.43 99.11,-27.04 26.55,-37.15 -0.35,-68.89 -15.29,-108.23 -5.99,-33.2 -31.76,-61.45 -56.05,-182.36 -13.83,-68.82 -46.41,-125.87 -57.67,-191.93 -23.94,-140.58 -75.68,-266.48 -70.35,-415.67 -110.03,1.8 -138.04,16.88 -247.92,-10.55l30.64 10.78 1.12 27.69z"/>
  <path class="fil10" d="M4006.31 6678.58c-65.67,19.8 -110.34,61.69 -257.62,102.65 -309.64,86.07 -1461.97,228.2 -1776.92,232.64 -61.44,0.88 -107.3,-31.91 -152.32,-14.45 -89.82,34.85 -72.23,182.49 34.41,219.62 116.09,40.41 1652.45,-159.06 1933.97,-228.09 435.77,-106.85 323.57,-344.07 218.48,-312.37z"/>
  <path class="fil10" d="M3981.35 6332.28c-207.16,63.8 -276.5,123.64 -550.84,170.98 -322.67,55.69 -961.9,118.9 -1307.62,151.92 -55.22,5.27 -103.81,13.09 -160.74,14.88 -55.63,1.77 -114.84,-21.46 -157.05,5.12 -74.06,46.63 -57.66,204.02 76.96,209.45 136.39,5.51 819.94,-76.55 977.66,-102.56 306.24,-50.48 646.39,-72.34 944.61,-154.34 80.2,-22.05 201.87,-62.28 249.97,-109.02 83.02,-80.69 29.76,-218.07 -72.95,-186.43z"/>
  <path class="fil14" d="M1650.9 8342.36c117.5,85.95 1019.89,119.04 1319.08,107.64 253.92,-9.68 418.87,9.78 732,-26.8 105.28,-12.29 365.98,-36.3 458.74,-61.01 45.07,-12 33.81,-7.1 49.55,-36.46 -379.67,-147.89 -1787,-126.09 -2321.87,-51.74l-188.95 30.99c-48.25,14.55 -34.41,5.97 -48.55,37.38z"/>
  <path class="fil4" d="M2105.87 1770.69c45.52,167.14 181.27,337.39 364.93,342.65 131.57,3.79 174.35,-49.34 249.6,-102.21 78.44,-55.1 194.89,-33.28 210.42,83.33 18.23,30.39 10.43,76.72 7.69,116.76l0.63 37.34c101.79,0.75 137.91,-24.1 185.32,-92.47 105.22,-151.7 -3.01,-432.68 -241.81,-506.19 -181.96,-56.02 -297.88,72.48 -398.03,134.82 -59.65,37.12 -136.25,48.86 -220.4,24.53 -91.05,-26.32 -105.48,-78.25 -162.28,-115.77l3.93 77.21z"/>
  <path class="fil15" d="M3085.05 3103.33c52.91,-18.56 103.34,-18.77 156.84,-31.51 50.83,-12.11 102.65,-27.28 148.6,-41.39 99.28,-30.46 217.53,-60.23 264.55,41.75 21.53,31.25 13.05,95.27 11.1,137.79l15.27 -26.53c44.96,-92.35 54.38,-90.84 109.11,-178.73 24.66,-77.84 37.83,-210.58 -57.7,-267.97 -72.81,-43.72 -222.73,-40.4 -323.96,-37.66 -80.8,2.18 -87.05,18.74 -138.69,38.9 -33.93,13.25 -111.93,27.62 -149.64,34.06 -248.21,42.33 -348,-62.25 -301.49,312.92 31.87,-11.39 28.12,-24.07 33.23,-28.33 10.34,45.58 -11.36,13.84 26.96,26.97 57.5,19.73 220.17,-25.28 295.23,-23.16l-97.22 36.31c-0.35,-2.1 5.7,3.9 7.81,6.58z"/>
  <path class="fil16" d="M4787.08 4374.77c-8.01,38.64 -19.69,64.03 -19.87,111.3 47.05,-10.2 14.85,-5.51 37.36,0.71 1.16,0.33 3.89,1.49 4.99,1.86l9.69 3.98c1.05,0.4 5.96,0.88 14.91,5.6 -9,14.99 -14.94,8.42 -20.22,37.96 -3.5,19.6 7.9,11.62 -5.62,42.55l-24.38 30.73c-0.79,0.87 -2.53,3.12 -3.31,3.94 -10.59,11.09 -9.2,9.99 -27.4,19.34 7.98,25.51 13.77,16.62 19.23,31.64 10.35,28.48 -13.21,23.68 -38.79,47.88 -35,33.13 -22.06,39.46 -42.54,50.83l-10.76 4.42c-54.39,27.52 -51.81,61.37 -60.54,78.52 -19.5,38.25 24.42,-16.7 -8.59,9.63l-14.89 8.75c-33.2,24.66 -72.4,69.84 -88.87,106.47 -21.81,48.54 -118.25,127.84 -149.92,186.3l-44.1 74.09c-29.27,29.54 -38.69,23.27 -64.18,38.97 -1.14,0.69 -3.57,2.34 -4.72,3.12 -1.25,0.84 -3.62,2.7 -4.91,3.61l-53.17 36.15c-1.46,89.63 -10.86,86.73 -12.32,119.21l33.55 86.59c2.39,-1.37 4.98,-4.34 6.27,-5.39l22.18 -14.91c29.3,-4.99 10.88,18.54 13.35,5.83 -54.09,17.47 -114.9,76.87 -159.61,111.14 -18.52,14.18 -21.37,16.23 -38.91,31.25l-105.57 94.32c-45.56,44.35 -274.75,155.81 -352.47,182.69 213.14,-56.8 359.21,-165.34 520.71,-284.01 35.04,-25.75 50.5,-19.95 85.36,-44.9 21.54,-15.41 36.4,-37.15 57.16,-41.41 27.58,-5.66 0.45,-17.11 23.99,5.5l179.51 -261.63c41.29,-88.47 111.02,-148.51 173.05,-265.55 34.73,-65.57 53.31,-82.48 87.66,-132.9 26.01,-38.18 57.06,-90.16 85.88,-133.83l191.19 -263.47 -18.93 -5.23c17.99,-45.38 40.15,-55.59 60.65,-97.44 6.96,-14.2 15.42,-39.49 25.07,-54.04 16.99,-25.6 2.29,-2.77 19.05,-8.21 34.1,-119.03 13.7,-103.51 29.88,-142.67l19.17 -39.35c20.22,-65.21 28.64,-54.53 24.26,-81.52 -5.31,-32.59 -8.78,28.33 -7.31,-32.43 1.31,-53.67 60.44,-111.53 74.89,-146.41 7.07,-17.08 11.23,-43.29 1.77,-59.39 -28.48,51.93 -74.96,84.03 -114.18,137.3 -43.76,59.43 -61.37,69.61 -99.6,140.04l-79.05 111.5c-11.41,13.38 -15.98,19.33 -27.32,32.27l-85.42 94.25c-1.74,1.74 -30.05,21.88 -33.31,24.45z"/>
  <path class="fil0" d="M505.71 1993.3c193.61,-534.4 605.78,-945.88 1060.18,-1256.23 199.22,-136.05 549.16,-311.56 767.49,-389.3 55.61,-19.8 132.61,-37.38 176.6,-62.36 -292.33,-13.37 -784.02,219.8 -1041.34,353.64 -143.56,74.68 -398.53,310.11 -504.17,424.44 -167.82,181.62 -364.75,494.85 -426.09,740.62 -16.08,64.4 -56.77,150.13 -32.67,189.19z"/>
  <path class="fil17" d="M5610.61 2811.05c-4.71,44.02 -4.06,20.16 -30.91,71.7l-33.61 84.5c-18.56,41.89 -168.89,173.21 -216.73,215.75l-73.3 85.51c-24.96,24.84 -0.46,9.89 -35.63,24.27 -1.76,-45.09 3.85,-45.33 7.72,-85.13 -30.18,119.59 -205.75,435.77 -210.71,450.21l-104.28 176.5c-20.17,24.44 -46.15,48.89 -60.36,75.84 23.95,-26.09 41.27,-32.86 63.25,-52.85 64.4,-58.6 16.47,-116.48 139.71,-122.09 59.11,-2.69 63.49,-16.12 111.52,-18.21 24.73,-25.17 48.42,-35.06 72.95,-64.41 29.19,-34.92 36.77,-43.41 74.3,-67.2 6.32,-58.78 69.4,-135.65 102.74,-174.91l103.75 -174.94c74.76,-159.1 92.65,-114.07 104.09,-316.24 6.58,-116.25 -0.22,-67.78 24.6,-109.05l-5.71 -25.65 -16.52 -0.02c-28.9,27.43 -12.09,9.72 -16.87,26.42z"/>
  <path class="fil18" d="M5313.79 3667.98c3.95,35.3 0.51,18.23 -19.95,57.51l-15.46 35.02c-10.14,21.25 -37.3,59.81 -52.42,74.45 9.46,16.1 5.3,42.31 -1.77,59.39 -14.45,34.88 -73.58,92.74 -74.89,146.41 -1.47,60.76 2,-0.16 7.31,32.43 4.38,26.99 -4.04,16.31 -24.26,81.52l-19.17 39.35c-16.18,39.16 4.22,23.64 -29.88,142.67 -16.76,5.44 -2.06,-17.39 -19.05,8.21 -9.65,14.55 -18.11,39.84 -25.07,54.04 -20.5,41.85 -42.66,52.06 -60.65,97.44l18.93 5.23 389.11 -562.99c31.47,-49.27 52.59,-103.51 85.12,-153.68 80.71,-124.55 139.26,-414.73 162.96,-563.15 -0.67,31.82 -8.17,41.78 -15.01,75.67 -38.92,-22.75 -5.04,-50.36 -60.36,-6.72 -15.6,12.29 -26.3,29.09 -38.2,44.76 -15.73,20.71 -20.7,33.25 -34.08,55.81 -31.31,52.78 -58.03,66.22 -91.8,159.28 -29.05,80.02 -48.47,31.47 -49.76,107.38 -8.22,6.86 -28.88,8.91 -31.65,9.97z"/>
  <path class="fil19" d="M2895.46 5498.49c-2.29,-49.09 -7.53,-113.45 -15.41,-155.12 -14.62,-77.24 -17.91,-108.84 0.86,-141.13 -7.96,-87.45 11.23,-215.76 82.81,-262.8 110.46,-72.6 148.54,4.54 245.18,45.88 146.47,62.68 285.11,-12.42 384.03,-105.55 20.97,-19.74 25.72,-23.19 43.68,-46.69 14.76,-19.32 21.05,-31.63 36.44,-49.64 20.15,-54.09 34.1,-76.15 44.51,-139.94 6.26,-38.33 14.87,-126.19 -6.29,-163.4 -48.15,423.4 -381.68,540.69 -542.58,416.09 -56.36,-43.65 -113.46,-77.28 -195.97,-36.82 -72.61,35.59 -101.63,53.96 -120.18,148.78 -13.01,66.54 -9.3,186.02 -7.33,256.79 1.2,43.27 6.45,81.67 12.53,123.6 7.59,52.25 1.48,77.18 37.72,109.95z"/>
  <path class="fil13" d="M5332.13 2886.98c56.15,42.14 7.82,-32.78 4.09,12.01 -1.58,19.11 2.25,2.05 -4.08,16.21l-7.41 11.28c-0.98,1.91 -2.62,4.43 -3.57,6.46l-93.01 274.71c-3.87,39.8 -9.48,40.04 -7.72,85.13 35.17,-14.38 10.67,0.57 35.63,-24.27l73.3 -85.51c47.84,-42.54 198.17,-173.86 216.73,-215.75l33.61 -84.5c26.85,-51.54 26.2,-27.68 30.91,-71.7l-278.48 75.93z"/>
  <path class="fil20" d="M5167.28 3717.05l-57.62 107.33c-4.47,22.33 5.44,22.04 -16.65,49.98l-99.63 161.36c-28.75,65.89 -9.75,65.59 -65.12,112.4 -36.68,31.01 -57.37,51.48 -85.84,85.55 -56.51,67.64 -65.76,36.31 -93.78,85.52 -47.83,84 -133.04,141.06 -155.37,197.97 38.92,-18.18 19.52,-5.46 45.29,-38.87 20.44,-26.5 17.32,-19.99 39.88,-40.18 49.39,-44.18 28.2,-50.97 108.64,-63.34 3.26,-2.57 31.57,-22.71 33.31,-24.45l85.42 -94.25c11.34,-12.94 15.91,-18.89 27.32,-32.27l79.05 -111.5c38.23,-70.43 55.84,-80.61 99.6,-140.04 39.22,-53.27 85.7,-85.37 114.18,-137.3 15.12,-14.64 42.28,-53.2 52.42,-74.45l15.46 -35.02c20.46,-39.28 23.9,-22.21 19.95,-57.51l0.74 -82.54c-37.53,23.79 -45.11,32.28 -74.3,67.2 -24.53,29.35 -48.22,39.24 -72.95,64.41z"/>
  <path class="fil13" d="M4758.03 2974.57c-39.28,-101.69 -57.22,-75.54 -12.29,-206.8 13.79,-40.27 22.3,-65.86 35.63,-103.42 11.55,-32.52 19.64,-78.48 45.59,-98.26 24.29,-63.28 9.19,-219.34 -15.87,-271.54 -30.15,-62.78 -96.3,-131.12 -154.21,-160.28 19.98,18.29 133.77,151.63 142.79,187.89 54.72,220.08 -200.87,214.47 -190.99,457.4 1.28,31.49 23.14,99.57 43.38,125.03 20.24,25.46 73.47,64.22 105.97,69.98z"/>
  <path class="fil21" d="M5314.53 3585.44l-0.74 82.54c2.77,-1.06 23.43,-3.11 31.65,-9.97 1.29,-75.91 20.71,-27.36 49.76,-107.38 33.77,-93.06 60.49,-106.5 91.8,-159.28 13.38,-22.56 18.35,-35.1 34.08,-55.81 11.9,-15.67 22.6,-32.47 38.2,-44.76 55.32,-43.64 21.44,-16.03 60.36,6.72 6.84,-33.89 14.34,-43.85 15.01,-75.67 28.36,-80.9 34.81,-330.69 15.06,-411.53 -24.82,41.27 -18.02,-7.2 -24.6,109.05 -11.44,202.17 -29.33,157.14 -104.09,316.24l-103.75 174.94c-33.34,39.26 -96.42,116.13 -102.74,174.91z"/>
  <path class="fil22" d="M4758.03 2974.57c38.77,11.45 77.3,41.17 146.68,27.14 46.28,-9.34 85.3,-34.08 134.34,-48.1 69.91,-20 218.58,-68.13 293.08,-66.63l278.48 -75.93c4.78,-16.7 -12.03,1.01 16.87,-26.42 15.88,3.33 7.4,5.64 13.97,-13.83 -81.25,-5.09 -376.26,81.34 -473.98,108.6 -57.12,15.93 -104.54,20.34 -154.64,35.32 -99.46,29.73 -193.41,105.65 -240.19,-30.83 -41.17,-120.11 45.79,-219.13 54.32,-317.8 -25.95,19.78 -34.04,65.74 -45.59,98.26 -13.33,37.56 -21.84,63.15 -35.63,103.42 -44.93,131.26 -26.99,105.11 12.29,206.8z"/>
  <path class="fil19" d="M2503.37 4328.46c-3.49,-114.85 -12.4,-180.96 47.37,-251.82 40.36,-47.85 137.02,-94.08 221.01,-59.8 53.59,21.88 47.33,39.02 78.72,70.11 24.4,24.18 64.92,44.43 116.37,28.4 84.34,-26.27 43.11,-164.89 -1.25,-205.05 14.94,39.34 41.84,71.08 15.29,108.23 -18.31,25.61 -58.94,45.52 -99.11,27.04 -71.27,-32.8 -101.1,-197.25 -320.76,-48.46 -85.56,57.96 -105.16,180.2 -82.92,277.92l25.28 53.43z"/>
  <path class="fil23" d="M1906.24 3300.59c1.49,-86.56 -46.03,-105.27 21.22,-175.89 52.29,-54.91 118.82,-37.16 197.57,-26.68l336.54 27.9c59.64,9.23 29.39,24.88 103.79,22.34l-1.12 -27.69 -30.64 -10.78 -451.34 -47.23c-112.03,-4.59 -228.8,20.54 -221.54,146.39 3.73,64.69 13.71,70.38 45.52,91.64z"/>
  <path class="fil24" d="M3527.93 4328.67l16.54 39.18c19.92,-24.88 15.1,-11.27 15.85,-48.72 24.52,8.96 3.93,-1.33 18.63,17.75 1.61,2.1 6.07,9.51 7.64,11.77 8.94,12.91 -1.78,3.85 12.31,17.82l14.51 -50.36 37.79 25.52c16.57,-11.04 -6.33,-0.71 21.83,-11.75 -14.86,-85.61 -129.61,-204.14 -239.5,-214.19 14.88,16.26 4.08,6.86 29.81,22.22 5.51,3.29 24.36,11.66 25.03,12.17 31.04,23.2 38.19,128.38 39.56,178.59z"/>
  <path class="fil25" d="M2922.41 2146.2c-12.87,95.68 -55.8,190.24 -79.31,298.73 -23.49,108.43 -41.02,215.54 -43.9,334.84l6.02 44.8c6.69,-39.1 26.6,-152.12 39.16,-199.87 16.03,-74.29 21.44,-145.93 43.28,-216.37 20.11,-64.84 39.74,-123.93 50.85,-197.11 2.74,-40.04 10.54,-86.37 -7.69,-116.76l-8.41 51.74z"/>
  <path class="fil26" d="M3655.04 3072.18c10.6,85.08 -16.58,194.05 28.43,271.3 13.37,22.94 4.8,16.24 27.48,28.68 8.69,-84.73 -8.83,-128.03 24.52,-215.99 15.07,-39.76 71.2,-108.21 55.05,-151.46 -54.73,87.89 -64.15,86.38 -109.11,178.73l-15.27 26.53c1.95,-42.52 10.43,-106.54 -11.1,-137.79z"/>
 </g>
</svg>
