<svg width="120" height="120" viewBox="0 0 120 120" fill="none" xmlns="http://www.w3.org/2000/svg">
  <!-- Background circle -->
  <circle cx="60" cy="60" r="60" fill="#e9f5f9" />
  
  <!-- Clipboard/plan -->
  <rect x="35" y="20" width="50" height="70" rx="5" fill="#f8f9fa" stroke="#3d5a80" stroke-width="2" />
  <rect x="35" y="20" width="50" height="15" rx="5" fill="#6a98d0" />
  <rect x="45" y="20" width="30" height="5" rx="2.5" fill="#f8f9fa" />
  
  <!-- Clip -->
  <path d="M60 20 L60 5 L65 10 L60 15" fill="#3d5a80" />
  
  <!-- Plan lines -->
  <line x1="45" y1="45" x2="75" y2="45" stroke="#3d5a80" stroke-width="1.5" />
  <line x1="45" y1="55" x2="75" y2="55" stroke="#3d5a80" stroke-width="1.5" />
  <line x1="45" y1="65" x2="75" y2="65" stroke="#3d5a80" stroke-width="1.5" />
  <line x1="45" y1="75" x2="75" y2="75" stroke="#3d5a80" stroke-width="1.5" />
  
  <!-- Checkmarks -->
  <path d="M42 43 L45 46 L49 41" stroke="#f7a072" stroke-width="2" stroke-linecap="round" stroke-linejoin="round" />
  <path d="M42 53 L45 56 L49 51" stroke="#f7a072" stroke-width="2" stroke-linecap="round" stroke-linejoin="round" />
  <path d="M42 63 L45 66 L49 61" stroke="#f7a072" stroke-width="2" stroke-linecap="round" stroke-linejoin="round" />
  
  <!-- Decorative elements -->
  <circle cx="85" cy="30" r="8" fill="#8ecae6" opacity="0.7" />
  <circle cx="20" cy="80" r="8" fill="#f7a072" opacity="0.7" />
</svg>
