<svg width="120" height="120" viewBox="0 0 120 120" fill="none" xmlns="http://www.w3.org/2000/svg">
  <!-- Background circle -->
  <circle cx="60" cy="60" r="60" fill="#e9f5f9" />
  
  <!-- Brain shape -->
  <path d="M40 40 C30 40 30 60 40 65 C35 70 35 80 45 85 C55 90 65 90 75 85 C85 80 85 70 80 65 C90 60 90 40 80 40 C75 30 65 30 60 35 C55 30 45 30 40 40" fill="#6a98d0" opacity="0.8" />
  
  <!-- Brain details -->
  <path d="M60 35 L60 85" stroke="#f8f9fa" stroke-width="2" stroke-linecap="round" />
  <path d="M50 40 C50 50 45 55 45 65" stroke="#f8f9fa" stroke-width="2" stroke-linecap="round" />
  <path d="M70 40 C70 50 75 55 75 65" stroke="#f8f9fa" stroke-width="2" stroke-linecap="round" />
  
  <!-- Thought bubbles -->
  <circle cx="30" cy="30" r="8" fill="#f8f9fa" opacity="0.8" />
  <circle cx="85" cy="35" r="6" fill="#f8f9fa" opacity="0.8" />
  <circle cx="20" cy="50" r="5" fill="#f8f9fa" opacity="0.8" />
  <circle cx="90" cy="55" r="7" fill="#f8f9fa" opacity="0.8" />
  
  <!-- Child silhouette -->
  <circle cx="60" cy="105" r="10" fill="#f7a072" />
  <path d="M60 95 L60 85" stroke="#f7a072" stroke-width="3" />
</svg>
