<svg width="120" height="120" viewBox="0 0 120 120" fill="none" xmlns="http://www.w3.org/2000/svg">
  <!-- Background circle -->
  <circle cx="60" cy="60" r="60" fill="#e9f5f9" />
  
  <!-- Speech bubble -->
  <path d="M30 40 C30 35 35 30 40 30 L80 30 C85 30 90 35 90 40 L90 60 C90 65 85 70 80 70 L70 70 L60 85 L50 70 L40 70 C35 70 30 65 30 60 L30 40" fill="#6a98d0" />
  
  <!-- Letters in bubble -->
  <text x="40" y="45" font-family="Arial" font-size="10" fill="#f8f9fa">ABC</text>
  <text x="60" y="55" font-family="Arial" font-size="10" fill="#f8f9fa">123</text>
  
  <!-- Sound waves -->
  <path d="M25 60 C20 60 20 50 25 50" stroke="#3d5a80" stroke-width="2" stroke-linecap="round" />
  <path d="M20 65 C12 65 12 45 20 45" stroke="#3d5a80" stroke-width="2" stroke-linecap="round" />
  <path d="M15 70 C5 70 5 40 15 40" stroke="#3d5a80" stroke-width="2" stroke-linecap="round" />
  
  <!-- Child figure -->
  <circle cx="80" cy="90" r="12" fill="#f7a072" />
  <circle cx="80" cy="78" r="7" fill="#f8f9fa" />
  
  <!-- Happy mouth -->
  <path d="M75 90 C76 92 84 92 85 90" stroke="#3d5a80" stroke-width="1.5" stroke-linecap="round" />
</svg>
