<svg width="500" height="400" viewBox="0 0 500 400" fill="none" xmlns="http://www.w3.org/2000/svg">
  <!-- Background -->
  <rect width="500" height="400" rx="20" fill="#e9f5f9" opacity="0.3" />
  
  <!-- Central Child -->
  <circle cx="250" cy="200" r="50" fill="#f7a072" opacity="0.8" />
  <circle cx="250" cy="170" r="25" fill="#f8f9fa" />
  <path d="M235 200 C240 205 260 205 265 200" stroke="#3d5a80" stroke-width="2" stroke-linecap="round" />
  
  <!-- Specialists Around Child -->
  <g transform="translate(150, 100)">
    <circle cx="0" cy="0" r="40" fill="#6a98d0" opacity="0.8" />
    <circle cx="0" cy="0" r="32" fill="#f8f9fa" />
    <text x="0" y="0" font-family="Arial" font-size="10" fill="#3d5a80" text-anchor="middle" font-weight="bold">Psicologia</text>
    <line x1="30" y1="20" x2="85" y2="60" stroke="#3d5a80" stroke-width="2" stroke-dasharray="4 2" />
  </g>
  
  <g transform="translate(350, 100)">
    <circle cx="0" cy="0" r="40" fill="#8ecae6" opacity="0.8" />
    <circle cx="0" cy="0" r="32" fill="#f8f9fa" />
    <text x="0" y="0" font-family="Arial" font-size="10" fill="#3d5a80" text-anchor="middle" font-weight="bold">Fonoaudiologia</text>
    <line x1="-30" y1="20" x2="-85" y2="60" stroke="#3d5a80" stroke-width="2" stroke-dasharray="4 2" />
  </g>
  
  <g transform="translate(150, 300)">
    <circle cx="0" cy="0" r="40" fill="#73d13d" opacity="0.8" />
    <circle cx="0" cy="0" r="32" fill="#f8f9fa" />
    <text x="0" y="-5" font-family="Arial" font-size="10" fill="#3d5a80" text-anchor="middle" font-weight="bold">Terapia</text>
    <text x="0" y="8" font-family="Arial" font-size="10" fill="#3d5a80" text-anchor="middle" font-weight="bold">Ocupacional</text>
    <line x1="30" y1="-20" x2="85" y2="-60" stroke="#3d5a80" stroke-width="2" stroke-dasharray="4 2" />
  </g>
  
  <g transform="translate(350, 300)">
    <circle cx="0" cy="0" r="40" fill="#f7a072" opacity="0.8" />
    <circle cx="0" cy="0" r="32" fill="#f8f9fa" />
    <text x="0" y="0" font-family="Arial" font-size="10" fill="#3d5a80" text-anchor="middle" font-weight="bold">Musicoterapia</text>
    <line x1="-30" y1="-20" x2="-85" y2="-60" stroke="#3d5a80" stroke-width="2" stroke-dasharray="4 2" />
  </g>
  
  <g transform="translate(80, 200)">
    <circle cx="0" cy="0" r="40" fill="#6a98d0" opacity="0.8" />
    <circle cx="0" cy="0" r="32" fill="#f8f9fa" />
    <text x="0" y="-5" font-family="Arial" font-size="10" fill="#3d5a80" text-anchor="middle" font-weight="bold">Psico-</text>
    <text x="0" y="8" font-family="Arial" font-size="10" fill="#3d5a80" text-anchor="middle" font-weight="bold">pedagogia</text>
    <line x1="35" y1="0" x2="120" y2="0" stroke="#3d5a80" stroke-width="2" stroke-dasharray="4 2" />
  </g>
  
  <g transform="translate(420, 200)">
    <circle cx="0" cy="0" r="40" fill="#8ecae6" opacity="0.8" />
    <circle cx="0" cy="0" r="32" fill="#f8f9fa" />
    <text x="0" y="-5" font-family="Arial" font-size="10" fill="#3d5a80" text-anchor="middle" font-weight="bold">Pedagogia</text>
    <text x="0" y="8" font-family="Arial" font-size="10" fill="#3d5a80" text-anchor="middle" font-weight="bold">Especializada</text>
    <line x1="-35" y1="0" x2="-120" y2="0" stroke="#3d5a80" stroke-width="2" stroke-dasharray="4 2" />
  </g>
  
  <!-- Central Integration Text -->
  <path d="M250 270 L250 310 L350 310 L350 330" stroke="#3d5a80" stroke-width="2" stroke-dasharray="4 2" />
  <rect x="320" y="330" width="160" height="50" rx="10" fill="#6a98d0" opacity="0.8" />
  <text x="400" y="360" font-family="Arial" font-size="14" fill="#f8f9fa" text-anchor="middle" font-weight="bold">AÇÃO INTEGRADA</text>
  
  <path d="M250 270 L250 310 L150 310 L150 330" stroke="#3d5a80" stroke-width="2" stroke-dasharray="4 2" />
  <rect x="20" y="330" width="160" height="50" rx="10" fill="#f7a072" opacity="0.8" />
  <text x="100" y="360" font-family="Arial" font-size="14" fill="#f8f9fa" text-anchor="middle" font-weight="bold">PLANO UNIFICADO</text>
</svg>