<svg width="600" height="400" viewBox="0 0 600 400" fill="none" xmlns="http://www.w3.org/2000/svg">
  <!-- Background -->
  <rect width="600" height="400" rx="20" fill="#e9f5f9" opacity="0.5" />
  
  <!-- Three children playing with therapist -->
  <!-- Therapist -->
  <circle cx="300" cy="200" r="50" fill="#6a98d0" />
  <circle cx="300" cy="140" r="30" fill="#f8f9fa" />
  <path d="M280 190C285 195 315 195 320 190" stroke="#3d5a80" stroke-width="3" stroke-linecap="round" />
  
  <!-- Child 1 -->
  <circle cx="200" cy="230" r="40" fill="#f7a072" />
  <circle cx="200" cy="180" r="25" fill="#f8f9fa" />
  <path d="M185 220C189 224 211 224 215 220" stroke="#3d5a80" stroke-width="2" stroke-linecap="round" />
  
  <!-- Child 2 -->
  <circle cx="400" cy="230" r="40" fill="#8ecae6" />
  <circle cx="400" cy="180" r="25" fill="#f8f9fa" />
  <path d="M385 220C389 224 411 224 415 220" stroke="#3d5a80" stroke-width="2" stroke-linecap="round" />
  
  <!-- Child 3 -->
  <circle cx="300" cy="300" r="40" fill="#73d13d" opacity="0.7" />
  <circle cx="300" cy="250" r="25" fill="#f8f9fa" />
  <path d="M285 290C289 294 311 294 315 290" stroke="#3d5a80" stroke-width="2" stroke-linecap="round" />
  
  <!-- Decorative elements -->
  <circle cx="150" cy="100" r="20" fill="#f7a072" opacity="0.5" />
  <circle cx="450" cy="100" r="20" fill="#8ecae6" opacity="0.5" />
  <circle cx="100" cy="300" r="20" fill="#6a98d0" opacity="0.5" />
  <circle cx="500" cy="300" r="20" fill="#73d13d" opacity="0.5" />
  
  <!-- Toy blocks scattered around -->
  <rect x="120" y="320" width="30" height="30" rx="5" fill="#f7a072" />
  <rect x="450" y="320" width="30" height="30" rx="5" fill="#8ecae6" />
  <rect x="170" y="330" width="25" height="25" rx="5" fill="#6a98d0" />
  <rect x="400" y="330" width="25" height="25" rx="5" fill="#73d13d" />
</svg>
