<?xml version="1.0" encoding="UTF-8"?>
<!DOCTYPE svg PUBLIC "-//W3C//DTD SVG 1.1//EN" "http://www.w3.org/Graphics/SVG/1.1/DTD/svg11.dtd">
<!-- Creator: CorelDRAW 2020 (64 Bit) -->
<svg xmlns="http://www.w3.org/2000/svg" xml:space="preserve" width="297.145mm" height="69.9999mm" version="1.1" style="shape-rendering:geometricPrecision; text-rendering:geometricPrecision; image-rendering:optimizeQuality; fill-rule:evenodd; clip-rule:evenodd"
viewBox="0 0 45509.43 10720.89"
 xmlns:xlink="http://www.w3.org/1999/xlink"
 xmlns:xodm="http://www.corel.com/coreldraw/odm/2003">
 <defs>
  <style type="text/css">
   <![CDATA[
    .fil9 {fill:#00161D}
    .fil18 {fill:#0017C6}
    .fil15 {fill:#0038B5}
    .fil20 {fill:#0051CF}
    .fil17 {fill:#006AFB}
    .fil21 {fill:#012BD7}
    .fil7 {fill:#014B00}
    .fil8 {fill:#0154AC}
    .fil4 {fill:#017301}
    .fil12 {fill:#0176E8}
    .fil1 {fill:#0CA3FC}
    .fil22 {fill:#162C37}
    .fil0 {fill:#62BC05}
    .fil13 {fill:#8EBBCD}
    .fil14 {fill:#A20000}
    .fil19 {fill:#CC4C0B}
    .fil3 {fill:#CD0001}
    .fil10 {fill:#E60000}
    .fil23 {fill:#EBE45C}
    .fil26 {fill:#F04B31}
    .fil25 {fill:#F5706C}
    .fil24 {fill:#F5B014}
    .fil2 {fill:#FD2501}
    .fil11 {fill:#FE7401}
    .fil5 {fill:#FED501}
    .fil16 {fill:#FEFEFE}
    .fil6 {fill:#FF9D01}
    .fil28 {fill:#373435;fill-rule:nonzero}
    .fil27 {fill:#373435;fill-rule:nonzero}
   ]]>
  </style>
 </defs>
 <g id="Camada_x0020_1">
  <metadata id="CorelCorpID_0Corel-Layer"/>
  <g id="_1868957383248">
   <g>
    <path class="fil0" d="M33.53 3887.32c-1.45,-132.72 -24.98,-98.88 31.64,-215.75 65.41,-135.01 90.29,-206.12 183.62,-338.05 38.67,-54.69 54.8,-115.79 93.67,-165.48 43.39,-135.96 136.2,-267.27 276.65,-317.15 271.93,-96.56 624.54,210.71 769.71,394.16l175.82 270.04c25.38,44.6 22.87,69.67 58.57,97.32 -2.45,-485.86 -30.32,-592.8 158.73,-1051.23 195.6,-474.28 358.6,-739.57 697.38,-1136.25 89.2,-104.44 353.01,-348.02 483.94,-431.85 174.09,-111.5 395.11,-275.74 597.97,-323.53 16.25,152.96 -10.43,319.47 -8.55,457.95 3.91,287.52 -12.04,210.51 -32.29,464.22l35.21 -171.95c10.22,-73.1 9.53,-121.88 14.61,-202.38 14.2,-224.94 40.72,-584.11 13.75,-806.29 -12.48,-102.83 -34.92,-313.72 -27.34,-407.23 -449.11,-34.35 -1192.39,166.42 -1523.95,337.25 -216.52,111.56 -411.02,212.93 -588.93,341.54 -230.1,166.31 -539.92,455.38 -709.2,691.04l-272.68 427.46c-137.52,239.67 -213.55,362.5 -287.29,642.34 -18.41,69.9 -39.81,107.53 -58.44,170.37 -83.71,282.3 -163.16,1137 -82.61,1273.46z"/>
    <path class="fil1" d="M4502.69 4239.53c-28.93,-15.88 -18.01,-7.32 -35.06,-36.59 -57.42,-98.57 -22.76,-237.61 -36.28,-346.15 -59.99,-130.11 -210.85,-92.14 -337.52,-53.27 -58.61,18 -124.73,37.35 -189.59,52.81 -68.26,16.25 -132.6,16.53 -200.1,40.2l-387.25 21.7c-6.8,190.34 59.21,350.97 89.75,530.33 14.37,84.28 55.93,157.08 73.58,244.88 31,154.26 63.88,190.31 71.51,232.66 56.61,51.25 109.22,228.09 1.59,261.62 -65.64,20.45 -117.33,-5.39 -148.47,-36.24 -40.05,-39.67 -32.06,-61.54 -100.44,-89.46 -107.15,-43.73 -230.48,15.25 -281.98,76.3 -76.26,90.41 -64.88,174.75 -60.44,321.27 64.97,130.6 111.31,201.11 270.52,247.45 56.04,16.31 173.8,28.73 235.11,18.79 82.63,-13.37 100.24,-48.18 183.59,-68.57 33.4,-65.78 64.08,-38.82 119.91,-140.57 25.06,-45.64 44.22,-121.31 60.5,-181.03 20.29,-74.34 41.54,-122.03 109.55,-142.73 47.94,-14.55 175.36,-22.39 207.59,-4.81 140.2,12.82 286.62,164.05 305.56,273.28 22.96,7.27 10.52,-0.32 23.08,31.46 2.66,6.71 12.25,44.98 14.26,53.8 9.02,39.42 15.76,66.94 11.44,106.4 27,47.48 16.02,159.57 8.04,208.48 -13.28,81.39 -31.09,109.54 -56.79,178.53l-13.09 45.23c190.02,-26.33 733.32,-383.09 854.85,-480.76 179.22,-144.06 431.82,-396.93 579.92,-578.96 34.93,-42.94 42.35,-70.08 83.5,-99.63 18.13,-34.4 51.28,-65.58 77.02,-96.76l133.03 -225.18c6.34,-18.42 230.35,-421.82 268.83,-574.41l118.67 -350.48c1.23,-2.59 3.31,-5.8 4.56,-8.24l9.47 -14.4c8.07,-18.06 3.19,3.69 5.19,-20.68 4.76,-57.16 66.42,38.44 -5.21,-15.33 -95.06,-1.91 -284.73,59.5 -373.95,85 -62.56,17.9 -112.34,49.45 -171.4,61.38 -88.52,17.89 -137.67,-20.02 -187.13,-34.64 -41.47,-7.34 -109.4,-56.79 -135.22,-89.27 -25.82,-32.48 -53.7,-119.34 -55.34,-159.53 -12.6,-309.94 313.48,-302.77 243.67,-583.57 -11.5,-46.27 -156.68,-216.38 -182.18,-239.72 -65.84,-70.36 -502.15,-211.39 -706.4,192.49 -71.98,142.33 -55.56,305.78 2.3,442.74 82.05,194.19 416.52,369.09 410.27,659.83 -4.12,191.67 -72.58,271.56 -177.17,356.44 -159.19,129.19 -412.51,195.03 -612.07,65.12 -53.77,-35 -116.84,-73.78 -123.8,-137.24z"/>
    <path class="fil2" d="M3520.39 1591.72c-12.11,73.41 -50.3,137.21 -151.52,112.48 -99.23,-24.23 -126.14,-95.74 -151.16,-136.11 -60.83,-98.13 -265.54,-140.11 -422.74,-91.74 -232.17,71.43 -429.17,399.71 -340.13,719.94l-5.01 -98.51c72.46,47.88 90.87,114.12 207.04,147.7 107.36,31.04 205.09,16.07 281.19,-31.29 127.78,-79.53 275.68,-243.49 507.83,-172.01 304.67,93.78 442.76,452.27 308.52,645.81 -60.5,87.24 -106.58,118.94 -236.44,117.99l-0.8 -47.65c-14.18,93.36 -39.22,168.76 -64.89,251.48 -27.86,89.89 -34.77,181.28 -55.21,276.06 67.65,-6.88 49.53,-10.61 130.38,-38.44 230.33,-79.32 366.16,-161.66 542.22,-232.17l352.18 -233.5c208.18,-149.07 611.44,-560.86 661.27,-884.78 16.37,-141.29 48.6,-164.49 35.42,-335.7 -45.41,-590.34 -369.86,-987.73 -790.64,-1356.78 -15.55,-13.65 -36.51,-29.5 -50.95,-38.46l-148.12 -89.06 -59.26 -21.09c-169.82,-33.8 -336.38,-44.28 -512.95,-52.03 -7.58,93.5 14.86,304.4 27.34,407.23 26.97,222.18 0.44,581.35 -13.75,806.29 -5.08,80.5 -4.4,129.28 -14.61,202.38l-35.21 171.95z"/>
    <path class="fil3" d="M5083.12 1896.99c-49.82,323.92 -453.08,735.71 -661.27,884.78l-352.18 233.5c-176.05,70.51 -311.89,152.85 -542.22,232.17 -80.85,27.83 -62.73,31.57 -130.38,38.44 -16.02,60.93 -41.43,205.12 -49.97,255l-7.66 -57.16c-27.71,71.13 -15.59,334.12 -22.56,434.52l387.25 -21.7c-2.7,-3.42 -10.41,-11.07 -9.97,-8.39l124.04 -46.33c-95.77,-2.71 -303.31,54.72 -376.67,29.56 -48.89,-16.76 -21.2,23.72 -34.4,-34.41 -6.52,5.42 -1.73,21.61 -42.39,36.14 -59.35,-478.66 67.99,-345.24 384.67,-399.25 48.11,-8.22 147.63,-26.56 190.91,-43.45 65.89,-25.73 73.87,-46.85 176.94,-49.64 129.17,-3.49 320.45,-7.73 413.34,48.06 121.88,73.21 105.08,242.57 73.61,341.87 20.61,55.18 -51,142.53 -70.24,193.25 -42.55,112.22 -20.19,167.46 -31.27,275.57 6.95,63.47 70.02,102.25 123.8,137.24 199.56,129.91 452.88,64.07 612.07,-65.12 104.59,-84.88 173.05,-164.76 177.17,-356.44 6.25,-290.74 -328.23,-465.64 -410.27,-659.83 -57.86,-136.97 -74.28,-300.41 -2.3,-442.74 204.25,-403.87 640.56,-262.85 706.4,-192.49 73.9,37.2 158.29,124.39 196.74,204.49 31.98,66.59 51.25,265.71 20.25,346.44 -10.87,125.89 -121.82,252.23 -69.3,405.48 59.7,174.12 179.56,77.25 306.45,39.33 63.93,-19.11 124.42,-24.75 197.3,-45.06 124.68,-34.8 501.06,-145.07 604.74,-138.58l-37.77 -65.96c-4.67,-16.62 -2.16,-6.23 -4.14,-23.19 -3.25,-28.01 1.15,-73.13 1.41,-103.64 1.36,-161.79 -38.15,-399.32 -67.28,-553.77 -19.74,-104.74 -79.82,-200.82 -125.76,-294.09 -137.04,-278.27 -397.85,-245.28 -490.82,-345.47 -208.6,-224.79 -191.31,-289.42 -286.02,-452.53 -51.72,-89.04 -183.99,-127.47 -254.33,-165.59 -25.26,-13.71 -37.66,-26.57 -59.21,-41.58 -44.68,47.66 -51.92,49.25 -107.21,87.88 -79.63,55.64 -7.26,255.85 -140.75,254.54 -143.64,-1.41 -111.79,-12.99 -105.1,58.43 -131.9,-10.25 9.33,18.06 -141.12,-13.26l-51.06 66.82c-1.23,1.5 -5.57,10.08 -6.52,7.81 -1,-2.39 -4.46,5.71 -6.94,8.32z"/>
    <path class="fil4" d="M342.46 3168.04c59.52,73.09 -12.74,437.99 452.42,417.55 293.42,-12.93 385.55,-170.16 671.53,104.7 237.62,228.39 -74.11,384.11 -49.96,646.46 12.22,132.85 99.63,187.81 243.24,195.46 150.41,7.99 285.62,2.11 357.99,-91.57 61.98,-80.24 64.07,-264.53 12.82,-347.91 -53.21,-86.55 -155.74,-163.89 -50.27,-315.01 70.1,-100.45 444.09,-216.78 586.95,-292.79 286.28,-152.33 519.69,-335.18 740.49,-568.42 54.6,-57.69 97.93,-85.45 135.53,-169.19 23.45,-52.18 10.38,-51.2 53.42,-71.92l10.74 -66.01c-19.82,-148.78 -168.39,-176.62 -268.47,-106.32 -96.01,67.45 -150.6,135.24 -318.46,130.41 -234.31,-6.72 -407.52,-223.93 -465.59,-437.18 -89.04,-320.23 107.96,-648.51 340.13,-719.94 157.2,-48.37 361.91,-6.39 422.74,91.74 25.03,40.37 51.94,111.88 151.16,136.11 101.22,24.73 139.4,-39.07 151.52,-112.48 20.25,-253.7 36.19,-176.7 32.29,-464.22 -1.88,-138.48 24.8,-304.99 8.55,-457.95 -202.85,47.78 -423.87,212.03 -597.97,323.53 -130.93,83.84 -394.74,327.42 -483.94,431.85 -338.78,396.67 -501.78,661.97 -697.38,1136.25 -189.06,458.43 -161.18,565.37 -158.73,1051.23 -35.7,-27.64 -33.19,-52.72 -58.57,-97.32l-175.82 -270.04c-145.18,-183.45 -497.79,-490.73 -769.71,-394.16 -140.44,49.88 -233.26,181.2 -276.65,317.15z"/>
    <path class="fil5" d="M604.83 3868.21c-28.62,69.15 -10.34,12.18 11.21,35.67 43.53,-3.08 39.65,-7.75 63.73,-12.73l-141.27 28.12c20.12,7.66 32.39,9.33 53.88,19.71 -2.42,164.37 -13.34,21.37 18.93,135.7 90.64,321.14 134.47,476.01 313.4,767.97l167.63 265.99c14.78,22.1 24.5,44.02 38.32,64.11l97.85 117.85c24.92,29.36 28.21,37.39 48.38,66.56 89.15,129.03 515.15,553.58 651.43,647.14 257.73,176.96 259.84,188.75 589.1,266.78 105.83,25.09 404.21,13.42 512.21,-13.08l265.42 -66.88c146.26,-55.12 244.88,-213.48 394.77,-257.76 74.19,-21.92 253.53,-89.61 297.64,-131.82 111.57,-106.86 234.88,-114.1 281.7,-341.64 -1.73,-64.05 -10.87,-198.26 -50.46,-227.85 -0.86,-0.66 -24.9,-11.33 -31.93,-15.53 -32.84,-19.59 -19.05,-7.61 -38.03,-28.35 -32.22,-17.58 -159.65,-9.74 -207.59,4.81 -68.02,20.69 -89.26,68.38 -109.55,142.73 -16.28,59.72 -35.44,135.39 -60.5,181.03 -55.83,101.74 -86.5,74.79 -119.91,140.57 -14.58,28.7 -0.02,5.96 -31.46,22.64 -11.53,6.11 -23.69,11.88 -34.64,17.17 -103.07,49.68 -130.63,-1.21 -249.95,84.79 -83.52,60.21 -442.13,-71.54 -502.53,-109.66 -325.87,-205.66 -281.85,-433.4 -151.26,-762.84l138.73 -293.88c97.45,-220.12 214.92,-410.86 221,-661.65 -94.94,3.23 -56.35,-16.72 -132.43,-28.5l-429.37 -35.59c-100.47,-13.37 -185.36,-36.02 -252.08,34.03 -85.8,90.1 -25.16,113.96 -27.08,224.4 7.52,40.49 47.94,69.92 65.96,178.73 34.84,210.42 -50.92,420.87 -216.62,499.38 -260.12,123.24 -534.97,124.44 -742.1,-73.01 -343.47,-327.48 -37.84,-614.77 -17.7,-686.9 89.57,-320.89 -489.1,-239.28 -684.84,-198.2z"/>
    <path class="fil6" d="M42.81 3982.43c30.16,165.71 57.98,334.84 103.44,481.08 16.39,52.65 44.58,174.51 66.91,227.88 29.61,70.8 61.91,137.4 92.4,210.57 46.8,112.28 250.67,477.29 320.83,569.89l89.23 138.42c25.9,47.98 2.36,20.89 42.16,43.42 -2.66,-62.3 -21.4,-171.34 53.71,-137.81 30.6,13.68 30.43,39.12 44.64,58.58 22.58,30.95 24.47,17.51 52.24,49.18 32.22,36.76 27.19,94.6 166.82,138.1 35.95,11.2 15.35,7.43 29.79,2.13 2.97,-1.1 11.04,-6.82 13.95,-8.87l15.65 -14.09c2.01,-1.73 5.21,-5.65 8.21,-8.01 4.9,71 17.52,16.56 58.81,81.91 11.7,18.52 13.48,26.62 25.88,36.05 46.08,35.07 23.2,-27.19 65.26,52.59 20.58,39.07 8.19,39.58 39.39,73.33l82.92 81.46c54.49,37.69 61.92,25.55 148.01,158.53 26.57,41.06 15.5,30.65 49.01,66.01l286.85 399.57c126.77,198.57 226.56,265.53 346.5,405.92 34.03,39.84 64.4,50.88 99.95,78.17 29.85,22.93 41.83,38.38 67.56,59.3 40.39,32.82 89.58,62.55 135.13,94.57 63.87,44.94 413.09,250.93 457.8,208.61 22.62,-26.19 13.78,-8.48 16.76,-58.72 1.35,-22.88 -2.48,-55.47 0.51,-77.36 8.12,-59.29 29.94,-36.6 47,-115.71 43.13,-200.13 7.92,-150.32 113.78,-202.53 1.72,-64.03 -5.12,-135.54 13.98,-181.35 73.09,79.44 64.37,367.39 114.22,431.33 0.75,0.95 3.25,3.32 4.09,4.17l28.53 21.5c23.43,26.28 35.5,67.99 54.66,99.32 43.85,71.68 153.26,194.75 204.62,149.37 22.91,-20.26 7.03,-14.67 9.99,-62.27 -3.97,-46.31 -60.22,-231.83 -79.46,-302.07 -23.13,-84.45 -69.13,-195.69 -72.29,-282.22 -46.25,-41.81 -38.44,-73.62 -48.14,-140.28 -7.76,-53.5 -14.46,-102.49 -15.99,-157.69 -2.51,-90.3 -7.24,-242.75 9.36,-327.63 23.66,-120.98 60.68,-144.41 153.32,-189.84 105.26,-51.61 178.12,-8.7 250.03,46.99 205.29,158.98 630.83,9.33 692.25,-530.87 4.32,-39.45 -2.42,-66.98 -11.44,-106.4 -2.01,-8.82 -11.59,-47.1 -14.26,-53.8 -12.56,-31.78 -0.12,-24.18 -23.08,-31.46 -35.93,14.08 -6.71,0.9 -27.86,14.99l-48.2 -32.56 -18.52 64.25c-17.98,-17.81 -4.3,-6.26 -15.71,-22.74 -2.01,-2.88 -7.69,-12.33 -9.74,-15.01 -18.76,-24.34 7.52,-11.21 -23.77,-22.65 -0.96,47.78 5.19,30.42 -20.23,62.17l-21.1 -49.99c-46.82,227.54 -170.13,234.79 -281.7,341.64 -44.11,42.21 -223.45,109.9 -297.64,131.82 -149.89,44.28 -248.51,202.64 -394.77,257.76l-265.42 66.88c-108.01,26.5 -406.38,38.17 -512.21,13.08 -329.25,-78.03 -331.37,-89.83 -589.1,-266.78 -136.28,-93.56 -562.28,-518.11 -651.43,-647.14 -20.17,-29.18 -23.46,-37.2 -48.38,-66.56l-97.85 -117.85c-13.81,-20.09 -23.54,-42.01 -38.32,-64.11l-167.63 -265.99c-178.93,-291.96 -222.77,-446.83 -313.4,-767.97 -32.27,-114.33 -21.35,28.67 -18.93,-135.7 -21.49,-10.38 -33.76,-12.05 -53.88,-19.71l141.27 -28.12c-24.08,4.98 -20.2,9.65 -63.73,12.73 -21.55,-23.49 -39.84,33.48 -11.21,-35.67l-562.02 114.22z"/>
    <path class="fil7" d="M342.46 3168.04c-38.87,49.7 -55,110.79 -93.67,165.48 -93.33,131.93 -118.21,203.04 -183.62,338.05 -56.62,116.87 -33.1,83.03 -31.64,215.75l9.28 95.11 562.02 -114.22c195.73,-41.08 774.4,-122.69 684.84,198.2 -20.14,72.14 -325.76,359.43 17.7,686.9 207.13,197.45 481.98,196.25 742.1,73.01 165.7,-78.51 251.47,-288.96 216.62,-499.38 -18.03,-108.82 -58.44,-138.24 -65.96,-178.73 -40.57,-27.11 -53.31,-34.38 -58.06,-116.92 -9.27,-160.57 139.72,-192.62 282.65,-186.76l575.83 60.25c140.2,35 175.95,15.76 316.33,13.46 6.97,-100.39 -5.15,-363.39 22.56,-434.52 3.66,-152.21 26.02,-288.87 55.99,-427.21 30,-138.41 84.77,-259.06 101.19,-381.13 -43.04,20.72 -29.97,19.74 -53.42,71.92 -37.6,83.75 -80.93,111.5 -135.53,169.19 -220.8,233.24 -454.21,416.09 -740.49,568.42 -142.86,76.01 -516.85,192.33 -586.95,292.79 -105.48,151.12 -2.94,228.46 50.27,315.01 51.25,83.38 49.16,267.67 -12.82,347.91 -72.37,93.69 -207.57,99.57 -357.99,91.57 -143.61,-7.64 -231.02,-62.61 -243.24,-195.46 -24.15,-262.34 287.58,-418.07 49.96,-646.46 -285.97,-274.85 -378.11,-117.62 -671.53,-104.7 -465.16,20.45 -392.91,-344.46 -452.42,-417.55z"/>
    <path class="fil8" d="M5628.4 5700.38l-421.94 374.22c-80.01,62.33 -140.11,121.51 -223.97,182.79 -43.56,31.84 -71.51,57.94 -119.29,82.57 -49.13,25.33 -85.4,45.78 -122.2,71.68 -165.82,116.64 -350.94,176.37 -551.01,248.33 -138.39,49.79 -547.47,57.11 -721.61,76.46 -27.2,-48.11 -24.55,-95.66 -24.69,-161.96 -23.95,41.18 -19.76,81.51 -1.1,180.05 10.06,53.16 16.74,135.28 19.68,197.91 3.16,86.53 49.16,197.77 72.29,282.22 19.24,70.24 75.49,255.75 79.46,302.07 20.32,18.06 2.36,-6.11 24.03,28.92 5.64,9.13 17.77,37.83 20.25,44.87 10.63,30.17 14.15,62.98 25.5,87.54 74.77,44.45 275.7,-38.61 356.75,-65.96 176.45,-59.49 159.7,-60.45 311.61,-136.97 99.15,-34.29 391.57,-176.48 449.71,-233.09l134.69 -120.33c22.38,-19.16 26.01,-21.76 49.64,-39.87 57.05,-43.71 134.64,-119.51 203.64,-141.79 -3.14,16.22 20.35,-13.8 -17.02,-7.44l-28.3 19.02c-1.64,1.35 -4.96,5.13 -8.01,6.88l-42.81 -110.47c1.87,-41.44 13.86,-37.75 15.73,-152.1l67.83 -46.13c1.64,-1.15 4.67,-3.52 6.26,-4.59 1.47,-1 4.56,-3.09 6.03,-3.98 32.51,-20.03 44.52,-12.04 81.88,-49.73l56.25 -94.53c40.42,-74.57 163.46,-175.75 191.28,-237.68 21.01,-46.73 71.03,-104.38 113.4,-135.83l18.99 -11.17c42.12,-33.6 -13.92,36.51 10.97,-12.28 11.13,-21.89 7.84,-65.08 77.24,-100.18l13.74 -5.65c26.11,-14.5 9.6,-22.59 54.26,-64.85 32.64,-30.88 62.7,-24.75 49.5,-61.09 -6.97,-19.16 -14.35,-7.81 -24.54,-40.37 23.22,-11.92 21.44,-10.52 34.95,-24.67 1,-1.04 3.22,-3.91 4.23,-5.02l31.11 -39.21c17.25,-39.47 2.7,-29.28 7.17,-54.28 6.74,-37.69 14.32,-29.31 25.79,-48.44 -11.41,-6.02 -17.69,-6.63 -19.02,-7.14l-12.36 -5.07c-1.39,-0.49 -4.89,-1.96 -6.37,-2.39 -28.72,-7.93 12.37,-13.92 -47.65,-0.89 0.21,-60.31 15.12,-92.72 25.33,-142.01 -102.63,15.78 -75.58,24.43 -138.61,80.8 -28.78,25.76 -24.8,17.46 -50.88,51.26 -32.88,42.62 -8.12,26.4 -57.79,49.59z"/>
    <path class="fil9" d="M4352.13 7495.1c-151.92,76.52 -135.16,77.48 -311.61,136.97 -81.05,27.35 -281.98,110.41 -356.75,65.96 -0.74,53.9 -18.39,50.27 -83.22,57.57 -226.81,25.49 -639.1,2.7 -858.3,-43.97 -149.14,-31.75 -297.7,-56.7 -434.64,-100.47 -137.09,-43.79 -250.46,-98.65 -380.53,-140.78 20.77,170.43 96.23,385.75 105.89,597.11 3.98,87.04 -23,154.86 40.53,198.95 81.63,33.1 1788.6,-157.75 2004.9,-190.91 247.76,-37.97 727.83,-67.6 886.89,-204.22 86.53,-74.34 95.45,-387.38 196.18,-632.69 24.81,-60.4 54.83,-142.02 67.45,-208.97 -30.03,-28.85 4.59,-14.24 -30.6,-7.03 -26.48,5.45 -45.44,33.17 -72.93,52.84 -44.46,31.84 -64.2,24.44 -108.89,57.28 -206.07,151.41 -392.42,289.89 -664.36,362.35z"/>
    <path class="fil10" d="M5083.12 1896.99c2.48,-2.6 5.94,-10.71 6.94,-8.32 0.95,2.27 5.3,-6.31 6.52,-7.81l51.06 -66.82c150.44,31.32 9.22,3.02 141.12,13.26 -6.69,-71.42 -38.55,-59.84 105.1,-58.43 133.49,1.3 61.12,-198.9 140.75,-254.54 55.29,-38.63 62.53,-40.22 107.21,-87.88 21.55,15.01 33.95,27.87 59.21,41.58 70.34,38.12 202.61,76.55 254.33,165.59 94.71,163.11 77.42,227.74 286.02,452.53 92.97,100.19 353.77,67.2 490.82,345.47 45.93,93.27 106.01,189.35 125.76,294.09 29.13,154.44 68.64,391.97 67.28,553.77 -0.26,30.51 -4.66,75.63 -1.41,103.64 1.98,16.95 -0.54,6.57 4.14,23.19l37.77 65.96c-8.38,24.86 2.44,21.9 -17.81,17.64l21.06 0.03c46.96,-64.88 -2.45,-250.81 -12.24,-337.72 -13.28,-117.78 -7.43,-247.94 -29.99,-361.55 -35.3,-177.78 -130.72,-460.14 -202.5,-589.83 -95.74,-172.96 -168.61,-346.78 -270.63,-517.18 -58.26,-97.32 -108.48,-137.9 -173,-222.05 -31.09,-40.59 -40.92,-82.06 -69.27,-123.05 -19.94,-28.84 -64.13,-81.69 -90.06,-112.91l-392.46 -384.45c-235.84,-218.68 -675.14,-470.92 -988.24,-590.6 -106.78,-40.8 -493.08,-185.84 -611.75,-173.62l148.12 89.06c14.44,8.96 35.41,24.81 50.95,38.46 420.78,369.04 745.23,766.44 790.64,1356.78 13.17,171.21 -19.05,194.42 -35.42,335.7z"/>
    <path class="fil9" d="M2429.74 9313.02c26.83,190.72 226.15,360.18 384.07,427.3 62.82,26.71 152.5,29.15 208.2,58.03 69.12,54.34 47.98,402.39 484.74,408.93 123.28,1.85 236.46,-58.34 320.19,-125.27 123.73,-98.91 89.8,-141.19 154.63,-291.09 181.2,-41.57 314.95,-94.11 421.24,-190.1 38.72,-34.95 101.04,-111.47 131.19,-174.09 68.58,-142.4 6.69,-99.09 154.18,-164.84 120.37,-53.68 336.62,-131.87 308.79,-301.15 -30.98,-188.47 -232.6,-34.43 -417.79,26.45 -453.97,149.28 -1075.78,223.53 -1570.6,273.46 -175.67,17.72 -407.78,56.56 -578.84,52.36z"/>
    <path class="fil11" d="M757.78 5653.7c12.27,37.65 46.21,70.3 69.09,102.69 153.23,217.04 366.64,446.51 570.12,741.18 325.49,471.31 297.24,466.3 530.09,972.81 130.08,42.13 243.44,96.99 380.53,140.78 136.94,43.77 285.5,68.72 434.64,100.47 219.2,46.67 631.49,69.46 858.3,43.97 64.83,-7.31 82.49,-3.68 83.22,-57.57 -11.35,-24.57 -14.87,-57.37 -25.5,-87.54 -2.48,-7.05 -14.61,-35.75 -20.25,-44.87 -21.67,-35.03 -3.71,-10.86 -24.03,-28.92 -2.96,47.6 12.93,42.01 -9.99,62.27 -51.35,45.38 -160.77,-77.7 -204.62,-149.37 -19.16,-31.34 -31.23,-73.04 -54.66,-99.32l-28.53 -21.5c-0.84,-0.84 -3.34,-3.22 -4.09,-4.17 -49.85,-63.94 -41.14,-351.89 -114.22,-431.33 -19.1,45.81 -12.27,117.32 -13.98,181.35 -105.86,52.21 -70.65,2.4 -113.78,202.53 -17.06,79.1 -38.89,56.42 -47,115.71 -2.99,21.89 0.84,54.48 -0.51,77.36 -2.97,50.24 5.87,32.53 -16.76,58.72 -44.71,42.32 -393.93,-163.68 -457.8,-208.61 -45.55,-32.02 -94.74,-61.75 -135.13,-94.57 -25.73,-20.92 -37.71,-36.37 -67.56,-59.3 -35.55,-27.29 -65.92,-38.33 -99.95,-78.17 -119.94,-140.4 -219.73,-207.36 -346.5,-405.92l-286.85 -399.57c-33.51,-35.36 -22.44,-24.95 -49.01,-66.01 -86.09,-132.99 -93.52,-120.84 -148.01,-158.53l-82.92 -81.46c-31.2,-33.76 -18.81,-34.26 -39.39,-73.33 -42.06,-79.78 -19.18,-17.52 -65.26,-52.59 -12.41,-9.43 -14.18,-17.54 -25.88,-36.05 -41.29,-65.35 -53.91,-10.9 -58.81,-81.91 -3,2.36 -6.2,6.28 -8.21,8.01l-15.65 14.09c-2.91,2.05 -10.98,7.76 -13.95,8.87 -14.44,5.3 6.16,9.07 -29.79,-2.13 -139.63,-43.5 -134.59,-101.34 -166.82,-138.1 -27.77,-31.67 -29.67,-18.23 -52.24,-49.18 -14.21,-19.47 -14.04,-44.91 -44.64,-58.58 -75.11,-33.53 -56.38,75.51 -53.71,137.81z"/>
    <path class="fil12" d="M5959.52 4925.99c-41.15,29.54 -48.57,56.68 -83.5,99.63 -148.1,182.03 -400.7,434.9 -579.92,578.96 -121.53,97.67 -664.83,454.43 -854.85,480.76l13.09 -45.23c-19.65,22.99 -27.66,38.69 -46.5,63.33 -22.91,30 -28.98,34.38 -55.73,59.58 -126.2,118.82 -303.08,214.63 -489.96,134.67 -123.31,-52.75 -171.87,-151.16 -312.82,-58.54 -91.31,60.01 -115.8,223.71 -105.65,335.3 0.14,66.3 -2.51,113.86 24.69,161.96 174.14,-19.34 583.22,-26.66 721.61,-76.46 200.07,-71.95 385.19,-131.68 551.01,-248.33 36.8,-25.9 73.07,-46.34 122.2,-71.68 47.78,-24.63 75.74,-50.73 119.29,-82.57 83.87,-61.28 143.97,-120.46 223.97,-182.79l421.94 -374.22c28.49,-72.61 137.21,-145.41 198.23,-252.58 35.75,-62.78 47.55,-22.8 119.66,-109.11 36.31,-43.47 62.72,-69.59 109.52,-109.14 70.64,-59.73 46.39,-59.35 83.07,-143.42l127.12 -205.87c28.18,-35.64 15.53,-35.27 21.23,-63.77l73.51 -136.94c-61.26,2.68 -66.87,19.8 -142.27,23.23 -157.24,7.17 -96.09,81 -178.26,155.77 -28.04,25.5 -50.14,34.14 -80.7,67.43z"/>
    <path class="fil6" d="M3041.09 3953.87c-6.08,250.79 -123.55,441.53 -221,661.65l-138.73 293.88c-130.6,329.44 -174.61,557.18 151.26,762.84 60.4,38.12 419.02,169.87 502.53,109.66 119.32,-86 146.88,-35.1 249.95,-84.79 10.95,-5.28 23.11,-11.06 34.64,-17.17 31.44,-16.68 16.88,6.06 31.46,-22.64 -83.35,20.39 -100.96,55.2 -183.59,68.57 -61.31,9.94 -179.07,-2.48 -235.11,-18.79 -159.21,-46.34 -205.55,-116.86 -270.52,-247.45l-32.25 -68.15c-28.36,-124.68 -3.37,-280.64 105.8,-354.6 280.26,-189.82 318.3,19.99 409.23,61.83 51.26,23.59 103.1,-1.81 126.46,-34.49 33.86,-47.4 -0.44,-87.9 -19.51,-138.09 -7.63,-42.35 -40.51,-78.4 -71.51,-232.66 -17.64,-87.8 -59.21,-160.6 -73.58,-244.88 -30.54,-179.36 -96.55,-339.99 -89.75,-530.33 -140.38,2.3 -176.13,21.53 -316.33,-13.46l39.1 13.75 1.44 35.33z"/>
    <path class="fil9" d="M4879.53 8458.04c-83.79,25.26 -140.78,78.71 -328.69,130.96 -395.07,109.81 -1865.27,291.15 -2267.1,296.82 -78.39,1.12 -136.89,-40.71 -194.32,-18.44 -114.61,44.46 -92.17,232.84 43.89,280.21 148.12,51.55 2108.28,-202.95 2467.46,-291.03 555.99,-136.31 412.83,-438.97 278.76,-398.53z"/>
    <path class="fil9" d="M4847.69 8016.22c-264.32,81.39 -352.78,157.75 -702.8,218.14 -411.68,71.05 -1227.24,151.7 -1668.33,193.82 -70.45,6.72 -132.45,16.71 -205.09,19.01 -70.97,2.25 -146.51,-27.4 -200.37,6.52 -94.48,59.5 -73.56,260.29 98.19,267.23 174.02,7.01 1046.13,-97.67 1247.36,-130.86 390.72,-64.4 824.7,-92.29 1205.18,-196.91 102.32,-28.13 257.56,-79.47 318.92,-139.1 105.94,-102.95 37.98,-278.22 -93.06,-237.85z"/>
    <path class="fil13" d="M1874.37 10580.78c149.91,109.66 1301.23,151.87 1682.95,137.33 323.97,-12.34 534.42,12.48 933.93,-34.18 134.32,-15.68 466.94,-46.33 585.28,-77.85 57.49,-15.32 43.13,-9.05 63.21,-46.51 -484.4,-188.69 -2279.94,-160.87 -2962.35,-66.01l-241.08 39.53c-61.55,18.56 -43.89,7.61 -61.94,47.69z"/>
    <path class="fil3" d="M2454.84 2196.28c58.08,213.25 231.28,430.46 465.59,437.18 167.86,4.82 222.44,-62.96 318.46,-130.41 100.07,-70.3 248.65,-42.45 268.47,106.32 23.26,38.76 13.31,97.87 9.82,148.96l0.8 47.65c129.86,0.95 175.95,-30.75 236.44,-117.99 134.24,-193.54 -3.84,-552.03 -308.52,-645.81 -232.15,-71.48 -380.06,92.48 -507.83,172.01 -76.1,47.36 -173.83,62.33 -281.19,31.29 -116.17,-33.59 -134.58,-99.83 -207.04,-147.7l5.01 98.51z"/>
    <path class="fil14" d="M3704.13 3896.54c67.5,-23.68 131.84,-23.95 200.1,-40.2 64.86,-15.45 130.98,-34.81 189.59,-52.81 126.68,-38.87 277.53,-76.84 337.52,53.27 27.48,39.87 16.65,121.56 14.17,175.81l19.48 -33.86c57.36,-117.82 69.38,-115.89 139.2,-228.03 31.47,-99.31 48.27,-268.67 -73.61,-341.87 -92.89,-55.79 -284.17,-51.55 -413.34,-48.06 -103.07,2.79 -111.05,23.91 -176.94,49.64 -43.28,16.89 -142.8,35.23 -190.91,43.45 -316.68,54 -444.01,-79.41 -384.67,399.25 40.66,-14.53 35.87,-30.72 42.39,-36.14 13.2,58.14 -14.49,17.66 34.4,34.41 73.36,25.16 280.9,-32.27 376.67,-29.56l-124.04 46.33c-0.44,-2.68 7.27,4.98 9.97,8.39z"/>
    <path class="fil15" d="M5875.67 5518.72c-10.22,49.29 -25.12,81.69 -25.33,142.01 60.02,-13.03 18.93,-7.05 47.65,0.89 1.49,0.43 4.98,1.9 6.37,2.39l12.36 5.07c1.33,0.51 7.61,1.12 19.02,7.14 -11.47,19.13 -19.05,10.75 -25.79,48.44 -4.47,25 10.08,14.81 -7.17,54.28l-31.11 39.21c-1.01,1.12 -3.23,3.98 -4.23,5.02 -13.51,14.15 -11.73,12.76 -34.95,24.67 10.18,32.56 17.57,21.21 24.54,40.37 13.2,36.34 -16.86,30.22 -49.5,61.09 -44.66,42.26 -28.15,50.34 -54.26,64.85l-13.74 5.65c-69.39,35.1 -66.1,78.29 -77.24,100.18 -24.89,48.8 31.15,-21.32 -10.97,12.28l-18.99 11.17c-42.36,31.46 -92.38,89.11 -113.4,135.83 -27.81,61.94 -150.86,163.11 -191.28,237.68l-56.25 94.53c-37.35,37.69 -49.36,29.7 -81.88,49.73 -1.47,0.89 -4.56,2.99 -6.03,3.98 -1.59,1.07 -4.63,3.45 -6.26,4.59l-67.83 46.13c-1.87,114.35 -13.86,110.66 -15.73,152.1l42.81 110.47c3.05,-1.75 6.37,-5.53 8.01,-6.88l28.3 -19.02c37.37,-6.36 13.88,23.66 17.02,7.44 -69,22.28 -146.59,98.08 -203.64,141.79 -23.63,18.1 -27.26,20.71 -49.64,39.87l-134.69 120.33c-58.14,56.61 -350.56,198.8 -449.71,233.09 271.94,-72.46 458.29,-210.94 664.36,-362.35 44.69,-32.84 64.43,-25.44 108.89,-57.28 27.49,-19.67 46.45,-47.39 72.93,-52.84 35.2,-7.21 0.57,-21.82 30.6,7.03l229.03 -333.82c52.69,-112.88 141.65,-189.47 220.79,-338.8 44.32,-83.65 68.03,-105.23 111.85,-169.56 33.17,-48.72 72.79,-115.02 109.57,-170.75l243.93 -336.15 -24.15 -6.66c22.94,-57.91 51.22,-70.93 77.37,-124.32 8.88,-18.13 19.68,-50.39 31.99,-68.97 21.67,-32.65 2.91,-3.54 24.31,-10.46 43.51,-151.88 17.48,-132.07 38.12,-182.03l24.46 -50.2c25.79,-83.21 36.54,-69.58 30.95,-104.02 -6.77,-41.57 -11.21,36.16 -9.33,-41.37 1.67,-68.48 77.11,-142.3 95.55,-186.8 9.02,-21.79 14.32,-55.23 2.25,-75.77 -36.34,66.26 -95.65,107.21 -145.68,175.16 -55.83,75.84 -78.29,88.82 -127.07,178.67l-100.85 142.27c-14.55,17.08 -20.39,24.67 -34.86,41.17l-108.99 120.26c-2.22,2.21 -38.33,27.9 -42.5,31.2z"/>
    <path class="fil16" d="M413.28 2480.3c247.01,-681.82 772.87,-1206.79 1352.63,-1602.76 254.18,-173.57 700.66,-397.5 979.2,-496.68 70.96,-25.27 169.21,-47.69 225.32,-79.56 -372.96,-17.06 -1000.29,280.43 -1328.6,451.2 -183.17,95.28 -508.46,395.65 -643.25,541.51 -214.11,231.72 -465.36,631.35 -543.63,944.92 -20.52,82.17 -72.43,191.55 -41.67,241.37z"/>
    <path class="fil17" d="M6926.38 3523.64c-6.02,56.16 -5.19,25.71 -39.44,91.46l-42.88 107.81c-23.68,53.45 -215.47,221 -276.51,275.28l-93.52 109.09c-31.86,31.69 -0.58,12.62 -45.47,30.97 -2.24,-57.53 4.92,-57.85 9.85,-108.62 -38.49,152.59 -262.49,555.99 -268.83,574.41l-133.03 225.18c-25.75,31.18 -58.89,62.37 -77.02,96.76 30.55,-33.3 52.65,-41.93 80.7,-67.43 82.17,-74.77 21.01,-148.61 178.26,-155.77 75.4,-3.43 81,-20.55 142.27,-23.23 31.57,-32.1 61.78,-44.72 93.09,-82.17 37.23,-44.55 46.91,-55.38 94.8,-85.74 8.06,-75 88.54,-173.08 131.07,-223.16l132.37 -223.19c95.39,-202.99 118.21,-145.54 132.8,-403.47 8.39,-148.33 -0.29,-86.49 31.4,-139.14l-7.31 -32.73 -21.06 -0.03c-36.88,35 -15.44,12.42 -21.53,33.72z"/>
    <path class="fil18" d="M6547.68 4616.96c5.04,45.03 0.64,23.25 -25.45,73.36l-19.73 44.69c-12.94,27.11 -47.59,76.3 -66.88,94.99 12.07,20.54 6.77,53.97 -2.25,75.77 -18.44,44.51 -93.88,118.33 -95.55,186.8 -1.88,77.53 2.56,-0.2 9.33,41.37 5.59,34.44 -5.16,20.81 -30.95,104.02l-24.46 50.2c-20.65,49.96 5.39,30.14 -38.12,182.03 -21.4,6.92 -2.63,-22.19 -24.31,10.46 -12.31,18.58 -23.11,50.83 -31.99,68.97 -26.16,53.39 -54.43,66.41 -77.37,124.32l24.15 6.66 496.44 -718.29c40.16,-62.87 67.1,-132.07 108.6,-196.09 102.98,-158.9 177.69,-529.12 207.92,-718.48 -0.86,40.59 -10.43,53.3 -19.16,96.53 -49.65,-29.02 -6.43,-64.25 -77.01,-8.58 -19.89,15.68 -33.56,37.12 -48.73,57.11 -20.08,26.42 -26.4,42.42 -43.48,71.22 -39.94,67.33 -74.04,84.47 -117.13,203.21 -37.05,102.09 -61.84,40.14 -63.48,137 -10.48,8.76 -36.85,11.38 -40.37,12.73z"/>
    <path class="fil19" d="M3462.25 6952.41c-2.94,-62.63 -9.62,-144.75 -19.68,-197.91 -18.65,-98.54 -22.85,-138.87 1.1,-180.05 -10.15,-111.59 14.34,-275.3 105.65,-335.3 140.95,-92.63 189.51,5.79 312.82,58.54 186.88,79.96 363.76,-15.85 489.96,-134.67 26.76,-25.19 32.82,-29.57 55.73,-59.58 18.84,-24.64 26.85,-40.34 46.5,-63.33 25.7,-69 43.51,-97.15 56.79,-178.53 7.98,-48.9 18.96,-161 -8.04,-208.48 -61.42,540.2 -486.96,689.84 -692.25,530.87 -71.91,-55.69 -144.76,-98.6 -250.03,-46.99 -92.64,45.43 -129.66,68.86 -153.32,189.84 -16.6,84.88 -11.87,237.33 -9.36,327.63 1.53,55.2 8.22,104.19 15.99,157.69 9.69,66.65 1.88,98.46 48.14,140.28z"/>
    <path class="fil12" d="M6571.09 3620.51c71.63,53.77 9.97,-41.83 5.21,15.33 -2.01,24.37 2.88,2.62 -5.19,20.68l-9.47 14.4c-1.26,2.44 -3.34,5.65 -4.56,8.24l-118.67 350.48c-4.93,50.77 -12.08,51.09 -9.85,108.62 44.89,-18.35 13.62,0.72 45.47,-30.97l93.52 -109.09c61.03,-54.28 252.83,-221.83 276.51,-275.28l42.88 -107.81c34.25,-65.75 33.42,-35.3 39.44,-91.46l-355.29 96.87z"/>
    <path class="fil20" d="M6360.74 4679.55l-73.51 136.94c-5.7,28.5 6.95,28.13 -21.23,63.77l-127.12 205.87c-36.68,84.07 -12.44,83.68 -83.07,143.42 -46.8,39.54 -73.21,65.67 -109.52,109.14 -72.11,86.3 -83.91,46.33 -119.66,109.11 -61.02,107.18 -169.74,179.97 -198.23,252.58 49.67,-23.19 24.9,-6.97 57.79,-49.59 26.08,-33.8 22.1,-25.5 50.88,-51.26 63.02,-56.38 35.98,-65.03 138.61,-80.8 4.17,-3.29 40.28,-28.99 42.5,-31.2l108.99 -120.26c14.47,-16.49 20.31,-24.09 34.86,-41.17l100.85 -142.27c48.78,-89.86 71.25,-102.83 127.07,-178.67 50.04,-67.96 109.34,-108.91 145.68,-175.16 19.3,-18.69 53.94,-67.88 66.88,-94.99l19.73 -44.69c26.1,-50.11 30.49,-28.33 25.45,-73.36l0.95 -105.31c-47.89,30.36 -57.57,41.18 -94.8,85.74 -31.31,37.45 -61.52,50.07 -93.09,82.17z"/>
    <path class="fil12" d="M5838.62 3732.25c-50.11,-129.72 -73.01,-96.37 -15.7,-263.84 17.6,-51.37 28.46,-84.02 45.47,-131.94 14.73,-41.49 25.06,-100.13 58.15,-125.37 31,-80.73 11.73,-279.85 -20.25,-346.44 -38.46,-80.1 -122.85,-167.29 -196.74,-204.49 25.5,23.34 170.68,193.45 182.18,239.72 69.81,280.8 -256.28,273.63 -243.67,583.57 1.64,40.19 29.51,127.04 55.34,159.53 25.82,32.48 93.75,81.94 135.22,89.27z"/>
    <path class="fil21" d="M6548.63 4511.65l-0.95 105.31c3.52,-1.35 29.9,-3.97 40.37,-12.73 1.64,-96.86 26.43,-34.9 63.48,-137 43.1,-118.74 77.19,-135.88 117.13,-203.21 17.08,-28.79 23.4,-44.8 43.48,-71.22 15.18,-19.99 28.84,-41.43 48.73,-57.11 70.57,-55.67 27.35,-20.45 77.01,8.58 8.73,-43.24 18.3,-55.95 19.16,-96.53 36.18,-103.23 44.4,-421.91 19.22,-525.06 -31.69,52.65 -23,-9.19 -31.4,139.14 -14.6,257.93 -37.42,200.48 -132.8,403.47l-132.37 223.19c-42.53,50.08 -123.01,148.16 -131.07,223.16z"/>
    <path class="fil22" d="M5838.62 3732.25c49.45,14.63 98.6,52.53 187.13,34.64 59.06,-11.93 108.83,-43.48 171.4,-61.38 89.21,-25.5 278.88,-86.92 373.95,-85l355.29 -96.87c6.1,-21.3 -15.35,1.27 21.53,-33.72 20.25,4.26 9.43,7.21 17.81,-17.64 -103.67,-6.49 -480.05,103.78 -604.74,138.58 -72.87,20.31 -133.37,25.94 -197.3,45.06 -126.89,37.92 -246.75,134.79 -306.45,-39.33 -52.52,-153.25 58.43,-279.59 69.3,-405.48 -33.1,25.24 -43.42,83.88 -58.15,125.37 -17.02,47.92 -27.87,80.58 -45.47,131.94 -57.31,167.48 -34.41,134.12 15.7,263.84z"/>
    <path class="fil19" d="M2961.99 5459.62c-4.44,-146.52 -15.82,-230.87 60.44,-321.27 51.49,-61.05 174.83,-120.03 281.98,-76.3 68.38,27.92 60.39,49.79 100.44,89.46 31.14,30.85 82.83,56.68 148.47,36.24 107.62,-33.53 55.01,-210.37 -1.59,-261.62 19.07,50.19 53.37,90.68 19.51,138.09 -23.36,32.68 -75.2,58.08 -126.46,34.49 -90.93,-41.84 -128.97,-251.65 -409.23,-61.83 -109.17,73.96 -134.16,229.92 -105.8,354.6l32.25 68.15z"/>
    <path class="fil23" d="M2200.13 4148.21c1.91,-110.44 -58.72,-134.3 27.08,-224.4 66.71,-70.05 151.61,-47.4 252.08,-34.03l429.37 35.59c76.09,11.78 37.49,31.73 132.43,28.5l-1.44 -35.33 -39.1 -13.75 -575.83 -60.25c-142.92,-5.87 -291.91,26.19 -282.65,186.76 4.75,82.54 17.49,89.81 58.06,116.92z"/>
    <path class="fil24" d="M4269.17 5459.89l21.1 49.99c25.42,-31.75 19.27,-14.38 20.23,-62.17 31.29,11.44 5.01,-1.68 23.77,22.65 2.05,2.68 7.73,12.13 9.74,15.01 11.41,16.48 -2.27,4.93 15.71,22.74l18.52 -64.25 48.2 32.56c21.15,-14.09 -8.07,-0.92 27.86,-14.99 -18.95,-109.23 -165.36,-260.46 -305.56,-273.28 18.98,20.74 5.19,8.76 38.03,28.35 7.03,4.2 31.08,14.87 31.93,15.53 39.59,29.59 48.73,163.8 50.46,227.85z"/>
    <path class="fil25" d="M3496.62 2675.39c-16.42,122.07 -71.19,242.72 -101.19,381.13 -29.97,138.35 -52.33,275.01 -55.99,427.21l7.66 57.16c8.55,-49.88 33.95,-194.08 49.97,-255 20.45,-94.79 27.35,-186.18 55.21,-276.06 25.67,-82.72 50.71,-158.12 64.89,-251.48 3.49,-51.09 13.45,-110.2 -9.82,-148.96l-10.74 66.01z"/>
    <path class="fil26" d="M4431.35 3856.8c13.52,108.54 -21.14,247.58 36.28,346.15 17.05,29.27 6.13,20.71 35.06,36.59 11.09,-108.11 -11.27,-163.36 31.27,-275.57 19.24,-50.73 90.85,-138.07 70.24,-193.25 -69.82,112.14 -81.85,110.21 -139.2,228.03l-19.48 33.86c2.48,-54.25 13.31,-135.94 -14.17,-175.81z"/>
   </g>
   <g>
    <path class="fil27" d="M8218.35 7582.46l1074.74 0 146.88 409.09 -167.35 60.19c-28.38,-67.13 -61.46,-121.02 -99.29,-161.69 -37.81,-40.97 -79.73,-68.08 -125.43,-81.63 -45.7,-13.23 -99.28,-19.85 -160.11,-19.85l-196.67 0 0 323.37 63.97 0c47.91,0 80.38,-3.48 97.09,-10.72 16.69,-6.94 28.67,-18.29 35.93,-33.4 7.24,-15.13 11.03,-45.07 11.03,-90.15l0 -49.16 166.4 0 0 544.62 -166.4 0 0 -55.79c0,-37.81 -4.41,-65.55 -13.23,-82.89 -8.84,-17.34 -20.81,-29.31 -35.93,-35.3 -15.45,-6.29 -49.18,-9.45 -101.5,-9.45l-57.36 0 0 295.94c0,31.21 1.58,50.43 4.73,57.37 2.83,6.62 9.13,11.98 17.97,15.44 8.82,3.78 28.04,5.68 57.66,5.68l108.11 0c80.68,0 148.45,-11.67 203.91,-34.67 55.47,-23.33 104.96,-60.83 148.13,-112.2 43.5,-51.69 76.91,-113.15 100.23,-184.06l168.62 57.98 -168.93 479.07 -1113.2 0 0 -177.75 32.15 0c43.17,0 72.17,-3.16 86.99,-9.14 14.81,-6.31 25.21,-17.02 31.2,-32.47 3.16,-9.14 4.73,-35.3 4.73,-78.48l0 -702.2c0,-38.14 -2.53,-63.35 -7.89,-75.02 -5.04,-11.66 -13.23,-20.48 -24.58,-26.16 -11.03,-5.99 -32.78,-8.82 -65.24,-8.82l-57.36 0 0 -177.75zm1985.28 366.85l120.7 0 74.69 256.87 -173.97 70.28c-33.1,-52.95 -74.69,-94.56 -124.81,-124.81 -50.11,-30.26 -99.92,-45.4 -149.08,-45.4 -32.47,0 -56.73,5.36 -72.81,16.39 -16.07,10.72 -23.95,23.95 -23.95,39.09 0,12.6 5.68,24.58 17.03,35.3 11.33,11.03 34.98,22.7 70.59,34.67l253.4 90.45c45.07,15.76 87.94,35.93 129.23,59.88 41.29,23.95 72.17,53.25 92.66,87.93 20.48,34.67 30.89,75.32 30.89,121.97 0,83.21 -31.84,151.92 -95.81,205.18 -75.02,62.72 -168.62,93.92 -280.5,93.92 -95.81,0 -179.35,-23.95 -250.56,-71.54l-25.85 50.74 -122.6 0 -113.46 -301 173.97 -73.42c43.5,67.76 97.39,120.7 161.06,159.47 63.67,38.78 122.28,58 175.87,58 33.1,0 60.82,-7.57 83.52,-23 17.34,-12.3 25.85,-26.8 25.85,-43.5 0,-14.18 -6.63,-27.43 -20.17,-40.34 -13.25,-12.93 -42.87,-27.43 -88.57,-43.5l-199.19 -69.35c-110,-38.44 -184.69,-79.73 -224.4,-123.54 -39.71,-44.12 -59.56,-96.14 -59.56,-156.33 0,-77.22 30.89,-142.14 92.98,-195.11 70.91,-60.19 158.21,-90.13 261.9,-90.13 92.35,0 171.15,20.49 237.02,61.77l23.95 -40.97zm774.05 -315.81l0 315.81 296.89 0 0 196.67 -296.89 0 0 321.17c0,72.49 3.78,119.14 11.67,139.62 7.57,20.8 21.75,37.2 42.85,49.48 27.43,16.71 59.26,24.9 94.88,24.9 63.35,0 126.38,-20.49 189.1,-61.78l0 197.62c-53.59,25.21 -102.12,42.87 -145.3,53.27 -43.5,10.09 -90.45,15.13 -140.89,15.13 -57.36,0 -108.1,-7.26 -151.92,-21.75 -44.12,-14.5 -81.62,-34.98 -112.83,-61.78 -30.88,-26.79 -52.62,-55.15 -64.6,-85.4 -11.98,-30.26 -17.97,-73.76 -17.97,-131.12l0 -439.36 -136.16 0 0 -177.75c49.16,-16.08 91.08,-38.76 126.06,-68.4 34.67,-29.94 62.72,-65.55 84.16,-107.15 21.1,-41.92 35.61,-94.88 43.5,-159.17l177.43 0zm862.31 295.01l0 134.26c49.48,-52 92.35,-87.3 128.6,-105.89 35.92,-18.91 70.91,-28.36 104.31,-28.36 30.26,0 57.36,6.94 81,20.8 23.95,13.88 42.85,33.72 56.73,59.58 13.86,25.84 20.8,53.57 20.8,83.19 0,38.76 -12.93,73.76 -38.44,105.28 -25.53,31.2 -61.46,46.96 -107.79,46.96 -12.3,0 -23.33,-0.95 -33.1,-2.83 -9.47,-1.9 -29.64,-7.89 -60.51,-18.29 -16.08,-4.73 -29.31,-7.24 -39.71,-7.24 -16.08,0 -42.55,10.08 -79.75,30.25l0 359.93c0,30.57 2.21,50.43 6.94,59.56 4.41,9.47 11.98,16.08 22.07,20.49 10.4,4.1 32.78,6.31 67.13,6.31l40.02 0 0 177.75 -567.3 0 0 -177.75 47.28 0c34.03,0 55.15,-1.9 63.35,-5.68 8.52,-3.46 14.81,-10.08 18.91,-19.22 4.41,-9.14 6.62,-29.62 6.62,-61.46l0 -422.33 -136.16 0 0 -177.45c100.23,-6.31 204.23,-32.15 312.33,-77.85l86.67 0zm440.61 20.8l431.16 -7.57 0 597.26c0,42.55 2.53,70.59 7.87,84.77 5.36,14.2 14.83,25.53 29.01,34.67 13.86,8.82 31.5,13.23 52.62,13.23 30.89,0 63.67,-7.24 98.65,-22.05 13.55,-5.99 49.81,-27.74 108.74,-64.92l0 -359.93c0,-31.2 -2.53,-52.95 -7.57,-64.62 -4.73,-11.66 -11.98,-20.17 -21.12,-25.21 -9.13,-5.36 -27.09,-7.87 -53.9,-7.87l-53.57 0 0 -177.77 431.16 -7.57 0 658.72c0,34.35 1.88,55.78 5.99,64.92 3.78,8.82 10.08,15.13 18.9,19.22 8.84,4.1 29.94,5.99 63.04,5.99l48.23 0 0 179.65 -402.8 11.35 0 -109.69c-54.2,39.71 -108.74,69.35 -163.57,89.2 -54.85,19.86 -110,29.94 -165.47,29.94 -44.45,0 -85.09,-7.24 -122.6,-21.75 -37.19,-14.49 -68.4,-33.72 -93.61,-57.98 -25.53,-24.28 -44.12,-52.64 -56.42,-85.09 -12.28,-32.79 -18.59,-74.39 -18.59,-125.45l0 -379.78c0,-34.98 -1.88,-57.05 -5.99,-66.19 -4.09,-9.45 -10.71,-16.07 -19.85,-20.8 -9.47,-4.72 -28.99,-6.92 -59.26,-6.92l-51.06 0 0 -177.77zm1685.23 -315.81l0 315.81 296.89 0 0 196.67 -296.89 0 0 321.17c0,72.49 3.78,119.14 11.67,139.62 7.57,20.8 21.75,37.2 42.85,49.48 27.43,16.71 59.26,24.9 94.88,24.9 63.35,0 126.38,-20.49 189.1,-61.78l0 197.62c-53.59,25.21 -102.12,42.87 -145.3,53.27 -43.5,10.09 -90.45,15.13 -140.89,15.13 -57.36,0 -108.1,-7.26 -151.92,-21.75 -44.12,-14.5 -81.62,-34.98 -112.83,-61.78 -30.88,-26.79 -52.62,-55.15 -64.6,-85.4 -11.98,-30.26 -17.97,-73.76 -17.97,-131.12l0 -439.36 -136.16 0 0 -177.75c49.16,-16.08 91.08,-38.76 126.06,-68.4 34.67,-29.94 62.72,-65.55 84.16,-107.15 21.1,-41.92 35.61,-94.88 43.5,-159.17l177.43 0zm433.05 315.81l431.16 -7.57 0 597.26c0,42.55 2.53,70.59 7.87,84.77 5.36,14.2 14.83,25.53 29.01,34.67 13.86,8.82 31.5,13.23 52.62,13.23 30.89,0 63.67,-7.24 98.65,-22.05 13.55,-5.99 49.81,-27.74 108.74,-64.92l0 -359.93c0,-31.2 -2.53,-52.95 -7.57,-64.62 -4.73,-11.66 -11.98,-20.17 -21.12,-25.21 -9.13,-5.36 -27.09,-7.87 -53.9,-7.87l-53.57 0 0 -177.77 431.16 -7.57 0 658.72c0,34.35 1.88,55.78 5.99,64.92 3.78,8.82 10.08,15.13 18.9,19.22 8.84,4.1 29.94,5.99 63.04,5.99l48.23 0 0 179.65 -402.8 11.35 0 -109.69c-54.2,39.71 -108.74,69.35 -163.57,89.2 -54.85,19.86 -110,29.94 -165.47,29.94 -44.45,0 -85.09,-7.24 -122.6,-21.75 -37.19,-14.49 -68.4,-33.72 -93.61,-57.98 -25.53,-24.28 -44.12,-52.64 -56.42,-85.09 -12.28,-32.79 -18.59,-74.39 -18.59,-125.45l0 -379.78c0,-34.98 -1.88,-57.05 -5.99,-66.19 -4.09,-9.45 -10.71,-16.07 -19.85,-20.8 -9.47,-4.72 -28.99,-6.92 -59.26,-6.92l-51.06 0 0 -177.77zm1677.67 -20.8l0 134.26c49.48,-52 92.35,-87.3 128.6,-105.89 35.92,-18.91 70.91,-28.36 104.31,-28.36 30.26,0 57.36,6.94 81,20.8 23.95,13.88 42.85,33.72 56.73,59.58 13.86,25.84 20.8,53.57 20.8,83.19 0,38.76 -12.93,73.76 -38.44,105.28 -25.53,31.2 -61.46,46.96 -107.79,46.96 -12.3,0 -23.33,-0.95 -33.1,-2.83 -9.47,-1.9 -29.64,-7.89 -60.51,-18.29 -16.08,-4.73 -29.31,-7.24 -39.71,-7.24 -16.08,0 -42.55,10.08 -79.75,30.25l0 359.93c0,30.57 2.21,50.43 6.94,59.56 4.41,9.47 11.98,16.08 22.07,20.49 10.4,4.1 32.78,6.31 67.13,6.31l40.02 0 0 177.75 -567.3 0 0 -177.75 47.28 0c34.03,0 55.15,-1.9 63.35,-5.68 8.52,-3.46 14.81,-10.08 18.91,-19.22 4.41,-9.14 6.62,-29.62 6.62,-61.46l0 -422.33 -136.16 0 0 -177.45c100.23,-6.31 204.23,-32.15 312.33,-77.85l86.67 0zm1023.07 383.88l0 -67.77c0,-40.34 -3.48,-68.08 -10.09,-83.19 -6.94,-15.45 -19.22,-28.06 -37.19,-38.14 -17.97,-10.09 -40.34,-15.13 -66.82,-15.13 -20.48,0 -39.09,3.46 -55.78,10.08 -16.71,6.62 -29.94,15.13 -39.71,25.53 -10.09,10.4 -21.44,30.57 -34.35,60.51 -16.71,37.83 -36.56,64.92 -59.58,81.63 -23,16.39 -50.42,24.58 -81.62,24.58 -39.41,0 -71.86,-12.28 -97.09,-36.86 -25.21,-24.6 -37.81,-54.85 -37.81,-91.1 0,-40.97 12.93,-77.53 38.76,-109.35 34.67,-42.56 86.04,-77.22 154.44,-104.33 68.38,-26.79 145.28,-40.34 230.7,-40.34 85.74,0 158.53,13.86 218.74,41.29 59.88,27.74 101.8,60.82 125.43,98.95 23.63,38.46 35.61,97.09 35.61,175.56l0 329.35c0,40.66 2.21,66.52 6.63,77.85 4.09,11.35 13.54,21.44 27.74,29.94 14.18,8.52 29.93,12.93 47.26,12.93 17.34,0 40.66,-5.04 69.66,-14.81l0 180.91c-52.32,16.71 -102.74,24.9 -150.97,24.9 -56.73,0 -104.96,-9.14 -145.3,-27.74 -40.02,-18.59 -73.74,-46.33 -100.85,-83.52 -61.77,40.02 -117.56,68.71 -167.98,85.72 -50.11,17.02 -98.65,25.53 -145.62,25.53 -88.25,0 -159.47,-24.9 -214,-74.39 -54.2,-49.48 -81.31,-110.62 -81.31,-183.11 0,-41.29 9.45,-79.1 28.36,-113.46 18.91,-34.35 46.96,-64.62 84.16,-90.45 37.51,-25.85 95.17,-48.55 173.66,-68.72 78.16,-19.85 173.02,-34.35 284.92,-42.85zm0 153.17c-81,11.66 -138.36,23.63 -171.78,35.61 -33.4,11.98 -57.36,26.8 -71.54,45.07 -14.18,18.29 -21.43,36.88 -21.43,55.79 0,24.58 9.13,45.06 27.72,61.77 18.61,16.71 43.82,24.9 75.34,24.9 20.48,0 44.12,-5.36 71.23,-15.76 26.79,-10.4 57.04,-25.85 90.45,-46.02l0 -161.36zm1377.31 56.1l135.51 118.51c-72.49,87.61 -147.81,151.27 -225.97,190.99 -78.17,40.03 -161.69,59.88 -250.88,59.88 -142.77,0 -261.91,-46.33 -357.4,-138.99 -95.51,-92.66 -143.42,-205.49 -143.42,-338.49 0,-90.15 22.39,-172.73 66.82,-247.73 44.75,-74.69 105.91,-133.02 183.76,-174.61 77.83,-41.92 169.56,-62.72 275.45,-62.72 126.71,0 230.09,29.31 310.45,88.25 80.38,58.63 120.4,120.72 120.4,185.95 0,27.43 -6.29,52.32 -18.9,74.07 -12.62,22.07 -31.84,39.71 -57.68,53.27 -25.85,13.55 -53.27,20.17 -82.26,20.17 -23.33,0 -44.45,-4.72 -62.73,-13.86 -18.59,-9.14 -34.03,-20.8 -46.33,-34.98 -5.35,-5.99 -16.07,-24.9 -32.15,-56.74 -20.48,-39.71 -35.93,-66.18 -47.26,-79.1 -11.04,-12.93 -24.28,-22.7 -39.71,-29.62 -15.13,-7.26 -32.78,-10.72 -52.64,-10.72 -31.83,0 -62.41,10.09 -91.71,30.57 -29.31,20.49 -53.27,51.69 -72.18,93.29 -18.59,41.61 -28.04,87.94 -28.04,139.31 0,56.42 11.03,106.84 33.08,151.92 22.38,45.07 52.01,79.1 89.2,102.12 37.19,23.31 78.17,34.98 123.23,34.98 42.87,0 86.36,-11.67 130.17,-34.67 43.5,-23.33 90.78,-63.67 141.21,-121.02zm-321.49 348.58l0 84.16c27.11,-3.16 47.91,-4.73 62.73,-4.73 46.01,0 84.14,13.23 113.46,39.71 29.62,26.47 44.43,60.51 44.43,101.8 0,51.05 -19.85,93.92 -59.87,129.22 -40.03,34.98 -94.24,52.64 -162.31,52.64 -58.32,0 -104.01,-11.35 -136.8,-34.05 -33.08,-22.7 -49.47,-48.86 -49.47,-78.48 0,-20.17 5.99,-35.93 17.64,-47.59 11.66,-11.35 27.74,-17.03 48.54,-17.03 17.34,0 35.93,7.57 56.42,22.38 15.76,12.3 28.67,20.49 38.14,24.28 9.45,3.78 19.54,5.67 29.94,5.67 18.59,0 32.15,-4.72 41.6,-14.49 12.93,-13.88 19.22,-28.99 19.22,-45.4 0,-21.1 -9.45,-38.76 -28.04,-52.95 -18.91,-14.18 -46.65,-21.43 -83.84,-21.43 -18.29,0 -41.29,1.26 -68.4,3.78l17.66 -147.5 98.95 0zm1137.79 -557.85l0 -67.77c0,-40.34 -3.48,-68.08 -10.09,-83.19 -6.94,-15.45 -19.22,-28.06 -37.19,-38.14 -17.97,-10.09 -40.34,-15.13 -66.82,-15.13 -20.48,0 -39.09,3.46 -55.78,10.08 -16.71,6.62 -29.94,15.13 -39.71,25.53 -10.09,10.4 -21.44,30.57 -34.35,60.51 -16.71,37.83 -36.56,64.92 -59.58,81.63 -23,16.39 -50.42,24.58 -81.62,24.58 -39.41,0 -71.86,-12.28 -97.09,-36.86 -25.21,-24.6 -37.81,-54.85 -37.81,-91.1 0,-40.97 12.93,-77.53 38.76,-109.35 34.67,-42.56 86.04,-77.22 154.44,-104.33 68.38,-26.79 145.28,-40.34 230.7,-40.34 85.74,0 158.53,13.86 218.74,41.29 59.88,27.74 101.8,60.82 125.43,98.95 23.63,38.46 35.61,97.09 35.61,175.56l0 329.35c0,40.66 2.21,66.52 6.63,77.85 4.09,11.35 13.54,21.44 27.74,29.94 14.18,8.52 29.93,12.93 47.26,12.93 17.34,0 40.66,-5.04 69.66,-14.81l0 180.91c-52.32,16.71 -102.74,24.9 -150.97,24.9 -56.73,0 -104.96,-9.14 -145.3,-27.74 -40.02,-18.59 -73.74,-46.33 -100.85,-83.52 -61.77,40.02 -117.56,68.71 -167.98,85.72 -50.11,17.02 -98.65,25.53 -145.62,25.53 -88.25,0 -159.47,-24.9 -214,-74.39 -54.2,-49.48 -81.31,-110.62 -81.31,-183.11 0,-41.29 9.45,-79.1 28.36,-113.46 18.91,-34.35 46.96,-64.62 84.16,-90.45 37.51,-25.85 95.17,-48.55 173.66,-68.72 78.16,-19.85 173.02,-34.35 284.92,-42.85zm0 153.17c-81,11.66 -138.36,23.63 -171.78,35.61 -33.4,11.98 -57.36,26.8 -71.54,45.07 -14.18,18.29 -21.43,36.88 -21.43,55.79 0,24.58 9.13,45.06 27.72,61.77 18.61,16.71 43.82,24.9 75.34,24.9 20.48,0 44.12,-5.36 71.23,-15.76 26.79,-10.4 57.04,-25.85 90.45,-46.02l0 -161.36zm141.19 -915.26l95.19 47.26c-11.04,54.52 -42.24,103.07 -93.3,145.62 -43.17,35.29 -96.12,52.95 -159.79,52.95 -44.75,0 -107.16,-11.98 -187.22,-36.25 -33.4,-9.77 -55.15,-14.81 -65.55,-14.81 -8.19,0 -15.44,1.58 -22.38,5.04 -6.62,3.48 -18.29,13.25 -34.98,29.01l-104.33 -58.31c17.34,-50.11 48.86,-92.67 95.19,-127.66 46.01,-34.98 93.61,-52.32 142.14,-52.32 17.97,0 34.66,1.26 50.74,4.1 16.07,2.83 43.5,9.77 82.26,20.8 58.93,17.34 100.55,26.16 124.5,26.16 11.03,0 20.8,-1.9 28.99,-5.36 8.5,-3.46 19.85,-11.66 34.66,-24.9l13.88 -11.33zm907.39 378.2c105.26,0 196.99,20.49 275.14,61.77 78.48,40.98 138.36,97.09 180.6,167.67 42.23,70.91 63.35,154.12 63.35,248.99 0,143.72 -46.64,260.33 -140.24,349.85 -93.61,89.5 -218.74,134.26 -375.06,134.26 -159.48,0 -286.17,-45.07 -380.41,-135.21 -91.1,-86.04 -136.8,-202.35 -136.8,-348.9 0,-96.12 20.81,-179.01 62.41,-248.36 41.6,-69.33 101.8,-125.11 180.6,-167.03 78.78,-41.92 168.93,-63.04 270.41,-63.04zm4.73 202.33c-35.3,0 -68.4,10.41 -99.28,31.21 -30.89,20.8 -54.85,51.37 -71.86,92.03 -17.03,40.34 -25.53,91.71 -25.53,154.43 0,64.29 8.19,117.56 24.89,159.8 16.71,42.23 40.03,73.74 69.35,93.92 29.31,20.17 61.46,30.26 96.75,30.26 54.52,0 101.17,-22.7 140.26,-68.4 38.76,-45.7 58.31,-116.61 58.31,-213.05 0,-92.98 -17.97,-162.94 -54.22,-209.92 -36.24,-46.96 -82.57,-70.28 -138.67,-70.28zm1291.58 -548.39l627.83 0 0 177.75 -57.37 0c-33.08,0 -55.15,2.83 -65.87,8.82 -10.71,5.68 -18.9,15.13 -23.94,27.74 -5.36,12.6 -7.89,36.88 -7.89,72.49l0 713.25c0,38.76 2.21,63.67 6.31,75 4.41,11.04 11.98,18.91 22.38,23.95 12.91,7.26 32.15,11.04 57.98,11.04l68.4 0 0 177.75 -627.83 0 0 -177.75 51.06 0c36.56,0 60.51,-2.53 71.54,-7.89 11.03,-5.36 19.22,-13.55 24.58,-24.9 5.36,-11.33 7.89,-34.03 7.89,-68.08l0 -716.06c0,-40.03 -2.53,-66.19 -7.89,-78.8 -5.36,-12.6 -14.18,-22.38 -26.47,-29.31 -8.84,-4.72 -29.64,-7.24 -63.04,-7.24l-57.68 0 0 -177.75zm1170.23 346.06l0 122.6c69.66,-47.28 129.54,-79.73 179.02,-96.76 49.81,-17.32 100.55,-25.84 152.54,-25.84 59.88,0 112.83,12.6 158.53,37.81 46.02,25.22 79.75,56.74 100.55,94.56 21.12,37.51 31.52,91.4 31.52,160.74l0 383.26c0,32.78 2.21,53.57 6.92,62.72 4.43,9.14 11.67,16.07 21.75,20.17 7.26,3.16 29.31,4.73 66.19,4.73l45.07 0 0 177.75 -540.84 0 0 -177.75c40.65,-0.64 63.67,-1.58 68.38,-2.85 15.45,-4.09 25.22,-11.33 30.26,-21.1 4.72,-9.77 7.24,-30.89 7.24,-63.36l0 -336.91c0,-43.5 -4.73,-71.55 -13.86,-84.47 -14.83,-21.44 -38.14,-32.15 -70.28,-32.15 -26.48,0 -54.85,5.67 -85.11,17.32 -30.25,11.67 -70.91,35.62 -121.97,71.86l0 364.34c0,39.71 4.41,64.29 13.25,73.44 8.5,9.14 29.62,13.88 62.72,13.88l29.94 0 0 177.75 -537.06 0 0 -177.75 26.79 0c42.23,0 68.4,-1.9 78.48,-5.36 10.09,-3.78 17.97,-10.4 23,-19.54 5.36,-9.14 7.89,-27.11 7.89,-54.22l0 -427.69 -136.16 0 0 -177.75c110.3,-13.88 213.68,-40.34 309.82,-79.43l85.4 0zm1719.92 593.16l135.51 118.51c-72.49,87.61 -147.81,151.27 -225.97,190.99 -78.17,40.03 -161.69,59.88 -250.88,59.88 -142.77,0 -261.91,-46.33 -357.4,-138.99 -95.51,-92.66 -143.42,-205.49 -143.42,-338.49 0,-90.15 22.39,-172.73 66.82,-247.73 44.75,-74.69 105.91,-133.02 183.76,-174.61 77.83,-41.92 169.56,-62.72 275.45,-62.72 126.71,0 230.09,29.31 310.45,88.25 80.38,58.63 120.4,120.72 120.4,185.95 0,27.43 -6.29,52.32 -18.9,74.07 -12.62,22.07 -31.84,39.71 -57.68,53.27 -25.85,13.55 -53.27,20.17 -82.26,20.17 -23.33,0 -44.45,-4.72 -62.73,-13.86 -18.59,-9.14 -34.03,-20.8 -46.33,-34.98 -5.35,-5.99 -16.07,-24.9 -32.15,-56.74 -20.48,-39.71 -35.93,-66.18 -47.26,-79.1 -11.04,-12.93 -24.28,-22.7 -39.71,-29.62 -15.13,-7.26 -32.78,-10.72 -52.64,-10.72 -31.83,0 -62.41,10.09 -91.71,30.57 -29.31,20.49 -53.27,51.69 -72.18,93.29 -18.59,41.61 -28.04,87.94 -28.04,139.31 0,56.42 11.03,106.84 33.08,151.92 22.38,45.07 52.01,79.1 89.2,102.12 37.19,23.31 78.17,34.98 123.23,34.98 42.87,0 86.36,-11.67 130.17,-34.67 43.5,-23.33 90.78,-63.67 141.21,-121.02zm668.8 -1007.29l0 1081.03c0,36.25 1.58,58 4.73,64.62 4.09,12.3 13.54,21.43 28.36,26.79 9.13,3.78 34.03,5.68 74.69,5.68l32.15 0 0 177.75 -571.1 0 0 -177.75 34.98 0c36.88,0 60.53,-2.21 70.93,-6.94 10.4,-4.73 17.97,-11.98 23,-22.07 4.73,-10.4 7.24,-32.78 7.24,-68.08l0 -823.86 -136.16 0 0 -177.77c110.32,-7.55 224.1,-34.03 341.64,-79.41l89.52 0zm207.69 434.93l431.16 -7.57 0 597.26c0,42.55 2.53,70.59 7.87,84.77 5.36,14.2 14.83,25.53 29.01,34.67 13.86,8.82 31.5,13.23 52.62,13.23 30.89,0 63.67,-7.24 98.65,-22.05 13.55,-5.99 49.81,-27.74 108.74,-64.92l0 -359.93c0,-31.2 -2.53,-52.95 -7.57,-64.62 -4.73,-11.66 -11.98,-20.17 -21.12,-25.21 -9.13,-5.36 -27.09,-7.87 -53.9,-7.87l-53.57 0 0 -177.77 431.16 -7.57 0 658.72c0,34.35 1.88,55.78 5.99,64.92 3.78,8.82 10.08,15.13 18.9,19.22 8.84,4.1 29.94,5.99 63.04,5.99l48.23 0 0 179.65 -402.8 11.35 0 -109.69c-54.2,39.71 -108.74,69.35 -163.57,89.2 -54.85,19.86 -110,29.94 -165.47,29.94 -44.45,0 -85.09,-7.24 -122.6,-21.75 -37.19,-14.49 -68.4,-33.72 -93.61,-57.98 -25.53,-24.28 -44.12,-52.64 -56.42,-85.09 -12.28,-32.79 -18.59,-74.39 -18.59,-125.45l0 -379.78c0,-34.98 -1.88,-57.05 -5.99,-66.19 -4.09,-9.45 -10.71,-16.07 -19.85,-20.8 -9.47,-4.72 -28.99,-6.92 -59.26,-6.92l-51.06 0 0 -177.77zm1894.52 0l120.7 0 74.69 256.87 -173.97 70.28c-33.1,-52.95 -74.69,-94.56 -124.81,-124.81 -50.11,-30.26 -99.92,-45.4 -149.08,-45.4 -32.47,0 -56.73,5.36 -72.81,16.39 -16.07,10.72 -23.95,23.95 -23.95,39.09 0,12.6 5.68,24.58 17.03,35.3 11.33,11.03 34.98,22.7 70.59,34.67l253.4 90.45c45.07,15.76 87.94,35.93 129.23,59.88 41.29,23.95 72.17,53.25 92.66,87.93 20.48,34.67 30.89,75.32 30.89,121.97 0,83.21 -31.84,151.92 -95.81,205.18 -75.02,62.72 -168.62,93.92 -280.5,93.92 -95.81,0 -179.35,-23.95 -250.56,-71.54l-25.85 50.74 -122.6 0 -113.46 -301 173.97 -73.42c43.5,67.76 97.39,120.7 161.06,159.47 63.67,38.78 122.28,58 175.87,58 33.1,0 60.82,-7.57 83.52,-23 17.34,-12.3 25.85,-26.8 25.85,-43.5 0,-14.18 -6.63,-27.43 -20.17,-40.34 -13.25,-12.93 -42.87,-27.43 -88.57,-43.5l-199.19 -69.35c-110,-38.44 -184.69,-79.73 -224.4,-123.54 -39.71,-44.12 -59.56,-96.14 -59.56,-156.33 0,-77.22 30.89,-142.14 92.98,-195.11 70.91,-60.19 158.21,-90.13 261.9,-90.13 92.35,0 171.15,20.49 237.02,61.77l23.95 -40.97zm642.63 -433.05c46.96,0 86.67,16.39 119.77,49.48 33.1,32.78 49.48,72.49 49.48,119.14 0,47.59 -16.39,87.62 -49.48,120.4 -33.1,33.08 -72.81,49.48 -119.77,49.48 -46.96,0 -86.67,-16.4 -119.77,-49.48 -33.1,-32.78 -49.48,-72.49 -49.48,-119.46 0,-46.01 17.03,-85.72 50.74,-119.45 34.05,-33.4 73.44,-50.11 118.51,-50.11zm150.34 412.25l0 681.08c0,32.47 1.88,52.64 5.67,59.88 3.48,7.26 10.09,12.93 19.86,17.03 9.45,4.09 30.89,5.99 64.29,5.99l50.11 0 0 177.75 -571.1 0 0 -177.75 48.86 0c31.84,0 52.32,-1.58 61.14,-5.05 8.84,-3.46 15.45,-9.13 19.86,-17.02 4.09,-7.87 6.29,-23.95 6.29,-47.91l0 -438.71 -136.16 0 0 -173.98c48.55,-2.51 95.19,-7.57 139.94,-15.76 44.45,-7.87 84.47,-17.64 119.46,-28.67 22.68,-7.26 50.74,-19.54 84.14,-36.88l87.62 0zm816.61 20.8l491.68 0 0 177.77c-41.29,0.63 -65.57,1.88 -72.18,3.77 -10.71,2.85 -21.43,10.41 -33.1,22.07 -11.33,11.66 -23,29.94 -34.66,54.52l-302.57 662.81 -245.83 0 -314.86 -683.61c-7.57,-15.13 -17.02,-28.36 -28.99,-39.39 -9.14,-8.52 -19.54,-14.2 -30.59,-16.4 -7.55,-2.51 -30.25,-3.77 -68.08,-3.77l0 -177.77 565.44 0 0 177.77 -29.31 0c-36.25,0 -58.63,2.83 -67.13,8.19 -11.98,7.55 -17.66,17.02 -17.66,28.67 0,9.14 4.1,23.65 11.98,43.5l142.77 354.57 149.08 -354.25c8.82,-20.49 12.93,-35.62 12.93,-45.4 0,-12.28 -6.31,-21.75 -19.24,-27.74 -10.08,-5.04 -32.15,-7.55 -66.18,-7.55l-43.5 0 0 -177.77zm1077.27 -20.8c105.26,0 196.99,20.49 275.14,61.77 78.48,40.98 138.36,97.09 180.6,167.67 42.23,70.91 63.35,154.12 63.35,248.99 0,143.72 -46.64,260.33 -140.24,349.85 -93.61,89.5 -218.74,134.26 -375.06,134.26 -159.48,0 -286.17,-45.07 -380.41,-135.21 -91.1,-86.04 -136.8,-202.35 -136.8,-348.9 0,-96.12 20.81,-179.01 62.41,-248.36 41.6,-69.33 101.8,-125.11 180.6,-167.03 78.78,-41.92 168.93,-63.04 270.41,-63.04zm4.73 202.33c-35.3,0 -68.4,10.41 -99.28,31.21 -30.89,20.8 -54.85,51.37 -71.86,92.03 -17.03,40.34 -25.53,91.71 -25.53,154.43 0,64.29 8.19,117.56 24.89,159.8 16.71,42.23 40.03,73.74 69.35,93.92 29.31,20.17 61.46,30.26 96.75,30.26 54.52,0 101.17,-22.7 140.26,-68.4 38.76,-45.7 58.31,-116.61 58.31,-213.05 0,-92.98 -17.97,-162.94 -54.22,-209.92 -36.24,-46.96 -82.57,-70.28 -138.67,-70.28zm1279.92 -181.54l120.7 0 74.69 256.87 -173.97 70.28c-33.1,-52.95 -74.69,-94.56 -124.81,-124.81 -50.11,-30.26 -99.92,-45.4 -149.08,-45.4 -32.47,0 -56.73,5.36 -72.81,16.39 -16.07,10.72 -23.95,23.95 -23.95,39.09 0,12.6 5.68,24.58 17.03,35.3 11.33,11.03 34.98,22.7 70.59,34.67l253.4 90.45c45.07,15.76 87.94,35.93 129.23,59.88 41.29,23.95 72.17,53.25 92.66,87.93 20.48,34.67 30.89,75.32 30.89,121.97 0,83.21 -31.84,151.92 -95.81,205.18 -75.02,62.72 -168.62,93.92 -280.5,93.92 -95.81,0 -179.35,-23.95 -250.56,-71.54l-25.85 50.74 -122.6 0 -113.46 -301 173.97 -73.42c43.5,67.76 97.39,120.7 161.06,159.47 63.67,38.78 122.28,58 175.87,58 33.1,0 60.82,-7.57 83.52,-23 17.34,-12.3 25.85,-26.8 25.85,-43.5 0,-14.18 -6.63,-27.43 -20.17,-40.34 -13.25,-12.93 -42.87,-27.43 -88.57,-43.5l-199.19 -69.35c-110,-38.44 -184.69,-79.73 -224.4,-123.54 -39.71,-44.12 -59.56,-96.14 -59.56,-156.33 0,-77.22 30.89,-142.14 92.98,-195.11 70.91,-60.19 158.21,-90.13 261.9,-90.13 92.35,0 171.15,20.49 237.02,61.77l23.95 -40.97z"/>
    <path class="fil27" d="M33228.33 7514.39l0 1071.26c0,42.24 1.9,67.77 5.36,76.91 3.78,8.82 10.09,15.44 18.59,19.85 8.82,4.1 32.15,6.31 69.66,6.31l42.55 0 0 181.54 -399 13.23 0 -96.12c-57.68,39.09 -108.42,65.87 -152.24,81 -43.5,15.12 -87.3,22.68 -130.8,22.68 -70.91,0 -135.83,-19.22 -195.41,-57.36 -59.26,-38.46 -107.79,-95.49 -145.61,-170.83 -37.83,-75.32 -56.73,-159.16 -56.73,-251.19 0,-93.29 19.22,-177.75 57.68,-253.72 38.44,-75.64 88.88,-132.68 150.64,-171.46 61.78,-38.76 131.12,-57.98 207.39,-57.98 39.39,0 77.22,4.73 113.15,14.18 36.24,9.45 75.95,26.16 119.77,50.11l0 -221.25 -136.16 0 0 -177.77c76.58,-7.55 138.67,-17.02 186.57,-28.36 47.6,-11.66 99.29,-28.67 154.75,-51.05l89.83 0zm-294.99 1088.6l0 -306.04c0,-38.14 -2.85,-65.23 -8.19,-80.99 -7.57,-22.7 -24.28,-42.55 -50.43,-59.58 -26.16,-17.02 -55.47,-25.53 -87.3,-25.53 -33.42,0 -64.29,9.77 -92.66,29.64 -28.36,19.85 -50.76,50.11 -67.45,90.76 -16.71,40.98 -24.9,91.72 -24.9,152.86 0,84.47 18.91,152.24 56.42,203.61 28.99,40.02 67.43,60.19 115.66,60.19 20.8,0 40.97,-3.46 59.88,-10.4 19.22,-7.24 52.32,-25.21 98.97,-54.52zm1384.88 -74.37l126.38 127.01c-72.49,82.58 -146.55,142.77 -221.89,179.65 -75.32,37.19 -156.95,55.78 -244.25,55.78 -140.26,0 -258.45,-47.28 -354.26,-142.14 -96.12,-94.86 -144.03,-209.27 -144.03,-343.85 0,-88.25 21.43,-168.93 64.62,-242.37 43.17,-73.44 103.06,-130.8 179.33,-172.09 76.58,-41.29 162.94,-62.09 259.71,-62.09 61.77,0 117.87,8.82 168.3,26.79 50.42,17.66 94.86,43.17 132.68,76.27 37.83,32.78 68.4,72.81 91.4,119.77 23.33,46.96 39.09,95.49 47.6,145.61 3.77,25.22 5.67,64.94 5.67,119.46l-622.15 0c1.26,77.85 24.26,140.87 68.71,188.78 44.43,48.23 99.28,72.18 163.57,72.18 41.29,0 86.36,-12.3 134.9,-36.88 48.54,-24.9 96.44,-62.09 143.72,-111.88zm-183.76 -267.27c-4.41,-36.56 -13.23,-65.24 -26.47,-86.04 -13.25,-21.12 -31.21,-37.81 -53.59,-50.43 -22.68,-12.28 -46.01,-18.59 -70.91,-18.59 -25.84,0 -50.74,6.31 -75.02,19.24 -23.95,12.6 -43.17,29.94 -57.66,52 -14.5,21.75 -23.95,49.81 -28.38,83.84l312.02 0zm1553.5 -678.88l290.9 0 386.72 994.69c21.12,52.32 39.71,84.79 55.78,97.07 16.4,12.3 46.34,18.29 89.83,18.29l0 177.75 -608.92 0 0 -177.75 36.88 -0.95c33.72,0 57.36,-4.41 70.91,-13.55 13.55,-8.82 20.17,-19.85 20.17,-32.78 0,-11.03 -5.67,-33.72 -17.64,-68.4l-39.39 -116.92 -390.19 0 -48.21 130.17c-9.77,27.72 -14.83,45.69 -14.83,54.52 0,9.77 3.48,18.59 10.72,26.79 6.94,7.87 18.59,13.86 34.67,17.34 10.4,2.51 39.71,3.78 87.3,3.78l0 177.75 -499.24 0 0 -177.75c32.15,0 55.47,-2.85 70.3,-8.19 14.49,-5.68 26.79,-13.88 36.24,-24.9 9.45,-11.03 20.17,-31.84 31.84,-61.78l396.17 -1015.16zm-37.19 694.01l255.28 0 -124.81 -352.37 -130.47 352.37zm1354.29 -347.95l0 122.6c53.57,-41.29 108.1,-71.86 163.25,-92.35 55.47,-20.17 111.9,-30.25 168.95,-30.25 36.56,0 71.22,5.36 104.94,16.07 33.42,10.72 61.46,24.9 83.84,41.92 22.7,17.34 43.19,40.66 61.46,69.98 59.88,-45.38 116.93,-78.17 171.76,-98.02 54.85,-19.86 110.32,-29.94 167.05,-29.94 49.16,0 93.93,8.82 133.95,26.79 40.03,17.66 72.49,41.92 97.39,72.18 24.9,30.57 40.97,63.67 48.54,99.28 4.73,22.05 7.24,54.2 7.24,96.76l0 381.36c0,31.52 2.21,51.69 6.94,60.82 4.41,9.14 12.3,16.4 23,21.12 7.89,3.78 29.94,5.68 66.19,5.68l40.02 0 0 177.75 -537.06 0 0 -177.75c40.03,0 64.92,-1.9 75.64,-5.99 10.4,-4.1 17.97,-10.4 23,-19.24 4.73,-9.13 7.26,-28.67 7.26,-58.61l0 -334.4c0,-38.76 -2.53,-64.29 -7.89,-76.9 -5.36,-12.62 -15.44,-23.33 -30.57,-32.47 -15.13,-8.82 -33.1,-13.23 -53.9,-13.23 -24.26,0 -50.11,5.35 -77.85,16.07 -27.74,10.72 -68.71,34.35 -122.91,70.6l0 360.24c0,35.62 2.51,58 7.24,67.13 5.04,9.14 13.55,16.4 25.84,21.12 7.57,3.16 31.84,5.04 72.81,5.68l0 177.75 -506.81 0 0 -177.75c42.24,-0.64 67.77,-2.85 77.22,-6.31 9.14,-3.78 16.39,-10.4 21.12,-20.17 5.04,-10.08 7.57,-32.15 7.57,-67.13l0 -314.86c0,-48.54 -4.41,-80.68 -12.93,-96.44 -13.55,-23.95 -37.51,-35.93 -72.17,-35.93 -17.34,0 -35.3,2.21 -54.52,6.29 -19.24,4.41 -37.83,11.03 -56.42,20.17 -9.77,5.05 -34.98,21.12 -75.64,47.91l-21.43 13.88 0 358.98c0,34.35 1.88,55.78 5.67,64.29 3.48,8.5 10.72,15.44 21.44,21.12 10.71,5.35 29.3,8.19 55.78,8.19l24.9 0 0 177.75 -538.96 0 0 -177.75 35.93 0c38.14,0 61.78,-1.9 71.23,-5.99 9.45,-4.1 16.71,-11.04 21.75,-21.12 4.72,-10.09 7.24,-32.15 7.24,-66.5l0 -413.2 -136.16 0 0 -177.75c112.83,-10.72 216.84,-37.2 312.35,-79.43l86.67 0zm1828.63 -414.13l0 499.23c51.06,-31.83 96.44,-53.9 136.16,-66.18 39.39,-12.6 79.43,-18.91 119.14,-18.91 104.64,0 191,38.14 259.38,114.09 79.1,88.25 118.82,206.13 118.82,353.31 0,149.08 -40.02,268.85 -119.77,359.3 -79.73,90.45 -176.18,135.83 -289.63,135.83 -46.02,0 -90.47,-7.57 -133.02,-23 -42.55,-15.44 -86.67,-40.66 -133,-76.27l-49.79 78.48 -203.28 0 0 -1098.69 -136.16 0 0 -177.77c121.96,-8.82 235.43,-35.29 340.07,-79.41l91.08 0zm0 699.68l0 278.93c0,56.42 4.41,95.19 13.23,116.31 9.14,21.12 24.6,38.44 46.97,52.64 22.38,14.18 48.84,21.1 78.78,21.1 51.06,0 91.4,-20.8 121.67,-62.4 38.14,-52.01 57.04,-123.87 57.04,-215.58 0,-86.36 -16.39,-153.17 -48.84,-200.14 -26.48,-38.14 -61.16,-57.04 -104.01,-57.04 -23.95,0 -49.48,5.36 -76.9,16.39 -27.43,11.03 -56.74,27.74 -87.94,49.79zm1060.25 -697.79c46.96,0 86.67,16.39 119.77,49.48 33.1,32.78 49.48,72.49 49.48,119.14 0,47.59 -16.39,87.62 -49.48,120.4 -33.1,33.08 -72.81,49.48 -119.77,49.48 -46.96,0 -86.67,-16.4 -119.77,-49.48 -33.1,-32.78 -49.48,-72.49 -49.48,-119.46 0,-46.01 17.03,-85.72 50.74,-119.45 34.05,-33.4 73.44,-50.11 118.51,-50.11zm150.34 412.25l0 681.08c0,32.47 1.88,52.64 5.67,59.88 3.48,7.26 10.09,12.93 19.86,17.03 9.45,4.09 30.89,5.99 64.29,5.99l50.11 0 0 177.75 -571.1 0 0 -177.75 48.86 0c31.84,0 52.32,-1.58 61.14,-5.05 8.84,-3.46 15.45,-9.13 19.86,-17.02 4.09,-7.87 6.29,-23.95 6.29,-47.91l0 -438.71 -136.16 0 0 -173.98c48.55,-2.51 95.19,-7.57 139.94,-15.76 44.45,-7.87 84.47,-17.64 119.46,-28.67 22.68,-7.26 50.74,-19.54 84.14,-36.88l87.62 0zm1081.68 600.09l126.38 127.01c-72.49,82.58 -146.55,142.77 -221.89,179.65 -75.32,37.19 -156.95,55.78 -244.25,55.78 -140.26,0 -258.45,-47.28 -354.26,-142.14 -96.12,-94.86 -144.03,-209.27 -144.03,-343.85 0,-88.25 21.43,-168.93 64.62,-242.37 43.17,-73.44 103.06,-130.8 179.33,-172.09 76.58,-41.29 162.94,-62.09 259.71,-62.09 61.77,0 117.87,8.82 168.3,26.79 50.42,17.66 94.86,43.17 132.68,76.27 37.83,32.78 68.4,72.81 91.4,119.77 23.33,46.96 39.09,95.49 47.6,145.61 3.77,25.22 5.67,64.94 5.67,119.46l-622.15 0c1.26,77.85 24.26,140.87 68.71,188.78 44.43,48.23 99.28,72.18 163.57,72.18 41.29,0 86.36,-12.3 134.9,-36.88 48.54,-24.9 96.44,-62.09 143.72,-111.88zm-183.76 -267.27c-4.41,-36.56 -13.23,-65.24 -26.47,-86.04 -13.25,-21.12 -31.21,-37.81 -53.59,-50.43 -22.68,-12.28 -46.01,-18.59 -70.91,-18.59 -25.84,0 -50.74,6.31 -75.02,19.24 -23.95,12.6 -43.17,29.94 -57.66,52 -14.5,21.75 -23.95,49.81 -28.38,83.84l312.02 0zm852.86 -332.82l0 122.6c69.66,-47.28 129.54,-79.73 179.02,-96.76 49.81,-17.32 100.55,-25.84 152.54,-25.84 59.88,0 112.83,12.6 158.53,37.81 46.02,25.22 79.75,56.74 100.55,94.56 21.12,37.51 31.52,91.4 31.52,160.74l0 383.26c0,32.78 2.21,53.57 6.92,62.72 4.43,9.14 11.67,16.07 21.75,20.17 7.26,3.16 29.31,4.73 66.19,4.73l45.07 0 0 177.75 -540.84 0 0 -177.75c40.65,-0.64 63.67,-1.58 68.38,-2.85 15.45,-4.09 25.22,-11.33 30.26,-21.1 4.72,-9.77 7.24,-30.89 7.24,-63.36l0 -336.91c0,-43.5 -4.73,-71.55 -13.86,-84.47 -14.83,-21.44 -38.14,-32.15 -70.28,-32.15 -26.48,0 -54.85,5.67 -85.11,17.32 -30.25,11.67 -70.91,35.62 -121.97,71.86l0 364.34c0,39.71 4.41,64.29 13.25,73.44 8.5,9.14 29.62,13.88 62.72,13.88l29.94 0 0 177.75 -537.06 0 0 -177.75 26.79 0c42.23,0 68.4,-1.9 78.48,-5.36 10.09,-3.78 17.97,-10.4 23,-19.54 5.36,-9.14 7.89,-27.11 7.89,-54.22l0 -427.69 -136.16 0 0 -177.75c110.3,-13.88 213.68,-40.34 309.82,-79.43l85.4 0zm1293.8 -295.01l0 315.81 296.89 0 0 196.67 -296.89 0 0 321.17c0,72.49 3.78,119.14 11.67,139.62 7.57,20.8 21.75,37.2 42.85,49.48 27.43,16.71 59.26,24.9 94.88,24.9 63.35,0 126.38,-20.49 189.1,-61.78l0 197.62c-53.59,25.21 -102.12,42.87 -145.3,53.27 -43.5,10.09 -90.45,15.13 -140.89,15.13 -57.36,0 -108.1,-7.26 -151.92,-21.75 -44.12,-14.5 -81.62,-34.98 -112.83,-61.78 -30.88,-26.79 -52.62,-55.15 -64.6,-85.4 -11.98,-30.26 -17.97,-73.76 -17.97,-131.12l0 -439.36 -136.16 0 0 -177.75c49.16,-16.08 91.08,-38.76 126.06,-68.4 34.67,-29.94 62.72,-65.55 84.16,-107.15 21.1,-41.92 35.61,-94.88 43.5,-159.17l177.43 0zm1290.02 895.1l126.38 127.01c-72.49,82.58 -146.55,142.77 -221.89,179.65 -75.32,37.19 -156.95,55.78 -244.25,55.78 -140.26,0 -258.45,-47.28 -354.26,-142.14 -96.12,-94.86 -144.03,-209.27 -144.03,-343.85 0,-88.25 21.43,-168.93 64.62,-242.37 43.17,-73.44 103.06,-130.8 179.33,-172.09 76.58,-41.29 162.94,-62.09 259.71,-62.09 61.77,0 117.87,8.82 168.3,26.79 50.42,17.66 94.86,43.17 132.68,76.27 37.83,32.78 68.4,72.81 91.4,119.77 23.33,46.96 39.09,95.49 47.6,145.61 3.77,25.22 5.67,64.94 5.67,119.46l-622.15 0c1.26,77.85 24.26,140.87 68.71,188.78 44.43,48.23 99.28,72.18 163.57,72.18 41.29,0 86.36,-12.3 134.9,-36.88 48.54,-24.9 96.44,-62.09 143.72,-111.88zm-183.76 -267.27c-4.41,-36.56 -13.23,-65.24 -26.47,-86.04 -13.25,-21.12 -31.21,-37.81 -53.59,-50.43 -22.68,-12.28 -46.01,-18.59 -70.91,-18.59 -25.84,0 -50.74,6.31 -75.02,19.24 -23.95,12.6 -43.17,29.94 -57.66,52 -14.5,21.75 -23.95,49.81 -28.38,83.84l312.02 0zm1069.72 -312.02l120.7 0 74.69 256.87 -173.97 70.28c-33.1,-52.95 -74.69,-94.56 -124.81,-124.81 -50.11,-30.26 -99.92,-45.4 -149.08,-45.4 -32.47,0 -56.73,5.36 -72.81,16.39 -16.07,10.72 -23.95,23.95 -23.95,39.09 0,12.6 5.68,24.58 17.03,35.3 11.33,11.03 34.98,22.7 70.59,34.67l253.4 90.45c45.07,15.76 87.94,35.93 129.23,59.88 41.29,23.95 72.17,53.25 92.66,87.93 20.48,34.67 30.89,75.32 30.89,121.97 0,83.21 -31.84,151.92 -95.81,205.18 -75.02,62.72 -168.62,93.92 -280.5,93.92 -95.81,0 -179.35,-23.95 -250.56,-71.54l-25.85 50.74 -122.6 0 -113.46 -301 173.97 -73.42c43.5,67.76 97.39,120.7 161.06,159.47 63.67,38.78 122.28,58 175.87,58 33.1,0 60.82,-7.57 83.52,-23 17.34,-12.3 25.85,-26.8 25.85,-43.5 0,-14.18 -6.63,-27.43 -20.17,-40.34 -13.25,-12.93 -42.87,-27.43 -88.57,-43.5l-199.19 -69.35c-110,-38.44 -184.69,-79.73 -224.4,-123.54 -39.71,-44.12 -59.56,-96.14 -59.56,-156.33 0,-77.22 30.89,-142.14 92.98,-195.11 70.91,-60.19 158.21,-90.13 261.9,-90.13 92.35,0 171.15,20.49 237.02,61.77l23.95 -40.97z"/>
   </g>
   <path class="fil28" d="M8297.86 1521.17l2272.33 0 310.52 864.95 -353.84 127.27c-59.98,-141.93 -129.94,-255.88 -209.92,-341.84 -79.96,-86.62 -168.58,-143.94 -265.2,-172.59 -96.63,-27.98 -209.92,-41.98 -338.52,-41.98l-415.82 0 0 683.7 135.28 0c101.28,0 169.91,-7.34 205.23,-22.67 35.32,-14.66 60.65,-38.64 75.97,-70.64 15.33,-31.98 23.33,-95.29 23.33,-190.57l0 -103.96 351.84 0 0 1151.49 -351.84 0 0 -117.95c0,-79.96 -9.33,-138.61 -27.98,-175.26 -18.65,-36.65 -43.99,-61.97 -75.97,-74.63 -32.65,-13.32 -103.96,-19.99 -214.57,-19.99l-121.28 0 0 625.72c0,65.96 3.34,106.63 10,121.28 5.99,13.98 19.33,25.32 37.98,32.65 18.65,7.99 59.3,11.99 121.94,11.99l228.57 0c170.58,0 313.86,-24.66 431.13,-73.3 117.29,-49.32 221.91,-128.6 313.2,-237.22 91.95,-109.29 162.59,-239.23 211.91,-389.17l356.5 122.62 -357.17 1012.88 -2353.62 0 0 -375.83 67.97 0c91.3,0 152.6,-6.66 183.92,-19.33 31.32,-13.32 53.3,-35.99 65.96,-68.63 6.66,-19.33 10,-74.65 10,-165.93l0 -1484.68c0,-80.64 -5.33,-133.93 -16.66,-158.59 -10.66,-24.66 -27.98,-43.31 -51.98,-55.32 -23.33,-12.65 -69.3,-18.65 -137.93,-18.65l-121.28 0 0 -375.83zm2863.4 0l1327.4 0 0 375.83 -121.27 0c-69.98,0 -116.61,6 -139.28,18.65 -22.65,12.01 -39.97,31.99 -50.63,58.64 -11.33,26.66 -16.66,77.97 -16.66,153.26l0 1508c0,81.97 4.66,134.61 13.32,158.59 9.33,23.33 25.32,39.99 47.31,50.65 27.32,15.33 67.97,23.33 122.62,23.33l144.59 0 0 375.83 -1327.4 0 0 -375.83 107.94 0c77.3,0 127.95,-5.33 151.27,-16.66 23.33,-11.33 40.65,-28.66 51.98,-52.64 11.32,-24 16.65,-71.97 16.65,-143.94l0 -1513.99c0,-84.63 -5.33,-139.94 -16.65,-166.6 -11.33,-26.65 -29.99,-47.31 -55.98,-61.97 -18.65,-10 -62.64,-15.33 -133.28,-15.33l-121.94 0 0 -375.83zm1614.61 375.83l0 -375.83 1547.32 0c236.56,0 422.48,27.32 558.42,82.63 135.27,55.3 239.21,135.27 311.86,238.56 72.64,103.29 109.29,216.58 109.29,340.53 0,89.95 -19.33,175.26 -57.98,255.88 -38.64,80.64 -93.96,151.93 -166.59,213.24 -72.64,61.98 -167.92,113.29 -287.21,153.26 127.95,32.65 225.25,68.64 293.2,107.29 97.96,54.65 175.26,131.29 232.57,229.9 57.31,97.96 85.97,207.24 85.97,328.52 0,144.61 -43.31,277.89 -130.61,399.15 -87.3,121.94 -210.57,214.57 -369.84,277.89 -159.25,63.97 -391.82,95.95 -699.02,95.95l-1427.37 0 0 -375.83 107.96 0c71.97,0 120.61,-6 145.93,-18.67 25.99,-11.99 43.99,-29.97 53.97,-52.64 10.67,-22.65 16,-73.96 16,-153.26l0 -1519.99c0,-80.62 -5.33,-131.94 -16,-154.6 -9.99,-21.99 -27.98,-39.32 -53.97,-52.64 -25.32,-12.67 -73.96,-19.33 -145.93,-19.33l-107.96 0zm995.56 727.67l299.21 0c155.93,0 271.88,-13.32 346.51,-39.32 75.29,-25.99 131.27,-65.96 169.25,-118.6 37.98,-53.31 56.64,-114.62 56.64,-183.92 0,-71.97 -17.98,-133.28 -53.97,-184.58 -35.32,-50.65 -87.3,-87.3 -155.27,-108.62 -67.3,-21.99 -188.58,-32.65 -363.16,-32.65l-299.21 0 0 667.7zm0 395.83l0 591.73c1.33,83.3 4.67,132.62 10,146.6 5.99,18.65 16.65,31.32 31.98,38.66 14.66,7.32 55.3,10.66 121.94,10.66l198.58 0c115.28,0 211.25,-10.66 287.21,-32.65 75.97,-21.32 140.6,-65.96 193.91,-133.93 53.31,-67.97 79.96,-149.28 79.96,-244.56 0,-81.3 -18.65,-149.94 -56.64,-205.92 -37.32,-55.98 -93.96,-98.62 -169.27,-127.27 -75.29,-28.66 -190.57,-43.31 -345.17,-43.31l-352.52 0zm1887.83 -1499.33l1233.46 0 473.79 1650.59 485.78 -1650.59 1257.45 0 0 375.83 -134.61 0c-72.64,0 -123.29,15.33 -151.27,45.98 -27.98,30.66 -41.98,87.97 -41.98,172.59l0 1547.32c0,67.97 4,109.95 11.99,127.27 11.33,25.99 27.98,43.99 48.64,54.65 28.66,15.33 65.98,23.33 113.29,23.33l153.94 0 0 375.83 -1311.43 0 0 -375.83 101.3 0c74.63,0 124.61,-6 150.6,-17.34 25.99,-11.99 45.3,-29.97 57.3,-53.97 12.67,-23.98 18.67,-68.63 18.67,-133.93l0 -1675.92 -663.72 2256.99 -375.83 0 -643.71 -2184.37 0 1655.94c0,37.98 6.66,67.31 19.99,87.96 14,20.66 33.33,36.65 57.98,47.98 25.32,11.33 65.31,16.66 120.61,16.66l129.28 0 0 375.83 -1111.51 0 0 -375.83 109.95 0c69.3,0 116.61,-6 142.6,-18.67 25.33,-11.99 43.99,-31.98 56.65,-58.63 12.65,-26.66 18.65,-75.97 18.65,-147.27l0 -1527.99c0,-69.96 -4.67,-115.94 -14,-136.6 -11.33,-28.66 -29.31,-49.32 -52.64,-62.64 -23.98,-12.67 -60.65,-19.33 -111.96,-19.33l-149.27 0 0 -375.83z"/>
   <path class="fil28" d="M22145.39 1657.93c-77.22,295.07 -142.34,550.96 -194.22,767.65 -52.44,216.7 -91.07,394.21 -117,532.52 -40.34,219.58 -71.46,441.47 -93.36,665.66 -21.9,223.61 -34.58,448.36 -38.03,673.72l-401.13 45.52c-10.37,-112.37 -17.86,-227.64 -23.05,-345.21 -5.19,-117.56 -8.07,-239.17 -8.07,-363.65 0,-312.94 15.56,-644.33 47.26,-993 31.12,-348.67 78.39,-715.21 141.78,-1099.05l685.82 115.85zm-262.8 369.99l-60.51 -77.8c-78.39,126.22 -149.85,264.53 -213.24,414.94 -62.82,150.43 -119.29,312.38 -168.87,485.84l153.31 65.7c26.51,-156.19 64.54,-308.92 112.39,-457.02 48.41,-148.12 107.19,-292.21 176.93,-431.67zm2562.89 764.2c0,244.36 -57.63,464.51 -172.9,660.45 -115.25,195.96 -289.31,367.7 -522.14,515.23 -184.43,117 -390.16,212.67 -617.23,287.01 -227.07,74.34 -476.62,126.8 -748.64,157.34l183.85 -3060.27c295.65,19.02 552.11,54.19 769.96,104.31 217.27,50.73 394.77,116.43 531.94,197.68 192.49,113.53 335.99,265.11 431.67,455.3 95.66,190.19 143.49,417.82 143.49,682.94zm-520.99 5.19l0 -168.87 -241.48 -8.64 -21.9 -221.31 232.84 -8.65 -8.65 -155.02 -249.54 -25.36 -55.9 -489.87c-84.14,-40.34 -175.78,-75.49 -274.33,-104.9 -99.12,-29.39 -205.75,-52.44 -320.43,-69.15l35.73 2569.23c111.22,-23.63 219.58,-56.48 325.04,-97.97 105.46,-41.49 208.05,-91.07 306.6,-148.7l16.71 -638.55 224.77 -11.53 21.9 -172.32 -241.48 -8.64 3.46 -223.04 246.66 -16.71zm-523.3 -5.19c0,95.66 -2.88,186.73 -9.22,273.75 -5.76,86.44 -14.4,168.85 -26.51,246.09l-83.56 -45.53c2.31,-35.73 4.03,-72.61 4.61,-109.51 0.58,-37.45 0.58,-75.49 0.58,-114.68 0,-127.36 -6.34,-250.7 -18.44,-369.99 -12.68,-119.29 -31.12,-233.41 -55.9,-342.92l164.24 0c8.64,75.51 14.98,151.58 18.44,228.8 4.04,77.24 5.76,155.04 5.76,233.99zm2690.85 -710.6l-50.73 446.07 -393.63 -96.24 131.99 -274.33 312.36 -75.49zm580.35 109.49l-269.14 77.24c-9.22,-118.73 -34.58,-216.7 -76.65,-294.5 -42.07,-77.8 -101.44,-135.44 -178.07,-173.48 -41.51,-20.17 -108.36,-39.19 -201.14,-56.47 -92.8,-17.29 -210.36,-31.7 -352.72,-42.65l-130.24 1110.56 859.88 -45.52 -215.55 484.09 -687.55 -146.95 -151.58 1129 632.23 8.65 220.73 -323.89 352.14 -20.17 8.64 539.43 -1625.21 -91.63 94.51 -1761.23 226.49 11.53 37.46 -144.66 -260.49 -3.46 13.83 -204.02 246.66 18.44 25.36 -180.39 -263.38 0 8.07 -199.41 246.67 18.44 34 -155.02 -272.02 -13.26 16.71 -307.17c111.22,9.22 223.03,17.86 335.41,25.93 112.39,8.64 224.77,16.14 337.16,23.05 133.7,15.56 253,38.04 357.31,68.02 104.9,29.96 194.22,66.85 267.99,111.8 97.97,58.78 176.93,132.56 236.87,222.46 60.51,89.9 102,194.8 125.63,315.24zm1178.56 -533.09c-77.22,295.07 -142.34,550.96 -194.22,767.65 -52.44,216.7 -91.07,394.21 -117,532.52 -40.34,219.58 -71.46,441.47 -93.36,665.66 -21.9,223.61 -34.58,448.36 -38.03,673.72l-401.13 45.52c-10.37,-112.37 -17.86,-227.64 -23.05,-345.21 -5.19,-117.56 -8.07,-239.17 -8.07,-363.65 0,-312.94 15.56,-644.33 47.26,-993 31.12,-348.67 78.39,-715.21 141.78,-1099.05l685.82 115.85zm-262.8 369.99l-60.51 -77.8c-78.39,126.22 -149.85,264.53 -213.24,414.94 -62.82,150.43 -119.29,312.38 -168.87,485.84l153.31 65.7c26.51,-156.19 64.54,-308.92 112.39,-457.02 48.41,-148.12 107.19,-292.21 176.93,-431.67zm2925.98 2251.1l-299.11 67.43 -202.29 -615.5 -1210.27 -17.29 -302.57 822.98 -648.35 -447.8 1271.36 -2607.28 469.13 -39.76 922.1 2837.21zm-767.66 -1353.77l-316.39 -1134.19 -436.28 1307.09 752.67 -172.9zm167.14 508.32l-97.97 -293.92 -908.27 224.76 -54.19 136.58 1060.44 -67.42zm-1249.46 -181.55l-60.51 -77.8c-80.68,135.44 -152.16,277.79 -214.97,427.64 -62.82,149.83 -116.41,307.75 -161.95,473.16l155.61 65.69c22.47,-153.88 57.05,-305.44 104.9,-453.56 47.25,-148.12 106.61,-293.35 176.93,-435.13z"/>
   <g>
    <path class="fil27" d="M8318.84 5502.52l627.83 0 0 177.75 -57.37 0c-33.08,0 -55.15,2.83 -65.87,8.82 -10.71,5.68 -18.9,15.13 -23.94,27.74 -5.36,12.6 -7.89,36.88 -7.89,72.49l0 713.25c0,38.76 2.21,63.67 6.31,75 4.41,11.04 11.98,18.91 22.38,23.95 12.91,7.26 32.15,11.04 57.98,11.04l68.4 0 0 177.75 -627.83 0 0 -177.75 51.06 0c36.56,0 60.51,-2.53 71.54,-7.89 11.03,-5.36 19.22,-13.55 24.58,-24.9 5.36,-11.33 7.89,-34.03 7.89,-68.08l0 -716.06c0,-40.03 -2.53,-66.19 -7.89,-78.8 -5.36,-12.6 -14.18,-22.38 -26.47,-29.31 -8.84,-4.72 -29.64,-7.24 -63.04,-7.24l-57.68 0 0 -177.75zm1170.23 346.06l0 122.6c69.66,-47.28 129.54,-79.73 179.02,-96.76 49.81,-17.32 100.55,-25.84 152.54,-25.84 59.88,0 112.83,12.6 158.53,37.81 46.02,25.22 79.75,56.74 100.55,94.56 21.12,37.51 31.52,91.4 31.52,160.74l0 383.26c0,32.78 2.21,53.57 6.92,62.72 4.43,9.14 11.67,16.07 21.75,20.17 7.26,3.16 29.31,4.73 66.19,4.73l45.07 0 0 177.75 -540.84 0 0 -177.75c40.65,-0.64 63.67,-1.58 68.38,-2.85 15.45,-4.09 25.22,-11.33 30.26,-21.1 4.72,-9.77 7.24,-30.89 7.24,-63.36l0 -336.91c0,-43.5 -4.73,-71.55 -13.86,-84.47 -14.83,-21.44 -38.14,-32.15 -70.28,-32.15 -26.48,0 -54.85,5.67 -85.11,17.32 -30.25,11.67 -70.91,35.62 -121.97,71.86l0 364.34c0,39.71 4.41,64.29 13.25,73.44 8.5,9.14 29.62,13.88 62.72,13.88l29.94 0 0 177.75 -537.06 0 0 -177.75 26.79 0c42.23,0 68.4,-1.9 78.48,-5.36 10.09,-3.78 17.97,-10.4 23,-19.54 5.36,-9.14 7.89,-27.11 7.89,-54.22l0 -427.69 -136.16 0 0 -177.75c110.3,-13.88 213.68,-40.34 309.82,-79.43l85.4 0zm1503.09 20.8l120.7 0 74.69 256.87 -173.97 70.28c-33.1,-52.95 -74.69,-94.56 -124.81,-124.81 -50.11,-30.26 -99.92,-45.4 -149.08,-45.4 -32.47,0 -56.73,5.36 -72.81,16.39 -16.07,10.72 -23.95,23.95 -23.95,39.09 0,12.6 5.68,24.58 17.03,35.3 11.33,11.03 34.98,22.7 70.59,34.67l253.4 90.45c45.07,15.76 87.94,35.93 129.23,59.88 41.29,23.95 72.17,53.25 92.66,87.93 20.48,34.67 30.89,75.32 30.89,121.97 0,83.21 -31.84,151.92 -95.81,205.18 -75.02,62.72 -168.62,93.92 -280.5,93.92 -95.81,0 -179.35,-23.95 -250.56,-71.54l-25.85 50.74 -122.6 0 -113.46 -301 173.97 -73.42c43.5,67.76 97.39,120.7 161.06,159.47 63.67,38.78 122.28,58 175.87,58 33.1,0 60.82,-7.57 83.52,-23 17.34,-12.3 25.85,-26.8 25.85,-43.5 0,-14.18 -6.63,-27.43 -20.17,-40.34 -13.25,-12.93 -42.87,-27.43 -88.57,-43.5l-199.19 -69.35c-110,-38.44 -184.69,-79.73 -224.4,-123.54 -39.71,-44.12 -59.56,-96.14 -59.56,-156.33 0,-77.22 30.89,-142.14 92.98,-195.11 70.91,-60.19 158.21,-90.13 261.9,-90.13 92.35,0 171.15,20.49 237.02,61.77l23.95 -40.97zm774.05 -315.81l0 315.81 296.89 0 0 196.67 -296.89 0 0 321.17c0,72.49 3.78,119.14 11.67,139.62 7.57,20.8 21.75,37.2 42.85,49.48 27.43,16.71 59.26,24.9 94.88,24.9 63.35,0 126.38,-20.49 189.1,-61.78l0 197.62c-53.59,25.21 -102.12,42.87 -145.3,53.27 -43.5,10.09 -90.45,15.13 -140.89,15.13 -57.36,0 -108.1,-7.26 -151.92,-21.75 -44.12,-14.5 -81.62,-34.98 -112.83,-61.78 -30.88,-26.79 -52.62,-55.15 -64.6,-85.4 -11.98,-30.26 -17.97,-73.76 -17.97,-131.12l0 -439.36 -136.16 0 0 -177.75c49.16,-16.08 91.08,-38.76 126.06,-68.4 34.67,-29.94 62.72,-65.55 84.16,-107.15 21.1,-41.92 35.61,-94.88 43.5,-159.17l177.43 0zm738.46 -117.24c46.96,0 86.67,16.39 119.77,49.48 33.1,32.78 49.48,72.49 49.48,119.14 0,47.59 -16.39,87.62 -49.48,120.4 -33.1,33.08 -72.81,49.48 -119.77,49.48 -46.96,0 -86.67,-16.4 -119.77,-49.48 -33.1,-32.78 -49.48,-72.49 -49.48,-119.46 0,-46.01 17.03,-85.72 50.74,-119.45 34.05,-33.4 73.44,-50.11 118.51,-50.11zm150.34 412.25l0 681.08c0,32.47 1.88,52.64 5.67,59.88 3.48,7.26 10.09,12.93 19.86,17.03 9.45,4.09 30.89,5.99 64.29,5.99l50.11 0 0 177.75 -571.1 0 0 -177.75 48.86 0c31.84,0 52.32,-1.58 61.14,-5.05 8.84,-3.46 15.45,-9.13 19.86,-17.02 4.09,-7.87 6.29,-23.95 6.29,-47.91l0 -438.71 -136.16 0 0 -173.98c48.55,-2.51 95.19,-7.57 139.94,-15.76 44.45,-7.87 84.47,-17.64 119.46,-28.67 22.68,-7.26 50.74,-19.54 84.14,-36.88l87.62 0zm661.54 -295.01l0 315.81 296.89 0 0 196.67 -296.89 0 0 321.17c0,72.49 3.78,119.14 11.67,139.62 7.57,20.8 21.75,37.2 42.85,49.48 27.43,16.71 59.26,24.9 94.88,24.9 63.35,0 126.38,-20.49 189.1,-61.78l0 197.62c-53.59,25.21 -102.12,42.87 -145.3,53.27 -43.5,10.09 -90.45,15.13 -140.89,15.13 -57.36,0 -108.1,-7.26 -151.92,-21.75 -44.12,-14.5 -81.62,-34.98 -112.83,-61.78 -30.88,-26.79 -52.62,-55.15 -64.6,-85.4 -11.98,-30.26 -17.97,-73.76 -17.97,-131.12l0 -439.36 -136.16 0 0 -177.75c49.16,-16.08 91.08,-38.76 126.06,-68.4 34.67,-29.94 62.72,-65.55 84.16,-107.15 21.1,-41.92 35.61,-94.88 43.5,-159.17l177.43 0zm433.05 315.81l431.16 -7.57 0 597.26c0,42.55 2.53,70.59 7.87,84.77 5.36,14.2 14.83,25.53 29.01,34.67 13.86,8.82 31.5,13.23 52.62,13.23 30.89,0 63.67,-7.24 98.65,-22.05 13.55,-5.99 49.81,-27.74 108.74,-64.92l0 -359.93c0,-31.2 -2.53,-52.95 -7.57,-64.62 -4.73,-11.66 -11.98,-20.17 -21.12,-25.21 -9.13,-5.36 -27.09,-7.87 -53.9,-7.87l-53.57 0 0 -177.77 431.16 -7.57 0 658.72c0,34.35 1.88,55.78 5.99,64.92 3.78,8.82 10.08,15.13 18.9,19.22 8.84,4.1 29.94,5.99 63.04,5.99l48.23 0 0 179.65 -402.8 11.35 0 -109.69c-54.2,39.71 -108.74,69.35 -163.57,89.2 -54.85,19.86 -110,29.94 -165.47,29.94 -44.45,0 -85.09,-7.24 -122.6,-21.75 -37.19,-14.49 -68.4,-33.72 -93.61,-57.98 -25.53,-24.28 -44.12,-52.64 -56.42,-85.09 -12.28,-32.79 -18.59,-74.39 -18.59,-125.45l0 -379.78c0,-34.98 -1.88,-57.05 -5.99,-66.19 -4.09,-9.45 -10.71,-16.07 -19.85,-20.8 -9.47,-4.72 -28.99,-6.92 -59.26,-6.92l-51.06 0 0 -177.77zm1685.23 -315.81l0 315.81 296.89 0 0 196.67 -296.89 0 0 321.17c0,72.49 3.78,119.14 11.67,139.62 7.57,20.8 21.75,37.2 42.85,49.48 27.43,16.71 59.26,24.9 94.88,24.9 63.35,0 126.38,-20.49 189.1,-61.78l0 197.62c-53.59,25.21 -102.12,42.87 -145.3,53.27 -43.5,10.09 -90.45,15.13 -140.89,15.13 -57.36,0 -108.1,-7.26 -151.92,-21.75 -44.12,-14.5 -81.62,-34.98 -112.83,-61.78 -30.88,-26.79 -52.62,-55.15 -64.6,-85.4 -11.98,-30.26 -17.97,-73.76 -17.97,-131.12l0 -439.36 -136.16 0 0 -177.75c49.16,-16.08 91.08,-38.76 126.06,-68.4 34.67,-29.94 62.72,-65.55 84.16,-107.15 21.1,-41.92 35.61,-94.88 43.5,-159.17l177.43 0zm967.27 295.01c105.26,0 196.99,20.49 275.14,61.77 78.48,40.98 138.36,97.09 180.6,167.67 42.23,70.91 63.35,154.12 63.35,248.99 0,143.72 -46.64,260.33 -140.24,349.85 -93.61,89.5 -218.74,134.26 -375.06,134.26 -159.48,0 -286.17,-45.07 -380.41,-135.21 -91.1,-86.04 -136.8,-202.35 -136.8,-348.9 0,-96.12 20.81,-179.01 62.41,-248.36 41.6,-69.33 101.8,-125.11 180.6,-167.03 78.78,-41.92 168.93,-63.04 270.41,-63.04zm4.73 202.33c-35.3,0 -68.4,10.41 -99.28,31.21 -30.89,20.8 -54.85,51.37 -71.86,92.03 -17.03,40.34 -25.53,91.71 -25.53,154.43 0,64.29 8.19,117.56 24.89,159.8 16.71,42.23 40.03,73.74 69.35,93.92 29.31,20.17 61.46,30.26 96.75,30.26 54.52,0 101.17,-22.7 140.26,-68.4 38.76,-45.7 58.31,-116.61 58.31,-213.05 0,-92.98 -17.97,-162.94 -54.22,-209.92 -36.24,-46.96 -82.57,-70.28 -138.67,-70.28zm2254.12 -616.47l0 1071.26c0,42.24 1.9,67.77 5.36,76.91 3.78,8.82 10.09,15.44 18.59,19.85 8.82,4.1 32.15,6.31 69.66,6.31l42.55 0 0 181.54 -399 13.23 0 -96.12c-57.68,39.09 -108.42,65.87 -152.24,81 -43.5,15.12 -87.3,22.68 -130.8,22.68 -70.91,0 -135.83,-19.22 -195.41,-57.36 -59.26,-38.46 -107.79,-95.49 -145.61,-170.83 -37.83,-75.32 -56.73,-159.16 -56.73,-251.19 0,-93.29 19.22,-177.75 57.68,-253.72 38.44,-75.64 88.88,-132.68 150.64,-171.46 61.78,-38.76 131.12,-57.98 207.39,-57.98 39.39,0 77.22,4.73 113.15,14.18 36.24,9.45 75.95,26.16 119.77,50.11l0 -221.25 -136.16 0 0 -177.77c76.58,-7.55 138.67,-17.02 186.57,-28.36 47.6,-11.66 99.29,-28.67 154.75,-51.05l89.83 0zm-294.99 1088.6l0 -306.04c0,-38.14 -2.85,-65.23 -8.19,-80.99 -7.57,-22.7 -24.28,-42.55 -50.43,-59.58 -26.16,-17.02 -55.47,-25.53 -87.3,-25.53 -33.42,0 -64.29,9.77 -92.66,29.64 -28.36,19.85 -50.76,50.11 -67.45,90.76 -16.71,40.98 -24.9,91.72 -24.9,152.86 0,84.47 18.91,152.24 56.42,203.61 28.99,40.02 67.43,60.19 115.66,60.19 20.8,0 40.97,-3.46 59.88,-10.4 19.22,-7.24 52.32,-25.21 98.97,-54.52zm1384.88 -74.37l126.38 127.01c-72.49,82.58 -146.55,142.77 -221.89,179.65 -75.32,37.19 -156.95,55.78 -244.25,55.78 -140.26,0 -258.45,-47.28 -354.26,-142.14 -96.12,-94.86 -144.03,-209.27 -144.03,-343.85 0,-88.25 21.43,-168.93 64.62,-242.37 43.17,-73.44 103.06,-130.8 179.33,-172.09 76.58,-41.29 162.94,-62.09 259.71,-62.09 61.77,0 117.87,8.82 168.3,26.79 50.42,17.66 94.86,43.17 132.68,76.27 37.83,32.78 68.4,72.81 91.4,119.77 23.33,46.96 39.09,95.49 47.6,145.61 3.77,25.22 5.67,64.94 5.67,119.46l-622.15 0c1.26,77.85 24.26,140.87 68.71,188.78 44.43,48.23 99.28,72.18 163.57,72.18 41.29,0 86.36,-12.3 134.9,-36.88 48.54,-24.9 96.44,-62.09 143.72,-111.88zm-183.76 -267.27c-4.41,-36.56 -13.23,-65.24 -26.47,-86.04 -13.25,-21.12 -31.21,-37.81 -53.59,-50.43 -22.68,-12.28 -46.01,-18.59 -70.91,-18.59 -25.84,0 -50.74,6.31 -75.02,19.24 -23.95,12.6 -43.17,29.94 -57.66,52 -14.5,21.75 -23.95,49.81 -28.38,83.84l312.02 0zm1087.04 -678.88l676.37 0c153.49,0 275.79,24.26 366.55,72.79 90.45,48.86 162.94,120.72 216.84,216.21 53.9,95.19 81,209.92 81,343.22 0,92.98 -13.86,176.19 -41.29,249.31 -27.41,73.44 -68.08,139.31 -122.6,197.94 -54.2,58.93 -112.51,103.06 -174.6,132.68 -46.97,22.07 -113.47,40.34 -199.52,54.52 -86.04,14.18 -155.05,21.12 -206.74,21.12l-596.01 0 0 -177.75 44.45 0c37.81,0 62.72,-3.16 74.39,-9.14 11.66,-6.31 21.43,-16.71 28.67,-31.52 5.05,-11.66 7.57,-37.19 7.57,-76.59l0 -704.09c0,-39.41 -2.51,-64.94 -7.87,-76.27 -5.36,-11.35 -13.88,-20.17 -26.16,-25.85 -11.98,-5.99 -37.51,-8.82 -76.59,-8.82l-44.45 0 0 -177.75zm472.76 206.12l0 801.49c0,27.09 1.58,43.8 4.73,50.11 4.73,9.13 11.98,15.44 21.75,18.9 9.45,3.48 32.47,5.05 68.71,5.05 101.5,0 180.6,-15.45 237.65,-46.65 57.04,-31.2 103.06,-81 138.36,-149.71 34.98,-68.71 52.62,-150.66 52.62,-245.52 0,-93.61 -16.39,-175.23 -49.48,-244.57 -33.08,-69.33 -73.74,-118.19 -122.6,-146.55 -48.84,-28.36 -118.5,-42.55 -209.27,-42.55l-142.47 0zm1838.11 740.03l126.38 127.01c-72.49,82.58 -146.55,142.77 -221.89,179.65 -75.32,37.19 -156.95,55.78 -244.25,55.78 -140.26,0 -258.45,-47.28 -354.26,-142.14 -96.12,-94.86 -144.03,-209.27 -144.03,-343.85 0,-88.25 21.43,-168.93 64.62,-242.37 43.17,-73.44 103.06,-130.8 179.33,-172.09 76.58,-41.29 162.94,-62.09 259.71,-62.09 61.77,0 117.87,8.82 168.3,26.79 50.42,17.66 94.86,43.17 132.68,76.27 37.83,32.78 68.4,72.81 91.4,119.77 23.33,46.96 39.09,95.49 47.6,145.61 3.77,25.22 5.67,64.94 5.67,119.46l-622.15 0c1.26,77.85 24.26,140.87 68.71,188.78 44.43,48.23 99.28,72.18 163.57,72.18 41.29,0 86.36,-12.3 134.9,-36.88 48.54,-24.9 96.44,-62.09 143.72,-111.88zm-183.76 -267.27c-4.41,-36.56 -13.23,-65.24 -26.47,-86.04 -13.25,-21.12 -31.21,-37.81 -53.59,-50.43 -22.68,-12.28 -46.01,-18.59 -70.91,-18.59 -25.84,0 -50.74,6.31 -75.02,19.24 -23.95,12.6 -43.17,29.94 -57.66,52 -14.5,21.75 -23.95,49.81 -28.38,83.84l312.02 0zm1069.72 -312.02l120.7 0 74.69 256.87 -173.97 70.28c-33.1,-52.95 -74.69,-94.56 -124.81,-124.81 -50.11,-30.26 -99.92,-45.4 -149.08,-45.4 -32.47,0 -56.73,5.36 -72.81,16.39 -16.07,10.72 -23.95,23.95 -23.95,39.09 0,12.6 5.68,24.58 17.03,35.3 11.33,11.03 34.98,22.7 70.59,34.67l253.4 90.45c45.07,15.76 87.94,35.93 129.23,59.88 41.29,23.95 72.17,53.25 92.66,87.93 20.48,34.67 30.89,75.32 30.89,121.97 0,83.21 -31.84,151.92 -95.81,205.18 -75.02,62.72 -168.62,93.92 -280.5,93.92 -95.81,0 -179.35,-23.95 -250.56,-71.54l-25.85 50.74 -122.6 0 -113.46 -301 173.97 -73.42c43.5,67.76 97.39,120.7 161.06,159.47 63.67,38.78 122.28,58 175.87,58 33.1,0 60.82,-7.57 83.52,-23 17.34,-12.3 25.85,-26.8 25.85,-43.5 0,-14.18 -6.63,-27.43 -20.17,-40.34 -13.25,-12.93 -42.87,-27.43 -88.57,-43.5l-199.19 -69.35c-110,-38.44 -184.69,-79.73 -224.4,-123.54 -39.71,-44.12 -59.56,-96.14 -59.56,-156.33 0,-77.22 30.89,-142.14 92.98,-195.11 70.91,-60.19 158.21,-90.13 261.9,-90.13 92.35,0 171.15,20.49 237.02,61.77l23.95 -40.97zm1194.19 579.3l126.38 127.01c-72.49,82.58 -146.55,142.77 -221.89,179.65 -75.32,37.19 -156.95,55.78 -244.25,55.78 -140.26,0 -258.45,-47.28 -354.26,-142.14 -96.12,-94.86 -144.03,-209.27 -144.03,-343.85 0,-88.25 21.43,-168.93 64.62,-242.37 43.17,-73.44 103.06,-130.8 179.33,-172.09 76.58,-41.29 162.94,-62.09 259.71,-62.09 61.77,0 117.87,8.82 168.3,26.79 50.42,17.66 94.86,43.17 132.68,76.27 37.83,32.78 68.4,72.81 91.4,119.77 23.33,46.96 39.09,95.49 47.6,145.61 3.77,25.22 5.67,64.94 5.67,119.46l-622.15 0c1.26,77.85 24.26,140.87 68.71,188.78 44.43,48.23 99.28,72.18 163.57,72.18 41.29,0 86.36,-12.3 134.9,-36.88 48.54,-24.9 96.44,-62.09 143.72,-111.88zm-183.76 -267.27c-4.41,-36.56 -13.23,-65.24 -26.47,-86.04 -13.25,-21.12 -31.21,-37.81 -53.59,-50.43 -22.68,-12.28 -46.01,-18.59 -70.91,-18.59 -25.84,0 -50.74,6.31 -75.02,19.24 -23.95,12.6 -43.17,29.94 -57.66,52 -14.5,21.75 -23.95,49.81 -28.38,83.84l312.02 0zm852.86 -332.82l0 122.6c69.66,-47.28 129.54,-79.73 179.02,-96.76 49.81,-17.32 100.55,-25.84 152.54,-25.84 59.88,0 112.83,12.6 158.53,37.81 46.02,25.22 79.75,56.74 100.55,94.56 21.12,37.51 31.52,91.4 31.52,160.74l0 383.26c0,32.78 2.21,53.57 6.92,62.72 4.43,9.14 11.67,16.07 21.75,20.17 7.26,3.16 29.31,4.73 66.19,4.73l45.07 0 0 177.75 -540.84 0 0 -177.75c40.65,-0.64 63.67,-1.58 68.38,-2.85 15.45,-4.09 25.22,-11.33 30.26,-21.1 4.72,-9.77 7.24,-30.89 7.24,-63.36l0 -336.91c0,-43.5 -4.73,-71.55 -13.86,-84.47 -14.83,-21.44 -38.14,-32.15 -70.28,-32.15 -26.48,0 -54.85,5.67 -85.11,17.32 -30.25,11.67 -70.91,35.62 -121.97,71.86l0 364.34c0,39.71 4.41,64.29 13.25,73.44 8.5,9.14 29.62,13.88 62.72,13.88l29.94 0 0 177.75 -537.06 0 0 -177.75 26.79 0c42.23,0 68.4,-1.9 78.48,-5.36 10.09,-3.78 17.97,-10.4 23,-19.54 5.36,-9.14 7.89,-27.11 7.89,-54.22l0 -427.69 -136.16 0 0 -177.75c110.3,-13.88 213.68,-40.34 309.82,-79.43l85.4 0zm1448.87 20.8l491.68 0 0 177.77c-41.29,0.63 -65.57,1.88 -72.18,3.77 -10.71,2.85 -21.43,10.41 -33.1,22.07 -11.33,11.66 -23,29.94 -34.66,54.52l-302.57 662.81 -245.83 0 -314.86 -683.61c-7.57,-15.13 -17.02,-28.36 -28.99,-39.39 -9.14,-8.52 -19.54,-14.2 -30.59,-16.4 -7.55,-2.51 -30.25,-3.77 -68.08,-3.77l0 -177.77 565.44 0 0 177.77 -29.31 0c-36.25,0 -58.63,2.83 -67.13,8.19 -11.98,7.55 -17.66,17.02 -17.66,28.67 0,9.14 4.1,23.65 11.98,43.5l142.77 354.57 149.08 -354.25c8.82,-20.49 12.93,-35.62 12.93,-45.4 0,-12.28 -6.31,-21.75 -19.24,-27.74 -10.08,-5.04 -32.15,-7.55 -66.18,-7.55l-43.5 0 0 -177.77zm1077.27 -20.8c105.26,0 196.99,20.49 275.14,61.77 78.48,40.98 138.36,97.09 180.6,167.67 42.23,70.91 63.35,154.12 63.35,248.99 0,143.72 -46.64,260.33 -140.24,349.85 -93.61,89.5 -218.74,134.26 -375.06,134.26 -159.48,0 -286.17,-45.07 -380.41,-135.21 -91.1,-86.04 -136.8,-202.35 -136.8,-348.9 0,-96.12 20.81,-179.01 62.41,-248.36 41.6,-69.33 101.8,-125.11 180.6,-167.03 78.78,-41.92 168.93,-63.04 270.41,-63.04zm4.73 202.33c-35.3,0 -68.4,10.41 -99.28,31.21 -30.89,20.8 -54.85,51.37 -71.86,92.03 -17.03,40.34 -25.53,91.71 -25.53,154.43 0,64.29 8.19,117.56 24.89,159.8 16.71,42.23 40.03,73.74 69.35,93.92 29.31,20.17 61.46,30.26 96.75,30.26 54.52,0 101.17,-22.7 140.26,-68.4 38.76,-45.7 58.31,-116.61 58.31,-213.05 0,-92.98 -17.97,-162.94 -54.22,-209.92 -36.24,-46.96 -82.57,-70.28 -138.67,-70.28zm1068.75 -616.47l0 1081.03c0,36.25 1.58,58 4.73,64.62 4.09,12.3 13.54,21.43 28.36,26.79 9.13,3.78 34.03,5.68 74.69,5.68l32.15 0 0 177.75 -571.1 0 0 -177.75 34.98 0c36.88,0 60.53,-2.21 70.93,-6.94 10.4,-4.73 17.97,-11.98 23,-22.07 4.73,-10.4 7.24,-32.78 7.24,-68.08l0 -823.86 -136.16 0 0 -177.77c110.32,-7.55 224.1,-34.03 341.64,-79.41l89.52 0zm799.6 434.93l491.68 0 0 177.77c-41.29,0.63 -65.57,1.88 -72.18,3.77 -10.71,2.85 -21.43,10.41 -33.1,22.07 -11.33,11.66 -23,29.94 -34.66,54.52l-302.57 662.81 -245.83 0 -314.86 -683.61c-7.57,-15.13 -17.02,-28.36 -28.99,-39.39 -9.14,-8.52 -19.54,-14.2 -30.59,-16.4 -7.55,-2.51 -30.25,-3.77 -68.08,-3.77l0 -177.77 565.44 0 0 177.77 -29.31 0c-36.25,0 -58.63,2.83 -67.13,8.19 -11.98,7.55 -17.66,17.02 -17.66,28.67 0,9.14 4.1,23.65 11.98,43.5l142.77 354.57 149.08 -354.25c8.82,-20.49 12.93,-35.62 12.93,-45.4 0,-12.28 -6.31,-21.75 -19.24,-27.74 -10.08,-5.04 -32.15,-7.55 -66.18,-7.55l-43.5 0 0 -177.77zm848.45 -433.05c46.96,0 86.67,16.39 119.77,49.48 33.1,32.78 49.48,72.49 49.48,119.14 0,47.59 -16.39,87.62 -49.48,120.4 -33.1,33.08 -72.81,49.48 -119.77,49.48 -46.96,0 -86.67,-16.4 -119.77,-49.48 -33.1,-32.78 -49.48,-72.49 -49.48,-119.46 0,-46.01 17.03,-85.72 50.74,-119.45 34.05,-33.4 73.44,-50.11 118.51,-50.11zm150.34 412.25l0 681.08c0,32.47 1.88,52.64 5.67,59.88 3.48,7.26 10.09,12.93 19.86,17.03 9.45,4.09 30.89,5.99 64.29,5.99l50.11 0 0 177.75 -571.1 0 0 -177.75 48.86 0c31.84,0 52.32,-1.58 61.14,-5.05 8.84,-3.46 15.45,-9.13 19.86,-17.02 4.09,-7.87 6.29,-23.95 6.29,-47.91l0 -438.71 -136.16 0 0 -173.98c48.55,-2.51 95.19,-7.57 139.94,-15.76 44.45,-7.87 84.47,-17.64 119.46,-28.67 22.68,-7.26 50.74,-19.54 84.14,-36.88l87.62 0zm667.22 0l0 122.6c53.57,-41.29 108.1,-71.86 163.25,-92.35 55.47,-20.17 111.9,-30.25 168.95,-30.25 36.56,0 71.22,5.36 104.94,16.07 33.42,10.72 61.46,24.9 83.84,41.92 22.7,17.34 43.19,40.66 61.46,69.98 59.88,-45.38 116.93,-78.17 171.76,-98.02 54.85,-19.86 110.32,-29.94 167.05,-29.94 49.16,0 93.93,8.82 133.95,26.79 40.03,17.66 72.49,41.92 97.39,72.18 24.9,30.57 40.97,63.67 48.54,99.28 4.73,22.05 7.24,54.2 7.24,96.76l0 381.36c0,31.52 2.21,51.69 6.94,60.82 4.41,9.14 12.3,16.4 23,21.12 7.89,3.78 29.94,5.68 66.19,5.68l40.02 0 0 177.75 -537.06 0 0 -177.75c40.03,0 64.92,-1.9 75.64,-5.99 10.4,-4.1 17.97,-10.4 23,-19.24 4.73,-9.13 7.26,-28.67 7.26,-58.61l0 -334.4c0,-38.76 -2.53,-64.29 -7.89,-76.9 -5.36,-12.62 -15.44,-23.33 -30.57,-32.47 -15.13,-8.82 -33.1,-13.23 -53.9,-13.23 -24.26,0 -50.11,5.35 -77.85,16.07 -27.74,10.72 -68.71,34.35 -122.91,70.6l0 360.24c0,35.62 2.51,58 7.24,67.13 5.04,9.14 13.55,16.4 25.84,21.12 7.57,3.16 31.84,5.04 72.81,5.68l0 177.75 -506.81 0 0 -177.75c42.24,-0.64 67.77,-2.85 77.22,-6.31 9.14,-3.78 16.39,-10.4 21.12,-20.17 5.04,-10.08 7.57,-32.15 7.57,-67.13l0 -314.86c0,-48.54 -4.41,-80.68 -12.93,-96.44 -13.55,-23.95 -37.51,-35.93 -72.17,-35.93 -17.34,0 -35.3,2.21 -54.52,6.29 -19.24,4.41 -37.83,11.03 -56.42,20.17 -9.77,5.05 -34.98,21.12 -75.64,47.91l-21.43 13.88 0 358.98c0,34.35 1.88,55.78 5.67,64.29 3.48,8.5 10.72,15.44 21.44,21.12 10.71,5.35 29.3,8.19 55.78,8.19l24.9 0 0 177.75 -538.96 0 0 -177.75 35.93 0c38.14,0 61.78,-1.9 71.23,-5.99 9.45,-4.1 16.71,-11.04 21.75,-21.12 4.72,-10.09 7.24,-32.15 7.24,-66.5l0 -413.2 -136.16 0 0 -177.75c112.83,-10.72 216.84,-37.2 312.35,-79.43l86.67 0zm2305.5 600.09l126.38 127.01c-72.49,82.58 -146.55,142.77 -221.89,179.65 -75.32,37.19 -156.95,55.78 -244.25,55.78 -140.26,0 -258.45,-47.28 -354.26,-142.14 -96.12,-94.86 -144.03,-209.27 -144.03,-343.85 0,-88.25 21.43,-168.93 64.62,-242.37 43.17,-73.44 103.06,-130.8 179.33,-172.09 76.58,-41.29 162.94,-62.09 259.71,-62.09 61.77,0 117.87,8.82 168.3,26.79 50.42,17.66 94.86,43.17 132.68,76.27 37.83,32.78 68.4,72.81 91.4,119.77 23.33,46.96 39.09,95.49 47.6,145.61 3.77,25.22 5.67,64.94 5.67,119.46l-622.15 0c1.26,77.85 24.26,140.87 68.71,188.78 44.43,48.23 99.28,72.18 163.57,72.18 41.29,0 86.36,-12.3 134.9,-36.88 48.54,-24.9 96.44,-62.09 143.72,-111.88zm-183.76 -267.27c-4.41,-36.56 -13.23,-65.24 -26.47,-86.04 -13.25,-21.12 -31.21,-37.81 -53.59,-50.43 -22.68,-12.28 -46.01,-18.59 -70.91,-18.59 -25.84,0 -50.74,6.31 -75.02,19.24 -23.95,12.6 -43.17,29.94 -57.66,52 -14.5,21.75 -23.95,49.81 -28.38,83.84l312.02 0zm852.86 -332.82l0 122.6c69.66,-47.28 129.54,-79.73 179.02,-96.76 49.81,-17.32 100.55,-25.84 152.54,-25.84 59.88,0 112.83,12.6 158.53,37.81 46.02,25.22 79.75,56.74 100.55,94.56 21.12,37.51 31.52,91.4 31.52,160.74l0 383.26c0,32.78 2.21,53.57 6.92,62.72 4.43,9.14 11.67,16.07 21.75,20.17 7.26,3.16 29.31,4.73 66.19,4.73l45.07 0 0 177.75 -540.84 0 0 -177.75c40.65,-0.64 63.67,-1.58 68.38,-2.85 15.45,-4.09 25.22,-11.33 30.26,-21.1 4.72,-9.77 7.24,-30.89 7.24,-63.36l0 -336.91c0,-43.5 -4.73,-71.55 -13.86,-84.47 -14.83,-21.44 -38.14,-32.15 -70.28,-32.15 -26.48,0 -54.85,5.67 -85.11,17.32 -30.25,11.67 -70.91,35.62 -121.97,71.86l0 364.34c0,39.71 4.41,64.29 13.25,73.44 8.5,9.14 29.62,13.88 62.72,13.88l29.94 0 0 177.75 -537.06 0 0 -177.75 26.79 0c42.23,0 68.4,-1.9 78.48,-5.36 10.09,-3.78 17.97,-10.4 23,-19.54 5.36,-9.14 7.89,-27.11 7.89,-54.22l0 -427.69 -136.16 0 0 -177.75c110.3,-13.88 213.68,-40.34 309.82,-79.43l85.4 0zm1293.8 -295.01l0 315.81 296.89 0 0 196.67 -296.89 0 0 321.17c0,72.49 3.78,119.14 11.67,139.62 7.57,20.8 21.75,37.2 42.85,49.48 27.43,16.71 59.26,24.9 94.88,24.9 63.35,0 126.38,-20.49 189.1,-61.78l0 197.62c-53.59,25.21 -102.12,42.87 -145.3,53.27 -43.5,10.09 -90.45,15.13 -140.89,15.13 -57.36,0 -108.1,-7.26 -151.92,-21.75 -44.12,-14.5 -81.62,-34.98 -112.83,-61.78 -30.88,-26.79 -52.62,-55.15 -64.6,-85.4 -11.98,-30.26 -17.97,-73.76 -17.97,-131.12l0 -439.36 -136.16 0 0 -177.75c49.16,-16.08 91.08,-38.76 126.06,-68.4 34.67,-29.94 62.72,-65.55 84.16,-107.15 21.1,-41.92 35.61,-94.88 43.5,-159.17l177.43 0z"/>
    <path class="fil27" d="M37015.14 5848.57c105.26,0 196.99,20.49 275.14,61.77 78.48,40.98 138.36,97.09 180.6,167.67 42.23,70.91 63.35,154.12 63.35,248.99 0,143.72 -46.64,260.33 -140.24,349.85 -93.61,89.5 -218.74,134.26 -375.06,134.26 -159.48,0 -286.17,-45.07 -380.41,-135.21 -91.1,-86.04 -136.8,-202.35 -136.8,-348.9 0,-96.12 20.81,-179.01 62.41,-248.36 41.6,-69.33 101.8,-125.11 180.6,-167.03 78.78,-41.92 168.93,-63.04 270.41,-63.04zm4.73 202.33c-35.3,0 -68.4,10.41 -99.28,31.21 -30.89,20.8 -54.85,51.37 -71.86,92.03 -17.03,40.34 -25.53,91.71 -25.53,154.43 0,64.29 8.19,117.56 24.89,159.8 16.71,42.23 40.03,73.74 69.35,93.92 29.31,20.17 61.46,30.26 96.75,30.26 54.52,0 101.17,-22.7 140.26,-68.4 38.76,-45.7 58.31,-116.61 58.31,-213.05 0,-92.98 -17.97,-162.94 -54.22,-209.92 -36.24,-46.96 -82.57,-70.28 -138.67,-70.28zm2133.41 397.76l126.38 127.01c-72.49,82.58 -146.55,142.77 -221.89,179.65 -75.32,37.19 -156.95,55.78 -244.25,55.78 -140.26,0 -258.45,-47.28 -354.26,-142.14 -96.12,-94.86 -144.03,-209.27 -144.03,-343.85 0,-88.25 21.43,-168.93 64.62,-242.37 43.17,-73.44 103.06,-130.8 179.33,-172.09 76.58,-41.29 162.94,-62.09 259.71,-62.09 61.77,0 117.87,8.82 168.3,26.79 50.42,17.66 94.86,43.17 132.68,76.27 37.83,32.78 68.4,72.81 91.4,119.77 23.33,46.96 39.09,95.49 47.6,145.61 3.77,25.22 5.67,64.94 5.67,119.46l-622.15 0c1.26,77.85 24.26,140.87 68.71,188.78 44.43,48.23 99.28,72.18 163.57,72.18 41.29,0 86.36,-12.3 134.9,-36.88 48.54,-24.9 96.44,-62.09 143.72,-111.88zm-183.76 -267.27c-4.41,-36.56 -13.23,-65.24 -26.47,-86.04 -13.25,-21.12 -31.21,-37.81 -53.59,-50.43 -22.68,-12.28 -46.01,-18.59 -70.91,-18.59 -25.84,0 -50.74,6.31 -75.02,19.24 -23.95,12.6 -43.17,29.94 -57.66,52 -14.5,21.75 -23.95,49.81 -28.38,83.84l312.02 0z"/>
   </g>
  </g>
 </g>
</svg>
