<?xml version="1.0" encoding="UTF-8"?>
<!DOCTYPE svg PUBLIC "-//W3C//DTD SVG 1.1//EN" "http://www.w3.org/Graphics/SVG/1.1/DTD/svg11.dtd">
<!-- Creator: CorelDRAW 2020 (64 Bit) -->
<svg xmlns="http://www.w3.org/2000/svg" xml:space="preserve" width="296.191mm" height="70.0001mm" version="1.1" style="shape-rendering:geometricPrecision; text-rendering:geometricPrecision; image-rendering:optimizeQuality; fill-rule:evenodd; clip-rule:evenodd"
viewBox="0 0 43600.38 10304.26"
 xmlns:xlink="http://www.w3.org/1999/xlink"
 xmlns:xodm="http://www.corel.com/coreldraw/odm/2003">
 <defs>
  <style type="text/css">
   <![CDATA[
    .str0 {stroke:#373435;stroke-width:220.81;stroke-miterlimit:22.9256}
    .fil2 {fill:none}
    .fil3 {fill:#1886EF}
    .fil5 {fill:#75BB17}
    .fil4 {fill:#EECC25}
    .fil6 {fill:#F1401B}
    .fil7 {fill:#373435;fill-rule:nonzero}
    .fil0 {fill:#4967AF;fill-opacity:0.501961}
    .fil1 {fill:#4967AF;fill-rule:nonzero;fill-opacity:0.501961}
   ]]>
  </style>
 </defs>
 <g id="Camada_x0020_1">
  <metadata id="CorelCorpID_0Corel-Layer"/>
  <g id="_1869434319392">
   <g>
    <path class="fil0" d="M6608.9 3.56c341.7,-107.81 -1183.59,2272.67 -1378.15,2456.55 -300.44,280.69 -664.65,652.51 -1053.18,806.25 2.19,-115.42 533.73,-429.04 624.78,-508.94 628.59,-562.77 737.65,-925.57 1028.58,-1569.73 93.8,-199.28 223.5,-386.44 337.15,-574.77 43.16,-71.11 337.24,-634.4 440.82,-609.35z"/>
    <path class="fil0" d="M6470.28 412.6c220.05,-60.27 -1440.11,2295.71 -1712.74,2521.98 -233.38,191.64 -477.76,370.81 -732.94,532.36 -111.23,70.16 -234.1,159.63 -362,197.06 1.12,-62.83 290.01,-205.95 336.42,-237.4 103.25,-69.73 205.36,-141.33 304.21,-217.2 676.59,-530.45 824.21,-912.71 1179.22,-1546.34 120.71,-208 278.01,-400.36 420.12,-593.94 55.38,-75.16 458.13,-694.49 567.72,-656.53z"/>
    <path class="fil0" d="M6348.69 479.47c-15.19,1084.4 -1682.4,2274.68 -2454.49,2781.69 -210.8,137.27 -428.1,264.42 -652.36,378.43 -121.56,61.32 -908.02,485.42 -1018.01,368.2 218.55,-132.39 498.39,-185.34 730.29,-295.89 310.94,-150.97 609.61,-327.32 891.45,-527.44 612.69,-435.28 1028.51,-989.84 1488.62,-1570.91 193.97,-243.47 393.15,-482.42 584,-728.45 39.11,-50.26 447.78,-494.54 430.5,-405.62z"/>
    <path class="fil0" d="M6110.46 931.16c-149.4,951.38 -1471.09,1892.71 -2187.33,2375.67 -378.31,253.41 -778.56,475.36 -1201.19,645.87 -304.58,121.44 -640.47,240.63 -970.76,258.47 -9.88,0.65 -54.64,8.02 -61.25,-3.87 18.33,-7.82 37.79,-13.12 56.97,-18.34 229.83,-64.99 462.62,-110.54 687.82,-192.65 508.38,-190.64 996.3,-456.27 1420.51,-796.62 404.59,-322.83 729.17,-736.39 1075.92,-1117.72 224.13,-245.06 453.55,-485.11 675.99,-731.82 55.04,-60.96 529.27,-496.59 503.32,-419z"/>
    <path class="fil0" d="M5879.14 1061.13c-439.98,854.93 -1282.79,1548.45 -2069.08,2067.28 -602.77,394.4 -1270.94,722.52 -1984.43,852.31 -38.3,6.76 -76.72,12.87 -115.26,18.24 -78.49,11.26 -779.5,-12.44 -768.55,-17.61 253.28,-21.86 503.69,-1.05 756.77,-43.69 1.49,-0.24 3.02,-0.5 4.5,-0.75 741.67,-134.15 1430.61,-483.42 2015.3,-953.13 376.94,-300.3 727.82,-635.6 1070.73,-973.66 255.02,-250.73 507.28,-503.26 754.4,-761.84 41.92,-43.81 504.53,-478.81 335.61,-187.15z"/>
    <path class="fil0" d="M5546.1 1533.11c-416.47,663.55 -1066.95,1204.96 -1708.1,1639.36 -635.83,429.26 -1349.22,782.7 -2111.37,911 -154.77,25.92 -311.17,42.14 -468.12,45.27 -181.12,2.9 -362.68,-11.75 -539.96,-49.8 -35.73,-7.67 -345.22,-125.27 -333.27,-127.23 114.6,18.58 226.58,52.65 340.86,73.59 134.53,24.63 270.77,39.64 407.64,40.19 194.18,-0.38 387.59,-21.73 578.19,-58.23 763.72,-151.81 1405.62,-547.23 2003.98,-1027.3 213.24,-169.4 422.75,-343.54 628.59,-521.84 282.12,-243.74 561.11,-489.97 835.54,-742.38 48.33,-44.46 572,-478.78 366.02,-182.62z"/>
    <path class="fil0" d="M5462 1434.9c-473.08,619.08 -1084.61,1138.16 -1737.07,1559.15 -619.37,396.95 -1313.88,725.2 -2049.6,822.46 -214.74,29.06 -432.51,37.27 -648.12,12.75 -89.78,-10.67 -178.84,-27.85 -265.95,-52.1 -45.13,-12.41 -323.13,-141.39 -266.94,-138.12 93.17,19.12 184.15,47.93 276.54,70.38 101.36,25.05 204.11,44.22 308.39,51.52 193.75,11.84 387.84,-0.93 579.41,-31.19 725.83,-116.19 1370.43,-480.72 1957.54,-907.24 319.86,-231.79 627.25,-480.8 925.04,-740.23 273.22,-237.4 540.5,-480.49 806.54,-725.87 233.91,-214.53 330.59,-191.53 114.23,78.5z"/>
    <path class="fil1" d="M5078.22 1904.52c-385.28,437.24 -838.34,815.2 -1322.49,1138.15 -621.58,412.41 -1319.74,750.96 -2062.98,864.54 -314.06,48.05 -636.33,54.41 -947.93,-13.85 -80.68,-17.61 -160.19,-40.29 -237.85,-68.38 -71.2,-26.29 -539.12,-223.19 -505.2,-331.27 6.46,-6.54 20.02,0.1 27.11,2.78 180.84,97.2 346.99,212.66 545.32,274.2 59.79,17.84 120.41,32.69 181.66,44.6 303.31,58.68 614.62,45.94 917.15,-10.75 724.26,-140.14 1364.83,-537.12 1960.65,-954.47 154.08,-107.8 305.79,-219.01 455.27,-333.09 297.76,-226.99 589.26,-460.75 879.42,-697.3 261.57,-212.34 357.91,-184.83 109.87,84.83z"/>
    <path class="fil0" d="M2829.27 1656.51c-35.8,-181.19 493.29,92.18 526.19,117.73 80.24,64.99 144.97,147.98 175.07,247.8 16.8,56.92 21.2,116.56 14.48,175.45 -6.9,65.27 -27.47,128.08 -56.48,186.76 -41.08,82.96 -97.63,157.54 -169.46,216.27 -68.85,54.97 -148.82,93.69 -234.29,114.79 -26.79,6.57 -53.98,11.41 -81.37,14.59 -138.97,15.52 -279.85,-12.04 -408,-66.06 -81.43,-34.67 -189.27,-84.51 -243.47,-158.7 31.93,-14.48 219.39,114.42 256.43,128.82 37.92,14.72 76.77,27.13 116.47,36.08 115.01,24.88 235.97,26.72 349.15,-8.16 75.99,-23.58 146.38,-63.11 203.35,-118.94 53.55,-55.26 113.2,-143.8 95.37,-225.96 -11.56,-54.07 -49.31,-113.04 -69.47,-165.25 -1.56,-5.06 -3.31,-10.08 -5.11,-15.06 -7.43,-21.4 -14.6,-42.53 -25.63,-62.44 -26.25,-47.34 -65.81,-85.98 -106.28,-121.21 -2.61,-2.22 -5.23,-4.43 -7.85,-6.65 -40.58,-34.22 -351.48,-232.14 -329.1,-289.86z"/>
    <path class="fil0" d="M3079.91 1764.51c-24.85,-128.55 232.43,0.06 264.08,20.55 85.23,58 153.55,138.5 187.05,236.88 18.96,56.85 25.02,117.04 19.73,176.64 -5.08,66.52 -24.47,130.97 -52.67,191.22 -40.11,85.83 -96.52,163.25 -168.84,224.76 -70.14,58.06 -152.12,99.35 -240.04,122.66 -152.64,39.88 -313.53,24.49 -461.92,-25.32 -15.29,-5.21 -30.46,-10.8 -45.47,-16.74 -158.24,-62.52 -303.93,-162.97 -415.44,-291.79 -31.56,-36.65 -68.36,-79.08 -84.85,-125.49 23.58,-2.58 89.44,92.78 104.28,108.06 63.83,65.21 134.34,124.5 212.49,171.89 64.02,38.08 131.91,69.77 202.65,93.19 148.35,49.45 325.05,69.85 470.8,-0.07 111.4,-53.73 94.75,-116.67 128.27,-214.67 7.4,-25.97 17.47,-51.14 26.98,-76.37 13.44,-34.53 29.85,-67.73 42.38,-102.67 12.39,-34.7 20.95,-70.94 21.2,-107.93 0.6,-19.53 -1.24,-39.01 -5.43,-58.09 -1.41,-6.24 -2.97,-12.47 -4.77,-18.61 -16.19,-55.32 -47.43,-104.32 -82.63,-149.43 -16.78,-21.67 -132.41,-128.27 -117.85,-158.7z"/>
    <path class="fil0" d="M3110.61 1840.56c45.44,1.38 90.68,20.49 129.77,42.38 65.83,38.85 122.24,95.33 150.37,167.37 14.88,38.66 20.42,80.09 17.81,121.35 -2.3,50.2 -16.68,98.92 -37.51,144.42 -30.79,67.24 -73.79,128.48 -129.83,177.06 -53.1,44.69 -115.3,76.53 -182.24,94.65 -137.81,36.77 -283.87,15.28 -415.14,-35.73 -138.4,-53.99 -263.69,-141.07 -364.42,-250.11 -70.97,-77.52 -129.89,-166.6 -167.05,-265.23 -14.37,-38.46 -25.04,-78.34 -31.49,-118.9 -19.49,-141.27 5.74,-312.06 96.77,-427.15 2.61,-3.18 10.05,-13.98 15.4,-12.59 -1.21,6.08 -3.22,12 -5.26,17.84 -46.34,126.93 -91.15,247.07 -74.43,385.35 1.27,9.63 2.74,19.24 4.47,28.79 27.98,136.52 103.87,258.19 201.68,355.89 98.91,97.23 222.91,174.73 359.22,205.55 118.48,27.66 241.31,14.51 347.21,-46.9 39.23,-22.37 74.34,-51.09 103.47,-85.66 6.59,-8.35 12.84,-16.96 18.78,-25.76 20.52,-30.21 38.85,-61.52 53.77,-94.9 11.42,-25.83 20.37,-53.2 22.08,-81.57 1.34,-17.46 -0.44,-34.81 -5.09,-51.68 -1.85,-6.65 -4.08,-13.22 -6.59,-19.65 -14.34,-36.4 -35.33,-69.58 -57.64,-101.54 -8.41,-12.22 -106.85,-138.86 -44.13,-123.3z"/>
    <path class="fil0" d="M3305.59 1995.2c27.14,11.81 48.74,34.61 64.24,59.35 21.62,34.65 31.32,75.29 32.18,115.88 2.63,50.52 -9.27,100.7 -28.04,147.35 -28.15,70.05 -69.83,134.07 -125.37,185.51 -53.57,47.8 -117.2,82.2 -185.98,102.48 -141.59,41.31 -293.07,21.83 -429.64,-28.59 -143.66,-53.26 -274.23,-140.81 -379.89,-251.57 -105.18,-111.51 -186.95,-248.14 -215.2,-400.16 -11.7,-71.56 -12.19,-144.36 -1.18,-216.04 13.54,-86.72 43.81,-170.4 86.14,-247.15 17.59,-31.55 171.32,-276.58 225.18,-248.98 -56.32,94.09 -142.49,165.5 -194.93,264.66 -14.68,27.92 -27.67,56.79 -38.41,86.45 -39.77,112.4 -51.98,233.41 -28.65,350.73 32.15,141.18 113.61,266.22 221.17,361.88 109.55,94.92 240.24,150.75 383.88,166.07 98.13,12.26 201.62,12.17 296.82,-17.27 12.04,-3.75 24.05,-7.67 35.84,-12.14 41.04,-15.28 79.12,-36.89 112.15,-65.79 36.54,-33.05 65.4,-73.26 88.96,-116.36 3.5,-6.46 6.9,-13 10.11,-19.62 10.61,-21.98 19.59,-44.68 26.7,-68.04 6.45,-22.86 10.42,-46.24 12.23,-69.91 1.18,-17.21 -7.55,-107.75 31.66,-78.75z"/>
    <path class="fil0" d="M3270.83 2095.22c9.8,16.32 15.22,34.75 17.24,53.63 5.71,37.15 -2.68,75.25 -15.69,109.99 -20.83,55.1 -51.68,106.24 -94.22,147.31 -39.94,37.04 -87.81,63.64 -139.83,79.5 -116.53,35.15 -242.4,16.09 -354.35,-26.14 -125.56,-47.56 -239.21,-125.76 -330.83,-223.69 -86.57,-93.53 -155.65,-207.81 -177.75,-334.71 -19.39,-129.55 10.63,-259.64 73.88,-373.32 33.36,-59.23 75.07,-113.55 122.64,-162.07 45.88,-46.56 97.42,-87.64 152.71,-122.52 21.9,-13.73 220.5,-87.44 216.45,-80.95 -61.78,41.47 -132.34,68.94 -194.76,109.93 -36.8,24.26 -71.95,51.18 -104.06,81.42 -59.79,57.11 -111.62,123.08 -149.69,196.6 -53.79,104.81 -77.89,224.24 -52.67,340.5 27.7,111.17 100.16,206.56 187.29,278.69 91.83,74.06 201.83,125.42 316.4,152.62 71.26,17.59 147.03,26.22 219.69,12.16 14.26,-2.8 28.42,-6.14 42.29,-10.51 29.68,-9.3 57.41,-23.41 81.8,-42.75 29.63,-24.01 53.29,-54.22 73.03,-86.66 4.68,-7.73 9.16,-15.6 13.37,-23.58 6.87,-13.1 13.06,-26.56 19.87,-39.7 7.2,-15.6 14.54,-31.78 24.66,-45.78 10.29,-14.34 25.08,-21.24 39.82,-8.04 5.53,4.92 9.66,11.39 12.73,18.08z"/>
    <path class="fil0" d="M3240.73 2299.55c-13.26,39.69 -34.09,76.46 -61.47,108.11 -37.92,41.29 -85.79,71.39 -138.47,90.16 -118.7,42.16 -250.26,25.88 -366.86,-15.1 -130.91,-45.82 -249.88,-124.65 -346.27,-224.04 -93.11,-97.27 -167.13,-216.85 -192.79,-350.39 -23.16,-138.83 6.04,-279.14 71.59,-402.7 66.86,-124.55 166.83,-229.65 282.95,-309.5 23.36,-15.99 47.38,-31.02 72.06,-44.9 97.1,-54.38 205.14,-93.24 316.15,-105.03 10.51,-1.13 118.23,2.53 108.87,9.76 -33.47,9.04 -68.29,13.25 -102.29,19.81 -86.38,16.62 -171.09,41.53 -249.51,81.99 -41.29,21.67 -80.96,46.5 -118.59,74.04 -107.09,78.71 -199.49,180.55 -256.72,301.24 -52.92,112.39 -72.63,239.88 -38.07,360.65 36.23,111.57 117.14,202.42 207.54,274.24 92.71,71.72 198.84,128.39 311.01,162.72 5.31,1.66 10.69,3.21 16.03,4.75 82.83,24.01 170.71,39.27 256.3,21.06 28.51,-6.21 55.88,-16.32 81.62,-30.04 6.34,-3.4 12.62,-6.98 18.78,-10.69 32.93,-19.53 84.49,-76.49 124.56,-77.08 4.83,0 8.76,1.83 11.16,6.24 8.52,15.49 -1.55,40.32 -7.58,54.69z"/>
    <path class="fil0" d="M3177.77 2247.94c-13.51,30.35 -31.28,58.73 -54.19,82.92 -29.09,29.25 -64.65,50.39 -103.79,63.18 -97.21,31.49 -204.17,12.82 -297.47,-22.98 -111.98,-43.13 -213,-114.39 -293.67,-202.99 -72.16,-79.98 -131.35,-177.72 -147.6,-285.66 -13.66,-105.69 15.49,-211.5 69.02,-302.39 59.68,-99.7 146.57,-181.74 245.37,-242.13 48.06,-29.12 99.16,-53.17 152.49,-70.98 55.39,-18.16 113.88,-29.4 172.3,-29.28 7.8,-0.04 113.76,10.53 79.03,26.97 -23.18,5.43 -46.96,8.13 -70.55,11.1 -62.02,7.51 -123.49,17.11 -181.84,40.44 -41.98,17.33 -82.3,38.54 -120.41,63.22 -89.25,58.2 -168.15,136.03 -218.16,230.83 -41.66,79.92 -60.56,171.3 -38.66,259.92 24.27,84.88 85.91,158.2 150.35,215.99 75.68,66.46 164.75,119.01 260.17,151.5 40.27,13.82 82.08,23.89 124.59,27.23 29.44,2.3 59.19,2.46 88.34,-2.72 22.46,-4.09 44.13,-11.56 63.87,-23.13 17.37,-10.02 32.86,-22.79 47.19,-36.74 8.61,-8.43 16.93,-17.18 25.26,-25.89 40.33,-41.36 80.03,-24.89 62.62,35.87 -3.65,12.28 -8.52,24.29 -14.28,35.73z"/>
    <path class="fil1" d="M3056.61 2390.1c-11,6.34 -22.49,11.78 -34.27,16.5 -99.2,40.01 -212.71,24.11 -311.03,-10.14 -117.94,-41.07 -224.82,-112.92 -310.83,-203.11 -79.39,-84.23 -143.77,-187.71 -164.21,-303 -17.72,-115.95 10.41,-232.99 66.95,-334.61 61.09,-108.52 151.62,-199.05 255.35,-267.16 103.37,-67.29 221.51,-114.36 344.66,-127.33 18.55,-2.02 37.21,-3.21 55.88,-3.52 32.59,-0.35 252.82,18.87 241.41,80.76 -2.09,4.12 -6.9,4.39 -11.11,4.5 -83.82,-16.07 -159.27,-45.53 -246.67,-38.54 -9.73,0.9 -19.46,2.02 -29.15,3.39 -114.8,15.99 -224.32,62.55 -318.78,129.22 -92.31,65.7 -172.01,152.41 -219.33,256.12 -39.92,88.01 -53.48,186.46 -26.73,280.26 28.65,87.32 91.02,163.48 156.93,225.52 60.72,56.19 129.54,103.81 203.69,140.52 19.18,9.51 38.6,18.58 58.34,26.88 74.28,31.13 154.43,51.71 235.48,45.62 7.12,-0.59 14.25,-1.38 21.33,-2.34 23.95,-3.28 55.83,-13.51 79.74,-5.4 7.35,3.02 11.91,9.14 12.42,17.12 -0.12,31.05 -36.02,56.28 -60.07,68.76z"/>
    <path class="fil0" d="M222.34 10299.44c-306.95,25.61 885.34,-1876.2 978.58,-1986.16 139.23,-163.73 289.3,-318.28 452.93,-457.79 159.48,-135.03 332.4,-255.15 518.38,-350.84 155.45,-79.46 356.63,-178.79 536.81,-175.75 -23.51,68.58 -440.89,183.15 -513.24,222.73 -47.78,26.32 -94.59,54.41 -140.08,84.51 -296.48,200.42 -570.02,462.17 -761.76,766.5 -147.45,230.09 -71.07,433.51 -171.85,673.62 -92.41,211.94 -226.22,414.17 -349.99,608.72 -46.55,72.75 -427.21,679.06 -549.78,614.46z"/>
    <path class="fil0" d="M444.45 9892.47c-262.52,58.69 659.1,-1497.9 738.89,-1596.05 261.76,-321.92 567.7,-612.6 929.46,-819.56 11.81,-6.68 23.67,-13.29 35.58,-19.77 331.05,-178.69 823.26,-353.97 1202.15,-233.77 -70.47,81.24 -635.05,67.77 -769.26,113.88 -138.83,49.14 -272.08,113.26 -397.92,189.64 -553.15,344.82 -495.97,578.8 -717.37,1041.08 -4.47,8.82 -8.86,17.74 -13.5,26.5 -114.3,210.85 -264.29,408.71 -400.58,605.62 -55.82,80.46 -484.2,745.14 -607.45,692.43z"/>
    <path class="fil0" d="M575.95 9826.8c47.36,-480.8 485.62,-1014.84 777.4,-1367.06 255.02,-308.67 553.03,-588.09 905.65,-781.94 361.18,-195.35 767.75,-281.91 1175.96,-220.35 82.89,12.75 165.13,29.65 246.24,50.98 245.01,64.93 479.87,173.14 682.88,325.6 24.63,18.34 214.33,148.2 198,190.5 -79.68,-38.99 -149.74,-103.79 -223.04,-153.22 -128.98,-87.07 -265.54,-163.28 -411.24,-218.6 -162.48,-60.59 -332.22,-100.48 -504.22,-121.97 -388.4,-45.81 -782.17,45.85 -1100.42,275.03 -295.58,218.29 -509.04,548.88 -725.71,839.97 -7.02,9.39 -14.18,18.72 -21.24,28.09 -182.92,236.5 -361.19,476.04 -539.37,716.12 -48.14,64.68 -484.11,518.94 -460.89,436.87z"/>
    <path class="fil0" d="M841.09 9350.95c49.89,-324.38 306.3,-652.71 500.89,-902.14 247.67,-320.11 544.74,-607.77 897.81,-809.34 368.01,-206.36 784.45,-299.72 1204.57,-242.43 279.64,39.54 551.78,124.84 798.64,263.01 57.44,32.3 113.3,67.46 167.37,105.12 80.01,55.72 651.02,488.41 586.68,614.43 -204.6,-151.15 -347.93,-374.84 -560.3,-524.12 -19.78,-13.73 -39.82,-27.16 -60.06,-40.19 -285.68,-182.52 -609.91,-291.29 -946.99,-323.8 -413.49,-36.15 -772.63,95.73 -1083.42,360.37 -143.04,124.25 -278.85,257.41 -409.71,394.34 -129.02,134.23 -257.8,268.12 -380.57,408.2 -72.63,82.54 -143.69,166.46 -214.61,250.47 -57.78,68.35 -525.68,522.22 -500.3,446.09z"/>
    <path class="fil0" d="M1075.73 9207.09c108.19,-223.85 248.39,-432.82 402.34,-627.54 235.54,-300.44 517.58,-571.81 852.56,-758.88 331.21,-182.24 704.29,-264.44 1080.47,-209.68 313.48,47.22 613.59,158.44 873.71,340.97 170.36,119.54 320.27,265.28 452.72,425.39 47.08,57.17 91.8,116.36 134.63,176.79 32.12,45.28 309.89,539 299.1,533.48 -135.06,-147.47 -227.59,-335.39 -345.94,-496.06 -21.45,-29.12 -43.47,-57.88 -66.21,-86.01 -150.54,-184.4 -321.45,-353.04 -520.94,-484.2 -254.34,-165.6 -545.04,-258.81 -846.99,-282.13 -349,-22.4 -667.63,103.94 -953.07,295.85 -131.56,89.78 -255.16,190.85 -373,297.87 -144.67,130.98 -284.32,266.75 -418,408.99 -80.96,86.19 -159.76,174.36 -238.63,262.46 -43.01,48.06 -499.39,507.45 -332.75,202.7z"/>
    <path class="fil0" d="M1394.86 8722.5c27.44,-47.3 57.03,-93.36 87.78,-138.56 213.75,-320.45 497.55,-602.8 830.37,-798.4 336.9,-194.51 719.49,-283.68 1107.15,-232.77 323.66,44.41 634.15,155.31 905.32,338.7 240.41,163.59 442.08,375.56 616.09,607.29 62.89,83.73 122.52,169.9 179.85,257.52 43.07,66.04 423.74,738.28 412.7,733.29 -166.84,-169.46 -271.68,-405.03 -402.59,-601.4 -78.89,-117 -160.58,-232.27 -248.35,-342.81 -174.67,-219.6 -375.31,-420.43 -615.87,-567.35 -266.31,-159.41 -566.22,-235.76 -875.05,-245.65 -343.15,-6.18 -670.76,112.26 -961.37,288.31 -1.24,0.75 -2.47,1.55 -3.69,2.31l-693.64 536.48c-47.22,43.19 -94.68,86.2 -143.14,128.01 -71.53,62.31 -350.01,272.25 -195.56,35.03z"/>
    <path class="fil0" d="M1481.79 8818.18c33.06,-46.32 67.39,-91.78 102.56,-136.52 224,-287.86 493.37,-547.83 814.55,-724.76 303.31,-164.59 644.04,-237.65 986.95,-183.46 288.52,46.77 563.44,152.81 800.35,325.22 213.89,155.64 389.68,355.58 540.24,571.83 98.3,141.18 186.85,288.99 271.3,438.8 54.79,97.61 270.96,573.71 261.93,565.63 -144.8,-169.58 -234.7,-380.31 -348.87,-570.09 -79.18,-129.88 -161.36,-258.14 -251.34,-380.84 -149.91,-203.86 -323.51,-392.18 -536.23,-531.63 -229.65,-148.63 -492.42,-226 -763.75,-249.16 -304.06,-21.65 -595.03,70.73 -857.12,220.02 -79.62,45.84 -156.43,96.55 -230.82,150.44 -201.99,146.07 -389.57,308.77 -570.16,480.4 -34.75,33.22 -69.23,66.77 -103.84,100.13 -224.56,216.43 -320.52,196.34 -115.75,-76.02z"/>
    <path class="fil1" d="M1813.91 8393.07c163.04,-185.52 352.04,-349.87 565.64,-474.76 309.22,-178.54 660.91,-259.42 1016.34,-209.47 299.57,43.91 586.3,149.37 834.98,323.35 223.73,156.54 409.14,359.62 569.34,579.39 208.84,286.97 378.84,599.6 560.4,903.89 44.47,74.66 378.4,499.99 343.91,567.88 -8.33,5.24 -21.99,-6.57 -28.44,-11.13 -171.37,-154.96 -282.73,-367.7 -403.62,-561.27 -178,-282.19 -344.91,-573.25 -550.97,-836.5 -160.36,-204.29 -346.27,-389.85 -570.27,-523.76 -240.22,-140.74 -511.36,-211.77 -787.44,-235.32 -252.91,-18.55 -502.42,32.25 -734.49,132.35 -50.61,21.84 -100.6,45.12 -149.76,70.02 -199.78,101.67 -382.23,230.34 -560.67,365.17 -226.05,170.45 -318.03,139.86 -104.97,-89.84z"/>
    <path class="fil2 str0" d="M2452.63 4800.88c-243.74,128.13 -454.12,287.59 -608.95,461.62"/>
    <path class="fil3" d="M1663.81 5178.47c-302.09,-33.18 -579.1,232.38 -618.73,593.14 -39.63,360.78 173.14,680.12 475.23,713.3 302.09,33.19 579.1,-232.36 618.73,-593.13 39.63,-360.78 -173.14,-680.14 -475.23,-713.32z"/>
    <path class="fil4" d="M3007.75 4100.38c-295.14,-32.41 -565.79,227.03 -604.51,579.5 -38.71,352.48 169.15,664.48 464.31,696.91 295.14,32.41 565.78,-227.03 604.49,-579.51 38.71,-352.46 -169.15,-664.48 -464.29,-696.89z"/>
    <path class="fil5" d="M3163.7 5596.45c-324.13,-35.61 -621.36,249.33 -663.87,636.43 -42.53,387.09 185.77,729.75 509.91,765.35 324.13,35.59 621.36,-249.33 663.87,-636.43 42.51,-387.1 -185.77,-729.76 -509.91,-765.35z"/>
    <path class="fil2 str0" d="M4128.57 4734.78c-228.15,-139.75 -568.72,-189.26 -951.86,-138.34"/>
    <path class="fil6" d="M4410.58 4580.4c-302.09,-33.19 -579.1,232.36 -618.73,593.14 -39.64,360.77 173.13,680.12 475.22,713.3 302.09,33.18 579.1,-232.38 618.74,-593.14 39.63,-360.77 -173.14,-680.12 -475.23,-713.3z"/>
    <path class="fil2 str0" d="M1624.46 5973.62c98.77,264.22 436.71,413.55 887.2,392.08"/>
    <path class="fil2 str0" d="M3345.58 6154.58c396.45,-181.96 708.2,-453.78 842.06,-734.22"/>
   </g>
   <g>
    <path class="fil7" d="M7417.77 6216.98l1534.7 0 209.74 584.18 -238.98 85.95c-40.51,-95.86 -87.76,-172.82 -141.77,-230.87 -54.01,-58.51 -113.86,-97.21 -179.12,-116.57 -65.27,-18.9 -141.77,-28.35 -228.64,-28.35l-280.83 0 0 461.76 91.35 0c68.42,0 114.77,-4.95 138.62,-15.31 23.86,-9.89 40.95,-26.1 51.32,-47.69 10.35,-21.61 15.75,-64.36 15.75,-128.73l0 -70.2 237.63 0 0 777.71 -237.63 0 0 -79.67c0,-54.01 -6.3,-93.61 -18.9,-118.37 -12.6,-24.74 -29.71,-41.85 -51.32,-50.4 -22.05,-9.01 -70.2,-13.5 -144.92,-13.5l-81.9 0 0 422.61c0,44.56 2.25,72.01 6.74,81.9 4.06,9.45 13.06,17.11 25.66,22.05 12.6,5.4 40.05,8.11 82.36,8.11l154.37 0c115.22,0 211.97,-16.66 291.18,-49.52 79.22,-33.3 149.88,-86.85 211.53,-160.22 62.11,-73.81 109.81,-161.57 143.13,-262.83l240.78 82.82 -241.24 684.08 -1589.61 0 0 -253.84 45.9 0c61.66,0 103.07,-4.49 124.22,-13.04 21.15,-9.01 36.01,-24.3 44.56,-46.37 4.49,-13.04 6.74,-50.4 6.74,-112.05l0 -1002.74c0,-54.47 -3.59,-90.47 -11.25,-107.12 -7.2,-16.65 -18.9,-29.25 -35.11,-37.36 -15.75,-8.54 -46.81,-12.6 -93.17,-12.6l-81.9 0 0 -253.82zm2834.92 523.87l172.38 0 106.66 366.8 -248.44 100.36c-47.25,-75.62 -106.66,-135.03 -178.22,-178.23 -71.56,-43.2 -142.67,-64.8 -212.89,-64.8 -46.35,0 -81.01,7.64 -103.96,23.39 -22.95,15.31 -34.21,34.21 -34.21,55.82 0,18 8.11,35.09 24.3,50.4 16.21,15.75 49.96,32.4 100.82,49.5l361.84 129.17c64.36,22.51 125.56,51.3 184.53,85.51 58.95,34.21 103.06,76.06 132.31,125.56 29.26,49.5 44.12,107.56 44.12,174.17 0,118.82 -45.46,216.93 -136.83,292.99 -107.11,89.56 -240.78,134.12 -400.56,134.12 -136.81,0 -256.08,-34.21 -357.79,-102.16l-36.9 72.45 -175.07 0 -162.03 -429.8 248.44 -104.87c62.11,96.76 139.06,172.38 229.98,227.74 90.91,55.35 174.63,82.8 251.13,82.8 47.27,0 86.86,-10.8 119.28,-32.86 24.74,-17.55 36.9,-38.26 36.9,-62.11 0,-20.26 -9.45,-39.16 -28.81,-57.6 -18.9,-18.46 -61.21,-39.16 -126.46,-62.12l-284.44 -99.01c-157.08,-54.91 -263.74,-113.86 -320.45,-176.42 -56.7,-63 -85.05,-137.27 -85.05,-223.23 0,-110.26 44.1,-202.98 132.76,-278.58 101.26,-85.97 225.93,-128.71 374,-128.71 131.86,0 244.39,29.25 338.45,88.2l34.2 -58.5zm1081.05 -29.71l0 148.51c100.36,-62.55 176.88,-102.62 229.98,-121.06 53.11,-18.46 110.27,-27.45 170.58,-27.45 153.92,0 279.04,56.7 375.8,169.67 110.71,129.63 166.07,295.25 166.07,496.41 0,192.63 -48.15,354.2 -144.92,483.81 -110.71,149.88 -259.23,224.59 -445.56,224.59 -59.85,0 -112.07,-6.76 -157.07,-20.26 -44.56,-13.5 -93.62,-38.26 -146.28,-74.26l0 266.89c0,53.1 2.71,85.05 8.1,95.4 5.86,13.51 15.77,22.96 29.71,28.81 13.51,5.86 47.71,8.55 102.62,8.55l62.11 0 0 253.84 -818.2 0 0 -253.84 44.56 0c59.85,0 96.32,-2.25 108.92,-7.2 12.6,-4.95 22.49,-14.85 29.69,-30.16 7.65,-15.29 11.26,-46.8 11.26,-94.06l0 -1175.55 -194.43 0 0 -259.23c94.5,-11.26 175.07,-25.66 241.68,-42.76 66.15,-16.65 133.68,-40.51 202.08,-70.66l123.31 0zm48.61 413.16l0 425.76c0,67.05 6.3,114.76 18.9,143.11 13.06,27.91 35.11,50.86 66.17,68.86 31.05,17.56 67.05,26.56 107.56,26.56 71.1,0 130.07,-32.4 176.86,-97.67 47.27,-65.26 70.66,-164.26 70.66,-297.48 0,-123.31 -20.24,-214.68 -61.21,-274.53 -40.95,-59.41 -91.35,-89.12 -150.77,-89.12 -68.86,0 -144.92,31.5 -228.18,94.52zm2304.31 443.76l180.47 181.37c-103.51,117.91 -209.26,203.88 -316.84,256.53 -107.56,53.11 -224.13,79.67 -348.8,79.67 -200.27,0 -369.04,-67.51 -505.86,-202.98 -137.27,-135.47 -205.67,-298.84 -205.67,-491.01 0,-126.02 30.6,-241.24 92.27,-346.1 61.65,-104.85 147.16,-186.77 256.08,-245.73 109.37,-58.95 232.68,-88.66 370.85,-88.66 88.22,0 168.33,12.6 240.34,38.26 72.01,25.2 135.47,61.65 189.47,108.92 54.01,46.8 97.67,103.96 130.53,171.02 33.3,67.05 55.8,136.37 67.96,207.92 5.39,36.01 8.1,92.71 8.1,170.56l-888.42 0c1.8,111.17 34.65,201.18 98.11,269.59 63.46,68.86 141.77,103.07 233.58,103.07 58.95,0 123.31,-17.56 192.63,-52.65 69.3,-35.56 137.71,-88.68 205.22,-159.77zm-262.38 -381.65c-6.3,-52.21 -18.92,-93.17 -37.82,-122.87 -18.9,-30.15 -44.54,-54.01 -76.5,-72.01 -32.41,-17.55 -65.71,-26.54 -101.26,-26.54 -36.9,0 -72.47,8.99 -107.12,27.45 -34.21,18 -61.66,42.75 -82.36,74.25 -20.7,31.06 -34.21,71.11 -40.51,119.72l445.57 0zm1837.14 371.75l193.53 169.23c-103.51,125.12 -211.08,216.04 -322.7,272.74 -111.61,57.16 -230.87,85.51 -358.23,85.51 -203.89,0 -374,-66.15 -510.37,-198.47 -136.37,-132.32 -204.79,-293.44 -204.79,-483.37 0,-128.71 31.96,-246.62 95.42,-353.74 63.92,-106.66 151.22,-189.92 262.39,-249.33 111.17,-59.85 242.13,-89.56 393.34,-89.56 180.93,0 328.54,41.85 443.32,126.02 114.76,83.7 171.92,172.36 171.92,265.53 0,39.16 -8.99,74.72 -27,105.77 -18,31.5 -45.46,56.7 -82.36,76.06 -36.9,19.36 -76.06,28.81 -117.47,28.81 -33.31,0 -63.46,-6.76 -89.56,-19.8 -26.56,-13.06 -48.61,-29.71 -66.17,-49.96 -7.65,-8.55 -22.95,-35.55 -45.9,-81.01 -29.26,-56.72 -51.32,-94.52 -67.51,-112.96 -15.77,-18.46 -34.67,-32.41 -56.72,-42.31 -21.59,-10.36 -46.8,-15.31 -75.16,-15.31 -45.46,0 -89.1,14.4 -130.97,43.66 -41.85,29.25 -76.06,73.81 -103.06,133.22 -26.56,59.4 -40.05,125.56 -40.05,198.92 0,80.56 15.75,152.58 47.25,216.93 31.96,64.36 74.26,112.96 127.38,145.82 53.1,33.3 111.61,49.96 175.97,49.96 61.21,0 123.31,-16.66 185.87,-49.5 62.11,-33.31 129.61,-90.91 201.62,-172.83zm770.07 -1435.69c67.05,0 123.77,23.41 171.02,70.66 47.25,46.81 70.66,103.51 70.66,170.12 0,67.96 -23.41,125.12 -70.66,171.92 -47.25,47.27 -103.97,70.67 -171.02,70.67 -67.07,0 -123.77,-23.41 -171.02,-70.67 -47.27,-46.8 -70.66,-103.51 -70.66,-170.56 0,-65.71 24.3,-122.41 72.45,-170.58 48.61,-47.69 104.87,-71.56 169.23,-71.56zm214.68 588.68l0 972.57c0,46.35 2.69,75.16 8.1,85.51 4.95,10.36 14.4,18.46 28.35,24.3 13.5,5.86 44.1,8.55 91.81,8.55l71.56 0 0 253.84 -815.51 0 0 -253.84 69.76 0c45.46,0 74.72,-2.25 87.32,-7.2 12.6,-4.95 22.05,-13.06 28.35,-24.3 5.84,-11.25 8.99,-34.21 8.99,-68.41l0 -626.48 -194.43 0 0 -248.44c69.32,-3.61 135.93,-10.8 199.83,-22.51 63.46,-11.25 120.62,-25.2 170.58,-40.95 32.4,-10.35 72.45,-27.91 120.16,-52.65l125.12 0zm1152.59 548.17l0 -96.76c0,-57.62 -4.95,-97.21 -14.4,-118.82 -9.91,-22.05 -27.45,-40.05 -53.11,-54.45 -25.66,-14.41 -57.6,-21.61 -95.4,-21.61 -29.26,0 -55.82,4.95 -79.67,14.4 -23.86,9.45 -42.76,21.61 -56.7,36.46 -14.41,14.85 -30.6,43.66 -49.06,86.41 -23.85,54.01 -52.21,92.71 -85.05,116.57 -32.86,23.41 -72.01,35.11 -116.57,35.11 -56.26,0 -102.62,-17.56 -138.62,-52.67 -36.01,-35.09 -54.01,-78.3 -54.01,-130.05 0,-58.51 18.46,-110.73 55.36,-156.18 49.5,-60.75 122.86,-110.26 220.53,-148.97 97.67,-38.24 207.48,-57.6 329.44,-57.6 122.41,0 226.38,19.8 312.35,58.95 85.51,39.61 145.36,86.86 179.12,141.32 33.75,54.91 50.86,138.62 50.86,250.69l0 470.32c0,58.06 3.15,94.96 9.45,111.17 5.84,16.19 19.36,30.6 39.6,42.75 20.26,12.16 42.76,18.46 67.52,18.46 24.74,0 58.06,-7.2 99.45,-21.15l0 258.33c-74.71,23.86 -146.72,35.56 -215.58,35.56 -81.01,0 -149.87,-13.06 -207.47,-39.61 -57.16,-26.56 -105.31,-66.15 -144.02,-119.26 -88.2,57.16 -167.87,98.11 -239.88,122.41 -71.56,24.3 -140.86,36.46 -207.92,36.46 -126.02,0 -227.72,-35.56 -305.59,-106.22 -77.4,-70.66 -116.11,-157.96 -116.11,-261.48 0,-58.97 13.5,-112.96 40.51,-162.03 27,-49.06 67.05,-92.27 120.16,-129.17 53.55,-36.9 135.91,-69.3 247.98,-98.11 111.62,-28.35 247.1,-49.05 406.86,-61.21zm0 218.73c-115.66,16.65 -197.58,33.75 -245.29,50.86 -47.69,17.11 -81.9,38.26 -102.16,64.36 -20.26,26.1 -30.6,52.65 -30.6,79.67 0,35.09 13.06,64.36 39.61,88.2 26.56,23.85 62.55,35.55 107.56,35.55 29.25,0 63,-7.64 101.72,-22.49 38.24,-14.85 81.45,-36.9 129.16,-65.71l0 -230.43zm1355.6 -1358.28l0 1543.69c0,51.76 2.25,82.82 6.74,92.27 5.86,17.56 19.36,30.6 40.51,38.26 13.06,5.4 48.61,8.1 106.66,8.1l45.91 0 0 253.84 -815.52 0 0 -253.84 49.96 0c52.65,0 86.41,-3.15 101.26,-9.89 14.85,-6.76 25.66,-17.11 32.86,-31.52 6.76,-14.84 10.35,-46.8 10.35,-97.21l0 -1176.45 -194.43 0 0 -253.84c157.52,-10.79 320.01,-48.61 487.88,-113.41l127.82 0zm732.69 2.69c67.05,0 123.77,23.41 171.02,70.66 47.25,46.81 70.66,103.51 70.66,170.12 0,67.96 -23.41,125.12 -70.66,171.92 -47.25,47.27 -103.97,70.67 -171.02,70.67 -67.07,0 -123.77,-23.41 -171.02,-70.67 -47.27,-46.8 -70.66,-103.51 -70.66,-170.56 0,-65.71 24.3,-122.41 72.45,-170.58 48.61,-47.69 104.87,-71.56 169.23,-71.56zm214.68 588.68l0 972.57c0,46.35 2.69,75.16 8.1,85.51 4.95,10.36 14.4,18.46 28.35,24.3 13.5,5.86 44.1,8.55 91.81,8.55l71.56 0 0 253.84 -815.51 0 0 -253.84 69.76 0c45.46,0 74.72,-2.25 87.32,-7.2 12.6,-4.95 22.05,-13.06 28.35,-24.3 5.84,-11.25 8.99,-34.21 8.99,-68.41l0 -626.48 -194.43 0 0 -248.44c69.32,-3.61 135.93,-10.8 199.83,-22.51 63.46,-11.25 120.62,-25.2 170.58,-40.95 32.4,-10.35 72.45,-27.91 120.16,-52.65l125.12 0zm1716.97 -591.38l0 1529.75c0,60.31 2.71,96.76 7.65,109.81 5.4,12.6 14.4,22.05 26.56,28.35 12.6,5.84 45.9,8.99 99.47,8.99l60.75 0 0 259.24 -569.78 18.9 0 -137.27c-82.36,55.8 -154.81,94.06 -217.38,115.67 -62.11,21.59 -124.67,32.4 -186.77,32.4 -101.26,0 -193.97,-27.45 -279.04,-81.92 -84.61,-54.91 -153.92,-136.37 -207.92,-243.93 -54.01,-107.56 -81.01,-227.28 -81.01,-358.69 0,-133.22 27.45,-253.84 82.36,-362.3 54.91,-108.02 126.9,-189.48 215.12,-244.83 88.2,-55.36 187.23,-82.82 296.14,-82.82 56.25,0 110.26,6.76 161.57,20.26 51.76,13.5 108.46,37.35 171.02,71.56l0 -315.94 -194.43 0 0 -253.84c109.36,-10.79 198.02,-24.3 266.44,-40.5 67.95,-16.66 141.76,-40.97 220.97,-72.91l128.27 0zm-421.25 1554.5l0 -437c0,-54.47 -4.05,-93.17 -11.7,-115.67 -10.8,-32.4 -34.65,-60.75 -72.01,-85.05 -37.36,-24.3 -79.21,-36.46 -124.67,-36.46 -47.71,0 -91.81,13.95 -132.32,42.31 -40.5,28.37 -72.45,71.57 -96.32,129.63 -23.85,58.5 -35.55,130.97 -35.55,218.27 0,120.62 27.01,217.38 80.56,290.74 41.41,57.16 96.32,85.95 165.18,85.95 29.69,0 58.5,-4.95 85.51,-14.84 27.45,-10.36 74.71,-36.01 141.32,-77.87zm1585.56 -414.95l0 -96.76c0,-57.62 -4.95,-97.21 -14.4,-118.82 -9.91,-22.05 -27.45,-40.05 -53.11,-54.45 -25.66,-14.41 -57.6,-21.61 -95.4,-21.61 -29.26,0 -55.82,4.95 -79.67,14.4 -23.86,9.45 -42.76,21.61 -56.7,36.46 -14.41,14.85 -30.6,43.66 -49.06,86.41 -23.85,54.01 -52.21,92.71 -85.05,116.57 -32.86,23.41 -72.01,35.11 -116.57,35.11 -56.26,0 -102.62,-17.56 -138.62,-52.67 -36.01,-35.09 -54.01,-78.3 -54.01,-130.05 0,-58.51 18.46,-110.73 55.36,-156.18 49.5,-60.75 122.86,-110.26 220.53,-148.97 97.67,-38.24 207.48,-57.6 329.44,-57.6 122.41,0 226.38,19.8 312.35,58.95 85.51,39.61 145.36,86.86 179.12,141.32 33.75,54.91 50.86,138.62 50.86,250.69l0 470.32c0,58.06 3.15,94.96 9.45,111.17 5.84,16.19 19.36,30.6 39.6,42.75 20.26,12.16 42.76,18.46 67.52,18.46 24.74,0 58.06,-7.2 99.45,-21.15l0 258.33c-74.71,23.86 -146.72,35.56 -215.58,35.56 -81.01,0 -149.87,-13.06 -207.47,-39.61 -57.16,-26.56 -105.31,-66.15 -144.02,-119.26 -88.2,57.16 -167.87,98.11 -239.88,122.41 -71.56,24.3 -140.86,36.46 -207.92,36.46 -126.02,0 -227.72,-35.56 -305.59,-106.22 -77.4,-70.66 -116.11,-157.96 -116.11,-261.48 0,-58.97 13.5,-112.96 40.51,-162.03 27,-49.06 67.05,-92.27 120.16,-129.17 53.55,-36.9 135.91,-69.3 247.98,-98.11 111.62,-28.35 247.1,-49.05 406.86,-61.21zm0 218.73c-115.66,16.65 -197.58,33.75 -245.29,50.86 -47.69,17.11 -81.9,38.26 -102.16,64.36 -20.26,26.1 -30.6,52.65 -30.6,79.67 0,35.09 13.06,64.36 39.61,88.2 26.56,23.85 62.55,35.55 107.56,35.55 29.25,0 63,-7.64 101.72,-22.49 38.24,-14.85 81.45,-36.9 129.16,-65.71l0 -230.43zm2130.59 -1358.28l0 1529.75c0,60.31 2.71,96.76 7.65,109.81 5.4,12.6 14.4,22.05 26.56,28.35 12.6,5.84 45.9,8.99 99.47,8.99l60.75 0 0 259.24 -569.78 18.9 0 -137.27c-82.36,55.8 -154.81,94.06 -217.38,115.67 -62.11,21.59 -124.67,32.4 -186.77,32.4 -101.26,0 -193.97,-27.45 -279.04,-81.92 -84.61,-54.91 -153.92,-136.37 -207.92,-243.93 -54.01,-107.56 -81.01,-227.28 -81.01,-358.69 0,-133.22 27.45,-253.84 82.36,-362.3 54.91,-108.02 126.9,-189.48 215.12,-244.83 88.2,-55.36 187.23,-82.82 296.14,-82.82 56.25,0 110.26,6.76 161.57,20.26 51.76,13.5 108.46,37.35 171.02,71.56l0 -315.94 -194.43 0 0 -253.84c109.36,-10.79 198.02,-24.3 266.44,-40.5 67.95,-16.66 141.76,-40.97 220.97,-72.91l128.27 0zm-421.25 1554.5l0 -437c0,-54.47 -4.05,-93.17 -11.7,-115.67 -10.8,-32.4 -34.65,-60.75 -72.01,-85.05 -37.36,-24.3 -79.21,-36.46 -124.67,-36.46 -47.71,0 -91.81,13.95 -132.32,42.31 -40.5,28.37 -72.45,71.57 -96.32,129.63 -23.85,58.5 -35.55,130.97 -35.55,218.27 0,120.62 27.01,217.38 80.56,290.74 41.41,57.16 96.32,85.95 165.18,85.95 29.69,0 58.5,-4.95 85.51,-14.84 27.45,-10.36 74.71,-36.01 141.32,-77.87zm1977.56 -106.21l180.47 181.37c-103.51,117.91 -209.26,203.88 -316.84,256.53 -107.56,53.11 -224.13,79.67 -348.8,79.67 -200.27,0 -369.04,-67.51 -505.86,-202.98 -137.27,-135.47 -205.67,-298.84 -205.67,-491.01 0,-126.02 30.6,-241.24 92.27,-346.1 61.65,-104.85 147.16,-186.77 256.08,-245.73 109.37,-58.95 232.68,-88.66 370.85,-88.66 88.22,0 168.33,12.6 240.34,38.26 72.01,25.2 135.47,61.65 189.47,108.92 54.01,46.8 97.67,103.96 130.53,171.02 33.3,67.05 55.8,136.37 67.96,207.92 5.39,36.01 8.1,92.71 8.1,170.56l-888.42 0c1.8,111.17 34.65,201.18 98.11,269.59 63.46,68.86 141.77,103.07 233.58,103.07 58.95,0 123.31,-17.56 192.63,-52.65 69.3,-35.56 137.71,-88.68 205.22,-159.77zm-262.38 -381.65c-6.3,-52.21 -18.92,-93.17 -37.82,-122.87 -18.9,-30.15 -44.54,-54.01 -76.5,-72.01 -32.41,-17.55 -65.71,-26.54 -101.26,-26.54 -36.9,0 -72.47,8.99 -107.12,27.45 -34.21,18 -61.66,42.75 -82.36,74.25 -20.7,31.06 -34.21,71.11 -40.51,119.72l445.57 0zm1527.5 -445.56l172.38 0 106.66 366.8 -248.44 100.36c-47.25,-75.62 -106.66,-135.03 -178.22,-178.23 -71.56,-43.2 -142.67,-64.8 -212.89,-64.8 -46.35,0 -81.01,7.64 -103.96,23.39 -22.95,15.31 -34.21,34.21 -34.21,55.82 0,18 8.11,35.09 24.3,50.4 16.21,15.75 49.96,32.4 100.82,49.5l361.84 129.17c64.36,22.51 125.56,51.3 184.53,85.51 58.95,34.21 103.06,76.06 132.31,125.56 29.26,49.5 44.12,107.56 44.12,174.17 0,118.82 -45.46,216.93 -136.83,292.99 -107.11,89.56 -240.78,134.12 -400.56,134.12 -136.81,0 -256.08,-34.21 -357.79,-102.16l-36.9 72.45 -175.07 0 -162.03 -429.8 248.44 -104.87c62.11,96.76 139.06,172.38 229.98,227.74 90.91,55.35 174.63,82.8 251.13,82.8 47.27,0 86.86,-10.8 119.28,-32.86 24.74,-17.55 36.9,-38.26 36.9,-62.11 0,-20.26 -9.45,-39.16 -28.81,-57.6 -18.9,-18.46 -61.21,-39.16 -126.46,-62.12l-284.44 -99.01c-157.08,-54.91 -263.74,-113.86 -320.45,-176.42 -56.7,-63 -85.05,-137.27 -85.05,-223.23 0,-110.26 44.1,-202.98 132.76,-278.58 101.26,-85.97 225.93,-128.71 374,-128.71 131.86,0 244.39,29.25 338.45,88.2l34.2 -58.5zm1420.84 -523.87l896.53 0 0 253.82 -81.92 0c-47.25,0 -78.75,4.06 -94.06,12.6 -15.29,8.11 -27,21.61 -34.21,39.61 -7.64,18 -11.25,52.65 -11.25,103.51l0 1018.49c0,55.36 3.15,90.91 9.01,107.12 6.3,15.75 17.09,27 31.94,34.2 18.46,10.35 45.91,15.75 82.82,15.75l97.67 0 0 253.84 -896.53 0 0 -253.84 72.91 0c52.21,0 86.41,-3.59 102.16,-11.25 15.75,-7.65 27.45,-19.36 35.11,-35.55 7.65,-16.21 11.26,-48.61 11.26,-97.21l0 -1022.55c0,-57.14 -3.61,-94.5 -11.26,-112.51 -7.65,-18 -20.26,-31.96 -37.8,-41.85 -12.6,-6.76 -42.31,-10.36 -90.01,-10.36l-82.36 0 0 -253.82zm1671.07 494.16l0 175.07c99.47,-67.51 184.98,-113.86 255.63,-138.17 71.11,-24.76 143.57,-36.9 217.83,-36.9 85.51,0 161.13,18 226.38,54.01 65.71,36.01 113.86,81.01 143.57,135.02 30.15,53.55 45,130.51 45,229.53l0 547.27c0,46.8 3.15,76.5 9.91,89.56 6.3,13.06 16.65,22.95 31.06,28.81 10.35,4.49 41.85,6.74 94.5,6.74l64.36 0 0 253.84 -772.3 0 0 -253.84c58.06,-0.9 90.91,-2.25 97.67,-4.05 22.05,-5.84 36.01,-16.21 43.2,-30.15 6.76,-13.95 10.35,-44.12 10.35,-90.47l0 -481.11c0,-62.12 -6.74,-102.17 -19.8,-120.62 -21.15,-30.6 -54.47,-45.91 -100.36,-45.91 -37.8,0 -78.31,8.11 -121.52,24.76 -43.2,16.65 -101.26,50.86 -174.17,102.62l0 520.26c0,56.72 6.3,91.81 18.9,104.87 12.14,13.06 42.31,19.8 89.56,19.8l42.76 0 0 253.84 -766.9 0 0 -253.84 38.24 0c60.31,0 97.67,-2.69 112.07,-7.64 14.41,-5.4 25.66,-14.85 32.86,-27.91 7.65,-13.06 11.26,-38.7 11.26,-77.41l0 -610.73 -194.43 0 0 -253.82c157.51,-19.81 305.14,-57.62 442.41,-113.42l121.96 0zm1847.49 -421.25l0 450.96 423.96 0 0 280.83 -423.96 0 0 458.61c0,103.51 5.4,170.12 16.65,199.37 10.8,29.71 31.06,53.11 61.21,70.66 39.16,23.86 84.61,35.56 135.47,35.56 90.47,0 180.47,-29.26 270.04,-88.22l0 282.19c-76.52,36.01 -145.82,61.21 -207.48,76.06 -62.11,14.4 -129.17,21.61 -201.18,21.61 -81.9,0 -154.36,-10.36 -216.92,-31.06 -63.02,-20.7 -116.57,-49.96 -161.13,-88.22 -44.1,-38.24 -75.16,-78.75 -92.25,-121.96 -17.11,-43.2 -25.66,-105.31 -25.66,-187.23l0 -627.38 -194.43 0 0 -253.84c70.2,-22.95 130.07,-55.35 180.02,-97.65 49.52,-42.76 89.57,-93.62 120.18,-153.03 30.15,-59.85 50.86,-135.46 62.11,-227.27l253.38 0zm1842.09 1278.17l180.47 181.37c-103.51,117.91 -209.26,203.88 -316.84,256.53 -107.56,53.11 -224.13,79.67 -348.8,79.67 -200.27,0 -369.04,-67.51 -505.86,-202.98 -137.27,-135.47 -205.67,-298.84 -205.67,-491.01 0,-126.02 30.6,-241.24 92.27,-346.1 61.65,-104.85 147.16,-186.77 256.08,-245.73 109.37,-58.95 232.68,-88.66 370.85,-88.66 88.22,0 168.33,12.6 240.34,38.26 72.01,25.2 135.47,61.65 189.47,108.92 54.01,46.8 97.67,103.96 130.53,171.02 33.3,67.05 55.8,136.37 67.96,207.92 5.39,36.01 8.1,92.71 8.1,170.56l-888.42 0c1.8,111.17 34.65,201.18 98.11,269.59 63.46,68.86 141.77,103.07 233.58,103.07 58.95,0 123.31,-17.56 192.63,-52.65 69.3,-35.56 137.71,-88.68 205.22,-159.77zm-262.38 -381.65c-6.3,-52.21 -18.92,-93.17 -37.82,-122.87 -18.9,-30.15 -44.54,-54.01 -76.5,-72.01 -32.41,-17.55 -65.71,-26.54 -101.26,-26.54 -36.9,0 -72.47,8.99 -107.12,27.45 -34.21,18 -61.66,42.75 -82.36,74.25 -20.7,31.06 -34.21,71.11 -40.51,119.72l445.57 0zm1651.73 -366.35c46.35,-66.61 93.15,-114.32 139.52,-142.23 46.8,-28.35 95.86,-42.31 147.62,-42.31 51.76,0 92.71,15.31 122.41,45.46 30.15,30.16 45,68.86 45,116.57 0,42.76 -14.4,78.77 -42.75,107.12 -28.35,28.35 -63.46,42.75 -105.77,42.75l-43.2 -1.34 -44.56 -1.35c-23.85,0 -47.25,8.99 -71.11,26.56 48.16,80.55 72.47,157.52 72.47,230.87 0,77.86 -23.86,153.92 -72.01,227.28 -48.15,73.37 -114.32,130.51 -199.37,171.02 -85.07,40.95 -187.23,61.21 -306.05,61.21 -34.2,0 -68.85,-1.8 -103.51,-5.84 -34.65,-4.05 -69.76,-9.91 -105.31,-18 -23.41,14.85 -41.41,29.71 -54.01,43.65 -12.14,13.95 -18.44,27.01 -18.44,39.16 0,27.01 28.35,44.56 84.6,52.21l547.27 77.41c162.48,22.95 279.5,66.15 351.05,130.07 72.01,64.36 108.02,141.32 108.02,230.87 0,78.31 -27,151.22 -81.46,218.27 -54.45,66.61 -143.57,121.52 -266.44,164.28 -123.31,42.75 -279.04,64.36 -466.71,64.36 -165.18,0 -301.55,-15.75 -409.55,-47.71 -107.58,-31.96 -184.08,-72.45 -229.08,-120.62 -44.56,-48.61 -67.07,-94.96 -67.07,-138.61 0,-49.96 16.65,-94.52 49.96,-134.57 33.3,-39.61 102.16,-85.07 206.13,-136.83 -65.27,-23.85 -113.88,-52.65 -146.73,-86.85 -44.1,-45.91 -66.15,-92.72 -66.15,-141.33 0,-52.65 20.7,-104.41 61.66,-155.71 40.95,-50.86 102.16,-101.26 184.06,-151.22 -45.44,-28.35 -81.01,-58.95 -107.11,-91.81 -25.66,-32.86 -46.81,-73.37 -63,-120.62 -16.21,-47.71 -24.3,-96.32 -24.3,-146.28 0,-131.86 53.99,-243.93 161.57,-336.18 107.56,-92.27 249.33,-138.62 424.84,-138.62 78.31,0 149.43,8.99 214.24,27.45 64.36,18 122.41,45 173.27,81.46zm-374.46 144.92c-56.26,0 -103.06,20.7 -139.52,62.11 -36.45,40.95 -54.91,96.76 -54.91,167.41 0,64.81 17.56,116.57 53.11,155.27 35.11,38.71 80.56,58.06 135.91,58.06 54.47,0 100.36,-19.8 136.83,-59.85 36.45,-40.05 54.91,-91.81 54.91,-154.81 0,-70.66 -17.56,-126.02 -52.21,-166.97 -34.65,-40.97 -79.65,-61.21 -134.12,-61.21zm-191.72 1177.8c-46.37,35.55 -76.06,63 -89.12,81.9 -12.6,18.9 -18.9,39.61 -18.9,62.11 0,42.76 35.11,76.52 105.77,100.36 70.2,23.86 160.67,36.01 270.49,36.01 80.55,0 151.22,-7.2 212.87,-21.15 61.66,-13.94 102.62,-31.05 122.87,-50.84 13.06,-13.06 19.8,-31.06 19.8,-54.01 0,-25.2 -13.06,-46.35 -39.6,-63.46 -26.56,-17.11 -90.47,-31.5 -191.73,-43.66l-392.44 -47.25zm1698.52 -1431.64l0 191.72c70.66,-74.25 131.88,-124.67 183.64,-151.21 51.3,-27.01 101.26,-40.51 148.97,-40.51 43.2,0 81.9,9.91 115.66,29.71 34.21,19.8 61.21,48.15 81.01,85.05 19.81,36.9 29.71,76.52 29.71,118.82 0,55.35 -18.44,105.31 -54.91,150.32 -36.45,44.54 -87.76,67.05 -153.92,67.05 -17.55,0 -33.31,-1.35 -47.25,-4.05 -13.51,-2.71 -42.31,-11.25 -86.42,-26.1 -22.95,-6.76 -41.85,-10.36 -56.7,-10.36 -22.95,0 -60.75,14.41 -113.86,43.2l0 513.98c0,43.66 3.15,72.01 9.91,85.05 6.3,13.51 17.09,22.96 31.5,29.26 14.85,5.84 46.8,8.99 95.86,8.99l57.16 0 0 253.84 -810.1 0 0 -253.84 67.51 0c48.61,0 78.75,-2.69 90.46,-8.1 12.16,-4.95 21.15,-14.4 27.01,-27.45 6.3,-13.06 9.45,-42.31 9.45,-87.76l0 -603.08 -194.43 0 0 -253.38c143.11,-9.01 291.64,-45.91 446,-111.17l123.77 0z"/>
    <path class="fil7" d="M38299.1 7259.31l0 -96.76c0,-57.62 -4.95,-97.21 -14.4,-118.82 -9.91,-22.05 -27.45,-40.05 -53.11,-54.45 -25.66,-14.41 -57.6,-21.61 -95.4,-21.61 -29.26,0 -55.82,4.95 -79.67,14.4 -23.86,9.45 -42.76,21.61 -56.7,36.46 -14.41,14.85 -30.6,43.66 -49.06,86.41 -23.85,54.01 -52.21,92.71 -85.05,116.57 -32.86,23.41 -72.01,35.11 -116.57,35.11 -56.26,0 -102.62,-17.56 -138.62,-52.67 -36.01,-35.09 -54.01,-78.3 -54.01,-130.05 0,-58.51 18.46,-110.73 55.36,-156.18 49.5,-60.75 122.86,-110.26 220.53,-148.97 97.67,-38.24 207.48,-57.6 329.44,-57.6 122.41,0 226.38,19.8 312.35,58.95 85.51,39.61 145.36,86.86 179.12,141.32 33.75,54.91 50.86,138.62 50.86,250.69l0 470.32c0,58.06 3.15,94.96 9.45,111.17 5.84,16.19 19.36,30.6 39.6,42.75 20.26,12.16 42.76,18.46 67.52,18.46 24.74,0 58.06,-7.2 99.45,-21.15l0 258.33c-74.71,23.86 -146.72,35.56 -215.58,35.56 -81.01,0 -149.87,-13.06 -207.47,-39.61 -57.16,-26.56 -105.31,-66.15 -144.02,-119.26 -88.2,57.16 -167.87,98.11 -239.88,122.41 -71.56,24.3 -140.86,36.46 -207.92,36.46 -126.02,0 -227.72,-35.56 -305.59,-106.22 -77.4,-70.66 -116.11,-157.96 -116.11,-261.48 0,-58.97 13.5,-112.96 40.51,-162.03 27,-49.06 67.05,-92.27 120.16,-129.17 53.55,-36.9 135.91,-69.3 247.98,-98.11 111.62,-28.35 247.1,-49.05 406.86,-61.21zm0 218.73c-115.66,16.65 -197.58,33.75 -245.29,50.86 -47.69,17.11 -81.9,38.26 -102.16,64.36 -20.26,26.1 -30.6,52.65 -30.6,79.67 0,35.09 13.06,64.36 39.61,88.2 26.56,23.85 62.55,35.55 107.56,35.55 29.25,0 63,-7.64 101.72,-22.49 38.24,-14.85 81.45,-36.9 129.16,-65.71l0 -230.43zm2130.59 -1358.28l0 1529.75c0,60.31 2.71,96.76 7.65,109.81 5.4,12.6 14.4,22.05 26.56,28.35 12.6,5.84 45.9,8.99 99.47,8.99l60.75 0 0 259.24 -569.78 18.9 0 -137.27c-82.36,55.8 -154.81,94.06 -217.38,115.67 -62.11,21.59 -124.67,32.4 -186.77,32.4 -101.26,0 -193.97,-27.45 -279.04,-81.92 -84.61,-54.91 -153.92,-136.37 -207.92,-243.93 -54.01,-107.56 -81.01,-227.28 -81.01,-358.69 0,-133.22 27.45,-253.84 82.36,-362.3 54.91,-108.02 126.9,-189.48 215.12,-244.83 88.2,-55.36 187.23,-82.82 296.14,-82.82 56.25,0 110.26,6.76 161.57,20.26 51.76,13.5 108.46,37.35 171.02,71.56l0 -315.94 -194.43 0 0 -253.84c109.36,-10.79 198.02,-24.3 266.44,-40.5 67.95,-16.66 141.76,-40.97 220.97,-72.91l128.27 0zm-421.25 1554.5l0 -437c0,-54.47 -4.05,-93.17 -11.7,-115.67 -10.8,-32.4 -34.65,-60.75 -72.01,-85.05 -37.36,-24.3 -79.21,-36.46 -124.67,-36.46 -47.71,0 -91.81,13.95 -132.32,42.31 -40.5,28.37 -72.45,71.57 -96.32,129.63 -23.85,58.5 -35.55,130.97 -35.55,218.27 0,120.62 27.01,217.38 80.56,290.74 41.41,57.16 96.32,85.95 165.18,85.95 29.69,0 58.5,-4.95 85.51,-14.84 27.45,-10.36 74.71,-36.01 141.32,-77.87zm1585.56 -414.95l0 -96.76c0,-57.62 -4.95,-97.21 -14.4,-118.82 -9.91,-22.05 -27.45,-40.05 -53.11,-54.45 -25.66,-14.41 -57.6,-21.61 -95.4,-21.61 -29.26,0 -55.82,4.95 -79.67,14.4 -23.86,9.45 -42.76,21.61 -56.7,36.46 -14.41,14.85 -30.6,43.66 -49.06,86.41 -23.85,54.01 -52.21,92.71 -85.05,116.57 -32.86,23.41 -72.01,35.11 -116.57,35.11 -56.26,0 -102.62,-17.56 -138.62,-52.67 -36.01,-35.09 -54.01,-78.3 -54.01,-130.05 0,-58.51 18.46,-110.73 55.36,-156.18 49.5,-60.75 122.86,-110.26 220.53,-148.97 97.67,-38.24 207.48,-57.6 329.44,-57.6 122.41,0 226.38,19.8 312.35,58.95 85.51,39.61 145.36,86.86 179.12,141.32 33.75,54.91 50.86,138.62 50.86,250.69l0 470.32c0,58.06 3.15,94.96 9.45,111.17 5.84,16.19 19.36,30.6 39.6,42.75 20.26,12.16 42.76,18.46 67.52,18.46 24.74,0 58.06,-7.2 99.45,-21.15l0 258.33c-74.71,23.86 -146.72,35.56 -215.58,35.56 -81.01,0 -149.87,-13.06 -207.47,-39.61 -57.16,-26.56 -105.31,-66.15 -144.02,-119.26 -88.2,57.16 -167.87,98.11 -239.88,122.41 -71.56,24.3 -140.86,36.46 -207.92,36.46 -126.02,0 -227.72,-35.56 -305.59,-106.22 -77.4,-70.66 -116.11,-157.96 -116.11,-261.48 0,-58.97 13.5,-112.96 40.51,-162.03 27,-49.06 67.05,-92.27 120.16,-129.17 53.55,-36.9 135.91,-69.3 247.98,-98.11 111.62,-28.35 247.1,-49.05 406.86,-61.21zm0 218.73c-115.66,16.65 -197.58,33.75 -245.29,50.86 -47.69,17.11 -81.9,38.26 -102.16,64.36 -20.26,26.1 -30.6,52.65 -30.6,79.67 0,35.09 13.06,64.36 39.61,88.2 26.56,23.85 62.55,35.55 107.56,35.55 29.25,0 63,-7.64 101.72,-22.49 38.24,-14.85 81.45,-36.9 129.16,-65.71l0 -230.43zm1657.13 -737.19l172.38 0 106.66 366.8 -248.44 100.36c-47.25,-75.62 -106.66,-135.03 -178.22,-178.23 -71.56,-43.2 -142.67,-64.8 -212.89,-64.8 -46.35,0 -81.01,7.64 -103.96,23.39 -22.95,15.31 -34.21,34.21 -34.21,55.82 0,18 8.11,35.09 24.3,50.4 16.21,15.75 49.96,32.4 100.82,49.5l361.84 129.17c64.36,22.51 125.56,51.3 184.53,85.51 58.95,34.21 103.06,76.06 132.31,125.56 29.26,49.5 44.12,107.56 44.12,174.17 0,118.82 -45.46,216.93 -136.83,292.99 -107.11,89.56 -240.78,134.12 -400.56,134.12 -136.81,0 -256.08,-34.21 -357.79,-102.16l-36.9 72.45 -175.07 0 -162.03 -429.8 248.44 -104.87c62.11,96.76 139.06,172.38 229.98,227.74 90.91,55.35 174.63,82.8 251.13,82.8 47.27,0 86.86,-10.8 119.28,-32.86 24.74,-17.55 36.9,-38.26 36.9,-62.11 0,-20.26 -9.45,-39.16 -28.81,-57.6 -18.9,-18.46 -61.21,-39.16 -126.46,-62.12l-284.44 -99.01c-157.08,-54.91 -263.74,-113.86 -320.45,-176.42 -56.7,-63 -85.05,-137.27 -85.05,-223.23 0,-110.26 44.1,-202.98 132.76,-278.58 101.26,-85.97 225.93,-128.71 374,-128.71 131.86,0 244.39,29.25 338.45,88.2l34.2 -58.5z"/>
   </g>
   <path class="fil7" d="M7424.38 2550.49l2184.01 0 298.45 831.33 -340.08 122.33c-57.64,-136.41 -124.89,-245.93 -201.76,-328.56 -76.85,-83.26 -162.03,-138.34 -254.9,-165.88 -92.87,-26.89 -201.76,-40.35 -325.36,-40.35l-399.66 0 0 657.13 130.02 0c97.35,0 163.31,-7.05 197.25,-21.79 33.95,-14.09 58.29,-37.14 73.01,-67.89 14.74,-30.74 22.42,-91.59 22.42,-183.17l0 -99.92 338.17 0 0 1106.73 -338.17 0 0 -113.36c0,-76.85 -8.96,-133.22 -26.89,-168.44 -17.93,-35.23 -42.28,-59.56 -73.01,-71.73 -31.38,-12.81 -99.92,-19.21 -206.23,-19.21l-116.57 0 0 601.4c0,63.4 3.21,102.48 9.61,116.57 5.76,13.44 18.58,24.33 36.51,31.38 17.93,7.68 57,11.53 117.2,11.53l219.69 0c163.96,0 301.66,-23.7 414.38,-70.45 112.73,-47.4 213.28,-123.61 301.03,-228 88.38,-105.04 156.27,-229.93 203.67,-374.04l342.65 117.85 -343.29 973.52 -2262.15 0 0 -361.22 65.33 0c87.75,0 146.67,-6.4 176.78,-18.58 30.1,-12.81 51.23,-34.59 63.4,-65.96 6.4,-18.58 9.61,-71.75 9.61,-159.48l0 -1426.98c0,-77.5 -5.12,-128.73 -16.02,-152.43 -10.25,-23.7 -26.89,-41.63 -49.96,-53.17 -22.42,-12.16 -66.61,-17.93 -132.57,-17.93l-116.57 0 0 -361.22zm2752.12 0l1275.81 0 0 361.22 -116.56 0c-67.26,0 -112.08,5.77 -133.87,17.93 -21.77,11.54 -38.42,30.75 -48.67,56.36 -10.89,25.63 -16.02,74.94 -16.02,147.31l0 1449.39c0,78.78 4.47,129.38 12.81,152.43 8.96,22.42 24.33,38.43 45.47,48.68 26.26,14.74 65.33,22.42 117.85,22.42l138.97 0 0 361.22 -1275.81 0 0 -361.22 103.75 0c74.29,0 122.97,-5.12 145.39,-16.02 22.42,-10.89 39.07,-27.54 49.96,-50.59 10.88,-23.07 16,-69.17 16,-138.34l0 -1455.15c0,-81.34 -5.12,-134.5 -16,-160.13 -10.89,-25.61 -28.82,-45.47 -53.8,-59.56 -17.93,-9.61 -60.21,-14.74 -128.1,-14.74l-117.2 0 0 -361.22zm1551.86 361.22l0 -361.22 1487.18 0c227.37,0 406.06,26.26 536.72,79.42 130.01,53.16 229.92,130.01 299.74,229.28 69.82,99.27 105.04,208.16 105.04,327.29 0,86.45 -18.58,168.44 -55.73,245.93 -37.14,77.5 -90.31,146.03 -160.11,204.95 -69.82,59.57 -161.39,108.89 -276.05,147.31 122.97,31.38 216.49,65.98 281.81,103.12 94.15,52.52 168.44,126.18 223.53,220.97 55.08,94.15 82.63,199.18 82.63,315.75 0,138.99 -41.63,267.09 -125.54,383.64 -83.91,117.2 -202.39,206.23 -355.47,267.09 -153.06,61.49 -376.59,92.22 -671.85,92.22l-1371.89 0 0 -361.22 103.76 0c69.17,0 115.92,-5.77 140.26,-17.94 24.98,-11.53 42.28,-28.81 51.87,-50.59 10.26,-21.77 15.38,-71.08 15.38,-147.31l0 -1460.92c0,-77.49 -5.12,-126.82 -15.38,-148.59 -9.6,-21.14 -26.89,-37.79 -51.87,-50.59 -24.33,-12.17 -71.08,-18.58 -140.26,-18.58l-103.76 0zm956.87 699.39l287.58 0c149.87,0 261.32,-12.81 333.05,-37.79 72.37,-24.98 126.17,-63.4 162.67,-113.99 36.51,-51.24 54.44,-110.17 54.44,-176.78 0,-69.17 -17.28,-128.1 -51.87,-177.41 -33.95,-48.68 -83.91,-83.91 -149.23,-104.4 -64.68,-21.14 -181.25,-31.38 -349.05,-31.38l-287.58 0 0 641.75zm0 380.45l0 568.74c1.28,80.06 4.49,127.46 9.61,140.9 5.76,17.93 16,30.1 30.74,37.15 14.09,7.04 53.16,10.25 117.2,10.25l190.86 0c110.8,0 203.04,-10.25 276.05,-31.38 73.01,-20.49 135.13,-63.4 186.37,-128.73 51.24,-65.33 76.85,-143.48 76.85,-235.05 0,-78.14 -17.93,-144.11 -54.44,-197.92 -35.87,-53.8 -90.31,-94.78 -162.69,-122.33 -72.37,-27.54 -183.17,-41.63 -331.75,-41.63l-338.82 0zm1814.46 -1441.06l1185.52 0 455.37 1586.44 466.9 -1586.44 1208.58 0 0 361.22 -129.38 0c-69.82,0 -118.5,14.74 -145.39,44.19 -26.89,29.47 -40.35,84.55 -40.35,165.88l0 1487.18c0,65.33 3.84,105.68 11.53,122.33 10.89,24.98 26.89,42.28 46.75,52.52 27.54,14.74 63.42,22.42 108.89,22.42l147.95 0 0 361.22 -1260.46 0 0 -361.22 97.36 0c71.73,0 119.76,-5.77 144.75,-16.66 24.98,-11.53 43.54,-28.81 55.07,-51.87 12.17,-23.05 17.94,-65.96 17.94,-128.73l0 -1610.79 -637.92 2169.28 -361.22 0 -618.7 -2099.47 0 1591.58c0,36.51 6.4,64.7 19.21,84.54 13.45,19.86 32.03,35.23 55.73,46.12 24.33,10.89 62.77,16.02 115.92,16.02l124.25 0 0 361.22 -1068.31 0 0 -361.22 105.68 0c66.61,0 112.08,-5.77 137.06,-17.94 24.35,-11.53 42.28,-30.74 54.45,-56.35 12.16,-25.63 17.93,-73.01 17.93,-141.55l0 -1468.6c0,-67.24 -4.49,-111.43 -13.45,-131.29 -10.89,-27.54 -28.17,-47.4 -50.59,-60.21 -23.05,-12.17 -58.29,-18.58 -107.61,-18.58l-143.46 0 0 -361.22z"/>
  </g>
 </g>
</svg>
