<?xml version="1.0" encoding="UTF-8"?>
<!DOCTYPE svg PUBLIC "-//W3C//DTD SVG 1.1//EN" "http://www.w3.org/Graphics/SVG/1.1/DTD/svg11.dtd">
<!-- Creator: CorelDRAW 2020 (64 Bit) -->
<svg xmlns="http://www.w3.org/2000/svg" xml:space="preserve" width="37.9507mm" height="39.9426mm" version="1.1" style="shape-rendering:geometricPrecision; text-rendering:geometricPrecision; image-rendering:optimizeQuality; fill-rule:evenodd; clip-rule:evenodd"
viewBox="0 0 993.3 1045.44"
 xmlns:xlink="http://www.w3.org/1999/xlink"
 xmlns:xodm="http://www.corel.com/coreldraw/odm/2003">
 <defs>
  <style type="text/css">
   <![CDATA[
    .fil2 {fill:#FEFEFE}
    .fil0 {fill:black}
    .fil1 {fill:#FFE610}
   ]]>
  </style>
 </defs>
 <g id="Camada_x0020_1">
  <metadata id="CorelCorpID_0Corel-Layer"/>
  <g id="_1940607393216">
   <path class="fil0" d="M361.71 803.81c-2.59,2.24 -2.25,1.06 -5.44,2.42 -4.65,1.98 -8.73,8.38 -6.93,15.2 2.42,9.18 10.71,8.22 20.49,9.93l1.97 7.01c-3.84,3.9 -9.15,6.89 -7.51,14.54 1.68,7.86 6.44,7.97 10.96,11.06 1.89,1.29 2.19,14.65 1.92,16.95 -4.83,3.72 -10.38,4.5 -10.02,13.32 0.29,7.09 5.04,11.02 11.72,12.26l0.87 17.7c-3.25,2.4 -8.38,1.94 -11.18,8.73 -3.5,8.47 1.36,14.52 9.44,17.53 3.38,1.26 5.32,1.01 6.85,3.75 0.72,1.3 4.81,14.05 5.13,15.63 -1.33,1.16 0.13,0.27 -2.33,1.5 -4.23,2.11 -9.75,4.24 -9.61,12.65 0.14,8.49 6,10.77 12.37,13.04 4.07,1.46 17.38,4.25 19.87,6.36 2.06,1.74 8.24,9.66 12.54,13.34 43.32,37.11 109.87,40.45 148.15,-3.1 2.15,-2.44 3.77,-4.49 5.55,-7 11.65,-16.4 3.22,-6.56 15.01,-11.28 5.46,-2.19 9.28,-9.93 6.51,-16.21 -1.75,-3.99 -4.54,-3.92 -2.81,-9.43 1.09,-3.48 2.29,-6.59 3.27,-10.16 4.79,-17.44 1.37,-6.78 8.85,-14.25 5.93,-5.92 4.84,-14.86 -1.84,-19.1l1.03 -16.61c5.57,-2.79 10.94,-4.03 10.98,-12.92 0.04,-8.67 -5.27,-10.45 -11.2,-12.9l-0.01 -13.3c8.11,-1.56 13.74,-3.31 15.42,-11.22 1.83,-8.65 -4.86,-13.41 -11.5,-14.83l3.15 -11.76c3.34,-5.98 9.61,0.46 14.56,-8.97 3.29,-6.28 1.2,-10.3 -1.48,-14.57 -0.13,-0.2 -0.53,-0.86 -0.64,-1.04l-0.63 -1.11c5.31,-11.48 19.98,-28.9 28,-37.68 5.5,-6.02 10.43,-11.45 15.82,-17.26 29.6,-31.93 49.94,-51.2 73.08,-92.01 31.65,-55.82 52.99,-131.29 41.33,-215.03 -8.83,-63.41 -22.69,-120.8 -64,-167.03 -15.26,-17.08 -33.99,-33.39 -53.86,-45.13 -46.52,-27.5 -96.99,-41.9 -155.66,-42.41 -69.2,-0.6 -125.27,14.18 -176.87,53.37 -3.37,2.56 -5.84,4.72 -9.11,7.39 -7.4,6.03 -19.79,17.53 -25.32,24.18 -19.15,23.07 -24.35,27.83 -42.81,56.26 -17.01,26.19 -31.07,56.39 -37.66,94.34 -13.4,77.22 9.16,164.14 38.51,218.18 16.8,30.93 35.06,51.82 55.96,76.12 14.85,17.26 44.02,61.82 49.1,83.57z"/>
   <path class="fil1" d="M241.82 402.56c-2.39,12.9 -6.85,24.74 -7.41,39.01l-0.05 7.53c20.91,13.45 31.05,-2.64 39.42,-10.48 4.61,-4.31 26.94,-24.72 32.1,-26.45l-36.15 36.57c-6.38,6.25 -11.44,12.03 -17.57,18.63 -5.5,5.92 -12.86,12.09 -12.24,24.84 0.5,10.41 7.75,17.29 16.18,20.18 20.32,6.99 72.56,-30.97 76.48,-31.79l-31.55 31.68c-9.87,10.83 -19.82,22.33 -29.04,34.73 -4.79,6.45 -9.03,12.9 -5.79,23.63 2.26,7.48 8.5,13.96 16.58,15.74 13.73,3.03 28.77,-8.57 39.51,-15.81l3.58 -2.75c0.11,-0.1 0.3,-0.28 0.4,-0.37l0.78 -0.73c-5.61,-6.48 -11.61,-14.04 -14.69,-24.13 -3.38,-11.04 -0.39,-23.74 5.71,-30.57 7.02,-7.85 18.87,-8.84 29.75,-3.31 11.73,5.95 19.93,16.18 21.86,16.96l3.93 3.64c3.98,-0.78 19.25,-15.18 23.28,-18.73 12.58,-11.07 58.34,-49.71 71.46,-54.42 -3.86,-17.56 1.32,-65 12.24,-80.63 10.85,-15.53 59.33,16.65 50.24,101.24 -2.15,19.97 -3.77,37.19 -8.62,55.25 -2.3,8.55 -4.87,15.56 -7.98,23.5 -5.01,12.8 -6.39,8.93 -0.3,22.39 5.91,13.07 15.37,30.91 35.29,26.79 8.05,-1.66 5.58,-3.24 11.96,-20.29 2.95,-7.9 6.07,-15.34 9.48,-22.82 11.4,-25.02 33,-62.23 67.55,-60.03 8.99,0.57 16.08,5.69 18.31,13.24 7.32,24.75 -47.81,78.47 -67.61,91.83 -3.47,2.34 -6.14,3.87 -9.91,5.85 -12.02,6.3 -8.65,2.12 -13.26,18.15 -8.8,30.6 -19.49,94.03 -19.66,125.11l-0.91 24.29c2.9,-0.75 51.44,-30.38 58.34,-34.47 23.68,-14.07 50.52,-28.65 76.33,-40.05 6.87,-3.03 9.97,-4.43 13.61,-10.14 7.88,-12.37 2.23,-26.1 -6.74,-32.16 -12.29,-8.3 -25.39,-0.78 -35.55,4.06 -4.52,2.15 -29.71,14.9 -31.51,15.1l53.77 -45.54c12.2,-10.97 67.04,-63.29 68.87,-80.89 1.58,-15.23 -9.19,-27.08 -23.82,-26.74 -13.94,0.32 -58.75,32.22 -65.94,34.45 1.04,-3.93 55.22,-60.58 60.52,-65.84 4.15,-4.12 9.69,-8.41 12.22,-13.01 7.95,-14.47 -0.86,-29.59 -12.4,-33.5 -14.47,-4.9 -26.09,5.21 -35.95,11.14l-93.56 58.71c2.05,-4.44 43.68,-43.08 50.38,-49.16 16.88,-15.29 35.05,-29.42 57.69,-42.2 30.12,-17 7.39,-58.62 -23.82,-40.41 -7.36,4.29 -60.64,36.19 -63.64,36.43l41.15 -42.37c7.79,-7.99 13.34,-14.17 20.43,-21.29 8.02,-8.06 15.66,-14.71 17.24,-25.27 1.87,-12.54 -7.22,-22.11 -16.32,-24.89 -11.27,-3.45 -23.9,4.19 -32.94,7.88l-44 19.8c-3.83,1.83 -11.03,5.8 -14.08,6.68 1.17,-4.2 72.11,-70.01 80.49,-77.21 4.62,-3.96 6.99,-9.04 6.82,-16.82 -4.63,-1.9 -12.17,-7.36 -17.61,-10.22 -2.96,-1.55 -17.58,-8.22 -19.03,-9.79 -5.22,7.95 -141.64,86.19 -143.32,86.34 1.82,-5.1 55.14,-45.77 59.7,-57.54 5.76,-14.88 -3.93,-33.56 -24.73,-32.03 -6.87,0.5 -8.95,3.09 -13.49,6.42 -7.68,5.63 -15.09,10.3 -23.3,16.02 -36.09,25.15 -106.63,61.91 -147.9,86.6 -16.76,10.02 -32.46,20.32 -47.79,30.91 -8.08,5.58 -14.08,10.61 -22.41,16.92l-19.55 16.53c-1.14,0.42 -0.44,0.38 -1.47,0.07z"/>
   <path class="fil2" d="M546.06 755.72c-2.12,3.91 -1.63,20.95 -1.89,26.84l0.7 24.41c0.15,0.88 0.23,2.47 1.41,3.36 2.37,1.78 51.42,-2.23 56.25,-3.31 4.95,-1.1 3.37,-2.31 9.41,-12.29 3.64,-6.01 7.36,-11.43 11.52,-16.75 35.47,-45.42 68.25,-67.5 100.45,-121.52 13.56,-22.74 25.57,-50.2 33.39,-78.49 17.11,-61.86 14.07,-130.72 -3.44,-193.3 -8.29,-29.6 -15.63,-53.19 -33.46,-77.67 -8.09,-11.09 -16.52,-22 -26.09,-29.93 -2.64,-2.19 -4.12,-4.38 -6.82,-6.55 -6.02,-4.82 -18.42,-15.78 -24.74,-18.2 0.17,7.77 -2.2,12.85 -6.82,16.82 -8.38,7.2 -79.32,73.01 -80.49,77.21 3.04,-0.88 10.25,-4.85 14.08,-6.68l44 -19.8c9.03,-3.69 21.67,-11.33 32.94,-7.88 9.1,2.78 18.19,12.35 16.32,24.89 -1.57,10.56 -9.22,17.21 -17.24,25.27 -7.1,7.13 -12.64,13.31 -20.43,21.29l-41.15 42.37c3,-0.25 56.28,-32.14 63.64,-36.43 31.21,-18.21 53.94,23.41 23.82,40.41 -22.65,12.78 -40.82,26.91 -57.69,42.2 -6.71,6.07 -48.33,44.72 -50.38,49.16l93.56 -58.71c9.86,-5.94 21.48,-16.04 35.95,-11.14 11.55,3.91 20.35,19.04 12.4,33.5 -2.53,4.6 -8.06,8.88 -12.22,13.01 -5.3,5.26 -59.47,61.91 -60.52,65.84 7.18,-2.23 52,-34.13 65.94,-34.45 14.63,-0.34 25.4,11.52 23.82,26.74 -1.82,17.6 -56.67,69.93 -68.87,80.89l-53.77 45.54c1.79,-0.2 26.99,-12.94 31.51,-15.1 10.16,-4.84 23.26,-12.36 35.55,-4.06 8.97,6.06 14.62,19.79 6.74,32.16 -3.64,5.71 -6.75,7.11 -13.61,10.14 -25.81,11.39 -52.65,25.97 -76.33,40.05 -6.89,4.09 -55.44,33.72 -58.34,34.47l0.91 -24.29z"/>
   <path class="fil2" d="M234.41 441.57c-4.09,8.05 -2.28,49.45 -1.27,61.01 5.85,67.15 31.07,135.87 74.26,184.24 29.68,33.23 56.56,70.98 72.02,113.45 0.37,1.02 0.7,2.18 0.98,2.9 2.38,6.02 6.32,4.42 24.85,5.06 3.97,0.14 7.59,0.68 11.8,0.75l8.89 0.21c2.06,-0.27 1.2,-0.01 2.36,-0.75 4.16,-7.88 -3.42,-64.69 -3.72,-78.58 -0.87,-39.86 -3.96,-68.38 -14.34,-104.68 -1.32,-4.6 -0.63,-5.01 -4.74,-6.74 -21.74,-9.14 -24.54,-11.69 -42.19,-22.25 -4.33,-2.59 -8.71,-5.99 -12.8,-9.16 -4.08,-3.15 -7.75,-6.51 -11.65,-9.6 -4.7,-3.71 -6.6,-7.24 -11.84,-10.71l-0.78 0.73c-0.1,0.09 -0.29,0.27 -0.4,0.37l-3.58 2.75c-10.74,7.24 -25.79,18.83 -39.51,15.81 -8.08,-1.78 -14.32,-8.27 -16.58,-15.74 -3.24,-10.73 0.99,-17.18 5.79,-23.63 9.22,-12.39 19.17,-23.9 29.04,-34.73l31.55 -31.68c-3.92,0.82 -56.16,38.78 -76.48,31.79 -8.43,-2.89 -15.67,-9.77 -16.18,-20.18 -0.62,-12.75 6.74,-18.92 12.24,-24.84 6.14,-6.6 11.19,-12.38 17.57,-18.63l36.15 -36.57c-5.16,1.73 -27.49,22.14 -32.1,26.45 -8.36,7.83 -18.5,23.93 -39.42,10.48l0.05 -7.53z"/>
   <path class="fil2" d="M241.82 402.56c1.03,0.31 0.33,0.35 1.47,-0.07l19.55 -16.53c8.33,-6.31 14.33,-11.34 22.41,-16.92 15.33,-10.59 31.03,-20.89 47.79,-30.91 41.28,-24.69 111.81,-61.45 147.9,-86.6 8.21,-5.72 15.61,-10.39 23.3,-16.02 4.54,-3.33 6.62,-5.92 13.49,-6.42 20.81,-1.53 30.49,17.16 24.73,32.03 -4.55,11.76 -57.88,52.44 -59.7,57.54 1.68,-0.15 138.1,-78.39 143.32,-86.34 -10.8,-6.5 -43.96,-15.3 -57.3,-18.07 -64.06,-13.28 -136.94,-6.47 -190.88,21.46 -30.6,15.85 -60.92,42.29 -81.96,69.31 -15.2,19.53 -51.48,72.67 -54.13,97.54z"/>
   <path class="fil2" d="M429.29 624.87c-0.2,4.86 3.3,15.23 4.48,21.07 4.28,21.12 7.23,45.82 7.96,67.44 0.55,16.28 2.24,31.39 3.18,47.2 0.47,7.92 1.49,15.61 1.61,23.54 0.1,6.81 -0.69,20.23 0.36,26.05 28.68,0.72 52.39,1.44 80.64,1.05 0.65,-15.01 -2.48,-29.98 -0.22,-50.77 3.94,-36.3 5.21,-56.45 11.48,-94.12 2.13,-12.77 9.23,-38.74 9.67,-42.71 -17.01,-1.43 -22.1,-1.4 -33.59,-12.04 -6.31,-5.85 -12.35,-14.34 -15.98,-23.89 -4.36,1.12 -1.31,-1 -4.31,3.47 -15,22.34 -35.75,35.54 -65.29,33.71z"/>
   <path class="fil2" d="M369.67 525.67l14.88 17.86c12.81,14.42 31.16,43.09 37.23,61.97 18.1,5.53 32.68,0.98 46.38,-10.3 4.41,-3.63 10.49,-11.47 13.63,-16.36 2.13,-3.31 3.72,-5.97 5.69,-9.33 2.87,-4.89 1.86,-5.55 -0.06,-11.31 -4.8,-14.46 -8.9,-31.99 -11.94,-47.8 -3.59,-18.65 -4.84,-35.11 -7.14,-54.24 -13.13,4.71 -58.88,43.35 -71.46,54.42 -4.03,3.55 -19.3,17.95 -23.28,18.73l-3.93 -3.64z"/>
   <path class="fil2" d="M397.81 930.85c10.37,1.46 15.97,4.26 31.73,5.7 47.34,4.33 84.13,2.12 131.71,-5.53 8.68,-1.4 18.17,-3.81 26.14,-4.89l1.18 -13.38 -38.54 4.02c-45.12,3.16 -99.57,1.66 -143.37,-5.34 -2.3,-0.37 -4.74,-0.96 -6.89,-1.16 -4.28,-0.41 -3.61,0.04 -3.32,4.18 0.37,5.33 1.1,11.3 1.36,16.4z"/>
   <path class="fil1" d="M495.78 95.01c-0.9,-6.96 3.3,-32.2 4.27,-40.63 1.36,-11.74 2.22,-32.52 -0.87,-43.11 -2.66,-3.63 -0.74,-6.79 -6.82,-9.92 -5.09,-2.63 -10.54,-1.08 -13.52,1.78 -6.63,6.36 -1.34,17.44 -1.25,27.92 0.12,15.1 -3.97,46.51 -5.9,62.68 -1.2,9.98 -1.87,21.63 -1.14,32.54 2.03,30.3 20.49,21.94 23.69,14.96 2.41,-5.25 0.7,-8.21 -0.26,-13.94 -1.11,-6.64 -0.57,-17.69 0.05,-24.8 0.1,-1.18 0.04,-2.75 0.16,-3.71l1.59 -3.78z"/>
   <path class="fil1" d="M867.4 385.16l20.17 -7.17c20.77,-6.21 44.6,-11.29 64.48,-18.48 7.15,-6.51 20.43,-4.39 19.06,-18.36 -0.48,-4.92 -4.15,-8.75 -8.83,-9.47 -6.03,-0.93 -10.12,2.03 -14.7,4.02 -33.39,14.47 -75.82,15.34 -108.99,39 -4.02,2.87 -7.11,4.92 -6.28,12.05 0.6,5.13 4.43,9.05 9.22,9.97 7.75,1.5 16.77,-9.24 25.87,-11.56z"/>
   <path class="fil1" d="M775.62 145.44c1.02,-2.35 9.45,-6.44 12.25,-7.97 9.08,-4.98 34.36,-18.71 36.06,-26.74 0.28,-7.41 -1.82,-11.94 -7.61,-13.9 -7.35,-2.49 -11.58,2.35 -15.87,5.2 -26.91,17.8 -56.91,30.9 -80.94,49.72 -5.43,4.26 -19.75,14.92 -20.23,23.32 -0.38,6.73 3.93,11.39 9.73,11.97 8.01,0.81 10.72,-4.17 14.39,-7.81 12.59,-12.49 29.17,-22.39 44.96,-31.34l5.04 -2.79c3.16,-0.53 0.91,-0.48 2.22,0.34z"/>
   <path class="fil0" d="M952.05 359.5c-19.88,7.19 -43.7,12.28 -64.48,18.48l-20.17 7.17c-1.36,3.47 -4.31,6.69 -2.99,12.42 3.59,15.57 24.32,6.69 33.59,3.96 8.23,-2.42 16.75,-4.8 25.1,-7.17l50.5 -14.04c9.01,-2.48 17.21,-3.25 19.39,-12.32 2.09,-8.67 -6.12,-16.46 -14.31,-15.08 -8.8,1.48 -18.17,6.02 -26.61,6.56z"/>
   <path class="fil2" d="M405.61 958.49c0.19,4.09 5.2,16.08 7.88,18.15 2.6,2 16.7,3.53 21.4,4.08 30.07,3.5 65.03,2.31 95.13,-1.42 9.69,-1.2 38.18,-3.83 44.76,-6.55 0.15,-0.15 0.35,-0.62 0.41,-0.5 0.28,0.59 7.93,-17.24 5.4,-18.6 -0.94,-0.51 -20.26,3.04 -23.23,3.5 -50.14,7.82 -102.62,8.69 -151.75,1.35z"/>
   <path class="fil2" d="M591.44 847.58c0.84,-4.57 2.54,-9.73 2.88,-14.05l-49.49 2.72c-17.71,0.51 -36.06,0.29 -53.81,0.17 -15.8,-0.11 -34.49,0.07 -49.66,-1.21 -7.88,-0.67 -18,-0.99 -25.88,-1.14 -8.82,-0.17 -17.5,-1.15 -26.17,-1.32 -1.02,10.33 2.9,9.51 4.87,9.98 3.88,0.92 7.74,1.77 11.65,2.51 8.28,1.57 16.23,3 24.89,4.27 52.77,7.7 108.06,6.14 160.72,-1.93z"/>
   <path class="fil0" d="M191.8 170.97c7.86,6.62 17.96,13.12 26.58,19.41 5.34,3.91 23.34,15.46 24.92,21.2 5.39,6.14 21.18,-5.81 14.36,-17.3 -2.06,-3.47 -56.41,-48.86 -63.78,-54.86 -7.32,-5.95 -14.11,-11.72 -21.48,-17.83 -8.8,-7.29 -21.49,-1.38 -20.95,10.15 0.35,7.4 10.68,13.99 18.64,20.34 6.48,5.17 17.08,13.31 21.72,18.88z"/>
   <path class="fil1" d="M832.69 667.16c10.53,10.09 22.28,19.34 35.14,28.18 6.66,4.58 12.57,8.22 19.69,12.57 5.49,3.36 15.15,9.58 20.45,11.66 7.4,2.42 15.89,11.7 23.79,0.83 7.02,-9.67 -3.22,-16.42 -9.96,-20.02 -14.77,-7.89 -30.09,-17.09 -42.94,-26.3 -13.9,-9.96 -26.47,-20.25 -37.61,-31.62 -13.55,-13.82 -29.98,2.76 -17.1,15.53 2.2,2.19 7.54,7.01 8.55,9.17z"/>
   <path class="fil0" d="M60.88 405.68c5.08,1.12 11.03,1.46 16.32,2.28 5.55,0.87 10.62,1.76 16.03,2.85 8.38,1.68 24.73,4.15 30.36,7.36 8.82,-6.16 6.61,-18.24 -3.09,-21.83 -9.76,-3.61 -73.25,-20.92 -84.02,-23.76 -6.82,-1.8 -22.4,-7.43 -28.49,-5.16 -8.16,3.05 -11.35,15.63 -3.41,21.69 3.43,2.61 21.53,6.8 27.55,8.48l28.75 8.08z"/>
   <path class="fil0" d="M823.93 110.73c-1.71,8.03 -26.98,21.76 -36.06,26.74 -2.8,1.53 -11.23,5.62 -12.25,7.97l-21.85 18.59c-3.66,3.08 -7.37,6.08 -11.07,9.39 -3.22,2.87 -8.06,5.33 -8.75,11.32 -1.38,11.97 11.47,18.71 21.08,11.09 20.41,-16.19 45.24,-39.51 66.06,-55.9 4.94,-3.89 18.98,-14.06 20.23,-19.54 1.56,-6.78 -1.85,-11.61 -5.39,-13.88 -2.11,-1.35 -4.8,-2.27 -8.08,-1.96 -4.58,0.44 -2.18,3.33 -3.9,6.17z"/>
   <path class="fil1" d="M243.29 211.58c-1.58,-5.75 -19.58,-17.3 -24.92,-21.2 -8.62,-6.29 -18.71,-12.79 -26.58,-19.41 -6.91,-2.19 -38.77,-28.26 -45.45,-29.21 -13.01,-1.84 -17.93,12.8 -9.6,20.11l65.66 46.07c7.34,5.37 14.23,10.38 21.25,15.76 4.52,3.47 8.27,4.96 13.97,1.66 5.05,-2.92 5.66,-6.21 5.66,-13.79z"/>
   <path class="fil0" d="M499.18 11.28c3.1,10.58 2.23,31.37 0.87,43.11 -0.97,8.43 -5.16,33.67 -4.27,40.63 1.6,15.26 -5.71,43.95 13.32,43.52 8.43,-0.19 12.31,-6.59 12.23,-15.38 -0.17,-16.93 0.59,-103.56 -3.16,-110.76 -3.81,-7.3 -10.47,-8.71 -19.1,-4.48l0.1 3.36z"/>
   <path class="fil0" d="M907.96 719.57c-5.29,-2.08 -14.96,-8.3 -20.45,-11.66 -7.11,-4.35 -13.02,-7.99 -19.69,-12.57 -12.86,-8.83 -24.61,-18.09 -35.14,-28.18 -8.62,1.47 -16.24,11.4 -9.28,19.93 3.28,4.01 51.93,39.85 58.71,45.01l29.42 22.52c3.39,2.47 7.6,4.31 12.74,2.24 8.31,-3.35 11.08,-14.52 3.27,-21.27 -4.56,-3.95 -15.05,-11.23 -18.41,-14.66 -0.72,-0.74 -0.59,-0.59 -1.19,-1.34z"/>
   <path class="fil2" d="M500.05 538.21c2.75,-1.74 2.6,-3.27 4.02,-8.03 0.88,-2.95 1.46,-5.7 2.16,-8.91 7.33,-33.68 14.33,-92.85 -7.45,-122.59 -1.39,-1.9 -0.86,-1.4 -2.61,-2.85 -2.65,-2.19 -1.02,-1.32 -3.96,-2.34 -13.62,37.51 -3.12,109.5 7.83,144.73z"/>
   <path class="fil0" d="M152.68 677.24c-1.06,6.29 -11.2,11.29 -16.53,14.85 -6.67,4.47 -12.06,8.57 -18.32,13.13 -5.86,4.26 -31.72,23.78 -37.29,25.47l-4.79 1.39c-5.7,1.08 -12.11,8.79 -10.23,15.9 2.45,9.28 12.03,12.73 20.62,6.53l39.26 -30c13.12,-9.95 25.96,-19.51 38.95,-29.46 5.4,-4.14 15.91,-9.35 11,-20.34 -1.7,-3.81 -5.14,-6.67 -9.51,-7.29 -7.46,-1.05 -8.04,2.61 -12.29,4.16l-0.35 4.49c-0.05,0.19 -0.19,0.45 -0.24,0.6 -0.05,0.15 -0.16,0.4 -0.27,0.58z"/>
   <path class="fil2" d="M395.96 883.93c28.35,8.33 114.59,11.02 146.21,8.31l46.79 -5.44c0.16,-9.67 0.91,-12.83 -3.08,-12.82l-20.16 2.52c-30.79,2.62 -42.78,4.08 -76.23,3.15 -33.52,-0.94 -64.87,-5.31 -94.87,-10.86 -0.25,4.68 0.05,10.84 1.34,15.15z"/>
   <path class="fil1" d="M123.59 418.17c-5.63,-3.22 -21.97,-5.68 -30.36,-7.36 -5.41,-1.09 -10.48,-1.98 -16.03,-2.85 -5.29,-0.83 -11.25,-1.17 -16.32,-2.28l-5.77 0.67c-10.79,-0.29 -36.51,-2.59 -40.57,8.37 -3.37,9.09 2.86,15.8 10.69,16.07 3.76,0.13 7.21,-1.4 11.72,-1.53 25.89,-0.76 37.93,2.08 62.35,6.97 6.64,1.33 17.32,5.15 23.38,0.81 9.68,-6.94 1.31,-17.29 0.92,-18.86z"/>
   <path class="fil1" d="M80.53 730.7c5.58,-1.69 31.44,-21.21 37.29,-25.47 6.27,-4.56 11.65,-8.66 18.32,-13.13 5.33,-3.56 15.47,-8.56 16.53,-14.85 0.22,-7.77 -2.23,-13.01 -8.82,-14.24 -7.12,-1.32 -12.62,3.73 -16.78,6.62 -9.44,6.55 -18.11,12.92 -27.12,19.31 -9.47,6.73 -17.49,12.78 -27.41,19.01 -13.82,8.68 -9.61,24.33 7.98,22.75z"/>
   <path class="fil2" d="M464.27 1007.87c-4.92,-0.04 -21.19,-2.15 -24.1,-0.25 1.35,2.4 3.06,3.19 5.41,4.65 16.79,10.44 34.64,16.13 55.7,15.32 12.18,-0.47 23.58,-2.67 32.93,-7.28 7.12,-3.51 20.95,-12.81 23.09,-18.41 -5.49,-0.69 -16.22,1.52 -22.26,2.1 -7.21,0.7 -15.38,1.86 -22.82,2.3 -16.17,0.94 -31.48,1.51 -47.96,1.57z"/>
   <path class="fil2" d="M397.5 594.68c-3.42,-13.19 -36.55,-55.45 -52.68,-66.55 -3.59,-2.47 -6.85,-5.46 -12.83,-4.53 -11.38,15.47 14.32,37.43 21.4,43.35 8.33,6.97 35.34,27.33 44.11,27.73z"/>
   <path class="fil2" d="M578.9 590.77c3.54,-1.15 11.31,-7.07 14.03,-10.05l16.15 -16.12c5.15,-4.8 31.17,-35.15 29.06,-44.83 -18.73,-2.76 -31.2,15.91 -38.29,26.29 -4.32,6.32 -21.09,36.14 -20.95,44.7z"/>
  </g>
 </g>
</svg>
