<?xml version="1.0" encoding="UTF-8"?>
<!DOCTYPE svg PUBLIC "-//W3C//DTD SVG 1.1//EN" "http://www.w3.org/Graphics/SVG/1.1/DTD/svg11.dtd">
<!-- Creator: CorelDRAW 2020 (64 Bit) -->
<svg xmlns="http://www.w3.org/2000/svg" xml:space="preserve" width="266.857mm" height="71.2835mm" version="1.1" style="shape-rendering:geometricPrecision; text-rendering:geometricPrecision; image-rendering:optimizeQuality; fill-rule:evenodd; clip-rule:evenodd"
viewBox="0 0 73885.71 19736.51"
 xmlns:xlink="http://www.w3.org/1999/xlink"
 xmlns:xodm="http://www.corel.com/coreldraw/odm/2003">
 <defs>
  <style type="text/css">
   <![CDATA[
    .fil9 {fill:#00161D}
    .fil18 {fill:#0017C6}
    .fil15 {fill:#0038B5}
    .fil20 {fill:#0051CF}
    .fil17 {fill:#006AFB}
    .fil21 {fill:#012BD7}
    .fil7 {fill:#014B00}
    .fil8 {fill:#0154AC}
    .fil4 {fill:#017301}
    .fil12 {fill:#0176E8}
    .fil1 {fill:#0CA3FC}
    .fil22 {fill:#162C37}
    .fil0 {fill:#62BC05}
    .fil13 {fill:#8EBBCD}
    .fil14 {fill:#A20000}
    .fil19 {fill:#CC4C0B}
    .fil3 {fill:#CD0001}
    .fil10 {fill:#E60000}
    .fil23 {fill:#EBE45C}
    .fil26 {fill:#F04B31}
    .fil25 {fill:#F5706C}
    .fil24 {fill:#F5B014}
    .fil2 {fill:#FD2501}
    .fil11 {fill:#FE7401}
    .fil5 {fill:#FED501}
    .fil16 {fill:#FEFEFE}
    .fil6 {fill:#FF9D01}
    .fil27 {fill:#373435;fill-rule:nonzero}
   ]]>
  </style>
 </defs>
 <g id="Camada_x0020_1">
  <metadata id="CorelCorpID_0Corel-Layer"/>
  <g id="_1940435903840">
   <path class="fil0" d="M61.72 7156.32c-2.69,-244.34 -45.99,-182.02 58.25,-397.17 120.41,-248.55 166.21,-379.46 338.01,-622.33 71.21,-100.67 100.89,-213.14 172.46,-304.64 79.85,-250.29 250.74,-492.03 509.28,-583.84 500.59,-177.78 1149.72,387.9 1416.98,725.6l323.69 497.15c46.71,82.09 42.08,128.25 107.81,179.14 -4.51,-894.41 -55.85,-1091.3 292.21,-1935.23 360.07,-873.12 660.15,-1361.53 1283.83,-2091.78 164.21,-192.26 649.85,-640.66 890.9,-795.01 320.51,-205.25 727.37,-507.62 1100.82,-595.58 29.9,281.58 -19.19,588.13 -15.73,843.05 7.17,529.33 -22.18,387.54 -59.44,854.6l64.82 -316.55c18.8,-134.56 17.55,-224.38 26.91,-372.56 26.14,-414.09 74.95,-1075.29 25.31,-1484.32 -22.98,-189.3 -64.29,-577.56 -50.34,-749.69 -826.77,-63.24 -2195.11,306.36 -2805.48,620.86 -398.59,205.36 -756.67,392 -1084.18,628.75 -423.59,306.17 -993.95,838.32 -1305.6,1272.15l-502 786.93c-253.15,441.23 -393.1,667.35 -528.86,1182.5 -33.92,128.69 -73.29,197.96 -107.59,313.64 -154.14,519.69 -300.38,2093.14 -152.09,2344.34z"/>
   <path class="fil1" d="M8289.15 7804.73c-53.27,-29.24 -33.14,-13.48 -64.54,-67.36 -105.71,-181.46 -41.89,-437.4 -66.78,-637.22 -110.44,-239.52 -388.18,-169.61 -621.36,-98.07 -107.93,33.14 -229.64,68.78 -349.03,97.21 -125.67,29.93 -244.12,30.43 -368.38,74.01l-712.92 39.95c-12.51,350.41 109.01,646.14 165.24,976.31 26.44,155.16 102.97,289.17 135.45,450.81 57.06,283.99 117.59,350.36 131.65,428.32 104.19,94.33 201.04,419.91 2.93,481.62 -120.86,37.65 -216.02,-9.91 -273.33,-66.7 -73.73,-73.04 -59.03,-113.3 -184.9,-164.68 -197.27,-80.51 -424.31,28.07 -519.11,140.46 -140.37,166.43 -119.44,321.7 -111.25,591.46 119.58,240.41 204.91,370.21 497.98,455.54 103.19,30.04 319.98,52.88 432.84,34.58 152.11,-24.61 184.54,-88.68 337.98,-126.23 61.49,-121.08 117.95,-71.46 220.72,-258.77 46.13,-84.03 81.4,-223.33 111.39,-333.27 37.35,-136.86 76.44,-224.66 201.67,-262.73 88.24,-26.8 322.83,-41.23 382.14,-8.86 258.1,23.59 527.64,301.99 562.52,503.08 42.28,13.4 19.38,-0.58 42.5,57.92 4.9,12.35 22.54,82.79 26.25,99.04 16.61,72.57 29.02,123.24 21.07,195.86 49.7,87.41 29.49,293.76 14.79,383.8 -24.45,149.82 -57.23,201.65 -104.55,328.68l-24.09 83.26c349.8,-48.48 1349.98,-705.25 1573.72,-885.05 329.95,-265.19 794.96,-730.72 1067.6,-1065.82 64.32,-79.05 77.97,-129.02 153.72,-183.4 33.39,-63.32 94.41,-120.74 141.79,-178.14l244.92 -414.56c11.66,-33.92 424.03,-776.55 494.91,-1057.44l218.45 -645.23c2.24,-4.76 6.09,-10.69 8.39,-15.17l17.42 -26.5c14.87,-33.25 5.87,6.81 9.58,-38.07 8.75,-105.21 122.27,70.77 -9.61,-28.21 -174.98,-3.52 -524.18,109.53 -688.39,156.49 -115.18,32.95 -206.82,91.04 -315.53,112.99 -162.97,32.95 -253.45,-36.85 -344.51,-63.76 -76.33,-13.51 -201.37,-104.55 -248.91,-164.35 -47.54,-59.8 -98.87,-219.7 -101.89,-293.68 -23.2,-570.58 577.12,-557.4 448.59,-1074.32 -21.18,-85.17 -288.45,-398.34 -335.38,-441.31 -121.22,-129.52 -924.43,-389.15 -1300.45,354.37 -132.51,262.01 -102.28,562.91 4.24,815.06 151.03,357.47 766.8,679.48 755.28,1214.7 -7.59,352.85 -133.62,499.92 -326.16,656.16 -293.07,237.83 -759.41,359.05 -1126.79,119.89 -98.98,-64.43 -215.1,-135.81 -227.89,-252.65z"/>
   <path class="fil2" d="M6480.81 2930.26c-22.29,135.14 -92.59,252.59 -278.92,207.07 -182.68,-44.6 -232.21,-176.26 -278.29,-250.57 -112,-180.66 -488.85,-257.94 -778.24,-168.89 -427.41,131.49 -790.09,735.85 -626.18,1325.37l-9.22 -181.35c133.4,88.13 167.29,210.09 381.14,271.92 197.66,57.15 377.57,29.57 517.67,-57.62 235.23,-146.41 507.51,-448.23 934.89,-316.66 560.89,172.66 815.09,832.61 567.95,1188.92 -111.36,160.59 -196.19,218.95 -435.27,217.21l-1.47 -87.71c-26.11,171.88 -72.21,310.68 -119.44,462.96 -51.3,165.46 -64.01,333.72 -101.67,508.2 124.54,-12.65 91.2,-19.52 240.05,-70.77 424,-146.02 674.08,-297.58 998.18,-427.41l648.33 -429.85c383.28,-274.44 1125.63,-1032.52 1217.36,-1628.82 30.15,-260.12 89.46,-302.82 65.2,-618.01 -83.59,-1086.78 -680.86,-1818.37 -1455.5,-2497.76 -28.63,-25.11 -67.22,-54.29 -93.8,-70.8l-272.66 -163.94 -109.09 -38.85c-312.65,-62.21 -619.26,-81.51 -944.33,-95.77 -13.95,172.13 27.36,560.39 50.34,749.69 49.64,409.03 0.83,1070.23 -25.31,1484.32 -9.36,148.18 -8.11,238 -26.91,372.56l-64.82 316.55z"/>
   <path class="fil3" d="M9357.69 3492.26c-91.73,596.3 -834.08,1354.38 -1217.36,1628.82l-648.33 429.85c-324.11,129.83 -574.18,281.39 -998.18,427.41 -148.85,51.25 -115.51,58.12 -240.05,70.77 -29.49,112.16 -76.25,377.63 -91.98,469.47l-14.12 -105.24c-51,130.93 -28.68,615.1 -41.53,799.92l712.92 -39.95c-4.96,-6.29 -19.16,-20.38 -18.36,-15.45l228.37 -85.28c-176.31,-4.98 -558.37,100.73 -693.43,54.41 -90.01,-30.84 -39.04,43.69 -63.32,-63.35 -12.02,10 -3.21,39.79 -78.05,66.53 -109.25,-881.18 125.15,-635.56 708.13,-734.99 88.57,-15.12 271.78,-48.87 351.46,-79.99 121.3,-47.35 135.97,-86.25 325.74,-91.37 237.78,-6.42 589.91,-14.23 760.9,88.46 224.38,134.78 193.45,446.57 135.53,629.39 37.93,101.58 -93.89,262.37 -129.3,355.75 -78.33,206.6 -37.18,308.3 -57.59,507.32 12.79,116.84 128.91,188.22 227.89,252.65 367.38,239.16 833.72,117.95 1126.79,-119.89 192.54,-156.24 318.57,-303.31 326.16,-656.16 11.52,-535.22 -604.25,-857.23 -755.28,-1214.7 -106.51,-252.15 -136.75,-553.05 -4.24,-815.06 376.02,-743.52 1179.23,-483.89 1300.45,-354.37 136.03,68.5 291.38,229 362.21,376.46 58.86,122.6 94.33,489.15 37.27,637.78 -20.02,231.77 -224.27,464.34 -127.58,746.45 109.89,320.56 330.56,142.23 564.16,72.4 117.67,-35.19 229.06,-45.55 363.2,-82.95 229.53,-64.04 922.43,-267.04 1113.28,-255.08l-69.52 -121.44c-8.61,-30.59 -3.99,-11.49 -7.61,-42.69 -5.98,-51.58 2.1,-134.64 2.57,-190.79 2.52,-297.86 -70.22,-735.13 -123.85,-1019.45 -36.35,-192.84 -146.96,-369.71 -231.52,-541.4 -252.29,-512.3 -732.41,-451.55 -903.55,-636.01 -384.02,-413.82 -352.18,-532.79 -526.56,-833.08 -95.22,-163.91 -338.7,-234.65 -468.19,-304.84 -46.51,-25.22 -69.33,-48.92 -109.01,-76.56 -82.26,87.74 -95.58,90.68 -197.36,161.78 -146.6,102.44 -13.37,471.02 -259.13,468.61 -264.44,-2.6 -205.8,-23.89 -193.48,107.57 -242.82,-18.86 17.17,33.25 -259.79,-24.42l-94 123.01c-2.24,2.77 -10.27,18.55 -12.02,14.4 -1.83,-4.4 -8.2,10.49 -12.76,15.31z"/>
   <path class="fil4" d="M630.44 5832.17c109.56,134.56 -23.48,806.34 832.86,768.68 540.15,-23.78 709.79,-313.25 1236.24,192.73 437.46,420.46 -136.44,707.13 -91.98,1190.09 22.51,244.56 183.43,345.76 447.79,359.82 276.93,14.73 525.81,3.9 659.04,-168.56 114.1,-147.71 117.95,-486.99 23.59,-640.49 -97.93,-159.31 -286.7,-301.71 -92.53,-579.91 129.05,-184.92 817.55,-399.06 1080.55,-538.99 527.03,-280.45 956.71,-617.07 1363.19,-1046.44 100.53,-106.21 180.3,-157.29 249.52,-311.45 43.16,-96.08 19.1,-94.28 98.35,-132.43l19.74 -121.52c-36.46,-273.88 -309.99,-325.13 -494.22,-195.72 -176.76,124.18 -277.23,248.96 -586.25,240.08 -431.37,-12.38 -750.22,-412.24 -857.14,-804.82 -163.91,-589.52 198.77,-1193.88 626.18,-1325.37 289.39,-89.04 666.24,-11.77 778.24,168.89 46.07,74.31 95.6,205.97 278.29,250.57 186.34,45.52 256.63,-71.93 278.92,-207.07 37.27,-467.06 66.62,-325.27 59.44,-854.6 -3.46,-254.92 45.63,-561.47 15.73,-843.05 -373.45,87.96 -780.31,390.34 -1100.82,595.58 -241.05,154.36 -726.68,602.75 -890.9,795.01 -623.69,730.25 -923.76,1218.66 -1283.83,2091.78 -348.06,843.94 -296.73,1040.82 -292.21,1935.23 -65.73,-50.89 -61.11,-97.04 -107.81,-179.14l-323.69 -497.15c-267.27,-337.7 -916.4,-903.38 -1416.98,-725.6 -258.54,91.81 -429.43,333.55 -509.28,583.84z"/>
   <path class="fil5" d="M1113.45 7121.16c-52.72,127.28 -19.05,22.4 20.63,65.65 80.13,-5.65 73.01,-14.26 117.31,-23.42l-260.07 51.78c37.05,14.09 59.64,17.17 99.2,36.27 -4.46,302.6 -24.56,39.34 34.83,249.82 166.87,591.18 247.55,876.3 576.98,1413.77l308.58 489.68c27.22,40.67 45.13,81.01 70.55,118l180.13 216.96c45.88,54.07 51.94,68.83 89.07,122.54 164.13,237.56 948.37,1019.12 1199.25,1191.36 474.48,325.77 478.35,347.48 1084.49,491.12 194.84,46.18 744.13,24.7 942.98,-24.06l488.6 -123.13c269.26,-101.5 450.81,-393.02 726.77,-474.53 136.58,-40.34 466.73,-164.96 547.93,-242.68 205.41,-196.72 432.39,-210.06 518.61,-628.95 -3.21,-117.92 -20.02,-364.97 -92.92,-419.46 -1.58,-1.19 -45.85,-20.85 -58.78,-28.57 -60.44,-36.08 -35.08,-14.01 -70.02,-52.19 -59.31,-32.37 -293.9,-17.94 -382.14,8.86 -125.23,38.07 -164.32,125.87 -201.67,262.73 -29.99,109.95 -65.26,249.24 -111.39,333.27 -102.78,187.3 -159.23,137.69 -220.72,258.77 -26.86,52.86 -0.03,10.99 -57.92,41.67 -21.24,11.27 -43.61,21.9 -63.76,31.62 -189.77,91.48 -240.49,-2.21 -460.16,156.1 -153.75,110.83 -813.92,-131.71 -925.12,-201.9 -599.9,-378.6 -518.89,-797.87 -278.45,-1404.33l255.39 -541.01c179.39,-405.2 395.65,-756.36 406.84,-1218.05 -174.76,5.95 -103.72,-30.79 -243.79,-52.47l-790.45 -65.54c-184.98,-24.61 -341.25,-66.31 -464.07,62.66 -157.96,165.87 -46.32,209.81 -49.84,413.12 13.84,74.53 88.24,128.69 121.41,329.04 64.15,387.37 -93.75,774.8 -398.78,919.33 -478.85,226.87 -984.84,229.09 -1366.15,-134.42 -632.32,-602.86 -69.69,-1131.75 -32.62,-1264.54 164.91,-590.74 -900.39,-440.51 -1260.72,-364.86z"/>
   <path class="fil6" d="M78.8 7331.42c55.51,305.09 106.73,616.43 190.43,885.64 30.15,96.93 82.07,321.26 123.18,419.52 54.49,130.35 113.96,252.95 170.08,387.65 86.16,206.71 461.47,878.69 590.63,1049.13l164.27 254.83c47.68,88.35 4.35,38.46 77.64,79.93 -4.9,-114.68 -39.4,-315.41 98.87,-253.7 56.34,25.17 56.01,72.01 82.18,107.84 41.59,56.98 45.08,32.23 96.19,90.54 59.33,67.67 50.06,174.15 307.11,254.23 66.17,20.63 28.24,13.68 54.82,3.93 5.48,-2.02 20.35,-12.54 25.69,-16.34l28.82 -25.92c3.68,-3.21 9.58,-10.41 15.12,-14.76 9.03,130.71 32.26,30.48 108.26,150.79 21.54,34.08 24.81,49.01 47.65,66.37 84.83,64.57 42.72,-50.03 120.14,96.82 37.9,71.93 15.09,72.87 72.51,135l152.67 149.95c100.31,69.41 113.99,47.04 272.47,291.85 48.92,75.59 28.52,56.43 90.23,121.52l528.05 735.6c233.38,365.53 417.08,488.79 637.89,747.28 62.63,73.32 118.56,93.64 183.98,143.89 54.96,42.22 77,70.66 124.37,109.17 74.37,60.41 164.93,115.15 248.77,174.1 117.59,82.73 760.49,461.96 842.78,384.05 41.64,-48.2 25.39,-15.62 30.84,-108.09 2.49,-42.14 -4.57,-102.14 0.94,-142.42 14.92,-109.14 55.13,-67.39 86.52,-213 79.41,-368.44 14.59,-276.74 209.45,-372.87 3.16,-117.87 -9.41,-249.52 25.75,-333.85 134.56,146.24 118.5,676.35 210.29,794.05 1.38,1.77 5.98,6.12 7.53,7.7l52.52 39.57c43.14,48.4 65.34,125.17 100.62,182.85 80.74,131.96 282.16,358.52 376.69,274.99 42.2,-37.29 12.96,-27.02 18.38,-114.65 -7.31,-85.25 -110.86,-426.77 -146.27,-556.07 -42.58,-155.46 -127.28,-360.27 -133.09,-519.55 -85.14,-76.97 -70.77,-135.53 -88.6,-258.24 -14.29,-98.48 -26.61,-188.69 -29.43,-290.3 -4.62,-166.23 -13.35,-446.87 17.22,-603.14 43.55,-222.72 111.72,-265.85 282.27,-349.47 193.78,-95.02 327.9,-16.03 460.27,86.5 377.93,292.66 1161.32,17.17 1274.39,-977.31 7.95,-72.62 -4.46,-123.29 -21.07,-195.86 -3.71,-16.25 -21.35,-86.69 -26.25,-99.04 -23.12,-58.5 -0.22,-44.52 -42.5,-57.92 -66.15,25.92 -12.35,1.66 -51.28,27.6l-88.74 -59.94 -34.08 118.28c-33.11,-32.81 -7.92,-11.55 -28.93,-41.86 -3.68,-5.32 -14.15,-22.7 -17.94,-27.63 -34.53,-44.83 13.84,-20.65 -43.75,-41.7 -1.77,87.96 9.55,55.98 -37.24,114.43l-38.85 -92.03c-86.22,418.88 -313.2,432.23 -518.61,628.95 -81.21,77.72 -411.35,202.34 -547.93,242.68 -275.96,81.51 -457.51,373.03 -726.77,474.53l-488.6 123.13c-198.85,48.76 -748.14,70.24 -942.98,24.06 -606.13,-143.64 -610.01,-165.35 -1084.49,-491.12 -250.88,-172.24 -1035.12,-953.8 -1199.25,-1191.36 -37.13,-53.71 -43.19,-68.47 -89.07,-122.54l-180.13 -216.96c-25.42,-36.99 -43.33,-77.33 -70.55,-118l-308.58 -489.68c-329.42,-537.47 -410.1,-822.59 -576.98,-1413.77 -59.39,-210.48 -39.29,52.77 -34.83,-249.82 -39.57,-19.1 -62.16,-22.18 -99.2,-36.27l260.07 -51.78c-44.3,9.16 -37.18,17.78 -117.31,23.42 -39.68,-43.25 -73.34,61.63 -20.63,-65.65l-1034.65 210.26z"/>
   <path class="fil7" d="M630.44 5832.17c-71.57,91.51 -101.25,203.97 -172.46,304.64 -171.8,242.87 -217.59,373.78 -338.01,622.33 -104.24,215.16 -60.94,152.83 -58.25,397.17l17.08 175.09 1034.65 -210.26c360.32,-75.64 1425.62,-225.87 1260.72,364.86 -37.07,132.79 -599.71,661.67 32.62,1264.54 381.31,363.51 887.3,361.29 1366.15,134.42 305.03,-144.53 462.93,-531.96 398.78,-919.33 -33.17,-200.35 -107.57,-254.5 -121.41,-329.04 -74.7,-49.92 -98.15,-63.29 -106.9,-215.24 -17.06,-295.59 257.22,-354.62 520.33,-343.82l1060.09 110.92c258.1,64.43 323.89,29.02 582.32,24.78 12.85,-184.81 -9.47,-668.98 41.53,-799.92 6.76,-280.2 47.93,-531.79 103.11,-786.46 55.21,-254.81 156.05,-476.91 186.28,-701.65 -79.24,38.15 -55.18,36.35 -98.35,132.43 -69.22,154.16 -148.99,205.25 -249.52,311.45 -406.48,429.38 -836.16,766 -1363.19,1046.44 -263,139.93 -951.5,354.07 -1080.55,538.99 -194.17,278.2 -5.4,420.6 92.53,579.91 94.36,153.5 90.51,492.78 -23.59,640.49 -133.23,172.46 -382.11,183.29 -659.04,168.56 -264.36,-14.07 -425.28,-115.26 -447.79,-359.82 -44.47,-482.95 529.44,-769.63 91.98,-1190.09 -526.45,-505.99 -696.09,-216.52 -1236.24,-192.73 -856.34,37.65 -723.3,-634.12 -832.86,-768.68z"/>
   <path class="fil8" d="M10361.52 10494.06l-776.77 688.92c-147.3,114.76 -257.94,223.69 -412.32,336.51 -80.21,58.61 -131.65,106.65 -219.62,152 -90.45,46.63 -157.24,84.25 -224.99,131.93 -305.25,214.74 -646.06,324.72 -1014.35,457.17 -254.78,91.65 -1007.87,105.13 -1328.44,140.73 -50.09,-88.54 -45.21,-176.09 -45.46,-298.17 -44.08,75.84 -36.35,150.07 -2.02,331.47 18.52,97.87 30.82,249.05 36.22,364.34 5.81,159.29 90.51,364.09 133.09,519.55 35.41,129.3 138.96,470.82 146.27,556.07 37.43,33.25 4.35,-11.24 44.24,53.24 10.38,16.81 32.7,69.63 37.27,82.62 19.57,55.54 26.05,115.93 46.96,161.17 137.63,81.82 507.54,-71.1 656.74,-121.44 324.83,-109.53 293.98,-111.3 573.65,-252.15 182.54,-63.13 720.87,-324.91 827.88,-429.1l247.94 -221.53c41.2,-35.27 47.9,-40.09 91.4,-73.4 105.02,-80.49 247.86,-220 374.89,-261.04 -5.79,29.85 37.46,-25.42 -31.34,-13.71l-52.11 35.02c-3.02,2.46 -9.11,9.44 -14.73,12.65l-78.8 -203.36c3.43,-76.31 25.5,-69.5 28.93,-280l124.9 -84.92c3.02,-2.13 8.58,-6.51 11.52,-8.47 2.71,-1.83 8.42,-5.7 11.1,-7.34 59.86,-36.88 81.98,-22.15 150.73,-91.53l103.58 -174.01c74.4,-137.3 300.91,-323.55 352.13,-437.57 38.68,-86.02 130.77,-192.15 208.73,-250.07l34.97 -20.54c77.55,-61.85 -25.61,67.22 20.18,-22.62 20.52,-40.29 14.45,-119.8 142.2,-184.43l25.28 -10.38c48.09,-26.72 17.69,-41.59 99.9,-119.39 60.08,-56.84 115.43,-45.57 91.12,-112.47 -12.82,-35.27 -26.41,-14.4 -45.16,-74.31 42.75,-21.96 39.48,-19.38 64.35,-45.43 1.83,-1.91 5.93,-7.2 7.78,-9.25l57.26 -72.18c31.76,-72.65 4.98,-53.91 13.21,-99.92 12.4,-69.38 26.36,-53.96 47.48,-89.18 -21.01,-11.07 -32.56,-12.21 -35.02,-13.15l-22.76 -9.33c-2.57,-0.89 -9,-3.6 -11.71,-4.37 -52.88,-14.62 22.76,-25.64 -87.74,-1.66 0.42,-111.03 27.85,-170.66 46.65,-261.42 -188.94,29.04 -139.16,44.99 -255.17,148.76 -52.99,47.43 -45.66,32.15 -93.67,94.39 -60.52,78.47 -14.95,48.59 -106.37,91.29z"/>
   <path class="fil9" d="M8012 13798.04c-279.67,140.85 -248.83,142.62 -573.65,252.15 -149.21,50.34 -519.11,203.25 -656.74,121.44 -1.36,99.2 -33.86,92.53 -153.22,105.96 -417.53,46.93 -1176.55,4.98 -1580.06,-80.93 -274.58,-58.45 -548.07,-104.38 -800.16,-184.95 -252.37,-80.63 -461.08,-181.63 -700.52,-259.18 38.21,313.75 177.14,710.15 194.92,1099.24 7.34,160.23 -42.33,285.07 74.62,366.25 150.29,60.94 3292.69,-290.41 3690.89,-351.44 456.12,-69.91 1339.9,-124.45 1632.72,-375.97 159.31,-136.86 175.7,-713.14 361.15,-1164.72 45.66,-111.22 100.92,-261.45 124.18,-384.72 -55.29,-53.1 8.44,-26.22 -56.34,-12.93 -48.76,10.02 -83.67,61.08 -134.26,97.27 -81.87,58.61 -118.2,44.99 -200.48,105.46 -379.34,278.73 -722.42,533.67 -1223.03,667.07z"/>
   <path class="fil10" d="M9357.69 3492.26c4.57,-4.82 10.94,-19.71 12.76,-15.31 1.74,4.15 9.77,-11.63 12.02,-14.4l94 -123.01c276.96,57.67 16.97,5.57 259.79,24.42 -12.32,-131.46 -70.96,-110.17 193.48,-107.57 245.75,2.41 112.52,-366.17 259.13,-468.61 101.78,-71.1 115.1,-74.04 197.36,-161.78 39.68,27.63 62.49,51.33 109.01,76.56 129.49,70.19 372.98,140.93 468.19,304.84 174.37,300.3 142.53,419.27 526.56,833.08 171.14,184.45 651.26,123.71 903.55,636.01 84.56,171.69 195.17,348.56 231.52,541.4 53.63,284.32 126.37,721.59 123.85,1019.45 -0.47,56.15 -8.56,139.21 -2.57,190.79 3.63,31.2 -1,12.1 7.61,42.69l69.52 121.44c-15.42,45.74 4.49,40.31 -32.81,32.48l38.79 0.06c86.44,-119.44 -4.51,-461.74 -22.54,-621.75 -24.45,-216.82 -13.68,-456.43 -55.21,-665.6 -64.98,-327.26 -240.63,-847.07 -372.78,-1085.84 -176.26,-318.4 -310.4,-638.39 -498.21,-952.08 -107.26,-179.14 -199.71,-253.87 -318.49,-408.78 -57.26,-74.7 -75.34,-151.06 -127.53,-226.51 -36.71,-53.1 -118.06,-150.4 -165.79,-207.85l-722.5 -707.74c-434.17,-402.57 -1242.89,-866.95 -1819.28,-1087.25 -196.58,-75.12 -907.73,-342.13 -1126.18,-319.62l272.66 163.94c26.58,16.5 65.18,45.68 93.8,70.8 774.64,679.39 1371.91,1410.97 1455.5,2497.76 24.25,315.19 -35.05,357.89 -65.2,618.01z"/>
   <path class="fil9" d="M4472.97 17144.7c49.39,351.1 416.33,663.06 707.05,786.65 115.65,49.17 280.75,53.63 383.28,106.82 127.25,100.03 88.35,740.77 892.39,752.82 226.93,3.41 435.3,-107.4 589.44,-230.61 227.78,-182.1 165.32,-259.93 284.65,-535.89 333.58,-76.53 579.8,-173.27 775.49,-349.94 71.27,-64.35 185.98,-205.22 241.52,-320.51 126.25,-262.14 12.32,-182.4 283.82,-303.45 221.58,-98.82 619.7,-242.76 568.48,-554.41 -57.04,-346.95 -428.21,-63.38 -769.13,48.7 -835.74,274.82 -1980.45,411.52 -2891.39,503.41 -323.39,32.64 -750.69,104.13 -1065.6,96.41z"/>
   <path class="fil11" d="M1395.03 10408.12c22.57,69.3 85.06,129.41 127.17,189.05 282.11,399.56 674.96,822.01 1049.57,1364.46 599.21,867.67 547.21,858.45 975.87,1790.9 239.44,77.55 448.15,178.56 700.52,259.18 252.09,80.57 525.59,126.5 800.16,184.95 403.52,85.91 1162.54,127.86 1580.06,80.93 119.36,-13.43 151.87,-6.76 153.22,-105.96 -20.9,-45.24 -27.38,-105.63 -46.96,-161.17 -4.57,-12.99 -26.88,-65.81 -37.27,-82.62 -39.9,-64.48 -6.81,-19.99 -44.24,-53.24 -5.43,87.63 23.81,77.36 -18.38,114.65 -94.52,83.53 -295.95,-143.03 -376.69,-274.99 -35.27,-57.67 -57.48,-134.45 -100.62,-182.85l-52.52 -39.57c-1.55,-1.58 -6.15,-5.93 -7.53,-7.7 -91.78,-117.7 -75.72,-647.8 -210.29,-794.05 -35.16,84.34 -22.59,215.99 -25.75,333.85 -194.86,96.13 -130.05,4.43 -209.45,372.87 -31.4,145.61 -71.6,103.86 -86.52,213 -5.51,40.29 1.55,100.28 -0.94,142.42 -5.45,92.48 10.8,59.89 -30.84,108.09 -82.29,77.91 -725.19,-301.32 -842.78,-384.05 -83.84,-58.95 -174.4,-113.68 -248.77,-174.1 -47.37,-38.51 -69.41,-66.95 -124.37,-109.17 -65.43,-50.25 -121.35,-70.58 -183.98,-143.89 -220.81,-258.49 -404.51,-381.75 -637.89,-747.28l-528.05 -735.6c-61.72,-65.09 -41.31,-45.93 -90.23,-121.52 -158.48,-244.81 -172.16,-222.44 -272.47,-291.85l-152.67 -149.95c-57.42,-62.13 -34.61,-63.07 -72.51,-135 -77.41,-146.85 -35.3,-32.26 -120.14,-96.82 -22.84,-17.36 -26.11,-32.28 -47.65,-66.37 -76,-120.3 -99.23,-20.07 -108.26,-150.79 -5.54,4.35 -11.43,11.55 -15.12,14.76l-28.82 25.92c-5.34,3.79 -20.21,14.31 -25.69,16.34 -26.58,9.75 11.35,16.7 -54.82,-3.93 -257.05,-80.07 -247.77,-186.56 -307.11,-254.23 -51.11,-58.31 -54.6,-33.56 -96.19,-90.54 -26.16,-35.83 -25.83,-82.67 -82.18,-107.84 -138.27,-61.72 -103.77,139.02 -98.87,253.7z"/>
   <path class="fil12" d="M10971.08 9068.46c-75.75,54.38 -89.4,104.35 -153.72,183.4 -272.64,335.1 -737.65,800.64 -1067.6,1065.82 -223.74,179.8 -1223.92,836.57 -1573.72,885.05l24.09 -83.26c-36.16,42.31 -50.92,71.21 -85.58,116.59 -42.2,55.21 -53.35,63.29 -102.61,109.67 -232.32,218.73 -557.96,395.13 -902,247.91 -226.98,-97.1 -316.41,-278.29 -575.87,-107.76 -168.12,110.47 -213.19,411.85 -194.5,617.26 0.25,122.07 -4.62,209.62 45.46,298.17 320.56,-35.61 1073.66,-49.09 1328.44,-140.73 368.3,-132.46 709.1,-242.43 1014.35,-457.17 67.75,-47.68 134.53,-85.3 224.99,-131.93 87.96,-45.35 139.41,-93.39 219.62,-152 154.38,-112.83 265.02,-221.75 412.32,-336.51l776.77 -688.92c52.44,-133.67 252.59,-267.68 364.92,-464.98 65.81,-115.59 87.55,-42 220.28,-200.87 66.86,-80.02 115.46,-128.11 201.62,-200.93 130.05,-109.95 85.42,-109.25 152.94,-264l234.01 -379.01c51.89,-65.62 28.6,-64.93 39.09,-117.39l135.34 -252.09c-112.8,4.93 -123.1,36.46 -261.92,42.78 -289.47,13.18 -176.89,149.12 -328.15,286.76 -51.64,46.96 -92.31,62.85 -148.57,124.15z"/>
   <path class="fil6" d="M5598.44 7278.84c-11.19,461.69 -227.45,812.85 -406.84,1218.05l-255.39 541.01c-240.44,606.46 -321.45,1025.73 278.45,1404.33 111.19,70.19 771.37,312.73 925.12,201.9 219.67,-158.32 270.39,-64.62 460.16,-156.1 20.16,-9.72 42.53,-20.35 63.76,-31.62 57.89,-30.68 31.07,11.19 57.92,-41.67 -153.44,37.54 -185.87,101.61 -337.98,126.23 -112.85,18.3 -329.65,-4.54 -432.84,-34.58 -293.07,-85.33 -378.4,-215.13 -497.98,-455.54l-59.39 -125.48c-52.22,-229.53 -6.2,-516.65 194.78,-652.78 515.93,-349.47 585.98,36.8 753.37,113.82 94.36,43.41 189.8,-3.35 232.8,-63.51 62.35,-87.24 -0.83,-161.8 -35.91,-254.2 -14.07,-77.97 -74.59,-144.33 -131.65,-428.32 -32.48,-161.64 -109.01,-295.65 -135.45,-450.81 -56.23,-330.17 -177.75,-625.9 -165.24,-976.31 -258.43,4.24 -324.22,39.65 -582.32,-24.78l71.99 25.33 2.63 65.04z"/>
   <path class="fil9" d="M8982.88 15570.73c-154.25,46.51 -259.15,144.92 -605.08,241.1 -727.29,202.17 -3433.84,536 -4173.59,546.44 -144.31,2.05 -252.01,-74.95 -357.75,-33.94 -210.98,81.84 -169.67,428.63 80.82,515.84 272.66,94.91 3881.21,-373.61 4542.44,-535.75 1023.52,-250.96 759.99,-808.14 513.16,-733.69z"/>
   <path class="fil9" d="M8924.27 14757.36c-486.58,149.84 -649.43,290.41 -1293.8,401.6 -757.89,130.8 -2259.29,279.25 -3071.3,356.81 -129.69,12.38 -243.81,30.76 -377.54,34.97 -130.66,4.15 -269.73,-50.42 -368.88,12.02 -173.93,109.53 -135.42,479.18 180.77,491.95 320.34,12.93 1925.85,-179.8 2296.31,-240.88 719.29,-118.58 1518.21,-169.92 2218.67,-362.51 188.36,-51.8 474.15,-146.3 587.11,-256.08 195,-189.52 69.91,-512.19 -171.33,-437.88z"/>
   <path class="fil13" d="M3450.56 19478.58c275.99,201.87 2395.48,279.59 3098.21,252.81 596.41,-22.73 983.84,22.98 1719.3,-62.93 247.28,-28.88 859.61,-85.28 1077.48,-143.31 105.85,-28.19 79.41,-16.67 116.37,-85.64 -891.75,-347.37 -4197.24,-296.14 -5453.52,-121.52l-443.8 72.79c-113.32,34.17 -80.82,14.01 -114.04,87.8z"/>
   <path class="fil3" d="M4519.18 4043.24c106.93,392.58 425.78,792.44 857.14,804.82 309.02,8.89 409.5,-115.9 586.25,-240.08 184.23,-129.41 457.75,-78.16 494.22,195.72 42.83,71.38 24.5,180.19 18.08,274.24l1.47 87.71c239.08,1.74 323.91,-56.62 435.27,-217.21 247.14,-356.31 -7.06,-1016.26 -567.95,-1188.92 -427.38,-131.57 -699.66,170.25 -934.89,316.66 -140.1,87.19 -320.01,114.76 -517.67,57.62 -213.86,-61.83 -247.75,-183.79 -381.14,-271.92l9.22 181.35z"/>
   <path class="fil14" d="M6819.06 7173.29c124.26,-43.58 242.71,-44.08 368.38,-74.01 119.39,-28.43 241.1,-64.07 349.03,-97.21 233.18,-71.54 510.91,-141.45 621.36,98.07 50.58,73.4 30.65,223.77 26.08,323.64l35.86 -62.32c105.6,-216.9 127.72,-213.36 256.27,-419.8 57.92,-182.82 88.85,-494.61 -135.53,-629.39 -171,-102.69 -523.12,-94.88 -760.9,-88.46 -189.77,5.12 -204.44,44.02 -325.74,91.37 -79.68,31.12 -262.89,64.87 -351.46,79.99 -582.98,99.43 -817.39,-146.19 -708.13,734.99 74.84,-26.75 66.03,-56.54 78.05,-66.53 24.28,107.04 -26.69,32.5 63.32,63.35 135.06,46.32 517.12,-59.39 693.43,-54.41l-228.37 85.28c-0.8,-4.93 13.4,9.16 18.36,15.45z"/>
   <path class="fil15" d="M10816.73 10159.62c-18.8,90.76 -46.24,150.4 -46.65,261.42 110.5,-23.98 34.86,-12.96 87.74,1.66 2.71,0.78 9.14,3.49 11.71,4.37l22.76 9.33c2.46,0.94 14.01,2.08 35.02,13.15 -21.13,35.22 -35.08,19.8 -47.48,89.18 -8.22,46.02 18.55,27.27 -13.21,99.92l-57.26 72.18c-1.86,2.05 -5.95,7.34 -7.78,9.25 -24.86,26.05 -21.6,23.48 -64.35,45.43 18.74,59.92 32.34,39.04 45.16,74.31 24.31,66.89 -31.04,55.62 -91.12,112.47 -82.2,77.8 -51.8,92.67 -99.9,119.39l-25.28 10.38c-127.75,64.62 -121.69,144.14 -142.2,184.43 -45.79,89.85 57.37,-39.23 -20.18,22.62l-34.97 20.54c-77.97,57.92 -170.06,164.05 -208.73,250.07 -51.22,114.02 -277.73,300.27 -352.13,437.57l-103.58 174.01c-68.75,69.38 -90.87,54.65 -150.73,91.53 -2.69,1.63 -8.39,5.51 -11.1,7.34 -2.93,1.97 -8.5,6.34 -11.52,8.47l-124.9 84.92c-3.43,210.51 -25.5,203.7 -28.93,280l78.8 203.36c5.62,-3.21 11.71,-10.19 14.73,-12.65l52.11 -35.02c68.8,-11.71 25.56,43.55 31.34,13.71 -127.03,41.03 -269.87,180.55 -374.89,261.04 -43.5,33.31 -50.2,38.13 -91.4,73.4l-247.94 221.53c-107.01,104.19 -645.34,365.97 -827.88,429.1 500.61,-133.4 843.69,-388.34 1223.03,-667.07 82.29,-60.47 118.61,-46.85 200.48,-105.46 50.58,-36.19 85.5,-87.24 134.26,-97.27 64.79,-13.29 1.05,-40.17 56.34,12.93l421.62 -614.52c96.99,-207.79 260.76,-348.81 406.45,-623.71 81.59,-154 125.23,-193.73 205.91,-312.15 61.08,-89.68 134.01,-211.75 201.7,-314.33l449.06 -618.84 -44.47 -12.27c42.25,-106.6 94.3,-130.57 142.45,-228.86 16.36,-33.36 36.22,-92.75 58.89,-126.95 39.9,-60.11 5.37,-6.51 44.74,-19.27 80.1,-279.59 32.17,-243.12 70.19,-335.1l45.02 -92.42c47.48,-153.17 67.28,-128.08 56.98,-191.49 -12.46,-76.53 -20.63,66.56 -17.17,-76.17 3.07,-126.06 141.95,-261.95 175.9,-343.88 16.61,-40.12 26.39,-101.67 4.15,-139.49 -66.89,121.96 -176.06,197.36 -268.18,322.47 -102.78,139.6 -144.14,163.49 -233.93,328.93l-185.67 261.89c-26.8,31.43 -37.54,45.41 -64.18,75.78l-200.62 221.39c-4.1,4.07 -70.58,51.39 -78.24,57.42z"/>
   <path class="fil16" d="M760.79 4566.09c454.74,-1255.18 1422.83,-2221.63 2490.12,-2950.59 467.92,-319.54 1289.84,-731.78 1802.64,-914.37 130.63,-46.51 311.48,-87.8 414.81,-146.47 -686.62,-31.4 -1841.49,516.26 -2445.87,830.62 -337.2,175.4 -936.05,728.37 -1184.19,996.91 -394.16,426.58 -856.7,1162.29 -1000.79,1739.54 -37.77,151.26 -133.34,352.63 -76.72,444.35z"/>
   <path class="fil17" d="M12751.02 6486.81c-11.07,103.38 -9.55,47.35 -72.6,168.39l-78.96 198.46c-43.58,98.4 -396.68,406.84 -509.03,506.76l-172.16 200.84c-58.64,58.34 -1.08,23.23 -83.7,57.01 -4.13,-105.9 9.05,-106.49 18.14,-199.96 -70.88,280.89 -483.25,1023.52 -494.91,1057.44l-244.92 414.56c-47.37,57.4 -108.4,114.82 -141.79,178.14 56.26,-61.3 96.93,-77.19 148.57,-124.15 151.26,-137.63 38.68,-273.58 328.15,-286.76 138.82,-6.31 149.12,-37.85 261.92,-42.78 58.09,-59.11 113.74,-82.34 171.36,-151.28 68.55,-82.01 86.36,-101.94 174.51,-157.82 14.84,-138.08 163,-318.63 241.3,-410.82l243.7 -410.91c175.59,-373.7 217.59,-267.93 244.48,-742.77 15.45,-273.05 -0.53,-159.2 57.78,-256.14l-13.43 -60.25 -38.79 -0.06c-67.89,64.43 -28.41,22.84 -39.62,62.08z"/>
   <path class="fil18" d="M12053.85 8499.54c9.28,82.9 1.19,42.8 -46.85,135.06l-36.33 82.26c-23.81,49.92 -87.6,140.49 -123.13,174.87 22.23,37.82 12.46,99.37 -4.15,139.49 -33.94,81.93 -172.82,217.82 -175.9,343.88 -3.46,142.73 4.71,-0.36 17.17,76.17 10.3,63.4 -9.5,38.32 -56.98,191.49l-45.02 92.42c-38.01,91.98 9.91,55.51 -70.19,335.1 -39.37,12.76 -4.85,-40.84 -44.74,19.27 -22.68,34.19 -42.53,93.58 -58.89,126.95 -48.15,98.29 -100.2,122.27 -142.45,228.86l44.47 12.27 913.93 -1322.32c73.93,-115.73 123.51,-243.12 199.93,-360.96 189.58,-292.54 327.1,-974.1 382.75,-1322.71 -1.58,74.73 -19.19,98.12 -35.25,177.73 -91.42,-53.44 -11.85,-118.28 -141.79,-15.78 -36.63,28.88 -61.77,68.33 -89.71,105.13 -36.96,48.65 -48.62,78.11 -80.04,131.1 -73.54,123.96 -136.3,155.52 -215.63,374.11 -68.22,187.94 -113.85,73.9 -116.87,252.2 -19.3,16.11 -67.83,20.93 -74.34,23.42z"/>
   <path class="fil19" d="M6373.77 12798.97c-5.4,-115.29 -17.69,-266.46 -36.22,-364.34 -34.33,-181.41 -42.06,-255.64 2.02,-331.47 -18.69,-205.41 26.39,-506.79 194.5,-617.26 259.46,-170.53 348.89,10.66 575.87,107.76 344.04,147.21 669.67,-29.18 902,-247.91 49.26,-46.38 60.41,-54.46 102.61,-109.67 34.66,-45.38 49.42,-74.29 85.58,-116.59 47.32,-127.03 80.1,-178.86 104.55,-328.68 14.7,-90.04 34.91,-296.39 -14.79,-383.8 -113.08,994.47 -896.46,1269.96 -1274.39,977.31 -132.37,-102.53 -266.49,-181.52 -460.27,-86.5 -170.55,83.62 -238.72,126.75 -282.27,349.47 -30.57,156.27 -21.85,436.91 -17.22,603.14 2.82,101.61 15.14,191.82 29.43,290.3 17.83,122.71 3.46,181.27 88.6,258.24z"/>
   <path class="fil12" d="M12096.93 6665.15c131.87,98.98 18.36,-77 9.61,28.21 -3.71,44.88 5.29,4.82 -9.58,38.07l-17.42 26.5c-2.3,4.49 -6.15,10.41 -8.39,15.17l-218.45 645.23c-9.08,93.47 -22.26,94.05 -18.14,199.96 82.62,-33.78 25.06,1.33 83.7,-57.01l172.16 -200.84c112.36,-99.92 465.45,-408.36 509.03,-506.76l78.96 -198.46c63.04,-121.05 61.52,-65.01 72.6,-168.39l-654.09 178.33z"/>
   <path class="fil20" d="M11709.73 8614.78l-135.34 252.09c-10.49,52.47 12.79,51.78 -39.09,117.39l-234.01 379.01c-67.53,154.74 -22.9,154.05 -152.94,264 -86.16,72.82 -134.75,120.91 -201.62,200.93 -132.73,158.87 -154.47,85.28 -220.28,200.87 -112.33,197.3 -312.48,331.31 -364.92,464.98 91.42,-42.69 45.85,-12.82 106.37,-91.29 48.01,-62.24 40.67,-46.96 93.67,-94.39 116.01,-103.77 66.23,-119.72 255.17,-148.76 7.67,-6.04 74.15,-53.35 78.24,-57.42l200.62 -221.39c26.64,-30.37 37.38,-44.36 64.18,-75.78l185.67 -261.89c89.79,-165.43 131.15,-189.33 233.93,-328.93 92.12,-125.12 201.29,-200.51 268.18,-322.47 35.52,-34.39 99.31,-124.95 123.13,-174.87l36.33 -82.26c48.04,-92.25 56.12,-52.16 46.85,-135.06l1.74 -193.87c-88.16,55.87 -105.96,75.81 -174.51,157.82 -57.62,68.94 -113.27,92.17 -171.36,151.28z"/>
   <path class="fil12" d="M10748.51 6870.86c-92.25,-238.83 -134.39,-177.42 -28.88,-485.72 32.39,-94.58 52.38,-154.69 83.7,-242.9 27.13,-76.39 46.13,-184.34 107.07,-230.8 57.06,-148.63 21.6,-515.18 -37.27,-637.78 -70.82,-147.46 -226.18,-307.97 -362.21,-376.46 46.93,42.97 314.2,356.14 335.38,441.31 128.52,516.92 -471.79,503.74 -448.59,1074.32 3.02,73.98 54.35,233.88 101.89,293.68 47.54,59.8 172.58,150.84 248.91,164.35z"/>
   <path class="fil21" d="M12055.6 8305.68l-1.74 193.87c6.51,-2.49 55.04,-7.31 74.34,-23.42 3.02,-178.31 48.65,-64.26 116.87,-252.2 79.32,-218.59 142.09,-250.16 215.63,-374.11 31.43,-52.99 43.08,-82.45 80.04,-131.1 27.94,-36.8 53.08,-76.25 89.71,-105.13 129.94,-102.5 50.36,-37.65 141.79,15.78 16.06,-79.6 33.67,-103 35.25,-177.73 66.62,-190.02 81.76,-776.71 35.38,-966.59 -58.31,96.93 -42.33,-16.92 -57.78,256.14 -26.88,474.84 -68.89,369.07 -244.48,742.77l-243.7 410.91c-78.3,92.2 -226.45,272.75 -241.3,410.82z"/>
   <path class="fil22" d="M10748.51 6870.86c91.06,26.91 181.55,96.71 344.51,63.76 108.7,-21.96 200.35,-80.04 315.53,-112.99 164.21,-46.96 513.41,-160.01 688.39,-156.49l654.09 -178.33c11.21,-39.23 -28.27,2.35 39.62,-62.08 37.29,7.84 17.39,13.26 32.81,-32.48 -190.85,-11.96 -883.75,191.04 -1113.28,255.08 -134.15,37.41 -245.53,47.76 -363.2,82.95 -233.6,69.83 -454.27,248.16 -564.16,-72.4 -96.68,-282.11 107.57,-514.68 127.58,-746.45 -60.94,46.46 -79.93,154.41 -107.07,230.8 -31.31,88.21 -51.3,148.32 -83.7,242.9 -105.52,308.3 -63.38,246.89 28.88,485.72z"/>
   <path class="fil19" d="M5452.83 10050.84c-8.2,-269.76 -29.13,-425.03 111.25,-591.46 94.8,-112.38 321.84,-220.97 519.11,-140.46 125.87,51.39 111.16,91.65 184.9,164.68 57.31,56.79 152.47,104.35 273.33,66.7 198.1,-61.72 101.25,-387.29 -2.93,-481.62 35.08,92.39 98.26,166.95 35.91,254.2 -43,60.16 -138.44,106.93 -232.8,63.51 -167.4,-77.03 -237.45,-463.29 -753.37,-113.82 -200.98,136.14 -247,423.26 -194.78,652.78l59.39 125.48z"/>
   <path class="fil23" d="M4050.3 7636.61c3.52,-203.31 -108.12,-247.25 49.84,-413.12 122.82,-128.97 279.09,-87.27 464.07,-62.66l790.45 65.54c140.07,21.68 69.02,58.42 243.79,52.47l-2.63 -65.04 -71.99 -25.33 -1060.09 -110.92c-263.11,-10.8 -537.38,48.23 -520.33,343.82 8.75,151.95 32.2,165.32 106.9,215.24z"/>
   <path class="fil24" d="M7859.28 10051.34l38.85 92.03c46.79,-58.45 35.47,-26.47 37.24,-114.43 57.59,21.04 9.22,-3.13 43.75,41.7 3.79,4.93 14.26,22.32 17.94,27.63 21.01,30.32 -4.18,9.05 28.93,41.86l34.08 -118.28 88.74 59.94c38.93,-25.94 -14.87,-1.69 51.28,-27.6 -34.89,-201.09 -304.42,-479.49 -562.52,-503.08 34.94,38.18 9.58,16.11 70.02,52.19 12.93,7.72 57.2,27.38 58.78,28.57 72.9,54.49 89.71,301.54 92.92,419.46z"/>
   <path class="fil25" d="M6437.06 4925.22c-30.23,224.74 -131.07,446.85 -186.28,701.65 -55.18,254.67 -96.35,506.26 -103.11,786.46l14.12 105.24c15.73,-91.84 62.49,-357.31 91.98,-469.47 37.65,-174.49 50.36,-342.74 101.67,-508.2 47.23,-152.28 93.33,-291.08 119.44,-462.96 6.42,-94.05 24.75,-202.87 -18.08,-274.24l-19.74 121.52z"/>
   <path class="fil26" d="M8157.83 7100.14c24.89,199.82 -38.93,455.76 66.78,637.22 31.4,53.88 11.27,38.13 64.54,67.36 20.41,-199.02 -20.74,-300.71 57.59,-507.32 35.41,-93.39 167.23,-254.17 129.3,-355.75 -128.55,206.44 -150.67,202.89 -256.27,419.8l-35.86 62.32c4.57,-99.87 24.5,-250.24 -26.08,-323.64z"/>
   <path class="fil27" d="M16058.05 3532.91l3056.16 0 417.64 1163.28 -475.89 171.16c-80.65,-190.85 -174.73,-344.1 -282.3,-459.75 -107.54,-116.48 -226.76,-193.59 -356.7,-232.13 -129.94,-37.6 -282.3,-56.48 -455.32,-56.48l-559.23 0 0 919.61 181.96 0c136.25,0 228.53,-9.91 276.04,-30.48 47.48,-19.77 81.54,-52.02 102.17,-95.02 20.6,-43 31.31,-128.16 31.31,-256.33l0 -139.79 473.23 0 0 1548.69 -473.23 0 0 -158.68c0,-107.51 -12.51,-186.39 -37.6,-235.67 -25.08,-49.28 -59.2,-83.34 -102.19,-100.37 -43.88,-17.97 -139.77,-26.91 -288.59,-26.91l-163.11 0 0 841.58c0,88.74 4.51,143.37 13.46,163.11 8.08,18.8 26,34.06 51.08,43.88 25.08,10.8 79.77,16.14 163.99,16.14l307.44 0c229.42,0 422.12,-33.17 579.8,-98.57 157.79,-66.31 298.52,-172.96 421.29,-319.1 123.65,-146.96 218.67,-321.7 284.99,-523.35l479.52 164.88 -480.4 1362.27 -3165.52 0 0 -505.49 91.45 0c122.77,0 205.22,-8.94 247.33,-25.97 42.17,-17.91 71.71,-48.4 88.71,-92.28 8.97,-26.05 13.48,-100.42 13.48,-223.19l0 -1996.81c0,-108.42 -7.2,-180.13 -22.43,-213.28 -14.37,-33.17 -37.6,-58.25 -69.86,-74.4 -31.4,-17.08 -93.25,-25.14 -185.53,-25.14l-163.16 0 0 -505.43zm3851.12 0l1785.28 0 0 505.43 -163.11 0c-94.14,0 -156.88,8.06 -187.3,25.14 -30.48,16.14 -53.8,43 -68.14,78.83 -15.26,35.88 -22.43,104.85 -22.43,206.16l0 2028.21c0,110.2 6.29,180.99 17.97,213.28 12.51,31.37 34.06,53.8 63.65,68.08 36.71,20.63 91.4,31.37 164.88,31.37l194.48 0 0 505.49 -1785.28 0 0 -505.49 145.19 0c103.97,0 172.05,-7.17 203.45,-22.34 31.37,-15.26 54.68,-38.57 69.91,-70.82 15.17,-32.26 22.37,-96.79 22.37,-193.59l0 -2036.27c0,-113.82 -7.2,-188.19 -22.37,-224.07 -15.23,-35.83 -40.31,-63.63 -75.31,-83.31 -25.08,-13.48 -84.22,-20.65 -179.25,-20.65l-163.99 0 0 -505.43zm2171.55 505.43l0 -505.43 2081.06 0c318.18,0 568.23,36.71 751.07,111.14 181.91,74.4 321.75,181.91 419.44,320.81 97.68,138.96 146.96,291.27 146.96,457.98 0,120.99 -25.97,235.7 -78,344.18 -51.94,108.42 -126.31,204.33 -224.07,286.76 -97.68,83.39 -225.85,152.36 -386.21,206.16 172.05,43.88 302.9,92.28 394.3,144.31 131.79,73.48 235.76,176.56 312.78,309.18 77.11,131.76 115.68,278.76 115.68,441.83 0,194.48 -58.31,373.72 -175.68,536.89 -117.45,163.99 -283.21,288.53 -497.43,373.7 -214.16,86.05 -526.97,129.05 -940.18,129.05l-1919.73 0 0 -505.49 145.19 0c96.79,0 162.22,-8.06 196.33,-25.08 34.91,-16.14 59.11,-40.34 72.6,-70.82 14.29,-30.43 21.46,-99.45 21.46,-206.08l0 -2044.35c0,-108.4 -7.17,-177.45 -21.46,-207.93 -13.48,-29.54 -37.68,-52.86 -72.6,-70.74 -34.11,-17.03 -99.54,-26.05 -196.33,-26.05l-145.19 0zm1338.96 978.72l402.44 0c209.7,0 365.69,-17.91 466.03,-52.91 101.31,-34.91 176.56,-88.71 227.65,-159.48 51.11,-71.68 76.2,-154.19 76.2,-247.36 0,-96.79 -24.2,-179.25 -72.6,-248.27 -47.48,-68.08 -117.42,-117.45 -208.82,-146.08 -90.51,-29.6 -253.67,-43.97 -488.46,-43.97l-402.44 0 0 898.07zm0 532.37l0 795.87c1.86,112.02 6.31,178.33 13.48,197.13 8.06,25.08 22.43,42.11 43,52.02 19.74,9.83 74.42,14.29 164.05,14.29l267.07 0c155.02,0 284.07,-14.29 386.27,-43.88 102.14,-28.71 189.08,-88.74 260.79,-180.13 71.71,-91.45 107.59,-200.76 107.59,-328.93 0,-109.37 -25.14,-201.65 -76.22,-276.98 -50.17,-75.25 -126.39,-132.59 -227.62,-171.16 -101.31,-38.54 -256.33,-58.23 -464.26,-58.23l-474.15 0zm2539.04 -2016.52l1658.94 0 637.22 2219.94 653.34 -2219.94 1691.2 0 0 505.43 -181.08 0c-97.68,0 -165.76,20.65 -203.42,61.85 -37.65,41.23 -56.45,118.34 -56.45,232.16l0 2081.04c0,91.4 5.4,147.85 16.11,171.16 15.26,35 37.68,59.2 65.43,73.48 38.54,20.63 88.74,31.37 152.36,31.37l207.05 0 0 505.49 -1763.79 0 0 -505.49 136.25 0c100.34,0 167.59,-8.06 202.53,-23.31 34.91,-16.11 60.91,-40.31 77.03,-72.6 17.08,-32.26 25.17,-92.28 25.17,-180.11l0 -2254.05 -892.67 3035.56 -505.49 0 -865.76 -2937.82 0 2227.11c0,51.08 8.97,90.51 26.88,118.34 18.8,27.74 44.83,49.28 78,64.54 34.03,15.17 87.82,22.34 162.19,22.34l173.85 0 0 505.49 -1494.9 0 0 -505.49 147.85 0c93.25,0 156.88,-8.06 191.82,-25.08 34.03,-16.14 59.11,-43 76.22,-78.88 17,-35.83 25.08,-102.14 25.08,-198.02l0 -2055.07c0,-94.14 -6.29,-155.94 -18.88,-183.76 -15.23,-38.54 -39.43,-66.31 -70.74,-84.2 -32.26,-17.03 -81.62,-26.05 -150.59,-26.05l-200.76 0 0 -505.43z"/>
   <path class="fil27" d="M34741.92 3778.44c-96.93,370.37 -178.69,691.55 -243.79,963.55 -65.81,272 -114.32,494.8 -146.85,668.43 -50.64,275.6 -89.71,554.13 -117.2,835.52 -27.47,280.67 -43.39,562.83 -47.73,845.65l-503.49 57.15c-13.04,-141.07 -22.4,-285.73 -28.91,-433.31 -6.53,-147.57 -10.13,-300.21 -10.13,-456.45 0,-392.8 19.52,-808.78 59.31,-1246.43 39.07,-437.65 98.37,-897.76 177.95,-1379.52l860.86 145.41zm-329.87 464.43l-75.97 -97.68c-98.37,158.43 -188.08,332.05 -267.65,520.83 -78.85,188.83 -149.76,392.11 -211.95,609.84l192.43 82.45c33.25,-196.03 81.04,-387.73 141.07,-573.63 60.75,-185.92 134.53,-366.75 222.08,-541.81zm3216.97 959.2c0,306.72 -72.32,583.07 -217.01,829.04 -144.69,245.95 -363.15,461.52 -655.41,646.69 -231.47,146.88 -489.73,266.96 -774.75,360.27 -285.01,93.33 -598.24,159.15 -939.71,197.47l230.77 -3841.23c371.09,23.84 693.01,68 966.48,130.93 272.69,63.65 495.49,146.11 667.68,248.13 241.63,142.51 421.76,332.77 541.81,571.49 120.11,238.69 180.13,524.45 180.13,857.2zm-653.95 6.51l0 -211.95 -303.12 -10.85 -27.49 -277.76 292.3 -10.88 -10.88 -194.61 -313.23 -31.79 -70.16 -614.91c-105.63,-50.64 -220.64,-94.77 -344.35,-131.63 -124.43,-36.93 -258.24,-65.87 -402.21,-86.83l44.85 3224.91c139.63,-29.68 275.6,-70.88 408,-122.96 132.37,-52.11 261.15,-114.32 384.85,-186.67l20.96 -801.52 282.16 -14.45 27.47 -216.32 -303.12 -10.85 4.35 -279.95 309.63 -20.99zm-656.83 -6.51c0,120.11 -3.63,234.37 -11.6,343.63 -7.23,108.53 -18.08,211.95 -33.28,308.88l-104.88 -57.12c2.91,-44.88 5.07,-91.17 5.79,-137.44 0.75,-47.04 0.75,-94.77 0.75,-144 0,-159.87 -7.97,-314.67 -23.17,-464.43 -15.92,-149.73 -39.09,-292.96 -70.16,-430.4l206.16 0c10.85,94.77 18.8,190.24 23.15,287.17 5.07,96.96 7.25,194.61 7.25,293.71zm3377.52 -891.95l-63.65 559.92 -494.08 -120.83 165.65 -344.32 392.08 -94.77zm728.48 137.44l-337.84 96.96c-11.57,-149.04 -43.39,-272.03 -96.21,-369.65 -52.8,-97.68 -127.31,-170 -223.52,-217.73 -52.08,-25.33 -136,-49.23 -252.48,-70.93 -116.45,-21.68 -264.03,-39.76 -442.72,-53.52l-163.49 1394 1079.31 -57.15 -270.53 607.65 -863.01 -184.48 -190.27 1417.15 793.57 10.85 277.09 -406.56 441.97 -25.31 10.85 677.09 -2040 -115.04 118.67 -2210.7 284.29 14.48 46.99 -181.57 -326.93 -4.35 17.33 -256.11 309.6 23.17 31.87 -226.43 -330.61 0 10.13 -250.29 309.6 23.15 42.72 -194.61 -341.47 -16.61 20.99 -385.57c139.6,11.55 279.95,22.4 420.99,32.53 141.07,10.85 282.16,20.27 423.23,28.96 167.81,19.55 317.57,47.73 448.48,85.36 131.65,37.6 243.81,83.92 336.4,140.35 122.96,73.79 222.08,166.37 297.31,279.2 75.97,112.88 128.03,244.53 157.71,395.71zm1479.36 -669.12c-96.93,370.37 -178.69,691.55 -243.79,963.55 -65.84,272 -114.32,494.8 -146.85,668.43 -50.67,275.6 -89.71,554.13 -117.2,835.52 -27.47,280.67 -43.39,562.83 -47.73,845.65l-503.52 57.15c-13.01,-141.07 -22.4,-285.73 -28.91,-433.31 -6.51,-147.57 -10.13,-300.21 -10.13,-456.45 0,-392.8 19.55,-808.78 59.31,-1246.43 39.09,-437.65 98.4,-897.76 177.97,-1379.52l860.86 145.41zm-329.89 464.43l-75.95 -97.68c-98.4,158.43 -188.11,332.05 -267.68,520.83 -78.85,188.83 -149.73,392.11 -211.95,609.84l192.45 82.45c33.25,-196.03 81.01,-387.73 141.07,-573.63 60.75,-185.92 134.53,-366.75 222.05,-541.81zm3672.73 2825.58l-375.44 84.64 -253.92 -772.59 -1519.12 -21.68 -379.79 1032.99 -813.84 -562.08 1595.82 -3272.64 588.85 -49.95 1157.44 3561.31zm-963.58 -1699.28l-397.15 -1423.63 -547.6 1640.64 944.75 -217.01zm209.81 638.05l-123.01 -368.93 -1140.05 282.13 -68 171.44 1331.07 -84.64zm-1568.35 -227.87l-75.95 -97.65c-101.31,170 -191.02,348.69 -269.84,536.75 -78.85,188.11 -146.13,386.29 -203.28,593.95l195.31 82.45c28.21,-193.15 71.63,-383.39 131.68,-569.33 59.31,-185.92 133.81,-368.19 222.08,-546.16z"/>
   <path class="fil27" d="M16090.34 8750.75l972.85 0 0 275.43 -88.88 0c-51.28,0 -85.47,4.4 -102.08,13.68 -16.61,8.78 -29.29,23.45 -37.1,42.97 -8.31,19.55 -12.21,57.15 -12.21,112.33l0 1105.2c0,60.05 3.41,98.65 9.75,116.23 6.84,17.08 18.58,29.29 34.69,37.1 20.02,11.24 49.81,17.11 89.85,17.11l105.99 0 0 275.43 -972.85 0 0 -275.43 79.13 0c56.65,0 93.75,-3.9 110.86,-12.21 17.08,-8.31 29.79,-21.01 38.1,-38.6 8.31,-17.58 12.21,-52.74 12.21,-105.49l0 -1109.57c0,-62.02 -3.9,-102.55 -12.21,-122.1 -8.31,-19.52 -21.98,-34.66 -41.03,-45.41 -13.68,-7.34 -45.91,-11.24 -97.68,-11.24l-89.37 0 0 -275.43zm1813.36 536.22l0 189.99c107.93,-73.26 200.71,-123.57 277.4,-149.93 77.16,-26.88 155.77,-40.06 236.37,-40.06 92.78,0 174.85,19.55 245.64,58.61 71.29,39.07 123.57,87.91 155.8,146.49 32.73,58.12 48.84,141.65 48.84,249.08l0 593.87c0,50.81 3.41,83.03 10.74,97.18 6.84,14.18 18.05,24.92 33.7,31.26 11.24,4.9 45.41,7.34 102.55,7.34l69.83 0 0 275.43 -838.04 0 0 -275.43c63.02,-1 98.65,-2.44 105.99,-4.4 23.92,-6.34 39.07,-17.58 46.87,-32.73 7.34,-15.14 11.24,-47.84 11.24,-98.15l0 -522.07c0,-67.39 -7.34,-110.86 -21.49,-130.88 -22.95,-33.22 -59.11,-49.84 -108.92,-49.84 -41,0 -84.97,8.8 -131.85,26.88 -46.9,18.05 -109.89,55.18 -188.99,111.33l0 564.57c0,61.52 6.84,99.62 20.49,113.79 13.21,14.15 45.91,21.49 97.21,21.49l46.38 0 0 275.43 -832.17 0 0 -275.43 41.5 0c65.45,0 105.99,-2.93 121.6,-8.31 15.62,-5.87 27.83,-16.11 35.66,-30.29 8.31,-14.15 12.21,-42 12.21,-84l0 -662.72 -210.98 0 0 -275.43c170.91,-21.49 331.11,-62.52 480.07,-123.07l132.35 0zm2329.03 32.23l187.06 0 115.73 398.03 -269.56 108.89c-51.28,-82.04 -115.76,-146.49 -193.4,-193.4 -77.66,-46.87 -154.83,-70.33 -231,-70.33 -50.31,0 -87.91,8.31 -112.83,25.42 -24.92,16.58 -37.13,37.1 -37.13,60.55 0,19.52 8.8,38.1 26.39,54.68 17.58,17.11 54.21,35.16 109.39,53.74l392.66 140.15c69.83,24.42 136.25,55.68 200.23,92.78 63.96,37.13 111.83,82.54 143.56,136.28 31.76,53.71 47.87,116.7 47.87,188.99 0,128.94 -49.34,235.4 -148.46,317.93 -116.23,97.18 -261.29,145.52 -434.66,145.52 -148.46,0 -277.87,-37.1 -388.26,-110.86l-40.04 78.63 -189.99 0 -175.81 -466.39 269.59 -113.79c67.39,104.99 150.92,187.06 249.57,247.11 98.65,60.08 189.46,89.87 272.5,89.87 51.28,0 94.25,-11.71 129.41,-35.66 26.86,-19.05 40.06,-41.5 40.06,-67.39 0,-21.98 -10.27,-42.5 -31.26,-62.52 -20.52,-20.02 -66.42,-42.47 -137.25,-67.39l-308.63 -107.43c-170.44,-59.58 -286.2,-123.57 -347.73,-191.46 -61.55,-68.36 -92.31,-148.96 -92.31,-242.24 0,-119.64 47.87,-220.25 144.06,-302.29 109.89,-93.28 245.17,-139.68 405.84,-139.68 143.09,0 265.19,31.76 367.27,95.72l37.1 -63.49zm1199.44 -489.35l0 489.35 460.05 0 0 304.75 -460.05 0 0 497.65c0,112.33 5.87,184.59 18.08,216.35 11.71,32.23 33.7,57.62 66.42,76.67 42.47,25.89 91.81,38.6 146.99,38.6 98.15,0 195.83,-31.76 293.02,-95.74l0 306.22c-83.01,39.07 -158.23,66.42 -225.13,82.54 -67.39,15.62 -140.18,23.45 -218.31,23.45 -88.88,0 -167.51,-11.24 -235.4,-33.7 -68.36,-22.48 -126.48,-54.21 -174.82,-95.74 -47.87,-41.5 -81.57,-85.44 -100.12,-132.35 -18.58,-46.87 -27.85,-114.27 -27.85,-203.17l0 -680.78 -210.98 0 0 -275.43c76.2,-24.92 141.15,-60.08 195.36,-105.99 53.71,-46.4 97.18,-101.58 130.38,-166.04 32.73,-64.95 55.18,-146.99 67.39,-246.64l274.96 0zm1144.26 -181.66c72.76,0 134.28,25.39 185.56,76.67 51.3,50.78 76.69,112.33 76.69,184.59 0,73.76 -25.39,135.78 -76.69,186.56 -51.28,51.28 -112.8,76.69 -185.56,76.69 -72.76,0 -134.31,-25.42 -185.59,-76.69 -51.28,-50.78 -76.67,-112.33 -76.67,-185.09 0,-71.29 26.36,-132.82 78.6,-185.09 52.74,-51.78 113.79,-77.64 183.65,-77.64zm232.93 638.77l0 1055.39c0,50.28 2.93,81.54 8.8,92.78 5.37,11.24 15.62,20.02 30.76,26.39 14.65,6.34 47.87,9.28 99.62,9.28l77.66 0 0 275.43 -884.94 0 0 -275.43 75.72 0c49.31,0 81.07,-2.44 94.72,-7.84 13.68,-5.37 23.95,-14.15 30.79,-26.36 6.34,-12.21 9.75,-37.13 9.75,-74.23l0 -679.81 -210.98 0 0 -269.59c75.23,-3.9 147.49,-11.71 216.85,-24.42 68.86,-12.21 130.88,-27.36 185.09,-44.44 35.16,-11.24 78.63,-30.29 130.41,-57.15l135.75 0zm1025.1 -457.12l0 489.35 460.05 0 0 304.75 -460.05 0 0 497.65c0,112.33 5.87,184.59 18.08,216.35 11.71,32.23 33.7,57.62 66.42,76.67 42.47,25.89 91.81,38.6 146.99,38.6 98.15,0 195.83,-31.76 293.02,-95.74l0 306.22c-83.01,39.07 -158.23,66.42 -225.13,82.54 -67.39,15.62 -140.18,23.45 -218.31,23.45 -88.88,0 -167.51,-11.24 -235.4,-33.7 -68.36,-22.48 -126.48,-54.21 -174.82,-95.74 -47.87,-41.5 -81.57,-85.44 -100.12,-132.35 -18.58,-46.87 -27.85,-114.27 -27.85,-203.17l0 -680.78 -210.98 0 0 -275.43c76.2,-24.92 141.15,-60.08 195.36,-105.99 53.71,-46.4 97.18,-101.58 130.38,-166.04 32.73,-64.95 55.18,-146.99 67.39,-246.64l274.96 0zm671.03 489.35l668.1 -11.71 0 925.48c0,65.92 3.9,109.39 12.21,131.35 8.28,21.98 22.95,39.57 44.91,53.74 21.49,13.68 48.84,20.52 81.57,20.52 47.87,0 98.65,-11.24 152.86,-34.19 20.99,-9.28 77.16,-42.97 168.48,-100.62l0 -557.71c0,-48.37 -3.9,-82.07 -11.71,-100.12 -7.34,-18.08 -18.55,-31.26 -32.73,-39.07 -14.15,-8.31 -42,-12.21 -83.51,-12.21l-83.03 0 0 -275.46 668.1 -11.71 0 1020.69c0,53.24 2.93,86.44 9.28,100.62 5.87,13.68 15.64,23.42 29.32,29.79 13.68,6.34 46.38,9.28 97.68,9.28l74.7 0 0 278.37 -624.13 17.58 0 -169.94c-84,61.52 -168.51,107.43 -253.48,138.19 -84.97,30.79 -170.44,46.4 -256.38,46.4 -68.86,0 -131.87,-11.24 -189.99,-33.7 -57.62,-22.45 -105.96,-52.25 -145.03,-89.85 -39.57,-37.63 -68.39,-81.57 -87.44,-131.87 -19.05,-50.78 -28.79,-115.26 -28.79,-194.37l0 -588.49c0,-54.21 -2.93,-88.41 -9.3,-102.55 -6.34,-14.65 -16.58,-24.92 -30.76,-32.23 -14.65,-7.34 -44.94,-10.74 -91.81,-10.74l-79.1 0 0 -275.46zm2611.3 -489.35l0 489.35 460.05 0 0 304.75 -460.05 0 0 497.65c0,112.33 5.87,184.59 18.08,216.35 11.71,32.23 33.7,57.62 66.42,76.67 42.47,25.89 91.81,38.6 146.99,38.6 98.15,0 195.83,-31.76 293.02,-95.74l0 306.22c-83.01,39.07 -158.23,66.42 -225.13,82.54 -67.39,15.62 -140.18,23.45 -218.31,23.45 -88.88,0 -167.51,-11.24 -235.4,-33.7 -68.36,-22.48 -126.48,-54.21 -174.82,-95.74 -47.87,-41.5 -81.57,-85.44 -100.12,-132.35 -18.58,-46.87 -27.85,-114.27 -27.85,-203.17l0 -680.78 -210.98 0 0 -275.43c76.2,-24.92 141.15,-60.08 195.36,-105.99 53.71,-46.4 97.18,-101.58 130.38,-166.04 32.73,-64.95 55.18,-146.99 67.39,-246.64l274.96 0zm1498.8 457.12c163.13,0 305.25,31.76 426.36,95.72 121.6,63.49 214.41,150.43 279.84,259.82 65.45,109.89 98.18,238.83 98.18,385.82 0,222.69 -72.29,403.4 -217.35,542.09 -145.03,138.69 -338.92,208.04 -581.16,208.04 -247.11,0 -443.44,-69.83 -589.46,-209.51 -141.15,-133.31 -211.95,-313.53 -211.95,-540.62 0,-148.96 32.23,-277.4 96.68,-384.83 64.48,-107.45 157.76,-193.89 279.84,-258.85 122.1,-64.95 261.78,-97.68 419.02,-97.68zm7.34 313.53c-54.68,0 -105.99,16.11 -153.83,48.37 -47.87,32.23 -84.97,79.6 -111.36,142.59 -26.36,62.52 -39.57,142.12 -39.57,239.3 0,99.62 12.71,182.16 38.6,247.61 25.89,65.45 62.02,114.27 107.43,145.52 45.43,31.26 95.24,46.9 149.95,46.9 84.47,0 156.77,-35.16 217.32,-105.99 60.05,-70.82 90.34,-180.69 90.34,-330.14 0,-144.06 -27.83,-252.48 -84,-325.24 -56.15,-72.76 -127.94,-108.92 -214.88,-108.92zm3492.84 -955.24l0 1659.97c0,65.45 2.93,104.99 8.31,119.17 5.87,13.68 15.64,23.92 28.82,30.76 13.68,6.37 49.81,9.77 107.93,9.77l65.92 0 0 281.3 -618.26 20.52 0 -148.96c-89.37,60.55 -168.01,102.08 -235.9,125.51 -67.39,23.45 -135.28,35.16 -202.67,35.16 -109.89,0 -210.48,-29.79 -302.79,-88.88 -91.81,-59.58 -167.04,-147.99 -225.62,-264.69 -58.61,-116.73 -87.91,-246.64 -87.91,-389.26 0,-144.56 29.79,-275.43 89.37,-393.13 59.56,-117.2 137.72,-205.61 233.43,-265.66 95.72,-60.08 203.17,-89.87 321.34,-89.87 61.05,0 119.66,7.34 175.34,21.98 56.15,14.65 117.7,40.53 185.56,77.64l0 -342.82 -210.98 0 0 -275.43c118.7,-11.74 214.88,-26.39 289.14,-43.97 73.73,-18.05 153.83,-44.44 239.77,-79.1l139.18 0zm-457.12 1686.82l0 -474.2c0,-59.08 -4.37,-101.09 -12.68,-125.51 -11.74,-35.16 -37.6,-65.92 -78.13,-92.31 -40.53,-26.36 -85.97,-39.57 -135.28,-39.57 -51.78,0 -99.65,15.14 -143.59,45.91 -43.97,30.79 -78.63,77.66 -104.52,140.65 -25.89,63.49 -38.57,142.12 -38.57,236.87 0,130.88 29.29,235.9 87.41,315.5 44.94,62.02 104.52,93.28 179.22,93.28 32.26,0 63.49,-5.37 92.81,-16.11 29.79,-11.24 81.07,-39.07 153.33,-84.5zm2145.94 -115.23l195.83 196.8c-112.33,127.94 -227.09,221.22 -343.82,278.37 -116.73,57.62 -243.21,86.44 -378.49,86.44 -217.32,0 -400.47,-73.26 -548.93,-220.25 -148.96,-146.99 -223.19,-324.27 -223.19,-532.82 0,-136.75 33.2,-261.76 100.12,-375.55 66.89,-113.79 159.7,-202.67 277.87,-266.66 118.7,-63.99 252.51,-96.21 402.44,-96.21 95.72,0 182.65,13.68 260.79,41.5 78.13,27.36 146.99,66.92 205.61,118.2 58.61,50.81 105.99,112.83 141.62,185.59 36.13,72.76 60.55,147.96 73.76,225.62 5.84,39.07 8.78,100.62 8.78,185.09l-964.05 0c1.97,120.63 37.6,218.31 106.46,292.54 68.86,74.7 153.86,111.83 253.48,111.83 63.99,0 133.81,-19.05 209.01,-57.15 75.23,-38.57 149.46,-96.21 222.72,-173.35zm-284.74 -414.15c-6.84,-56.65 -20.52,-101.09 -41,-133.34 -20.52,-32.7 -48.37,-58.59 -83.03,-78.13 -35.16,-19.05 -71.29,-28.82 -109.89,-28.82 -40.04,0 -78.63,9.77 -116.23,29.79 -37.1,19.55 -66.89,46.4 -89.37,80.6 -22.45,33.7 -37.1,77.16 -43.94,129.91l483.48 0zm1684.42 -1051.95l1048.05 0c237.83,0 427.33,37.6 567.98,112.8 140.15,75.7 252.48,187.06 335.99,335.04 83.51,147.46 125.51,325.24 125.51,531.82 0,144.08 -21.49,273 -63.96,386.32 -42.5,113.77 -105.49,215.85 -189.99,306.69 -84,91.31 -174.35,159.7 -270.56,205.61 -72.76,34.17 -175.81,62.49 -309.13,84.47 -133.31,21.98 -240.27,32.73 -320.37,32.73l-923.51 0 0 -275.43 68.86 0c58.61,0 97.18,-4.9 115.26,-14.18 18.05,-9.77 33.2,-25.89 44.44,-48.84 7.81,-18.05 11.71,-57.62 11.71,-118.67l0 -1091.02c0,-61.05 -3.9,-100.62 -12.21,-118.2 -8.31,-17.58 -21.49,-31.26 -40.53,-40.04 -18.55,-9.28 -58.12,-13.68 -118.67,-13.68l-68.86 0 0 -275.43zm732.55 319.4l0 1241.92c0,42 2.44,67.89 7.34,77.66 7.31,14.15 18.55,23.92 33.7,29.29 14.65,5.37 50.31,7.81 106.46,7.81 157.26,0 279.84,-23.92 368.24,-72.26 88.38,-48.37 159.7,-125.53 214.38,-231.99 54.21,-106.46 81.57,-233.43 81.57,-380.42 0,-145.05 -25.39,-271.56 -76.67,-378.98 -51.3,-107.45 -114.29,-183.15 -189.99,-227.09 -75.7,-43.97 -183.62,-65.92 -324.27,-65.92l-220.75 0zm2848.2 1146.7l195.83 196.8c-112.33,127.94 -227.09,221.22 -343.82,278.37 -116.73,57.62 -243.21,86.44 -378.49,86.44 -217.32,0 -400.47,-73.26 -548.93,-220.25 -148.96,-146.99 -223.19,-324.27 -223.19,-532.82 0,-136.75 33.2,-261.76 100.12,-375.55 66.89,-113.79 159.7,-202.67 277.87,-266.66 118.7,-63.99 252.51,-96.21 402.44,-96.21 95.72,0 182.65,13.68 260.79,41.5 78.13,27.36 146.99,66.92 205.61,118.2 58.61,50.81 105.99,112.83 141.62,185.59 36.13,72.76 60.55,147.96 73.76,225.62 5.84,39.07 8.78,100.62 8.78,185.09l-964.05 0c1.97,120.63 37.6,218.31 106.46,292.54 68.86,74.7 153.86,111.83 253.48,111.83 63.99,0 133.81,-19.05 209.01,-57.15 75.23,-38.57 149.46,-96.21 222.72,-173.35zm-284.74 -414.15c-6.84,-56.65 -20.52,-101.09 -41,-133.34 -20.52,-32.7 -48.37,-58.59 -83.03,-78.13 -35.16,-19.05 -71.29,-28.82 -109.89,-28.82 -40.04,0 -78.63,9.77 -116.23,29.79 -37.1,19.55 -66.89,46.4 -89.37,80.6 -22.45,33.7 -37.1,77.16 -43.94,129.91l483.48 0zm1657.53 -483.5l187.06 0 115.73 398.03 -269.56 108.89c-51.28,-82.04 -115.76,-146.49 -193.4,-193.4 -77.66,-46.87 -154.83,-70.33 -231,-70.33 -50.31,0 -87.91,8.31 -112.83,25.42 -24.92,16.58 -37.13,37.1 -37.13,60.55 0,19.52 8.8,38.1 26.39,54.68 17.58,17.11 54.21,35.16 109.39,53.74l392.66 140.15c69.83,24.42 136.25,55.68 200.23,92.78 63.96,37.13 111.83,82.54 143.56,136.28 31.76,53.71 47.87,116.7 47.87,188.99 0,128.94 -49.34,235.4 -148.46,317.93 -116.23,97.18 -261.29,145.52 -434.66,145.52 -148.46,0 -277.87,-37.1 -388.26,-110.86l-40.04 78.63 -189.99 0 -175.81 -466.39 269.59 -113.79c67.39,104.99 150.92,187.06 249.57,247.11 98.65,60.08 189.46,89.87 272.5,89.87 51.28,0 94.25,-11.71 129.41,-35.66 26.86,-19.05 40.06,-41.5 40.06,-67.39 0,-21.98 -10.27,-42.5 -31.26,-62.52 -20.52,-20.02 -66.42,-42.47 -137.25,-67.39l-308.63 -107.43c-170.44,-59.58 -286.2,-123.57 -347.73,-191.46 -61.55,-68.36 -92.31,-148.96 -92.31,-242.24 0,-119.64 47.87,-220.25 144.06,-302.29 109.89,-93.28 245.17,-139.68 405.84,-139.68 143.09,0 265.19,31.76 367.27,95.72l37.1 -63.49zm1850.46 897.65l195.83 196.8c-112.33,127.94 -227.09,221.22 -343.82,278.37 -116.73,57.62 -243.21,86.44 -378.49,86.44 -217.32,0 -400.47,-73.26 -548.93,-220.25 -148.96,-146.99 -223.19,-324.27 -223.19,-532.82 0,-136.75 33.2,-261.76 100.12,-375.55 66.89,-113.79 159.7,-202.67 277.87,-266.66 118.7,-63.99 252.51,-96.21 402.44,-96.21 95.72,0 182.65,13.68 260.79,41.5 78.13,27.36 146.99,66.92 205.61,118.2 58.61,50.81 105.99,112.83 141.62,185.59 36.13,72.76 60.55,147.96 73.76,225.62 5.84,39.07 8.78,100.62 8.78,185.09l-964.05 0c1.97,120.63 37.6,218.31 106.46,292.54 68.86,74.7 153.86,111.83 253.48,111.83 63.99,0 133.81,-19.05 209.01,-57.15 75.23,-38.57 149.46,-96.21 222.72,-173.35zm-284.74 -414.15c-6.84,-56.65 -20.52,-101.09 -41,-133.34 -20.52,-32.7 -48.37,-58.59 -83.03,-78.13 -35.16,-19.05 -71.29,-28.82 -109.89,-28.82 -40.04,0 -78.63,9.77 -116.23,29.79 -37.1,19.55 -66.89,46.4 -89.37,80.6 -22.45,33.7 -37.1,77.16 -43.94,129.91l483.48 0zm1321.54 -515.73l0 189.99c107.93,-73.26 200.71,-123.57 277.4,-149.93 77.16,-26.88 155.77,-40.06 236.37,-40.06 92.78,0 174.85,19.55 245.64,58.61 71.29,39.07 123.57,87.91 155.8,146.49 32.73,58.12 48.84,141.65 48.84,249.08l0 593.87c0,50.81 3.41,83.03 10.74,97.18 6.84,14.18 18.05,24.92 33.7,31.26 11.24,4.9 45.41,7.34 102.55,7.34l69.83 0 0 275.43 -838.04 0 0 -275.43c63.02,-1 98.65,-2.44 105.99,-4.4 23.92,-6.34 39.07,-17.58 46.87,-32.73 7.34,-15.14 11.24,-47.84 11.24,-98.15l0 -522.07c0,-67.39 -7.34,-110.86 -21.49,-130.88 -22.95,-33.22 -59.11,-49.84 -108.92,-49.84 -41,0 -84.97,8.8 -131.85,26.88 -46.9,18.05 -109.89,55.18 -188.99,111.33l0 564.57c0,61.52 6.84,99.62 20.49,113.79 13.21,14.15 45.91,21.49 97.21,21.49l46.38 0 0 275.43 -832.17 0 0 -275.43 41.5 0c65.45,0 105.99,-2.93 121.6,-8.31 15.62,-5.87 27.83,-16.11 35.66,-30.29 8.31,-14.15 12.21,-42 12.21,-84l0 -662.72 -210.98 0 0 -275.43c170.91,-21.49 331.11,-62.52 480.07,-123.07l132.35 0zm2245.03 32.23l761.87 0 0 275.46c-63.99,0.97 -101.58,2.91 -111.83,5.84 -16.61,4.4 -33.22,16.11 -51.28,34.19 -17.58,18.08 -35.66,46.4 -53.74,84.5l-468.83 1027.03 -380.92 0 -487.88 -1059.29c-11.74,-23.42 -26.39,-43.94 -44.94,-61.02 -14.18,-13.21 -30.29,-21.98 -47.37,-25.42 -11.74,-3.9 -46.9,-5.84 -105.49,-5.84l0 -275.46 876.14 0 0 275.46 -45.43 0c-56.15,0 -90.81,4.37 -104.02,12.68 -18.55,11.74 -27.33,26.39 -27.33,44.44 0,14.18 6.34,36.63 18.55,67.42l221.22 549.4 231 -548.93c13.68,-31.73 20.05,-55.18 20.05,-70.33 0,-19.05 -9.77,-33.7 -29.79,-42.97 -15.64,-7.81 -49.81,-11.71 -102.55,-11.71l-67.42 0 0 -275.46zm1669.24 -32.23c163.13,0 305.25,31.76 426.36,95.72 121.6,63.49 214.41,150.43 279.84,259.82 65.45,109.89 98.18,238.83 98.18,385.82 0,222.69 -72.29,403.4 -217.35,542.09 -145.03,138.69 -338.92,208.04 -581.16,208.04 -247.11,0 -443.44,-69.83 -589.46,-209.51 -141.15,-133.31 -211.95,-313.53 -211.95,-540.62 0,-148.96 32.23,-277.4 96.68,-384.83 64.48,-107.45 157.76,-193.89 279.84,-258.85 122.1,-64.95 261.78,-97.68 419.02,-97.68zm7.34 313.53c-54.68,0 -105.99,16.11 -153.83,48.37 -47.87,32.23 -84.97,79.6 -111.36,142.59 -26.36,62.52 -39.57,142.12 -39.57,239.3 0,99.62 12.71,182.16 38.6,247.61 25.89,65.45 62.02,114.27 107.43,145.52 45.43,31.26 95.24,46.9 149.95,46.9 84.47,0 156.77,-35.16 217.32,-105.99 60.05,-70.82 90.34,-180.69 90.34,-330.14 0,-144.06 -27.83,-252.48 -84,-325.24 -56.15,-72.76 -127.94,-108.92 -214.88,-108.92zm1656.06 -955.24l0 1675.11c0,56.15 2.44,89.85 7.34,100.12 6.34,19.05 20.99,33.2 43.94,41.5 14.18,5.87 52.74,8.8 115.76,8.8l49.81 0 0 275.43 -884.94 0 0 -275.43 54.21 0c57.15,0 93.78,-3.43 109.89,-10.74 16.11,-7.34 27.83,-18.58 35.66,-34.19 7.31,-16.11 11.21,-50.81 11.21,-105.49l0 -1276.61 -210.98 0 0 -275.43c170.94,-11.74 347.25,-52.74 529.41,-123.07l138.69 0zm1239.01 673.94l761.87 0 0 275.46c-63.99,0.97 -101.58,2.91 -111.83,5.84 -16.61,4.4 -33.22,16.11 -51.28,34.19 -17.58,18.08 -35.66,46.4 -53.74,84.5l-468.83 1027.03 -380.92 0 -487.88 -1059.29c-11.74,-23.42 -26.39,-43.94 -44.94,-61.02 -14.18,-13.21 -30.29,-21.98 -47.37,-25.42 -11.74,-3.9 -46.9,-5.84 -105.49,-5.84l0 -275.46 876.14 0 0 275.46 -45.43 0c-56.15,0 -90.81,4.37 -104.02,12.68 -18.55,11.74 -27.33,26.39 -27.33,44.44 0,14.18 6.34,36.63 18.55,67.42l221.22 549.4 231 -548.93c13.68,-31.73 20.05,-55.18 20.05,-70.33 0,-19.05 -9.77,-33.7 -29.79,-42.97 -15.64,-7.81 -49.81,-11.71 -102.55,-11.71l-67.42 0 0 -275.46zm1314.71 -671c72.76,0 134.28,25.39 185.56,76.67 51.3,50.78 76.69,112.33 76.69,184.59 0,73.76 -25.39,135.78 -76.69,186.56 -51.28,51.28 -112.8,76.69 -185.56,76.69 -72.76,0 -134.31,-25.42 -185.59,-76.69 -51.28,-50.78 -76.67,-112.33 -76.67,-185.09 0,-71.29 26.36,-132.82 78.6,-185.09 52.74,-51.78 113.79,-77.64 183.65,-77.64zm232.93 638.77l0 1055.39c0,50.28 2.93,81.54 8.8,92.78 5.37,11.24 15.62,20.02 30.76,26.39 14.65,6.34 47.87,9.28 99.62,9.28l77.66 0 0 275.43 -884.94 0 0 -275.43 75.72 0c49.31,0 81.07,-2.44 94.72,-7.84 13.68,-5.37 23.95,-14.15 30.79,-26.36 6.34,-12.21 9.75,-37.13 9.75,-74.23l0 -679.81 -210.98 0 0 -269.59c75.23,-3.9 147.49,-11.71 216.85,-24.42 68.86,-12.21 130.88,-27.36 185.09,-44.44 35.16,-11.24 78.63,-30.29 130.41,-57.15l135.75 0zm1033.9 0l0 189.99c83.01,-63.99 167.51,-111.36 252.95,-143.12 85.97,-31.23 173.38,-46.87 261.78,-46.87 56.65,0 110.36,8.31 162.64,24.92 51.75,16.58 95.22,38.57 129.91,64.95 35.16,26.86 66.89,62.99 95.22,108.42 92.81,-70.33 181.19,-121.13 266.16,-151.89 84.97,-30.76 170.94,-46.4 258.85,-46.4 76.2,0 145.52,13.68 207.54,41.5 62.05,27.36 112.33,64.95 150.92,111.86 38.57,47.37 63.49,98.65 75.2,153.83 7.34,34.19 11.24,84 11.24,149.93l0 590.93c0,48.84 3.41,80.1 10.74,94.25 6.84,14.18 19.05,25.42 35.66,32.73 12.21,5.87 46.38,8.8 102.55,8.8l62.02 0 0 275.43 -832.2 0 0 -275.43c62.02,0 100.62,-2.93 117.23,-9.28 16.11,-6.37 27.83,-16.14 35.63,-29.79 7.34,-14.18 11.24,-44.47 11.24,-90.84l0 -518.17c0,-60.08 -3.9,-99.62 -12.21,-119.17 -8.31,-19.52 -23.92,-36.13 -47.37,-50.31 -23.45,-13.68 -51.28,-20.52 -83.51,-20.52 -37.6,0 -77.66,8.31 -120.63,24.92 -42.97,16.61 -106.46,53.24 -190.46,109.39l0 558.2c0,55.21 3.9,89.87 11.21,104.02 7.84,14.18 21.01,25.42 40.06,32.73 11.71,4.9 49.31,7.81 112.8,8.8l0 275.43 -785.3 0 0 -275.43c65.45,-1 105.02,-4.4 119.66,-9.77 14.15,-5.87 25.39,-16.11 32.73,-31.26 7.81,-15.62 11.71,-49.81 11.71,-104.02l0 -487.88c0,-75.23 -6.84,-125.04 -20.02,-149.46 -21.01,-37.1 -58.12,-55.68 -111.86,-55.68 -26.86,0 -54.68,3.43 -84.47,9.77 -29.79,6.84 -58.61,17.11 -87.41,31.26 -15.14,7.81 -54.21,32.73 -117.23,74.23l-33.2 21.49 0 556.27c0,53.24 2.93,86.44 8.78,99.62 5.37,13.21 16.61,23.95 33.22,32.73 16.58,8.31 45.41,12.71 86.44,12.71l38.57 0 0 275.43 -835.11 0 0 -275.43 55.68 0c59.08,0 95.72,-2.93 110.36,-9.28 14.65,-6.37 25.89,-17.11 33.7,-32.73 7.34,-15.64 11.24,-49.81 11.24,-103.05l0 -640.27 -210.98 0 0 -275.43c174.85,-16.61 335.99,-57.62 483.97,-123.07l134.31 0zm3572.44 929.88l195.83 196.8c-112.33,127.94 -227.09,221.22 -343.82,278.37 -116.73,57.62 -243.21,86.44 -378.49,86.44 -217.32,0 -400.47,-73.26 -548.93,-220.25 -148.96,-146.99 -223.19,-324.27 -223.19,-532.82 0,-136.75 33.2,-261.76 100.12,-375.55 66.89,-113.79 159.7,-202.67 277.87,-266.66 118.7,-63.99 252.51,-96.21 402.44,-96.21 95.72,0 182.65,13.68 260.79,41.5 78.13,27.36 146.99,66.92 205.61,118.2 58.61,50.81 105.99,112.83 141.62,185.59 36.13,72.76 60.55,147.96 73.76,225.62 5.84,39.07 8.78,100.62 8.78,185.09l-964.05 0c1.97,120.63 37.6,218.31 106.46,292.54 68.86,74.7 153.86,111.83 253.48,111.83 63.99,0 133.81,-19.05 209.01,-57.15 75.23,-38.57 149.46,-96.21 222.72,-173.35zm-284.74 -414.15c-6.84,-56.65 -20.52,-101.09 -41,-133.34 -20.52,-32.7 -48.37,-58.59 -83.03,-78.13 -35.16,-19.05 -71.29,-28.82 -109.89,-28.82 -40.04,0 -78.63,9.77 -116.23,29.79 -37.1,19.55 -66.89,46.4 -89.37,80.6 -22.45,33.7 -37.1,77.16 -43.94,129.91l483.48 0zm1321.54 -515.73l0 189.99c107.93,-73.26 200.71,-123.57 277.4,-149.93 77.16,-26.88 155.77,-40.06 236.37,-40.06 92.78,0 174.85,19.55 245.64,58.61 71.29,39.07 123.57,87.91 155.8,146.49 32.73,58.12 48.84,141.65 48.84,249.08l0 593.87c0,50.81 3.41,83.03 10.74,97.18 6.84,14.18 18.05,24.92 33.7,31.26 11.24,4.9 45.41,7.34 102.55,7.34l69.83 0 0 275.43 -838.04 0 0 -275.43c63.02,-1 98.65,-2.44 105.99,-4.4 23.92,-6.34 39.07,-17.58 46.87,-32.73 7.34,-15.14 11.24,-47.84 11.24,-98.15l0 -522.07c0,-67.39 -7.34,-110.86 -21.49,-130.88 -22.95,-33.22 -59.11,-49.84 -108.92,-49.84 -41,0 -84.97,8.8 -131.85,26.88 -46.9,18.05 -109.89,55.18 -188.99,111.33l0 564.57c0,61.52 6.84,99.62 20.49,113.79 13.21,14.15 45.91,21.49 97.21,21.49l46.38 0 0 275.43 -832.17 0 0 -275.43 41.5 0c65.45,0 105.99,-2.93 121.6,-8.31 15.62,-5.87 27.83,-16.11 35.66,-30.29 8.31,-14.15 12.21,-42 12.21,-84l0 -662.72 -210.98 0 0 -275.43c170.91,-21.49 331.11,-62.52 480.07,-123.07l132.35 0zm2004.76 -457.12l0 489.35 460.05 0 0 304.75 -460.05 0 0 497.65c0,112.33 5.87,184.59 18.08,216.35 11.71,32.23 33.7,57.62 66.42,76.67 42.47,25.89 91.81,38.6 146.99,38.6 98.15,0 195.83,-31.76 293.02,-95.74l0 306.22c-83.01,39.07 -158.23,66.42 -225.13,82.54 -67.39,15.62 -140.18,23.45 -218.31,23.45 -88.88,0 -167.51,-11.24 -235.4,-33.7 -68.36,-22.48 -126.48,-54.21 -174.82,-95.74 -47.87,-41.5 -81.57,-85.44 -100.12,-132.35 -18.58,-46.87 -27.85,-114.27 -27.85,-203.17l0 -680.78 -210.98 0 0 -275.43c76.2,-24.92 141.15,-60.08 195.36,-105.99 53.71,-46.4 97.18,-101.58 130.38,-166.04 32.73,-64.95 55.18,-146.99 67.39,-246.64l274.96 0z"/>
   <path class="fil27" d="M60556.11 9286.97c163.13,0 305.25,31.76 426.36,95.72 121.6,63.49 214.41,150.43 279.84,259.82 65.45,109.89 98.18,238.83 98.18,385.82 0,222.69 -72.29,403.4 -217.35,542.09 -145.03,138.69 -338.92,208.04 -581.16,208.04 -247.11,0 -443.44,-69.83 -589.46,-209.51 -141.15,-133.31 -211.95,-313.53 -211.95,-540.62 0,-148.96 32.23,-277.4 96.68,-384.83 64.48,-107.45 157.76,-193.89 279.84,-258.85 122.1,-64.95 261.78,-97.68 419.02,-97.68zm7.34 313.53c-54.68,0 -105.99,16.11 -153.83,48.37 -47.87,32.23 -84.97,79.6 -111.36,142.59 -26.36,62.52 -39.57,142.12 -39.57,239.3 0,99.62 12.71,182.16 38.6,247.61 25.89,65.45 62.02,114.27 107.43,145.52 45.43,31.26 95.24,46.9 149.95,46.9 84.47,0 156.77,-35.16 217.32,-105.99 60.05,-70.82 90.34,-180.69 90.34,-330.14 0,-144.06 -27.83,-252.48 -84,-325.24 -56.15,-72.76 -127.94,-108.92 -214.88,-108.92zm3305.81 616.35l195.83 196.8c-112.33,127.94 -227.09,221.22 -343.82,278.37 -116.73,57.62 -243.21,86.44 -378.49,86.44 -217.32,0 -400.47,-73.26 -548.93,-220.25 -148.96,-146.99 -223.19,-324.27 -223.19,-532.82 0,-136.75 33.2,-261.76 100.12,-375.55 66.89,-113.79 159.7,-202.67 277.87,-266.66 118.7,-63.99 252.51,-96.21 402.44,-96.21 95.72,0 182.65,13.68 260.79,41.5 78.13,27.36 146.99,66.92 205.61,118.2 58.61,50.81 105.99,112.83 141.62,185.59 36.13,72.76 60.55,147.96 73.76,225.62 5.84,39.07 8.78,100.62 8.78,185.09l-964.05 0c1.97,120.63 37.6,218.31 106.46,292.54 68.86,74.7 153.86,111.83 253.48,111.83 63.99,0 133.81,-19.05 209.01,-57.15 75.23,-38.57 149.46,-96.21 222.72,-173.35zm-284.74 -414.15c-6.84,-56.65 -20.52,-101.09 -41,-133.34 -20.52,-32.7 -48.37,-58.59 -83.03,-78.13 -35.16,-19.05 -71.29,-28.82 -109.89,-28.82 -40.04,0 -78.63,9.77 -116.23,29.79 -37.1,19.55 -66.89,46.4 -89.37,80.6 -22.45,33.7 -37.1,77.16 -43.94,129.91l483.48 0zm-47482.44 2382.27l1665.34 0 227.59 633.9 -259.32 93.28c-43.97,-104.02 -95.24,-187.53 -153.86,-250.54 -58.59,-63.49 -123.54,-105.49 -194.37,-126.48 -70.82,-20.52 -153.83,-30.76 -248.08,-30.76l-304.75 0 0 501.06 99.15 0c74.23,0 124.51,-5.37 150.4,-16.61 25.89,-10.74 44.44,-28.32 55.68,-51.75 11.24,-23.45 17.11,-69.86 17.11,-139.68l0 -76.2 257.85 0 0 843.91 -257.85 0 0 -86.44c0,-58.61 -6.84,-101.58 -20.52,-128.44 -13.68,-26.86 -32.23,-45.41 -55.68,-54.71 -23.92,-9.75 -76.2,-14.65 -157.26,-14.65l-88.88 0 0 458.59c0,48.34 2.44,78.13 7.31,88.88 4.4,10.27 14.18,18.58 27.85,23.95 13.68,5.84 43.47,8.78 89.37,8.78l167.51 0c125.01,0 230.03,-18.05 315.97,-53.71 85.97,-36.13 162.64,-94.25 229.56,-173.85 67.39,-80.1 119.14,-175.34 155.3,-285.24l261.26 89.87 -261.76 742.33 -1724.92 0 0 -275.43 49.81 0c66.89,0 111.83,-4.9 134.78,-14.18 22.95,-9.77 39.07,-26.36 48.34,-50.31 4.9,-14.15 7.34,-54.68 7.34,-121.6l0 -1088.09c0,-59.08 -3.9,-98.15 -12.21,-116.23 -7.81,-18.08 -20.52,-31.76 -38.1,-40.53 -17.08,-9.28 -50.78,-13.68 -101.09,-13.68l-88.88 0 0 -275.43zm3076.23 568.45l187.06 0 115.73 398.03 -269.56 108.89c-51.28,-82.04 -115.76,-146.49 -193.4,-193.4 -77.66,-46.87 -154.83,-70.33 -231,-70.33 -50.31,0 -87.91,8.31 -112.83,25.42 -24.92,16.58 -37.13,37.1 -37.13,60.55 0,19.52 8.8,38.1 26.39,54.68 17.58,17.11 54.21,35.16 109.39,53.74l392.66 140.15c69.83,24.42 136.25,55.68 200.23,92.78 63.96,37.13 111.83,82.54 143.56,136.28 31.76,53.71 47.87,116.7 47.87,188.99 0,128.94 -49.34,235.4 -148.46,317.93 -116.23,97.18 -261.29,145.52 -434.66,145.52 -148.46,0 -277.87,-37.1 -388.26,-110.86l-40.04 78.63 -189.99 0 -175.81 -466.39 269.59 -113.79c67.39,104.99 150.92,187.06 249.57,247.11 98.65,60.08 189.46,89.87 272.5,89.87 51.28,0 94.25,-11.71 129.41,-35.66 26.86,-19.05 40.06,-41.5 40.06,-67.39 0,-21.98 -10.27,-42.5 -31.26,-62.52 -20.52,-20.02 -66.42,-42.47 -137.25,-67.39l-308.63 -107.43c-170.44,-59.58 -286.2,-123.57 -347.73,-191.46 -61.55,-68.36 -92.31,-148.96 -92.31,-242.24 0,-119.64 47.87,-220.25 144.06,-302.29 109.89,-93.28 245.17,-139.68 405.84,-139.68 143.09,0 265.19,31.76 367.27,95.72l37.1 -63.49zm1199.44 -489.35l0 489.35 460.05 0 0 304.75 -460.05 0 0 497.65c0,112.33 5.87,184.59 18.08,216.35 11.71,32.23 33.7,57.62 66.42,76.67 42.47,25.89 91.81,38.6 146.99,38.6 98.15,0 195.83,-31.76 293.02,-95.74l0 306.22c-83.01,39.07 -158.23,66.42 -225.13,82.54 -67.39,15.62 -140.18,23.45 -218.31,23.45 -88.88,0 -167.51,-11.24 -235.4,-33.7 -68.36,-22.48 -126.48,-54.21 -174.82,-95.74 -47.87,-41.5 -81.57,-85.44 -100.12,-132.35 -18.58,-46.87 -27.85,-114.27 -27.85,-203.17l0 -680.78 -210.98 0 0 -275.43c76.2,-24.92 141.15,-60.08 195.36,-105.99 53.71,-46.4 97.18,-101.58 130.38,-166.04 32.73,-64.95 55.18,-146.99 67.39,-246.64l274.96 0zm1336.19 457.12l0 208.04c76.67,-80.57 143.09,-135.28 199.24,-164.08 55.68,-29.32 109.89,-43.97 161.67,-43.97 46.87,0 88.88,10.74 125.51,32.23 37.13,21.49 66.42,52.27 87.91,92.31 21.49,40.04 32.23,83.03 32.23,128.94 0,60.05 -20.02,114.27 -59.58,163.11 -39.57,48.34 -95.22,72.76 -167.01,72.76 -19.05,0 -36.16,-1.47 -51.28,-4.37 -14.65,-2.93 -45.91,-12.21 -93.78,-28.35 -24.92,-7.31 -45.41,-11.21 -61.52,-11.21 -24.92,0 -65.95,15.62 -123.57,46.87l0 557.73c0,47.37 3.41,78.13 10.74,92.28 6.84,14.67 18.55,24.92 34.19,31.76 16.11,6.34 50.78,9.77 104.02,9.77l62.02 0 0 275.43 -879.07 0 0 -275.43 73.26 0c52.74,0 85.47,-2.93 98.15,-8.8 13.18,-5.37 22.95,-15.62 29.32,-29.79 6.81,-14.15 10.24,-45.91 10.24,-95.22l0 -654.42 -210.98 0 0 -274.96c155.3,-9.77 316.47,-49.81 483.97,-120.63l134.31 0zm682.74 32.23l668.1 -11.71 0 925.48c0,65.92 3.9,109.39 12.21,131.35 8.28,21.98 22.95,39.57 44.91,53.74 21.49,13.68 48.84,20.52 81.57,20.52 47.87,0 98.65,-11.24 152.86,-34.19 20.99,-9.28 77.16,-42.97 168.48,-100.62l0 -557.71c0,-48.37 -3.9,-82.07 -11.71,-100.12 -7.34,-18.08 -18.55,-31.26 -32.73,-39.07 -14.15,-8.31 -42,-12.21 -83.51,-12.21l-83.03 0 0 -275.46 668.1 -11.71 0 1020.69c0,53.24 2.93,86.44 9.28,100.62 5.87,13.68 15.64,23.42 29.32,29.79 13.68,6.34 46.38,9.28 97.68,9.28l74.7 0 0 278.37 -624.13 17.58 0 -169.94c-84,61.52 -168.51,107.43 -253.48,138.19 -84.97,30.79 -170.44,46.4 -256.38,46.4 -68.86,0 -131.87,-11.24 -189.99,-33.7 -57.62,-22.45 -105.96,-52.25 -145.03,-89.85 -39.57,-37.63 -68.39,-81.57 -87.44,-131.87 -19.05,-50.78 -28.79,-115.26 -28.79,-194.37l0 -588.49c0,-54.21 -2.93,-88.41 -9.3,-102.55 -6.34,-14.65 -16.58,-24.92 -30.76,-32.23 -14.65,-7.34 -44.94,-10.74 -91.81,-10.74l-79.1 0 0 -275.46zm2611.3 -489.35l0 489.35 460.05 0 0 304.75 -460.05 0 0 497.65c0,112.33 5.87,184.59 18.08,216.35 11.71,32.23 33.7,57.62 66.42,76.67 42.47,25.89 91.81,38.6 146.99,38.6 98.15,0 195.83,-31.76 293.02,-95.74l0 306.22c-83.01,39.07 -158.23,66.42 -225.13,82.54 -67.39,15.62 -140.18,23.45 -218.31,23.45 -88.88,0 -167.51,-11.24 -235.4,-33.7 -68.36,-22.48 -126.48,-54.21 -174.82,-95.74 -47.87,-41.5 -81.57,-85.44 -100.12,-132.35 -18.58,-46.87 -27.85,-114.27 -27.85,-203.17l0 -680.78 -210.98 0 0 -275.43c76.2,-24.92 141.15,-60.08 195.36,-105.99 53.71,-46.4 97.18,-101.58 130.38,-166.04 32.73,-64.95 55.18,-146.99 67.39,-246.64l274.96 0zm671.03 489.35l668.1 -11.71 0 925.48c0,65.92 3.9,109.39 12.21,131.35 8.28,21.98 22.95,39.57 44.91,53.74 21.49,13.68 48.84,20.52 81.57,20.52 47.87,0 98.65,-11.24 152.86,-34.19 20.99,-9.28 77.16,-42.97 168.48,-100.62l0 -557.71c0,-48.37 -3.9,-82.07 -11.71,-100.12 -7.34,-18.08 -18.55,-31.26 -32.73,-39.07 -14.15,-8.31 -42,-12.21 -83.51,-12.21l-83.03 0 0 -275.46 668.1 -11.71 0 1020.69c0,53.24 2.93,86.44 9.28,100.62 5.87,13.68 15.64,23.42 29.32,29.79 13.68,6.34 46.38,9.28 97.68,9.28l74.7 0 0 278.37 -624.13 17.58 0 -169.94c-84,61.52 -168.51,107.43 -253.48,138.19 -84.97,30.79 -170.44,46.4 -256.38,46.4 -68.86,0 -131.87,-11.24 -189.99,-33.7 -57.62,-22.45 -105.96,-52.25 -145.03,-89.85 -39.57,-37.63 -68.39,-81.57 -87.44,-131.87 -19.05,-50.78 -28.79,-115.26 -28.79,-194.37l0 -588.49c0,-54.21 -2.93,-88.41 -9.3,-102.55 -6.34,-14.65 -16.58,-24.92 -30.76,-32.23 -14.65,-7.34 -44.94,-10.74 -91.81,-10.74l-79.1 0 0 -275.46zm2599.59 -32.23l0 208.04c76.67,-80.57 143.09,-135.28 199.24,-164.08 55.68,-29.32 109.89,-43.97 161.67,-43.97 46.87,0 88.88,10.74 125.51,32.23 37.13,21.49 66.42,52.27 87.91,92.31 21.49,40.04 32.23,83.03 32.23,128.94 0,60.05 -20.02,114.27 -59.58,163.11 -39.57,48.34 -95.22,72.76 -167.01,72.76 -19.05,0 -36.16,-1.47 -51.28,-4.37 -14.65,-2.93 -45.91,-12.21 -93.78,-28.35 -24.92,-7.31 -45.41,-11.21 -61.52,-11.21 -24.92,0 -65.95,15.62 -123.57,46.87l0 557.73c0,47.37 3.41,78.13 10.74,92.28 6.84,14.67 18.55,24.92 34.19,31.76 16.11,6.34 50.78,9.77 104.02,9.77l62.02 0 0 275.43 -879.07 0 0 -275.43 73.26 0c52.74,0 85.47,-2.93 98.15,-8.8 13.18,-5.37 22.95,-15.62 29.32,-29.79 6.81,-14.15 10.24,-45.91 10.24,-95.22l0 -654.42 -210.98 0 0 -274.96c155.3,-9.77 316.47,-49.81 483.97,-120.63l134.31 0zm1585.24 594.83l0 -104.99c0,-62.52 -5.37,-105.49 -15.62,-128.94 -10.74,-23.92 -29.79,-43.47 -57.65,-59.08 -27.83,-15.62 -62.49,-23.45 -103.52,-23.45 -31.76,0 -60.55,5.37 -86.44,15.64 -25.89,10.24 -46.4,23.42 -61.55,39.54 -15.62,16.14 -33.2,47.37 -53.22,93.78 -25.89,58.61 -56.65,100.62 -92.31,126.5 -35.66,25.39 -78.13,38.07 -126.48,38.07 -61.05,0 -111.36,-19.02 -150.43,-57.12 -39.07,-38.1 -58.61,-84.97 -58.61,-141.15 0,-63.49 20.02,-120.14 60.08,-169.47 53.71,-65.92 133.31,-119.64 239.3,-161.64 105.96,-41.5 225.13,-62.52 357.47,-62.52 132.84,0 245.67,21.49 338.95,63.99 92.78,42.97 157.73,94.25 194.37,153.33 36.63,59.58 55.18,150.43 55.18,272.03l0 510.36c0,62.99 3.43,103.05 10.27,120.63 6.34,17.58 20.99,33.2 42.97,46.38 21.98,13.21 46.38,20.05 73.26,20.05 26.86,0 62.99,-7.84 107.93,-22.95l0 280.31c-81.07,25.89 -159.2,38.6 -233.93,38.6 -87.91,0 -162.64,-14.18 -225.15,-43 -62.02,-28.79 -114.27,-71.77 -156.27,-129.41 -95.72,62.02 -182.16,106.46 -260.32,132.84 -77.64,26.36 -152.86,39.57 -225.62,39.57 -136.75,0 -247.11,-38.6 -331.61,-115.26 -83.98,-76.67 -125.98,-171.41 -125.98,-283.74 0,-63.99 14.65,-122.6 43.94,-175.81 29.29,-53.24 72.76,-100.12 130.41,-140.18 58.12,-40.04 147.49,-75.2 269.09,-106.46 121.1,-30.76 268.1,-53.22 441.47,-66.42zm0 237.36c-125.51,18.05 -214.38,36.63 -266.16,55.18 -51.78,18.55 -88.88,41.5 -110.86,69.83 -21.98,28.32 -33.2,57.15 -33.2,86.44 0,38.1 14.15,69.86 42.97,95.74 28.82,25.86 67.89,38.57 116.73,38.57 31.73,0 68.36,-8.31 110.36,-24.42 41.5,-16.11 88.41,-40.04 140.15,-71.29l0 -250.04zm2134.2 86.91l209.98 183.65c-112.3,135.75 -229.03,234.4 -350.16,295.95 -121.1,62.02 -250.52,92.78 -388.73,92.78 -221.22,0 -405.84,-71.79 -553.83,-215.38 -147.96,-143.56 -222.19,-318.4 -222.19,-524.51 0,-139.65 34.66,-267.63 103.52,-383.86 69.36,-115.73 164.1,-206.08 284.74,-270.56 120.61,-64.95 262.73,-97.18 426.83,-97.18 196.33,0 356.5,45.43 481.04,136.75 124.54,90.84 186.56,187.06 186.56,288.14 0,42.5 -9.75,81.07 -29.29,114.76 -19.55,34.19 -49.34,61.55 -89.37,82.54 -40.04,21.01 -82.54,31.26 -127.47,31.26 -36.13,0 -68.86,-7.34 -97.18,-21.49 -28.79,-14.18 -52.74,-32.23 -71.79,-54.21 -8.31,-9.28 -24.89,-38.6 -49.81,-87.91 -31.73,-61.55 -55.68,-102.55 -73.26,-122.57 -17.08,-20.05 -37.6,-35.16 -61.52,-45.91 -23.45,-11.24 -50.81,-16.61 -81.57,-16.61 -49.31,0 -96.68,15.62 -142.12,47.37 -45.41,31.73 -82.54,80.1 -111.83,144.56 -28.82,64.46 -43.47,136.25 -43.47,215.85 0,87.44 17.08,165.57 51.28,235.4 34.69,69.83 80.6,122.57 138.22,158.23 57.62,36.13 121.1,54.21 190.96,54.21 66.42,0 133.81,-18.08 201.7,-53.71 67.39,-36.16 140.65,-98.65 218.79,-187.55zm-498.15 540.15l0 130.41c42,-4.9 74.23,-7.34 97.18,-7.34 71.32,0 130.41,20.52 175.81,61.52 45.91,41.03 68.86,93.78 68.86,157.76 0,79.1 -30.76,145.52 -92.78,200.23 -62.02,54.21 -146.02,81.54 -251.51,81.54 -90.34,0 -161.17,-17.58 -211.95,-52.74 -51.28,-35.16 -76.69,-75.7 -76.69,-121.6 0,-31.26 9.3,-55.65 27.36,-73.73 18.08,-17.58 42.97,-26.39 75.23,-26.39 26.86,0 55.65,11.74 87.41,34.69 24.42,19.05 44.44,31.73 59.08,37.6 14.65,5.87 30.29,8.78 46.4,8.78 28.82,0 49.81,-7.31 64.46,-22.45 20.02,-21.49 29.79,-44.94 29.79,-70.33 0,-32.73 -14.65,-60.08 -43.47,-82.04 -29.29,-21.98 -72.26,-33.22 -129.91,-33.22 -28.32,0 -63.96,1.97 -105.96,5.87l27.36 -228.56 153.33 0zm1763.02 -864.43l0 -104.99c0,-62.52 -5.37,-105.49 -15.62,-128.94 -10.74,-23.92 -29.79,-43.47 -57.65,-59.08 -27.83,-15.62 -62.49,-23.45 -103.52,-23.45 -31.76,0 -60.55,5.37 -86.44,15.64 -25.89,10.24 -46.4,23.42 -61.55,39.54 -15.62,16.14 -33.2,47.37 -53.22,93.78 -25.89,58.61 -56.65,100.62 -92.31,126.5 -35.66,25.39 -78.13,38.07 -126.48,38.07 -61.05,0 -111.36,-19.02 -150.43,-57.12 -39.07,-38.1 -58.61,-84.97 -58.61,-141.15 0,-63.49 20.02,-120.14 60.08,-169.47 53.71,-65.92 133.31,-119.64 239.3,-161.64 105.96,-41.5 225.13,-62.52 357.47,-62.52 132.84,0 245.67,21.49 338.95,63.99 92.78,42.97 157.73,94.25 194.37,153.33 36.63,59.58 55.18,150.43 55.18,272.03l0 510.36c0,62.99 3.43,103.05 10.27,120.63 6.34,17.58 20.99,33.2 42.97,46.38 21.98,13.21 46.38,20.05 73.26,20.05 26.86,0 62.99,-7.84 107.93,-22.95l0 280.31c-81.07,25.89 -159.2,38.6 -233.93,38.6 -87.91,0 -162.64,-14.18 -225.15,-43 -62.02,-28.79 -114.27,-71.77 -156.27,-129.41 -95.72,62.02 -182.16,106.46 -260.32,132.84 -77.64,26.36 -152.86,39.57 -225.62,39.57 -136.75,0 -247.11,-38.6 -331.61,-115.26 -83.98,-76.67 -125.98,-171.41 -125.98,-283.74 0,-63.99 14.65,-122.6 43.94,-175.81 29.29,-53.24 72.76,-100.12 130.41,-140.18 58.12,-40.04 147.49,-75.2 269.09,-106.46 121.1,-30.76 268.1,-53.22 441.47,-66.42zm0 237.36c-125.51,18.05 -214.38,36.63 -266.16,55.18 -51.78,18.55 -88.88,41.5 -110.86,69.83 -21.98,28.32 -33.2,57.15 -33.2,86.44 0,38.1 14.15,69.86 42.97,95.74 28.82,25.86 67.89,38.57 116.73,38.57 31.73,0 68.36,-8.31 110.36,-24.42 41.5,-16.11 88.41,-40.04 140.15,-71.29l0 -250.04zm218.79 -1418.23l147.49 73.23c-17.08,84.5 -65.43,159.7 -144.56,225.65 -66.89,54.68 -148.96,82.04 -247.61,82.04 -69.33,0 -166.04,-18.55 -290.08,-56.18 -51.78,-15.12 -85.47,-22.95 -101.58,-22.95 -12.71,0 -23.92,2.46 -34.66,7.84 -10.27,5.37 -28.32,20.49 -54.21,44.91l-161.67 -90.34c26.86,-77.64 75.7,-143.59 147.49,-197.8 71.29,-54.18 145.05,-81.07 220.25,-81.07 27.85,0 53.74,1.97 78.63,6.37 24.92,4.37 67.39,15.14 127.47,32.23 91.31,26.86 155.8,40.53 192.9,40.53 17.11,0 32.23,-2.93 44.94,-8.31 13.18,-5.37 30.76,-18.08 53.71,-38.57l21.49 -17.58zm1406.02 586.03c163.13,0 305.25,31.76 426.36,95.72 121.6,63.49 214.41,150.43 279.84,259.82 65.45,109.89 98.18,238.83 98.18,385.82 0,222.69 -72.29,403.4 -217.35,542.09 -145.03,138.69 -338.92,208.04 -581.16,208.04 -247.11,0 -443.44,-69.83 -589.46,-209.51 -141.15,-133.31 -211.95,-313.53 -211.95,-540.62 0,-148.96 32.23,-277.4 96.68,-384.83 64.48,-107.45 157.76,-193.89 279.84,-258.85 122.1,-64.95 261.78,-97.68 419.02,-97.68zm7.34 313.53c-54.68,0 -105.99,16.11 -153.83,48.37 -47.87,32.23 -84.97,79.6 -111.36,142.59 -26.36,62.52 -39.57,142.12 -39.57,239.3 0,99.62 12.71,182.16 38.6,247.61 25.89,65.45 62.02,114.27 107.43,145.52 45.43,31.26 95.24,46.9 149.95,46.9 84.47,0 156.77,-35.16 217.32,-105.99 60.05,-70.82 90.34,-180.69 90.34,-330.14 0,-144.06 -27.83,-252.48 -84,-325.24 -56.15,-72.76 -127.94,-108.92 -214.88,-108.92zm2001.35 -849.75l972.85 0 0 275.43 -88.88 0c-51.28,0 -85.47,4.4 -102.08,13.68 -16.61,8.78 -29.29,23.45 -37.1,42.97 -8.31,19.55 -12.21,57.15 -12.21,112.33l0 1105.2c0,60.05 3.41,98.65 9.75,116.23 6.84,17.08 18.58,29.29 34.69,37.1 20.02,11.24 49.81,17.11 89.85,17.11l105.99 0 0 275.43 -972.85 0 0 -275.43 79.13 0c56.65,0 93.75,-3.9 110.86,-12.21 17.08,-8.31 29.79,-21.01 38.1,-38.6 8.31,-17.58 12.21,-52.74 12.21,-105.49l0 -1109.57c0,-62.02 -3.9,-102.55 -12.21,-122.1 -8.31,-19.52 -21.98,-34.66 -41.03,-45.41 -13.68,-7.34 -45.91,-11.24 -97.68,-11.24l-89.37 0 0 -275.43zm1813.36 536.22l0 189.99c107.93,-73.26 200.71,-123.57 277.4,-149.93 77.16,-26.88 155.77,-40.06 236.37,-40.06 92.78,0 174.85,19.55 245.64,58.61 71.29,39.07 123.57,87.91 155.8,146.49 32.73,58.12 48.84,141.65 48.84,249.08l0 593.87c0,50.81 3.41,83.03 10.74,97.18 6.84,14.18 18.05,24.92 33.7,31.26 11.24,4.9 45.41,7.34 102.55,7.34l69.83 0 0 275.43 -838.04 0 0 -275.43c63.02,-1 98.65,-2.44 105.99,-4.4 23.92,-6.34 39.07,-17.58 46.87,-32.73 7.34,-15.14 11.24,-47.84 11.24,-98.15l0 -522.07c0,-67.39 -7.34,-110.86 -21.49,-130.88 -22.95,-33.22 -59.11,-49.84 -108.92,-49.84 -41,0 -84.97,8.8 -131.85,26.88 -46.9,18.05 -109.89,55.18 -188.99,111.33l0 564.57c0,61.52 6.84,99.62 20.49,113.79 13.21,14.15 45.91,21.49 97.21,21.49l46.38 0 0 275.43 -832.17 0 0 -275.43 41.5 0c65.45,0 105.99,-2.93 121.6,-8.31 15.62,-5.87 27.83,-16.11 35.66,-30.29 8.31,-14.15 12.21,-42 12.21,-84l0 -662.72 -210.98 0 0 -275.43c170.91,-21.49 331.11,-62.52 480.07,-123.07l132.35 0zm2665.05 919.11l209.98 183.65c-112.3,135.75 -229.03,234.4 -350.16,295.95 -121.1,62.02 -250.52,92.78 -388.73,92.78 -221.22,0 -405.84,-71.79 -553.83,-215.38 -147.96,-143.56 -222.19,-318.4 -222.19,-524.51 0,-139.65 34.66,-267.63 103.52,-383.86 69.36,-115.73 164.1,-206.08 284.74,-270.56 120.61,-64.95 262.73,-97.18 426.83,-97.18 196.33,0 356.5,45.43 481.04,136.75 124.54,90.84 186.56,187.06 186.56,288.14 0,42.5 -9.75,81.07 -29.29,114.76 -19.55,34.19 -49.34,61.55 -89.37,82.54 -40.04,21.01 -82.54,31.26 -127.47,31.26 -36.13,0 -68.86,-7.34 -97.18,-21.49 -28.79,-14.18 -52.74,-32.23 -71.79,-54.21 -8.31,-9.28 -24.89,-38.6 -49.81,-87.91 -31.73,-61.55 -55.68,-102.55 -73.26,-122.57 -17.08,-20.05 -37.6,-35.16 -61.52,-45.91 -23.45,-11.24 -50.81,-16.61 -81.57,-16.61 -49.31,0 -96.68,15.62 -142.12,47.37 -45.41,31.73 -82.54,80.1 -111.83,144.56 -28.82,64.46 -43.47,136.25 -43.47,215.85 0,87.44 17.08,165.57 51.28,235.4 34.69,69.83 80.6,122.57 138.22,158.23 57.62,36.13 121.1,54.21 190.96,54.21 66.42,0 133.81,-18.08 201.7,-53.71 67.39,-36.16 140.65,-98.65 218.79,-187.55zm1036.31 -1560.82l0 1675.11c0,56.15 2.44,89.85 7.34,100.12 6.34,19.05 20.99,33.2 43.94,41.5 14.18,5.87 52.74,8.8 115.76,8.8l49.81 0 0 275.43 -884.94 0 0 -275.43 54.21 0c57.15,0 93.78,-3.43 109.89,-10.74 16.11,-7.34 27.83,-18.58 35.66,-34.19 7.31,-16.11 11.21,-50.81 11.21,-105.49l0 -1276.61 -210.98 0 0 -275.43c170.94,-11.74 347.25,-52.74 529.41,-123.07l138.69 0zm321.87 673.94l668.1 -11.71 0 925.48c0,65.92 3.9,109.39 12.21,131.35 8.28,21.98 22.95,39.57 44.91,53.74 21.49,13.68 48.84,20.52 81.57,20.52 47.87,0 98.65,-11.24 152.86,-34.19 20.99,-9.28 77.16,-42.97 168.48,-100.62l0 -557.71c0,-48.37 -3.9,-82.07 -11.71,-100.12 -7.34,-18.08 -18.55,-31.26 -32.73,-39.07 -14.15,-8.31 -42,-12.21 -83.51,-12.21l-83.03 0 0 -275.46 668.1 -11.71 0 1020.69c0,53.24 2.93,86.44 9.28,100.62 5.87,13.68 15.64,23.42 29.32,29.79 13.68,6.34 46.38,9.28 97.68,9.28l74.7 0 0 278.37 -624.13 17.58 0 -169.94c-84,61.52 -168.51,107.43 -253.48,138.19 -84.97,30.79 -170.44,46.4 -256.38,46.4 -68.86,0 -131.87,-11.24 -189.99,-33.7 -57.62,-22.45 -105.96,-52.25 -145.03,-89.85 -39.57,-37.63 -68.39,-81.57 -87.44,-131.87 -19.05,-50.78 -28.79,-115.26 -28.79,-194.37l0 -588.49c0,-54.21 -2.93,-88.41 -9.3,-102.55 -6.34,-14.65 -16.58,-24.92 -30.76,-32.23 -14.65,-7.34 -44.94,-10.74 -91.81,-10.74l-79.1 0 0 -275.46zm2935.58 0l187.06 0 115.73 398.03 -269.56 108.89c-51.28,-82.04 -115.76,-146.49 -193.4,-193.4 -77.66,-46.87 -154.83,-70.33 -231,-70.33 -50.31,0 -87.91,8.31 -112.83,25.42 -24.92,16.58 -37.13,37.1 -37.13,60.55 0,19.52 8.8,38.1 26.39,54.68 17.58,17.11 54.21,35.16 109.39,53.74l392.66 140.15c69.83,24.42 136.25,55.68 200.23,92.78 63.96,37.13 111.83,82.54 143.56,136.28 31.76,53.71 47.87,116.7 47.87,188.99 0,128.94 -49.34,235.4 -148.46,317.93 -116.23,97.18 -261.29,145.52 -434.66,145.52 -148.46,0 -277.87,-37.1 -388.26,-110.86l-40.04 78.63 -189.99 0 -175.81 -466.39 269.59 -113.79c67.39,104.99 150.92,187.06 249.57,247.11 98.65,60.08 189.46,89.87 272.5,89.87 51.28,0 94.25,-11.71 129.41,-35.66 26.86,-19.05 40.06,-41.5 40.06,-67.39 0,-21.98 -10.27,-42.5 -31.26,-62.52 -20.52,-20.02 -66.42,-42.47 -137.25,-67.39l-308.63 -107.43c-170.44,-59.58 -286.2,-123.57 -347.73,-191.46 -61.55,-68.36 -92.31,-148.96 -92.31,-242.24 0,-119.64 47.87,-220.25 144.06,-302.29 109.89,-93.28 245.17,-139.68 405.84,-139.68 143.09,0 265.19,31.76 367.27,95.72l37.1 -63.49zm995.8 -671c72.76,0 134.28,25.39 185.56,76.67 51.3,50.78 76.69,112.33 76.69,184.59 0,73.76 -25.39,135.78 -76.69,186.56 -51.28,51.28 -112.8,76.69 -185.56,76.69 -72.76,0 -134.31,-25.42 -185.59,-76.69 -51.28,-50.78 -76.67,-112.33 -76.67,-185.09 0,-71.29 26.36,-132.82 78.6,-185.09 52.74,-51.78 113.79,-77.64 183.65,-77.64zm232.93 638.77l0 1055.39c0,50.28 2.93,81.54 8.8,92.78 5.37,11.24 15.62,20.02 30.76,26.39 14.65,6.34 47.87,9.28 99.62,9.28l77.66 0 0 275.43 -884.94 0 0 -275.43 75.72 0c49.31,0 81.07,-2.44 94.72,-7.84 13.68,-5.37 23.95,-14.15 30.79,-26.36 6.34,-12.21 9.75,-37.13 9.75,-74.23l0 -679.81 -210.98 0 0 -269.59c75.23,-3.9 147.49,-11.71 216.85,-24.42 68.86,-12.21 130.88,-27.36 185.09,-44.44 35.16,-11.24 78.63,-30.29 130.41,-57.15l135.75 0zm1265.37 32.23l761.87 0 0 275.46c-63.99,0.97 -101.58,2.91 -111.83,5.84 -16.61,4.4 -33.22,16.11 -51.28,34.19 -17.58,18.08 -35.66,46.4 -53.74,84.5l-468.83 1027.03 -380.92 0 -487.88 -1059.29c-11.74,-23.42 -26.39,-43.94 -44.94,-61.02 -14.18,-13.21 -30.29,-21.98 -47.37,-25.42 -11.74,-3.9 -46.9,-5.84 -105.49,-5.84l0 -275.46 876.14 0 0 275.46 -45.43 0c-56.15,0 -90.81,4.37 -104.02,12.68 -18.55,11.74 -27.33,26.39 -27.33,44.44 0,14.18 6.34,36.63 18.55,67.42l221.22 549.4 231 -548.93c13.68,-31.73 20.05,-55.18 20.05,-70.33 0,-19.05 -9.77,-33.7 -29.79,-42.97 -15.64,-7.81 -49.81,-11.71 -102.55,-11.71l-67.42 0 0 -275.46z"/>
   <path class="fil27" d="M49831.91 12721.2c163.13,0 305.25,31.76 426.36,95.72 121.6,63.49 214.41,150.43 279.84,259.82 65.45,109.89 98.18,238.83 98.18,385.82 0,222.69 -72.29,403.4 -217.35,542.09 -145.03,138.69 -338.92,208.04 -581.16,208.04 -247.11,0 -443.44,-69.83 -589.46,-209.51 -141.15,-133.31 -211.95,-313.53 -211.95,-540.62 0,-148.96 32.23,-277.4 96.68,-384.83 64.48,-107.45 157.76,-193.89 279.84,-258.85 122.1,-64.95 261.78,-97.68 419.02,-97.68zm7.34 313.53c-54.68,0 -105.99,16.11 -153.83,48.37 -47.87,32.23 -84.97,79.6 -111.36,142.59 -26.36,62.52 -39.57,142.12 -39.57,239.3 0,99.62 12.71,182.16 38.6,247.61 25.89,65.45 62.02,114.27 107.43,145.52 45.43,31.26 95.24,46.9 149.95,46.9 84.47,0 156.77,-35.16 217.32,-105.99 60.05,-70.82 90.34,-180.69 90.34,-330.14 0,-144.06 -27.83,-252.48 -84,-325.24 -56.15,-72.76 -127.94,-108.92 -214.88,-108.92zm1983.27 -281.3l187.06 0 115.73 398.03 -269.56 108.89c-51.28,-82.04 -115.76,-146.49 -193.4,-193.4 -77.66,-46.87 -154.83,-70.33 -231,-70.33 -50.31,0 -87.91,8.31 -112.83,25.42 -24.92,16.58 -37.13,37.1 -37.13,60.55 0,19.52 8.8,38.1 26.39,54.68 17.58,17.11 54.21,35.16 109.39,53.74l392.66 140.15c69.83,24.42 136.25,55.68 200.23,92.78 63.96,37.13 111.83,82.54 143.56,136.28 31.76,53.71 47.87,116.7 47.87,188.99 0,128.94 -49.34,235.4 -148.46,317.93 -116.23,97.18 -261.29,145.52 -434.66,145.52 -148.46,0 -277.87,-37.1 -388.26,-110.86l-40.04 78.63 -189.99 0 -175.81 -466.39 269.59 -113.79c67.39,104.99 150.92,187.06 249.57,247.11 98.65,60.08 189.46,89.87 272.5,89.87 51.28,0 94.25,-11.71 129.41,-35.66 26.86,-19.05 40.06,-41.5 40.06,-67.39 0,-21.98 -10.27,-42.5 -31.26,-62.52 -20.52,-20.02 -66.42,-42.47 -137.25,-67.39l-308.63 -107.43c-170.44,-59.58 -286.2,-123.57 -347.73,-191.46 -61.55,-68.36 -92.31,-148.96 -92.31,-242.24 0,-119.64 47.87,-220.25 144.06,-302.29 109.89,-93.28 245.17,-139.68 405.84,-139.68 143.09,0 265.19,31.76 367.27,95.72l37.1 -63.49zm3033.29 -673.94l0 1659.97c0,65.45 2.93,104.99 8.31,119.17 5.87,13.68 15.64,23.92 28.82,30.76 13.68,6.37 49.81,9.77 107.93,9.77l65.92 0 0 281.3 -618.26 20.52 0 -148.96c-89.37,60.55 -168.01,102.08 -235.9,125.51 -67.39,23.45 -135.28,35.16 -202.67,35.16 -109.89,0 -210.48,-29.79 -302.79,-88.88 -91.81,-59.58 -167.04,-147.99 -225.62,-264.69 -58.61,-116.73 -87.91,-246.64 -87.91,-389.26 0,-144.56 29.79,-275.43 89.37,-393.13 59.56,-117.2 137.72,-205.61 233.43,-265.66 95.72,-60.08 203.17,-89.87 321.34,-89.87 61.05,0 119.66,7.34 175.34,21.98 56.15,14.65 117.7,40.53 185.56,77.64l0 -342.82 -210.98 0 0 -275.43c118.7,-11.74 214.88,-26.39 289.14,-43.97 73.73,-18.05 153.83,-44.44 239.77,-79.1l139.18 0zm-457.12 1686.82l0 -474.2c0,-59.08 -4.37,-101.09 -12.68,-125.51 -11.74,-35.16 -37.6,-65.92 -78.13,-92.31 -40.53,-26.36 -85.97,-39.57 -135.28,-39.57 -51.78,0 -99.65,15.14 -143.59,45.91 -43.97,30.79 -78.63,77.66 -104.52,140.65 -25.89,63.49 -38.57,142.12 -38.57,236.87 0,130.88 29.29,235.9 87.41,315.5 44.94,62.02 104.52,93.28 179.22,93.28 32.26,0 63.49,-5.37 92.81,-16.11 29.79,-11.24 81.07,-39.07 153.33,-84.5zm2145.94 -115.23l195.83 196.8c-112.33,127.94 -227.09,221.22 -343.82,278.37 -116.73,57.62 -243.21,86.44 -378.49,86.44 -217.32,0 -400.47,-73.26 -548.93,-220.25 -148.96,-146.99 -223.19,-324.27 -223.19,-532.82 0,-136.75 33.2,-261.76 100.12,-375.55 66.89,-113.79 159.7,-202.67 277.87,-266.66 118.7,-63.99 252.51,-96.21 402.44,-96.21 95.72,0 182.65,13.68 260.79,41.5 78.13,27.36 146.99,66.92 205.61,118.2 58.61,50.81 105.99,112.83 141.62,185.59 36.13,72.76 60.55,147.96 73.76,225.62 5.84,39.07 8.78,100.62 8.78,185.09l-964.05 0c1.97,120.63 37.6,218.31 106.46,292.54 68.86,74.7 153.86,111.83 253.48,111.83 63.99,0 133.81,-19.05 209.01,-57.15 75.23,-38.57 149.46,-96.21 222.72,-173.35zm-284.74 -414.15c-6.84,-56.65 -20.52,-101.09 -41,-133.34 -20.52,-32.7 -48.37,-58.59 -83.03,-78.13 -35.16,-19.05 -71.29,-28.82 -109.89,-28.82 -40.04,0 -78.63,9.77 -116.23,29.79 -37.1,19.55 -66.89,46.4 -89.37,80.6 -22.45,33.7 -37.1,77.16 -43.94,129.91l483.48 0zm2407.19 -1051.95l450.78 0 599.24 1541.3c32.73,81.07 61.52,131.38 86.44,150.43 25.39,19.05 71.79,28.32 139.18,28.32l0 275.43 -943.53 0 0 -275.43 57.12 -1.47c52.27,0 88.9,-6.84 109.89,-21.01 21.01,-13.68 31.26,-30.76 31.26,-50.78 0,-17.08 -8.78,-52.25 -27.36,-105.99l-61.05 -181.19 -604.58 0 -74.73 201.7c-15.14,42.97 -22.95,70.82 -22.95,84.5 0,15.12 5.37,28.79 16.61,41.5 10.74,12.21 28.79,21.49 53.71,26.86 16.11,3.9 61.52,5.87 135.28,5.87l0 275.43 -773.58 0 0 -275.43c49.81,0 85.94,-4.4 108.89,-12.71 22.48,-8.78 41.53,-21.49 56.18,-38.57 14.65,-17.11 31.26,-49.34 49.31,-95.74l613.88 -1573.03zm-57.62 1075.38l395.57 0 -193.4 -545.99 -202.17 545.99zm2098.53 -539.16l0 189.99c83.01,-63.99 167.51,-111.36 252.95,-143.12 85.97,-31.23 173.38,-46.87 261.78,-46.87 56.65,0 110.36,8.31 162.64,24.92 51.75,16.58 95.22,38.57 129.91,64.95 35.16,26.86 66.89,62.99 95.22,108.42 92.81,-70.33 181.19,-121.13 266.16,-151.89 84.97,-30.76 170.94,-46.4 258.85,-46.4 76.2,0 145.52,13.68 207.54,41.5 62.05,27.36 112.33,64.95 150.92,111.86 38.57,47.37 63.49,98.65 75.2,153.83 7.34,34.19 11.24,84 11.24,149.93l0 590.93c0,48.84 3.41,80.1 10.74,94.25 6.84,14.18 19.05,25.42 35.66,32.73 12.21,5.87 46.38,8.8 102.55,8.8l62.02 0 0 275.43 -832.2 0 0 -275.43c62.02,0 100.62,-2.93 117.23,-9.28 16.11,-6.37 27.83,-16.14 35.63,-29.79 7.34,-14.18 11.24,-44.47 11.24,-90.84l0 -518.17c0,-60.08 -3.9,-99.62 -12.21,-119.17 -8.31,-19.52 -23.92,-36.13 -47.37,-50.31 -23.45,-13.68 -51.28,-20.52 -83.51,-20.52 -37.6,0 -77.66,8.31 -120.63,24.92 -42.97,16.61 -106.46,53.24 -190.46,109.39l0 558.2c0,55.21 3.9,89.87 11.21,104.02 7.84,14.18 21.01,25.42 40.06,32.73 11.71,4.9 49.31,7.81 112.8,8.8l0 275.43 -785.3 0 0 -275.43c65.45,-1 105.02,-4.4 119.66,-9.77 14.15,-5.87 25.39,-16.11 32.73,-31.26 7.81,-15.62 11.71,-49.81 11.71,-104.02l0 -487.88c0,-75.23 -6.84,-125.04 -20.02,-149.46 -21.01,-37.1 -58.12,-55.68 -111.86,-55.68 -26.86,0 -54.68,3.43 -84.47,9.77 -29.79,6.84 -58.61,17.11 -87.41,31.26 -15.14,7.81 -54.21,32.73 -117.23,74.23l-33.2 21.49 0 556.27c0,53.24 2.93,86.44 8.78,99.62 5.37,13.21 16.61,23.95 33.22,32.73 16.58,8.31 45.41,12.71 86.44,12.71l38.57 0 0 275.43 -835.11 0 0 -275.43 55.68 0c59.08,0 95.72,-2.93 110.36,-9.28 14.65,-6.37 25.89,-17.11 33.7,-32.73 7.34,-15.64 11.24,-49.81 11.24,-103.05l0 -640.27 -210.98 0 0 -275.43c174.85,-16.61 335.99,-57.62 483.97,-123.07l134.31 0zm2833.52 -641.71l0 773.58c79.13,-49.34 149.46,-83.53 210.98,-102.58 61.05,-19.52 123.07,-29.29 184.62,-29.29 162.14,0 295.95,59.08 401.91,176.78 122.6,136.75 184.12,319.4 184.12,547.49 0,231 -62.02,416.56 -185.59,556.74 -123.54,140.15 -273,210.48 -448.81,210.48 -71.29,0 -140.15,-11.71 -206.08,-35.63 -65.95,-23.95 -134.31,-63.02 -206.1,-118.2l-77.16 121.6 -315 0 0 -1702.47 -210.98 0 0 -275.43c188.99,-13.68 364.81,-54.71 526.95,-123.07l141.15 0zm0 1084.18l0 432.2c0,87.44 6.84,147.49 20.52,180.22 14.15,32.73 38.1,59.58 72.76,81.57 34.66,21.96 75.7,32.73 122.1,32.73 79.1,0 141.62,-32.26 188.5,-96.71 59.11,-80.57 88.41,-191.93 88.41,-334.05 0,-133.81 -25.39,-237.34 -75.7,-310.13 -41.03,-59.08 -94.75,-88.38 -161.17,-88.38 -37.1,0 -76.67,8.31 -119.17,25.39 -42.47,17.08 -87.91,42.97 -136.25,77.16zm1642.88 -1081.25c72.76,0 134.28,25.39 185.56,76.67 51.3,50.78 76.69,112.33 76.69,184.59 0,73.76 -25.39,135.78 -76.69,186.56 -51.28,51.28 -112.8,76.69 -185.56,76.69 -72.76,0 -134.31,-25.42 -185.59,-76.69 -51.28,-50.78 -76.67,-112.33 -76.67,-185.09 0,-71.29 26.36,-132.82 78.6,-185.09 52.74,-51.78 113.79,-77.64 183.65,-77.64zm232.93 638.77l0 1055.39c0,50.28 2.93,81.54 8.8,92.78 5.37,11.24 15.62,20.02 30.76,26.39 14.65,6.34 47.87,9.28 99.62,9.28l77.66 0 0 275.43 -884.94 0 0 -275.43 75.72 0c49.31,0 81.07,-2.44 94.72,-7.84 13.68,-5.37 23.95,-14.15 30.79,-26.36 6.34,-12.21 9.75,-37.13 9.75,-74.23l0 -679.81 -210.98 0 0 -269.59c75.23,-3.9 147.49,-11.71 216.85,-24.42 68.86,-12.21 130.88,-27.36 185.09,-44.44 35.16,-11.24 78.63,-30.29 130.41,-57.15l135.75 0zm1676.11 929.88l195.83 196.8c-112.33,127.94 -227.09,221.22 -343.82,278.37 -116.73,57.62 -243.21,86.44 -378.49,86.44 -217.32,0 -400.47,-73.26 -548.93,-220.25 -148.96,-146.99 -223.19,-324.27 -223.19,-532.82 0,-136.75 33.2,-261.76 100.12,-375.55 66.89,-113.79 159.7,-202.67 277.87,-266.66 118.7,-63.99 252.51,-96.21 402.44,-96.21 95.72,0 182.65,13.68 260.79,41.5 78.13,27.36 146.99,66.92 205.61,118.2 58.61,50.81 105.99,112.83 141.62,185.59 36.13,72.76 60.55,147.96 73.76,225.62 5.84,39.07 8.78,100.62 8.78,185.09l-964.05 0c1.97,120.63 37.6,218.31 106.46,292.54 68.86,74.7 153.86,111.83 253.48,111.83 63.99,0 133.81,-19.05 209.01,-57.15 75.23,-38.57 149.46,-96.21 222.72,-173.35zm-284.74 -414.15c-6.84,-56.65 -20.52,-101.09 -41,-133.34 -20.52,-32.7 -48.37,-58.59 -83.03,-78.13 -35.16,-19.05 -71.29,-28.82 -109.89,-28.82 -40.04,0 -78.63,9.77 -116.23,29.79 -37.1,19.55 -66.89,46.4 -89.37,80.6 -22.45,33.7 -37.1,77.16 -43.94,129.91l483.48 0zm1321.54 -515.73l0 189.99c107.93,-73.26 200.71,-123.57 277.4,-149.93 77.16,-26.88 155.77,-40.06 236.37,-40.06 92.78,0 174.85,19.55 245.64,58.61 71.29,39.07 123.57,87.91 155.8,146.49 32.73,58.12 48.84,141.65 48.84,249.08l0 593.87c0,50.81 3.41,83.03 10.74,97.18 6.84,14.18 18.05,24.92 33.7,31.26 11.24,4.9 45.41,7.34 102.55,7.34l69.83 0 0 275.43 -838.04 0 0 -275.43c63.02,-1 98.65,-2.44 105.99,-4.4 23.92,-6.34 39.07,-17.58 46.87,-32.73 7.34,-15.14 11.24,-47.84 11.24,-98.15l0 -522.07c0,-67.39 -7.34,-110.86 -21.49,-130.88 -22.95,-33.22 -59.11,-49.84 -108.92,-49.84 -41,0 -84.97,8.8 -131.85,26.88 -46.9,18.05 -109.89,55.18 -188.99,111.33l0 564.57c0,61.52 6.84,99.62 20.49,113.79 13.21,14.15 45.91,21.49 97.21,21.49l46.38 0 0 275.43 -832.17 0 0 -275.43 41.5 0c65.45,0 105.99,-2.93 121.6,-8.31 15.62,-5.87 27.83,-16.11 35.66,-30.29 8.31,-14.15 12.21,-42 12.21,-84l0 -662.72 -210.98 0 0 -275.43c170.91,-21.49 331.11,-62.52 480.07,-123.07l132.35 0zm2004.76 -457.12l0 489.35 460.05 0 0 304.75 -460.05 0 0 497.65c0,112.33 5.87,184.59 18.08,216.35 11.71,32.23 33.7,57.62 66.42,76.67 42.47,25.89 91.81,38.6 146.99,38.6 98.15,0 195.83,-31.76 293.02,-95.74l0 306.22c-83.01,39.07 -158.23,66.42 -225.13,82.54 -67.39,15.62 -140.18,23.45 -218.31,23.45 -88.88,0 -167.51,-11.24 -235.4,-33.7 -68.36,-22.48 -126.48,-54.21 -174.82,-95.74 -47.87,-41.5 -81.57,-85.44 -100.12,-132.35 -18.58,-46.87 -27.85,-114.27 -27.85,-203.17l0 -680.78 -210.98 0 0 -275.43c76.2,-24.92 141.15,-60.08 195.36,-105.99 53.71,-46.4 97.18,-101.58 130.38,-166.04 32.73,-64.95 55.18,-146.99 67.39,-246.64l274.96 0zm1998.92 1387l195.83 196.8c-112.33,127.94 -227.09,221.22 -343.82,278.37 -116.73,57.62 -243.21,86.44 -378.49,86.44 -217.32,0 -400.47,-73.26 -548.93,-220.25 -148.96,-146.99 -223.19,-324.27 -223.19,-532.82 0,-136.75 33.2,-261.76 100.12,-375.55 66.89,-113.79 159.7,-202.67 277.87,-266.66 118.7,-63.99 252.51,-96.21 402.44,-96.21 95.72,0 182.65,13.68 260.79,41.5 78.13,27.36 146.99,66.92 205.61,118.2 58.61,50.81 105.99,112.83 141.62,185.59 36.13,72.76 60.55,147.96 73.76,225.62 5.84,39.07 8.78,100.62 8.78,185.09l-964.05 0c1.97,120.63 37.6,218.31 106.46,292.54 68.86,74.7 153.86,111.83 253.48,111.83 63.99,0 133.81,-19.05 209.01,-57.15 75.23,-38.57 149.46,-96.21 222.72,-173.35zm-284.74 -414.15c-6.84,-56.65 -20.52,-101.09 -41,-133.34 -20.52,-32.7 -48.37,-58.59 -83.03,-78.13 -35.16,-19.05 -71.29,-28.82 -109.89,-28.82 -40.04,0 -78.63,9.77 -116.23,29.79 -37.1,19.55 -66.89,46.4 -89.37,80.6 -22.45,33.7 -37.1,77.16 -43.94,129.91l483.48 0zm1657.53 -483.5l187.06 0 115.73 398.03 -269.56 108.89c-51.28,-82.04 -115.76,-146.49 -193.4,-193.4 -77.66,-46.87 -154.83,-70.33 -231,-70.33 -50.31,0 -87.91,8.31 -112.83,25.42 -24.92,16.58 -37.13,37.1 -37.13,60.55 0,19.52 8.8,38.1 26.39,54.68 17.58,17.11 54.21,35.16 109.39,53.74l392.66 140.15c69.83,24.42 136.25,55.68 200.23,92.78 63.96,37.13 111.83,82.54 143.56,136.28 31.76,53.71 47.87,116.7 47.87,188.99 0,128.94 -49.34,235.4 -148.46,317.93 -116.23,97.18 -261.29,145.52 -434.66,145.52 -148.46,0 -277.87,-37.1 -388.26,-110.86l-40.04 78.63 -189.99 0 -175.81 -466.39 269.59 -113.79c67.39,104.99 150.92,187.06 249.57,247.11 98.65,60.08 189.46,89.87 272.5,89.87 51.28,0 94.25,-11.71 129.41,-35.66 26.86,-19.05 40.06,-41.5 40.06,-67.39 0,-21.98 -10.27,-42.5 -31.26,-62.52 -20.52,-20.02 -66.42,-42.47 -137.25,-67.39l-308.63 -107.43c-170.44,-59.58 -286.2,-123.57 -347.73,-191.46 -61.55,-68.36 -92.31,-148.96 -92.31,-242.24 0,-119.64 47.87,-220.25 144.06,-302.29 109.89,-93.28 245.17,-139.68 405.84,-139.68 143.09,0 265.19,31.76 367.27,95.72l37.1 -63.49z"/>
  </g>
 </g>
</svg>
