<?xml version="1.0" encoding="UTF-8"?>
<!DOCTYPE svg PUBLIC "-//W3C//DTD SVG 1.1//EN" "http://www.w3.org/Graphics/SVG/1.1/DTD/svg11.dtd">
<!-- Creator: CorelDRAW 2020 (64 Bit) -->
<svg xmlns="http://www.w3.org/2000/svg" xml:space="preserve" width="245.631mm" height="70.0001mm" version="1.1" style="shape-rendering:geometricPrecision; text-rendering:geometricPrecision; image-rendering:optimizeQuality; fill-rule:evenodd; clip-rule:evenodd"
viewBox="0 0 30924.11 8812.78"
 xmlns:xlink="http://www.w3.org/1999/xlink"
 xmlns:xodm="http://www.corel.com/coreldraw/odm/2003">
 <defs>
  <style type="text/css">
   <![CDATA[
    .fil7 {fill:#023155}
    .fil17 {fill:#043A68}
    .fil21 {fill:#1169B5}
    .fil3 {fill:#1886EF}
    .fil6 {fill:#2E4905}
    .fil16 {fill:#48710B}
    .fil18 {fill:#558D0D}
    .fil14 {fill:#564704}
    .fil9 {fill:#570C01}
    .fil12 {fill:#685609}
    .fil19 {fill:#6D1102}
    .fil2 {fill:#75BB17}
    .fil10 {fill:#86BCED}
    .fil24 {fill:#8A730C}
    .fil22 {fill:#8F1502}
    .fil26 {fill:#A6961B}
    .fil13 {fill:#A7CD66}
    .fil25 {fill:#AF1A01}
    .fil8 {fill:#B2D479}
    .fil23 {fill:#CA2307}
    .fil5 {fill:#EECC25}
    .fil20 {fill:#EEDB75}
    .fil4 {fill:#F1401B}
    .fil15 {fill:#F1836A}
    .fil11 {fill:#F49783}
    .fil27 {fill:whitesmoke}
    .fil28 {fill:#373435;fill-rule:nonzero}
    .fil0 {fill:#4967AF;fill-opacity:0.501961}
    .fil1 {fill:#4967AF;fill-rule:nonzero;fill-opacity:0.501961}
   ]]>
  </style>
 </defs>
 <g id="Camada_x0020_1">
  <metadata id="CorelCorpID_0Corel-Layer"/>
  <g id="_1869430894160">
   <g>
    <path class="fil0" d="M5652.31 3.05c292.24,-92.21 -1012.26,1943.73 -1178.66,2100.98 -256.96,240.06 -568.46,558.06 -900.74,689.55 1.86,-98.72 456.46,-366.94 534.34,-435.28 537.59,-481.32 630.88,-791.6 879.69,-1342.52 80.22,-170.44 191.16,-330.5 288.35,-491.56 36.93,-60.83 288.44,-542.59 377.01,-521.16z"/>
    <path class="fil0" d="M5533.77 352.88c188.2,-51.54 -1231.66,1963.42 -1464.85,2156.94 -199.58,163.9 -408.6,317.13 -626.84,455.31 -95.13,60 -200.21,136.52 -309.61,168.54 0.96,-53.73 248.03,-176.14 287.72,-203.03 88.29,-59.64 175.64,-120.87 260.17,-185.76 578.67,-453.67 704.92,-780.6 1008.55,-1322.52 103.24,-177.89 237.77,-342.41 359.31,-507.96 47.36,-64.3 391.82,-593.97 485.55,-561.51z"/>
    <path class="fil0" d="M5429.77 410.07c-12.99,927.44 -1438.9,1945.43 -2099.21,2379.06 -180.28,117.4 -366.15,226.15 -557.95,323.67 -103.95,52.44 -776.59,415.14 -870.65,314.89 186.91,-113.23 426.24,-158.52 624.59,-253.07 265.93,-129.12 521.36,-279.94 762.41,-451.1 524.02,-372.28 879.65,-846.55 1273.17,-1343.53 165.89,-208.23 336.24,-412.59 499.46,-623.01 33.45,-42.97 382.98,-422.96 368.2,-346.91z"/>
    <path class="fil0" d="M5226.02 796.38c-127.77,813.67 -1258.17,1618.75 -1870.72,2031.81 -323.55,216.73 -665.87,406.56 -1027.34,552.38 -260.49,103.86 -547.75,205.8 -830.25,221.06 -8.44,0.55 -46.72,6.86 -52.37,-3.31 15.67,-6.69 32.32,-11.22 48.72,-15.69 196.56,-55.58 395.66,-94.54 588.27,-164.76 434.8,-163.05 852.09,-390.23 1214.9,-681.32 346.01,-276.1 623.62,-629.8 920.18,-955.93 191.7,-209.59 387.91,-414.89 578.16,-625.9 47.07,-52.13 452.65,-424.71 430.47,-358.35z"/>
    <path class="fil0" d="M5028.19 907.54c-376.31,731.18 -1097.13,1324.32 -1769.59,1768.06 -515.53,337.32 -1086.98,617.94 -1697.2,728.94 -32.76,5.78 -65.63,11 -98.58,15.6 -67.13,9.63 -666.67,-10.64 -657.32,-15.06 216.63,-18.7 430.78,-0.88 647.25,-37.37 1.27,-0.2 2.58,-0.43 3.85,-0.64 634.31,-114.73 1223.53,-413.44 1723.59,-815.17 322.4,-256.83 622.48,-543.6 915.75,-832.73 218.12,-214.44 433.87,-430.42 645.21,-651.57 35.86,-37.45 431.51,-409.5 287.04,-160.07z"/>
    <path class="fil0" d="M4743.35 1311.2c-356.19,567.5 -912.51,1030.55 -1460.87,1402.07 -543.8,367.13 -1153.93,669.41 -1805.76,779.14 -132.38,22.17 -266.13,36.04 -400.36,38.71 -154.92,2.48 -310.18,-10.05 -461.8,-42.59 -30.56,-6.56 -295.27,-107.14 -285.04,-108.81 98.01,15.89 193.79,45.03 291.53,62.94 115.07,21.06 231.57,33.9 348.63,34.37 166.07,-0.33 331.5,-18.58 494.51,-49.8 653.18,-129.84 1202.16,-468.02 1713.92,-878.61 182.37,-144.88 361.56,-293.81 537.6,-446.3 241.28,-208.46 479.89,-419.05 714.59,-634.92 41.34,-38.02 489.22,-409.48 313.05,-156.19z"/>
    <path class="fil0" d="M4671.42 1227.2c-404.61,529.47 -927.62,973.42 -1485.66,1333.47 -529.71,339.49 -1123.69,620.23 -1752.94,703.41 -183.65,24.85 -369.91,31.88 -554.31,10.9 -76.77,-9.13 -152.95,-23.82 -227.45,-44.55 -38.6,-10.61 -276.37,-120.92 -228.31,-118.13 79.68,16.35 157.51,40.99 236.52,60.19 86.69,21.43 174.57,37.82 263.75,44.06 165.71,10.12 331.69,-0.79 495.53,-26.68 620.78,-99.37 1172.09,-411.14 1674.21,-775.93 273.56,-198.24 536.46,-411.2 791.15,-633.08 233.68,-203.03 462.27,-410.94 689.8,-620.81 200.04,-183.48 282.74,-163.8 97.7,67.14z"/>
    <path class="fil1" d="M4343.2 1628.85c-329.52,373.95 -717.01,697.2 -1131.07,973.41 -531.61,352.71 -1128.73,642.26 -1764.38,739.4 -268.6,41.09 -544.23,46.53 -810.74,-11.85 -68.99,-15.06 -136.99,-34.46 -203.41,-58.48 -60.9,-22.49 -461.08,-190.88 -432.09,-283.32 5.53,-5.59 17.13,0.09 23.2,2.38 154.66,83.14 296.76,181.88 466.38,234.51 51.13,15.26 102.98,27.96 155.37,38.15 259.4,50.18 525.66,39.29 784.4,-9.19 619.42,-119.85 1167.28,-459.37 1676.86,-816.31 131.78,-92.19 261.51,-187.31 389.37,-284.88 254.66,-194.13 503.96,-394.06 752.13,-596.37 223.71,-181.61 306.11,-158.06 93.97,72.55z"/>
    <path class="fil0" d="M2419.76 1416.74c-30.62,-154.95 421.89,78.84 450.03,100.69 68.61,55.58 123.98,126.56 149.73,211.93 14.35,48.68 18.13,99.69 12.39,150.06 -5.9,55.82 -23.49,109.54 -48.31,159.73 -35.15,70.96 -83.49,134.73 -144.93,184.97 -58.88,47.01 -127.28,80.13 -200.39,98.17 -22.91,5.61 -46.15,9.76 -69.6,12.48 -118.85,13.27 -239.34,-10.3 -348.94,-56.5 -69.65,-29.65 -161.88,-72.26 -208.23,-135.73 27.31,-12.38 187.64,97.86 219.31,110.17 32.42,12.59 65.66,23.2 99.6,30.86 98.38,21.28 201.81,22.85 298.61,-6.97 65,-20.17 125.19,-53.97 173.93,-101.72 45.8,-47.26 96.81,-122.98 81.57,-193.25 -9.88,-46.24 -42.18,-96.68 -59.41,-141.33 -1.33,-4.33 -2.83,-8.62 -4.37,-12.88 -6.36,-18.31 -12.49,-36.37 -21.92,-53.41 -22.46,-40.49 -56.29,-73.54 -90.91,-103.66 -2.22,-1.9 -4.46,-3.79 -6.7,-5.69 -34.72,-29.27 -300.6,-198.54 -281.47,-247.9z"/>
    <path class="fil0" d="M2634.12 1509.11c-21.25,-109.95 198.79,0.05 225.86,17.58 72.89,49.6 131.32,118.46 159.96,202.59 16.23,48.62 21.42,100.1 16.88,151.08 -4.34,56.89 -20.92,112.01 -45.05,163.54 -34.32,73.41 -82.56,139.62 -144.42,192.24 -59.98,49.64 -130.09,84.96 -205.29,104.9 -130.54,34.11 -268.16,20.95 -395.06,-21.65 -13.08,-4.46 -26.05,-9.24 -38.89,-14.31 -135.34,-53.47 -259.94,-139.38 -355.32,-249.55 -26.98,-31.35 -58.45,-67.63 -72.55,-107.33 20.17,-2.2 76.48,79.35 89.17,92.42 54.59,55.77 114.89,106.48 181.74,147.01 54.75,32.57 112.82,59.68 173.32,79.71 126.87,42.29 277.99,59.74 402.66,-0.06 95.28,-45.95 81.04,-99.79 109.71,-183.6 6.33,-22.21 14.93,-43.74 23.08,-65.32 11.49,-29.54 25.53,-57.93 36.25,-87.81 10.6,-29.67 17.92,-60.67 18.13,-92.31 0.52,-16.71 -1.06,-33.36 -4.66,-49.68 -1.2,-5.34 -2.54,-10.66 -4.07,-15.91 -13.85,-47.31 -40.56,-89.22 -70.67,-127.8 -14.35,-18.52 -113.26,-109.71 -100.79,-135.73z"/>
    <path class="fil0" d="M2660.37 1574.15c38.88,1.18 77.56,17.52 110.99,36.25 56.31,33.22 104.56,81.53 128.62,143.14 12.72,33.06 17.45,68.5 15.23,103.79 -1.96,42.93 -14.26,84.62 -32.09,123.52 -26.33,57.51 -63.11,109.88 -111.03,151.44 -45.41,38.21 -98.63,65.44 -155.87,80.94 -117.85,31.45 -242.77,13.07 -355.04,-30.56 -118.38,-46.18 -225.53,-120.65 -311.67,-213.91 -60.71,-66.3 -111.1,-142.49 -142.88,-226.84 -12.27,-32.9 -21.4,-67 -26.92,-101.69 -16.68,-120.82 4.9,-266.89 82.75,-365.33 2.24,-2.72 8.61,-11.96 13.18,-10.76 -1.03,5.2 -2.76,10.26 -4.51,15.26 -39.63,108.56 -77.94,211.31 -63.64,329.57 1.07,8.23 2.34,16.45 3.83,24.63 23.92,116.76 88.83,220.82 172.48,304.38 84.6,83.15 190.66,149.44 307.24,175.8 101.32,23.66 206.38,12.41 296.95,-40.11 33.55,-19.14 63.58,-43.7 88.49,-73.26 5.63,-7.14 10.98,-14.5 16.06,-22.03 17.54,-25.83 33.22,-52.61 45.98,-81.17 9.78,-22.09 17.42,-45.5 18.9,-69.75 1.15,-14.94 -0.39,-29.79 -4.36,-44.21 -1.59,-5.69 -3.49,-11.31 -5.64,-16.81 -12.26,-31.13 -30.23,-59.51 -49.31,-86.84 -7.18,-10.45 -91.39,-118.76 -37.74,-105.45z"/>
    <path class="fil0" d="M2827.14 1706.4c23.22,10.1 41.68,29.6 54.93,50.76 18.49,29.64 26.79,64.4 27.52,99.11 2.27,43.21 -7.93,86.13 -23.98,126.02 -24.06,59.91 -59.73,114.67 -107.23,158.66 -45.8,40.88 -100.23,70.3 -159.05,87.65 -121.1,35.33 -250.66,18.67 -367.45,-24.45 -122.86,-45.55 -234.53,-120.43 -324.91,-215.16 -89.94,-95.37 -159.89,-212.22 -184.05,-342.24 -10,-61.2 -10.42,-123.47 -0.99,-184.77 11.57,-74.17 37.47,-145.74 73.67,-211.38 15.04,-26.98 146.51,-236.55 192.58,-212.94 -48.17,80.47 -121.88,141.55 -166.71,226.35 -12.55,23.88 -23.67,48.57 -32.85,73.95 -34.03,96.12 -44.45,199.61 -24.5,299.95 27.48,120.75 97.15,227.68 189.16,309.5 93.68,81.18 205.45,128.93 328.31,142.04 83.92,10.49 172.44,10.41 253.86,-14.77 10.3,-3.21 20.56,-6.56 30.64,-10.37 35.11,-13.08 67.67,-31.56 95.92,-56.28 31.26,-28.26 55.95,-62.66 76.09,-99.52 3,-5.53 5.89,-11.12 8.65,-16.78 9.08,-18.8 16.76,-38.21 22.84,-58.19 5.51,-19.54 8.91,-39.54 10.46,-59.79 0.99,-14.72 -6.46,-92.16 27.08,-67.35z"/>
    <path class="fil0" d="M2797.41 1791.95c8.38,13.96 13.01,29.72 14.74,45.86 4.88,31.78 -2.29,64.36 -13.43,94.07 -17.8,47.12 -44.2,90.86 -80.57,125.98 -34.17,31.68 -75.1,54.43 -119.6,68 -99.65,30.06 -207.3,13.76 -303.05,-22.36 -107.4,-40.68 -204.58,-107.55 -282.95,-191.31 -74.03,-79.99 -133.12,-177.72 -152.01,-286.26 -16.58,-110.8 9.09,-222.06 63.19,-319.27 28.52,-50.67 64.21,-97.13 104.88,-138.62 39.24,-39.82 83.32,-74.96 130.59,-104.78 18.75,-11.75 188.59,-74.78 185.13,-69.23 -52.84,35.47 -113.19,58.96 -166.59,94.02 -31.47,20.75 -61.53,43.77 -88.98,69.63 -51.14,48.85 -95.47,105.26 -128.04,168.15 -45.99,89.64 -66.61,191.78 -45.03,291.21 23.69,95.08 85.66,176.66 160.17,238.35 78.55,63.34 172.63,107.26 270.62,130.53 60.95,15.04 125.73,22.42 187.89,10.4 12.2,-2.39 24.3,-5.25 36.17,-8.99 25.37,-7.96 49.1,-20.02 69.96,-36.56 25.33,-20.53 45.56,-46.37 62.46,-74.12 4,-6.61 7.82,-13.35 11.43,-20.17 5.88,-11.2 11.17,-22.71 17,-33.95 6.16,-13.35 12.44,-27.18 21.09,-39.15 8.8,-12.26 21.44,-18.17 34.04,-6.87 4.73,4.2 8.27,9.74 10.9,15.46z"/>
    <path class="fil0" d="M2771.67 1966.71c-11.34,33.94 -29.16,65.39 -52.57,92.46 -32.44,35.31 -73.37,61.06 -118.43,77.11 -101.52,36.06 -214.04,22.13 -313.76,-12.92 -111.96,-39.19 -213.71,-106.61 -296.15,-191.61 -79.64,-83.19 -142.94,-185.46 -164.89,-299.67 -19.8,-118.73 5.16,-238.74 61.21,-344.42 57.19,-106.52 142.68,-196.41 242.01,-264.7 19.98,-13.67 40.53,-26.53 61.63,-38.4 83.03,-46.51 175.44,-79.74 270.38,-89.83 9,-0.97 101.13,2.17 93.13,8.35 -28.63,7.73 -58.4,11.33 -87.49,16.95 -73.89,14.21 -146.34,35.53 -213.41,70.12 -35.31,18.53 -69.23,39.77 -101.42,63.33 -91.58,67.32 -170.6,154.41 -219.55,257.64 -45.26,96.12 -62.12,205.16 -32.56,308.45 30.98,95.42 100.19,173.12 177.5,234.55 79.29,61.34 170.05,109.81 265.98,139.17 4.56,1.42 9.15,2.74 13.72,4.07 70.84,20.53 145.99,33.59 219.2,18.02 24.39,-5.31 47.78,-13.96 69.8,-25.7 5.44,-2.91 10.8,-5.97 16.08,-9.14 28.15,-16.71 72.25,-65.42 106.53,-65.92 4.13,0 7.49,1.56 9.54,5.34 7.29,13.24 -1.33,34.48 -6.48,46.77z"/>
    <path class="fil0" d="M2717.82 1922.57c-11.56,25.96 -26.77,50.23 -46.34,70.92 -24.88,25.02 -55.29,43.09 -88.77,54.03 -83.15,26.93 -174.63,10.97 -254.42,-19.65 -95.76,-36.89 -182.17,-97.83 -251.15,-173.61 -61.71,-68.4 -112.34,-152 -126.24,-244.32 -11.7,-90.39 13.24,-180.89 59.02,-258.62 51.04,-85.27 125.37,-155.43 209.87,-207.09 41.11,-24.9 84.8,-45.47 130.42,-60.69 47.37,-15.55 97.38,-25.15 147.36,-25.05 6.67,-0.04 97.29,9 67.59,23.06 -19.84,4.65 -40.16,6.95 -60.34,9.49 -53.04,6.42 -105.61,14.63 -155.53,34.58 -35.89,14.82 -70.39,32.96 -102.97,54.07 -76.33,49.78 -143.81,116.34 -186.59,197.42 -35.63,68.35 -51.78,146.51 -33.06,222.3 20.76,72.59 73.47,135.3 128.6,184.73 64.72,56.84 140.9,101.79 222.51,129.57 34.43,11.82 70.19,20.43 106.56,23.29 25.17,1.96 50.61,2.1 75.55,-2.33 19.21,-3.5 37.74,-9.88 54.61,-19.78 14.87,-8.57 28.1,-19.49 40.36,-31.42 7.36,-7.21 14.49,-14.69 21.6,-22.15 34.51,-35.38 68.46,-21.29 53.56,30.68 -3.11,10.5 -7.29,20.77 -12.2,30.56z"/>
    <path class="fil1" d="M2614.2 2044.15c-9.42,5.43 -19.25,10.07 -29.31,14.11 -84.84,34.22 -181.92,20.62 -266.02,-8.66 -100.86,-35.14 -192.28,-96.59 -265.83,-173.72 -67.9,-72.04 -122.96,-160.54 -140.45,-259.15 -15.16,-99.17 8.91,-199.27 57.27,-286.18 52.25,-92.81 129.66,-170.24 218.38,-228.49 88.4,-57.55 189.45,-97.81 294.77,-108.9 15.88,-1.72 31.84,-2.74 47.8,-3.01 27.86,-0.3 216.22,16.14 206.46,69.07 -1.78,3.53 -5.89,3.75 -9.51,3.85 -71.67,-13.75 -136.22,-38.94 -210.95,-32.96 -8.33,0.77 -16.66,1.72 -24.93,2.9 -98.2,13.68 -191.87,53.49 -272.64,110.51 -78.96,56.19 -147.12,130.35 -187.59,219.06 -34.14,75.26 -45.74,159.46 -22.88,239.68 24.51,74.68 77.85,139.82 134.22,192.87 51.93,48.05 110.8,88.78 174.2,120.18 16.42,8.13 33.02,15.89 49.91,22.99 63.53,26.63 132.08,44.23 201.4,39.02 6.09,-0.5 12.19,-1.18 18.24,-2 20.47,-2.79 47.75,-11.56 68.2,-4.62 6.28,2.58 10.17,7.82 10.63,14.64 -0.1,26.55 -30.81,48.13 -51.38,58.81z"/>
    <path class="fil0" d="M190.17 8808.67c-262.53,21.91 757.19,-1604.63 836.92,-1698.67 119.09,-140.03 247.44,-272.21 387.38,-391.53 136.4,-115.49 284.29,-218.22 443.33,-300.06 132.96,-67.96 305.02,-152.91 459.11,-150.31 -20.11,58.66 -377.07,156.64 -438.95,190.49 -40.85,22.51 -80.89,46.53 -119.79,72.28 -253.57,171.41 -487.52,395.28 -651.5,655.56 -126.12,196.79 -60.8,370.77 -146.98,576.12 -79.04,181.27 -193.47,354.22 -299.33,520.61 -39.8,62.22 -365.36,580.77 -470.19,525.52z"/>
    <path class="fil0" d="M380.13 8460.6c-224.52,50.2 563.69,-1281.09 631.94,-1365.04 223.87,-275.32 485.52,-523.93 794.92,-700.93 10.08,-5.72 20.24,-11.37 30.42,-16.91 283.13,-152.83 704.12,-302.73 1028.16,-199.94 -60.28,69.48 -543.14,57.98 -657.91,97.39 -118.73,42.02 -232.69,96.86 -340.34,162.19 -473.07,294.91 -424.17,495.03 -613.52,890.39 -3.84,7.55 -7.59,15.17 -11.54,22.66 -97.77,180.33 -226.03,349.55 -342.6,517.96 -47.75,68.82 -414.11,637.29 -519.53,592.21z"/>
    <path class="fil0" d="M492.6 8404.44c40.5,-411.2 415.33,-867.94 664.87,-1169.19 218.1,-263.99 472.98,-502.97 774.57,-668.76 308.89,-167.06 656.63,-241.1 1005.75,-188.45 70.88,10.9 141.23,25.36 210.6,43.6 209.54,55.53 410.4,148.08 584.03,278.47 21.05,15.69 183.29,126.75 169.34,162.92 -68.15,-33.35 -128.07,-88.77 -190.77,-131.05 -110.31,-74.47 -227.09,-139.64 -351.71,-186.96 -138.96,-51.82 -284.14,-85.94 -431.23,-104.32 -332.18,-39.17 -668.95,39.22 -941.15,235.23 -252.8,186.69 -435.35,469.43 -620.66,718.39 -6.01,8.03 -12.12,16.01 -18.17,24.02 -156.44,202.27 -308.91,407.14 -461.31,612.46 -41.16,55.32 -414.04,443.82 -394.17,373.64z"/>
    <path class="fil0" d="M719.35 7997.46c42.68,-277.43 261.97,-558.24 428.4,-771.56 211.81,-273.78 465.89,-519.8 767.86,-692.19 314.74,-176.49 670.9,-256.34 1030.21,-207.34 239.17,33.82 471.91,106.77 683.04,224.94 49.11,27.62 96.89,57.7 143.13,89.9 68.44,47.65 556.8,417.71 501.76,525.49 -174.97,-129.27 -297.57,-320.58 -479.2,-448.26 -16.92,-11.75 -34.04,-23.23 -51.37,-34.37 -244.32,-156.1 -521.63,-249.12 -809.92,-276.94 -353.63,-30.92 -660.78,81.87 -926.59,308.21 -122.33,106.27 -238.5,220.16 -350.42,337.26 -110.34,114.82 -220.48,229.31 -325.47,349.11 -62.12,70.59 -122.9,142.36 -183.54,214.21 -49.41,58.45 -449.59,446.63 -427.9,381.52z"/>
    <path class="fil0" d="M920.04 7874.42c92.52,-191.45 212.44,-370.16 344.09,-536.71 201.45,-256.96 442.68,-489.05 729.17,-649.04 283.26,-155.86 602.35,-226.16 924.08,-179.33 268.1,40.39 524.76,135.5 747.25,291.61 145.7,102.24 273.9,226.88 387.18,363.82 40.27,48.9 78.51,99.52 115.16,151.2 27.46,38.73 265.03,460.98 255.81,456.26 -115.52,-126.12 -194.65,-286.84 -295.87,-424.26 -18.34,-24.9 -37.19,-49.5 -56.63,-73.56 -128.77,-157.71 -274.92,-301.94 -445.55,-414.11 -217.51,-141.63 -466.13,-221.35 -724.38,-241.29 -298.5,-19.16 -570.99,88.9 -815.13,253.03 -112.5,76.78 -218.22,163.23 -319,254.75 -123.73,112.02 -243.18,228.14 -357.5,349.79 -69.26,73.71 -136.64,149.12 -204.09,224.47 -36.79,41.11 -427.12,434 -284.59,173.36z"/>
    <path class="fil0" d="M1192.96 7459.97c23.48,-40.45 48.77,-79.84 75.08,-118.51 182.81,-274.06 425.52,-515.55 710.18,-682.84 288.14,-166.36 615.33,-242.62 946.88,-199.08 276.82,37.98 542.36,132.83 774.29,289.68 205.61,139.91 378.08,321.2 526.92,519.39 53.78,71.61 104.78,145.31 153.81,220.24 36.85,56.48 362.42,631.42 352.98,627.15 -142.69,-144.93 -232.35,-346.4 -344.31,-514.35 -67.47,-100.06 -137.34,-198.65 -212.4,-293.19 -149.39,-187.81 -320.99,-359.57 -526.74,-485.23 -227.75,-136.33 -484.25,-201.64 -748.39,-210.1 -293.47,-5.29 -573.66,96.01 -822.22,246.58 -1.06,0.64 -2.12,1.32 -3.16,1.98l-593.23 458.83c-40.39,36.94 -80.98,73.73 -122.43,109.48 -61.17,53.29 -299.34,232.85 -167.25,29.96z"/>
    <path class="fil0" d="M1267.33 7541.81c28.28,-39.62 57.62,-78.5 87.7,-116.76 191.59,-246.19 421.97,-468.54 696.66,-619.85 259.4,-140.77 550.81,-203.25 844.09,-156.91 246.77,40 481.89,130.69 684.51,278.14 182.93,133.11 333.26,304.12 462.04,489.06 84.07,120.75 159.79,247.16 232.02,375.29 46.87,83.48 231.75,490.67 224.03,483.76 -123.84,-145.03 -200.73,-325.27 -298.38,-487.57 -67.72,-111.08 -138.01,-220.77 -214.96,-325.72 -128.21,-174.35 -276.7,-335.41 -458.63,-454.68 -196.4,-127.12 -421.15,-193.29 -653.2,-213.09 -260.04,-18.52 -508.89,60.49 -733.06,188.18 -68.1,39.2 -133.78,82.58 -197.39,128.67 -172.76,124.93 -333.19,264.08 -487.64,410.86 -29.72,28.41 -59.21,57.11 -88.82,85.63 -192.04,185.11 -274.13,167.92 -98.98,-65.01z"/>
    <path class="fil1" d="M1551.36 7178.23c139.44,-158.67 301.09,-299.23 483.78,-406.04 264.46,-152.7 565.24,-221.87 869.22,-179.15 256.21,37.55 501.45,127.75 714.14,276.54 191.34,133.88 349.92,307.57 486.93,495.53 178.61,245.44 324,512.82 479.29,773.06 38.02,63.85 323.62,427.62 294.13,485.68 -7.14,4.48 -18.81,-5.61 -24.34,-9.52 -146.57,-132.53 -241.8,-314.48 -345.18,-480.03 -152.25,-241.34 -294.99,-490.28 -471.22,-715.42 -137.15,-174.72 -296.16,-333.42 -487.72,-447.95 -205.45,-120.37 -437.34,-181.12 -673.47,-201.26 -216.29,-15.86 -429.69,27.58 -628.17,113.19 -43.27,18.68 -86.03,38.59 -128.09,59.89 -170.85,86.96 -326.9,197 -479.52,312.31 -193.33,145.78 -272,119.61 -89.78,-76.83z"/>
    <path class="fil2" d="M3173.98 4564.61l-38.22 19.35c-17.92,7.05 -43.27,35.11 -46.67,58.42 -6.65,45.47 15.67,36.94 3.29,84.73l-14.62 5.29c-40.09,31.07 -100.3,11.32 -138.35,0.18 -86.42,-25.28 -200.94,-85.75 -285.8,-123.49 -8.98,-3.99 -43.12,-20.42 -49.41,-25.37 -13.99,3.26 -4.85,0.44 -15.46,5.48 -1.94,0.91 -8.17,4.99 -10.94,6.71 -7.72,4.82 -11.94,7.5 -19.49,9.78l-19.33 17.75c-7.35,5.26 -11.94,10.12 -17.92,14.98 -10.22,8.31 -26.48,18.07 -39.34,27.33l-77.02 60.18c-15.86,15.17 -89.02,82.27 -96.74,102.42 -7.39,19.21 -0.1,43.43 8.6,53.33 10.69,-1.66 16.95,8.03 35.23,12.55 44.14,10.93 145.95,-23.93 224.03,34.72 17.58,13.19 39.27,37.93 44.01,59.78 4.85,29.9 0.06,45.47 -13.85,63.23 -10.05,12.8 -27.08,30.57 -40.84,38.27 -103.03,57.66 -258.63,42.65 -297.29,-36.57 -9.61,-19.7 -21.16,-32.24 -44.09,-37.93 -67.57,-16.77 -127.45,26.01 -162.05,74.37 -19.22,26.88 -15.61,13.27 -43.22,56.49 -0.68,1.06 -2.68,4.15 -3.41,5.15 -12.85,17.58 -10.86,6.89 -22.74,30.95l-23.22 39.44c-13.22,19.4 -10.45,10.37 -20.84,36.8 -5.83,14.88 -7.69,15.4 -14.96,27.33l-6.33 10.45c-12.04,17.79 -14.77,19.68 -19.5,48.61l0.68 7.92c29.41,4.18 58.21,12.12 88.35,17.61 34.45,6.27 53,14.7 84.39,21.08 53.88,10.94 230.98,53.67 281.28,79.92 4.73,2.48 10.58,6.48 14.83,9.56l16.17 13.02c22.89,24.47 10.98,51.76 -13.45,67.48 -26.61,17.12 -48.02,-0.2 -83.39,-4.05 6.96,9.4 2.28,5.67 14.33,10.78l18.96 5.85c-5.54,1.3 -9.48,1.8 -13.41,3.24 -16.06,5.85 -5.31,2.61 -13.38,7.42 -9.06,5.39 1.64,0.23 -11.09,5.55 -0.94,0.4 -2.14,0.67 -3.1,1.07l-70.53 58.43c-6.58,8.17 -14.5,14 -16.82,24.8 -1.17,5.4 -0.42,10.34 -0.99,15.95 -3.07,30.14 4.07,-19.82 -0.94,7.68 -0.21,1.15 -0.6,2.27 -0.84,3.31 -6.94,31.21 2.93,2.48 1.42,34.14 -0.92,19.06 -2.42,1.12 -1.65,13.61 0.05,0.84 0.14,2.04 0.28,2.83 0.15,0.77 0.5,1.91 0.74,2.64 0.24,0.73 0.83,1.83 1.16,2.53l3.2 4.82c23.11,36.5 25.57,88.39 36.02,105.77 22.8,37.91 5.06,39.93 29.7,61.84 11.48,10.2 14.34,6.87 18.63,22.96l16.62 -4.14c-22.38,-27.17 -33,-26.73 -44.86,-66.25 -7.73,-25.8 -26.14,-63.11 -28.97,-90.17 21.53,8.72 32.08,30.73 82.24,48.58 34.47,12.27 76.13,7.72 113.74,11.73l28.89 -5.44c0.96,-1.02 2.47,-3.71 3.07,-2.81 0.62,0.91 3.06,-2.98 6.04,-5 0.54,-0.38 8.61,-4.9 8.81,-4.99 35.16,-16.44 73.62,-20.5 113,-81.92 39.36,-61.41 -12.88,-102.88 30.44,-136.32 9.88,-7.64 25.91,-17.9 35.99,-11.48 69.46,-10.35 58.57,-15.5 145.81,20.46 46.73,19.26 83.57,37.53 128.23,59.02 21.98,10.58 40.92,22.8 60.97,31.42 19.04,8.18 40.26,20.66 60.71,30.43 11.68,5.58 18.05,9.11 29.61,15.9 12.46,7.34 19.59,8.47 30.88,14.82 20.12,11.27 41.65,22.25 64.42,32 9.04,-11.41 25.42,-34.8 39.46,-38.55 7.16,-17.8 48.17,-49.3 64.96,-67.14l81.95 -80.84c0.64,-0.5 1.65,-1.21 2.28,-1.71 0.63,-0.5 1.64,-1.23 2.24,-1.74l43.77 -46.24c32.92,-40.56 86.13,-81.74 42.21,-124.35 -12.41,-12.05 -28.58,-13.45 -43.36,-27.82 -44.66,0 -9.29,-10.65 -43.09,-2.03 -22.64,5.78 -109.58,5.45 -134.11,-3.84l-34.39 -11.18c-0.94,-0.16 -2.15,-0.37 -3.08,-0.45 -0.96,-0.09 -2.34,-0.01 -3.22,-0.04l-6.77 0.88c-39.07,-7.3 -88.73,-66.85 -77.72,-119.34 8.51,-40.55 30.88,-63.29 66.08,-84.06 0.68,-0.39 16.93,-8.79 17.65,-8.93 40.3,-8.13 13.53,-4.56 20.02,7.21 16.57,-4.54 15.45,-9.44 36.26,-15.36 17.97,7.62 143.5,-30.52 228.59,62.67 11.48,12.58 15.11,23.62 30.22,31.9 36.01,19.74 62.77,14.01 107.42,13.7 12.75,13.33 29.93,46.24 38.71,65.04 0.42,0.87 0.94,1.94 1.35,2.82 0.4,0.89 0.93,1.94 1.32,2.85 13.31,30.67 2.34,33.19 14.57,41.27 -8.54,2.47 -22.76,10.03 -30.32,11.76 -14.31,3.27 -31.39,1.04 -46.43,0.98 3.58,8.54 -0.43,12.36 45.62,8.22 17.99,-1.64 26.58,-7.81 45.91,-8.25 2.57,-9.69 0.59,-6.32 0.01,-12.48l6.74 -10.52c8.88,-23.16 -9.38,-28.35 -23.1,-59.32 -18.12,-40.85 -10.64,-46.42 -36.06,-60.24l-5.48 -3.05c24.07,-21.18 44.33,-54.09 57.56,-82.69l53.59 -112.07c0.42,-0.91 0.91,-2 1.31,-2.91 0.42,-0.94 0.91,-2.03 1.33,-2.97l44.83 -105.43 1.06 -5.16 -284.31 -55c-78.9,-17.58 -214,-35.1 -222.25,-110.93 -7.21,-30.88 -25.71,-10.29 -22.64,-55.19 19.3,-14.4 23.87,-23.76 53.08,-29.18 54.83,-10.19 126.54,-54.31 97.88,-127.95 -4.57,10.17 4.77,1.46 -6.48,7.39 -28.75,-14.52 -64.11,-32.51 -100.02,-35.79 -82.34,-7.55 -87.84,7.83 -124.86,11.76z"/>
    <path class="fil3" d="M1514.2 4304.13c-15.25,6.58 -19.31,22.03 -32.28,39.85l-118.38 143.72c-0.53,0.69 -1.22,1.71 -1.75,2.4l-48.85 46.85c-23.09,17.47 -108.93,38.08 -124.15,-5.88 -8.46,-24.45 3.34,-9.87 -16.61,-25.27l-4.38 -3.22c-7.97,-7.18 1.2,-5.17 -14.5,-14.78 -71.46,-43.67 -216.61,-31.22 -264.71,3.4 -19.8,14.25 -38.9,24.71 -54.82,45.05 -0.54,0.68 -1.27,1.65 -1.8,2.35l-11.65 17.5c-3,6.09 -3.92,9.06 -5.59,15.55 -8.33,32.43 8.62,36.96 13.03,66.86 4.26,28.86 -0.57,16.38 7.33,42.91 2.38,7.94 0.09,-0.93 1.18,4.28 1.2,5.64 3.66,22.35 0.03,31.94l-2.81 5.4c-0.29,0.58 -1.26,1.71 -1.61,2.69 15.21,-6.28 29.77,15.94 33.29,29.12l14.97 0c-7.38,-11.33 1.54,1.72 -6.48,-7.96 -0.82,-0.99 -3.27,-3.83 -4.09,-4.82 -11.08,-13.51 -19.78,-24.79 -22.52,-41.5 -2.83,-17.37 -10.65,-54.84 -7.98,-64.3 14.57,1.45 8.95,24.11 105.17,40.87 41.46,1.06 76.96,-7.42 112.54,-6.22 86.97,2.93 56.05,86.21 -1.44,106.62 -32.62,11.57 -69.1,10.07 -102.79,3.17 7.94,8.98 -2.79,4.1 20.03,8.7 20.5,4.13 38.22,-1.28 67.33,-1.28l-7.49 4.97c-0.62,0.45 -1.76,1.22 -2.45,1.72l-210.47 151.47c-17.03,12.35 -10.52,3.66 -37.32,25.1 -26.27,21.04 -35.15,0.2 -21.84,72.24l6.31 40.54c1.78,20.94 -1.16,24.5 17.51,28.45 -5.87,-22.85 -20.52,-94.94 -18.85,-116.5l92.02 58.04c50.59,29.67 76.82,48.77 137.61,74.86l43.43 18.83c21.11,10.65 15.76,13.13 43.72,16.32 25.63,-1.41 34.14,7.68 57.41,9.57 39.25,3.2 81.14,-2.03 102.59,-33.94 14.93,-22.2 2.06,-24.7 3.5,-51.4 3.49,-64.69 79.3,-105.43 136.12,-120.81 171.02,-46.34 329.77,55.36 219.85,170.14 -15.41,16.09 -1.9,8.45 -20.8,12.34 -14.24,-7.72 -7.5,4.47 -36.2,13.74 -29.2,9.42 -18.93,12.59 -36.46,17.65 -20.92,6.01 -0.19,-4.62 -42.38,11.7 -51.63,19.95 -64.41,47.93 -42.88,100.21l9.08 30.95c6.31,20.13 7.39,19.69 7.39,46.29l11.22 0c-3.97,-21.57 -16.29,-70.98 -15.3,-86.83 50.18,40 161.08,65.08 223.77,79.81 74.68,17.55 174.97,41.21 253.87,47.99 -1.84,-32.91 -21.08,-59.44 -5.38,-66.27 4.73,-28.93 7.47,-30.82 19.5,-48.61l6.33 -10.45c7.26,-11.94 9.13,-12.45 14.96,-27.33 10.39,-26.43 7.62,-17.4 20.84,-36.8l23.22 -39.44c11.87,-24.06 9.88,-13.37 22.74,-30.95 0.73,-0.99 2.73,-4.09 3.41,-5.15 27.61,-43.22 24,-29.61 43.22,-56.49 34.61,-48.36 94.49,-91.14 162.05,-74.37 22.93,5.69 34.48,18.23 44.09,37.93 38.66,79.23 194.26,94.23 297.29,36.57 13.76,-7.7 30.79,-25.47 40.84,-38.27 13.91,-17.75 18.7,-33.32 13.85,-63.23 -24.31,-6.16 -19.48,-17.37 -71.11,-32.07 -31.29,-8.9 -56.53,-11.42 -94.44,-9.52 -95.23,4.8 -104.05,24.06 -137.73,-65.47 -8.7,-9.9 -15.99,-34.12 -8.6,-53.33 7.72,-20.14 80.88,-87.25 96.74,-102.42l77.02 -60.18c12.87,-9.27 29.12,-19.02 39.34,-27.33 5.98,-4.86 10.56,-9.72 17.92,-14.98l19.33 -17.75c-7.99,-10.83 -26.87,-17.55 -41.86,-24.74 -17.27,-8.27 -23.25,-13.41 -43.74,-22.4 -17.59,-7.73 -32.7,-13.57 -49.79,-21.35 -17.7,-8.06 -27.95,-13.66 -46.19,-20.4 -65.42,-24.15 -134.07,-60.07 -214.5,-32.86 -11.42,10.83 -24.83,8.71 -27.65,29.71 -2.66,19.8 5.07,29.65 -0.14,53.04 -5.64,25.27 -33.56,51.1 -53.07,59.85 -9.34,10.78 -24.68,19.11 -43.46,22.38 -37.53,24.35 -114.25,19.65 -159.84,7.13 -23.93,-6.6 -44.08,-12.95 -60.69,-29.49 -17.65,-17.59 -27.99,-30.2 -32.56,-60.46 -5.02,-23.92 -26.75,-22.43 -12.75,-69.57 19.98,-67.24 113.18,-77.77 171.51,-104.31l-0.39 -15.93c-30.48,-10.05 -65.37,-24.37 -96.56,-31.64 -83.72,-19.5 -234.52,-50.36 -319.14,-57.87 -7.38,14.86 -2.58,12.84 -13.29,17.34z"/>
    <path class="fil4" d="M2574.88 4209.32c52.75,26.69 63.68,42.7 145.96,41.73 51.33,-0.6 129.86,-25.72 130.88,45.02l-22.57 -3.73 23.48 9.96c-10.5,21.84 -26.82,37.58 -44.33,53.59l-198.19 155.26c-9.73,5.97 -34.89,15.22 -25.71,26.72l119.8 59.13c23.86,12.46 40.43,18.37 61.95,29.38 18.75,9.61 45.21,25.14 70.36,26.31 25.2,-0.19 34.33,10.35 56.3,18.28 19.74,7.11 37.79,13.7 56.96,18.59 46.08,11.78 95.04,3.1 116.42,-30.4 1.08,-21.89 -10.24,-30.49 -9.77,-54.22 0.99,-50.32 67.98,-93.6 105.22,-89.95 50.82,-0.79 126.3,-25.76 200.01,23.68 17.63,11.82 31.71,17.83 43.69,42.58 28.65,73.64 -43.06,117.76 -97.88,127.95 -29.21,5.43 -33.78,14.78 -53.08,29.18 -3.07,44.91 15.42,24.31 22.64,55.19 91.9,47.05 246.97,72.86 352.33,92.04 26.48,4.82 116.08,14.94 129.99,21.78 1.06,-15.59 2.72,-44.15 11.51,-54.48 7.76,-36.12 90.03,-250.36 150.57,-241.19l13.41 -0.81c108.64,-24.11 85.74,30.58 156.51,67.08 65.34,33.7 118.53,38.73 199.58,23.38 0.84,-0.34 10.22,-3.78 10.32,-3.83 8.98,-4.9 6.7,-3.63 9.06,-7.09 4.33,-11.75 -0.38,-3.9 9.9,-12.69 3.39,-2.91 9.96,-6.74 14.72,-10.93 6.38,-5.6 17.99,-17.13 23.49,-25.24 19.38,-28.49 8.57,-48.18 1.52,-78.14l4.99 -12.2c-15.67,-10.2 -23.32,-24.74 -38.95,-32.9 -11.75,-6.13 -15.81,-4.2 -28.29,-9.32 -11.72,-4.8 -13.13,-10.76 -29.3,-3.84 -94.76,-23.88 -103.65,-3.75 -157.99,-9.08 -37.34,-3.66 -97.54,-34.67 -68.4,-79.65 12.15,-18.73 23.96,-33.69 37.77,-49.65l30.72 -31.75c6.37,-6.89 2.34,-3.34 10.66,-10.73 0.92,-0.82 5.98,-4.94 6.89,-5.7 0.63,-0.53 1.57,-1.32 2.2,-1.86l83.53 -65.35c7.19,-9.72 3.13,-5.06 12.01,-13.68 1.49,-1.44 7.59,-6.5 9.1,-7.58 11.28,-8.11 13.91,-6.31 22.42,-16.18 -12.54,-8.79 -11.87,-4.18 -22.18,-16.63 -1.93,-5.99 -3.93,-7.34 -19.43,-13.74 -44.21,-18.26 -121.38,-54.65 -167.25,-70.05 -76.46,-25.65 -217.39,-85.51 -279.31,-20.22 0.86,10.29 1.5,12.4 3.49,21.53l3.88 13.04c12.31,36.36 -3.39,53.86 -28.93,72.82 -8.88,6.6 -24.51,14.16 -36.08,18 -47.7,15.89 -89.45,17.64 -137.61,7.43 -15.9,-3.37 -30.53,-9.66 -46.05,-3.88 -27.9,-6.81 -65.68,-32.63 -72.77,-62.44 -12.5,-52.55 17.3,-64.38 40.98,-84.19 11.54,10.92 2.39,1.11 6.12,13.81 10.74,36.74 33.75,59.69 37.1,80.9l13.53 -2.13c18.14,6.08 3.17,5.25 19.05,-1.15 0.26,-0.11 7.39,-4.05 8.35,-4.8 9.73,-7.45 2.92,0.65 10.05,-10.7l-37.44 9.18c-6.48,-40.29 -19.88,-27.76 -39.52,-79.92 20.24,-16.67 41.14,-27.36 77.85,-25.97 7.94,33.31 10.99,27.42 23.52,47.68 17.7,28.65 21.43,29.38 17.29,40.7l4.09 0c6.95,-11.86 -5.09,-1.89 8.44,-12.49 -7.52,-13.13 -16.35,-31.73 -26.54,-48.24 -31.1,-50.36 -13.91,-24.58 -35.14,-38.23 67.1,-41.6 -60.59,-74.85 -68.78,-79.25l-6.95 -4.85c-3.75,-7.54 -20.04,-9.64 -30.19,-11.39l-209.95 -39.73c-11.8,-2.28 -30.04,-2.17 -44.55,-5.38 -17.26,-3.83 -24.11,-8.69 -44.01,-2.63l-15.1 -1.15 -46.76 94.78c-3.73,6.57 -4.08,6.14 -8.27,12.1l-46.03 70.19c-13.35,15.12 -18.39,23.23 -32.97,37.87 -42.54,42.75 -123.11,43.02 -148.84,6.17 -55.53,-79.5 -217.85,-83.02 -306.53,-11.94 -0.64,0.5 -1.67,1.21 -2.28,1.75 -11.47,10.15 -17.68,35.31 -16.37,53.09 0.89,12.14 12.54,40.84 19.65,45.39z"/>
    <path class="fil5" d="M1912.45 3910.29l-9.61 -29.18c23.44,4.34 23.59,18.22 84.89,12.36 72.05,-6.89 197.17,1.49 171.04,100.93l-24.68 -6.13c5.95,10.05 -0.06,6.38 12.48,9.39l0 8.31c-25.13,9.11 -32.42,54.15 -154.02,54.2 -48.53,0.03 -89.85,-7.34 -122.01,-36.16 -14.24,-12.78 -19.06,-12.27 -15.2,-30.52 -29.96,-6.97 -42.78,-31.76 -104,-12.48 -12.95,4.08 -4.1,2.01 -15.04,5.75 -23.22,7.96 -21.59,6.31 -48.63,26.26l-45.83 45.71c-3.21,3.76 -2.29,2.96 -5.46,7l-56.82 68.01c-0.5,0.73 -1.18,1.74 -1.66,2.49 -0.49,0.76 -1.08,1.83 -1.56,2.59l-48.37 68.14c-26.25,38.25 -18.34,30.19 -8.65,64.85 8.15,29.13 -2.53,5.54 -5.12,32.31 10.71,-4.49 5.92,-2.48 13.29,-17.34 3.83,-19.04 -2.69,-28.31 -6.43,-45.91 24.89,-2.05 314.1,60 367.95,76.89 20.62,6.47 61.73,19.43 66.03,47.2 2.53,16.37 -3.98,17.12 -11.46,27.27 -58.33,26.54 -151.53,37.06 -171.51,104.31 -14,47.14 7.73,45.65 12.75,69.57 13.74,7.5 14.74,14.57 34.92,24.73 14.06,7.08 31,14.3 44.69,17.05 43.82,8.76 70.58,4.02 111.58,4.71l0 -5.79 -0.47 0.38c31.22,-3.21 68.93,-19.56 92.75,-39.49l4.56 -3.81c0.62,-0.49 5.9,-4.56 6.85,-5.29 45.54,-35.34 22.69,-63.05 28.54,-94.33 4.29,-22.89 34.82,-38.95 60.63,-37.71 48.31,2.87 50.94,-7.4 119.77,19.95 35.18,13.99 67.95,26.82 103.24,41.9 66.13,28.24 132.1,64.21 202.88,91.04l-5.28 -20.09 -5.09 -21.47c-9.18,-11.49 15.98,-20.75 25.71,-26.72l198.19 -155.26c17.51,-16.01 33.83,-31.75 44.33,-53.59l-23.48 -9.96c-43.14,-9.08 -100.39,6.87 -157.67,-3.9 -37.55,-7.08 -86.53,-35.31 -96.6,-79.13 -7.11,-4.54 -18.76,-33.25 -19.65,-45.39 -1.31,-17.78 4.9,-42.94 16.37,-53.09 0.6,-0.54 1.64,-1.25 2.28,-1.75 88.68,-71.08 251,-67.57 306.53,11.94 25.72,36.85 106.29,36.59 148.84,-6.17 14.58,-14.64 19.63,-22.75 32.97,-37.87l46.03 -70.19c4.19,-5.95 4.54,-5.53 8.27,-12.1l46.76 -94.78 15.1 1.15c-3.79,-4.29 3.16,-7.43 -24.97,-7.43 -0.67,30.48 -5.51,3.39 -12.48,33.29 -23.25,0 -157.9,-25.31 -181.42,-30.76 -23.27,-5.4 -46.03,-5.38 -59.89,-15.01l-33.27 0c9.82,-13.42 18.22,-15.67 33.27,-12.48l-8.3 -8.33 12.01 -16.63c-21.69,-59.4 -18.81,-71.53 -52.03,-72.92 11.95,-8.49 10.58,-10.12 19.02,-18.68 36.3,-36.7 29.55,-41.8 16.83,-83.14 6.07,-11.17 5.95,-4.54 -9.79,-14.87 -26.77,-17.58 -66.12,-27.86 -106.57,-30.9l-50.3 0c-30.47,2.34 -58.74,9.05 -79.5,20.13 -81.91,43.7 -51.91,49.28 -57.56,117.17 -18.66,1.54 -49.97,25.48 -119.06,2.56l-262.87 -103.24c-50.94,-23.42 -53.76,-5.73 -74.54,6.14l-132.37 79.82c-5.48,4.83 -5.24,5.68 -6.03,6.45l-6.63 5.87c-0.74,0.49 -1.83,1.08 -2.61,1.54 -36.7,21.58 -82.53,69.41 -90.67,71.58 0,30.11 -1.31,34.07 7.4,57.89l5.72 12.8c9.73,11.13 0.05,1.25 10.69,8.36z"/>
    <path class="fil6" d="M2653.06 5604.86l1.94 0.72c1.74,26.49 7.67,21.05 15.62,44.35l6.67 18.18c7.97,15.5 17.99,43.12 19.77,62.58l12.3 -0.45c31.49,1.26 46.57,-5.29 81.25,2.71 15.45,3.56 50.45,13.72 62.04,24.56 -1.49,17.81 -4.51,5.49 32.05,19.07 20.37,7.57 9.38,8.07 35.57,18.52l75.92 32.27c14.26,7.67 3.22,8.66 34.48,19.59 1.75,0.62 7.7,2.66 9.15,3.32l76.72 44.25c14.52,8.52 5.64,7.99 20.22,4.46 19.79,4.62 28.48,9.83 44.83,21.2 15.56,10.81 26.56,16.68 43.47,20.51 -3.32,-22.69 -17.02,-46.1 -25.96,-66.5 -5.94,-13.51 -22.3,-51.42 -25.42,-65.29 -22.77,-9.76 -44.3,-20.74 -64.42,-32 -11.29,-6.35 -18.42,-7.48 -30.88,-14.82 -11.56,-6.79 -17.93,-10.32 -29.61,-15.9 -20.45,-9.77 -41.67,-22.25 -60.71,-30.43 -20.06,-8.62 -38.99,-20.85 -60.97,-31.42 -44.66,-21.49 -81.49,-39.76 -128.23,-59.02 -87.25,-35.96 -76.36,-30.81 -145.81,-20.46z"/>
    <path class="fil7" d="M1450.53 5370.6c-6.62,11.67 -5.87,6.41 -7.06,20.8 10.11,3.65 10.84,9.14 18.04,19.4l5.4 7.09c9.95,10.16 30.74,14.68 42.74,19.65l11.56 5.09c23.35,8.32 17.64,-1.27 40.5,13.58 6.12,3.95 2.56,3.08 10.63,6.03 4.17,1.51 12.75,2.63 17.32,3.47l72.93 18.59c25.28,11.03 26.45,3.87 45.79,8.28 11.87,2.72 -2.2,-0.88 12.09,4.57l76.52 19.17c35.07,1.89 23.34,2.42 44.57,9.51 11.91,3.97 37.16,7.96 51.24,3.97l60.56 10.4c-2.92,-30.1 -12.45,-34.04 -16.72,-59.9l12.45 -0.72c-10.54,-7.64 -3.2,1.57 -10.5,-9.09l-5.87 -16.24c-6.96,-29.64 -19.72,-57.01 -24.54,-101.04l-0.68 -7.92c-15.7,6.84 3.54,33.36 5.38,66.27 -78.9,-6.79 -179.19,-30.44 -253.87,-47.99 -62.68,-14.73 -173.59,-39.81 -223.77,-79.81 -0.99,15.85 11.33,65.26 15.3,86.83z"/>
    <path class="fil6" d="M1949.08 5479.59l47.24 11.66c11.38,0.24 16.32,4.52 26.11,7.69l86.62 17.36c11.32,0.42 8.25,-0.54 18.65,2.15 0.1,0.01 8.36,3.02 9.14,3.35l8.46 4c15.84,6.46 54.43,13.19 74.43,17.11 62.8,12.31 53.15,24.2 76.63,14.91 35.38,3.85 56.78,21.18 83.39,4.05 24.42,-15.72 36.33,-43.01 13.45,-67.48l-16.17 -13.02c-4.26,-3.07 -10.1,-7.08 -14.83,-9.56 -50.3,-26.25 -227.39,-68.98 -281.28,-79.92 -31.39,-6.37 -49.94,-14.81 -84.39,-21.08 -30.14,-5.49 -58.94,-13.43 -88.35,-17.61 4.82,44.04 17.58,71.41 24.54,101.04l5.87 16.24c7.3,10.66 -0.04,1.45 10.5,9.09z"/>
    <path class="fil8" d="M3213.15 5770.36c26.9,9.35 13.01,-1.93 34.52,-11.56 8.5,-3.8 0.58,-1.03 13.9,-4.07 0.84,1.12 1.75,1.51 2.08,3.61l4.97 10.46c1.61,4.32 2.91,11.02 3.92,15.21 8.44,-0.03 23.14,-1.78 30.45,1.23 16.91,6.96 11.32,8.61 11.32,30.5l10.13 3.89c7.01,5.65 10.4,18.27 10.02,21.19 -3.13,24.15 -27.91,29.89 -31.17,32.65 -27.36,23.15 10.73,-18.04 -6.32,7.89l-24.64 23.84c-12.72,12.1 -8.23,5.11 -10.74,22.86 21.52,-7.16 40.98,-26.97 55.27,-44.67l16.13 -14.77c17.4,-21.89 12.21,-11.6 40.54,-40.79 0.59,-0.6 1.46,-1.5 2.08,-2.08 0.62,-0.59 1.55,-1.41 2.2,-1.96l42.36 -40.83c14.45,-18.68 -6.95,6.06 5.22,-7.26 8.7,-9.51 -0.24,0 9.11,-7.54 9.87,-7.97 7.52,-7.15 14.49,-14.63l83.02 -101.83c0.28,-0.42 0.84,-1.47 1.1,-1.9 0.47,-0.82 2.43,-5.29 2.82,-6.28 6.11,-15.43 4.54,-31.15 -2.52,-49.7 -0.37,-0.94 -0.84,-2 -1.25,-2.92 -0.38,-0.89 -0.93,-1.94 -1.35,-2.81l-26.45 -60.91c-1.36,-2.77 -3.71,-7.06 -4.28,-8.21 -0.5,-0.99 -2.24,-4.57 -2.72,-5.6l-12.19 -25.27c-0.45,-0.78 -1.15,-1.76 -1.61,-2.54 -10.24,-17.46 -11.33,-30.52 -16.71,-37.38 -13.82,-17.66 -24.52,-5.09 -30.56,-27.68l-29.11 0c14.78,14.38 30.95,15.77 43.36,27.82 43.91,42.6 -9.29,83.78 -42.21,124.35l-43.77 46.24c-0.6,0.5 -1.61,1.23 -2.24,1.74 -0.63,0.5 -1.64,1.21 -2.28,1.71l-81.95 80.84c-16.79,17.84 -57.8,49.34 -64.96,67.14z"/>
    <path class="fil7" d="M784.15 5112.64c1.12,13.32 6.23,10.8 17.58,17.63l48.17 30.96c0.93,0.42 2.14,0.67 3.1,1.06l23.37 14.08c28.97,18.23 54.27,24.22 83.68,45.42 12.74,9.18 10.66,8.41 25.78,4.99 21.59,7.05 30.28,16.06 55.02,26.35 16.92,7.03 32.31,16.66 51.01,22.83 43.45,14.31 68.85,30.66 124.97,18.37 2.52,-17.41 -9.52,-97.75 -24.74,-114.91 -54.06,-4.97 -62.31,6.48 -110,-15.22 -27.96,-3.19 -22.61,-5.67 -43.72,-16.32l-43.43 -18.83c-60.78,-26.09 -87.02,-45.18 -137.61,-74.86l-92.02 -58.04c-1.67,21.57 12.98,93.65 18.85,116.5z"/>
    <path class="fil8" d="M3681.8 5403.88l20.79 0c0.29,-0.62 0.29,-2.48 0.35,-2l50.47 -68.1c4.58,-8.1 3.78,-7.23 5.87,-16.54 3.75,-16.81 -1.37,-4.18 12.12,-23.24 6.87,-9.71 0.13,2.92 7.87,-13.12l61.41 -154.5c12.72,-41.36 25.62,-28.54 12.63,-60.13 -0.2,-0.48 -7.14,-13.74 -7.23,-13.89 -6.21,-10.29 -14.7,-17.65 -17.4,-28.72 -4.2,-17.32 7.98,-37.14 15.35,-39.97 -2.67,-10.08 -0.4,-5.19 -8.3,-13.31 -1.7,6.62 -14.25,35.98 -17.64,41.23 -19.11,-14.48 -14.19,-36.99 -35.57,-46.92l-44.83 105.43c-0.43,0.94 -0.92,2.03 -1.33,2.97 -0.4,0.91 -0.89,2 -1.31,2.91l-53.59 112.07c-13.23,28.6 -33.49,61.51 -57.56,82.69l5.48 3.05c25.42,13.82 17.94,19.39 36.06,60.24 13.72,30.97 31.98,36.16 23.1,59.32l-6.74 10.52z"/>
    <path class="fil6" d="M3296.42 5297.9c22.66,2.19 45.89,-2.97 69.17,-2.25 11.32,0.35 22.37,1.6 33.55,2.82 16.48,1.8 20.31,1.94 28.84,9.73 3.87,12.11 30.35,13.94 43.71,18.7 12.31,4.39 6.92,3.34 10.59,6.06l30.9 23.2c28.53,26.53 1.74,23.92 48.47,55.68 10.6,7.2 13.37,10.55 28.6,4.54 15.04,0.06 32.12,2.29 46.43,-0.98 7.55,-1.72 21.78,-9.29 30.32,-11.76 -12.22,-8.08 -1.26,-10.6 -14.57,-41.27 -0.39,-0.91 -0.92,-1.95 -1.32,-2.85 -0.4,-0.88 -0.93,-1.95 -1.35,-2.82 -8.79,-18.8 -25.96,-51.71 -38.71,-65.04 -44.64,0.31 -71.41,6.04 -107.42,-13.7 -15.11,-8.28 -18.73,-19.33 -30.22,-31.9 -85.09,-93.19 -210.63,-55.05 -228.59,-62.67 2.97,18.14 -0.47,3.61 2.14,13.24l31.41 64.41c12.8,9.24 1.69,0.38 6.01,1.38l1.04 34.73 10.99 0.73z"/>
    <path class="fil9" d="M3934.84 4610.93c16.64,9.76 1.51,-1.64 11.54,12.85 7.26,10.46 -1.66,1.28 8.57,11.96 27.97,29.21 12.8,20.32 26.63,35.78 5.69,6.35 2.39,1.93 6.47,5.89 10.58,10.3 14.18,16.67 17.56,31.18 35.62,-2.32 65.03,-4.23 82.8,21.29l37.01 43.11c60.49,44.72 127.66,46.23 201.2,40.1 17.17,-13.21 14.92,2 32.03,-17.83 -21.87,-8.52 -8.35,4.39 -19.94,-19.35 -0.44,-0.88 -0.87,-2.01 -1.31,-2.88 -3.07,-6.12 -0.72,-1.93 -4.46,-7.97l-22.26 -40.16c-1.35,-2.67 -6.19,-13.31 -6.74,-14.04 -6.94,-9.43 0,-5.83 -13.02,-9.48 -81.05,15.35 -134.24,10.32 -199.58,-23.38 -70.78,-36.5 -47.88,-91.19 -156.51,-67.08z"/>
    <path class="fil10" d="M1082.08 5164.18c47.69,21.7 55.94,10.25 110,15.22 0.89,-0.86 2.35,-3.24 2.91,-2.35l12.22 -6.89c6.14,-2.3 14.7,-3.34 19.92,-4.99 7.58,10.61 31.25,84.83 24.32,113.89l-34.63 15.25c-56.11,12.29 -81.52,-4.05 -124.97,-18.37 -18.71,-6.17 -34.09,-15.8 -51.01,-22.83 -24.74,-10.29 -33.43,-19.3 -55.02,-26.35 0,15.1 -0.88,9.28 14.2,17.47 15.74,8.56 -13.07,-6.32 5.73,2.49l56.91 26.22c6.09,4.48 0.94,1.49 7.5,4.97 0.1,0.05 8.42,3.55 8.79,3.7 9.03,3.66 4.62,2.03 12.05,4.6 56.01,19.4 131.55,33.31 182.2,-6.86 11.83,-9.38 17.69,-22.72 19.19,-38.63 5.85,-62.34 -3.92,-87.66 83.92,-132.85 28.67,-14.74 49.18,-19.63 87.21,-25.13 48.7,-7.04 60.88,4.15 102.95,4.92 -28.48,-23.34 -100.29,-12.44 -132.87,-7.63 -7.63,4.14 -80.91,27.45 -88.69,27.65 -1.4,-66.05 -20.85,-74.27 -15.77,-106.47 16.73,-11.91 39.83,-24.91 66.51,-29.09 56.94,-15.99 124.39,-10.49 171.42,12.5 40.74,19.92 84.22,71.81 47.01,119.32 -12.39,-7.72 -6.99,-6.55 -20.81,-10.35 9.53,19.54 16.13,33.17 -12.49,39.83l0 16.62c18.9,-3.89 5.39,3.75 20.8,-12.34 109.92,-114.78 -48.84,-216.48 -219.85,-170.14 -56.82,15.38 -132.63,56.12 -136.12,120.81 -1.44,26.7 11.43,29.21 -3.5,51.4 -21.45,31.91 -63.34,37.14 -102.59,33.94 -23.27,-1.89 -31.78,-10.98 -57.41,-9.57z"/>
    <path class="fil8" d="M2455.69 5847.37c17.18,-3.21 20.75,-6.9 36.26,-5.48 6.33,-9.06 43.3,-20.13 58.19,-22.69 18.73,25.46 25.52,66.31 31.26,95.62 4.36,22.27 10.17,3.55 7.23,34.06 -10.07,7.72 -29.46,17.56 -41.29,21.5 -8.55,3.7 -14.65,6.14 -22.3,11.78 6.72,0 13.58,0.55 20.18,-0.77 1.17,-0.23 2.2,-0.55 3.32,-0.84l64.8 -35.04 50.47 -70.19c2.03,-5.9 1.04,-2.08 2.68,-9.83l0.62 -54.32c-3.42,-19.58 5.56,-10.44 -8.79,-16.23l0 -12.48c20.61,-8.32 -0.59,-19.09 30.09,-32.32 61.8,-26.65 134.67,6.84 164.24,7.35 -11.6,-10.84 -46.59,-21 -62.04,-24.56 -34.68,-7.99 -49.77,-1.45 -81.25,-2.71l-34.41 12.95c-13.4,-16.84 -15.52,-37.39 -23.74,-60.97l-16.64 -41.81c-0.35,-0.97 -0.86,-2 -1.16,-2.97 -3.13,-9.66 -2.54,-5.72 -3,-17.22 7.01,-5.97 15.69,-11.22 24.59,-14.64l-1.94 -0.72c-10.08,-6.42 -26.11,3.84 -35.99,11.48 -43.32,33.44 8.91,74.91 -30.44,136.32 -39.38,61.43 -77.84,65.48 -113,81.92 -0.2,0.09 -8.27,4.61 -8.81,4.99 -2.98,2.01 -5.43,5.9 -6.04,5 -0.6,-0.91 -2.12,1.79 -3.07,2.81z"/>
    <path class="fil11" d="M3770.86 4852.93c-3.21,26.83 -2.56,5.95 6.61,13.61 10.37,-12 11.39,-13.86 17.13,-29.7 6.24,-17.21 4.88,-19.29 16.15,-29.79 22.04,3.66 -0.35,-3.45 31.89,21.24l3.85 3.32c5.46,5.3 0.68,1.16 5.54,6.43l14.99 16.66c-0.62,6.7 -13.61,58.35 -14.4,60.23 -14.79,35.06 16.64,-22.06 -6.24,9.14 -4.75,6.47 -2.47,-0.57 -7.09,10.75 -4.97,12.2 -3.56,18.67 -3.56,35.54 11.2,-7.21 10.45,-12.55 21.52,-33l24.98 -61.15c0.52,-1.02 2.1,-3.61 2.52,-4.54l20.68 -48.03c0.19,-0.53 0.47,-1.76 0.65,-2.27l34.19 -56.43c21.44,-51.16 90.63,-56.19 148.14,-35.06 -17.78,-25.52 -47.19,-23.61 -82.8,-21.29 -21.21,4.27 -32.05,12.21 -47.97,15.85l-40.34 -72.2c-5.98,-9.66 -9.45,-12.7 -13.24,-22.21 5.82,-10.47 8.01,-9.05 17.36,-18.31 -60.54,-9.17 -142.82,205.07 -150.57,241.19z"/>
    <path class="fil11" d="M4213.79 4251.43l-83.53 65.35c-0.63,0.54 -1.57,1.33 -2.2,1.86 -0.91,0.77 -5.97,4.88 -6.89,5.7 -8.32,7.39 -4.29,3.84 -10.66,10.73l-30.72 31.75c-13.81,15.96 -25.62,30.92 -37.77,49.65 -29.15,44.98 31.06,75.99 68.4,79.65 54.34,5.33 63.23,-14.81 157.99,9.08 -2.69,-6.43 -2.29,-10.4 -23.03,-14.63 -47.01,-9.63 -62.95,-5.22 -101.79,-1.99 6.27,-11.86 3.74,-7.72 11.75,-17.39l5.72 -6.76c0.58,-0.64 1.35,-1.6 1.94,-2.23 2.25,-2.42 6.01,-5.77 8.6,-8.03l10.66 -10.15c15.37,-18.39 31.56,-29.15 51.37,-44.13l11.05 -9.93c15.77,-14.34 19.97,-12.63 23.73,-34.51l-10.39 4.88c-1.07,0.59 -7.45,4.42 -8.54,5.15l-28.59 24.95c-4.62,3.35 -3.42,2.05 -7.14,5.02 -3.7,2.96 -4.41,2.97 -7.76,7.38l-6.26 -24.32c-6.92,-25.78 4.37,-6.47 -14.29,-18.75 10.58,-4.6 4.36,2.58 7.15,-9.13 5.3,-22.32 -18.92,-43.09 -2.27,-60.63 12.44,-13.11 27.99,-19.17 38.75,-36.11 6.32,-9.96 1.3,1.25 7.6,-14.94l-22.9 12.45z"/>
    <path class="fil6" d="M2304.65 5948.91c24.03,0.79 21.3,6.09 34.11,14.91 25.56,17.63 100.69,21.26 135.45,18.86l-14.18 -67.41c-3.1,-9.1 -2.53,-6.85 -6.27,-14.68 -7.76,-16.18 -12.75,-23.23 -12.98,-44.98l-13.99 -2.79c-37.61,-4.02 -79.26,0.54 -113.74,-11.73 -50.16,-17.85 -60.71,-39.86 -82.24,-48.58 2.83,27.06 21.24,64.37 28.97,90.17 11.86,39.52 22.47,39.08 44.86,66.25z"/>
    <path class="fil7" d="M1395.63 4972.14c-10.64,37.43 22.01,71.53 22.26,107.54l15.7 0.38c32.58,-4.81 104.39,-15.71 132.87,7.63 8.74,6.18 14.28,7.92 26.79,5.93 13.82,3.8 8.42,2.63 20.81,10.35 37.22,-47.51 -6.27,-99.41 -47.01,-119.32 -47.04,-22.99 -114.48,-28.49 -171.42,-12.5z"/>
    <path class="fil9" d="M3783.59 4959.51c-7.98,-19.95 -12.79,-35.87 -24.24,-52.11 -13.91,-6.84 -103.51,-16.96 -129.99,-21.78 -105.36,-19.19 -260.43,-45 -352.33,-92.04 8.25,75.83 143.35,93.35 222.25,110.93l284.31 55z"/>
    <path class="fil12" d="M1912.45 3910.29c-2.98,13.48 -0.82,38.8 11.67,52.32 32.28,35 119.77,10.74 175.73,19.39 11.13,1.72 20.03,6.62 34.26,6.27l24.68 6.13c26.12,-99.45 -98.99,-107.82 -171.04,-100.93 -61.3,5.85 -61.45,-8.02 -84.89,-12.36l9.61 29.18z"/>
    <path class="fil9" d="M2589.49 4559.34c10.32,6.11 2.37,-2.23 9.86,9.9 4.73,7.63 1.65,1.25 4.85,14.48 6.29,4.95 40.44,21.38 49.41,25.37 84.85,37.74 199.38,98.21 285.8,123.49 38.05,11.14 98.26,30.9 138.35,-0.18 0.01,-22.6 -4.75,-19.64 -16.71,-43.75 -22.12,0.2 -34.92,6.82 -57.28,7.84 -50.91,2.33 -132.9,-21.1 -167.24,-43.79 -25.15,-1.17 -51.62,-16.71 -70.36,-26.31 -21.53,-11.02 -38.1,-16.92 -61.95,-29.38l-119.8 -59.13 5.09 21.47z"/>
    <path class="fil13" d="M3213.15 5770.36c-14.04,3.75 -30.42,27.14 -39.46,38.55 3.12,13.87 19.48,51.78 25.42,65.29 8.94,20.4 22.64,43.81 25.96,66.5 -16.91,-3.83 -27.91,-9.69 -43.47,-20.51 -16.35,-11.37 -25.04,-16.58 -44.83,-21.2l22.59 19.14c17.05,12.77 11.66,6.24 25.07,12.24 2.93,1.31 62.31,54.74 77.17,-2.28 2.51,-17.75 -1.98,-10.76 10.74,-22.86l24.64 -23.84c17.05,-25.93 -21.04,15.26 6.32,-7.89 3.26,-2.76 28.04,-8.5 31.17,-32.65 0.38,-2.92 -3.01,-15.54 -10.02,-21.19l-10.13 -3.89c0,-21.89 5.59,-23.54 -11.32,-30.5 -7.31,-3.01 -22.02,-1.26 -30.45,-1.23 -1.01,-4.19 -2.3,-10.89 -3.92,-15.21l-4.97 -10.46c-0.33,-2.1 -1.23,-2.49 -2.08,-3.61 -13.32,3.03 -5.4,0.26 -13.9,4.07 -21.52,9.63 -7.62,20.91 -34.52,11.56z"/>
    <path class="fil14" d="M1527.49 4286.8c84.62,7.52 235.41,38.37 319.14,57.87 31.2,7.26 66.08,21.59 96.56,31.64l0.39 15.93c7.48,-10.15 13.99,-10.9 11.46,-27.27 -4.31,-27.77 -45.41,-40.73 -66.03,-47.2 -53.85,-16.88 -343.06,-78.94 -367.95,-76.89 3.74,17.6 10.26,26.88 6.43,45.91z"/>
    <path class="fil14" d="M2162.23 4483.94c80.44,-27.21 149.09,8.71 214.5,32.86 18.24,6.74 28.49,12.34 46.19,20.4 17.1,7.78 32.2,13.62 49.79,21.35 20.48,8.99 26.46,14.13 43.74,22.4 14.99,7.19 33.87,13.91 41.86,24.74 7.55,-2.28 11.77,-4.96 19.49,-9.78 2.77,-1.72 9,-5.8 10.94,-6.71 10.61,-5.04 1.47,-2.22 15.46,-5.48 -3.2,-13.23 -0.11,-6.85 -4.85,-14.48 -7.49,-12.12 0.47,-3.79 -9.86,-9.9l5.28 20.09c-70.78,-26.83 -136.75,-62.8 -202.88,-91.04 -35.29,-15.08 -68.06,-27.91 -103.24,-41.9 -68.83,-27.36 -71.46,-17.08 -119.77,-19.95l-27.27 16.28c0.63,13.96 1.06,5.58 3.06,11.24l2.35 5.87c0.47,1.25 1.88,5.01 2.35,6.26 6.4,16.88 -1.04,13.71 12.84,17.75z"/>
    <path class="fil8" d="M3182.53 5403.87c0,-34.81 5.89,-28.92 14.99,-39.09l17.92 -15.35c39.62,-25.53 -0.53,-6.56 50.31,-28.74 66.5,-29.03 94.94,-12.49 162.23,-12.49 -8.54,-7.79 -12.36,-7.93 -28.84,-9.73 -11.18,-1.22 -22.23,-2.47 -33.55,-2.82 -23.28,-0.72 -46.51,4.44 -69.17,2.25 -15.3,10.25 -56.01,20.18 -76.44,30.29 -7.98,-10.42 -1.69,-4.47 -6.65,-13.81l-12.63 -20.33c-0.43,-0.89 -0.83,-2.04 -1.25,-2.96 -0.42,-0.93 -0.76,-2.1 -1.17,-3.03 -12.25,-28.24 -13.11,-22.9 -24.97,-61.89l-1.75 -9.51c12.22,-8.2 19.79,-16.76 37,-17.9 -6.48,-11.77 20.28,-15.35 -20.02,-7.21 -0.72,0.14 -16.97,8.54 -17.65,8.93 -35.2,20.77 -57.57,43.51 -66.08,84.06 -11.02,52.49 38.65,112.04 77.72,119.34z"/>
    <path class="fil15" d="M4213.79 4251.43l22.9 -12.45c-6.31,16.19 -1.28,4.99 -7.6,14.94 -10.76,16.93 -26.31,23 -38.75,36.11 -16.66,17.54 7.57,38.31 2.27,60.63 -2.79,11.71 3.42,4.53 -7.15,9.13 18.66,12.27 7.36,-7.04 14.29,18.75l6.26 24.32c3.35,-4.41 4.05,-4.42 7.76,-7.38 3.71,-2.97 2.52,-1.67 7.14,-5.02l28.59 -24.95c1.08,-0.73 7.47,-4.56 8.54,-5.15l10.39 -4.88 12.21 5c3.84,-6.21 5.64,-9.95 11.38,-14.69 6.61,-5.45 32.7,-22.07 42.97,-36.09 -2.78,-11.9 -2.33,-8.44 -7.99,-16.96l-5.29 -7.2c-13.07,-18.95 -41.87,-70.26 -51.06,-77.82 -2.12,-1.74 -5.98,-4.49 -7.15,-5.11 -9.69,-4.96 -14.3,-5.24 -28.33,-5.24 10.31,12.45 9.64,7.84 22.18,16.63 -8.51,9.87 -11.14,8.07 -22.42,16.18 -1.51,1.08 -7.62,6.14 -9.1,7.58 -8.88,8.62 -4.82,3.97 -12.01,13.68z"/>
    <path class="fil16" d="M2491.95 5841.9c-15.51,-1.42 -19.07,2.27 -36.26,5.48l-28.89 5.44 13.99 2.79c0.23,21.75 5.22,28.81 12.98,44.98 3.74,7.83 3.17,5.58 6.27,14.68l14.18 67.41c-34.76,2.4 -109.9,-1.23 -135.45,-18.86 -12.8,-8.81 -10.07,-14.11 -34.11,-14.91 2.28,15.69 -3.56,1.51 4.36,12.29 5.05,6.86 -1.07,0.73 9.3,7.34 3.15,2.01 7.25,4.32 10.45,6.21 19.77,11.72 12.69,2.93 41.33,12.74 0.99,0.33 2.01,0.83 3.01,1.15l6.45 1.89c9.22,2.33 19.12,3.55 29.26,4.14l93.28 0c10.65,-1.23 19.88,-4.51 22.95,-12.49 7.64,-5.64 13.75,-8.08 22.3,-11.78 8.51,-13.92 -2.56,-4.03 10.71,-11.32l-22.32 -67.3c-0.39,-0.78 -0.98,-1.84 -1.4,-2.59l-3.13 -4.91c-30.47,-45.46 -14.23,-42.91 -26.82,-44.87 -10.75,9.88 -12.21,2.51 -12.43,2.51z"/>
    <path class="fil7" d="M880.14 4754.85c1.84,6.51 -3.63,6.46 10.2,12.4 10,4.31 10.05,3.63 20.6,0.1 53.72,9.59 44.68,18.59 89.56,9.93l-8.6 -46.86c-3.01,-27.29 -11.94,-10.69 -4.44,-42.68 -6.16,-0.78 -16.28,-1.65 -21.73,-2.58 -6.01,-1.02 -5.83,-0.78 -10.97,-2.51l-10.52 -5.51c-96.22,-16.76 -90.61,-39.42 -105.17,-40.87 -2.67,9.45 5.15,46.92 7.98,64.3 2.74,16.71 11.44,27.99 22.52,41.5 0.82,0.99 3.27,3.83 4.09,4.82 8.02,9.68 -0.89,-3.37 6.48,7.96z"/>
    <path class="fil6" d="M2619.84 4988.72c-4.75,-21.84 -26.44,-46.58 -44.01,-59.78 -78.08,-58.66 -179.89,-23.79 -224.03,-34.72 -18.28,-4.52 -24.54,-14.21 -35.23,-12.55 33.68,89.53 42.5,70.26 137.73,65.47 37.91,-1.9 63.15,0.62 94.44,9.52 51.63,14.69 46.8,25.91 71.11,32.07z"/>
    <path class="fil15" d="M3770.86 4852.93c-8.79,10.32 -10.45,38.89 -11.51,54.48 11.44,16.24 16.25,32.15 24.24,52.11l-1.06 5.16c21.38,9.93 16.45,32.44 35.57,46.92 3.39,-5.25 15.94,-34.61 17.64,-41.23 0,-16.87 -1.41,-23.34 3.56,-35.54 4.62,-11.32 2.34,-4.28 7.09,-10.75 22.89,-31.2 -8.55,25.92 6.24,-9.14 0.79,-1.88 13.79,-53.53 14.4,-60.23l-14.99 -16.66c-4.86,-5.28 -0.08,-1.13 -5.54,-6.43l-3.85 -3.32c-32.24,-24.69 -9.85,-17.58 -31.89,-21.24 -11.27,10.5 -9.91,12.58 -16.15,29.79 -5.74,15.84 -6.76,17.7 -17.13,29.7 -9.17,-7.65 -9.82,13.22 -6.61,-13.61z"/>
    <path class="fil17" d="M944.24 4677.15l10.52 5.51c5.14,1.72 4.96,1.49 10.97,2.51 5.45,0.93 15.57,1.8 21.73,2.58 -7.49,31.99 1.44,15.38 4.44,42.68l8.6 46.86c-44.88,8.66 -35.84,-0.34 -89.56,-9.93 0.26,0.6 1.74,9.57 4.15,12.46 16.81,0.37 20.79,5.95 37.45,0.91 33.69,6.9 70.17,8.4 102.79,-3.17 57.48,-20.41 88.4,-103.69 1.44,-106.62 -35.58,-1.2 -71.08,7.28 -112.54,6.22z"/>
    <path class="fil11" d="M4310.33 4690.47l40.87 -14.6c7.4,10.52 7.84,17.08 14.24,27.72l28.87 37.69c4.8,5.72 7.48,9.24 9.43,15.38 6.94,21.83 0.08,22.49 -10.5,35.63l34.92 -19.14c28.29,-30.82 6.65,-36.6 31.63,-43.27 -19.15,-39.91 12.19,-15.32 -32.44,-79.88l-16.43 -25.18c-7.14,-10.75 -5.8,-12.39 -11.38,-21.91 -15.54,-26.54 -23.77,0.73 -27.12,-39.46l-12.45 0c7.05,29.96 17.85,49.65 -1.52,78.14 -5.5,8.11 -17.11,19.64 -23.49,25.24 -4.76,4.19 -11.33,8.02 -14.72,10.93 -10.27,8.79 -5.56,0.94 -9.9,12.69z"/>
    <path class="fil9" d="M2829.15 4292.35l22.57 3.73c-1.02,-70.74 -79.55,-45.62 -130.88,-45.02 -82.29,0.97 -93.21,-15.04 -145.96,-41.73 10.07,43.81 59.05,72.05 96.6,79.13 57.28,10.78 114.53,-5.17 157.67,3.9z"/>
    <path class="fil18" d="M3208.57 5198.75c-17.21,1.15 -24.78,9.71 -37,17.9l1.75 9.51c11.86,38.99 12.72,33.65 24.97,61.89 0.42,0.93 0.76,2.1 1.17,3.03 0.42,0.92 0.82,2.06 1.25,2.96l12.63 20.33c4.96,9.34 -1.33,3.39 6.65,13.81 20.43,-10.11 61.15,-20.04 76.44,-30.29l-10.99 -0.73 -1.04 -34.73c-4.32,-1.01 6.8,7.86 -6.01,-1.38l-31.41 -64.41c-2.61,-9.63 0.83,4.9 -2.14,-13.24 -20.81,5.92 -19.69,10.81 -36.26,15.36z"/>
    <path class="fil14" d="M2037.92 4648.93c-38.49,1.26 -33.32,7.86 -42,-21.88 -2.2,-7.54 -2.25,-2.96 -2.76,-13.92l-17.13 -0.53c-41,-0.69 -67.76,4.05 -111.58,-4.71 -13.7,-2.74 -30.63,-9.97 -44.69,-17.05 -20.18,-10.16 -21.19,-17.22 -34.92,-24.73 4.57,30.25 14.91,42.87 32.56,60.46 16.62,16.53 36.76,22.89 60.69,29.49 45.59,12.53 122.31,17.22 159.84,-7.13z"/>
    <path class="fil19" d="M3161.66 4515l0.25 1.33 12.07 48.28c37.03,-3.93 42.53,-19.31 124.86,-11.76 35.92,3.29 71.27,21.28 100.02,35.79 11.26,-5.93 1.91,2.78 6.48,-7.39 -11.97,-24.75 -26.06,-30.76 -43.69,-42.58 -73.71,-49.44 -149.19,-24.47 -200.01,-23.68z"/>
    <path class="fil11" d="M2836.53 4652.7c34.34,22.69 116.33,46.12 167.24,43.79 22.36,-1.02 35.16,-7.64 57.28,-7.84 11.96,24.11 16.72,21.15 16.71,43.75l14.62 -5.29c12.39,-47.79 -9.93,-39.25 -3.29,-84.73 3.4,-23.3 28.75,-51.37 46.67,-58.42l-6.96 -16.91c-8.44,-15.15 -9.42,-10.76 -9.34,-28.54 13.32,-9.66 24.16,-17.79 42.45,-22.18l-0.25 -1.33c-37.24,-3.65 -104.23,39.63 -105.22,89.95 -0.47,23.73 10.85,32.33 9.77,54.22 -21.38,33.5 -70.34,42.19 -116.42,30.4 -19.16,-4.9 -37.22,-11.48 -56.96,-18.59 -21.97,-7.93 -31.1,-18.47 -56.3,-18.28z"/>
    <path class="fil20" d="M2891.32 3860.36l16.62 0c3.75,-5.58 2.35,-3.8 7.63,-9l20.81 -16.63c11.12,-9.47 2.77,0.71 9.69,-11.12 8.62,-14.76 11.56,-36.93 3.65,-54.93 -0.38,-0.91 -0.99,-1.89 -1.41,-2.76l-41.23 -79.16c-5.75,-14.38 -8.93,-15.8 -19.93,-17.78 12.72,41.34 19.46,46.44 -16.83,83.14 -8.45,8.56 -7.08,10.2 -19.02,18.68 33.22,1.38 30.34,13.52 52.03,72.92l-12.01 16.63z"/>
    <path class="fil20" d="M1976.02 4606.8c40.84,-1.4 64.04,-15.96 93.2,-16.09 0.96,7.88 1.83,12.04 2.95,16.29 0.29,1.07 2.88,9.05 3.31,9.98 5.26,11.49 -3.47,-0.04 5.89,9.56 19.5,-8.75 47.43,-34.58 53.07,-59.85 5.21,-23.39 -2.52,-33.24 0.14,-53.04 2.82,-21 16.23,-18.88 27.65,-29.71 -13.89,-4.04 -6.45,-0.87 -12.84,-17.75 -0.48,-1.25 -1.89,-5.01 -2.35,-6.26l-2.35 -5.87c-2,-5.67 -2.43,2.72 -3.06,-11.24l27.27 -16.28c-25.81,-1.25 -56.34,14.82 -60.63,37.71 -5.85,31.29 17,59 -28.54,94.33 -0.94,0.73 -6.23,4.8 -6.85,5.29l-4.56 3.81c-23.82,19.93 -61.53,36.28 -92.75,39.49l0.47 -0.38z"/>
    <path class="fil21" d="M1433.59 5080.06l-15.7 -0.38c-0.25,-36.01 -32.9,-70.11 -22.26,-107.54 -26.68,4.18 -49.78,17.18 -66.51,29.09 -5.07,32.2 14.38,40.43 15.77,106.47 7.78,-0.2 81.06,-23.5 88.69,-27.65z"/>
    <path class="fil22" d="M3590.25 4151.61c17.34,6.46 6.45,4.72 21.62,1.11l17.42 -7.89c0.57,-0.31 1.8,-0.97 2.66,-1.55 4.14,-11.32 0.42,-12.05 -17.29,-40.7 -12.53,-20.26 -15.57,-14.36 -23.52,-47.68 -36.71,-1.38 -57.61,9.3 -77.85,25.97 19.64,52.16 33.04,39.63 39.52,79.92l37.44 -9.18z"/>
    <path class="fil23" d="M4310.33 4690.47c-2.37,3.46 -0.09,2.19 -9.06,7.09 -0.1,0.05 -9.48,3.49 -10.32,3.83 13.02,3.65 6.08,0.05 13.02,9.48 0.54,0.73 5.39,11.37 6.74,14.04l22.26 40.16c3.74,6.04 1.38,1.85 4.46,7.97 0.44,0.87 0.87,2 1.31,2.88 11.6,23.74 -1.93,10.83 19.94,19.35 -17.11,19.83 -14.86,4.62 -32.03,17.83 16.78,0 30.04,-0.63 41.94,-3.88 5.44,-1.49 10.45,-2.71 15.52,-5.54 20.08,-11.18 8.54,-2 9.14,-11.38 10.58,-13.14 17.44,-13.8 10.5,-35.63 -1.95,-6.14 -4.63,-9.67 -9.43,-15.38l-28.87 -37.69c-6.4,-10.64 -6.84,-17.2 -14.24,-27.72l-40.87 14.6z"/>
    <path class="fil11" d="M3527.84 4222.3c-4.31,-10.31 6.95,-8.31 -8.32,-8.31 1.01,-0.94 3.49,-3.9 4,-4.57 0.37,-0.48 1.42,-1.78 1.86,-2.35 10.76,-14.65 4.24,-20.16 27.42,-26.35l0 -12.46 -13.53 2.13c-3.35,-21.21 -26.36,-44.16 -37.1,-80.9 -3.73,-12.7 5.43,-2.9 -6.12,-13.81 -23.68,19.8 -53.48,31.64 -40.98,84.19 7.09,29.81 44.87,55.63 72.77,62.44z"/>
    <path class="fil18" d="M2491.95 5841.9c0.21,0 1.67,7.38 12.43,-2.51 12.59,1.96 -3.65,-0.59 26.82,44.87l3.13 4.91c0.42,0.76 1.01,1.81 1.4,2.59l22.32 67.3c-13.27,7.29 -2.2,-2.61 -10.71,11.32 11.83,-3.94 31.22,-13.79 41.29,-21.5 2.95,-30.5 -2.87,-11.78 -7.23,-34.06 -5.74,-29.31 -12.53,-70.16 -31.26,-95.62 -14.89,2.56 -51.86,13.62 -58.19,22.69z"/>
    <path class="fil24" d="M2787.72 3797.96c3.51,28.55 4.96,22.7 17.94,39.66 13.61,17.76 4.27,21.28 23.24,35.06 29.6,3.5 39.63,-11.97 60.29,-16.48l-26.5 -42.38c-1.52,-4.97 -1.23,-8.13 -2.93,-14.06 -1.33,-4.63 -6.7,-15.52 -10.06,-20.45 -17.66,4.34 -45.35,6.26 -61.98,18.65z"/>
    <path class="fil25" d="M4005.62 4708.6c-3.39,-14.52 -6.99,-20.89 -17.56,-31.18 -4.08,-3.97 -0.78,0.45 -6.47,-5.89 -13.82,-15.46 1.35,-6.57 -26.63,-35.78 -10.24,-10.68 -1.31,-1.5 -8.57,-11.96 -10.03,-14.49 5.1,-3.1 -11.54,-12.85l-13.41 0.81c-9.35,9.25 -11.54,7.83 -17.36,18.31 3.79,9.51 7.26,12.55 13.24,22.21l40.34 72.2c15.91,-3.64 26.75,-11.58 47.97,-15.85z"/>
    <path class="fil11" d="M3636.04 4143.27l16.62 0c5.84,-21.87 15.93,-9.38 16.64,-41.61 -10.41,-4.19 -18.18,-26.11 -24.79,-37.62 -0.47,-0.79 -1.02,-1.89 -1.46,-2.69l-22.51 -35.74c-25.56,-44.57 -60.49,-65.4 -113.47,-65.4l6.95 4.85c8.18,4.41 135.88,37.66 68.78,79.25 21.23,13.66 4.04,-12.12 35.14,38.23 10.19,16.52 19.02,35.11 26.54,48.24 -13.52,10.6 -1.49,0.63 -8.44,12.49z"/>
    <path class="fil21" d="M1192.08 5179.4c15.22,17.16 27.26,97.49 24.74,114.91l34.63 -15.25c6.92,-29.06 -16.74,-103.27 -24.32,-113.89 -5.21,1.65 -13.77,2.68 -19.92,4.99l-12.22 6.89c-0.55,-0.88 -2.01,1.5 -2.91,2.35z"/>
    <path class="fil18" d="M2709.36 5730.24l-12.3 0.45c-1.78,-19.46 -11.8,-47.09 -19.77,-62.58l-6.67 -18.18c-7.96,-23.3 -13.89,-17.86 -15.62,-44.35 -8.9,3.42 -17.58,8.67 -24.59,14.64 0.45,11.51 -0.14,7.57 3,17.22 0.3,0.97 0.81,2 1.16,2.97l16.64 41.81c8.22,23.58 10.35,44.13 23.74,60.97l34.41 -12.95z"/>
    <path class="fil26" d="M1976.02 4606.8l0 5.79 17.13 0.53c0.5,10.97 0.55,6.38 2.76,13.92 8.67,29.74 3.51,23.14 42,21.88 18.78,-3.27 34.12,-11.61 43.46,-22.38 -9.37,-9.59 -0.63,1.94 -5.89,-9.56 -0.43,-0.93 -3.02,-8.91 -3.31,-9.98 -1.12,-4.26 -1.99,-8.41 -2.95,-16.29 -29.16,0.13 -52.36,14.69 -93.2,16.09z"/>
    <path class="fil25" d="M3135.76 4583.96l38.22 -19.35 -12.07 -48.28c-18.29,4.39 -29.13,12.53 -42.45,22.18 -0.08,17.78 0.91,13.4 9.34,28.54l6.96 16.91z"/>
    <path class="fil10" d="M1892.79 5529.81c7.48,8.21 2.37,4.36 16.01,7.99l61.65 -6.35c0.68,-1.36 2.08,-4.17 2.77,-5.54l23.09 -34.67 -47.24 -11.66 -12.45 0.72c4.27,25.86 13.8,29.8 16.72,59.9l-60.56 -10.4z"/>
    <path class="fil27" d="M2932.9 3885.34c4.27,4.27 15.06,-5.99 4.83,-2.25 -0.11,0.04 -11.81,-4.73 -4.83,2.25z"/>
    <polygon class="fil27" points="2899.62,3881.17 2908.57,3878.88 "/>
   </g>
   <path class="fil28" d="M6343 3294.04l1867.89 0 255.26 711 -290.86 104.62c-49.3,-116.67 -106.81,-210.34 -172.55,-281 -65.73,-71.21 -138.57,-118.32 -218,-141.87 -79.43,-23 -172.55,-34.51 -278.27,-34.51l-341.81 0 0 562.02 111.2 0c83.26,0 139.67,-6.03 168.7,-18.63 29.03,-12.05 49.86,-31.76 62.44,-58.06 12.6,-26.29 19.17,-78.33 19.17,-156.65l0 -85.46 289.22 0 0 946.54 -289.22 0 0 -96.95c0,-65.73 -7.67,-113.94 -23,-144.06 -15.33,-30.13 -36.16,-50.94 -62.44,-61.35 -26.84,-10.95 -85.46,-16.43 -176.38,-16.43l-99.7 0 0 514.35c0,54.22 2.74,87.65 8.22,99.7 4.92,11.49 15.89,20.81 31.22,26.84 15.33,6.57 48.75,9.86 100.24,9.86l187.89 0c140.22,0 258,-20.27 354.4,-60.25 96.41,-40.54 182.41,-105.72 257.46,-195 75.59,-89.84 133.65,-196.65 174.19,-319.9l293.05 100.79 -293.6 832.61 -1934.72 0 0 -308.94 55.87 0c75.05,0 125.44,-5.48 151.19,-15.89 25.75,-10.95 43.81,-29.59 54.22,-56.41 5.48,-15.89 8.22,-61.36 8.22,-136.4l0 -1220.43c0,-66.28 -4.38,-110.1 -13.7,-130.37 -8.76,-20.27 -23,-35.6 -42.73,-45.47 -19.17,-10.4 -56.97,-15.33 -113.38,-15.33l-99.7 0 0 -308.94zm2353.77 0l1091.15 0 0 308.94 -99.69 0c-57.52,0 -95.86,4.94 -114.49,15.33 -18.62,9.87 -32.86,26.3 -41.62,48.21 -9.32,21.92 -13.7,64.09 -13.7,125.98l0 1239.6c0,67.38 3.83,110.65 10.95,130.37 7.67,19.17 20.81,32.87 38.89,41.63 22.46,12.6 55.87,19.17 100.79,19.17l118.86 0 0 308.94 -1091.15 0 0 -308.94 88.73 0c63.54,0 105.17,-4.38 124.35,-13.7 19.17,-9.32 33.41,-23.56 42.73,-43.27 9.3,-19.73 13.68,-59.16 13.68,-118.32l0 -1244.53c0,-69.57 -4.38,-115.03 -13.68,-136.95 -9.32,-21.91 -24.65,-38.89 -46.02,-50.94 -15.33,-8.22 -51.49,-12.6 -109.56,-12.6l-100.24 0 0 -308.94zm1327.24 308.94l0 -308.94 1271.92 0c194.46,0 347.29,22.46 459.03,67.92 111.19,45.46 196.64,111.19 256.35,196.1 59.71,84.9 89.84,178.03 89.84,279.92 0,73.94 -15.89,144.06 -47.66,210.34 -31.76,66.28 -77.24,124.89 -136.94,175.29 -59.71,50.95 -138.03,93.13 -236.09,125.98 105.17,26.84 185.16,56.43 241.02,88.19 80.52,44.92 144.06,107.92 191.17,188.98 47.11,80.52 70.67,170.35 70.67,270.05 0,118.87 -35.6,228.43 -107.36,328.11 -71.76,100.24 -173.1,176.38 -304.02,228.43 -130.91,52.59 -322.08,78.87 -574.61,78.87l-1173.32 0 0 -308.94 88.74 0c59.16,0 99.14,-4.94 119.95,-15.35 21.36,-9.86 36.16,-24.64 44.37,-43.27 8.78,-18.62 13.16,-60.8 13.16,-125.98l0 -1249.46c0,-66.27 -4.38,-108.46 -13.16,-127.08 -8.21,-18.08 -23,-32.32 -44.37,-43.27 -20.81,-10.41 -60.8,-15.89 -119.95,-15.89l-88.74 0zm818.37 598.16l245.95 0c128.18,0 223.49,-10.95 284.84,-32.32 61.89,-21.36 107.91,-54.22 139.13,-97.49 31.22,-43.82 46.56,-94.22 46.56,-151.19 0,-59.16 -14.78,-109.56 -44.37,-151.73 -29.03,-41.63 -71.76,-71.76 -127.63,-89.29 -55.32,-18.08 -155.02,-26.84 -298.53,-26.84l-245.95 0 0 548.86zm0 325.38l0 486.41c1.1,68.48 3.84,109.01 8.22,120.51 4.92,15.33 13.68,25.75 26.29,31.78 12.05,6.02 45.46,8.76 100.24,8.76l163.24 0c94.76,0 173.65,-8.76 236.09,-26.84 62.44,-17.52 115.57,-54.22 159.4,-110.1 43.82,-55.87 65.73,-122.71 65.73,-201.03 0,-66.83 -15.33,-123.25 -46.56,-169.27 -30.68,-46.02 -77.24,-81.06 -139.14,-104.62 -61.89,-23.56 -156.65,-35.6 -283.73,-35.6l-289.78 0zm1551.83 -1232.48l1013.92 0 389.46 1356.81 399.32 -1356.81 1033.65 0 0 308.94 -110.65 0c-59.71,0 -101.35,12.6 -124.35,37.79 -23,25.2 -34.51,72.32 -34.51,141.87l0 1271.92c0,55.87 3.29,90.38 9.86,104.62 9.32,21.36 23,36.16 39.98,44.92 23.56,12.6 54.24,19.17 93.13,19.17l126.54 0 0 308.94 -1078.02 0 0 -308.94 83.27 0c61.35,0 102.43,-4.94 123.79,-14.25 21.36,-9.86 37.24,-24.64 47.1,-44.37 10.41,-19.72 15.35,-56.41 15.35,-110.1l0 -1377.64 -545.59 1855.29 -308.94 0 -529.14 -1795.59 0 1361.21c0,31.22 5.48,55.33 16.43,72.3 11.51,16.98 27.4,30.13 47.66,39.44 20.81,9.32 53.68,13.7 99.14,13.7l106.27 0 0 308.94 -913.68 0 0 -308.94 90.38 0c56.97,0 95.86,-4.94 117.22,-15.35 20.82,-9.86 36.16,-26.29 46.57,-48.19 10.4,-21.92 15.33,-62.44 15.33,-121.06l0 -1256.03c0,-57.51 -3.84,-95.3 -11.51,-112.29 -9.32,-23.56 -24.1,-40.54 -43.27,-51.49 -19.72,-10.41 -49.86,-15.89 -92.03,-15.89l-122.7 0 0 -308.94zm4356.42 -75.59l211.43 0 22.46 75.59 1264.8 0 27.4 -75.59 211.43 0 274.98 786.59 -295.79 104.62c-66.28,-130.37 -113.94,-215.27 -142.97,-254.71 -56.41,-77.78 -122.16,-139.67 -196.1,-184.05 -55.33,-34.51 -110.65,-51.49 -165.43,-51.49 -25.75,0 -43.27,6.03 -53.14,18.63 -9.3,12.05 -14.24,39.98 -14.24,83.81l0 1285.07c0,76.13 2.74,123.24 8.22,142.41 5.48,19.72 14.24,34.51 27.38,46.02 12.6,10.95 30.68,18.62 53.14,22.46 22.46,3.83 82.71,5.48 180.76,5.48l0 308.94 -1091.16 0 0 -308.94 66.28 0c72.86,0 119.95,-4.38 140.22,-13.7 20.27,-8.76 36.16,-25.19 47.11,-48.21 10.41,-23 15.89,-70.67 15.89,-142.97l0 -1314.1c0,-37.24 -4.38,-60.8 -13.14,-70.65 -8.22,-9.32 -26.84,-14.25 -54.24,-14.25 -55.87,0 -118.32,20.82 -186.78,62.44 -69.03,41.63 -130.38,100.25 -184.06,176.38 -21.35,29.59 -66.83,113.4 -136.38,251.43l-293.06 -104.62 274.98 -786.59zm3597.74 1719.99l219.66 220.75c-126,143.52 -254.71,248.14 -385.63,312.22 -130.92,64.65 -272.79,96.97 -424.52,96.97 -243.75,0 -449.16,-82.17 -615.69,-247.05 -167.08,-164.87 -250.33,-363.72 -250.33,-597.62 0,-153.37 37.25,-293.6 112.29,-421.23 75.05,-127.63 179.13,-227.33 311.68,-299.09 133.11,-71.75 283.2,-107.91 451.36,-107.91 107.36,0 204.86,15.33 292.51,46.56 87.64,30.68 164.87,75.05 230.61,132.57 65.73,56.97 118.87,126.53 158.86,208.15 40.54,81.62 67.92,165.98 82.71,253.08 6.57,43.81 9.86,112.83 9.86,207.6l-1081.29 0c2.19,135.29 42.18,244.84 119.41,328.11 77.24,83.81 172.54,125.43 284.29,125.43 71.76,0 150.09,-21.36 234.44,-64.08 84.36,-43.28 167.62,-107.92 249.78,-194.46zm-319.35 -464.51c-7.67,-63.54 -23,-113.38 -46,-149.54 -23.01,-36.7 -54.24,-65.73 -93.13,-87.65 -39.44,-21.35 -79.97,-32.32 -123.25,-32.32 -44.91,0 -88.19,10.97 -130.37,33.41 -41.63,21.92 -75.05,52.05 -100.24,90.38 -25.19,37.81 -41.63,86.55 -49.3,145.71l542.29 0zm1482.26 -578.45l0 233.35c86,-90.38 160.49,-151.73 223.49,-184.05 62.44,-32.87 123.25,-49.3 181.32,-49.3 52.57,0 99.69,12.05 140.77,36.16 41.63,24.1 74.51,58.6 98.6,103.52 24.11,44.92 36.16,93.13 36.16,144.6 0,67.38 -22.46,128.19 -66.83,182.97 -44.38,54.22 -106.82,81.61 -187.35,81.61 -21.35,0 -40.53,-1.64 -57.51,-4.92 -16.43,-3.29 -51.49,-13.7 -105.17,-31.78 -27.94,-8.21 -50.94,-12.59 -69.02,-12.59 -27.94,0 -73.95,17.52 -138.59,52.59l0 625.54c0,53.14 3.84,87.65 12.05,103.52 7.67,16.44 20.82,27.94 38.35,35.62 18.08,7.11 56.97,10.95 116.67,10.95l69.57 0 0 308.94 -985.99 0 0 -308.94 82.17 0c59.16,0 95.86,-3.29 110.1,-9.86 14.79,-6.03 25.75,-17.54 32.87,-33.43 7.67,-15.88 11.49,-51.48 11.49,-106.81l0 -734 -236.64 0 0 -308.4c174.19,-10.95 354.95,-55.87 542.84,-135.3l150.64 0zm1778.06 667.18l0 -117.76c0,-70.11 -6.03,-118.32 -17.54,-144.6 -12.05,-26.84 -33.41,-48.76 -64.64,-66.28 -31.22,-17.52 -70.11,-26.3 -116.13,-26.3 -35.6,0 -67.92,6.03 -96.95,17.54 -29.03,11.49 -52.03,26.29 -69.02,44.37 -17.52,18.08 -37.25,53.13 -59.71,105.17 -29.03,65.73 -63.54,112.84 -103.52,141.87 -39.98,28.48 -87.64,42.72 -141.87,42.72 -68.46,0 -124.89,-21.35 -168.71,-64.08 -43.81,-42.73 -65.73,-95.32 -65.73,-158.3 0,-71.22 22.46,-134.76 67.38,-190.08 60.25,-73.95 149.54,-134.21 268.41,-181.32 118.86,-46.56 252.51,-70.11 400.96,-70.11 149,0 275.54,24.11 380.16,71.76 104.08,48.21 176.92,105.72 218.02,172 41.08,66.83 61.89,168.71 61.89,305.1l0 572.43c0,70.65 3.84,115.57 11.51,135.3 7.11,19.72 23.56,37.24 48.21,52.03 24.65,14.79 52.03,22.46 82.16,22.46 30.13,0 70.67,-8.76 121.06,-25.75l0 314.41c-90.94,29.03 -178.57,43.27 -262.38,43.27 -98.6,0 -182.41,-15.88 -252.52,-48.19 -69.57,-32.32 -128.18,-80.52 -175.29,-145.16 -107.36,69.56 -204.32,119.41 -291.97,148.99 -87.1,29.59 -171.45,44.37 -253.07,44.37 -153.38,0 -277.17,-43.27 -371.94,-129.27 -94.21,-86 -141.32,-192.27 -141.32,-318.25 0,-71.75 16.43,-137.49 49.3,-197.19 32.86,-59.71 81.62,-112.29 146.25,-157.21 65.18,-44.92 165.42,-84.36 301.81,-119.41 135.86,-34.51 300.73,-59.71 495.19,-74.51zm0 266.22c-140.78,20.27 -240.48,41.08 -298.54,61.9 -58.06,20.81 -99.7,46.56 -124.35,78.32 -24.64,31.78 -37.24,64.09 -37.24,96.97 0,42.72 15.89,78.32 48.21,107.35 32.32,29.03 76.13,43.28 130.91,43.28 35.62,0 76.7,-9.32 123.81,-27.4 46.56,-18.08 99.14,-44.92 157.21,-79.97l0 -280.46zm1623.58 -933.4l0 180.76c122.14,-76.14 215.27,-124.89 279.91,-147.35 64.64,-22.46 134.21,-33.41 207.6,-33.41 187.33,0 339.62,69.02 457.38,206.51 134.76,157.76 202.13,359.33 202.13,604.19 0,234.44 -58.6,431.1 -176.38,588.84 -134.75,182.41 -315.51,273.35 -542.29,273.35 -72.86,0 -136.4,-8.22 -191.17,-24.65 -54.22,-16.44 -113.94,-46.57 -178.02,-90.38l0 324.83c0,64.64 3.29,103.52 9.86,116.13 7.13,16.43 19.17,27.94 36.16,35.05 16.43,7.13 58.06,10.41 124.89,10.41l75.59 0 0 308.94 -995.84 0 0 -308.94 54.24 0c72.84,0 117.22,-2.74 132.56,-8.76 15.33,-6.03 27.38,-18.08 36.14,-36.7 9.32,-18.63 13.7,-56.97 13.7,-114.49l0 -1430.77 -236.64 0 0 -315.52c115.03,-13.68 213.08,-31.22 294.16,-52.03 80.52,-20.27 162.68,-49.3 245.94,-86l150.09 0zm59.16 502.86l0 518.19c0,81.61 7.67,139.67 23,174.18 15.89,33.97 42.73,61.9 80.52,83.81 37.79,21.36 81.62,32.32 130.92,32.32 86.54,0 158.3,-39.43 215.27,-118.86 57.52,-79.43 86,-199.94 86,-362.08 0,-150.08 -24.65,-261.29 -74.49,-334.13 -49.86,-72.32 -111.2,-108.46 -183.51,-108.46 -83.81,0 -176.38,38.34 -277.72,115.03zm1845.97 -1219.33c81.62,0 150.64,28.48 208.16,86 57.51,56.97 86,125.98 86,207.05 0,82.71 -28.49,152.28 -86,209.25 -57.52,57.51 -126.54,86 -208.16,86 -81.62,0 -150.64,-28.49 -208.16,-86 -57.51,-56.97 -86,-125.98 -86,-207.6 0,-79.97 29.59,-149 88.19,-207.6 59.16,-58.06 127.63,-87.1 205.97,-87.1zm261.29 716.48l0 1183.73c0,56.41 3.29,91.48 9.86,104.08 6.03,12.59 17.52,22.45 34.51,29.57 16.43,7.13 53.68,10.41 111.75,10.41l87.1 0 0 308.94 -992.56 0 0 -308.94 84.9 0c55.33,0 90.94,-2.74 106.27,-8.76 15.33,-6.03 26.84,-15.89 34.51,-29.59 7.13,-13.7 10.95,-41.63 10.95,-83.26l0 -762.49 -236.64 0 0 -302.37c84.36,-4.39 165.43,-13.16 243.21,-27.4 77.24,-13.7 146.81,-30.67 207.6,-49.84 39.44,-12.6 88.19,-33.97 146.25,-64.09l152.28 0zm1402.84 667.18l0 -117.76c0,-70.11 -6.03,-118.32 -17.54,-144.6 -12.05,-26.84 -33.41,-48.76 -64.64,-66.28 -31.22,-17.52 -70.11,-26.3 -116.13,-26.3 -35.6,0 -67.92,6.03 -96.95,17.54 -29.03,11.49 -52.03,26.29 -69.02,44.37 -17.52,18.08 -37.25,53.13 -59.71,105.17 -29.03,65.73 -63.54,112.84 -103.52,141.87 -39.98,28.48 -87.64,42.72 -141.87,42.72 -68.46,0 -124.89,-21.35 -168.71,-64.08 -43.81,-42.73 -65.73,-95.32 -65.73,-158.3 0,-71.22 22.46,-134.76 67.38,-190.08 60.25,-73.95 149.54,-134.21 268.41,-181.32 118.86,-46.56 252.51,-70.11 400.96,-70.11 149,0 275.54,24.11 380.16,71.76 104.08,48.21 176.92,105.72 218.02,172 41.08,66.83 61.89,168.71 61.89,305.1l0 572.43c0,70.65 3.84,115.57 11.51,135.3 7.11,19.72 23.56,37.24 48.21,52.03 24.65,14.79 52.03,22.46 82.16,22.46 30.13,0 70.67,-8.76 121.06,-25.75l0 314.41c-90.94,29.03 -178.57,43.27 -262.38,43.27 -98.6,0 -182.41,-15.88 -252.52,-48.19 -69.57,-32.32 -128.18,-80.52 -175.29,-145.16 -107.36,69.56 -204.32,119.41 -291.97,148.99 -87.1,29.59 -171.45,44.37 -253.07,44.37 -153.38,0 -277.17,-43.27 -371.94,-129.27 -94.21,-86 -141.32,-192.27 -141.32,-318.25 0,-71.75 16.43,-137.49 49.3,-197.19 32.86,-59.71 81.62,-112.29 146.25,-157.21 65.18,-44.92 165.42,-84.36 301.81,-119.41 135.86,-34.51 300.73,-59.71 495.19,-74.51zm0 266.22c-140.78,20.27 -240.48,41.08 -298.54,61.9 -58.06,20.81 -99.7,46.56 -124.35,78.32 -24.64,31.78 -37.24,64.09 -37.24,96.97 0,42.72 15.89,78.32 48.21,107.35 32.32,29.03 76.13,43.28 130.91,43.28 35.62,0 76.7,-9.32 123.81,-27.4 46.56,-18.08 99.14,-44.92 157.21,-79.97l0 -280.46zm2016.88 -897.24l209.79 0 129.81 446.43 -302.37 122.14c-57.51,-92.02 -129.81,-164.32 -216.91,-216.91 -87.1,-52.59 -173.65,-78.89 -259.1,-78.89 -56.43,0 -98.6,9.32 -126.54,28.49 -27.94,18.62 -41.63,41.63 -41.63,67.92 0,21.91 9.86,42.73 29.59,61.35 19.72,19.17 60.8,39.44 122.7,60.25l440.4 157.21c78.33,27.4 152.83,62.44 224.59,104.08 71.76,41.63 125.44,92.57 161.05,152.83 35.6,60.25 53.68,130.92 53.68,211.98 0,144.62 -55.33,264.03 -166.52,356.6 -130.37,109 -293.06,163.24 -487.51,163.24 -166.52,0 -311.68,-41.63 -435.48,-124.35l-44.92 88.19 -213.08 0 -197.19 -523.11 302.37 -127.63c75.59,117.76 169.26,209.79 279.91,277.17 110.65,67.37 212.54,100.78 305.65,100.78 57.52,0 105.72,-13.14 145.16,-39.98 30.13,-21.36 44.92,-46.56 44.92,-75.59 0,-24.65 -11.51,-47.65 -35.06,-70.11 -23,-22.46 -74.49,-47.66 -153.92,-75.6l-346.19 -120.51c-191.16,-66.83 -320.99,-138.59 -390,-214.72 -69.03,-76.7 -103.54,-167.08 -103.54,-271.7 0,-134.21 53.68,-247.05 161.6,-339.07 123.24,-104.62 274.97,-156.67 455.19,-156.67 160.49,0 297.43,35.6 411.92,107.36l41.63 -71.21z"/>
   <path class="fil28" d="M6343 3294.04l1867.89 0 255.26 711 -290.86 104.62c-49.3,-116.67 -106.81,-210.34 -172.55,-281 -65.73,-71.21 -138.57,-118.32 -218,-141.87 -79.43,-23 -172.55,-34.51 -278.27,-34.51l-341.81 0 0 562.02 111.2 0c83.26,0 139.67,-6.03 168.7,-18.63 29.03,-12.05 49.86,-31.76 62.44,-58.06 12.6,-26.29 19.17,-78.33 19.17,-156.65l0 -85.46 289.22 0 0 946.54 -289.22 0 0 -96.95c0,-65.73 -7.67,-113.94 -23,-144.06 -15.33,-30.13 -36.16,-50.94 -62.44,-61.35 -26.84,-10.95 -85.46,-16.43 -176.38,-16.43l-99.7 0 0 514.35c0,54.22 2.74,87.65 8.22,99.7 4.92,11.49 15.89,20.81 31.22,26.84 15.33,6.57 48.75,9.86 100.24,9.86l187.89 0c140.22,0 258,-20.27 354.4,-60.25 96.41,-40.54 182.41,-105.72 257.46,-195 75.59,-89.84 133.65,-196.65 174.19,-319.9l293.05 100.79 -293.6 832.61 -1934.72 0 0 -308.94 55.87 0c75.05,0 125.44,-5.48 151.19,-15.89 25.75,-10.95 43.81,-29.59 54.22,-56.41 5.48,-15.89 8.22,-61.36 8.22,-136.4l0 -1220.43c0,-66.28 -4.38,-110.1 -13.7,-130.37 -8.76,-20.27 -23,-35.6 -42.73,-45.47 -19.17,-10.4 -56.97,-15.33 -113.38,-15.33l-99.7 0 0 -308.94zm2353.77 0l1091.15 0 0 308.94 -99.69 0c-57.52,0 -95.86,4.94 -114.49,15.33 -18.62,9.87 -32.86,26.3 -41.62,48.21 -9.32,21.92 -13.7,64.09 -13.7,125.98l0 1239.6c0,67.38 3.83,110.65 10.95,130.37 7.67,19.17 20.81,32.87 38.89,41.63 22.46,12.6 55.87,19.17 100.79,19.17l118.86 0 0 308.94 -1091.15 0 0 -308.94 88.73 0c63.54,0 105.17,-4.38 124.35,-13.7 19.17,-9.32 33.41,-23.56 42.73,-43.27 9.3,-19.73 13.68,-59.16 13.68,-118.32l0 -1244.53c0,-69.57 -4.38,-115.03 -13.68,-136.95 -9.32,-21.91 -24.65,-38.89 -46.02,-50.94 -15.33,-8.22 -51.49,-12.6 -109.56,-12.6l-100.24 0 0 -308.94zm1327.24 308.94l0 -308.94 1271.92 0c194.46,0 347.29,22.46 459.03,67.92 111.19,45.46 196.64,111.19 256.35,196.1 59.71,84.9 89.84,178.03 89.84,279.92 0,73.94 -15.89,144.06 -47.66,210.34 -31.76,66.28 -77.24,124.89 -136.94,175.29 -59.71,50.95 -138.03,93.13 -236.09,125.98 105.17,26.84 185.16,56.43 241.02,88.19 80.52,44.92 144.06,107.92 191.17,188.98 47.11,80.52 70.67,170.35 70.67,270.05 0,118.87 -35.6,228.43 -107.36,328.11 -71.76,100.24 -173.1,176.38 -304.02,228.43 -130.91,52.59 -322.08,78.87 -574.61,78.87l-1173.32 0 0 -308.94 88.74 0c59.16,0 99.14,-4.94 119.95,-15.35 21.36,-9.86 36.16,-24.64 44.37,-43.27 8.78,-18.62 13.16,-60.8 13.16,-125.98l0 -1249.46c0,-66.27 -4.38,-108.46 -13.16,-127.08 -8.21,-18.08 -23,-32.32 -44.37,-43.27 -20.81,-10.41 -60.8,-15.89 -119.95,-15.89l-88.74 0zm818.37 598.16l245.95 0c128.18,0 223.49,-10.95 284.84,-32.32 61.89,-21.36 107.91,-54.22 139.13,-97.49 31.22,-43.82 46.56,-94.22 46.56,-151.19 0,-59.16 -14.78,-109.56 -44.37,-151.73 -29.03,-41.63 -71.76,-71.76 -127.63,-89.29 -55.32,-18.08 -155.02,-26.84 -298.53,-26.84l-245.95 0 0 548.86zm0 325.38l0 486.41c1.1,68.48 3.84,109.01 8.22,120.51 4.92,15.33 13.68,25.75 26.29,31.78 12.05,6.02 45.46,8.76 100.24,8.76l163.24 0c94.76,0 173.65,-8.76 236.09,-26.84 62.44,-17.52 115.57,-54.22 159.4,-110.1 43.82,-55.87 65.73,-122.71 65.73,-201.03 0,-66.83 -15.33,-123.25 -46.56,-169.27 -30.68,-46.02 -77.24,-81.06 -139.14,-104.62 -61.89,-23.56 -156.65,-35.6 -283.73,-35.6l-289.78 0zm1551.83 -1232.48l1013.92 0 389.46 1356.81 399.32 -1356.81 1033.65 0 0 308.94 -110.65 0c-59.71,0 -101.35,12.6 -124.35,37.79 -23,25.2 -34.51,72.32 -34.51,141.87l0 1271.92c0,55.87 3.29,90.38 9.86,104.62 9.32,21.36 23,36.16 39.98,44.92 23.56,12.6 54.24,19.17 93.13,19.17l126.54 0 0 308.94 -1078.02 0 0 -308.94 83.27 0c61.35,0 102.43,-4.94 123.79,-14.25 21.36,-9.86 37.24,-24.64 47.1,-44.37 10.41,-19.72 15.35,-56.41 15.35,-110.1l0 -1377.64 -545.59 1855.29 -308.94 0 -529.14 -1795.59 0 1361.21c0,31.22 5.48,55.33 16.43,72.3 11.51,16.98 27.4,30.13 47.66,39.44 20.81,9.32 53.68,13.7 99.14,13.7l106.27 0 0 308.94 -913.68 0 0 -308.94 90.38 0c56.97,0 95.86,-4.94 117.22,-15.35 20.82,-9.86 36.16,-26.29 46.57,-48.19 10.4,-21.92 15.33,-62.44 15.33,-121.06l0 -1256.03c0,-57.51 -3.84,-95.3 -11.51,-112.29 -9.32,-23.56 -24.1,-40.54 -43.27,-51.49 -19.72,-10.41 -49.86,-15.89 -92.03,-15.89l-122.7 0 0 -308.94zm4356.42 -75.59l211.43 0 22.46 75.59 1264.8 0 27.4 -75.59 211.43 0 274.98 786.59 -295.79 104.62c-66.28,-130.37 -113.94,-215.27 -142.97,-254.71 -56.41,-77.78 -122.16,-139.67 -196.1,-184.05 -55.33,-34.51 -110.65,-51.49 -165.43,-51.49 -25.75,0 -43.27,6.03 -53.14,18.63 -9.3,12.05 -14.24,39.98 -14.24,83.81l0 1285.07c0,76.13 2.74,123.24 8.22,142.41 5.48,19.72 14.24,34.51 27.38,46.02 12.6,10.95 30.68,18.62 53.14,22.46 22.46,3.83 82.71,5.48 180.76,5.48l0 308.94 -1091.16 0 0 -308.94 66.28 0c72.86,0 119.95,-4.38 140.22,-13.7 20.27,-8.76 36.16,-25.19 47.11,-48.21 10.41,-23 15.89,-70.67 15.89,-142.97l0 -1314.1c0,-37.24 -4.38,-60.8 -13.14,-70.65 -8.22,-9.32 -26.84,-14.25 -54.24,-14.25 -55.87,0 -118.32,20.82 -186.78,62.44 -69.03,41.63 -130.38,100.25 -184.06,176.38 -21.35,29.59 -66.83,113.4 -136.38,251.43l-293.06 -104.62 274.98 -786.59zm3597.74 1719.99l219.66 220.75c-126,143.52 -254.71,248.14 -385.63,312.22 -130.92,64.65 -272.79,96.97 -424.52,96.97 -243.75,0 -449.16,-82.17 -615.69,-247.05 -167.08,-164.87 -250.33,-363.72 -250.33,-597.62 0,-153.37 37.25,-293.6 112.29,-421.23 75.05,-127.63 179.13,-227.33 311.68,-299.09 133.11,-71.75 283.2,-107.91 451.36,-107.91 107.36,0 204.86,15.33 292.51,46.56 87.64,30.68 164.87,75.05 230.61,132.57 65.73,56.97 118.87,126.53 158.86,208.15 40.54,81.62 67.92,165.98 82.71,253.08 6.57,43.81 9.86,112.83 9.86,207.6l-1081.29 0c2.19,135.29 42.18,244.84 119.41,328.11 77.24,83.81 172.54,125.43 284.29,125.43 71.76,0 150.09,-21.36 234.44,-64.08 84.36,-43.28 167.62,-107.92 249.78,-194.46zm-319.35 -464.51c-7.67,-63.54 -23,-113.38 -46,-149.54 -23.01,-36.7 -54.24,-65.73 -93.13,-87.65 -39.44,-21.35 -79.97,-32.32 -123.25,-32.32 -44.91,0 -88.19,10.97 -130.37,33.41 -41.63,21.92 -75.05,52.05 -100.24,90.38 -25.19,37.81 -41.63,86.55 -49.3,145.71l542.29 0zm1482.26 -578.45l0 233.35c86,-90.38 160.49,-151.73 223.49,-184.05 62.44,-32.87 123.25,-49.3 181.32,-49.3 52.57,0 99.69,12.05 140.77,36.16 41.63,24.1 74.51,58.6 98.6,103.52 24.11,44.92 36.16,93.13 36.16,144.6 0,67.38 -22.46,128.19 -66.83,182.97 -44.38,54.22 -106.82,81.61 -187.35,81.61 -21.35,0 -40.53,-1.64 -57.51,-4.92 -16.43,-3.29 -51.49,-13.7 -105.17,-31.78 -27.94,-8.21 -50.94,-12.59 -69.02,-12.59 -27.94,0 -73.95,17.52 -138.59,52.59l0 625.54c0,53.14 3.84,87.65 12.05,103.52 7.67,16.44 20.82,27.94 38.35,35.62 18.08,7.11 56.97,10.95 116.67,10.95l69.57 0 0 308.94 -985.99 0 0 -308.94 82.17 0c59.16,0 95.86,-3.29 110.1,-9.86 14.79,-6.03 25.75,-17.54 32.87,-33.43 7.67,-15.88 11.49,-51.48 11.49,-106.81l0 -734 -236.64 0 0 -308.4c174.19,-10.95 354.95,-55.87 542.84,-135.3l150.64 0zm1778.06 667.18l0 -117.76c0,-70.11 -6.03,-118.32 -17.54,-144.6 -12.05,-26.84 -33.41,-48.76 -64.64,-66.28 -31.22,-17.52 -70.11,-26.3 -116.13,-26.3 -35.6,0 -67.92,6.03 -96.95,17.54 -29.03,11.49 -52.03,26.29 -69.02,44.37 -17.52,18.08 -37.25,53.13 -59.71,105.17 -29.03,65.73 -63.54,112.84 -103.52,141.87 -39.98,28.48 -87.64,42.72 -141.87,42.72 -68.46,0 -124.89,-21.35 -168.71,-64.08 -43.81,-42.73 -65.73,-95.32 -65.73,-158.3 0,-71.22 22.46,-134.76 67.38,-190.08 60.25,-73.95 149.54,-134.21 268.41,-181.32 118.86,-46.56 252.51,-70.11 400.96,-70.11 149,0 275.54,24.11 380.16,71.76 104.08,48.21 176.92,105.72 218.02,172 41.08,66.83 61.89,168.71 61.89,305.1l0 572.43c0,70.65 3.84,115.57 11.51,135.3 7.11,19.72 23.56,37.24 48.21,52.03 24.65,14.79 52.03,22.46 82.16,22.46 30.13,0 70.67,-8.76 121.06,-25.75l0 314.41c-90.94,29.03 -178.57,43.27 -262.38,43.27 -98.6,0 -182.41,-15.88 -252.52,-48.19 -69.57,-32.32 -128.18,-80.52 -175.29,-145.16 -107.36,69.56 -204.32,119.41 -291.97,148.99 -87.1,29.59 -171.45,44.37 -253.07,44.37 -153.38,0 -277.17,-43.27 -371.94,-129.27 -94.21,-86 -141.32,-192.27 -141.32,-318.25 0,-71.75 16.43,-137.49 49.3,-197.19 32.86,-59.71 81.62,-112.29 146.25,-157.21 65.18,-44.92 165.42,-84.36 301.81,-119.41 135.86,-34.51 300.73,-59.71 495.19,-74.51zm0 266.22c-140.78,20.27 -240.48,41.08 -298.54,61.9 -58.06,20.81 -99.7,46.56 -124.35,78.32 -24.64,31.78 -37.24,64.09 -37.24,96.97 0,42.72 15.89,78.32 48.21,107.35 32.32,29.03 76.13,43.28 130.91,43.28 35.62,0 76.7,-9.32 123.81,-27.4 46.56,-18.08 99.14,-44.92 157.21,-79.97l0 -280.46zm1623.58 -933.4l0 180.76c122.14,-76.14 215.27,-124.89 279.91,-147.35 64.64,-22.46 134.21,-33.41 207.6,-33.41 187.33,0 339.62,69.02 457.38,206.51 134.76,157.76 202.13,359.33 202.13,604.19 0,234.44 -58.6,431.1 -176.38,588.84 -134.75,182.41 -315.51,273.35 -542.29,273.35 -72.86,0 -136.4,-8.22 -191.17,-24.65 -54.22,-16.44 -113.94,-46.57 -178.02,-90.38l0 324.83c0,64.64 3.29,103.52 9.86,116.13 7.13,16.43 19.17,27.94 36.16,35.05 16.43,7.13 58.06,10.41 124.89,10.41l75.59 0 0 308.94 -995.84 0 0 -308.94 54.24 0c72.84,0 117.22,-2.74 132.56,-8.76 15.33,-6.03 27.38,-18.08 36.14,-36.7 9.32,-18.63 13.7,-56.97 13.7,-114.49l0 -1430.77 -236.64 0 0 -315.52c115.03,-13.68 213.08,-31.22 294.16,-52.03 80.52,-20.27 162.68,-49.3 245.94,-86l150.09 0zm59.16 502.86l0 518.19c0,81.61 7.67,139.67 23,174.18 15.89,33.97 42.73,61.9 80.52,83.81 37.79,21.36 81.62,32.32 130.92,32.32 86.54,0 158.3,-39.43 215.27,-118.86 57.52,-79.43 86,-199.94 86,-362.08 0,-150.08 -24.65,-261.29 -74.49,-334.13 -49.86,-72.32 -111.2,-108.46 -183.51,-108.46 -83.81,0 -176.38,38.34 -277.72,115.03zm1845.97 -1219.33c81.62,0 150.64,28.48 208.16,86 57.51,56.97 86,125.98 86,207.05 0,82.71 -28.49,152.28 -86,209.25 -57.52,57.51 -126.54,86 -208.16,86 -81.62,0 -150.64,-28.49 -208.16,-86 -57.51,-56.97 -86,-125.98 -86,-207.6 0,-79.97 29.59,-149 88.19,-207.6 59.16,-58.06 127.63,-87.1 205.97,-87.1zm261.29 716.48l0 1183.73c0,56.41 3.29,91.48 9.86,104.08 6.03,12.59 17.52,22.45 34.51,29.57 16.43,7.13 53.68,10.41 111.75,10.41l87.1 0 0 308.94 -992.56 0 0 -308.94 84.9 0c55.33,0 90.94,-2.74 106.27,-8.76 15.33,-6.03 26.84,-15.89 34.51,-29.59 7.13,-13.7 10.95,-41.63 10.95,-83.26l0 -762.49 -236.64 0 0 -302.37c84.36,-4.39 165.43,-13.16 243.21,-27.4 77.24,-13.7 146.81,-30.67 207.6,-49.84 39.44,-12.6 88.19,-33.97 146.25,-64.09l152.28 0zm1402.84 667.18l0 -117.76c0,-70.11 -6.03,-118.32 -17.54,-144.6 -12.05,-26.84 -33.41,-48.76 -64.64,-66.28 -31.22,-17.52 -70.11,-26.3 -116.13,-26.3 -35.6,0 -67.92,6.03 -96.95,17.54 -29.03,11.49 -52.03,26.29 -69.02,44.37 -17.52,18.08 -37.25,53.13 -59.71,105.17 -29.03,65.73 -63.54,112.84 -103.52,141.87 -39.98,28.48 -87.64,42.72 -141.87,42.72 -68.46,0 -124.89,-21.35 -168.71,-64.08 -43.81,-42.73 -65.73,-95.32 -65.73,-158.3 0,-71.22 22.46,-134.76 67.38,-190.08 60.25,-73.95 149.54,-134.21 268.41,-181.32 118.86,-46.56 252.51,-70.11 400.96,-70.11 149,0 275.54,24.11 380.16,71.76 104.08,48.21 176.92,105.72 218.02,172 41.08,66.83 61.89,168.71 61.89,305.1l0 572.43c0,70.65 3.84,115.57 11.51,135.3 7.11,19.72 23.56,37.24 48.21,52.03 24.65,14.79 52.03,22.46 82.16,22.46 30.13,0 70.67,-8.76 121.06,-25.75l0 314.41c-90.94,29.03 -178.57,43.27 -262.38,43.27 -98.6,0 -182.41,-15.88 -252.52,-48.19 -69.57,-32.32 -128.18,-80.52 -175.29,-145.16 -107.36,69.56 -204.32,119.41 -291.97,148.99 -87.1,29.59 -171.45,44.37 -253.07,44.37 -153.38,0 -277.17,-43.27 -371.94,-129.27 -94.21,-86 -141.32,-192.27 -141.32,-318.25 0,-71.75 16.43,-137.49 49.3,-197.19 32.86,-59.71 81.62,-112.29 146.25,-157.21 65.18,-44.92 165.42,-84.36 301.81,-119.41 135.86,-34.51 300.73,-59.71 495.19,-74.51zm0 266.22c-140.78,20.27 -240.48,41.08 -298.54,61.9 -58.06,20.81 -99.7,46.56 -124.35,78.32 -24.64,31.78 -37.24,64.09 -37.24,96.97 0,42.72 15.89,78.32 48.21,107.35 32.32,29.03 76.13,43.28 130.91,43.28 35.62,0 76.7,-9.32 123.81,-27.4 46.56,-18.08 99.14,-44.92 157.21,-79.97l0 -280.46zm2016.88 -897.24l209.79 0 129.81 446.43 -302.37 122.14c-57.51,-92.02 -129.81,-164.32 -216.91,-216.91 -87.1,-52.59 -173.65,-78.89 -259.1,-78.89 -56.43,0 -98.6,9.32 -126.54,28.49 -27.94,18.62 -41.63,41.63 -41.63,67.92 0,21.91 9.86,42.73 29.59,61.35 19.72,19.17 60.8,39.44 122.7,60.25l440.4 157.21c78.33,27.4 152.83,62.44 224.59,104.08 71.76,41.63 125.44,92.57 161.05,152.83 35.6,60.25 53.68,130.92 53.68,211.98 0,144.62 -55.33,264.03 -166.52,356.6 -130.37,109 -293.06,163.24 -487.51,163.24 -166.52,0 -311.68,-41.63 -435.48,-124.35l-44.92 88.19 -213.08 0 -197.19 -523.11 302.37 -127.63c75.59,117.76 169.26,209.79 279.91,277.17 110.65,67.37 212.54,100.78 305.65,100.78 57.52,0 105.72,-13.14 145.16,-39.98 30.13,-21.36 44.92,-46.56 44.92,-75.59 0,-24.65 -11.51,-47.65 -35.06,-70.11 -23,-22.46 -74.49,-47.66 -153.92,-75.6l-346.19 -120.51c-191.16,-66.83 -320.99,-138.59 -390,-214.72 -69.03,-76.7 -103.54,-167.08 -103.54,-271.7 0,-134.21 53.68,-247.05 161.6,-339.07 123.24,-104.62 274.97,-156.67 455.19,-156.67 160.49,0 297.43,35.6 411.92,107.36l41.63 -71.21z"/>
  </g>
 </g>
</svg>
