<?xml version="1.0" encoding="UTF-8"?>
<!DOCTYPE svg PUBLIC "-//W3C//DTD SVG 1.1//EN" "http://www.w3.org/Graphics/SVG/1.1/DTD/svg11.dtd">
<!-- Creator: CorelDRAW 2020 (64 Bit) -->
<svg xmlns="http://www.w3.org/2000/svg" xml:space="preserve" width="46.4821mm" height="71.2835mm" version="1.1" style="shape-rendering:geometricPrecision; text-rendering:geometricPrecision; image-rendering:optimizeQuality; fill-rule:evenodd; clip-rule:evenodd"
viewBox="0 0 4359.01 6684.84"
 xmlns:xlink="http://www.w3.org/1999/xlink"
 xmlns:xodm="http://www.corel.com/coreldraw/odm/2003">
 <defs>
  <style type="text/css">
   <![CDATA[
    .fil9 {fill:#00161D}
    .fil18 {fill:#0017C6}
    .fil15 {fill:#0038B5}
    .fil20 {fill:#0051CF}
    .fil17 {fill:#006AFB}
    .fil21 {fill:#012BD7}
    .fil7 {fill:#014B00}
    .fil8 {fill:#0154AC}
    .fil4 {fill:#017301}
    .fil12 {fill:#0176E8}
    .fil1 {fill:#0CA3FC}
    .fil22 {fill:#162C37}
    .fil0 {fill:#62BC05}
    .fil13 {fill:#8EBBCD}
    .fil14 {fill:#A20000}
    .fil19 {fill:#CC4C0B}
    .fil3 {fill:#CD0001}
    .fil10 {fill:#E60000}
    .fil23 {fill:#EBE45C}
    .fil26 {fill:#F04B31}
    .fil25 {fill:#F5706C}
    .fil24 {fill:#F5B014}
    .fil2 {fill:#FD2501}
    .fil11 {fill:#FE7401}
    .fil5 {fill:#FED501}
    .fil16 {fill:#FEFEFE}
    .fil6 {fill:#FF9D01}
   ]]>
  </style>
 </defs>
 <g id="Camada_x0020_1">
  <metadata id="CorelCorpID_0Corel-Layer"/>
  <g id="_1940437543328">
   <path class="fil0" d="M20.9 2423.88c-0.91,-82.76 -15.58,-61.65 19.73,-134.52 40.78,-84.18 56.3,-128.52 114.48,-210.79 24.12,-34.1 34.17,-72.19 58.41,-103.18 27.05,-84.78 84.93,-166.65 172.5,-197.75 169.55,-60.21 389.41,131.38 479.94,245.76l109.64 168.39c15.82,27.81 14.25,43.44 36.52,60.67 -1.53,-302.94 -18.92,-369.63 98.97,-655.47 121.96,-295.73 223.6,-461.15 434.84,-708.49 55.62,-65.12 220.11,-216.99 301.75,-269.27 108.56,-69.52 246.36,-171.93 372.85,-201.73 10.13,95.37 -6.5,199.2 -5.33,285.55 2.43,179.29 -7.51,131.26 -20.13,289.46l21.95 -107.22c6.37,-45.58 5.95,-76 9.12,-126.19 8.85,-140.25 25.39,-364.21 8.57,-502.74 -7.78,-64.12 -21.78,-195.62 -17.05,-253.92 -280.03,-21.42 -743.49,103.77 -950.23,210.29 -135,69.56 -256.29,132.77 -367.22,212.96 -143.47,103.7 -336.65,283.94 -442.21,430.88l-170.03 266.54c-85.74,149.44 -133.15,226.03 -179.13,400.52 -11.49,43.59 -24.82,67.05 -36.44,106.23 -52.21,176.02 -101.74,708.95 -51.51,794.04z"/>
   <path class="fil1" d="M2807.57 2643.49c-18.04,-9.9 -11.23,-4.57 -21.86,-22.82 -35.8,-61.46 -14.19,-148.15 -22.62,-215.83 -37.41,-81.13 -131.48,-57.45 -210.46,-33.22 -36.55,11.23 -77.78,23.29 -118.22,32.93 -42.57,10.14 -82.68,10.31 -124.77,25.07l-241.47 13.53c-4.24,118.69 36.92,218.85 55.97,330.68 8.96,52.55 34.88,97.94 45.88,152.69 19.33,96.19 39.83,118.67 44.59,145.07 35.29,31.95 68.09,142.22 0.99,163.13 -40.93,12.75 -73.17,-3.36 -92.58,-22.59 -24.97,-24.74 -19.99,-38.37 -62.63,-55.78 -66.82,-27.27 -143.72,9.51 -175.82,47.57 -47.55,56.37 -40.46,108.96 -37.68,200.33 40.5,81.43 69.41,125.39 168.67,154.29 34.95,10.17 108.38,17.91 146.6,11.71 51.52,-8.34 62.5,-30.04 114.48,-42.75 20.83,-41.01 39.95,-24.2 74.76,-87.65 15.62,-28.46 27.57,-75.64 37.73,-112.88 12.65,-46.35 25.89,-76.09 68.31,-88.99 29.89,-9.08 109.35,-13.96 129.43,-3 87.42,7.99 178.71,102.28 190.53,170.39 14.32,4.54 6.56,-0.2 14.39,19.62 1.66,4.18 7.63,28.04 8.89,33.54 5.63,24.58 9.83,41.74 7.14,66.34 16.83,29.61 9.99,99.5 5.01,130 -8.28,50.74 -19.38,68.3 -35.41,111.32l-8.16 28.2c118.48,-16.42 457.24,-238.87 533.03,-299.77 111.76,-89.82 269.26,-247.5 361.6,-361 21.78,-26.77 26.41,-43.7 52.07,-62.12 11.31,-21.45 31.98,-40.9 48.02,-60.34l82.96 -140.41c3.95,-11.49 143.62,-263.02 167.63,-358.16l73.99 -218.54c0.76,-1.61 2.06,-3.62 2.84,-5.14l5.9 -8.97c5.04,-11.26 1.99,2.31 3.24,-12.89 2.96,-35.64 41.41,23.97 -3.25,-9.56 -59.27,-1.19 -177.54,37.1 -233.16,53 -39.01,11.16 -70.05,30.83 -106.87,38.27 -55.2,11.16 -85.84,-12.48 -116.69,-21.6 -25.85,-4.58 -68.2,-35.41 -84.31,-55.67 -16.1,-20.26 -33.49,-74.41 -34.51,-99.47 -7.86,-193.26 195.47,-188.79 151.94,-363.88 -7.17,-28.85 -97.7,-134.92 -113.59,-149.47 -41.06,-43.87 -313.11,-131.81 -440.47,120.03 -44.88,88.74 -34.64,190.66 1.43,276.06 51.16,121.08 259.72,230.14 255.82,411.42 -2.57,119.51 -45.26,169.33 -110.47,222.24 -99.26,80.56 -257.21,121.61 -381.65,40.61 -33.53,-21.82 -72.86,-46 -77.19,-85.57z"/>
   <path class="fil2" d="M2195.08 992.49c-7.55,45.77 -31.36,85.55 -94.47,70.14 -61.87,-15.11 -78.65,-59.7 -94.26,-84.87 -37.93,-61.19 -165.57,-87.36 -263.59,-57.2 -144.77,44.54 -267.61,249.23 -212.09,448.91l-3.12 -61.42c45.18,29.85 56.66,71.16 129.1,92.1 66.95,19.36 127.89,10.02 175.34,-19.52 79.67,-49.59 171.9,-151.82 316.65,-107.25 189.98,58.48 276.07,282.01 192.37,402.69 -37.72,54.39 -66.45,74.16 -147.43,73.57l-0.5 -29.71c-8.84,58.22 -24.46,105.23 -40.46,156.81 -17.38,56.04 -21.68,113.03 -34.44,172.13 42.18,-4.29 30.89,-6.61 81.31,-23.97 143.61,-49.46 228.31,-100.79 338.09,-144.77l219.59 -145.59c129.82,-92.95 381.26,-349.72 412.32,-551.69 10.21,-88.1 30.3,-102.57 22.08,-209.32 -28.31,-368.1 -230.61,-615.89 -492.98,-846 -9.7,-8.51 -22.77,-18.39 -31.77,-23.98l-92.35 -55.53 -36.95 -13.16c-105.89,-21.07 -209.74,-27.61 -319.85,-32.44 -4.73,58.3 9.27,189.81 17.05,253.92 16.81,138.54 0.28,362.49 -8.57,502.74 -3.17,50.19 -2.75,80.61 -9.12,126.19l-21.95 107.22z"/>
   <path class="fil3" d="M3169.49 1182.84c-31.07,201.97 -282.51,458.73 -412.32,551.69l-219.59 145.59c-109.78,43.97 -194.48,95.31 -338.09,144.77 -50.42,17.36 -39.12,19.68 -81.31,23.97 -9.99,37.99 -25.83,127.9 -31.15,159.01l-4.78 -35.65c-17.27,44.35 -9.72,208.34 -14.07,270.93l241.47 -13.53c-1.68,-2.13 -6.49,-6.9 -6.22,-5.23l77.35 -28.88c-59.72,-1.69 -189.12,34.12 -234.87,18.43 -30.49,-10.45 -13.22,14.8 -21.45,-21.46 -4.07,3.39 -1.09,13.48 -26.44,22.53 -37,-298.46 42.39,-215.27 239.85,-248.94 30,-5.12 92.05,-16.55 119.04,-27.09 41.08,-16.04 46.05,-29.21 110.33,-30.95 80.54,-2.18 199.8,-4.82 257.72,29.96 76,45.65 65.52,151.25 45.9,213.18 12.85,34.41 -31.8,88.86 -43.79,120.5 -26.53,69.98 -12.59,104.42 -19.51,171.83 4.33,39.57 43.66,63.75 77.19,85.57 124.43,81.01 282.38,39.95 381.65,-40.61 65.21,-52.92 107.9,-102.73 110.47,-222.24 3.9,-181.28 -204.66,-290.35 -255.82,-411.42 -36.08,-85.4 -46.32,-187.32 -1.43,-276.06 127.36,-251.83 399.41,-163.9 440.47,-120.03 46.07,23.2 98.69,77.56 122.68,127.51 19.94,41.52 31.95,165.68 12.62,216.02 -6.78,78.5 -75.96,157.28 -43.21,252.83 37.22,108.58 111.96,48.17 191.08,24.52 39.86,-11.92 77.58,-15.43 123.02,-28.1 77.74,-21.69 312.43,-90.45 377.07,-86.4l-23.55 -41.13c-2.92,-10.36 -1.35,-3.89 -2.58,-14.46 -2.03,-17.47 0.71,-45.6 0.87,-64.62 0.85,-100.89 -23.78,-248.99 -41.95,-345.29 -12.31,-65.32 -49.78,-125.22 -78.42,-183.37 -85.45,-173.52 -248.07,-152.94 -306.04,-215.42 -130.07,-140.16 -119.29,-180.46 -178.35,-282.17 -32.25,-55.52 -114.72,-79.48 -158.58,-103.25 -15.75,-8.54 -23.48,-16.57 -36.92,-25.93 -27.86,29.72 -32.37,30.71 -66.85,54.79 -49.66,34.7 -4.53,159.54 -87.77,158.72 -89.57,-0.88 -69.71,-8.09 -65.53,36.43 -82.24,-6.39 5.81,11.26 -87.99,-8.27l-31.84 41.67c-0.76,0.94 -3.48,6.28 -4.07,4.88 -0.62,-1.49 -2.78,3.55 -4.32,5.19z"/>
   <path class="fil4" d="M213.53 1975.38c37.11,45.58 -7.95,273.11 282.09,260.36 182.95,-8.06 240.41,-106.1 418.72,65.28 148.17,142.41 -46.21,239.51 -31.15,403.09 7.62,82.83 62.13,117.11 151.67,121.87 93.8,4.99 178.09,1.32 223.22,-57.09 38.65,-50.03 39.95,-164.95 7.99,-216.94 -33.17,-53.96 -97.11,-102.19 -31.34,-196.42 43.71,-62.63 276.91,-135.16 365.99,-182.56 178.51,-94.99 324.04,-209 461.72,-354.43 34.05,-35.97 61.07,-53.28 84.51,-105.49 14.62,-32.54 6.47,-31.93 33.31,-44.85l6.69 -41.16c-12.35,-92.77 -104.99,-110.12 -167.39,-66.29 -59.87,42.06 -93.9,84.33 -198.57,81.32 -146.11,-4.19 -254.1,-139.63 -290.32,-272.59 -55.52,-199.67 67.32,-404.37 212.09,-448.91 98.02,-30.16 225.66,-3.99 263.59,57.2 15.6,25.17 32.38,69.76 94.26,84.87 63.11,15.42 86.92,-24.36 94.47,-70.14 12.62,-158.19 22.56,-110.17 20.13,-289.46 -1.17,-86.34 15.45,-190.17 5.33,-285.55 -126.49,29.79 -264.3,132.21 -372.85,201.73 -81.64,52.28 -246.13,204.16 -301.75,269.27 -211.24,247.34 -312.88,412.76 -434.84,708.49 -117.89,285.85 -100.5,352.53 -98.97,655.47 -22.26,-17.24 -20.7,-32.87 -36.52,-60.67l-109.64 -168.39c-90.52,-114.38 -310.39,-305.98 -479.94,-245.76 -87.57,31.1 -145.45,112.97 -172.5,197.75z"/>
   <path class="fil5" d="M377.13 2411.97c-17.86,43.11 -6.45,7.59 6.99,22.23 27.14,-1.91 24.73,-4.83 39.73,-7.93l-88.09 17.54c12.55,4.77 20.2,5.81 33.6,12.28 -1.51,102.49 -8.32,13.33 11.8,84.62 56.52,200.24 83.85,296.81 195.42,478.85l104.52 165.86c9.22,13.78 15.29,27.44 23.89,39.97l61.01 73.48c15.54,18.31 17.59,23.31 30.17,41.51 55.59,80.46 321.22,345.18 406.19,403.52 160.71,110.34 162.02,117.69 367.32,166.34 65.99,15.64 252.04,8.37 319.39,-8.15l165.49 -41.7c91.2,-34.38 152.69,-133.12 246.16,-160.73 46.26,-13.66 158.08,-55.87 185.59,-82.2 69.57,-66.63 146.45,-71.15 175.66,-213.03 -1.09,-39.94 -6.78,-123.62 -31.47,-142.07 -0.53,-0.4 -15.53,-7.06 -19.91,-9.68 -20.47,-12.22 -11.88,-4.75 -23.72,-17.68 -20.09,-10.96 -99.55,-6.08 -129.43,3 -42.42,12.89 -55.66,42.63 -68.31,88.99 -10.16,37.24 -22.1,84.42 -37.73,112.88 -34.81,63.44 -53.93,46.64 -74.76,87.65 -9.1,17.9 -0.01,3.72 -19.62,14.11 -7.19,3.82 -14.77,7.42 -21.6,10.71 -64.28,30.98 -81.46,-0.75 -155.86,52.87 -52.08,37.54 -275.68,-44.61 -313.34,-68.38 -203.19,-128.23 -175.75,-270.24 -94.31,-475.65l86.5 -183.24c60.76,-137.24 134.01,-256.18 137.8,-412.56 -59.19,2.02 -35.13,-10.43 -82.57,-17.77l-267.73 -22.2c-62.65,-8.34 -115.58,-22.46 -157.18,21.22 -53.5,56.18 -15.69,71.07 -16.88,139.93 4.69,25.25 29.89,43.59 41.12,111.45 21.73,131.21 -31.75,262.43 -135.07,311.38 -162.19,76.84 -333.57,77.59 -462.72,-45.53 -214.17,-204.19 -23.6,-383.33 -11.05,-428.3 55.85,-200.09 -304.97,-149.2 -427.01,-123.58z"/>
   <path class="fil6" d="M26.69 2483.18c18.8,103.33 36.15,208.79 64.5,299.97 10.21,32.83 27.8,108.81 41.72,142.09 18.46,44.15 38.6,85.68 57.61,131.3 29.18,70.01 156.3,297.61 200.05,355.34l55.64 86.31c16.15,29.92 1.47,13.03 26.3,27.07 -1.66,-38.84 -13.34,-106.83 33.49,-85.93 19.08,8.52 18.97,24.39 27.83,36.53 14.09,19.3 15.27,10.92 32.58,30.67 20.1,22.92 16.96,58.99 104.02,86.11 22.41,6.99 9.57,4.63 18.57,1.33 1.86,-0.68 6.89,-4.25 8.7,-5.53l9.76 -8.78c1.25,-1.09 3.24,-3.53 5.12,-5 3.06,44.27 10.93,10.32 36.67,51.07 7.3,11.54 8.4,16.6 16.14,22.48 28.73,21.87 14.47,-16.95 40.69,32.79 12.84,24.36 5.11,24.68 24.56,45.73l51.71 50.79c33.98,23.51 38.61,15.93 92.29,98.85 16.57,25.6 9.66,19.11 30.56,41.16l178.85 249.15c79.05,123.81 141.27,165.56 216.06,253.11 21.21,24.83 40.16,31.72 62.32,48.74 18.61,14.3 26.08,23.93 42.13,36.98 25.19,20.46 55.86,39 84.26,58.97 39.83,28.02 257.58,156.47 285.45,130.08 14.1,-16.33 8.6,-5.29 10.45,-36.61 0.84,-14.27 -1.55,-34.59 0.32,-48.24 5.05,-36.97 18.67,-22.83 29.31,-72.14 26.9,-124.79 4.94,-93.73 70.94,-126.29 1.07,-39.92 -3.19,-84.51 8.72,-113.08 45.58,49.53 40.14,229.08 71.22,268.95 0.47,0.6 2.03,2.07 2.55,2.61l17.79 13.4c14.61,16.39 22.13,42.4 34.08,61.93 27.35,44.69 95.57,121.43 127.59,93.14 14.29,-12.63 4.39,-9.15 6.23,-38.83 -2.48,-28.87 -37.55,-144.55 -49.54,-188.34 -14.42,-52.66 -43.11,-122.02 -45.08,-175.97 -28.84,-26.07 -23.97,-45.9 -30.01,-87.47 -4.84,-33.36 -9.01,-63.91 -9.97,-98.33 -1.57,-56.3 -4.52,-151.36 5.83,-204.29 14.75,-75.44 37.84,-90.05 95.61,-118.37 65.64,-32.18 111.06,-5.43 155.9,29.3 128.01,99.12 393.34,5.81 431.64,-331.02 2.69,-24.6 -1.51,-41.76 -7.14,-66.34 -1.26,-5.5 -7.23,-29.36 -8.89,-33.54 -7.83,-19.82 -0.08,-15.08 -14.39,-19.62 -22.4,8.78 -4.18,0.56 -17.37,9.35l-30.06 -20.3 -11.54 40.06c-11.22,-11.11 -2.68,-3.91 -9.8,-14.18 -1.25,-1.8 -4.79,-7.69 -6.08,-9.36 -11.69,-15.18 4.69,-7 -14.82,-14.12 -0.6,29.79 3.24,18.96 -12.61,38.76l-13.16 -31.17c-29.2,141.88 -106.08,146.4 -175.66,213.03 -27.51,26.32 -139.33,68.53 -185.59,82.2 -93.47,27.61 -154.96,126.35 -246.16,160.73l-165.49 41.7c-67.35,16.51 -253.4,23.79 -319.39,8.15 -205.3,-48.65 -206.61,-56 -367.32,-166.34 -84.97,-58.34 -350.6,-323.06 -406.19,-403.52 -12.58,-18.19 -14.63,-23.19 -30.17,-41.51l-61.01 -73.48c-8.61,-12.53 -14.68,-26.19 -23.89,-39.97l-104.52 -165.86c-111.58,-182.04 -138.9,-278.62 -195.42,-478.85 -20.12,-71.29 -13.31,17.87 -11.8,-84.62 -13.4,-6.47 -21.05,-7.51 -33.6,-12.28l88.09 -17.54c-15,3.1 -12.59,6.02 -39.73,7.93 -13.44,-14.65 -24.84,20.88 -6.99,-22.23l-350.44 71.22z"/>
   <path class="fil7" d="M213.53 1975.38c-24.24,30.99 -34.29,69.09 -58.41,103.18 -58.19,82.26 -73.7,126.6 -114.48,210.79 -35.31,72.88 -20.64,51.77 -19.73,134.52l5.79 59.31 350.44 -71.22c122.04,-25.62 482.86,-76.5 427.01,123.58 -12.56,44.98 -203.12,224.11 11.05,428.3 129.15,123.12 300.53,122.37 462.72,45.53 103.32,-48.95 156.8,-180.18 135.07,-311.38 -11.23,-67.86 -36.43,-86.2 -41.12,-111.45 -25.3,-16.91 -33.24,-21.44 -36.21,-72.9 -5.78,-100.12 87.12,-120.11 176.24,-116.45l359.06 37.57c87.42,21.82 109.7,9.83 197.23,8.39 4.35,-62.6 -3.21,-226.59 14.07,-270.93 2.29,-94.9 16.23,-180.12 34.92,-266.38 18.7,-86.3 52.85,-161.53 63.09,-237.65 -26.84,12.92 -18.69,12.31 -33.31,44.85 -23.44,52.22 -50.46,69.52 -84.51,105.49 -137.68,145.43 -283.21,259.45 -461.72,354.43 -89.08,47.4 -322.28,119.92 -365.99,182.56 -65.77,94.23 -1.83,142.46 31.34,196.42 31.96,51.99 30.66,166.91 -7.99,216.94 -45.13,58.41 -129.42,62.08 -223.22,57.09 -89.54,-4.76 -144.04,-39.04 -151.67,-121.87 -15.06,-163.58 179.32,-260.68 31.15,-403.09 -178.31,-171.38 -235.77,-73.33 -418.72,-65.28 -290.05,12.75 -244.99,-214.78 -282.09,-260.36z"/>
   <path class="fil8" d="M3509.49 3554.38l-263.09 233.34c-49.89,38.87 -87.36,75.76 -139.65,113.98 -27.17,19.85 -44.59,36.12 -74.38,51.48 -30.64,15.79 -53.26,28.54 -76.2,44.69 -103.39,72.73 -218.82,109.98 -343.57,154.85 -86.29,31.04 -341.37,35.61 -449.95,47.67 -16.96,-29.99 -15.31,-59.64 -15.4,-100.99 -14.93,25.69 -12.31,50.83 -0.68,112.27 6.27,33.15 10.44,84.35 12.27,123.4 1.97,53.95 30.66,123.32 45.08,175.97 11.99,43.79 47.07,159.47 49.54,188.34 12.68,11.26 1.47,-3.81 14.99,18.03 3.52,5.69 11.08,23.59 12.62,27.98 6.63,18.81 8.82,39.26 15.9,54.59 46.62,27.71 171.9,-24.08 222.44,-41.13 110.02,-37.1 99.57,-37.7 194.3,-85.4 61.83,-21.38 244.16,-110.05 280.41,-145.34l83.98 -75.03c13.95,-11.95 16.22,-13.58 30.96,-24.86 35.57,-27.26 83.95,-74.52 126.98,-88.41 -1.96,10.11 12.69,-8.61 -10.62,-4.64l-17.65 11.86c-1.02,0.83 -3.09,3.2 -4.99,4.29l-26.69 -68.88c1.16,-25.85 8.64,-23.54 9.8,-94.84l42.3 -28.76c1.02,-0.72 2.91,-2.2 3.9,-2.87 0.92,-0.62 2.85,-1.93 3.76,-2.49 20.27,-12.49 27.77,-7.5 51.05,-31l35.08 -58.94c25.2,-46.5 101.92,-109.59 119.27,-148.21 13.1,-29.14 44.29,-65.08 70.7,-84.7l11.84 -6.96c26.27,-20.95 -8.67,22.77 6.84,-7.66 6.95,-13.64 4.9,-40.58 48.16,-62.47l8.56 -3.52c16.29,-9.05 5.99,-14.09 33.84,-40.44 20.35,-19.25 39.1,-15.44 30.86,-38.09 -4.34,-11.95 -8.95,-4.88 -15.3,-25.17 14.48,-7.44 13.37,-6.56 21.79,-15.39 0.62,-0.65 2.01,-2.44 2.64,-3.13l19.39 -24.45c10.76,-24.61 1.69,-18.26 4.47,-33.84 4.2,-23.5 8.93,-18.28 16.08,-30.21 -7.12,-3.75 -11.03,-4.14 -11.86,-4.45l-7.71 -3.16c-0.87,-0.3 -3.05,-1.22 -3.97,-1.48 -17.91,-4.95 7.71,-8.68 -29.72,-0.56 0.14,-37.61 9.43,-57.8 15.8,-88.55 -63.99,9.84 -47.13,15.24 -86.43,50.39 -17.95,16.06 -15.46,10.89 -31.73,31.97 -20.5,26.58 -5.06,16.46 -36.03,30.92z"/>
   <path class="fil9" d="M2713.7 4673.46c-94.73,47.7 -84.28,48.31 -194.3,85.4 -50.54,17.05 -175.82,68.84 -222.44,41.13 -0.46,33.6 -11.47,31.34 -51.9,35.89 -141.42,15.9 -398.5,1.69 -535.17,-27.41 -93,-19.8 -185.63,-35.35 -271.02,-62.64 -85.48,-27.31 -156.17,-61.52 -237.27,-87.79 12.94,106.27 60,240.53 66.02,372.32 2.49,54.27 -14.34,96.55 25.27,124.05 50.9,20.64 1115.25,-98.36 1250.12,-119.03 154.49,-23.68 453.83,-42.15 553.01,-127.34 53.96,-46.35 59.51,-241.54 122.32,-394.5 15.46,-37.67 34.18,-88.55 42.06,-130.3 -18.73,-17.99 2.86,-8.88 -19.08,-4.38 -16.51,3.39 -28.34,20.69 -45.47,32.94 -27.73,19.85 -40.03,15.24 -67.9,35.72 -128.49,94.41 -244.69,180.76 -414.25,225.94z"/>
   <path class="fil10" d="M3169.49 1182.84c1.55,-1.63 3.7,-6.68 4.32,-5.19 0.59,1.41 3.31,-3.94 4.07,-4.88l31.84 -41.67c93.81,19.53 5.75,1.88 87.99,8.27 -4.17,-44.53 -24.04,-37.31 65.53,-36.43 83.24,0.82 38.11,-124.02 87.77,-158.72 34.47,-24.08 38.98,-25.08 66.85,-54.79 13.44,9.36 21.17,17.39 36.92,25.93 43.86,23.77 126.33,47.73 158.58,103.25 59.06,101.71 48.28,142.01 178.35,282.17 57.96,62.48 220.59,41.9 306.04,215.42 28.64,58.15 66.1,118.06 78.42,183.37 18.16,96.3 42.8,244.4 41.95,345.29 -0.16,19.02 -2.9,47.15 -0.87,64.62 1.23,10.57 -0.34,4.1 2.58,14.46l23.55 41.13c-5.22,15.49 1.52,13.65 -11.11,11l13.14 0.02c29.28,-40.46 -1.53,-156.39 -7.63,-210.59 -8.28,-73.44 -4.63,-154.59 -18.7,-225.44 -22.01,-110.85 -81.5,-286.91 -126.26,-367.78 -59.7,-107.84 -105.13,-216.22 -168.74,-322.48 -36.33,-60.67 -67.64,-85.99 -107.87,-138.45 -19.39,-25.3 -25.52,-51.17 -43.19,-76.72 -12.43,-17.99 -39.99,-50.94 -56.15,-70.4l-244.71 -239.72c-147.05,-136.35 -420.97,-293.64 -616.2,-368.26 -66.58,-25.44 -307.45,-115.88 -381.44,-108.26l92.35 55.53c9,5.59 22.08,15.47 31.77,23.98 262.37,230.11 464.67,477.9 492.98,846 8.21,106.76 -11.87,121.22 -22.08,209.32z"/>
   <path class="fil9" d="M1515.01 5806.98c16.73,118.92 141.01,224.58 239.48,266.44 39.17,16.66 95.09,18.16 129.82,36.18 43.1,33.88 29.92,250.9 302.26,254.98 76.86,1.15 147.44,-36.38 199.64,-78.11 77.15,-61.68 55.99,-88.04 96.41,-181.51 112.98,-25.92 196.38,-58.69 262.66,-118.53 24.14,-21.79 62.99,-69.51 81.8,-108.56 42.76,-88.79 4.17,-61.78 96.13,-102.78 75.05,-33.47 209.89,-82.22 192.55,-187.78 -19.32,-117.51 -145.04,-21.47 -260.51,16.5 -283.07,93.08 -670.79,139.38 -979.33,170.51 -109.53,11.06 -254.26,35.27 -360.92,32.65z"/>
   <path class="fil11" d="M472.5 3525.27c7.64,23.47 28.81,43.83 43.07,64.03 95.55,135.33 228.61,278.42 355.49,462.15 202.95,293.88 185.34,290.76 330.53,606.59 81.1,26.27 151.79,60.48 237.27,87.79 85.39,27.29 178.02,42.85 271.02,62.64 136.67,29.1 393.76,43.31 535.17,27.41 40.43,-4.55 51.44,-2.29 51.9,-35.89 -7.08,-15.32 -9.27,-35.78 -15.9,-54.59 -1.55,-4.4 -9.11,-22.29 -12.62,-27.98 -13.51,-21.84 -2.31,-6.77 -14.99,-18.03 -1.84,29.68 8.06,26.2 -6.23,38.83 -32.02,28.29 -100.24,-48.45 -127.59,-93.14 -11.95,-19.53 -19.47,-45.54 -34.08,-61.93l-17.79 -13.4c-0.53,-0.53 -2.08,-2.01 -2.55,-2.61 -31.09,-39.87 -25.65,-219.41 -71.22,-268.95 -11.91,28.56 -7.65,73.16 -8.72,113.08 -66,32.56 -44.05,1.5 -70.94,126.29 -10.63,49.32 -24.25,35.18 -29.31,72.14 -1.87,13.64 0.53,33.97 -0.32,48.24 -1.85,31.32 3.66,20.28 -10.45,36.61 -27.87,26.39 -245.62,-102.06 -285.45,-130.08 -28.4,-19.97 -59.07,-38.51 -84.26,-58.97 -16.05,-13.04 -23.51,-22.68 -42.13,-36.98 -22.16,-17.02 -41.1,-23.9 -62.32,-48.74 -74.79,-87.55 -137.01,-129.3 -216.06,-253.11l-178.85 -249.15c-20.9,-22.05 -13.99,-15.56 -30.56,-41.16 -53.68,-82.92 -58.31,-75.34 -92.29,-98.85l-51.71 -50.79c-19.45,-21.04 -11.72,-21.36 -24.56,-45.73 -26.22,-49.74 -11.96,-10.93 -40.69,-32.79 -7.74,-5.88 -8.84,-10.93 -16.14,-22.48 -25.74,-40.75 -33.61,-6.8 -36.67,-51.07 -1.88,1.47 -3.87,3.91 -5.12,5l-9.76 8.78c-1.81,1.28 -6.85,4.85 -8.7,5.53 -9,3.3 3.84,5.65 -18.57,-1.33 -87.06,-27.12 -83.92,-63.19 -104.02,-86.11 -17.31,-19.75 -18.49,-11.37 -32.58,-30.67 -8.86,-12.13 -8.75,-28 -27.83,-36.53 -46.83,-20.9 -35.15,47.09 -33.49,85.93z"/>
   <path class="fil12" d="M3715.95 3071.53c-25.66,18.42 -30.28,35.35 -52.07,62.12 -92.34,113.5 -249.84,271.18 -361.6,361 -75.78,60.9 -414.55,283.35 -533.03,299.77l8.16 -28.2c-12.25,14.33 -17.25,24.12 -28.99,39.49 -14.29,18.7 -18.07,21.44 -34.75,37.15 -78.69,74.08 -188.98,133.83 -305.51,83.97 -76.88,-32.89 -107.17,-94.26 -195.05,-36.5 -56.94,37.42 -72.21,139.5 -65.88,209.07 0.08,41.35 -1.57,71 15.4,100.99 108.58,-12.06 363.65,-16.63 449.95,-47.67 124.74,-44.86 240.18,-82.11 343.57,-154.85 22.95,-16.15 45.57,-28.89 76.2,-44.69 29.79,-15.36 47.22,-31.63 74.38,-51.48 52.29,-38.21 89.76,-75.11 139.65,-113.98l263.09 -233.34c17.76,-45.28 85.55,-90.66 123.6,-157.49 22.29,-39.15 29.65,-14.23 74.61,-68.04 22.65,-27.1 39.11,-43.39 68.29,-68.05 44.05,-37.24 28.93,-37 51.8,-89.42l79.26 -128.37c17.57,-22.23 9.69,-21.99 13.24,-39.76l45.84 -85.39c-38.21,1.67 -41.69,12.35 -88.71,14.49 -98.05,4.46 -59.91,50.51 -111.15,97.13 -17.49,15.9 -31.27,21.29 -50.32,42.05z"/>
   <path class="fil6" d="M1896.21 2465.37c-3.79,156.38 -77.04,275.31 -137.8,412.56l-86.5 183.24c-81.44,205.41 -108.88,347.42 94.31,475.65 37.66,23.77 261.27,105.92 313.34,68.38 74.4,-53.62 91.58,-21.89 155.86,-52.87 6.83,-3.29 14.4,-6.89 21.6,-10.71 19.61,-10.39 10.52,3.79 19.62,-14.11 -51.97,12.72 -62.95,34.42 -114.48,42.75 -38.22,6.2 -111.65,-1.54 -146.6,-11.71 -99.26,-28.9 -128.17,-72.87 -168.67,-154.29l-20.12 -42.5c-17.69,-77.74 -2.1,-174.99 65.97,-221.1 174.75,-118.37 198.47,12.46 255.17,38.55 31.96,14.7 64.28,-1.13 78.85,-21.51 21.12,-29.55 -0.28,-54.8 -12.16,-86.1 -4.76,-26.41 -25.26,-48.89 -44.59,-145.07 -11,-54.75 -36.92,-100.14 -45.88,-152.69 -19.05,-111.83 -60.21,-211.99 -55.97,-330.68 -87.53,1.43 -109.81,13.43 -197.23,-8.39l24.38 8.58 0.89 22.03z"/>
   <path class="fil9" d="M3042.54 5273.87c-52.24,15.75 -87.78,49.08 -204.94,81.66 -246.34,68.48 -1163.06,181.55 -1413.61,185.08 -48.88,0.69 -85.36,-25.39 -121.17,-11.5 -71.46,27.72 -57.47,145.18 27.37,174.72 92.35,32.15 1314.58,-126.54 1538.54,-181.46 346.67,-85 257.41,-273.72 173.81,-248.5z"/>
   <path class="fil9" d="M3022.69 4998.38c-164.81,50.75 -219.97,98.36 -438.22,136.03 -256.7,44.3 -765.23,94.58 -1040.26,120.85 -43.93,4.19 -82.58,10.42 -127.88,11.84 -44.25,1.41 -91.36,-17.08 -124.94,4.07 -58.91,37.1 -45.87,162.3 61.23,166.63 108.5,4.38 652.29,-60.9 777.77,-81.59 243.63,-40.17 514.22,-57.55 751.47,-122.78 63.8,-17.55 160.6,-49.55 198.86,-86.74 66.05,-64.19 23.68,-173.48 -58.03,-148.31z"/>
   <path class="fil13" d="M1168.72 6597.47c93.48,68.37 811.36,94.7 1049.38,85.63 202.01,-7.7 333.23,7.78 582.33,-21.32 83.75,-9.78 291.15,-28.88 364.95,-48.54 35.85,-9.55 26.9,-5.65 39.41,-29.01 -302.04,-117.65 -1421.62,-100.31 -1847.13,-41.16l-150.32 24.65c-38.38,11.57 -27.37,4.75 -38.63,29.74z"/>
   <path class="fil3" d="M1530.67 1369.46c36.22,132.97 144.21,268.4 290.32,272.59 104.67,3.01 138.7,-39.26 198.57,-81.32 62.4,-43.83 155.04,-26.47 167.39,66.29 14.51,24.18 8.3,61.03 6.12,92.89l0.5 29.71c80.98,0.59 109.71,-19.18 147.43,-73.57 83.71,-120.68 -2.39,-344.21 -192.37,-402.69 -144.76,-44.56 -236.98,57.66 -316.65,107.25 -47.45,29.53 -108.39,38.87 -175.34,19.52 -72.43,-20.94 -83.91,-62.25 -129.1,-92.1l3.12 61.42z"/>
   <path class="fil14" d="M2309.64 2429.62c42.09,-14.76 82.21,-14.93 124.77,-25.07 40.44,-9.63 81.66,-21.7 118.22,-32.93 78.98,-24.23 173.05,-47.91 210.46,33.22 17.13,24.86 10.38,75.79 8.83,109.62l12.14 -21.11c35.77,-73.47 43.26,-72.27 86.8,-142.19 19.62,-61.92 30.09,-167.53 -45.9,-213.18 -57.92,-34.78 -177.18,-32.14 -257.72,-29.96 -64.28,1.73 -69.25,14.91 -110.33,30.95 -26.99,10.54 -89.04,21.97 -119.04,27.09 -197.46,33.68 -276.85,-49.51 -239.85,248.94 25.35,-9.06 22.37,-19.15 26.44,-22.53 8.22,36.25 -9.04,11.01 21.45,21.46 45.75,15.69 175.15,-20.12 234.87,-18.43l-77.35 28.88c-0.27,-1.67 4.54,3.1 6.22,5.23z"/>
   <path class="fil15" d="M3663.67 3441.11c-6.37,30.74 -15.66,50.94 -15.8,88.55 37.43,-8.12 11.81,-4.39 29.72,0.56 0.92,0.26 3.09,1.18 3.97,1.48l7.71 3.16c0.83,0.32 4.75,0.7 11.86,4.45 -7.16,11.93 -11.88,6.71 -16.08,30.21 -2.79,15.59 6.28,9.24 -4.47,33.84l-19.39 24.45c-0.63,0.69 -2.02,2.49 -2.64,3.13 -8.42,8.82 -7.31,7.95 -21.79,15.39 6.35,20.29 10.95,13.22 15.3,25.17 8.23,22.66 -10.51,18.84 -30.86,38.09 -27.84,26.35 -17.55,31.39 -33.84,40.44l-8.56 3.52c-43.27,21.89 -41.22,48.82 -48.16,62.47 -15.51,30.43 19.43,-13.29 -6.84,7.66l-11.84 6.96c-26.41,19.62 -57.6,55.56 -70.7,84.7 -17.35,38.62 -94.07,101.7 -119.27,148.21l-35.08 58.94c-23.29,23.5 -30.78,18.51 -51.05,31 -0.91,0.55 -2.84,1.87 -3.76,2.49 -0.99,0.67 -2.88,2.15 -3.9,2.87l-42.3 28.76c-1.16,71.3 -8.64,68.99 -9.8,94.84l26.69 68.88c1.9,-1.09 3.97,-3.45 4.99,-4.29l17.65 -11.86c23.3,-3.97 8.66,14.75 10.62,4.64 -43.03,13.9 -91.41,61.15 -126.98,88.41 -14.73,11.28 -17,12.91 -30.96,24.86l-83.98 75.03c-36.25,35.29 -218.58,123.96 -280.41,145.34 169.56,-45.18 285.76,-131.53 414.25,-225.94 27.87,-20.48 40.17,-15.87 67.9,-35.72 17.13,-12.26 28.96,-29.55 45.47,-32.94 21.94,-4.5 0.36,-13.61 19.08,4.38l142.81 -208.14c32.85,-70.38 88.32,-118.14 137.67,-211.25 27.64,-52.16 42.42,-65.62 69.74,-105.73 20.69,-30.37 45.39,-71.72 68.32,-106.47l152.1 -209.6 -15.06 -4.15c14.31,-36.1 31.94,-44.23 48.25,-77.52 5.54,-11.3 12.27,-31.42 19.95,-43 13.51,-20.36 1.82,-2.2 15.15,-6.53 27.13,-94.7 10.9,-82.35 23.77,-113.5l15.25 -31.3c16.08,-51.88 22.79,-43.38 19.3,-64.86 -4.22,-25.92 -6.99,22.54 -5.81,-25.8 1.04,-42.7 48.08,-88.72 59.58,-116.47 5.63,-13.59 8.94,-34.44 1.41,-47.25 -22.66,41.31 -59.63,66.85 -90.83,109.22 -34.81,47.28 -48.82,55.38 -79.23,111.41l-62.89 88.7c-9.08,10.64 -12.72,15.38 -21.74,25.67l-67.95 74.99c-1.39,1.38 -23.9,17.41 -26.5,19.45z"/>
   <path class="fil16" d="M257.68 1546.55c154.02,-425.13 481.92,-752.48 843.41,-999.38 158.49,-108.23 436.88,-247.86 610.56,-309.7 44.24,-15.75 105.5,-29.74 140.5,-49.61 -232.56,-10.63 -623.72,174.86 -828.43,281.33 -114.21,59.41 -317.05,246.7 -401.09,337.66 -133.5,144.48 -290.17,393.67 -338.97,589.19 -12.79,51.23 -45.16,119.44 -25.99,150.5z"/>
   <path class="fil17" d="M4318.82 2197.11c-3.75,35.02 -3.24,16.04 -24.59,57.04l-26.75 67.22c-14.76,33.33 -134.36,137.8 -172.41,171.64l-58.31 68.03c-19.86,19.76 -0.37,7.87 -28.35,19.31 -1.4,-35.87 3.07,-36.07 6.14,-67.73 -24.01,95.14 -163.68,346.67 -167.63,358.16l-82.96 140.41c-16.05,19.44 -36.71,38.89 -48.02,60.34 19.06,-20.76 32.83,-26.15 50.32,-42.05 51.23,-46.62 13.1,-92.66 111.15,-97.13 47.02,-2.14 50.51,-12.82 88.71,-14.49 19.67,-20.02 38.52,-27.89 58.04,-51.24 23.22,-27.78 29.25,-34.53 59.11,-53.45 5.03,-46.77 55.21,-107.92 81.73,-139.15l82.54 -139.18c59.47,-126.57 73.7,-90.75 82.81,-251.58 5.23,-92.48 -0.18,-53.92 19.57,-86.75l-4.55 -20.41 -13.14 -0.02c-22.99,21.82 -9.62,7.74 -13.42,21.03z"/>
   <path class="fil18" d="M4082.69 2878.83c3.14,28.08 0.4,14.5 -15.87,45.75l-12.3 27.86c-8.06,16.91 -29.67,47.58 -41.7,59.23 7.53,12.81 4.22,33.66 -1.41,47.25 -11.5,27.75 -58.54,73.78 -59.58,116.47 -1.17,48.34 1.59,-0.12 5.81,25.8 3.49,21.48 -3.22,12.98 -19.3,64.86l-15.25 31.3c-12.88,31.15 3.36,18.8 -23.77,113.5 -13.34,4.32 -1.64,-13.83 -15.15,6.53 -7.68,11.58 -14.4,31.7 -19.95,43 -16.31,33.29 -33.94,41.41 -48.25,77.52l15.06 4.15 309.55 -447.88c25.04,-39.2 41.83,-82.35 67.72,-122.26 64.21,-99.09 110.79,-329.93 129.64,-448.01 -0.53,25.31 -6.5,33.23 -11.94,60.2 -30.97,-18.1 -4.01,-40.06 -48.02,-5.35 -12.41,9.78 -20.92,23.14 -30.38,35.61 -12.52,16.48 -16.47,26.45 -27.11,44.4 -24.91,41.98 -46.17,52.68 -73.03,126.71 -23.11,63.66 -38.56,25.03 -39.58,85.42 -6.54,5.46 -22.98,7.09 -25.18,7.93z"/>
   <path class="fil19" d="M2158.82 4335.07c-1.83,-39.05 -5.99,-90.25 -12.27,-123.4 -11.63,-61.44 -14.24,-86.59 0.68,-112.27 -6.33,-69.57 8.94,-171.65 65.88,-209.07 87.88,-57.76 118.17,3.61 195.05,36.5 116.53,49.86 226.82,-9.88 305.51,-83.97 16.68,-15.71 20.46,-18.45 34.75,-37.15 11.74,-15.37 16.74,-25.16 28.99,-39.49 16.03,-43.03 27.13,-60.58 35.41,-111.32 4.98,-30.5 11.83,-100.39 -5.01,-130 -38.3,336.83 -303.64,430.14 -431.64,331.02 -44.84,-34.73 -90.26,-61.48 -155.9,-29.3 -57.77,28.32 -80.86,42.93 -95.61,118.37 -10.35,52.93 -7.4,147.98 -5.83,204.29 0.96,34.42 5.13,64.97 9.97,98.33 6.04,41.56 1.17,61.4 30.01,87.47z"/>
   <path class="fil12" d="M4097.28 2257.51c44.67,33.53 6.22,-26.08 3.25,9.56 -1.26,15.2 1.79,1.63 -3.24,12.89l-5.9 8.97c-0.78,1.52 -2.08,3.53 -2.84,5.14l-73.99 218.54c-3.08,31.66 -7.54,31.86 -6.14,67.73 27.98,-11.44 8.49,0.45 28.35,-19.31l58.31 -68.03c38.06,-33.84 157.65,-138.31 172.41,-171.64l26.75 -67.22c21.35,-41 20.84,-22.02 24.59,-57.04l-221.54 60.4z"/>
   <path class="fil20" d="M3966.13 2917.86l-45.84 85.39c-3.55,17.77 4.33,17.54 -13.24,39.76l-79.26 128.37c-22.87,52.41 -7.76,52.18 -51.8,89.42 -29.18,24.66 -45.64,40.95 -68.29,68.05 -44.96,53.81 -52.32,28.88 -74.61,68.04 -38.05,66.83 -105.84,112.21 -123.6,157.49 30.97,-14.46 15.53,-4.34 36.03,-30.92 16.26,-21.08 13.78,-15.9 31.73,-31.97 39.29,-35.15 22.43,-40.55 86.43,-50.39 2.6,-2.04 25.11,-18.07 26.5,-19.45l67.95 -74.99c9.02,-10.29 12.66,-15.02 21.74,-25.67l62.89 -88.7c30.41,-56.03 44.42,-64.13 79.23,-111.41 31.2,-42.38 68.18,-67.91 90.83,-109.22 12.03,-11.65 33.64,-42.32 41.7,-59.23l12.3 -27.86c16.27,-31.25 19.01,-17.67 15.87,-45.75l0.59 -65.66c-29.86,18.92 -35.89,25.68 -59.11,53.45 -19.52,23.35 -38.36,31.22 -58.04,51.24z"/>
   <path class="fil12" d="M3640.56 2327.19c-31.25,-80.89 -45.52,-60.09 -9.78,-164.52 10.97,-32.03 17.74,-52.39 28.35,-82.27 9.19,-25.87 15.62,-62.44 36.26,-78.17 19.33,-50.34 7.31,-174.49 -12.62,-216.02 -23.99,-49.95 -76.61,-104.31 -122.68,-127.51 15.9,14.55 106.42,120.63 113.59,149.47 43.53,175.08 -159.8,170.62 -151.94,363.88 1.02,25.06 18.41,79.21 34.51,99.47 16.1,20.26 58.45,51.09 84.31,55.67z"/>
   <path class="fil21" d="M4083.28 2813.17l-0.59 65.66c2.2,-0.84 18.64,-2.48 25.18,-7.93 1.02,-60.39 16.48,-21.77 39.58,-85.42 26.87,-74.04 48.13,-84.73 73.03,-126.71 10.64,-17.95 14.59,-27.93 27.11,-44.4 9.46,-12.46 17.98,-25.83 30.38,-35.61 44.01,-34.72 17.06,-12.75 48.02,5.35 5.44,-26.96 11.4,-34.89 11.94,-60.2 22.56,-64.36 27.69,-263.08 11.98,-327.39 -19.75,32.83 -14.34,-5.73 -19.57,86.75 -9.11,160.83 -23.33,125.01 -82.81,251.58l-82.54 139.18c-26.52,31.23 -76.7,92.38 -81.73,139.15z"/>
   <path class="fil22" d="M3640.56 2327.19c30.84,9.12 61.49,32.76 116.69,21.6 36.82,-7.44 67.86,-27.11 106.87,-38.27 55.62,-15.9 173.89,-54.19 233.16,-53l221.54 -60.4c3.8,-13.29 -9.57,0.8 13.42,-21.03 12.63,2.65 5.89,4.49 11.11,-11 -64.64,-4.05 -299.33,64.71 -377.07,86.4 -45.44,12.67 -83.16,16.18 -123.02,28.1 -79.12,23.65 -153.86,84.05 -191.08,-24.52 -32.75,-95.55 36.43,-174.32 43.21,-252.83 -20.64,15.74 -27.07,52.3 -36.26,78.17 -10.61,29.88 -17.38,50.24 -28.35,82.27 -35.74,104.42 -21.47,83.62 9.78,164.52z"/>
   <path class="fil19" d="M1846.9 3404.26c-2.78,-91.37 -9.87,-143.96 37.68,-200.33 32.11,-38.06 109.01,-74.84 175.82,-47.57 42.63,17.41 37.65,31.04 62.63,55.78 19.41,19.23 51.64,35.35 92.58,22.59 67.1,-20.9 34.29,-131.18 -0.99,-163.13 11.88,31.29 33.28,56.55 12.16,86.1 -14.56,20.38 -46.89,36.22 -78.85,21.51 -56.7,-26.09 -80.42,-156.92 -255.17,-38.55 -68.07,46.11 -83.66,143.36 -65.97,221.1l20.12 42.5z"/>
   <path class="fil23" d="M1371.85 2586.55c1.19,-68.86 -36.62,-83.74 16.88,-139.93 41.6,-43.68 94.53,-29.56 157.18,-21.22l267.73 22.2c47.44,7.34 23.38,19.79 82.57,17.77l-0.89 -22.03 -24.38 -8.58 -359.06 -37.57c-89.12,-3.66 -182.01,16.34 -176.24,116.45 2.96,51.47 10.91,55.99 36.21,72.9z"/>
   <path class="fil24" d="M2661.97 3404.43l13.16 31.17c15.85,-19.8 12.01,-8.97 12.61,-38.76 19.51,7.13 3.12,-1.06 14.82,14.12 1.28,1.67 4.83,7.56 6.08,9.36 7.12,10.27 -1.42,3.07 9.8,14.18l11.54 -40.06 30.06 20.3c13.19,-8.79 -5.04,-0.57 17.37,-9.35 -11.82,-68.11 -103.11,-162.41 -190.53,-170.39 11.83,12.93 3.24,5.46 23.72,17.68 4.38,2.62 19.37,9.27 19.91,9.68 24.69,18.46 30.38,102.13 31.47,142.07z"/>
   <path class="fil25" d="M2180.26 1668.19c-10.24,76.12 -44.39,151.35 -63.09,237.65 -18.69,86.26 -32.63,171.47 -34.92,266.38l4.78 35.65c5.33,-31.11 21.17,-121.02 31.15,-159.01 12.75,-59.1 17.06,-116.09 34.44,-172.13 16,-51.58 31.61,-98.59 40.46,-156.81 2.18,-31.86 8.38,-68.71 -6.12,-92.89l-6.69 41.16z"/>
   <path class="fil26" d="M2763.09 2404.85c8.43,67.68 -13.19,154.37 22.62,215.83 10.63,18.25 3.82,12.91 21.86,22.82 6.91,-67.41 -7.02,-101.85 19.51,-171.83 11.99,-31.63 56.64,-86.09 43.79,-120.5 -43.54,69.92 -51.03,68.72 -86.8,142.19l-12.14 21.11c1.55,-33.83 8.3,-84.76 -8.83,-109.62z"/>
  </g>
 </g>
</svg>
