<?xml version="1.0" encoding="UTF-8"?>
<!DOCTYPE svg PUBLIC "-//W3C//DTD SVG 1.1//EN" "http://www.w3.org/Graphics/SVG/1.1/DTD/svg11.dtd">
<!-- Creator: CorelDRAW 2020 (64 Bit) -->
<svg xmlns="http://www.w3.org/2000/svg" xml:space="preserve" width="418.745mm" height="70.25mm" version="1.1" style="shape-rendering:geometricPrecision; text-rendering:geometricPrecision; image-rendering:optimizeQuality; fill-rule:evenodd; clip-rule:evenodd"
viewBox="0 0 84229.18 14130.57"
 xmlns:xlink="http://www.w3.org/1999/xlink"
 xmlns:xodm="http://www.corel.com/coreldraw/odm/2003">
 <defs>
  <style type="text/css">
   <![CDATA[
    .str0 {stroke:#6E6D3B;stroke-width:100.57;stroke-miterlimit:22.9256}
    .fil4 {fill:#FEFEFE;fill-rule:nonzero}
    .fil5 {fill:#373435;fill-rule:nonzero}
    .fil3 {fill:#ACA77B;fill-rule:nonzero}
    .fil2 {fill:#6E6D3B;fill-rule:nonzero}
    .fil0 {fill:url(#id0)}
    .fil1 {fill:url(#id1)}
   ]]>
  </style>
  <radialGradient id="id0" gradientUnits="userSpaceOnUse" gradientTransform="matrix(0.901565 -0 -0 0.999999 520 0)" cx="5285.12" cy="5862.17" r="7809.63" fx="5285.12" fy="5862.17">
   <stop offset="0" style="stop-opacity:1; stop-color:#E8E239"/>
   <stop offset="0.290196" style="stop-opacity:1; stop-color:#ABA73A"/>
   <stop offset="1" style="stop-opacity:1; stop-color:#6E6D3B"/>
  </radialGradient>
  <radialGradient id="id1" gradientUnits="userSpaceOnUse" gradientTransform="matrix(0.766716 -0 -0 1.04166 1262 -284)" cx="5410.17" cy="6826.81" r="3683.12" fx="5410.17" fy="6826.81">
   <stop offset="0" style="stop-opacity:1; stop-color:#C3C949"/>
   <stop offset="0.439216" style="stop-opacity:1; stop-color:#949640"/>
   <stop offset="1" style="stop-opacity:1; stop-color:#666338"/>
  </radialGradient>
 </defs>
 <g id="Camada_x0020_1">
  <metadata id="CorelCorpID_0Corel-Layer"/>
  <g id="_1869254922464">
   <g>
    <path class="fil0" d="M5561.13 11424.46c367.82,-325.19 294.48,-293.73 759.73,-536.44 525.09,-273.88 998.15,-366.25 1585.68,-385.04 167.43,-5.37 436.51,0.16 616.68,29.51 492.25,80.2 567.13,105.86 1010.34,242.4 111.09,34.24 189.26,86.84 308.78,111.82 -21.93,-173.45 -329.68,-1351.35 -417.56,-1729.52 -12.15,-52.24 -135.55,-493.05 -127.61,-534.71 7.38,-38.96 40.75,-90.15 76.48,16.47 11.02,32.87 24.28,67.65 37.51,101.76 23.51,60.69 52.24,136.3 71.21,193.87l146.35 393.91c104.42,264.93 197.02,531.83 293.27,791.39 50.27,135.57 561.06,1482.23 578.64,1579.83 -47.69,9.74 -105.42,-26.95 -153.52,-50.07 -263.86,-126.82 -917.29,-358.85 -1185.44,-443.71 -1185.38,-375.18 -2448.66,-406.52 -3523.41,297.88l-307.23 220.52c9.23,-36.19 208.57,-278.75 230.09,-299.87zm-71.69 30.57c-109.06,142.29 -123.58,218.47 -158.4,269.3 -7.02,-73.28 88.91,-271.31 205.91,-471.65 132.64,-226.99 382.04,-481.34 501.62,-603.06 598.13,-608.95 1416.07,-999.54 2237.44,-978.28 234.16,6.05 396.42,51.78 627.24,86.53 7.32,-92.71 -196.78,-765.79 -185.4,-870.46 34.03,-26.51 349.27,-187.99 392.36,-190.83l314.11 1296.51c17.44,67.18 102.54,380.31 100.15,442.34 -105.84,-23.84 -390.41,-151.93 -623.6,-208.45 -961.18,-232.97 -1826.82,-8.17 -2657.03,531.75 -236.85,154.02 -652,534.33 -754.4,696.29zm-426.35 -18.65c-367.82,-308.98 -294.5,-279.11 -759.75,-509.69 -525.09,-260.24 -998.15,-347.98 -1585.68,-365.85 -167.45,-5.09 -436.51,0.14 -616.68,28.04 -492.25,76.19 -567.15,100.57 -1010.34,230.31 -111.11,32.53 -189.26,82.51 -308.8,106.25 21.95,-164.8 329.68,-1283.96 417.58,-1643.25 12.13,-49.64 135.53,-468.45 127.59,-508.06 -7.38,-37.01 -40.75,-85.63 -76.48,15.69 -11,31.2 -24.28,64.25 -37.49,96.67 -23.51,57.65 -52.26,129.48 -71.23,184.19l-146.35 374.25c-104.4,251.74 -197.02,505.28 -293.25,751.91 -50.27,128.83 -561.06,1408.31 -578.64,1501.04 47.69,9.25 105.42,-25.61 153.52,-47.59 263.86,-120.49 917.27,-340.92 1185.44,-421.54 1185.38,-356.47 2448.66,-386.24 3523.43,283.01l307.19 209.51c-9.21,-34.4 -208.53,-264.87 -230.05,-284.9zm71.67 29.03c109.06,135.21 123.58,207.6 158.38,255.88 7.04,-69.62 -88.89,-257.77 -205.89,-448.12 -132.64,-215.69 -382.04,-457.35 -501.62,-572.99 -598.13,-578.58 -1416.07,-949.68 -2237.44,-929.48 -234.16,5.75 -396.42,49.2 -627.24,82.21 -7.34,-88.08 196.76,-727.59 185.4,-827.06 -34.03,-25.18 -349.27,-178.62 -392.38,-181.29l-314.11 1231.84c-17.42,63.82 -102.52,361.34 -100.15,420.28 105.86,-22.65 390.41,-144.34 623.62,-198.07 961.16,-221.32 1826.82,-7.74 2657.03,505.22 236.83,146.35 652,507.69 754.4,661.57zm850.89 -1481.53c38.66,-9.74 1462.66,-1651.26 2552.43,-2286.2 978.88,-570.33 1389.95,-657.89 1391.82,-662.24l-37.41 11.47c-2007.53,425.57 -2083.26,-387.39 -2426.27,-198.17 -250.01,111.25 -113.41,1020.8 -326.24,1446.95 -281.2,562.93 -876.2,1130.71 -1154.32,1688.19zm2511.9 -4471.15c-374.29,65.45 -630.88,336.06 -595.11,747.7 29.07,334.83 347.68,657.49 736.96,608.75 346.25,-43.35 616.54,-353.74 588.27,-749.35 -26.33,-368.94 -405.39,-663.93 -730.12,-607.1zm1319.73 -1022.13l-422.15 3.24c14.8,63.42 117.35,108.76 160.54,140.04l174.78 119.64c5.69,111.27 -99.41,306.27 -114.69,434.56 90.48,-22.29 279.11,-217.46 359.99,-251.9 76.03,18.47 278.09,213.42 371.44,238.7 -13.68,-132.54 -132.37,-322.24 -125.29,-436.69 33.47,-16.78 337.69,-242.1 348.33,-261.61 -120.77,-11.69 -367.37,20.42 -462.14,-9.9 -22.43,-59.54 -43.77,-134.95 -65.03,-191.21l-48.21 -141.16c-7.44,-18.26 -5.29,-14.6 -12.91,-27.86 -11,-19.15 -8.75,-15.27 -18.97,-26.53l-13.5 15.65c-36.63,56.5 -82.71,305.72 -132.17,395.03zm-772.24 -1938.31l-422.17 3.24c14.82,63.42 117.37,108.76 160.56,140.04l174.76 119.64c5.71,111.27 -99.39,306.27 -114.69,434.56 90.48,-22.29 279.13,-217.46 359.99,-251.9 76.05,18.45 278.11,213.42 371.44,238.7 -13.66,-132.54 -132.37,-322.24 -125.29,-436.69 33.49,-16.78 337.69,-242.1 348.35,-261.61 -120.79,-11.69 -367.39,20.42 -462.16,-9.9 -22.41,-59.54 -43.75,-134.97 -65.03,-191.21l-48.21 -141.16c-7.44,-18.26 -5.27,-14.6 -12.89,-27.86 -11.02,-19.15 -8.77,-15.27 -18.97,-26.55l-13.5 15.67c-36.63,56.5 -82.73,305.72 -132.17,395.03zm-1576.69 -1375.12l-422.17 3.26c14.82,63.4 117.37,108.76 160.56,140.04l174.76 119.64c5.71,111.27 -99.39,306.27 -114.67,434.56 90.46,-22.29 279.11,-217.46 359.97,-251.9 76.05,18.45 278.11,213.42 371.46,238.7 -13.68,-132.54 -132.37,-322.24 -125.29,-436.69 33.47,-16.78 337.69,-242.1 348.33,-261.61 -120.77,-11.69 -367.39,20.42 -462.14,-9.9 -22.43,-59.54 -43.77,-134.97 -65.03,-191.23l-48.21 -141.14c-7.44,-18.28 -5.29,-14.6 -12.91,-27.86 -11,-19.15 -8.75,-15.27 -18.97,-26.55l-13.5 15.67c-36.63,56.5 -82.73,305.7 -132.17,395.01zm-2266.7 -766.47l-422.17 3.24c14.8,63.42 117.37,108.76 160.56,140.04l174.76 119.64c5.71,111.27 -99.39,306.27 -114.69,434.56 90.48,-22.29 279.13,-217.46 359.99,-251.9 76.05,18.47 278.11,213.42 371.44,238.7 -13.66,-132.54 -132.37,-322.24 -125.29,-436.69 33.49,-16.78 337.69,-242.1 348.35,-261.61 -120.79,-11.69 -367.39,20.42 -462.16,-9.9 -22.43,-59.54 -43.75,-134.97 -65.03,-191.21l-48.21 -141.16c-7.44,-18.26 -5.27,-14.6 -12.89,-27.86 -11.02,-19.15 -8.77,-15.27 -18.97,-26.55l-13.5 15.67c-36.63,56.5 -82.73,305.72 -132.17,395.03zm-2258.18 713.73l-434.54 0.14c30.53,73.94 260.93,224.56 322.36,262.28 11.67,100.81 -110.05,315.62 -123.85,435.54 80.5,-18.28 327.87,-233.67 358.3,-237.51 83.34,11.22 277.02,226.35 373.37,251.8 -12.31,-119.28 -125.03,-331.79 -105.82,-437.03 20.01,-45.42 307.27,-168.58 325.5,-257.83l-421.12 -4.28c-47.87,-80.84 -86.75,-362.89 -146.35,-408.81l-147.84 395.72zm-1782.5 1419.43l-422.17 3.24c14.82,63.42 117.37,108.76 160.56,140.04l174.76 119.64c5.71,111.27 -99.39,306.27 -114.67,434.56 90.46,-22.29 279.11,-217.46 359.97,-251.9 76.05,18.47 278.11,213.42 371.44,238.7 -13.66,-132.54 -132.35,-322.24 -125.27,-436.69 33.47,-16.78 337.67,-242.1 348.33,-261.61 -120.79,-11.69 -367.39,20.42 -462.16,-9.9 -22.41,-59.54 -43.75,-134.95 -65.03,-191.21l-48.19 -141.16c-7.44,-18.26 -5.29,-14.6 -12.91,-27.86 -11,-19.15 -8.77,-15.27 -18.97,-26.55l-13.5 15.67c-36.63,56.5 -82.73,305.72 -132.17,395.03zm3515.67 7431.37c-38.66,-9.86 -1462.66,-1672.07 -2552.43,-2315 -978.88,-577.53 -1389.95,-666.2 -1391.82,-670.58l37.41 11.59c2007.53,430.96 2083.26,-392.26 2426.27,-200.66 250.01,112.68 113.41,1033.67 326.24,1465.19 281.2,570.03 876.18,1144.97 1154.32,1709.47zm-4254.46 -5466.21l-422.17 3.26c14.8,63.4 117.37,108.74 160.56,140.04l174.76 119.64c5.71,111.27 -99.39,306.27 -114.69,434.56 90.48,-22.29 279.13,-217.48 359.99,-251.9 76.05,18.45 278.11,213.4 371.44,238.7 -13.66,-132.54 -132.37,-322.24 -125.29,-436.69 33.49,-16.78 337.69,-242.12 348.35,-261.61 -120.79,-11.69 -367.39,20.42 -462.16,-9.9 -22.41,-59.56 -43.75,-134.97 -65.03,-191.23l-48.21 -141.14c-7.44,-18.28 -5.27,-14.6 -12.89,-27.86 -11.02,-19.15 -8.77,-15.27 -18.97,-26.55l-13.5 15.65c-36.63,56.5 -82.73,305.72 -132.17,395.03zm1742.56 938.67c374.29,66.3 630.88,340.32 595.11,757.16 -29.09,339.05 -347.68,665.78 -736.96,616.43 -346.25,-43.91 -616.54,-358.2 -588.27,-758.83 26.33,-373.59 405.39,-672.29 730.12,-614.77z"/>
    <path class="fil1" d="M7445.03 5373.04c-939.58,510.85 -1680.46,756.55 -2126.79,733.08 -446.2,16.92 -1051.5,-174.07 -2112.57,-745.09 8.21,55.11 132.9,343.56 374.82,749.07 365.08,611.95 858.01,885.93 1200.1,1607.91 394.99,833.63 298.44,1708.28 502,2223.4 71.27,143.14 125.11,-46 132.13,-61.29 326.34,-711.62 261.27,-1439.61 583.02,-2152.49 267.55,-592.78 888.51,-964.72 1160.46,-1552.39 159.47,-381.68 289.91,-803.86 286.82,-802.19zm-2806.91 -418.26c-0.16,407.46 326.26,719.1 696.61,719.3 366.75,0.2 700.25,-311.25 700.25,-719.3 0,-389.26 -312.54,-713.27 -687.2,-719.72 -391.23,-6.76 -709.51,324.41 -709.67,719.72z"/>
    <polygon class="fil2 str0" points="7199.83,12439.73 7600.02,12439.73 7964.01,14041.95 7642.64,14041.95 7563.81,13639.25 7220.77,13639.25 7143.73,14041.95 6839.06,14041.95 "/>
    <path class="fil2 str0" d="M7378.09 12836.03c-6.4,49.34 -14.93,98 -25.57,146.64l-85.23 415.83 253.89 0 -87.36 -415.83c-0.7,-2.11 -1.41,-4.97 -2.13,-8.51 -34.52,-166.53 -14.12,-426.85 -53.61,-138.13z"/>
    <polygon class="fil3 str0" points="7239.24,12488.73 6903.67,13992.93 7101.11,13992.93 7177.81,13590.25 7606.41,13590.25 7684.18,13992.93 7899.72,13992.93 7559.54,12488.73 "/>
    <polygon class="fil4 str0" points="7378.79,12657.05 7407.92,12657.05 7582.27,13447.5 7208,13447.5 "/>
    <polygon class="fil2 str0" points="5930.7,12439.73 6915.03,12439.73 6915.03,12703.92 6572.01,12703.92 6572.01,14041.95 6273.71,14041.95 6273.71,12703.92 5930.7,12703.92 "/>
    <polygon class="fil3 str0" points="5981.83,12488.73 5981.83,12652.81 6327,12652.81 6327,13992.93 6520.86,13992.93 6520.86,12652.81 6863.9,12652.81 6863.9,12488.73 "/>
    <polygon class="fil2 str0" points="4854.72,12439.73 5839.05,12439.73 5839.05,12703.92 5496.04,12703.92 5496.04,14041.95 5197.76,14041.95 5197.76,12703.92 4854.72,12703.92 "/>
    <polygon class="fil3 str0" points="4905.87,12488.73 4905.87,12652.81 5251.02,12652.81 5251.02,13992.93 5444.91,13992.93 5444.91,12652.81 5787.94,12652.81 5787.94,12488.73 "/>
    <polygon class="fil2 str0" points="4164.77,12439.73 4564.97,12439.73 4928.95,14041.95 4607.57,14041.95 4528.74,13639.25 4185.71,13639.25 4108.67,14041.95 3803.99,14041.95 "/>
    <path class="fil2 str0" d="M4343.02 12836.03c-6.38,49.34 -14.9,98 -25.55,146.64l-85.25 415.83 253.91 0 -87.36 -415.83c-0.72,-2.11 -1.43,-4.97 -2.13,-8.51 -34.54,-166.53 -14.14,-426.85 -53.63,-138.13z"/>
    <polygon class="fil3 str0" points="4204.19,12488.73 3868.62,13992.93 4066.06,13992.93 4142.76,13590.25 4571.35,13590.25 4649.13,13992.93 4864.68,13992.93 4524.48,12488.73 "/>
    <polygon class="fil4 str0" points="4343.75,12657.05 4372.87,12657.05 4547.21,13447.5 4172.93,13447.5 "/>
    <path class="fil2 str0" d="M3659.47 12944.69l-279.11 0 0 -26.99c0,-90.19 -18.47,-159.43 -55.4,-207.38 -36.57,-48.3 -89.85,-72.43 -160.13,-72.43 -85.25,0 -143.82,32.3 -175.44,96.59 -31.94,64.61 -47.93,238.98 -47.93,523.4 0,233.65 15.99,388.84 47.93,465.17 31.62,76.36 89.49,114.35 173.65,114.35 72.43,0 125.72,-28.76 158.73,-86.29 33.37,-57.87 50.07,-149.83 50.07,-275.91l0 -51.13 -206.66 0 0 -255.68 494.3 0 0 873.56 -202.41 0 -12.43 -170.09c-37.98,72.43 -85.21,125.35 -141.33,158.73 -56.1,33.03 -126.76,49.7 -211.99,49.7 -168.68,0 -286.94,-62.48 -354.74,-187.13 -67.83,-124.99 -101.92,-357.94 -101.92,-699.19 0,-304.34 38.7,-512.06 116.12,-623.58 77.06,-111.13 212.71,-166.87 406.24,-166.87 172.56,0 299.71,41.17 380.67,123.22 81.32,82.37 121.79,210.56 121.79,384.55l0 33.39z"/>
    <path class="fil3 str0" d="M3606.2 12895.67c0,-153.39 -35.86,-265.61 -107.59,-336.62 -72.09,-71.02 -185.38,-106.55 -340.2,-106.55 -178.96,0 -302.18,50.79 -369.65,151.99 -67.12,101.22 -100.86,307.51 -100.86,619.65 0,306.45 30.55,517.37 91.26,632.43 60.73,115.06 165.85,172.58 315.68,172.58 82.03,0 149.51,-15.97 202.05,-47.57 52.92,-31.96 97.66,-83.46 134.59,-154.82l42.26 0 21.66 166.17 112.92 0 0 -775.52 -392.04 0 0 157.66 208.81 0c0,8.87 0.34,22.01 1.05,38.7 0.7,16.35 1.09,28.76 1.09,36.23 0,152.69 -21.32,263.84 -63.58,332.72 -42.26,69.25 -109.71,103.71 -202.76,103.71 -101.2,0 -171.86,-42.28 -211.28,-126.78 -39.4,-84.86 -59.3,-251.41 -59.3,-499.63 0,-290.82 19.53,-475.11 58.23,-553.6 38.7,-78.49 108.32,-117.55 208.09,-117.55 86.65,0 153.05,25.59 198.85,76.36 45.82,51.13 71.02,127.83 75.99,230.45l174.72 0z"/>
   </g>
   <path class="fil5" d="M14363.28 4804.29l1134.61 0 0 320.17 -84.62 0c-55.07,0 -93.11,5.11 -113.57,14.76 -20.44,10.22 -35.76,26.11 -46,47.69 -9.66,21.56 -14.76,63.02 -14.76,124.33l0 729.46 -340.72 0 -88.02 -166.89c-103.91,68.11 -212.39,119.2 -324.25,153.27 -111.88,34.05 -228.3,51.09 -348.69,51.09 -211.83,0 -404.89,-51.67 -578.66,-154.42 -173.77,-102.75 -311.78,-246.36 -412.85,-431.44 -101.66,-184.49 -152.19,-391.69 -152.19,-620.46 0,-227.07 49.96,-429.75 150.5,-609.13 99.93,-179.38 240.21,-320.17 420.22,-424.06 180.01,-103.31 375.38,-154.96 586.04,-154.96 101.66,0 203.32,13.05 304.96,38.6 101.08,25.55 187.97,59.6 260.08,102.18l61.33 -103.33 232.83 0 209.55 768.64 -306.09 99.91c-104.48,-168.04 -186.26,-282.69 -247.03,-344 -60.2,-60.75 -129.48,-108.44 -207.83,-142.49 -78.39,-34.64 -154.48,-51.65 -228.86,-51.65 -105.06,0 -203.3,30.65 -294.74,91.38 -91.42,60.75 -164.1,149.87 -216.92,266.24 -53.38,116.95 -80.08,258.31 -80.08,424.06 0,182.8 28.97,341.19 86.9,475.15 58.47,133.98 134.57,233.33 228.28,298.04 94.26,64.71 197.61,97.07 310.61,97.07 79.53,0 155.04,-15.89 226.59,-48.26 71.55,-32.36 120.39,-68.69 147.1,-108.42 26.67,-40.31 39.73,-94.24 39.73,-161.8l0 -85.15c0,-59.04 -3.96,-96.51 -11.93,-111.84 -11.91,-22.71 -28.38,-38.6 -48.84,-48.82 -20.44,-9.66 -60.75,-14.76 -120.95,-14.76l-131.73 0 0 -320.17zm2030.16 -459.82l0 241.84c89.17,-93.67 166.39,-157.26 231.7,-190.75 64.73,-34.05 127.77,-51.09 187.95,-51.09 54.53,0 103.37,12.49 145.97,37.47 43.15,24.98 77.22,60.75 102.22,107.29 24.96,46.55 37.45,96.51 37.45,149.85 0,69.84 -23.27,132.84 -69.28,189.62 -46,56.2 -110.73,84.58 -194.21,84.58 -22.17,0 -42.02,-1.71 -59.62,-5.11 -17.04,-3.42 -53.38,-14.2 -109.04,-32.93 -28.97,-8.51 -52.82,-13.05 -71.55,-13.05 -28.97,0 -76.68,18.16 -143.68,54.49l0 648.3c0,55.05 3.96,90.82 12.49,107.29 7.97,17.02 21.58,28.95 39.75,36.89 18.75,7.38 59.06,11.36 120.97,11.36l72.11 0 0 320.17 -1022.17 0 0 -320.17 85.17 0c61.33,0 99.39,-3.42 114.15,-10.22 15.33,-6.26 26.69,-18.16 34.07,-34.64 7.95,-16.45 11.93,-53.36 11.93,-110.69l0 -760.7 -245.32 0 0 -319.6c180.59,-11.34 367.98,-57.91 562.75,-140.22l156.17 0zm793.91 37.47l776.85 -13.64 0 1075.77c0,76.62 4.55,127.14 14.2,152.69 9.66,25.55 26.69,45.98 52.26,62.46 24.96,15.89 56.78,23.84 94.82,23.84 55.64,0 114.71,-13.05 177.73,-39.75 24.44,-10.78 89.73,-49.94 195.94,-116.93l0 -648.3c0,-56.2 -4.55,-95.36 -13.62,-116.38 -8.55,-21 -21.6,-36.33 -38.06,-45.4 -16.47,-9.66 -48.84,-14.2 -97.11,-14.2l-96.53 0 0 -320.17 776.85 -13.64 0 1186.47c0,61.87 3.4,100.47 10.78,116.95 6.82,15.89 18.18,27.24 34.07,34.62 15.91,7.38 53.95,10.78 113.59,10.78l86.88 0 0 323.59 -725.74 20.44 0 -197.55c-97.68,71.53 -195.94,124.89 -294.72,160.66 -98.82,35.76 -198.21,53.93 -298.16,53.93 -80.06,0 -153.31,-13.05 -220.9,-39.18 -67.02,-26.11 -123.24,-60.73 -168.64,-104.46 -46,-43.71 -79.53,-94.8 -101.66,-153.27 -22.17,-59.04 -33.51,-133.96 -33.51,-225.93l0 -684.06c0,-63 -3.42,-102.75 -10.8,-119.2 -7.36,-17.04 -19.29,-28.97 -35.78,-37.47 -17.02,-8.51 -52.22,-12.49 -106.73,-12.49l-92 0 0 -320.17zm3005.78 -37.47l0 187.33c126.62,-78.89 223.17,-129.42 290.17,-152.69 67,-23.27 139.15,-34.64 215.23,-34.64 194.21,0 352.09,71.53 474.18,214.02 139.7,163.49 209.55,372.4 209.55,626.15 0,242.97 -60.77,446.77 -182.86,610.26 -139.7,189.04 -327.11,283.28 -562.21,283.28 -75.51,0 -141.41,-8.53 -198.17,-25.55 -56.22,-17.04 -118.13,-48.26 -184.57,-93.67l0 336.64c0,66.98 3.4,107.29 10.22,120.35 7.38,17.04 19.87,28.95 37.47,36.33 17.04,7.38 60.2,10.78 129.48,10.78l78.39 0 0 320.19 -1032.41 0 0 -320.19 56.22 0c75.51,0 121.51,-2.84 137.4,-9.07 15.91,-6.26 28.42,-18.75 37.49,-38.04 9.66,-19.31 14.2,-59.04 14.2,-118.66l0 -1482.77 -245.32 0 0 -326.98c119.24,-14.18 220.9,-32.36 304.94,-53.93 83.5,-21 168.66,-51.09 254.99,-89.13l155.59 0zm61.33 521.13l0 537.02c0,84.58 7.95,144.77 23.86,180.53 16.45,35.2 44.27,64.15 83.48,86.86 39.18,22.15 84.62,33.49 135.73,33.49 89.71,0 164.1,-40.87 223.15,-123.18 59.62,-82.31 89.17,-207.2 89.17,-375.24 0,-155.55 -25.55,-270.78 -77.22,-346.29 -51.69,-74.93 -115.28,-112.4 -190.26,-112.4 -86.88,0 -182.84,39.75 -287.9,119.22zm2326.02 -521.13c189.66,0 354.92,36.91 495.75,111.27 141.43,73.8 249.32,174.84 325.4,302 76.09,127.73 114.15,277.6 114.15,448.46 0,258.88 -84.04,468.91 -252.7,630.13 -168.66,161.22 -394.11,241.84 -675.77,241.84 -287.36,0 -515.64,-81.18 -685.43,-243.55 -164.12,-154.96 -246.47,-364.44 -246.47,-628.42 0,-173.13 37.47,-322.44 112.44,-447.33 74.97,-124.89 183.43,-225.37 325.4,-300.86 141.97,-75.51 304.4,-113.55 487.24,-113.55zm8.53 364.46c-63.6,0 -123.24,18.73 -178.88,56.2 -55.66,37.45 -98.82,92.53 -129.48,165.77 -30.67,72.65 -46,165.18 -46,278.17 0,115.8 14.76,211.73 44.86,287.8 30.09,76.07 72.13,132.84 124.93,169.16 52.82,36.35 110.75,54.51 174.35,54.51 98.22,0 182.28,-40.87 252.68,-123.2 69.86,-82.31 105.08,-210.04 105.08,-383.75 0,-167.45 -32.38,-293.49 -97.7,-378.08 -65.29,-84.58 -148.77,-126.58 -249.84,-126.58zm4061.46 -1110.39l0 1929.54c0,76.07 3.42,122.06 9.68,138.53 6.8,15.89 18.16,27.8 33.49,35.76 15.91,7.36 57.91,11.34 125.5,11.34l76.68 0 0 326.98 -718.94 23.84 0 -173.13c-103.93,70.38 -195.35,118.64 -274.3,145.89 -78.35,27.24 -157.28,40.87 -235.66,40.87 -127.77,0 -244.76,-34.64 -352.09,-103.33 -106.75,-69.25 -194.21,-172 -262.34,-307.67 -68.15,-135.67 -102.22,-286.67 -102.22,-452.44 0,-168.04 34.64,-320.19 103.91,-456.99 69.28,-136.24 160.15,-239 271.45,-308.82 111.29,-69.82 236.25,-104.46 373.67,-104.46 70.96,0 139.11,8.51 203.84,25.55 65.33,17.04 136.88,47.13 215.81,90.25l0 -398.49 -245.32 0 0 -320.19c137.99,-13.62 249.86,-30.65 336.18,-51.09 85.75,-21 178.88,-51.65 278.85,-91.96l161.82 0zm-531.53 1960.78l0 -551.22c0,-68.69 -5.11,-117.51 -14.76,-145.89 -13.62,-40.87 -43.73,-76.64 -90.86,-107.29 -47.13,-30.65 -99.95,-45.98 -157.3,-45.98 -60.2,0 -115.84,17.6 -166.95,53.36 -51.11,35.76 -91.44,90.25 -121.53,163.49 -30.11,73.8 -44.86,165.18 -44.86,275.31 0,152.15 34.05,274.2 101.64,366.73 52.26,72.09 121.53,108.42 208.41,108.42 37.49,0 73.84,-6.24 107.9,-18.73 34.66,-13.05 94.28,-45.42 178.32,-98.2zm2495.27 -133.98l227.72 228.78c-130.62,148.73 -264.07,257.15 -399.8,323.56 -135.73,67 -282.79,100.49 -440.11,100.49 -252.7,0 -465.66,-85.17 -638.28,-256.04 -173.21,-170.85 -259.54,-376.93 -259.54,-619.33 0,-158.95 38.62,-304.27 116.42,-436.55 77.8,-132.27 185.7,-235.58 323.12,-309.95 137.99,-74.36 293.59,-111.84 467.93,-111.84 111.31,0 212.39,15.89 303.25,48.26 90.86,31.78 170.93,77.76 239.08,137.38 68.15,59.04 123.22,131.13 164.68,215.71 42.02,84.58 70.42,172.02 85.75,262.28 6.82,45.42 10.22,116.95 10.22,215.15l-1120.97 0c2.25,140.22 43.71,253.75 123.79,340.04 80.06,86.86 178.88,130 294.72,130 74.38,0 155.61,-22.15 243.05,-66.42 87.48,-44.86 173.77,-111.84 258.98,-201.53zm-331.09 -481.38c-7.95,-65.86 -23.86,-117.51 -47.69,-154.98 -23.86,-38.04 -56.22,-68.13 -96.55,-90.82 -40.87,-22.15 -82.91,-33.51 -127.77,-33.51 -46.57,0 -91.42,11.36 -135.15,34.64 -43.17,22.71 -77.82,53.93 -103.93,93.67 -26.11,39.16 -43.17,89.69 -51.11,151l562.21 0zm2799.08 -1222.79l524.15 0 696.79 1791.6c38.04,94.24 71.55,152.71 100.49,174.86 29.55,22.13 83.5,32.93 161.84,32.93l0 320.17 -1097.14 0 0 -320.17 66.44 -1.71c60.77,0 103.37,-7.95 127.79,-24.42 24.42,-15.89 36.33,-35.76 36.33,-59.04 0,-19.85 -10.22,-60.73 -31.78,-123.18l-71 -210.6 -703.03 0 -86.88 234.44c-17.62,49.96 -26.69,82.33 -26.69,98.22 0,17.6 6.24,33.49 19.31,48.26 12.49,14.18 33.49,24.98 62.48,31.22 18.73,4.55 71.55,6.82 157.28,6.82l0 320.17 -899.51 0 0 -320.17c57.93,0 99.95,-5.11 126.64,-14.76 26.11,-10.22 48.28,-24.98 65.29,-44.86 17.04,-19.85 36.37,-57.33 57.37,-111.25l713.83 -1828.51zm-67.02 1250.03l459.98 0 -224.88 -634.66 -235.1 634.66zm3197.73 441.66l244.17 213.46c-130.6,157.82 -266.32,272.47 -407.16,344 -140.82,72.11 -291.32,107.88 -452.04,107.88 -257.23,0 -471.89,-83.46 -643.97,-250.35 -172.06,-166.91 -258.37,-370.13 -258.37,-609.7 0,-162.35 40.31,-311.09 120.39,-446.2 80.64,-134.53 190.81,-239.55 331.07,-314.49 140.28,-75.49 305.52,-112.96 496.33,-112.96 228.28,0 414.54,52.8 559.37,158.95 144.81,105.6 216.94,217.42 216.94,334.93 0,49.4 -11.38,94.24 -34.09,133.42 -22.69,39.73 -57.35,71.53 -103.91,95.93 -46.57,24.42 -95.99,36.33 -148.21,36.33 -42.04,0 -80.08,-8.51 -113,-24.96 -33.51,-16.47 -61.33,-37.47 -83.5,-63.02 -9.66,-10.78 -28.95,-44.86 -57.93,-102.18 -36.91,-71.53 -64.73,-119.22 -85.17,-142.49 -19.89,-23.27 -43.73,-40.87 -71.57,-53.36 -27.26,-13.05 -59.06,-19.29 -94.82,-19.29 -57.37,0 -112.44,18.16 -165.26,55.05 -52.8,36.91 -95.97,93.11 -130.04,168.04 -33.51,74.93 -50.53,158.38 -50.53,250.91 0,101.62 19.85,192.46 59.62,273.62 40.31,81.18 93.69,142.49 160.72,183.93 67,42.02 140.82,63.02 222.03,63.02 77.24,0 155.61,-21 234.54,-62.44 78.37,-42.02 163.53,-114.67 254.41,-218zm1383.91 -1068.37c189.66,0 354.92,36.91 495.77,111.27 141.41,73.8 249.3,174.84 325.38,302 76.11,127.73 114.15,277.6 114.15,448.46 0,258.88 -84.04,468.91 -252.7,630.13 -168.66,161.22 -394.11,241.84 -675.77,241.84 -287.36,0 -515.64,-81.18 -685.43,-243.55 -164.12,-154.96 -246.47,-364.44 -246.47,-628.42 0,-173.13 37.49,-322.44 112.44,-447.33 74.97,-124.89 183.43,-225.37 325.42,-300.86 141.95,-75.51 304.38,-113.55 487.22,-113.55zm8.53 364.46c-63.6,0 -123.24,18.73 -178.88,56.2 -55.66,37.45 -98.82,92.53 -129.48,165.77 -30.67,72.65 -46,165.18 -46,278.17 0,115.8 14.76,211.73 44.86,287.8 30.09,76.07 72.13,132.84 124.93,169.16 52.82,36.35 110.75,54.51 174.35,54.51 98.24,0 182.28,-40.87 252.68,-123.2 69.88,-82.31 105.08,-210.04 105.08,-383.75 0,-167.45 -32.36,-293.49 -97.7,-378.08 -65.29,-84.58 -148.77,-126.58 -249.84,-126.58zm1925.68 -1110.39l0 1947.14c0,65.29 2.84,104.46 8.53,116.38 7.36,22.13 24.4,38.6 51.11,48.26 16.45,6.8 61.33,10.22 134.57,10.22l57.93 0 0 320.17 -1029.01 0 0 -320.17 63.04 0c66.44,0 109.04,-3.98 127.77,-12.49 18.75,-8.53 32.38,-21.58 41.46,-39.75 8.53,-18.73 13.05,-59.04 13.05,-122.62l0 -1483.9 -245.32 0 0 -320.19c198.77,-13.62 403.76,-61.31 615.59,-143.06l161.28 0zm1198.78 0l0 927.59c109.6,-66.42 206.72,-113.53 290.76,-140.78 84.06,-27.26 165.26,-40.87 244.21,-40.87 105.06,0 198.73,22.15 281.08,66.98 82.91,44.86 143.1,101.06 182.3,168.6 38.6,67.57 57.91,157.82 57.91,270.78l0 692.01c0,67.57 2.86,108.44 8.53,123.18 8.51,21.02 25.55,36.35 49.96,45.98 14.2,5.69 53.95,8.53 118.7,8.53l78.35 0 0 320.17 -981.28 0 0 -320.17 49.96 0c47.15,0 80.06,-4.55 97.68,-13.05 17.6,-9.09 30.09,-21.58 36.35,-37.47 6.82,-15.89 10.24,-55.07 10.24,-116.95l0 -571.66c0,-74.93 -4.57,-124.87 -14.22,-149.85 -9.09,-24.42 -26.11,-44.86 -49.99,-61.31 -24.4,-15.89 -54.49,-23.86 -90.84,-23.86 -51.67,0 -106.21,10.22 -162.43,31.24 -56.78,21 -126.06,60.16 -207.28,116.36l0 659.08c0,63.02 3.44,102.18 10.24,117.51 6.26,15.89 19.31,27.82 38.04,36.91 18.75,8.51 53.95,13.05 106.21,13.05l36.35 0 0 320.17 -967.68 0 0 -320.17 94.28 0c54.53,0 89.71,-3.42 105.04,-10.8 14.78,-7.36 26.15,-19.29 34.09,-36.89 7.95,-17.04 11.91,-51.09 11.91,-102.18l0 -1508.88 -245.32 0 0 -320.19c92,-5.67 195.35,-21.56 310.07,-47.67 114.71,-26.69 218.63,-58.47 310.63,-95.38l156.15 0zm2043.25 3.42c84.6,0 156.17,29.51 215.79,89.11 59.64,59.06 89.15,130.58 89.15,214.58 0,85.73 -29.51,157.82 -89.15,216.86 -59.62,59.62 -131.19,89.13 -215.79,89.13 -84.62,0 -156.17,-29.51 -215.79,-89.13 -59.64,-59.04 -89.15,-130.56 -89.15,-215.15 0,-82.87 30.65,-154.4 91.4,-215.15 61.33,-60.18 132.33,-90.25 213.54,-90.25zm270.88 742.51l0 1226.76c0,58.47 3.4,94.8 10.22,107.85 6.24,13.07 18.16,23.29 35.76,30.65 17.06,7.38 55.66,10.8 115.84,10.8l90.31 0 0 320.17 -1029.01 0 0 -320.17 88.02 0c57.37,0 94.26,-2.84 110.19,-9.09 15.89,-6.24 27.8,-16.45 35.76,-30.65 7.36,-14.18 11.34,-43.15 11.34,-86.29l0 -790.21 -245.32 0 0 -313.37c87.46,-4.53 171.5,-13.62 252.16,-28.38 80.06,-14.18 152.17,-31.78 215.21,-51.65 40.89,-13.05 91.44,-35.2 151.62,-66.42l157.88 0zm1202.22 0l0 220.84c96.51,-74.38 194.77,-129.44 294.16,-166.35 99.93,-36.33 201.59,-54.49 304.38,-54.49 65.88,0 128.33,9.66 189.1,28.95 60.18,19.31 110.73,44.86 151.06,75.51 40.89,31.22 77.78,73.24 110.73,126.02 107.9,-81.75 210.68,-140.78 309.48,-176.55 98.82,-35.76 198.77,-53.93 300.98,-53.93 88.61,0 169.22,15.89 241.36,48.26 72.13,31.78 130.6,75.51 175.48,130 44.86,55.05 73.82,114.67 87.44,178.82 8.53,39.73 13.05,97.64 13.05,174.27l0 686.9c0,56.76 3.98,93.09 12.51,109.56 7.95,16.45 22.15,29.51 41.44,38.04 14.22,6.8 53.97,10.22 119.26,10.22l72.13 0 0 320.17 -967.66 0 0 -320.17c72.11,0 116.99,-3.42 136.28,-10.8 18.75,-7.36 32.38,-18.73 41.46,-34.62 8.53,-16.47 13.05,-51.65 13.05,-105.58l0 -602.31c0,-69.82 -4.53,-115.8 -14.18,-138.51 -9.66,-22.71 -27.84,-42.02 -55.09,-58.47 -27.26,-15.89 -59.62,-23.86 -97.11,-23.86 -43.71,0 -90.27,9.66 -140.26,28.97 -49.96,19.29 -123.79,61.87 -221.46,127.17l0 648.84c0,64.17 4.55,104.46 13.05,120.93 9.07,16.45 24.42,29.51 46.57,38.04 13.62,5.67 57.37,9.07 131.17,10.22l0 320.17 -913.15 0 0 -320.17c76.11,-1.15 122.12,-5.11 139.15,-11.36 16.45,-6.8 29.51,-18.73 38.06,-36.33 9.07,-18.16 13.62,-57.91 13.62,-120.91l0 -567.11c0,-87.42 -7.95,-145.33 -23.29,-173.71 -24.42,-43.15 -67.59,-64.73 -130.04,-64.73 -31.22,0 -63.6,3.98 -98.26,11.36 -34.62,7.95 -68.13,19.87 -101.62,36.33 -17.62,9.09 -63.04,38.04 -136.32,86.29l-38.6 24.98 0 646.59c0,61.87 3.42,100.47 10.22,115.8 6.26,15.33 19.31,27.82 38.6,38.04 19.33,9.66 52.82,14.76 100.53,14.76l44.86 0 0 320.17 -971.08 0 0 -320.17 64.75 0c68.71,0 111.29,-3.42 128.33,-10.8 17.06,-7.36 30.11,-19.85 39.18,-38.02 8.53,-18.18 13.05,-57.91 13.05,-119.78l0 -744.24 -245.32 0 0 -320.17c203.32,-19.29 390.71,-66.98 562.77,-143.06l156.19 0zm4154.03 1080.86l227.72 228.78c-130.62,148.73 -264.07,257.15 -399.8,323.56 -135.73,67 -282.79,100.49 -440.11,100.49 -252.7,0 -465.66,-85.17 -638.28,-256.04 -173.21,-170.85 -259.52,-376.93 -259.52,-619.33 0,-158.95 38.6,-304.27 116.42,-436.55 77.78,-132.27 185.68,-235.58 323.1,-309.95 138.01,-74.36 293.59,-111.84 467.93,-111.84 111.31,0 212.39,15.89 303.27,48.26 90.84,31.78 170.93,77.76 239.06,137.38 68.15,59.04 123.22,131.13 164.7,215.71 42,84.58 70.4,172.02 85.73,262.28 6.82,45.42 10.22,116.95 10.22,215.15l-1120.97 0c2.25,140.22 43.73,253.75 123.79,340.04 80.06,86.86 178.88,130 294.72,130 74.38,0 155.61,-22.15 243.05,-66.42 87.48,-44.86 173.77,-111.84 258.98,-201.53zm-331.09 -481.38c-7.95,-65.86 -23.84,-117.51 -47.69,-154.98 -23.86,-38.04 -56.22,-68.13 -96.53,-90.82 -40.89,-22.15 -82.93,-33.51 -127.79,-33.51 -46.57,0 -91.42,11.36 -135.15,34.64 -43.17,22.71 -77.8,53.93 -103.93,93.67 -26.11,39.16 -43.17,89.69 -51.11,151l562.21 0zm1536.68 -599.48l0 220.84c125.5,-85.17 233.41,-143.64 322.54,-174.29 89.75,-31.22 181.15,-46.55 274.87,-46.55 107.9,0 203.32,22.71 285.65,68.13 82.91,45.42 143.68,102.18 181.15,170.29 38.04,67.57 56.78,164.64 56.78,289.53l0 690.3c0,59.04 3.96,96.51 12.49,112.96 7.97,16.47 21.02,28.95 39.18,36.33 13.05,5.69 52.82,8.53 119.26,8.53l81.2 0 0 320.17 -974.48 0 0 -320.17c73.26,-1.15 114.71,-2.84 123.22,-5.11 27.82,-7.38 45.44,-20.44 54.53,-38.04 8.51,-17.6 13.05,-55.64 13.05,-114.11l0 -606.84c0,-78.35 -8.51,-128.87 -24.98,-152.15 -26.69,-38.6 -68.73,-57.91 -126.64,-57.91 -47.69,0 -98.8,10.22 -153.31,31.24 -54.53,21 -127.79,64.15 -219.77,129.42l0 656.24c0,71.53 7.95,115.8 23.84,132.27 15.35,16.45 53.38,24.98 113,24.98l53.95 0 0 320.17 -967.66 0 0 -320.17 48.28 0c76.09,0 123.22,-3.42 141.41,-9.66 18.16,-6.82 32.36,-18.73 41.44,-35.2 9.68,-16.45 14.22,-48.82 14.22,-97.64l0 -770.35 -245.34 0 0 -320.17c198.75,-24.98 385.02,-72.65 558.22,-143.06l153.9 0zm2331.15 -531.35l0 568.82 534.95 0 0 354.22 -534.95 0 0 578.48c0,130.56 6.8,214.58 21.02,251.47 13.62,37.47 39.16,66.98 77.22,89.13 49.4,30.09 106.77,44.86 170.93,44.86 114.15,0 227.72,-36.91 340.72,-111.27l0 355.93c-96.55,45.42 -183.99,77.22 -261.79,95.95 -78.37,18.16 -162.99,27.26 -253.85,27.26 -103.35,0 -194.77,-13.05 -273.72,-39.18 -79.49,-26.11 -147.06,-63 -203.28,-111.25 -55.66,-48.26 -94.84,-99.35 -116.42,-153.84 -21.58,-54.51 -32.36,-132.84 -32.36,-236.17l0 -791.35 -245.32 0 0 -320.17c88.57,-28.95 164.12,-69.82 227.16,-123.18 62.46,-53.93 113,-118.07 151.6,-193.02 38.06,-75.49 64.17,-170.85 78.39,-286.67l319.7 0zm1742.82 531.35c189.66,0 354.92,36.91 495.75,111.27 141.43,73.8 249.3,174.84 325.4,302 76.09,127.73 114.15,277.6 114.15,448.46 0,258.88 -84.06,468.91 -252.72,630.13 -168.66,161.22 -394.09,241.84 -675.75,241.84 -287.36,0 -515.64,-81.18 -685.43,-243.55 -164.12,-154.96 -246.49,-364.44 -246.49,-628.42 0,-173.13 37.49,-322.44 112.44,-447.33 74.99,-124.89 183.45,-225.37 325.42,-300.86 141.97,-75.51 304.38,-113.55 487.24,-113.55zm8.53 364.46c-63.6,0 -123.24,18.73 -178.88,56.2 -55.66,37.45 -98.82,92.53 -129.5,165.77 -30.65,72.65 -45.98,165.18 -45.98,278.17 0,115.8 14.76,211.73 44.84,287.8 30.11,76.07 72.15,132.84 124.93,169.16 52.82,36.35 110.75,54.51 174.37,54.51 98.22,0 182.28,-40.87 252.68,-123.2 69.86,-82.31 105.08,-210.04 105.08,-383.75 0,-167.45 -32.38,-293.49 -97.7,-378.08 -65.29,-84.58 -148.79,-126.58 -249.84,-126.58zm3843.98 716.4l227.7 228.78c-130.6,148.73 -264.05,257.15 -399.78,323.56 -135.73,67 -282.79,100.49 -440.11,100.49 -252.72,0 -465.66,-85.17 -638.28,-256.04 -173.21,-170.85 -259.54,-376.93 -259.54,-619.33 0,-158.95 38.62,-304.27 116.42,-436.55 77.8,-132.27 185.7,-235.58 323.12,-309.95 137.99,-74.36 293.59,-111.84 467.93,-111.84 111.31,0 212.39,15.89 303.25,48.26 90.86,31.78 170.93,77.76 239.06,137.38 68.17,59.04 123.24,131.13 164.7,215.71 42.02,84.58 70.42,172.02 85.75,262.28 6.82,45.42 10.22,116.95 10.22,215.15l-1120.97 0c2.25,140.22 43.71,253.75 123.79,340.04 80.06,86.86 178.88,130 294.72,130 74.38,0 155.59,-22.15 243.05,-66.42 87.48,-44.86 173.77,-111.84 258.98,-201.53zm-331.09 -481.38c-7.95,-65.86 -23.86,-117.51 -47.69,-154.98 -23.86,-38.04 -56.22,-68.13 -96.55,-90.82 -40.87,-22.15 -82.91,-33.51 -127.77,-33.51 -46.57,0 -91.44,11.36 -135.15,34.64 -43.17,22.71 -77.82,53.93 -103.93,93.67 -26.13,39.16 -43.17,89.69 -51.11,151l562.21 0z"/>
   <g>
    <path class="fil5" d="M13269.16 8247.45l219.13 0 23.27 78.33 1310.77 0 28.38 -78.33 219.13 0 284.96 815.19 -306.55 108.42c-68.69,-135.11 -118.07,-223.09 -148.16,-263.97 -58.47,-80.62 -126.58,-144.77 -203.22,-190.75 -57.35,-35.76 -114.67,-53.36 -171.44,-53.36 -26.69,0 -44.86,6.26 -55.07,19.31 -9.66,12.49 -14.76,41.44 -14.76,86.86l0 1331.77c0,78.91 2.84,127.73 8.53,147.6 5.67,20.44 14.74,35.76 28.38,47.67 13.05,11.36 31.78,19.31 55.05,23.27 23.27,3.98 85.73,5.69 187.33,5.69l0 320.17 -1130.81 0 0 -320.17 68.69 0c75.49,0 124.31,-4.55 145.33,-14.2 21,-9.07 37.45,-26.11 48.82,-49.94 10.78,-23.86 16.45,-73.24 16.45,-148.16l0 -1361.87c0,-38.6 -4.55,-63.02 -13.62,-73.24 -8.51,-9.66 -27.82,-14.76 -56.2,-14.76 -57.91,0 -122.62,21.58 -193.58,64.73 -71.53,43.13 -135.11,103.87 -190.73,182.78 -22.15,30.65 -69.28,117.51 -141.37,260.57l-303.71 -108.42 284.98 -815.19zm2958.17 701.64l0 241.84c89.13,-93.67 166.33,-157.26 231.62,-190.75 64.71,-34.05 127.73,-51.09 187.89,-51.09 54.51,0 103.33,12.49 145.91,37.47 43.13,24.98 77.2,60.75 102.18,107.29 24.96,46.55 37.45,96.51 37.45,149.85 0,69.84 -23.27,132.84 -69.25,189.62 -45.98,56.2 -110.69,84.58 -194.15,84.58 -22.15,0 -42,-1.71 -59.6,-5.11 -17.04,-3.42 -53.36,-14.2 -109,-32.93 -28.95,-8.51 -52.8,-13.05 -71.53,-13.05 -28.95,0 -76.64,18.16 -143.62,54.49l0 648.3c0,55.05 3.96,90.82 12.49,107.29 7.95,17.02 21.56,28.95 39.73,36.89 18.75,7.38 59.04,11.36 120.93,11.36l72.09 0 0 320.17 -1021.83 0 0 -320.17 85.15 0c61.31,0 99.35,-3.42 114.11,-10.22 15.33,-6.26 26.67,-18.16 34.05,-34.64 7.95,-16.45 11.93,-53.36 11.93,-110.69l0 -760.7 -245.24 0 0 -319.6c180.53,-11.34 367.86,-57.91 562.57,-140.22l156.11 0zm1842.69 691.44l0 -122.06c0,-72.65 -6.24,-122.62 -18.16,-149.87 -12.49,-27.82 -34.62,-50.51 -66.98,-68.69 -32.36,-18.16 -72.67,-27.24 -120.35,-27.24 -36.91,0 -70.4,6.24 -100.49,18.16 -30.07,11.93 -53.93,27.26 -71.53,45.98 -18.16,18.73 -38.6,55.05 -61.87,109 -30.09,68.11 -65.86,116.93 -107.29,147.02 -41.44,29.53 -90.82,44.27 -147.02,44.27 -70.96,0 -129.44,-22.13 -174.86,-66.42 -45.4,-44.27 -68.11,-98.76 -68.11,-164.06 0,-73.8 23.27,-139.64 69.82,-196.98 62.44,-76.64 154.98,-139.07 278.17,-187.89 123.18,-48.26 261.69,-72.67 415.53,-72.67 154.42,0 285.55,24.98 393.99,74.36 107.85,49.96 183.35,109.56 225.93,178.26 42.58,69.25 64.15,174.84 64.15,316.2l0 593.22c0,73.24 3.98,119.78 11.93,140.22 7.38,20.44 24.4,38.6 49.94,53.93 25.55,15.33 53.93,23.27 85.17,23.27 31.22,0 73.22,-9.09 125.46,-26.67l0 325.84c-94.24,30.09 -185.08,44.86 -271.93,44.86 -102.18,0 -189.04,-16.47 -261.69,-49.96 -72.09,-33.49 -132.84,-83.46 -181.66,-150.44 -111.27,72.09 -211.75,123.77 -302.59,154.42 -90.25,30.65 -177.67,45.98 -262.26,45.98 -158.95,0 -287.26,-44.86 -385.46,-133.98 -97.64,-89.13 -146.46,-199.26 -146.46,-329.82 0,-74.36 17.02,-142.49 51.09,-204.37 34.05,-61.87 84.58,-116.36 151.56,-162.93 67.55,-46.55 171.44,-87.42 312.78,-123.75 140.78,-35.76 311.66,-61.87 513.19,-77.2zm0 275.89c-145.89,21 -249.2,42.56 -309.38,64.15 -60.16,21.56 -103.31,48.26 -128.85,81.18 -25.55,32.91 -38.6,66.42 -38.6,100.47 0,44.27 16.45,81.18 49.94,111.25 33.49,30.09 78.91,44.86 135.67,44.86 36.91,0 79.47,-9.66 128.29,-28.38 48.26,-18.73 102.77,-46.55 162.93,-82.89l0 -290.64zm1713.27 -1498.69l0 568.82 534.75 0 0 354.22 -534.75 0 0 578.48c0,130.56 6.8,214.58 21,251.47 13.62,37.47 39.16,66.98 77.2,89.13 49.38,30.09 106.73,44.86 170.87,44.86 114.11,0 227.64,-36.91 340.6,-111.27l0 355.93c-96.51,45.42 -183.93,77.22 -261.69,95.95 -78.35,18.16 -162.93,27.26 -253.77,27.26 -103.31,0 -194.71,-13.05 -273.62,-39.18 -79.47,-26.11 -147.02,-63 -203.22,-111.25 -55.64,-48.26 -94.8,-99.35 -116.38,-153.84 -21.56,-54.51 -32.34,-132.84 -32.34,-236.17l0 -791.35 -245.24 0 0 -320.17c88.54,-28.95 164.06,-69.82 227.07,-123.18 62.44,-53.93 112.96,-118.07 151.56,-193.02 38.04,-75.49 64.15,-170.85 78.35,-286.67l319.6 0zm1829.05 1222.79l0 -122.06c0,-72.65 -6.24,-122.62 -18.16,-149.87 -12.49,-27.82 -34.62,-50.51 -66.98,-68.69 -32.36,-18.16 -72.67,-27.24 -120.35,-27.24 -36.91,0 -70.4,6.24 -100.49,18.16 -30.07,11.93 -53.93,27.26 -71.53,45.98 -18.16,18.73 -38.6,55.05 -61.87,109 -30.09,68.11 -65.86,116.93 -107.29,147.02 -41.44,29.53 -90.82,44.27 -147.02,44.27 -70.96,0 -129.44,-22.13 -174.86,-66.42 -45.4,-44.27 -68.11,-98.76 -68.11,-164.06 0,-73.8 23.27,-139.64 69.82,-196.98 62.44,-76.64 154.98,-139.07 278.17,-187.89 123.18,-48.26 261.69,-72.67 415.53,-72.67 154.42,0 285.55,24.98 393.99,74.36 107.85,49.96 183.35,109.56 225.93,178.26 42.58,69.25 64.15,174.84 64.15,316.2l0 593.22c0,73.24 3.98,119.78 11.93,140.22 7.38,20.44 24.4,38.6 49.94,53.93 25.55,15.33 53.93,23.27 85.17,23.27 31.22,0 73.22,-9.09 125.46,-26.67l0 325.84c-94.24,30.09 -185.08,44.86 -271.93,44.86 -102.18,0 -189.04,-16.47 -261.69,-49.96 -72.09,-33.49 -132.84,-83.46 -181.66,-150.44 -111.27,72.09 -211.75,123.77 -302.59,154.42 -90.25,30.65 -177.67,45.98 -262.26,45.98 -158.95,0 -287.26,-44.86 -385.46,-133.98 -97.64,-89.13 -146.46,-199.26 -146.46,-329.82 0,-74.36 17.02,-142.49 51.09,-204.37 34.05,-61.87 84.58,-116.36 151.56,-162.93 67.55,-46.55 171.44,-87.42 312.78,-123.75 140.78,-35.76 311.66,-61.87 513.19,-77.2zm0 275.89c-145.89,21 -249.2,42.56 -309.38,64.15 -60.16,21.56 -103.31,48.26 -128.85,81.18 -25.55,32.91 -38.6,66.42 -38.6,100.47 0,44.27 16.45,81.18 49.94,111.25 33.49,30.09 78.91,44.86 135.67,44.86 36.91,0 79.47,-9.66 128.29,-28.38 48.26,-18.73 102.77,-46.55 162.93,-82.89l0 -290.64zm1723.49 -967.34l0 220.84c96.49,-74.38 194.71,-129.44 294.06,-166.35 99.91,-36.33 201.53,-54.49 304.27,-54.49 65.86,0 128.29,9.66 189.04,28.95 60.16,19.31 110.69,44.86 151,75.51 40.87,31.22 77.76,73.24 110.69,126.02 107.85,-81.75 210.62,-140.78 309.38,-176.55 98.78,-35.76 198.69,-53.93 300.88,-53.93 88.57,0 169.16,15.89 241.26,48.26 72.11,31.78 130.56,75.51 175.42,130 44.86,55.05 73.8,114.67 87.42,178.82 8.53,39.73 13.05,97.64 13.05,174.27l0 686.9c0,56.76 3.98,93.09 12.49,109.56 7.95,16.45 22.15,29.51 41.44,38.04 14.2,6.8 53.95,10.22 119.22,10.22l72.09 0 0 320.17 -967.32 0 0 -320.17c72.09,0 116.95,-3.42 136.24,-10.8 18.73,-7.36 32.36,-18.73 41.44,-34.62 8.53,-16.47 13.05,-51.65 13.05,-105.58l0 -602.31c0,-69.82 -4.53,-115.8 -14.18,-138.51 -9.66,-22.71 -27.82,-42.02 -55.07,-58.47 -27.24,-15.89 -59.6,-23.86 -97.07,-23.86 -43.71,0 -90.25,9.66 -140.22,28.97 -49.94,19.29 -123.75,61.87 -221.38,127.17l0 648.84c0,64.17 4.55,104.46 13.05,120.93 9.07,16.45 24.4,29.51 46.55,38.04 13.62,5.67 57.35,9.07 131.13,10.22l0 320.17 -912.82 0 0 -320.17c76.07,-1.15 122.06,-5.11 139.09,-11.36 16.45,-6.8 29.51,-18.73 38.04,-36.33 9.07,-18.16 13.62,-57.91 13.62,-120.91l0 -567.11c0,-87.42 -7.95,-145.33 -23.27,-173.71 -24.42,-43.15 -67.57,-64.73 -130,-64.73 -31.22,0 -63.58,3.98 -98.22,11.36 -34.62,7.95 -68.11,19.87 -101.6,36.33 -17.6,9.09 -63.02,38.04 -136.26,86.29l-38.6 24.98 0 646.59c0,61.87 3.42,100.47 10.22,115.8 6.26,15.33 19.31,27.82 38.6,38.04 19.31,9.66 52.8,14.76 100.49,14.76l44.84 0 0 320.17 -970.74 0 0 -320.17 64.73 0c68.69,0 111.25,-3.42 128.29,-10.8 17.04,-7.36 30.09,-19.85 39.16,-38.02 8.53,-18.18 13.05,-57.91 13.05,-119.78l0 -744.24 -245.24 0 0 -320.17c203.24,-19.29 390.57,-66.98 562.57,-143.06l156.13 0zm4152.58 1080.86l227.64 228.78c-130.56,148.73 -263.97,257.15 -399.66,323.56 -135.67,67 -282.69,100.49 -439.95,100.49 -252.62,0 -465.49,-85.17 -638.06,-256.04 -173.15,-170.85 -259.44,-376.93 -259.44,-619.33 0,-158.95 38.6,-304.27 116.38,-436.55 77.76,-132.27 185.62,-235.58 323,-309.95 137.95,-74.36 293.49,-111.84 467.77,-111.84 111.27,0 212.31,15.89 303.15,48.26 90.82,31.78 170.87,77.76 238.98,137.38 68.13,59.04 123.18,131.13 164.64,215.71 42,84.58 70.38,172.02 85.71,262.28 6.82,45.42 10.22,116.95 10.22,215.15l-1120.59 0c2.25,140.22 43.71,253.75 123.75,340.04 80.04,86.86 178.82,130 294.62,130 74.36,0 155.55,-22.15 242.97,-66.42 87.44,-44.86 173.71,-111.84 258.88,-201.53zm-330.97 -481.38c-7.95,-65.86 -23.84,-117.51 -47.67,-154.98 -23.86,-38.04 -56.2,-68.13 -96.51,-90.82 -40.87,-22.15 -82.89,-33.51 -127.73,-33.51 -46.55,0 -91.4,11.36 -135.11,34.64 -43.15,22.71 -77.78,53.93 -103.89,93.67 -26.11,39.16 -43.15,89.69 -51.09,151l562 0zm1536.14 -599.48l0 220.84c125.46,-85.17 233.33,-143.64 322.44,-174.29 89.71,-31.22 181.09,-46.55 274.77,-46.55 107.85,0 203.24,22.71 285.55,68.13 82.87,45.42 143.62,102.18 181.09,170.29 38.02,67.57 56.76,164.64 56.76,289.53l0 690.3c0,59.04 3.96,96.51 12.49,112.96 7.95,16.47 21,28.95 39.16,36.33 13.05,5.69 52.8,8.53 119.22,8.53l81.16 0 0 320.17 -974.13 0 0 -320.17c73.24,-1.15 114.67,-2.84 123.18,-5.11 27.82,-7.38 45.42,-20.44 54.51,-38.04 8.51,-17.6 13.05,-55.64 13.05,-114.11l0 -606.84c0,-78.35 -8.51,-128.87 -24.98,-152.15 -26.67,-38.6 -68.69,-57.91 -126.58,-57.91 -47.69,0 -98.78,10.22 -153.27,31.24 -54.51,21 -127.73,64.15 -219.69,129.42l0 656.24c0,71.53 7.95,115.8 23.84,132.27 15.33,16.45 53.36,24.98 112.96,24.98l53.93 0 0 320.17 -967.32 0 0 -320.17 48.26 0c76.05,0 123.18,-3.42 141.35,-9.66 18.16,-6.82 32.36,-18.73 41.44,-35.2 9.66,-16.45 14.2,-48.82 14.2,-97.64l0 -770.35 -245.24 0 0 -320.17c198.67,-24.98 384.87,-72.65 558.02,-143.06l153.84 0zm2330.35 -531.35l0 568.82 534.75 0 0 354.22 -534.75 0 0 578.48c0,130.56 6.8,214.58 21,251.47 13.62,37.47 39.16,66.98 77.2,89.13 49.38,30.09 106.73,44.86 170.87,44.86 114.11,0 227.64,-36.91 340.6,-111.27l0 355.93c-96.51,45.42 -183.93,77.22 -261.69,95.95 -78.35,18.16 -162.93,27.26 -253.77,27.26 -103.31,0 -194.71,-13.05 -273.62,-39.18 -79.47,-26.11 -147.02,-63 -203.22,-111.25 -55.64,-48.26 -94.8,-99.35 -116.38,-153.84 -21.56,-54.51 -32.34,-132.84 -32.34,-236.17l0 -791.35 -245.24 0 0 -320.17c88.54,-28.95 164.06,-69.82 227.07,-123.18 62.44,-53.93 112.96,-118.07 151.56,-193.02 38.04,-75.49 64.15,-170.85 78.35,-286.67l319.6 0zm1742.19 531.35c189.6,0 354.8,36.91 495.59,111.27 141.37,73.8 249.22,174.84 325.27,302 76.07,127.73 114.11,277.6 114.11,448.46 0,258.88 -84.02,468.91 -252.62,630.13 -168.6,161.22 -393.97,241.84 -675.53,241.84 -287.26,0 -515.46,-81.18 -685.19,-243.55 -164.06,-154.96 -246.38,-364.44 -246.38,-628.42 0,-173.13 37.47,-322.44 112.4,-447.33 74.95,-124.89 183.37,-225.37 325.29,-300.86 141.91,-75.51 304.27,-113.55 487.06,-113.55zm8.53 364.46c-63.58,0 -123.2,18.73 -178.82,56.2 -55.64,37.45 -98.78,92.53 -129.44,165.77 -30.65,72.65 -45.98,165.18 -45.98,278.17 0,115.8 14.76,211.73 44.84,287.8 30.09,76.07 72.11,132.84 124.89,169.16 52.8,36.35 110.71,54.51 174.29,54.51 98.2,0 182.22,-40.87 252.6,-123.2 69.84,-82.31 105.04,-210.04 105.04,-383.75 0,-167.45 -32.36,-293.49 -97.66,-378.08 -65.27,-84.58 -148.73,-126.58 -249.76,-126.58zm4060.05 -1110.39l0 1929.54c0,76.07 3.4,122.06 9.66,138.53 6.8,15.89 18.16,27.8 33.49,35.76 15.89,7.36 57.89,11.34 125.46,11.34l76.64 0 0 326.98 -718.68 23.84 0 -173.13c-103.89,70.38 -195.29,118.64 -274.2,145.89 -78.33,27.24 -157.24,40.87 -235.58,40.87 -127.73,0 -244.68,-34.64 -351.97,-103.33 -106.71,-69.25 -194.15,-172 -262.26,-307.67 -68.13,-135.67 -102.18,-286.67 -102.18,-452.44 0,-168.04 34.62,-320.19 103.87,-456.99 69.25,-136.24 160.09,-239 271.37,-308.82 111.25,-69.82 236.15,-104.46 373.53,-104.46 70.94,0 139.07,8.51 203.78,25.55 65.29,17.04 136.82,47.13 215.73,90.25l0 -398.49 -245.24 0 0 -320.19c137.95,-13.62 249.78,-30.65 336.06,-51.09 85.73,-21 178.82,-51.65 278.75,-91.96l161.78 0zm-531.35 1960.78l0 -551.22c0,-68.69 -5.11,-117.51 -14.76,-145.89 -13.62,-40.87 -43.71,-76.64 -90.82,-107.29 -47.13,-30.65 -99.93,-45.98 -157.26,-45.98 -60.18,0 -115.8,17.6 -166.89,53.36 -51.09,35.76 -91.4,90.25 -121.49,163.49 -30.09,73.8 -44.84,165.18 -44.84,275.31 0,152.15 34.05,274.2 101.6,366.73 52.24,72.09 121.49,108.42 208.35,108.42 37.47,0 73.8,-6.24 107.85,-18.73 34.64,-13.05 94.24,-45.42 178.26,-98.2zm2494.38 -133.98l227.64 228.78c-130.56,148.73 -263.97,257.15 -399.66,323.56 -135.67,67 -282.69,100.49 -439.95,100.49 -252.62,0 -465.49,-85.17 -638.06,-256.04 -173.15,-170.85 -259.44,-376.93 -259.44,-619.33 0,-158.95 38.6,-304.27 116.38,-436.55 77.76,-132.27 185.62,-235.58 323,-309.95 137.95,-74.36 293.49,-111.84 467.77,-111.84 111.27,0 212.31,15.89 303.15,48.26 90.82,31.78 170.87,77.76 238.98,137.38 68.13,59.04 123.18,131.13 164.64,215.71 42,84.58 70.38,172.02 85.71,262.28 6.82,45.42 10.22,116.95 10.22,215.15l-1120.59 0c2.25,140.22 43.71,253.75 123.75,340.04 80.04,86.86 178.82,130 294.62,130 74.36,0 155.55,-22.15 242.97,-66.42 87.44,-44.86 173.71,-111.84 258.88,-201.53zm-330.97 -481.38c-7.95,-65.86 -23.84,-117.51 -47.67,-154.98 -23.86,-38.04 -56.2,-68.13 -96.51,-90.82 -40.87,-22.15 -82.89,-33.51 -127.73,-33.51 -46.55,0 -91.4,11.36 -135.11,34.64 -43.15,22.71 -77.78,53.93 -103.89,93.67 -26.11,39.16 -43.15,89.69 -51.09,151l562 0zm2120.29 -1301.12l219.13 0 23.27 78.33 1310.77 0 28.38 -78.33 219.13 0 284.96 815.19 -306.55 108.42c-68.69,-135.11 -118.07,-223.09 -148.16,-263.97 -58.47,-80.62 -126.58,-144.77 -203.22,-190.75 -57.35,-35.76 -114.67,-53.36 -171.44,-53.36 -26.69,0 -44.86,6.26 -55.07,19.31 -9.66,12.49 -14.76,41.44 -14.76,86.86l0 1331.77c0,78.91 2.84,127.73 8.53,147.6 5.67,20.44 14.74,35.76 28.38,47.67 13.05,11.36 31.78,19.31 55.05,23.27 23.27,3.98 85.73,5.69 187.33,5.69l0 320.17 -1130.81 0 0 -320.17 68.69 0c75.49,0 124.31,-4.55 145.33,-14.2 21,-9.07 37.45,-26.11 48.82,-49.94 10.78,-23.86 16.45,-73.24 16.45,-148.16l0 -1361.87c0,-38.6 -4.55,-63.02 -13.62,-73.24 -8.51,-9.66 -27.82,-14.76 -56.2,-14.76 -57.91,0 -122.62,21.58 -193.58,64.73 -71.53,43.13 -135.11,103.87 -190.73,182.78 -22.15,30.65 -69.28,117.51 -141.37,260.57l-303.71 -108.42 284.98 -815.19zm2958.17 701.64l0 241.84c89.13,-93.67 166.33,-157.26 231.62,-190.75 64.71,-34.05 127.73,-51.09 187.89,-51.09 54.51,0 103.33,12.49 145.91,37.47 43.13,24.98 77.2,60.75 102.18,107.29 24.96,46.55 37.45,96.51 37.45,149.85 0,69.84 -23.27,132.84 -69.25,189.62 -45.98,56.2 -110.69,84.58 -194.15,84.58 -22.15,0 -42,-1.71 -59.6,-5.11 -17.04,-3.42 -53.36,-14.2 -109,-32.93 -28.95,-8.51 -52.8,-13.05 -71.53,-13.05 -28.95,0 -76.64,18.16 -143.62,54.49l0 648.3c0,55.05 3.96,90.82 12.49,107.29 7.95,17.02 21.56,28.95 39.73,36.89 18.75,7.38 59.04,11.36 120.93,11.36l72.09 0 0 320.17 -1021.83 0 0 -320.17 85.15 0c61.31,0 99.35,-3.42 114.11,-10.22 15.33,-6.26 26.67,-18.16 34.05,-34.64 7.95,-16.45 11.93,-53.36 11.93,-110.69l0 -760.7 -245.24 0 0 -319.6c180.53,-11.34 367.86,-57.91 562.57,-140.22l156.11 0zm1842.69 691.44l0 -122.06c0,-72.65 -6.24,-122.62 -18.16,-149.87 -12.49,-27.82 -34.62,-50.51 -66.98,-68.69 -32.36,-18.16 -72.67,-27.24 -120.35,-27.24 -36.91,0 -70.4,6.24 -100.49,18.16 -30.07,11.93 -53.93,27.26 -71.53,45.98 -18.16,18.73 -38.6,55.05 -61.87,109 -30.09,68.11 -65.86,116.93 -107.29,147.02 -41.44,29.53 -90.82,44.27 -147.02,44.27 -70.96,0 -129.44,-22.13 -174.86,-66.42 -45.4,-44.27 -68.11,-98.76 -68.11,-164.06 0,-73.8 23.27,-139.64 69.82,-196.98 62.44,-76.64 154.98,-139.07 278.17,-187.89 123.18,-48.26 261.69,-72.67 415.53,-72.67 154.42,0 285.55,24.98 393.99,74.36 107.85,49.96 183.35,109.56 225.93,178.26 42.58,69.25 64.15,174.84 64.15,316.2l0 593.22c0,73.24 3.98,119.78 11.93,140.22 7.38,20.44 24.4,38.6 49.94,53.93 25.55,15.33 53.93,23.27 85.17,23.27 31.22,0 73.22,-9.09 125.46,-26.67l0 325.84c-94.24,30.09 -185.08,44.86 -271.93,44.86 -102.18,0 -189.04,-16.47 -261.69,-49.96 -72.09,-33.49 -132.84,-83.46 -181.66,-150.44 -111.27,72.09 -211.75,123.77 -302.59,154.42 -90.25,30.65 -177.67,45.98 -262.26,45.98 -158.95,0 -287.26,-44.86 -385.46,-133.98 -97.64,-89.13 -146.46,-199.26 -146.46,-329.82 0,-74.36 17.02,-142.49 51.09,-204.37 34.05,-61.87 84.58,-116.36 151.56,-162.93 67.55,-46.55 171.44,-87.42 312.78,-123.75 140.78,-35.76 311.66,-61.87 513.19,-77.2zm0 275.89c-145.89,21 -249.2,42.56 -309.38,64.15 -60.16,21.56 -103.31,48.26 -128.85,81.18 -25.55,32.91 -38.6,66.42 -38.6,100.47 0,44.27 16.45,81.18 49.94,111.25 33.49,30.09 78.91,44.86 135.67,44.86 36.91,0 79.47,-9.66 128.29,-28.38 48.26,-18.73 102.77,-46.55 162.93,-82.89l0 -290.64zm1699.63 -967.34l0 220.84c125.46,-85.17 233.33,-143.64 322.44,-174.29 89.71,-31.22 181.09,-46.55 274.77,-46.55 107.85,0 203.24,22.71 285.55,68.13 82.87,45.42 143.62,102.18 181.09,170.29 38.02,67.57 56.76,164.64 56.76,289.53l0 690.3c0,59.04 3.96,96.51 12.49,112.96 7.95,16.47 21,28.95 39.16,36.33 13.05,5.69 52.8,8.53 119.22,8.53l81.16 0 0 320.17 -974.13 0 0 -320.17c73.24,-1.15 114.67,-2.84 123.18,-5.11 27.82,-7.38 45.42,-20.44 54.51,-38.04 8.51,-17.6 13.05,-55.64 13.05,-114.11l0 -606.84c0,-78.35 -8.51,-128.87 -24.98,-152.15 -26.67,-38.6 -68.69,-57.91 -126.58,-57.91 -47.69,0 -98.78,10.22 -153.27,31.24 -54.51,21 -127.73,64.15 -219.69,129.42l0 656.24c0,71.53 7.95,115.8 23.84,132.27 15.33,16.45 53.36,24.98 112.96,24.98l53.93 0 0 320.17 -967.32 0 0 -320.17 48.26 0c76.05,0 123.18,-3.42 141.35,-9.66 18.16,-6.82 32.36,-18.73 41.44,-35.2 9.66,-16.45 14.2,-48.82 14.2,-97.64l0 -770.35 -245.24 0 0 -320.17c198.67,-24.98 384.87,-72.65 558.02,-143.06l153.84 0zm2707.28 37.47l217.42 0 134.55 462.66 -313.37 126.58c-59.6,-95.36 -134.53,-170.29 -224.8,-224.8 -90.25,-54.49 -179.95,-81.75 -268.51,-81.75 -58.47,0 -102.18,9.66 -131.13,29.53 -28.97,19.31 -43.15,43.15 -43.15,70.4 0,22.69 10.22,44.27 30.65,63.56 20.44,19.87 63.02,40.87 127.17,62.46l456.4 162.93c81.18,28.38 158.38,64.71 232.75,107.85 74.38,43.15 130,95.93 166.91,158.38 36.89,62.44 55.64,135.67 55.64,219.69 0,149.85 -57.35,273.62 -172.58,369.55 -135.11,112.98 -303.71,169.18 -505.24,169.18 -172.56,0 -323,-43.15 -451.29,-128.87l-46.57 91.4 -220.82 0 -204.37 -542.13 313.37 -132.27c78.33,122.06 175.4,217.42 290.07,287.24 114.67,69.84 220.26,104.46 316.77,104.46 59.6,0 109.56,-13.62 150.44,-41.44 31.22,-22.15 46.55,-48.26 46.55,-78.35 0,-25.55 -11.91,-49.38 -36.33,-72.65 -23.84,-23.27 -77.2,-49.38 -159.51,-78.35l-358.79 -124.87c-198.11,-69.28 -332.66,-143.64 -404.18,-222.55 -71.53,-79.47 -107.29,-173.13 -107.29,-281.57 0,-139.07 55.64,-256.02 167.47,-351.38 127.73,-108.44 284.96,-162.37 471.73,-162.37 166.33,0 308.26,36.91 426.89,111.27l43.15 -73.8zm1394.23 -568.82l0 568.82 534.75 0 0 354.22 -534.75 0 0 578.48c0,130.56 6.8,214.58 21,251.47 13.62,37.47 39.16,66.98 77.2,89.13 49.38,30.09 106.73,44.86 170.87,44.86 114.11,0 227.64,-36.91 340.6,-111.27l0 355.93c-96.51,45.42 -183.93,77.22 -261.69,95.95 -78.35,18.16 -162.93,27.26 -253.77,27.26 -103.31,0 -194.71,-13.05 -273.62,-39.18 -79.47,-26.11 -147.02,-63 -203.22,-111.25 -55.64,-48.26 -94.8,-99.35 -116.38,-153.84 -21.56,-54.51 -32.34,-132.84 -32.34,-236.17l0 -791.35 -245.24 0 0 -320.17c88.54,-28.95 164.06,-69.82 227.07,-123.18 62.44,-53.93 112.96,-118.07 151.56,-193.02 38.04,-75.49 64.15,-170.85 78.35,-286.67l319.6 0zm1742.19 531.35c189.6,0 354.8,36.91 495.59,111.27 141.37,73.8 249.22,174.84 325.27,302 76.07,127.73 114.11,277.6 114.11,448.46 0,258.88 -84.02,468.91 -252.62,630.13 -168.6,161.22 -393.97,241.84 -675.53,241.84 -287.26,0 -515.46,-81.18 -685.19,-243.55 -164.06,-154.96 -246.38,-364.44 -246.38,-628.42 0,-173.13 37.47,-322.44 112.4,-447.33 74.95,-124.89 183.37,-225.37 325.29,-300.86 141.91,-75.51 304.27,-113.55 487.06,-113.55zm8.53 364.46c-63.58,0 -123.2,18.73 -178.82,56.2 -55.64,37.45 -98.78,92.53 -129.44,165.77 -30.65,72.65 -45.98,165.18 -45.98,278.17 0,115.8 14.76,211.73 44.84,287.8 30.09,76.07 72.11,132.84 124.89,169.16 52.8,36.35 110.71,54.51 174.29,54.51 98.2,0 182.22,-40.87 252.6,-123.2 69.84,-82.31 105.04,-210.04 105.04,-383.75 0,-167.45 -32.36,-293.49 -97.66,-378.08 -65.27,-84.58 -148.73,-126.58 -249.76,-126.58zm1914.78 -364.46l0 241.84c89.13,-93.67 166.33,-157.26 231.62,-190.75 64.71,-34.05 127.73,-51.09 187.89,-51.09 54.51,0 103.33,12.49 145.91,37.47 43.13,24.98 77.2,60.75 102.18,107.29 24.96,46.55 37.45,96.51 37.45,149.85 0,69.84 -23.27,132.84 -69.25,189.62 -45.98,56.2 -110.69,84.58 -194.15,84.58 -22.15,0 -42,-1.71 -59.6,-5.11 -17.04,-3.42 -53.36,-14.2 -109,-32.93 -28.95,-8.51 -52.8,-13.05 -71.53,-13.05 -28.95,0 -76.64,18.16 -143.62,54.49l0 648.3c0,55.05 3.96,90.82 12.49,107.29 7.95,17.02 21.56,28.95 39.73,36.89 18.75,7.38 59.04,11.36 120.93,11.36l72.09 0 0 320.17 -1021.83 0 0 -320.17 85.15 0c61.31,0 99.35,-3.42 114.11,-10.22 15.33,-6.26 26.67,-18.16 34.05,-34.64 7.95,-16.45 11.93,-53.36 11.93,-110.69l0 -760.7 -245.24 0 0 -319.6c180.53,-11.34 367.86,-57.91 562.57,-140.22l156.11 0zm1566.79 0l0 220.84c125.46,-85.17 233.33,-143.64 322.44,-174.29 89.71,-31.22 181.09,-46.55 274.77,-46.55 107.85,0 203.24,22.71 285.55,68.13 82.87,45.42 143.62,102.18 181.09,170.29 38.02,67.57 56.76,164.64 56.76,289.53l0 690.3c0,59.04 3.96,96.51 12.49,112.96 7.95,16.47 21,28.95 39.16,36.33 13.05,5.69 52.8,8.53 119.22,8.53l81.16 0 0 320.17 -974.13 0 0 -320.17c73.24,-1.15 114.67,-2.84 123.18,-5.11 27.82,-7.38 45.42,-20.44 54.51,-38.04 8.51,-17.6 13.05,-55.64 13.05,-114.11l0 -606.84c0,-78.35 -8.51,-128.87 -24.98,-152.15 -26.67,-38.6 -68.69,-57.91 -126.58,-57.91 -47.69,0 -98.78,10.22 -153.27,31.24 -54.51,21 -127.73,64.15 -219.69,129.42l0 656.24c0,71.53 7.95,115.8 23.84,132.27 15.33,16.45 53.36,24.98 112.96,24.98l53.93 0 0 320.17 -967.32 0 0 -320.17 48.26 0c76.05,0 123.18,-3.42 141.35,-9.66 18.16,-6.82 32.36,-18.73 41.44,-35.2 9.66,-16.45 14.2,-48.82 14.2,-97.64l0 -770.35 -245.24 0 0 -320.17c198.67,-24.98 384.87,-72.65 558.02,-143.06l153.84 0z"/>
    <path class="fil5" d="M58927.08 8949.09c189.6,0 354.8,36.91 495.59,111.27 141.37,73.8 249.22,174.84 325.27,302 76.07,127.73 114.11,277.6 114.11,448.46 0,258.88 -84.02,468.91 -252.62,630.13 -168.6,161.22 -393.97,241.84 -675.53,241.84 -287.26,0 -515.46,-81.18 -685.19,-243.55 -164.06,-154.96 -246.38,-364.44 -246.38,-628.42 0,-173.13 37.47,-322.44 112.4,-447.33 74.95,-124.89 183.37,-225.37 325.29,-300.86 141.91,-75.51 304.27,-113.55 487.06,-113.55zm8.53 364.46c-63.58,0 -123.2,18.73 -178.82,56.2 -55.64,37.45 -98.78,92.53 -129.44,165.77 -30.65,72.65 -45.98,165.18 -45.98,278.17 0,115.8 14.76,211.73 44.84,287.8 30.09,76.07 72.11,132.84 124.89,169.16 52.8,36.35 110.71,54.51 174.29,54.51 98.2,0 182.22,-40.87 252.6,-123.2 69.84,-82.31 105.04,-210.04 105.04,-383.75 0,-167.45 -32.36,-293.49 -97.66,-378.08 -65.27,-84.58 -148.73,-126.58 -249.76,-126.58zm2305.35 -326.98l217.42 0 134.55 462.66 -313.37 126.58c-59.6,-95.36 -134.53,-170.29 -224.8,-224.8 -90.25,-54.49 -179.95,-81.75 -268.51,-81.75 -58.47,0 -102.18,9.66 -131.13,29.53 -28.97,19.31 -43.15,43.15 -43.15,70.4 0,22.69 10.22,44.27 30.65,63.56 20.44,19.87 63.02,40.87 127.17,62.46l456.4 162.93c81.18,28.38 158.38,64.71 232.75,107.85 74.38,43.15 130,95.93 166.91,158.38 36.89,62.44 55.64,135.67 55.64,219.69 0,149.85 -57.35,273.62 -172.58,369.55 -135.11,112.98 -303.71,169.18 -505.24,169.18 -172.56,0 -323,-43.15 -451.29,-128.87l-46.57 91.4 -220.82 0 -204.37 -542.13 313.37 -132.27c78.33,122.06 175.4,217.42 290.07,287.24 114.67,69.84 220.26,104.46 316.77,104.46 59.6,0 109.56,-13.62 150.44,-41.44 31.22,-22.15 46.55,-48.26 46.55,-78.35 0,-25.55 -11.91,-49.38 -36.33,-72.65 -23.84,-23.27 -77.2,-49.38 -159.51,-78.35l-358.79 -124.87c-198.11,-69.28 -332.66,-143.64 -404.18,-222.55 -71.53,-79.47 -107.29,-173.13 -107.29,-281.57 0,-139.07 55.64,-256.02 167.47,-351.38 127.73,-108.44 284.96,-162.37 471.73,-162.37 166.33,0 308.26,36.91 426.89,111.27l43.15 -73.8zm2642.55 -660.79l523.97 0 696.55 1791.6c38.04,94.24 71.53,152.71 100.47,174.86 29.53,22.13 83.46,32.93 161.78,32.93l0 320.17 -1096.75 0 0 -320.17 66.42 -1.71c60.75,0 103.33,-7.95 127.73,-24.42 24.42,-15.89 36.33,-35.76 36.33,-59.04 0,-19.85 -10.22,-60.73 -31.78,-123.18l-70.96 -210.6 -702.79 0 -86.86 234.44c-17.6,49.96 -26.67,82.33 -26.67,98.22 0,17.6 6.24,33.49 19.29,48.26 12.49,14.18 33.49,24.98 62.46,31.22 18.73,4.55 71.53,6.82 157.24,6.82l0 320.17 -899.21 0 0 -320.17c57.91,0 99.91,-5.11 126.6,-14.76 26.11,-10.22 48.26,-24.98 65.27,-44.86 17.04,-19.85 36.35,-57.33 57.35,-111.25l713.57 -1828.51zm-66.98 1250.03l459.82 0 -224.8 -634.66 -235.02 634.66zm2425.69 -1372.65l0 1947.14c0,65.29 2.84,104.46 8.53,116.38 7.36,22.13 24.4,38.6 51.09,48.26 16.45,6.8 61.31,10.22 134.53,10.22l57.91 0 0 320.17 -1028.65 0 0 -320.17 63.02 0c66.42,0 109,-3.98 127.73,-12.49 18.73,-8.53 32.36,-21.58 41.44,-39.75 8.53,-18.73 13.05,-59.04 13.05,-122.62l0 -1483.9 -245.24 0 0 -320.19c198.69,-13.62 403.62,-61.31 615.37,-143.06l161.22 0zm924.19 3.42c84.58,0 156.11,29.51 215.71,89.11 59.62,59.06 89.13,130.58 89.13,214.58 0,85.73 -29.51,157.82 -89.13,216.86 -59.6,59.62 -131.13,89.13 -215.71,89.13 -84.58,0 -156.11,-29.51 -215.71,-89.13 -59.62,-59.04 -89.13,-130.56 -89.13,-215.15 0,-82.87 30.65,-154.4 91.38,-215.15 61.31,-60.18 132.27,-90.25 213.46,-90.25zm270.78 742.51l0 1226.76c0,58.47 3.4,94.8 10.22,107.85 6.24,13.07 18.16,23.29 35.76,30.65 17.04,7.38 55.64,10.8 115.8,10.8l90.27 0 0 320.17 -1028.65 0 0 -320.17 87.98 0c57.35,0 94.24,-2.84 110.15,-9.09 15.89,-6.24 27.8,-16.45 35.76,-30.65 7.36,-14.18 11.34,-43.15 11.34,-86.29l0 -790.21 -245.24 0 0 -313.37c87.42,-4.53 171.44,-13.62 252.06,-28.38 80.04,-14.18 152.13,-31.78 215.15,-51.65 40.87,-13.05 91.4,-35.2 151.56,-66.42l157.82 0zm1201.79 0l0 220.84c96.49,-74.38 194.71,-129.44 294.06,-166.35 99.91,-36.33 201.53,-54.49 304.27,-54.49 65.86,0 128.29,9.66 189.04,28.95 60.16,19.31 110.69,44.86 151,75.51 40.87,31.22 77.76,73.24 110.69,126.02 107.85,-81.75 210.62,-140.78 309.38,-176.55 98.78,-35.76 198.69,-53.93 300.88,-53.93 88.57,0 169.16,15.89 241.26,48.26 72.11,31.78 130.56,75.51 175.42,130 44.86,55.05 73.8,114.67 87.42,178.82 8.53,39.73 13.05,97.64 13.05,174.27l0 686.9c0,56.76 3.98,93.09 12.49,109.56 7.95,16.45 22.15,29.51 41.44,38.04 14.2,6.8 53.95,10.22 119.22,10.22l72.09 0 0 320.17 -967.32 0 0 -320.17c72.09,0 116.95,-3.42 136.24,-10.8 18.73,-7.36 32.36,-18.73 41.44,-34.62 8.53,-16.47 13.05,-51.65 13.05,-105.58l0 -602.31c0,-69.82 -4.53,-115.8 -14.18,-138.51 -9.66,-22.71 -27.82,-42.02 -55.07,-58.47 -27.24,-15.89 -59.6,-23.86 -97.07,-23.86 -43.71,0 -90.25,9.66 -140.22,28.97 -49.94,19.29 -123.75,61.87 -221.38,127.17l0 648.84c0,64.17 4.55,104.46 13.05,120.93 9.07,16.45 24.4,29.51 46.55,38.04 13.62,5.67 57.35,9.07 131.13,10.22l0 320.17 -912.82 0 0 -320.17c76.07,-1.15 122.06,-5.11 139.09,-11.36 16.45,-6.8 29.51,-18.73 38.04,-36.33 9.07,-18.16 13.62,-57.91 13.62,-120.91l0 -567.11c0,-87.42 -7.95,-145.33 -23.27,-173.71 -24.42,-43.15 -67.57,-64.73 -130,-64.73 -31.22,0 -63.58,3.98 -98.22,11.36 -34.62,7.95 -68.11,19.87 -101.6,36.33 -17.6,9.09 -63.02,38.04 -136.26,86.29l-38.6 24.98 0 646.59c0,61.87 3.42,100.47 10.22,115.8 6.26,15.33 19.31,27.82 38.6,38.04 19.31,9.66 52.8,14.76 100.49,14.76l44.84 0 0 320.17 -970.74 0 0 -320.17 64.73 0c68.69,0 111.25,-3.42 128.29,-10.8 17.04,-7.36 30.09,-19.85 39.16,-38.02 8.53,-18.18 13.05,-57.91 13.05,-119.78l0 -744.24 -245.24 0 0 -320.17c203.24,-19.29 390.57,-66.98 562.57,-143.06l156.13 0zm4152.58 1080.86l227.64 228.78c-130.56,148.73 -263.97,257.15 -399.66,323.56 -135.67,67 -282.69,100.49 -439.95,100.49 -252.62,0 -465.49,-85.17 -638.06,-256.04 -173.15,-170.85 -259.44,-376.93 -259.44,-619.33 0,-158.95 38.6,-304.27 116.38,-436.55 77.76,-132.27 185.62,-235.58 323,-309.95 137.95,-74.36 293.49,-111.84 467.77,-111.84 111.27,0 212.31,15.89 303.15,48.26 90.82,31.78 170.87,77.76 238.98,137.38 68.13,59.04 123.18,131.13 164.64,215.71 42,84.58 70.38,172.02 85.71,262.28 6.82,45.42 10.22,116.95 10.22,215.15l-1120.59 0c2.25,140.22 43.71,253.75 123.75,340.04 80.04,86.86 178.82,130 294.62,130 74.36,0 155.55,-22.15 242.97,-66.42 87.44,-44.86 173.71,-111.84 258.88,-201.53zm-330.97 -481.38c-7.95,-65.86 -23.84,-117.51 -47.67,-154.98 -23.86,-38.04 -56.2,-68.13 -96.51,-90.82 -40.87,-22.15 -82.89,-33.51 -127.73,-33.51 -46.55,0 -91.4,11.36 -135.11,34.64 -43.15,22.71 -77.78,53.93 -103.89,93.67 -26.11,39.16 -43.15,89.69 -51.09,151l562 0zm1536.14 -599.48l0 220.84c125.46,-85.17 233.33,-143.64 322.44,-174.29 89.71,-31.22 181.09,-46.55 274.77,-46.55 107.85,0 203.24,22.71 285.55,68.13 82.87,45.42 143.62,102.18 181.09,170.29 38.02,67.57 56.76,164.64 56.76,289.53l0 690.3c0,59.04 3.96,96.51 12.49,112.96 7.95,16.47 21,28.95 39.16,36.33 13.05,5.69 52.8,8.53 119.22,8.53l81.16 0 0 320.17 -974.13 0 0 -320.17c73.24,-1.15 114.67,-2.84 123.18,-5.11 27.82,-7.38 45.42,-20.44 54.51,-38.04 8.51,-17.6 13.05,-55.64 13.05,-114.11l0 -606.84c0,-78.35 -8.51,-128.87 -24.98,-152.15 -26.67,-38.6 -68.69,-57.91 -126.58,-57.91 -47.69,0 -98.78,10.22 -153.27,31.24 -54.51,21 -127.73,64.15 -219.69,129.42l0 656.24c0,71.53 7.95,115.8 23.84,132.27 15.33,16.45 53.36,24.98 112.96,24.98l53.93 0 0 320.17 -967.32 0 0 -320.17 48.26 0c76.05,0 123.18,-3.42 141.35,-9.66 18.16,-6.82 32.36,-18.73 41.44,-35.2 9.66,-16.45 14.2,-48.82 14.2,-97.64l0 -770.35 -245.24 0 0 -320.17c198.67,-24.98 384.87,-72.65 558.02,-143.06l153.84 0zm2330.35 -531.35l0 568.82 534.75 0 0 354.22 -534.75 0 0 578.48c0,130.56 6.8,214.58 21,251.47 13.62,37.47 39.16,66.98 77.2,89.13 49.38,30.09 106.73,44.86 170.87,44.86 114.11,0 227.64,-36.91 340.6,-111.27l0 355.93c-96.51,45.42 -183.93,77.22 -261.69,95.95 -78.35,18.16 -162.93,27.26 -253.77,27.26 -103.31,0 -194.71,-13.05 -273.62,-39.18 -79.47,-26.11 -147.02,-63 -203.22,-111.25 -55.64,-48.26 -94.8,-99.35 -116.38,-153.84 -21.56,-54.51 -32.34,-132.84 -32.34,-236.17l0 -791.35 -245.24 0 0 -320.17c88.54,-28.95 164.06,-69.82 227.07,-123.18 62.44,-53.93 112.96,-118.07 151.56,-193.02 38.04,-75.49 64.15,-170.85 78.35,-286.67l319.6 0zm1829.05 1222.79l0 -122.06c0,-72.65 -6.24,-122.62 -18.16,-149.87 -12.49,-27.82 -34.62,-50.51 -66.98,-68.69 -32.36,-18.16 -72.67,-27.24 -120.35,-27.24 -36.91,0 -70.4,6.24 -100.49,18.16 -30.07,11.93 -53.93,27.26 -71.53,45.98 -18.16,18.73 -38.6,55.05 -61.87,109 -30.09,68.11 -65.86,116.93 -107.29,147.02 -41.44,29.53 -90.82,44.27 -147.02,44.27 -70.96,0 -129.44,-22.13 -174.86,-66.42 -45.4,-44.27 -68.11,-98.76 -68.11,-164.06 0,-73.8 23.27,-139.64 69.82,-196.98 62.44,-76.64 154.98,-139.07 278.17,-187.89 123.18,-48.26 261.69,-72.67 415.53,-72.67 154.42,0 285.55,24.98 393.99,74.36 107.85,49.96 183.35,109.56 225.93,178.26 42.58,69.25 64.15,174.84 64.15,316.2l0 593.22c0,73.24 3.98,119.78 11.93,140.22 7.38,20.44 24.4,38.6 49.94,53.93 25.55,15.33 53.93,23.27 85.17,23.27 31.22,0 73.22,-9.09 125.46,-26.67l0 325.84c-94.24,30.09 -185.08,44.86 -271.93,44.86 -102.18,0 -189.04,-16.47 -261.69,-49.96 -72.09,-33.49 -132.84,-83.46 -181.66,-150.44 -111.27,72.09 -211.75,123.77 -302.59,154.42 -90.25,30.65 -177.67,45.98 -262.26,45.98 -158.95,0 -287.26,-44.86 -385.46,-133.98 -97.64,-89.13 -146.46,-199.26 -146.46,-329.82 0,-74.36 17.02,-142.49 51.09,-204.37 34.05,-61.87 84.58,-116.36 151.56,-162.93 67.55,-46.55 171.44,-87.42 312.78,-123.75 140.78,-35.76 311.66,-61.87 513.19,-77.2zm0 275.89c-145.89,21 -249.2,42.56 -309.38,64.15 -60.16,21.56 -103.31,48.26 -128.85,81.18 -25.55,32.91 -38.6,66.42 -38.6,100.47 0,44.27 16.45,81.18 49.94,111.25 33.49,30.09 78.91,44.86 135.67,44.86 36.91,0 79.47,-9.66 128.29,-28.38 48.26,-18.73 102.77,-46.55 162.93,-82.89l0 -290.64zm1699.63 -967.34l0 241.84c89.13,-93.67 166.33,-157.26 231.62,-190.75 64.71,-34.05 127.73,-51.09 187.89,-51.09 54.51,0 103.33,12.49 145.91,37.47 43.13,24.98 77.2,60.75 102.18,107.29 24.96,46.55 37.45,96.51 37.45,149.85 0,69.84 -23.27,132.84 -69.25,189.62 -45.98,56.2 -110.69,84.58 -194.15,84.58 -22.15,0 -42,-1.71 -59.6,-5.11 -17.04,-3.42 -53.36,-14.2 -109,-32.93 -28.95,-8.51 -52.8,-13.05 -71.53,-13.05 -28.95,0 -76.64,18.16 -143.62,54.49l0 648.3c0,55.05 3.96,90.82 12.49,107.29 7.95,17.02 21.56,28.95 39.73,36.89 18.75,7.38 59.04,11.36 120.93,11.36l72.09 0 0 320.17 -1021.83 0 0 -320.17 85.15 0c61.31,0 99.35,-3.42 114.11,-10.22 15.33,-6.26 26.67,-18.16 34.05,-34.64 7.95,-16.45 11.93,-53.36 11.93,-110.69l0 -760.7 -245.24 0 0 -319.6c180.53,-11.34 367.86,-57.91 562.57,-140.22l156.11 0zm2337.15 1080.86l227.64 228.78c-130.56,148.73 -263.97,257.15 -399.66,323.56 -135.67,67 -282.69,100.49 -439.95,100.49 -252.62,0 -465.49,-85.17 -638.06,-256.04 -173.15,-170.85 -259.44,-376.93 -259.44,-619.33 0,-158.95 38.6,-304.27 116.38,-436.55 77.76,-132.27 185.62,-235.58 323,-309.95 137.95,-74.36 293.49,-111.84 467.77,-111.84 111.27,0 212.31,15.89 303.15,48.26 90.82,31.78 170.87,77.76 238.98,137.38 68.13,59.04 123.18,131.13 164.64,215.71 42,84.58 70.38,172.02 85.71,262.28 6.82,45.42 10.22,116.95 10.22,215.15l-1120.59 0c2.25,140.22 43.71,253.75 123.75,340.04 80.04,86.86 178.82,130 294.62,130 74.36,0 155.55,-22.15 242.97,-66.42 87.44,-44.86 173.71,-111.84 258.88,-201.53zm-330.97 -481.38c-7.95,-65.86 -23.84,-117.51 -47.67,-154.98 -23.86,-38.04 -56.2,-68.13 -96.51,-90.82 -40.87,-22.15 -82.89,-33.51 -127.73,-33.51 -46.55,0 -91.4,11.36 -135.11,34.64 -43.15,22.71 -77.78,53.93 -103.89,93.67 -26.11,39.16 -43.15,89.69 -51.09,151l562 0zm1926.71 -562l217.42 0 134.55 462.66 -313.37 126.58c-59.6,-95.36 -134.53,-170.29 -224.8,-224.8 -90.25,-54.49 -179.95,-81.75 -268.51,-81.75 -58.47,0 -102.18,9.66 -131.13,29.53 -28.97,19.31 -43.15,43.15 -43.15,70.4 0,22.69 10.22,44.27 30.65,63.56 20.44,19.87 63.02,40.87 127.17,62.46l456.4 162.93c81.18,28.38 158.38,64.71 232.75,107.85 74.38,43.15 130,95.93 166.91,158.38 36.89,62.44 55.64,135.67 55.64,219.69 0,149.85 -57.35,273.62 -172.58,369.55 -135.11,112.98 -303.71,169.18 -505.24,169.18 -172.56,0 -323,-43.15 -451.29,-128.87l-46.57 91.4 -220.82 0 -204.37 -542.13 313.37 -132.27c78.33,122.06 175.4,217.42 290.07,287.24 114.67,69.84 220.26,104.46 316.77,104.46 59.6,0 109.56,-13.62 150.44,-41.44 31.22,-22.15 46.55,-48.26 46.55,-78.35 0,-25.55 -11.91,-49.38 -36.33,-72.65 -23.84,-23.27 -77.2,-49.38 -159.51,-78.35l-358.79 -124.87c-198.11,-69.28 -332.66,-143.64 -404.18,-222.55 -71.53,-79.47 -107.29,-173.13 -107.29,-281.57 0,-139.07 55.64,-256.02 167.47,-351.38 127.73,-108.44 284.96,-162.37 471.73,-162.37 166.33,0 308.26,36.91 426.89,111.27l43.15 -73.8z"/>
   </g>
  </g>
 </g>
</svg>
