<?xml version="1.0" encoding="UTF-8"?>
<!DOCTYPE svg PUBLIC "-//W3C//DTD SVG 1.1//EN" "http://www.w3.org/Graphics/SVG/1.1/DTD/svg11.dtd">
<!-- Creator: CorelDRAW 2020 (64 Bit) -->
<svg xmlns="http://www.w3.org/2000/svg" xml:space="preserve" width="90.9208mm" height="20.8292mm" version="1.1" style="shape-rendering:geometricPrecision; text-rendering:geometricPrecision; image-rendering:optimizeQuality; fill-rule:evenodd; clip-rule:evenodd"
viewBox="0 0 17475.83 4003.57"
 xmlns:xlink="http://www.w3.org/1999/xlink"
 xmlns:xodm="http://www.corel.com/coreldraw/odm/2003">
 <defs>
  <style type="text/css">
   <![CDATA[
    .str0 {stroke:#373435;stroke-width:101.72;stroke-miterlimit:22.9256}
    .fil2 {fill:none}
    .fil3 {fill:#1886EF}
    .fil5 {fill:#75BB17}
    .fil4 {fill:#EECC25}
    .fil6 {fill:#F1401B}
    .fil7 {fill:#373435;fill-rule:nonzero}
    .fil0 {fill:#4967AF;fill-opacity:0.501961}
    .fil1 {fill:#4967AF;fill-rule:nonzero;fill-opacity:0.501961}
   ]]>
  </style>
 </defs>
 <g id="Camada_x0020_1">
  <metadata id="CorelCorpID_0Corel-Layer"/>
  <g id="_2543908273328">
   <path class="fil0" d="M2567.78 1.38c132.78,-41.88 -459.86,883.01 -535.46,954.45 -116.73,109.06 -258.23,253.52 -409.19,313.26 0.85,-44.86 207.37,-166.7 242.76,-197.75 244.22,-218.66 286.6,-359.62 399.62,-609.9 36.44,-77.42 86.84,-150.13 131.01,-223.31 16.76,-27.64 131.03,-246.49 171.26,-236.76z"/>
   <path class="fil0" d="M2513.93 160.3c85.51,-23.41 -559.52,891.97 -665.45,979.88 -90.68,74.46 -185.64,144.06 -284.78,206.84 -43.21,27.26 -90.95,62.03 -140.66,76.58 0.44,-24.41 112.69,-80.04 130.72,-92.24 40.11,-27.1 79.79,-54.91 118.19,-84.4 262.88,-206.09 320.24,-354.61 458.17,-600.81 46.9,-80.8 108.02,-155.56 163.22,-230.75 21.53,-29.22 178.01,-269.84 220.58,-255.1z"/>
   <path class="fil0" d="M2466.7 186.29c-5.92,421.32 -653.68,883.8 -953.67,1080.79 -81.9,53.32 -166.34,102.74 -253.47,147.02 -47.23,23.83 -352.8,188.6 -395.53,143.06 84.92,-51.44 193.63,-72 283.74,-114.96 120.8,-58.66 236.86,-127.18 346.36,-204.93 238.05,-169.13 399.62,-384.59 578.38,-610.36 75.37,-94.59 152.77,-187.42 226.9,-283.03 15.2,-19.51 173.99,-192.15 167.28,-157.59z"/>
   <path class="fil0" d="M2374.13 361.8c-58.05,369.64 -571.57,735.37 -849.85,923.03 -146.98,98.47 -302.5,184.69 -466.7,250.95 -118.34,47.17 -248.85,93.49 -377.19,100.43 -3.82,0.25 -21.22,3.11 -23.8,-1.52 7.13,-3.04 14.68,-5.09 22.14,-7.13 89.3,-25.24 179.73,-42.94 267.25,-74.85 197.51,-74.06 387.09,-177.27 551.91,-309.51 157.21,-125.44 283.32,-286.1 418.04,-434.26 87.09,-95.22 176.22,-188.48 262.65,-284.35 21.37,-23.68 205.63,-192.94 195.55,-162.78z"/>
   <path class="fil0" d="M2284.25 412.29c-170.95,332.16 -498.42,601.62 -803.92,803.2 -234.19,153.25 -493.81,280.72 -771.01,331.16 -14.9,2.63 -29.81,5 -44.78,7.09 -30.5,4.36 -302.86,-4.84 -298.62,-6.84 98.41,-8.5 195.71,-0.4 294.04,-16.97 0.58,-0.1 1.17,-0.19 1.75,-0.31 288.16,-52.11 555.83,-187.81 783,-370.31 146.46,-116.67 282.8,-246.95 416.02,-378.31 99.08,-97.41 197.11,-195.53 293.12,-296 16.28,-17.01 196.03,-186.04 130.39,-72.71z"/>
   <path class="fil0" d="M2154.86 595.68c-161.82,257.81 -414.56,468.16 -663.66,636.94 -247.05,166.78 -524.23,304.09 -820.35,353.95 -60.12,10.07 -120.9,16.38 -181.87,17.59 -70.39,1.13 -140.93,-4.56 -209.8,-19.36 -13.88,-2.98 -134.14,-48.67 -129.49,-49.44 44.52,7.23 88.03,20.47 132.43,28.6 52.28,9.57 105.22,15.4 158.38,15.61 75.44,-0.15 150.6,-8.44 224.65,-22.62 296.73,-58.99 546.12,-212.62 778.62,-399.14 82.84,-65.81 164.24,-133.47 244.22,-202.76 109.62,-94.68 218,-190.36 324.64,-288.43 18.78,-17.28 222.25,-186.02 142.22,-70.94z"/>
   <path class="fil0" d="M2122.18 557.5c-183.81,240.53 -421.42,442.22 -674.92,605.79 -240.65,154.23 -510.49,281.76 -796.34,319.55 -83.44,11.3 -168.05,14.49 -251.81,4.96 -34.89,-4.15 -69.48,-10.82 -103.33,-20.24 -17.53,-4.82 -125.55,-54.93 -103.72,-53.66 36.19,7.42 71.56,18.63 107.45,27.35 39.38,9.73 79.31,17.16 119.82,20.01 75.27,4.59 150.69,-0.37 225.12,-12.13 282.01,-45.13 532.46,-186.77 760.57,-352.49 124.28,-90.05 243.7,-186.81 359.41,-287.6 106.16,-92.24 210.01,-186.67 313.38,-282.03 90.88,-83.34 128.43,-74.4 44.38,30.5z"/>
   <path class="fil1" d="M1973.07 739.97c-149.69,169.89 -325.72,316.74 -513.83,442.22 -241.51,160.23 -512.78,291.77 -801.53,335.91 -122.03,18.66 -247.24,21.14 -368.31,-5.38 -31.35,-6.84 -62.24,-15.65 -92.41,-26.56 -27.66,-10.23 -209.47,-86.72 -196.28,-128.72 2.5,-2.54 7.77,0.06 10.53,1.1 70.25,37.77 134.82,82.63 211.87,106.52 23.24,6.94 46.78,12.71 70.58,17.34 117.84,22.8 238.8,17.86 356.36,-4.17 281.39,-54.45 530.27,-208.7 761.76,-370.85 59.87,-41.88 118.8,-85.09 176.89,-129.41 115.69,-88.2 228.96,-179.02 341.69,-270.94 101.62,-82.5 139.06,-71.81 42.69,32.96z"/>
   <path class="fil0" d="M1099.26 643.61c-13.9,-70.41 191.67,35.81 204.45,45.75 31.18,25.24 56.32,57.49 68.02,96.28 6.52,22.1 8.23,45.28 5.63,68.18 -2.69,25.35 -10.69,49.76 -21.95,72.56 -15.97,32.23 -37.94,61.2 -65.85,84.01 -26.74,21.37 -57.82,36.4 -91.03,44.61 -10.4,2.56 -20.97,4.42 -31.62,5.67 -53.99,6.02 -108.73,-4.69 -158.52,-25.68 -31.64,-13.45 -73.54,-32.83 -94.61,-61.66 12.42,-5.61 85.24,44.46 99.64,50.05 14.72,5.73 29.83,10.55 45.25,14.03 44.69,9.65 91.68,10.38 135.66,-3.17 29.52,-9.17 56.87,-24.53 79,-46.23 20.82,-21.47 44,-55.86 37.06,-87.78 -4.48,-21.01 -19.16,-43.92 -26.99,-64.22 -0.62,-1.96 -1.29,-3.9 -1.98,-5.84 -2.88,-8.32 -5.67,-16.53 -9.96,-24.26 -10.21,-18.39 -25.58,-33.41 -41.31,-47.09 -1,-0.86 -2.02,-1.73 -3.04,-2.59 -15.78,-13.3 -136.56,-90.18 -127.88,-112.62z"/>
   <path class="fil0" d="M1196.66 685.57c-9.67,-49.96 90.3,0.02 102.6,8 33.12,22.53 59.66,53.8 72.67,92.03 7.36,22.08 9.73,45.48 7.67,68.64 -1.98,25.83 -9.51,50.88 -20.47,74.29 -15.59,33.35 -37.5,63.43 -65.6,87.32 -27.26,22.57 -59.1,38.6 -93.26,47.67 -59.3,15.49 -121.82,9.51 -179.49,-9.84 -5.94,-2.02 -11.82,-4.19 -17.66,-6.5 -61.47,-24.3 -118.07,-63.31 -161.42,-113.38 -12.24,-14.22 -26.54,-30.72 -32.94,-48.74 9.15,-1 34.73,36.04 40.5,41.98 24.8,25.33 52.2,48.38 82.57,66.79 24.87,14.8 51.24,27.1 78.73,36.21 57.64,19.2 126.3,27.14 182.93,-0.04 43.29,-20.87 36.81,-45.32 49.84,-83.4 2.88,-10.09 6.78,-19.87 10.48,-29.68 5.23,-13.42 11.61,-26.31 16.47,-39.88 4.82,-13.49 8.13,-27.56 8.25,-41.94 0.23,-7.59 -0.5,-15.17 -2.11,-22.57 -0.56,-2.42 -1.17,-4.84 -1.86,-7.23 -6.29,-21.51 -18.41,-40.54 -32.1,-58.07 -6.52,-8.42 -51.45,-49.84 -45.78,-61.66z"/>
   <path class="fil0" d="M1208.57 715.11c17.66,0.54 35.23,7.96 50.44,16.47 25.56,15.09 47.49,37.04 58.41,65.02 5.79,15.03 7.94,31.12 6.92,47.15 -0.88,19.51 -6.48,38.44 -14.57,56.13 -11.96,26.12 -28.68,49.92 -50.44,68.79 -20.64,17.36 -44.8,29.73 -70.81,36.77 -53.55,14.28 -110.29,5.94 -161.3,-13.88 -53.78,-20.99 -102.45,-54.82 -141.58,-97.18 -27.58,-30.12 -50.47,-64.74 -64.91,-103.04 -5.57,-14.95 -9.73,-30.45 -12.22,-46.21 -7.57,-54.88 2.23,-121.25 37.6,-165.95 1.02,-1.25 3.9,-5.44 5.98,-4.9 -0.46,2.36 -1.25,4.67 -2.04,6.94 -18.01,49.32 -35.42,95.99 -28.93,149.71 0.5,3.75 1.08,7.48 1.75,11.19 10.86,53.05 40.34,100.33 78.36,138.28 38.42,37.79 86.61,67.91 139.56,79.88 46.03,10.74 93.76,5.63 134.91,-18.22 15.24,-8.71 28.87,-19.86 40.19,-33.29 2.56,-3.25 5,-6.59 7.3,-10.01 7.96,-11.72 15.09,-23.89 20.89,-36.87 4.44,-10.03 7.9,-20.66 8.57,-31.7 0.52,-6.78 -0.17,-13.53 -1.98,-20.09 -0.71,-2.58 -1.58,-5.13 -2.56,-7.63 -5.57,-14.15 -13.72,-27.02 -22.41,-39.44 -3.25,-4.75 -41.5,-53.95 -17.15,-47.92z"/>
   <path class="fil0" d="M1284.34 775.2c10.55,4.59 18.93,13.45 24.95,23.07 8.4,13.45 12.17,29.25 12.51,45.02 1.02,19.64 -3.61,39.13 -10.9,57.26 -10.94,27.22 -27.14,52.09 -48.73,72.08 -20.8,18.57 -45.53,31.93 -72.25,39.81 -55.01,16.05 -113.86,8.5 -166.93,-11.09 -55.82,-20.7 -106.54,-54.72 -147.6,-97.76 -40.86,-43.32 -72.64,-96.41 -83.61,-155.48 -4.54,-27.79 -4.73,-56.09 -0.46,-83.94 5.27,-33.69 17.03,-66.2 33.48,-96.03 6.82,-12.24 66.56,-107.46 87.49,-96.74 -21.89,36.56 -55.38,64.31 -75.75,102.83 -5.69,10.86 -10.74,22.07 -14.92,33.6 -15.45,43.67 -20.2,90.68 -11.13,136.26 12.47,54.86 44.13,103.45 85.94,140.62 42.56,36.87 93.34,58.57 149.14,64.52 38.13,4.77 78.34,4.73 115.33,-6.71 4.69,-1.46 9.34,-2.98 13.94,-4.73 15.95,-5.94 30.73,-14.34 43.57,-25.56 14.2,-12.84 25.41,-28.45 34.56,-45.21 1.36,-2.5 2.69,-5.06 3.94,-7.61 4.11,-8.55 7.61,-17.38 10.36,-26.45 2.52,-8.88 4.06,-17.95 4.77,-27.16 0.44,-6.69 -2.94,-41.86 12.3,-30.6z"/>
   <path class="fil0" d="M1270.83 814.06c3.81,6.34 5.92,13.51 6.71,20.84 2.21,14.43 -1.06,29.24 -6.11,42.73 -8.09,21.41 -20.09,41.29 -36.6,57.24 -15.53,14.4 -34.12,24.74 -54.34,30.89 -45.27,13.67 -94.18,6.27 -137.68,-10.15 -48.78,-18.49 -92.93,-48.86 -128.53,-86.92 -33.64,-36.35 -60.49,-80.73 -69.06,-130.05 -7.53,-50.34 4.13,-100.87 28.7,-145.04 12.97,-23.03 29.18,-44.13 47.65,-62.97 17.84,-18.11 37.87,-34.06 59.34,-47.61 8.51,-5.32 85.67,-33.96 84.11,-31.45 -24.01,16.11 -51.44,26.77 -75.69,42.71 -14.28,9.42 -27.95,19.89 -40.42,31.64 -23.22,22.18 -43.36,47.82 -58.16,76.38 -20.89,40.73 -30.25,87.13 -20.45,132.3 10.76,43.19 38.9,80.25 72.75,108.27 35.69,28.77 78.42,48.73 122.94,59.3 27.7,6.84 57.12,10.19 85.36,4.73 5.54,-1.08 11.03,-2.38 16.43,-4.07 11.53,-3.61 22.3,-9.09 31.77,-16.63 11.51,-9.32 20.7,-21.07 28.39,-33.66 1.81,-3 3.56,-6.07 5.19,-9.17 2.67,-5.09 5.07,-10.32 7.71,-15.42 2.81,-6.07 5.67,-12.36 9.59,-17.8 4,-5.57 9.75,-8.25 15.47,-3.11 2.15,1.9 3.75,4.42 4.94,7.02z"/>
   <path class="fil0" d="M1259.14 893.47c-5.17,15.42 -13.24,29.7 -23.89,42 -14.74,16.03 -33.33,27.74 -53.8,35.02 -46.13,16.4 -97.24,10.05 -142.54,-5.86 -50.86,-17.8 -97.08,-48.44 -134.53,-87.05 -36.19,-37.79 -64.95,-84.25 -74.9,-136.14 -9,-53.93 2.33,-108.44 27.79,-156.46 25.99,-48.38 64.83,-89.22 109.94,-120.25 9.07,-6.21 18.41,-12.05 28,-17.45 37.71,-21.12 79.69,-36.21 122.82,-40.81 4.09,-0.44 45.94,0.98 42.31,3.81 -12.99,3.5 -26.52,5.13 -39.75,7.69 -33.56,6.46 -66.47,16.15 -96.93,31.85 -16.05,8.44 -31.46,18.07 -46.07,28.77 -41.61,30.58 -77.52,70.16 -99.76,117.04 -20.55,43.67 -28.22,93.22 -14.78,140.14 14.07,43.34 45.52,78.63 80.63,106.54 36.02,27.87 77.25,49.88 120.84,63.22 2.06,0.65 4.15,1.25 6.23,1.86 32.18,9.32 66.33,15.24 99.58,8.17 11.07,-2.4 21.7,-6.34 31.71,-11.67 2.46,-1.33 4.9,-2.71 7.28,-4.15 12.8,-7.59 32.83,-29.72 48.4,-29.95 1.88,0 3.4,0.71 4.34,2.42 3.31,6.02 -0.62,15.67 -2.94,21.26z"/>
   <path class="fil0" d="M1234.68 873.4c-5.25,11.8 -12.15,22.83 -21.05,32.23 -11.3,11.36 -25.12,19.57 -40.33,24.55 -37.79,12.22 -79.34,4.98 -115.59,-8.94 -43.5,-16.76 -82.75,-44.44 -114.1,-78.86 -28.02,-31.08 -51.03,-69.06 -57.34,-111 -5.32,-41.06 6.02,-82.17 26.81,-117.48 23.18,-38.75 56.95,-70.62 95.34,-94.09 18.66,-11.3 38.52,-20.66 59.24,-27.56 21.53,-7.07 44.25,-11.44 66.95,-11.4 3.04,0 44.21,4.09 30.72,10.49 -9.01,2.1 -18.24,3.15 -27.41,4.31 -24.1,2.92 -47.99,6.65 -70.66,15.7 -16.32,6.75 -31.98,14.99 -46.78,24.58 -34.67,22.6 -65.33,52.84 -84.76,89.68 -16.18,31.04 -23.53,66.54 -15.03,100.99 9.44,32.96 33.39,61.45 58.43,83.92 29.41,25.81 64.01,46.23 101.08,58.85 15.65,5.38 31.89,9.28 48.4,10.59 11.44,0.88 23.01,0.94 34.33,-1.06 8.73,-1.6 17.15,-4.5 24.81,-9 6.75,-3.9 12.76,-8.86 18.34,-14.28 3.34,-3.27 6.57,-6.67 9.82,-10.05 15.67,-16.07 31.1,-9.67 24.31,13.94 -1.4,4.77 -3.31,9.44 -5.54,13.88z"/>
   <path class="fil1" d="M1187.6 928.64c-4.29,2.46 -8.75,4.57 -13.32,6.4 -38.54,15.55 -82.65,9.38 -120.84,-3.94 -45.82,-15.95 -87.36,-43.86 -120.77,-78.9 -30.85,-32.73 -55.88,-72.94 -63.81,-117.73 -6.88,-45.05 4.06,-90.53 26.03,-130.01 23.74,-42.17 58.89,-77.35 99.2,-103.81 40.17,-26.14 86.07,-44.42 133.91,-49.46 7.23,-0.79 14.47,-1.25 21.72,-1.38 12.67,-0.13 98.22,7.34 93.8,31.39 -0.81,1.6 -2.69,1.69 -4.32,1.75 -32.56,-6.25 -61.87,-17.68 -95.84,-14.97 -3.79,0.35 -7.55,0.79 -11.32,1.31 -44.61,6.23 -87.17,24.31 -123.86,50.21 -35.87,25.53 -66.83,59.22 -85.23,99.53 -15.49,34.19 -20.78,72.44 -10.38,108.89 11.13,33.92 35.37,63.51 60.97,87.61 23.6,21.83 50.34,40.34 79.15,54.61 7.44,3.69 14.99,7.21 22.66,10.44 28.85,12.11 60.01,20.11 91.49,17.72 2.77,-0.23 5.54,-0.54 8.28,-0.9 9.3,-1.27 21.7,-5.25 30.98,-2.1 2.86,1.17 4.63,3.56 4.82,6.65 -0.04,12.07 -13.99,21.85 -23.33,26.72z"/>
   <path class="fil0" d="M86.38 4001.7c-119.25,9.94 344,-728.97 380.21,-771.7 54.11,-63.62 112.4,-123.67 175.99,-177.87 61.97,-52.45 129.15,-99.12 201.42,-136.31 60.39,-30.87 138.56,-69.46 208.57,-68.27 -9.15,26.64 -171.32,71.16 -199.42,86.53 -18.57,10.23 -36.75,21.14 -54.41,32.85 -115.21,77.86 -221.48,179.56 -295.98,297.81 -57.3,89.4 -27.62,168.43 -66.77,261.71 -35.9,82.36 -87.9,160.92 -135.99,236.51 -18.07,28.25 -165.97,263.85 -213.6,238.74z"/>
   <path class="fil0" d="M172.68 3843.57c-101.99,22.82 256.08,-581.99 287.08,-620.13 101.72,-125.07 220.58,-238.01 361.14,-318.43 4.57,-2.59 9.19,-5.15 13.82,-7.67 128.61,-69.43 319.86,-137.53 467.07,-90.84 -27.37,31.58 -246.74,26.33 -298.89,44.25 -53.93,19.09 -105.72,44.02 -154.59,73.69 -214.93,133.97 -192.71,224.88 -278.72,404.49 -1.75,3.44 -3.46,6.9 -5.25,10.3 -44.42,81.92 -102.68,158.8 -155.65,235.3 -21.68,31.27 -188.12,289.51 -236.01,269.04z"/>
   <path class="fil0" d="M223.77 3818.07c18.41,-186.81 188.69,-394.3 302.06,-531.17 99.08,-119.92 214.87,-228.48 351.88,-303.81 140.33,-75.9 298.29,-109.52 456.9,-85.61 32.2,4.96 64.16,11.51 95.66,19.8 95.2,25.24 186.46,67.29 265.33,126.51 9.57,7.13 83.28,57.59 76.94,74.02 -30.96,-15.15 -58.18,-40.33 -86.67,-59.53 -50.11,-33.83 -103.16,-63.45 -159.78,-84.94 -63.12,-23.55 -129.07,-39.04 -195.9,-47.4 -150.9,-17.8 -303.9,17.82 -427.55,106.87 -114.85,84.8 -197.78,213.26 -281.97,326.35 -2.73,3.65 -5.5,7.28 -8.25,10.92 -71.08,91.9 -140.33,184.96 -209.57,278.24 -18.7,25.12 -188.1,201.63 -179.08,169.74z"/>
   <path class="fil0" d="M326.79 3633.18c19.37,-126.03 119,-253.6 194.61,-350.51 96.22,-124.38 211.64,-236.15 348.82,-314.45 142.98,-80.19 304.79,-116.46 468.03,-94.2 108.66,15.36 214.39,48.51 310.3,102.2 22.3,12.55 44.02,26.22 65.02,40.84 31.08,21.64 252.95,189.75 227.94,238.72 -79.5,-58.74 -135.18,-145.64 -217.7,-203.65 -7.69,-5.34 -15.47,-10.55 -23.33,-15.61 -111,-70.93 -236.97,-113.17 -367.95,-125.82 -160.65,-14.03 -300.19,37.19 -420.94,140.02 -55.57,48.28 -108.35,100.01 -159.19,153.21 -50.13,52.17 -100.16,104.18 -147.87,158.61 -28.22,32.06 -55.82,64.66 -83.38,97.3 -22.45,26.56 -204.24,202.92 -194.38,173.33z"/>
   <path class="fil0" d="M417.96 3577.29c42.04,-86.97 96.51,-168.16 156.32,-243.84 91.51,-116.73 201.11,-222.16 331.25,-294.85 128.68,-70.79 273.65,-102.74 419.8,-81.46 121.78,18.36 238.4,61.55 339.46,132.47 66.2,46.46 124.44,103.08 175.89,165.28 18.3,22.22 35.67,45.21 52.32,68.7 12.47,17.59 120.4,209.41 116.21,207.28 -52.47,-57.3 -88.44,-130.32 -134.41,-192.75 -8.34,-11.3 -16.9,-22.49 -25.72,-33.41 -58.51,-71.66 -124.9,-137.18 -202.42,-188.13 -98.81,-64.35 -211.76,-100.56 -329.08,-109.62 -135.6,-8.71 -259.41,40.38 -370.31,114.94 -51.11,34.89 -99.12,74.15 -144.91,115.73 -56.22,50.9 -110.48,103.64 -162.42,158.92 -31.46,33.48 -62.06,67.75 -92.72,101.97 -16.7,18.68 -194.02,197.17 -129.28,78.77z"/>
   <path class="fil0" d="M541.95 3389c10.67,-18.38 22.16,-36.27 34.1,-53.84 83.05,-124.51 193.32,-234.21 322.64,-310.21 130.89,-75.58 279.53,-110.21 430.15,-90.43 125.76,17.24 246.39,60.33 351.76,131.59 93.41,63.56 171.76,145.93 239.38,235.96 24.43,32.54 47.59,66.02 69.87,100.06 16.74,25.66 164.65,286.83 160.34,284.91 -64.81,-65.85 -105.54,-157.38 -156.4,-233.67 -30.66,-45.46 -62.39,-90.26 -96.51,-133.2 -67.85,-85.32 -145.81,-163.34 -239.28,-220.43 -103.47,-61.95 -219.98,-91.61 -339.98,-95.45 -133.34,-2.4 -260.62,43.61 -373.54,112.02 -0.48,0.29 -0.96,0.6 -1.42,0.9l-269.52 208.43c-18.34,16.78 -36.77,33.5 -55.61,49.74 -27.79,24.2 -135.99,105.77 -75.98,13.61z"/>
   <path class="fil0" d="M575.72 3426.17c12.86,-17.99 26.18,-35.65 39.85,-53.05 87.03,-111.83 191.69,-212.83 316.49,-281.59 117.84,-63.95 250.24,-92.34 383.46,-71.27 112.12,18.16 218.93,59.37 310.98,126.36 83.09,60.47 151.38,138.16 209.89,222.17 38.19,54.86 72.6,112.27 105.41,170.49 21.3,37.92 105.27,222.91 101.77,219.75 -56.26,-65.87 -91.18,-147.75 -135.55,-221.5 -30.77,-50.45 -62.7,-100.29 -97.66,-147.96 -58.24,-79.21 -125.69,-152.38 -208.34,-206.55 -89.24,-57.76 -191.33,-87.82 -296.75,-96.82 -118.13,-8.42 -231.19,27.49 -333.02,85.49 -30.95,17.8 -60.78,37.5 -89.68,58.45 -78.48,56.74 -151.36,119.98 -221.52,186.65 -13.51,12.9 -26.89,25.93 -40.34,38.9 -87.24,84.09 -124.53,76.29 -44.98,-29.54z"/>
   <path class="fil1" d="M704.77 3261.01c63.33,-72.08 136.78,-135.93 219.77,-184.46 120.13,-69.37 256.79,-100.79 394.87,-81.38 116.4,17.05 227.81,58.03 324.43,125.63 86.92,60.82 158.96,139.72 221.19,225.12 81.15,111.5 147.19,232.98 217.73,351.19 17.28,29.02 147.02,194.27 133.62,220.66 -3.23,2.04 -8.53,-2.56 -11.05,-4.34 -66.58,-60.2 -109.85,-142.85 -156.8,-218.06 -69.18,-109.64 -134.01,-222.73 -214.08,-325.01 -62.3,-79.38 -134.53,-151.48 -221.56,-203.51 -93.34,-54.68 -198.69,-82.27 -305.96,-91.43 -98.26,-7.19 -195.19,12.55 -285.37,51.44 -19.64,8.5 -39.08,17.53 -58.18,27.2 -77.61,39.52 -148.5,89.49 -217.83,141.89 -87.84,66.22 -123.57,54.34 -40.79,-34.91z"/>
   <path class="fil2 str0" d="M952.94 1865.32c-94.7,49.78 -176.45,111.73 -236.61,179.35"/>
   <path class="fil3" d="M646.46 2012.03c-117.38,-12.9 -225.02,90.28 -240.42,230.44 -15.4,140.18 67.27,264.27 184.66,277.15 117.36,12.9 225,-90.28 240.4,-230.46 15.4,-140.16 -67.27,-264.25 -184.64,-277.13z"/>
   <path class="fil4" d="M1168.61 1593.15c-114.67,-12.61 -219.83,88.2 -234.86,225.15 -15.05,136.95 65.72,258.18 180.39,270.77 114.67,12.61 219.83,-88.2 234.88,-225.15 15.03,-136.95 -65.74,-258.18 -180.41,-270.77z"/>
   <path class="fil5" d="M1229.22 2174.43c-125.94,-13.84 -241.43,96.87 -257.94,247.28 -16.53,150.38 72.17,283.53 198.11,297.37 125.94,13.82 241.43,-96.89 257.94,-247.28 16.51,-150.4 -72.17,-283.55 -198.11,-297.37z"/>
   <path class="fil2 str0" d="M1604.1 1839.64c-88.65,-54.3 -220.98,-73.54 -369.85,-53.76"/>
   <path class="fil6" d="M1713.66 1779.65c-117.36,-12.9 -225,90.28 -240.4,230.46 -15.4,140.16 67.27,264.25 184.64,277.15 117.38,12.88 225,-90.3 240.42,-230.46 15.4,-140.18 -67.27,-264.25 -184.66,-277.15z"/>
   <path class="fil2 str0" d="M631.16 2320.97c38.38,102.66 169.68,160.67 344.71,152.33"/>
   <path class="fil2 str0" d="M1299.87 2391.28c154.04,-70.69 275.17,-176.31 327.18,-285.28"/>
   <g>
    <path class="fil7" d="M2938.88 2275.14l616.59 0 84.26 234.69 -96.03 34.54c-16.26,-38.52 -35.25,-69.43 -56.95,-92.76 -21.7,-23.51 -45.75,-39.06 -71.96,-46.82 -26.22,-7.59 -56.95,-11.4 -91.86,-11.4l-112.83 0 0 185.52 36.71 0c27.47,0 46.09,-2 55.68,-6.15 9.59,-3.98 16.45,-10.49 20.6,-19.16 4.17,-8.69 6.34,-25.85 6.34,-51.72l0 -28.2 95.47 0 0 312.46 -95.47 0 0 -32c0,-21.7 -2.54,-37.62 -7.59,-47.55 -5.07,-9.96 -11.94,-16.82 -20.62,-20.26 -8.86,-3.61 -28.2,-5.42 -58.22,-5.42l-32.91 0 0 169.78c0,17.91 0.9,28.93 2.71,32.91 1.63,3.81 5.25,6.88 10.3,8.86 5.07,2.17 16.09,3.27 33.1,3.27l62.01 0c46.3,0 85.17,-6.69 117,-19.89 31.83,-13.38 60.22,-34.91 84.98,-64.37 24.97,-29.66 44.13,-64.91 57.51,-105.6l96.74 33.27 -96.91 274.84 -638.65 0 0 -101.99 18.43 0c24.78,0 41.42,-1.81 49.92,-5.25 8.5,-3.61 14.45,-9.76 17.89,-18.63 1.81,-5.23 2.71,-20.24 2.71,-45.02l0 -402.85c0,-21.89 -1.44,-36.35 -4.52,-43.04 -2.88,-6.69 -7.59,-11.76 -14.11,-15.01 -6.32,-3.44 -18.8,-5.07 -37.42,-5.07l-32.91 0 0 -101.97zm1138.98 210.47l69.25 0 42.84 147.37 -99.81 40.33c-18.97,-30.39 -42.84,-54.26 -71.6,-71.62 -28.75,-17.36 -57.32,-26.03 -85.53,-26.03 -18.63,0 -32.54,3.08 -41.77,9.4 -9.23,6.15 -13.74,13.74 -13.74,22.41 0,7.25 3.27,14.11 9.76,20.26 6.52,6.32 20.07,13.01 40.5,19.89l145.39 51.9c25.85,9.03 50.45,20.6 74.14,34.35 23.68,13.74 41.4,30.56 53.17,50.45 11.74,19.87 17.72,43.21 17.72,69.96 0,47.74 -18.26,87.17 -54.97,117.71 -43.04,36 -96.74,53.9 -160.94,53.9 -54.97,0 -102.87,-13.74 -143.75,-41.06l-14.82 29.12 -70.33 0 -65.1 -172.68 99.81 -42.13c24.95,38.88 55.88,69.25 92.4,91.49 36.52,22.24 70.16,33.27 100.89,33.27 18.99,0 34.91,-4.34 47.92,-13.2 9.96,-7.03 14.84,-15.36 14.84,-24.95 0,-8.13 -3.81,-15.72 -11.57,-23.14 -7.61,-7.42 -24.6,-15.72 -50.82,-24.95l-114.27 -39.79c-63.12,-22.05 -105.97,-45.75 -128.74,-70.87 -22.8,-25.31 -34.17,-55.16 -34.17,-89.68 0,-44.3 17.72,-81.55 53.34,-111.94 40.67,-34.52 90.76,-51.7 150.25,-51.7 52.99,0 98.18,11.74 135.99,35.44l13.74 -23.51zm434.32 -11.94l0 59.66c40.33,-25.12 71.06,-41.23 92.4,-48.63 21.34,-7.42 44.3,-11.03 68.54,-11.03 61.83,0 112.1,22.78 150.98,68.16 44.48,52.09 66.72,118.63 66.72,199.46 0,77.38 -19.36,142.29 -58.22,194.38 -44.48,60.2 -104.16,90.22 -179,90.22 -24.06,0 -45.03,-2.71 -63.12,-8.13 -17.89,-5.44 -37.6,-15.38 -58.76,-29.85l0 107.23c0,21.34 1.1,34.17 3.25,38.33 2.36,5.42 6.34,9.23 11.94,11.57 5.44,2.36 19.16,3.44 41.23,3.44l24.95 0 0 101.99 -328.72 0 0 -101.99 17.89 0c24.05,0 38.69,-0.9 43.77,-2.88 5.06,-2 9.03,-5.98 11.94,-12.13 3.08,-6.15 4.52,-18.8 4.52,-37.79l0 -472.3 -78.11 0 0 -104.14c37.96,-4.54 70.33,-10.32 97.1,-17.18 26.56,-6.69 53.7,-16.28 81.19,-28.39l49.53 0zm19.53 165.99l0 171.05c0,26.95 2.54,46.11 7.59,57.51 5.25,11.21 14.11,20.43 26.58,27.66 12.47,7.05 26.95,10.67 43.21,10.67 28.58,0 52.26,-13.01 71.08,-39.23 18.97,-26.22 28.37,-66 28.37,-119.54 0,-49.53 -8.13,-86.24 -24.58,-110.29 -16.45,-23.87 -36.71,-35.81 -60.57,-35.81 -27.68,0 -58.24,12.67 -91.68,37.98zm925.8 178.27l72.5 72.89c-41.57,47.36 -84.07,81.9 -127.28,103.06 -43.23,21.34 -90.05,32 -140.14,32 -80.46,0 -148.27,-27.12 -203.24,-81.55 -55.14,-54.41 -82.63,-120.05 -82.63,-197.26 0,-50.63 12.3,-96.93 37.06,-139.04 24.78,-42.13 59.14,-75.06 102.89,-98.74 43.94,-23.68 93.49,-35.62 149,-35.62 35.44,0 67.62,5.06 96.55,15.38 28.95,10.11 54.43,24.76 76.13,43.75 21.7,18.8 39.23,41.77 52.43,68.71 13.38,26.95 22.43,54.78 27.31,83.53 2.15,14.47 3.25,37.25 3.25,68.52l-356.93 0c0.71,44.67 13.92,80.84 39.42,108.31 25.49,27.68 56.95,41.42 93.84,41.42 23.68,0 49.55,-7.05 77.38,-21.16 27.85,-14.28 55.34,-35.62 82.46,-64.2zm-105.41 -153.33c-2.54,-20.97 -7.59,-37.42 -15.2,-49.36 -7.59,-12.11 -17.89,-21.7 -30.73,-28.93 -13.01,-7.05 -26.39,-10.67 -40.69,-10.67 -14.82,0 -29.1,3.61 -43.02,11.01 -13.74,7.25 -24.78,17.18 -33.1,29.85 -8.32,12.47 -13.74,28.56 -16.28,48.09l179.02 0zm738.1 149.35l77.75 68c-41.59,50.26 -84.8,86.78 -129.65,109.56 -44.84,22.97 -92.76,34.37 -143.93,34.37 -81.92,0 -150.27,-26.58 -205.05,-79.75 -54.8,-53.17 -82.28,-117.88 -82.28,-194.19 0,-51.72 12.84,-99.08 38.35,-142.12 25.68,-42.86 60.76,-76.31 105.41,-100.18 44.67,-24.05 97.28,-35.98 158.03,-35.98 72.69,0 132.01,16.82 178.1,50.63 46.11,33.64 69.08,69.25 69.08,106.68 0,15.74 -3.61,30.02 -10.84,42.5 -7.25,12.67 -18.26,22.78 -33.1,30.56 -14.82,7.77 -30.56,11.57 -47.19,11.57 -13.38,0 -25.51,-2.71 -35.98,-7.96 -10.67,-5.25 -19.53,-11.94 -26.58,-20.07 -3.08,-3.44 -9.23,-14.28 -18.45,-32.56 -11.74,-22.78 -20.6,-37.96 -27.12,-45.38 -6.32,-7.4 -13.92,-13.01 -22.78,-16.99 -8.69,-4.15 -18.8,-6.15 -30.2,-6.15 -18.26,0 -35.81,5.79 -52.63,17.55 -16.82,11.74 -30.56,29.64 -41.4,53.51 -10.67,23.87 -16.09,50.45 -16.09,79.92 0,32.37 6.32,61.3 18.99,87.17 12.82,25.85 29.83,45.38 51.17,58.57 21.34,13.4 44.84,20.09 70.69,20.09 24.6,0 49.55,-6.69 74.67,-19.89 24.97,-13.38 52.09,-36.52 81.02,-69.45zm309.38 -576.8c26.95,0 49.72,9.4 68.71,28.39 18.99,18.8 28.39,41.59 28.39,68.35 0,27.31 -9.4,50.26 -28.39,69.08 -18.99,18.97 -41.77,28.39 -68.71,28.39 -26.93,0 -49.72,-9.42 -68.71,-28.39 -18.97,-18.82 -28.37,-41.59 -28.37,-68.54 0,-26.39 9.76,-49.19 29.1,-68.52 19.53,-19.16 42.13,-28.75 67.98,-28.75zm86.26 236.51l0 390.74c0,18.63 1.08,30.2 3.25,34.37 1.98,4.15 5.79,7.4 11.4,9.76 5.42,2.34 17.7,3.42 36.88,3.42l28.74 0 0 101.99 -327.64 0 0 -101.99 28.02 0c18.28,0 30.02,-0.9 35.08,-2.88 5.07,-2 8.86,-5.25 11.4,-9.76 2.34,-4.52 3.61,-13.74 3.61,-27.49l0 -251.7 -78.11 0 0 -99.81c27.85,-1.44 54.61,-4.34 80.29,-9.03 25.51,-4.54 48.46,-10.13 68.54,-16.45 13.01,-4.17 29.1,-11.23 48.26,-21.16l50.28 0zm463.05 220.23l0 -38.88c0,-23.14 -1.98,-39.06 -5.79,-47.73 -3.98,-8.86 -11.03,-16.09 -21.34,-21.87 -10.3,-5.79 -23.14,-8.69 -38.33,-8.69 -11.76,0 -22.43,2 -32,5.79 -9.59,3.81 -17.18,8.69 -22.8,14.65 -5.79,5.98 -12.28,17.55 -19.7,34.71 -9.59,21.7 -20.97,37.25 -34.17,46.84 -13.2,9.4 -28.93,14.11 -46.82,14.11 -22.6,0 -41.23,-7.05 -55.7,-21.16 -14.47,-14.11 -21.7,-31.46 -21.7,-52.26 0,-23.51 7.42,-44.48 22.24,-62.74 19.89,-24.41 49.38,-44.3 88.61,-59.85 39.23,-15.38 83.36,-23.14 132.36,-23.14 49.19,0 90.95,7.96 125.49,23.68 34.35,15.91 58.39,34.91 71.96,56.78 13.55,22.07 20.43,55.7 20.43,100.72l0 188.96c0,23.31 1.27,38.15 3.79,44.65 2.36,6.52 7.78,12.3 15.91,17.18 8.15,4.88 17.18,7.42 27.12,7.42 9.96,0 23.33,-2.9 39.96,-8.5l0 103.77c-30,9.59 -58.93,14.3 -86.61,14.3 -32.54,0 -60.2,-5.25 -83.34,-15.91 -22.97,-10.67 -42.32,-26.58 -57.87,-47.92 -35.44,22.95 -67.45,39.42 -96.37,49.19 -28.75,9.76 -56.59,14.65 -83.53,14.65 -50.63,0 -91.49,-14.3 -122.78,-42.69 -31.1,-28.39 -46.65,-63.47 -46.65,-105.04 0,-23.7 5.42,-45.38 16.28,-65.1 10.84,-19.7 26.95,-37.06 48.28,-51.9 21.51,-14.82 54.61,-27.85 99.62,-39.42 44.84,-11.38 99.28,-19.7 163.45,-24.58zm0 87.88c-46.46,6.69 -79.38,13.57 -98.55,20.43 -19.16,6.86 -32.91,15.38 -41.04,25.85 -8.13,10.49 -12.3,21.16 -12.3,32 0,14.11 5.25,25.87 15.91,35.44 10.67,9.59 25.14,14.28 43.21,14.28 11.76,0 25.31,-3.08 40.86,-9.03 15.38,-5.96 32.73,-14.82 51.9,-26.39l0 -92.59zm544.64 -545.7l0 620.2c0,20.8 0.9,33.27 2.71,37.06 2.34,7.05 7.77,12.3 16.26,15.38 5.25,2.17 19.53,3.25 42.86,3.25l18.45 0 0 101.99 -327.66 0 0 -101.99 20.09 0c21.14,0 34.71,-1.27 40.67,-3.98 5.98,-2.71 10.32,-6.86 13.2,-12.65 2.71,-5.98 4.15,-18.82 4.15,-39.06l0 -472.66 -78.11 0 0 -101.99c63.29,-4.32 128.57,-19.53 196.02,-45.55l51.36 0zm294.37 1.08c26.95,0 49.72,9.4 68.71,28.39 18.99,18.8 28.39,41.59 28.39,68.35 0,27.31 -9.4,50.26 -28.39,69.08 -18.99,18.97 -41.77,28.39 -68.71,28.39 -26.93,0 -49.72,-9.42 -68.71,-28.39 -18.97,-18.82 -28.37,-41.59 -28.37,-68.54 0,-26.39 9.76,-49.19 29.1,-68.52 19.53,-19.16 42.13,-28.75 67.98,-28.75zm86.26 236.51l0 390.74c0,18.63 1.08,30.2 3.25,34.37 1.98,4.15 5.79,7.4 11.4,9.76 5.42,2.34 17.7,3.42 36.88,3.42l28.74 0 0 101.99 -327.64 0 0 -101.99 28.02 0c18.28,0 30.02,-0.9 35.08,-2.88 5.07,-2 8.86,-5.25 11.4,-9.76 2.34,-4.52 3.61,-13.74 3.61,-27.49l0 -251.7 -78.11 0 0 -99.81c27.85,-1.44 54.61,-4.34 80.29,-9.03 25.51,-4.54 48.46,-10.13 68.54,-16.45 13.01,-4.17 29.1,-11.23 48.26,-21.16l50.28 0zm689.8 -237.59l0 614.59c0,24.24 1.1,38.88 3.08,44.13 2.17,5.06 5.79,8.86 10.67,11.38 5.06,2.36 18.45,3.61 39.96,3.61l24.41 0 0 104.16 -228.92 7.59 0 -55.14c-33.08,22.41 -62.2,37.79 -87.32,46.48 -24.97,8.67 -50.09,13.01 -75.04,13.01 -40.69,0 -77.94,-11.03 -112.12,-32.91 -34,-22.07 -61.83,-54.8 -83.53,-98.01 -21.7,-43.21 -32.54,-91.32 -32.54,-144.12 0,-53.51 11.01,-101.97 33.08,-145.56 22.07,-43.38 50.99,-76.11 86.44,-98.35 35.44,-22.24 75.21,-33.27 118.98,-33.27 22.6,0 44.3,2.71 64.91,8.13 20.8,5.42 43.57,15.01 68.71,28.75l0 -126.94 -78.11 0 0 -101.99c43.94,-4.32 79.56,-9.76 107.04,-16.26 27.31,-6.69 56.95,-16.45 88.78,-29.29l51.53 0zm-169.24 624.55l0 -175.58c0,-21.87 -1.63,-37.42 -4.71,-46.48 -4.34,-13.01 -13.92,-24.41 -28.93,-34.17 -15.01,-9.76 -31.83,-14.65 -50.09,-14.65 -19.16,0 -36.88,5.61 -53.17,17.01 -16.26,11.38 -29.1,28.74 -38.69,52.07 -9.57,23.51 -14.28,52.63 -14.28,87.71 0,48.46 10.86,87.32 32.37,116.81 16.65,22.95 38.69,34.52 66.37,34.52 11.92,0 23.49,-1.98 34.35,-5.96 11.03,-4.15 30.02,-14.47 56.78,-31.27zm637.02 -166.72l0 -38.88c0,-23.14 -1.98,-39.06 -5.79,-47.73 -3.98,-8.86 -11.03,-16.09 -21.34,-21.87 -10.3,-5.79 -23.14,-8.69 -38.33,-8.69 -11.76,0 -22.43,2 -32,5.79 -9.59,3.81 -17.18,8.69 -22.8,14.65 -5.79,5.98 -12.28,17.55 -19.7,34.71 -9.59,21.7 -20.97,37.25 -34.17,46.84 -13.2,9.4 -28.93,14.11 -46.82,14.11 -22.6,0 -41.23,-7.05 -55.7,-21.16 -14.47,-14.11 -21.7,-31.46 -21.7,-52.26 0,-23.51 7.42,-44.48 22.24,-62.74 19.89,-24.41 49.38,-44.3 88.61,-59.85 39.23,-15.38 83.36,-23.14 132.36,-23.14 49.19,0 90.95,7.96 125.49,23.68 34.35,15.91 58.39,34.91 71.96,56.78 13.55,22.07 20.43,55.7 20.43,100.72l0 188.96c0,23.31 1.27,38.15 3.79,44.65 2.36,6.52 7.78,12.3 15.91,17.18 8.15,4.88 17.18,7.42 27.12,7.42 9.96,0 23.33,-2.9 39.96,-8.5l0 103.77c-30,9.59 -58.93,14.3 -86.61,14.3 -32.54,0 -60.2,-5.25 -83.34,-15.91 -22.97,-10.67 -42.32,-26.58 -57.87,-47.92 -35.44,22.95 -67.45,39.42 -96.37,49.19 -28.75,9.76 -56.59,14.65 -83.53,14.65 -50.63,0 -91.49,-14.3 -122.78,-42.69 -31.1,-28.39 -46.65,-63.47 -46.65,-105.04 0,-23.7 5.42,-45.38 16.28,-65.1 10.84,-19.7 26.95,-37.06 48.28,-51.9 21.51,-14.82 54.61,-27.85 99.62,-39.42 44.84,-11.38 99.28,-19.7 163.45,-24.58zm0 87.88c-46.46,6.69 -79.38,13.57 -98.55,20.43 -19.16,6.86 -32.91,15.38 -41.04,25.85 -8.13,10.49 -12.3,21.16 -12.3,32 0,14.11 5.25,25.87 15.91,35.44 10.67,9.59 25.14,14.28 43.21,14.28 11.76,0 25.31,-3.08 40.86,-9.03 15.38,-5.96 32.73,-14.82 51.9,-26.39l0 -92.59zm856 -545.7l0 614.59c0,24.24 1.1,38.88 3.08,44.13 2.17,5.06 5.79,8.86 10.67,11.38 5.06,2.36 18.45,3.61 39.96,3.61l24.41 0 0 104.16 -228.92 7.59 0 -55.14c-33.08,22.41 -62.2,37.79 -87.32,46.48 -24.97,8.67 -50.09,13.01 -75.04,13.01 -40.69,0 -77.94,-11.03 -112.12,-32.91 -34,-22.07 -61.83,-54.8 -83.53,-98.01 -21.7,-43.21 -32.54,-91.32 -32.54,-144.12 0,-53.51 11.01,-101.97 33.08,-145.56 22.07,-43.38 50.99,-76.11 86.44,-98.35 35.44,-22.24 75.21,-33.27 118.98,-33.27 22.6,0 44.3,2.71 64.91,8.13 20.8,5.42 43.57,15.01 68.71,28.75l0 -126.94 -78.11 0 0 -101.99c43.94,-4.32 79.56,-9.76 107.04,-16.26 27.31,-6.69 56.95,-16.45 88.78,-29.29l51.53 0zm-169.24 624.55l0 -175.58c0,-21.87 -1.63,-37.42 -4.71,-46.48 -4.34,-13.01 -13.92,-24.41 -28.93,-34.17 -15.01,-9.76 -31.83,-14.65 -50.09,-14.65 -19.16,0 -36.88,5.61 -53.17,17.01 -16.26,11.38 -29.1,28.74 -38.69,52.07 -9.57,23.51 -14.28,52.63 -14.28,87.71 0,48.46 10.86,87.32 32.37,116.81 16.65,22.95 38.69,34.52 66.37,34.52 11.92,0 23.49,-1.98 34.35,-5.96 11.03,-4.15 30.02,-14.47 56.78,-31.27zm794.52 -42.69l72.5 72.89c-41.57,47.36 -84.07,81.9 -127.28,103.06 -43.23,21.34 -90.05,32 -140.14,32 -80.46,0 -148.27,-27.12 -203.24,-81.55 -55.14,-54.41 -82.63,-120.05 -82.63,-197.26 0,-50.63 12.3,-96.93 37.06,-139.04 24.78,-42.13 59.14,-75.06 102.89,-98.74 43.94,-23.68 93.49,-35.62 149,-35.62 35.44,0 67.62,5.06 96.55,15.38 28.95,10.11 54.43,24.76 76.13,43.75 21.7,18.8 39.23,41.77 52.43,68.71 13.38,26.95 22.43,54.78 27.31,83.53 2.15,14.47 3.25,37.25 3.25,68.52l-356.93 0c0.71,44.67 13.92,80.84 39.42,108.31 25.49,27.68 56.95,41.42 93.84,41.42 23.68,0 49.55,-7.05 77.38,-21.16 27.85,-14.28 55.34,-35.62 82.46,-64.2zm-105.41 -153.33c-2.54,-20.97 -7.59,-37.42 -15.2,-49.36 -7.59,-12.11 -17.89,-21.7 -30.73,-28.93 -13.01,-7.05 -26.39,-10.67 -40.69,-10.67 -14.82,0 -29.1,3.61 -43.02,11.01 -13.74,7.25 -24.78,17.18 -33.1,29.85 -8.32,12.47 -13.74,28.56 -16.28,48.09l179.02 0zm613.71 -179l69.25 0 42.84 147.37 -99.81 40.33c-18.97,-30.39 -42.84,-54.26 -71.6,-71.62 -28.75,-17.36 -57.32,-26.03 -85.53,-26.03 -18.63,0 -32.54,3.08 -41.77,9.4 -9.23,6.15 -13.74,13.74 -13.74,22.41 0,7.25 3.27,14.11 9.76,20.26 6.52,6.32 20.07,13.01 40.5,19.89l145.39 51.9c25.85,9.03 50.45,20.6 74.14,34.35 23.68,13.74 41.4,30.56 53.17,50.45 11.74,19.87 17.72,43.21 17.72,69.96 0,47.74 -18.26,87.17 -54.97,117.71 -43.04,36 -96.74,53.9 -160.94,53.9 -54.97,0 -102.87,-13.74 -143.75,-41.06l-14.82 29.12 -70.33 0 -65.1 -172.68 99.81 -42.13c24.95,38.88 55.88,69.25 92.4,91.49 36.52,22.24 70.16,33.27 100.89,33.27 18.99,0 34.91,-4.34 47.92,-13.2 9.96,-7.03 14.84,-15.36 14.84,-24.95 0,-8.13 -3.81,-15.72 -11.57,-23.14 -7.61,-7.42 -24.6,-15.72 -50.82,-24.95l-114.27 -39.79c-63.12,-22.05 -105.97,-45.75 -128.74,-70.87 -22.8,-25.31 -34.17,-55.16 -34.17,-89.68 0,-44.3 17.72,-81.55 53.34,-111.94 40.67,-34.52 90.76,-51.7 150.25,-51.7 52.99,0 98.18,11.74 135.99,35.44l13.74 -23.51zm570.84 -210.47l360.2 0 0 101.97 -32.93 0c-18.97,0 -31.64,1.63 -37.79,5.07 -6.15,3.25 -10.84,8.67 -13.74,15.91 -3.08,7.23 -4.52,21.14 -4.52,41.57l0 409.19c0,22.24 1.27,36.52 3.61,43.04 2.54,6.32 6.88,10.84 12.84,13.74 7.42,4.15 18.45,6.32 33.27,6.32l39.25 0 0 101.99 -360.2 0 0 -101.99 29.29 0c20.97,0 34.71,-1.44 41.06,-4.52 6.32,-3.08 11.01,-7.77 14.09,-14.28 3.08,-6.52 4.54,-19.53 4.54,-39.06l0 -410.83c0,-22.95 -1.46,-37.96 -4.54,-45.19 -3.08,-7.25 -8.13,-12.84 -15.18,-16.82 -5.06,-2.71 -16.99,-4.17 -36.15,-4.17l-33.1 0 0 -101.97zm671.37 198.53l0 70.33c39.96,-27.12 74.33,-45.75 102.72,-55.51 28.56,-9.94 57.68,-14.82 87.51,-14.82 34.35,0 64.74,7.23 90.95,21.7 26.39,14.45 45.75,32.54 57.68,54.24 12.11,21.51 18.07,52.43 18.07,92.22l0 219.87c0,18.8 1.27,30.73 3.98,35.98 2.54,5.25 6.69,9.23 12.47,11.57 4.17,1.81 16.82,2.71 37.98,2.71l25.85 0 0 101.99 -310.28 0 0 -101.99c23.33,-0.37 36.54,-0.9 39.25,-1.61 8.86,-2.36 14.45,-6.52 17.36,-12.13 2.71,-5.59 4.15,-17.72 4.15,-36.35l0 -193.29c0,-24.95 -2.71,-41.04 -7.96,-48.46 -8.5,-12.3 -21.87,-18.45 -40.33,-18.45 -15.18,0 -31.45,3.27 -48.82,9.96 -17.36,6.69 -40.67,20.43 -69.96,41.23l0 209.01c0,22.8 2.52,36.9 7.59,42.13 4.88,5.25 16.99,7.96 35.98,7.96l17.18 0 0 101.99 -308.11 0 0 -101.99 15.36 0c24.24,0 39.25,-1.08 45.03,-3.08 5.79,-2.17 10.3,-5.96 13.19,-11.21 3.08,-5.25 4.54,-15.55 4.54,-31.1l0 -245.37 -78.11 0 0 -101.97c63.28,-7.96 122.59,-23.16 177.74,-45.57l48.99 0zm742.25 -169.24l0 181.18 170.34 0 0 112.83 -170.34 0 0 184.25c0,41.59 2.17,68.35 6.69,80.09 4.34,11.94 12.47,21.35 24.6,28.39 15.72,9.59 33.98,14.3 54.41,14.3 36.35,0 72.52,-11.76 108.5,-35.44l0 113.37c-30.75,14.47 -58.59,24.6 -83.36,30.56 -24.95,5.79 -51.9,8.69 -80.82,8.69 -32.91,0 -62.03,-4.17 -87.17,-12.49 -25.31,-8.3 -46.82,-20.07 -64.72,-35.42 -17.72,-15.38 -30.2,-31.66 -37.08,-49.01 -6.86,-17.36 -10.3,-42.31 -10.3,-75.21l0 -252.06 -78.11 0 0 -101.99c28.2,-9.23 52.26,-22.24 72.33,-39.23 19.89,-17.18 35.98,-37.62 48.28,-61.49 12.11,-24.05 20.43,-54.41 24.95,-91.3l101.79 0zm740.08 513.51l72.5 72.89c-41.57,47.36 -84.07,81.9 -127.28,103.06 -43.23,21.34 -90.05,32 -140.14,32 -80.46,0 -148.27,-27.12 -203.24,-81.55 -55.14,-54.41 -82.63,-120.05 -82.63,-197.26 0,-50.63 12.3,-96.93 37.06,-139.04 24.78,-42.13 59.14,-75.06 102.89,-98.74 43.94,-23.68 93.49,-35.62 149,-35.62 35.44,0 67.62,5.06 96.55,15.38 28.95,10.11 54.43,24.76 76.13,43.75 21.7,18.8 39.23,41.77 52.43,68.71 13.38,26.95 22.43,54.78 27.31,83.53 2.15,14.47 3.25,37.25 3.25,68.52l-356.93 0c0.71,44.67 13.92,80.84 39.42,108.31 25.49,27.68 56.95,41.42 93.84,41.42 23.68,0 49.55,-7.05 77.38,-21.16 27.85,-14.28 55.34,-35.62 82.46,-64.2zm-105.41 -153.33c-2.54,-20.97 -7.59,-37.42 -15.2,-49.36 -7.59,-12.11 -17.89,-21.7 -30.73,-28.93 -13.01,-7.05 -26.39,-10.67 -40.69,-10.67 -14.82,0 -29.1,3.61 -43.02,11.01 -13.74,7.25 -24.78,17.18 -33.1,29.85 -8.32,12.47 -13.74,28.56 -16.28,48.09l179.02 0zm663.6 -147.19c18.63,-26.76 37.42,-45.92 56.05,-57.12 18.82,-11.4 38.52,-17.01 59.32,-17.01 20.8,0 37.25,6.15 49.19,18.28 12.11,12.11 18.07,27.66 18.07,46.82 0,17.18 -5.79,31.64 -17.16,43.04 -11.4,11.4 -25.51,17.18 -42.5,17.18l-17.36 -0.54 -17.89 -0.56c-9.59,0 -18.99,3.61 -28.58,10.67 19.36,32.37 29.12,63.29 29.12,92.76 0,31.29 -9.59,61.85 -28.93,91.32 -19.36,29.47 -45.94,52.43 -80.11,68.71 -34.17,16.45 -75.21,24.58 -122.96,24.58 -13.74,0 -27.66,-0.71 -41.59,-2.34 -13.92,-1.63 -28.02,-3.98 -42.31,-7.23 -9.4,5.96 -16.63,11.92 -21.7,17.53 -4.88,5.61 -7.4,10.86 -7.4,15.74 0,10.84 11.38,17.89 33.98,20.97l219.87 31.1c65.29,9.23 112.29,26.58 141.04,52.26 28.93,25.85 43.4,56.76 43.4,92.76 0,31.45 -10.84,60.74 -32.73,87.69 -21.87,26.76 -57.68,48.82 -107.04,66 -49.55,17.16 -112.1,25.85 -187.5,25.85 -66.37,0 -121.15,-6.32 -164.55,-19.16 -43.21,-12.84 -73.96,-29.12 -92.03,-48.46 -17.91,-19.53 -26.95,-38.15 -26.95,-55.7 0,-20.07 6.69,-37.96 20.07,-54.07 13.38,-15.9 41.06,-34.17 82.82,-54.95 -26.22,-9.59 -45.75,-21.16 -58.95,-34.91 -17.72,-18.45 -26.58,-37.25 -26.58,-56.78 0,-21.16 8.32,-41.94 24.78,-62.56 16.45,-20.43 41.04,-40.69 73.96,-60.76 -18.28,-11.38 -32.56,-23.68 -43.04,-36.88 -10.32,-13.2 -18.82,-29.47 -25.31,-48.46 -6.52,-19.16 -9.76,-38.69 -9.76,-58.76 0,-52.99 21.68,-98.01 64.91,-135.08 43.21,-37.06 100.16,-55.68 170.68,-55.68 31.46,0 60.05,3.61 86.07,11.03 25.85,7.23 49.19,18.07 69.62,32.71zm-150.44 58.24c-22.6,0 -41.4,8.3 -56.05,24.95 -14.65,16.45 -22.07,38.86 -22.07,67.25 0,26.04 7.05,46.84 21.34,62.39 14.11,15.55 32.37,23.31 54.61,23.31 21.87,0 40.33,-7.94 54.97,-24.05 14.65,-16.09 22.07,-36.88 22.07,-62.2 0,-28.39 -7.05,-50.63 -20.99,-67.08 -13.92,-16.45 -32,-24.58 -53.88,-24.58zm-77.02 473.2c-18.63,14.28 -30.56,25.31 -35.81,32.91 -5.06,7.59 -7.59,15.91 -7.59,24.95 0,17.18 14.11,30.73 42.5,40.33 28.2,9.57 64.54,14.45 108.66,14.45 32.37,0 60.76,-2.88 85.53,-8.5 24.78,-5.59 41.23,-12.47 49.36,-20.43 5.25,-5.25 7.96,-12.47 7.96,-21.7 0,-10.11 -5.25,-18.63 -15.91,-25.49 -10.67,-6.88 -36.35,-12.67 -77.02,-17.55l-157.67 -18.97zm682.4 -575.19l0 77.02c28.39,-29.83 52.99,-50.07 73.79,-60.74 20.6,-10.86 40.67,-16.28 59.83,-16.28 17.36,0 32.91,3.98 46.48,11.94 13.74,7.96 24.58,19.34 32.54,34.17 7.96,14.82 11.94,30.73 11.94,47.73 0,22.24 -7.4,42.32 -22.05,60.39 -14.65,17.91 -35.27,26.95 -61.85,26.95 -7.05,0 -13.38,-0.54 -18.99,-1.63 -5.42,-1.08 -16.99,-4.52 -34.71,-10.48 -9.23,-2.71 -16.82,-4.17 -22.78,-4.17 -9.23,0 -24.41,5.79 -45.75,17.36l0 206.51c0,17.53 1.27,28.93 3.98,34.17 2.54,5.42 6.86,9.21 12.65,11.74 5.98,2.34 18.82,3.61 38.52,3.61l22.97 0 0 101.99 -325.47 0 0 -101.99 27.12 0c19.53,0 31.64,-1.08 36.35,-3.25 4.88,-2 8.5,-5.79 10.84,-11.03 2.54,-5.25 3.81,-16.99 3.81,-35.25l0 -242.3 -78.11 0 0 -101.81c57.49,-3.61 117.17,-18.43 179.18,-44.65l49.72 0z"/>
    <path class="fil7" d="M15345.94 2693.91l0 -38.88c0,-23.14 -1.98,-39.06 -5.79,-47.73 -3.98,-8.86 -11.03,-16.09 -21.34,-21.87 -10.3,-5.79 -23.14,-8.69 -38.33,-8.69 -11.76,0 -22.43,2 -32,5.79 -9.59,3.81 -17.18,8.69 -22.8,14.65 -5.79,5.98 -12.28,17.55 -19.7,34.71 -9.59,21.7 -20.97,37.25 -34.17,46.84 -13.2,9.4 -28.93,14.11 -46.82,14.11 -22.6,0 -41.23,-7.05 -55.7,-21.16 -14.47,-14.11 -21.7,-31.46 -21.7,-52.26 0,-23.51 7.42,-44.48 22.24,-62.74 19.89,-24.41 49.38,-44.3 88.61,-59.85 39.23,-15.38 83.36,-23.14 132.36,-23.14 49.19,0 90.95,7.96 125.49,23.68 34.35,15.91 58.39,34.91 71.96,56.78 13.55,22.07 20.43,55.7 20.43,100.72l0 188.96c0,23.31 1.27,38.15 3.79,44.65 2.36,6.52 7.78,12.3 15.91,17.18 8.15,4.88 17.18,7.42 27.12,7.42 9.96,0 23.33,-2.9 39.96,-8.5l0 103.77c-30,9.59 -58.93,14.3 -86.61,14.3 -32.54,0 -60.2,-5.25 -83.34,-15.91 -22.97,-10.67 -42.32,-26.58 -57.87,-47.92 -35.44,22.95 -67.45,39.42 -96.37,49.19 -28.75,9.76 -56.59,14.65 -83.53,14.65 -50.63,0 -91.49,-14.3 -122.78,-42.69 -31.1,-28.39 -46.65,-63.47 -46.65,-105.04 0,-23.7 5.42,-45.38 16.28,-65.1 10.84,-19.7 26.95,-37.06 48.28,-51.9 21.51,-14.82 54.61,-27.85 99.62,-39.42 44.84,-11.38 99.28,-19.7 163.45,-24.58zm0 87.88c-46.46,6.69 -79.38,13.57 -98.55,20.43 -19.16,6.86 -32.91,15.38 -41.04,25.85 -8.13,10.49 -12.3,21.16 -12.3,32 0,14.11 5.25,25.87 15.91,35.44 10.67,9.59 25.14,14.28 43.21,14.28 11.76,0 25.31,-3.08 40.86,-9.03 15.38,-5.96 32.73,-14.82 51.9,-26.39l0 -92.59zm856 -545.7l0 614.59c0,24.24 1.1,38.88 3.08,44.13 2.17,5.06 5.79,8.86 10.67,11.38 5.06,2.36 18.45,3.61 39.96,3.61l24.41 0 0 104.16 -228.92 7.59 0 -55.14c-33.08,22.41 -62.2,37.79 -87.32,46.48 -24.97,8.67 -50.09,13.01 -75.04,13.01 -40.69,0 -77.94,-11.03 -112.12,-32.91 -34,-22.07 -61.83,-54.8 -83.53,-98.01 -21.7,-43.21 -32.54,-91.32 -32.54,-144.12 0,-53.51 11.01,-101.97 33.08,-145.56 22.07,-43.38 50.99,-76.11 86.44,-98.35 35.44,-22.24 75.21,-33.27 118.98,-33.27 22.6,0 44.3,2.71 64.91,8.13 20.8,5.42 43.57,15.01 68.71,28.75l0 -126.94 -78.11 0 0 -101.99c43.94,-4.32 79.56,-9.76 107.04,-16.26 27.31,-6.69 56.95,-16.45 88.78,-29.29l51.53 0zm-169.24 624.55l0 -175.58c0,-21.87 -1.63,-37.42 -4.71,-46.48 -4.34,-13.01 -13.92,-24.41 -28.93,-34.17 -15.01,-9.76 -31.83,-14.65 -50.09,-14.65 -19.16,0 -36.88,5.61 -53.17,17.01 -16.26,11.38 -29.1,28.74 -38.69,52.07 -9.57,23.51 -14.28,52.63 -14.28,87.71 0,48.46 10.86,87.32 32.37,116.81 16.65,22.95 38.69,34.52 66.37,34.52 11.92,0 23.49,-1.98 34.35,-5.96 11.03,-4.15 30.02,-14.47 56.78,-31.27zm637.02 -166.72l0 -38.88c0,-23.14 -1.98,-39.06 -5.79,-47.73 -3.98,-8.86 -11.03,-16.09 -21.34,-21.87 -10.3,-5.79 -23.14,-8.69 -38.33,-8.69 -11.76,0 -22.43,2 -32,5.79 -9.59,3.81 -17.18,8.69 -22.8,14.65 -5.79,5.98 -12.28,17.55 -19.7,34.71 -9.59,21.7 -20.97,37.25 -34.17,46.84 -13.2,9.4 -28.93,14.11 -46.82,14.11 -22.6,0 -41.23,-7.05 -55.7,-21.16 -14.47,-14.11 -21.7,-31.46 -21.7,-52.26 0,-23.51 7.42,-44.48 22.24,-62.74 19.89,-24.41 49.38,-44.3 88.61,-59.85 39.23,-15.38 83.36,-23.14 132.36,-23.14 49.19,0 90.95,7.96 125.49,23.68 34.35,15.91 58.39,34.91 71.96,56.78 13.55,22.07 20.43,55.7 20.43,100.72l0 188.96c0,23.31 1.27,38.15 3.79,44.65 2.36,6.52 7.78,12.3 15.91,17.18 8.15,4.88 17.18,7.42 27.12,7.42 9.96,0 23.33,-2.9 39.96,-8.5l0 103.77c-30,9.59 -58.93,14.3 -86.61,14.3 -32.54,0 -60.2,-5.25 -83.34,-15.91 -22.97,-10.67 -42.32,-26.58 -57.87,-47.92 -35.44,22.95 -67.45,39.42 -96.37,49.19 -28.75,9.76 -56.59,14.65 -83.53,14.65 -50.63,0 -91.49,-14.3 -122.78,-42.69 -31.1,-28.39 -46.65,-63.47 -46.65,-105.04 0,-23.7 5.42,-45.38 16.28,-65.1 10.84,-19.7 26.95,-37.06 48.28,-51.9 21.51,-14.82 54.61,-27.85 99.62,-39.42 44.84,-11.38 99.28,-19.7 163.45,-24.58zm0 87.88c-46.46,6.69 -79.38,13.57 -98.55,20.43 -19.16,6.86 -32.91,15.38 -41.04,25.85 -8.13,10.49 -12.3,21.16 -12.3,32 0,14.11 5.25,25.87 15.91,35.44 10.67,9.59 25.14,14.28 43.21,14.28 11.76,0 25.31,-3.08 40.86,-9.03 15.38,-5.96 32.73,-14.82 51.9,-26.39l0 -92.59zm665.79 -296.18l69.25 0 42.84 147.37 -99.81 40.33c-18.97,-30.39 -42.84,-54.26 -71.6,-71.62 -28.75,-17.36 -57.32,-26.03 -85.53,-26.03 -18.63,0 -32.54,3.08 -41.77,9.4 -9.23,6.15 -13.74,13.74 -13.74,22.41 0,7.25 3.27,14.11 9.76,20.26 6.52,6.32 20.07,13.01 40.5,19.89l145.39 51.9c25.85,9.03 50.45,20.6 74.14,34.35 23.68,13.74 41.4,30.56 53.17,50.45 11.74,19.87 17.72,43.21 17.72,69.96 0,47.74 -18.26,87.17 -54.97,117.71 -43.04,36 -96.74,53.9 -160.94,53.9 -54.97,0 -102.87,-13.74 -143.75,-41.06l-14.82 29.12 -70.33 0 -65.1 -172.68 99.81 -42.13c24.95,38.88 55.88,69.25 92.4,91.49 36.52,22.24 70.16,33.27 100.89,33.27 18.99,0 34.91,-4.34 47.92,-13.2 9.96,-7.03 14.84,-15.36 14.84,-24.95 0,-8.13 -3.81,-15.72 -11.57,-23.14 -7.61,-7.42 -24.6,-15.72 -50.82,-24.95l-114.27 -39.79c-63.12,-22.05 -105.97,-45.75 -128.74,-70.87 -22.8,-25.31 -34.17,-55.16 -34.17,-89.68 0,-44.3 17.72,-81.55 53.34,-111.94 40.67,-34.52 90.76,-51.7 150.25,-51.7 52.99,0 98.18,11.74 135.99,35.44l13.74 -23.51z"/>
   </g>
   <path class="fil7" d="M2923.79 787.73l847.82 0 115.86 322.72 -132.03 47.48c-22.37,-52.95 -48.48,-95.47 -78.31,-127.53 -29.83,-32.33 -62.91,-53.7 -98.95,-64.41 -36.06,-10.44 -78.33,-15.65 -126.3,-15.65l-155.15 0 0 255.08 50.47 0c37.79,0 63.39,-2.73 76.58,-8.46 13.17,-5.46 22.62,-14.42 28.33,-26.35 5.73,-11.94 8.71,-35.56 8.71,-71.1l0 -38.79 131.28 0 0 429.63 -131.28 0 0 -44.02c0,-29.83 -3.48,-51.7 -10.44,-65.39 -6.96,-13.67 -16.41,-23.12 -28.35,-27.85 -12.19,-4.96 -38.79,-7.46 -80.06,-7.46l-45.25 0 0 233.48c0,24.6 1.25,39.77 3.73,45.25 2.23,5.21 7.21,9.44 14.17,12.19 6.96,2.98 22.14,4.46 45.5,4.46l85.28 0c63.66,0 117.11,-9.19 160.86,-27.33 43.77,-18.41 82.8,-47.99 116.86,-88.51 34.31,-40.79 60.66,-89.26 79.06,-145.21l133.01 45.77 -133.26 377.9 -878.15 0 0 -140.22 25.37 0c34.06,0 56.93,-2.5 68.62,-7.23 11.69,-4.96 19.89,-13.42 24.6,-25.6 2.5,-7.21 3.73,-27.85 3.73,-61.91l0 -553.93c0,-30.08 -1.98,-49.97 -6.21,-59.18 -3.98,-9.19 -10.44,-16.16 -19.39,-20.62 -8.71,-4.73 -25.85,-6.98 -51.47,-6.98l-45.25 0 0 -140.22zm1068.36 0l495.27 0 0 140.22 -45.27 0c-26.1,0 -43.5,2.25 -51.95,6.98 -8.46,4.46 -14.92,11.92 -18.89,21.87 -4.23,9.94 -6.21,29.08 -6.21,57.18l0 562.64c0,30.58 1.73,50.22 4.96,59.18 3.48,8.69 9.46,14.92 17.66,18.89 10.19,5.71 25.35,8.71 45.75,8.71l53.95 0 0 140.22 -495.27 0 0 -140.22 40.27 0c28.85,0 47.74,-2 56.45,-6.23 8.69,-4.23 15.17,-10.69 19.37,-19.64 4.23,-8.94 6.23,-26.85 6.23,-53.7l0 -564.86c0,-31.58 -2,-52.22 -6.23,-62.16 -4.21,-9.96 -11.19,-17.66 -20.87,-23.12 -6.96,-3.73 -23.37,-5.73 -49.72,-5.73l-45.5 0 0 -140.22zm602.4 140.22l0 -140.22 577.32 0c88.26,0 157.63,10.19 208.34,30.83 50.47,20.62 89.26,50.47 116.36,89.01 27.1,38.54 40.77,80.8 40.77,127.05 0,33.56 -7.21,65.37 -21.62,95.47 -14.42,30.08 -35.06,56.68 -62.16,79.56 -27.1,23.12 -62.64,42.27 -107.16,57.18 47.74,12.19 84.03,25.6 109.41,40.04 36.54,20.37 65.39,48.97 86.76,85.76 21.37,36.56 32.08,77.33 32.08,122.57 0,53.95 -16.16,103.68 -48.74,148.92 -32.56,45.52 -78.56,80.06 -137.99,103.68 -59.41,23.87 -146.19,35.81 -260.81,35.81l-532.55 0 0 -140.22 40.29 0c26.85,0 45,-2.25 54.45,-6.98 9.69,-4.46 16.4,-11.19 20.12,-19.62 3.98,-8.46 5.98,-27.6 5.98,-57.2l0 -567.11c0,-30.08 -2,-49.22 -5.98,-57.68 -3.73,-8.21 -10.44,-14.67 -20.12,-19.64 -9.46,-4.71 -27.6,-7.21 -54.45,-7.21l-40.29 0zm371.44 271.51l111.64 0c58.18,0 101.45,-4.98 129.3,-14.68 28.08,-9.69 48.97,-24.6 63.14,-44.25 14.17,-19.89 21.14,-42.77 21.14,-68.62 0,-26.85 -6.73,-49.72 -20.14,-68.87 -13.19,-18.89 -32.58,-32.58 -57.93,-40.54 -25.12,-8.21 -70.37,-12.17 -135.51,-12.17l-111.64 0 0 249.12zm0 147.67l0 220.77c0.5,31.08 1.75,49.49 3.73,54.7 2.25,6.96 6.23,11.69 11.94,14.42 5.48,2.75 20.64,3.98 45.5,3.98l74.1 0c43.02,0 78.83,-3.98 107.16,-12.17 28.35,-7.96 52.45,-24.62 72.35,-49.97 19.89,-25.37 29.83,-55.7 29.83,-91.26 0,-30.33 -6.96,-55.93 -21.12,-76.83 -13.92,-20.87 -35.06,-36.79 -63.16,-47.48 -28.08,-10.69 -71.1,-16.16 -128.78,-16.16l-131.53 0zm704.37 -559.41l460.21 0 176.77 615.84 181.23 -615.84 469.16 0 0 140.22 -50.22 0c-27.1,0 -46,5.73 -56.43,17.16 -10.44,11.44 -15.67,32.81 -15.67,64.39l0 577.32c0,25.35 1.5,41.02 4.48,47.48 4.23,9.71 10.44,16.41 18.14,20.39 10.69,5.71 24.62,8.71 42.27,8.71l57.43 0 0 140.22 -489.29 0 0 -140.22 37.79 0c27.85,0 46.5,-2.25 56.18,-6.48 9.71,-4.48 16.91,-11.19 21.39,-20.12 4.71,-8.96 6.96,-25.62 6.96,-49.97l0 -625.3 -247.64 842.09 -140.22 0 -240.17 -814.99 0 617.82c0,14.19 2.48,25.12 7.46,32.83 5.21,7.71 12.42,13.67 21.62,17.89 9.46,4.23 24.37,6.23 45,6.23l48.24 0 0 140.22 -414.71 0 0 -140.22 41.02 0c25.85,0 43.52,-2.25 53.2,-6.98 9.46,-4.46 16.41,-11.94 21.14,-21.87 4.73,-9.94 6.96,-28.35 6.96,-54.95l0 -570.09c0,-26.1 -1.75,-43.27 -5.23,-50.97 -4.23,-10.69 -10.94,-18.39 -19.64,-23.37 -8.94,-4.71 -22.62,-7.21 -41.77,-7.21l-55.68 0 0 -140.22z"/>
  </g>
 </g>
</svg>
