<?xml version="1.0" encoding="UTF-8"?>
<!DOCTYPE svg PUBLIC "-//W3C//DTD SVG 1.1//EN" "http://www.w3.org/Graphics/SVG/1.1/DTD/svg11.dtd">
<!-- Creator: CorelDRAW 2020 (64 Bit) -->
<svg xmlns="http://www.w3.org/2000/svg" xml:space="preserve" width="73.2614mm" height="20.829mm" version="1.1" style="shape-rendering:geometricPrecision; text-rendering:geometricPrecision; image-rendering:optimizeQuality; fill-rule:evenodd; clip-rule:evenodd"
viewBox="0 0 11346.45 3225.92"
 xmlns:xlink="http://www.w3.org/1999/xlink"
 xmlns:xodm="http://www.corel.com/coreldraw/odm/2003">
 <defs>
  <style type="text/css">
   <![CDATA[
    .fil8 {fill:#023155}
    .fil18 {fill:#043A68}
    .fil22 {fill:#1169B5}
    .fil4 {fill:#1886EF}
    .fil7 {fill:#2E4905}
    .fil17 {fill:#48710B}
    .fil19 {fill:#558D0D}
    .fil15 {fill:#564704}
    .fil10 {fill:#570C01}
    .fil13 {fill:#685609}
    .fil20 {fill:#6D1102}
    .fil3 {fill:#75BB17}
    .fil11 {fill:#86BCED}
    .fil25 {fill:#8A730C}
    .fil23 {fill:#8F1502}
    .fil27 {fill:#A6961B}
    .fil14 {fill:#A7CD66}
    .fil26 {fill:#AF1A01}
    .fil9 {fill:#B2D479}
    .fil24 {fill:#CA2307}
    .fil6 {fill:#EECC25}
    .fil21 {fill:#EEDB75}
    .fil5 {fill:#F1401B}
    .fil16 {fill:#F1836A}
    .fil12 {fill:#F49783}
    .fil28 {fill:whitesmoke}
    .fil0 {fill:#373435;fill-rule:nonzero}
    .fil1 {fill:#4967AF;fill-opacity:0.501961}
    .fil2 {fill:#4967AF;fill-rule:nonzero;fill-opacity:0.501961}
   ]]>
  </style>
 </defs>
 <g id="Camada_x0020_1">
  <metadata id="CorelCorpID_0Corel-Layer"/>
  <g id="_2543805187424">
   <path class="fil0" d="M2356.43 1207.4l683.14 0 93.36 260.04 -106.38 38.25c-18.03,-42.67 -39.06,-76.93 -63.1,-102.76 -24.04,-26.05 -50.69,-43.27 -79.73,-51.9 -29.05,-8.41 -63.11,-12.61 -101.77,-12.61l-125.02 0 0 205.54 40.67 0c30.45,0 51.08,-2.2 61.7,-6.81 10.61,-4.4 18.23,-11.62 22.83,-21.23 4.62,-9.62 7.02,-28.65 7.02,-57.29l0 -31.25 105.78 0 0 346.18 -105.78 0 0 -35.47c0,-24.04 -2.8,-41.66 -8.41,-52.69 -5.61,-11.01 -13.23,-18.63 -22.84,-22.44 -9.82,-4 -31.25,-6.01 -64.51,-6.01l-36.46 0 0 188.13c0,19.82 1.01,32.04 3,36.46 1.8,4.2 5.81,7.6 11.41,9.82 5.61,2.4 17.84,3.59 36.66,3.59l68.72 0c51.29,0 94.37,-7.4 129.62,-22.02 35.27,-14.84 66.72,-38.67 94.16,-71.32 27.65,-32.86 48.88,-71.92 63.7,-117.01l107.17 36.88 -107.38 304.5 -707.58 0 0 -112.98 20.44 0c27.44,0 45.87,-2.01 55.29,-5.82 9.42,-4 16.03,-10.81 19.82,-20.63 2.01,-5.81 3,-22.44 3,-49.89l0 -446.34c0,-24.24 -1.6,-40.27 -5,-47.69 -3.21,-7.4 -8.41,-13.03 -15.63,-16.62 -7.02,-3.81 -20.83,-5.62 -41.48,-5.62l-36.46 0 0 -112.98zm860.85 0l399.07 0 0 112.98 -36.47 0c-21.03,0 -35.05,1.81 -41.86,5.62 -6.81,3.59 -12.02,9.6 -15.22,17.62 -3.41,8.01 -5,23.43 -5,46.08l0 453.35c0,24.64 1.39,40.47 4,47.69 2.8,7 7.62,12.02 14.23,15.22 8.21,4.6 20.43,7.02 36.86,7.02l43.47 0 0 112.98 -399.07 0 0 -112.98 32.45 0c23.25,0 38.47,-1.61 45.49,-5.02 7,-3.41 12.22,-8.61 15.61,-15.83 3.41,-7.2 5.02,-21.64 5.02,-43.27l0 -455.15c0,-25.45 -1.61,-42.08 -5.02,-50.09 -3.39,-8.02 -9.01,-14.23 -16.82,-18.63 -5.61,-3 -18.83,-4.62 -40.07,-4.62l-36.66 0 0 -112.98zm485.4 112.98l0 -112.98 465.19 0c71.12,0 127.01,8.21 167.87,24.84 40.67,16.62 71.92,40.67 93.76,71.72 21.84,31.05 32.85,65.11 32.85,102.37 0,27.04 -5.81,52.67 -17.42,76.93 -11.62,24.24 -28.25,45.67 -50.09,64.1 -21.84,18.63 -50.47,34.06 -86.34,46.08 38.47,9.82 67.71,20.63 88.16,32.26 29.44,16.42 52.69,39.46 69.91,69.11 17.22,29.46 25.85,62.31 25.85,98.76 0,43.47 -13.03,83.54 -39.28,120 -26.24,36.67 -63.3,64.51 -111.19,83.54 -47.87,19.24 -117.8,28.85 -210.15,28.85l-429.12 0 0 -112.98 32.46 0c21.64,0 36.26,-1.81 43.88,-5.62 7.81,-3.59 13.21,-9.01 16.22,-15.81 3.21,-6.81 4.82,-22.24 4.82,-46.09l0 -456.96c0,-24.24 -1.61,-39.66 -4.82,-46.48 -3,-6.61 -8.41,-11.82 -16.22,-15.83 -7.62,-3.79 -22.24,-5.81 -43.88,-5.81l-32.46 0zm299.3 218.78l89.95 0c46.88,0 81.74,-4.01 104.19,-11.83 22.63,-7.81 39.46,-19.82 50.88,-35.65 11.41,-16.03 17.04,-34.46 17.04,-55.29 0,-21.64 -5.42,-40.07 -16.23,-55.49 -10.62,-15.22 -26.25,-26.25 -46.68,-32.66 -20.24,-6.61 -56.7,-9.8 -109.19,-9.8l-89.95 0 0 200.74zm0 118.99l0 177.89c0.4,25.04 1.41,39.88 3,44.08 1.81,5.61 5.02,9.42 9.62,11.62 4.41,2.21 16.63,3.21 36.66,3.21l59.7 0c34.66,0 63.51,-3.21 86.34,-9.8 22.84,-6.41 42.27,-19.84 58.3,-40.27 16.03,-20.44 24.04,-44.88 24.04,-73.54 0,-24.44 -5.61,-45.07 -17.02,-61.9 -11.21,-16.82 -28.25,-29.64 -50.89,-38.25 -22.63,-8.61 -57.29,-13.03 -103.77,-13.03l-105.98 0zm567.56 -450.75l370.82 0 142.44 496.22 146.03 -496.22 378.04 0 0 112.98 -40.47 0c-21.84,0 -37.06,4.62 -45.47,13.83 -8.41,9.22 -12.62,26.44 -12.62,51.88l0 465.19c0,20.43 1.21,33.05 3.61,38.25 3.41,7.82 8.41,13.23 14.62,16.43 8.61,4.6 19.84,7.02 34.06,7.02l46.28 0 0 112.98 -394.25 0 0 -112.98 30.45 0c22.44,0 37.46,-1.81 45.27,-5.22 7.82,-3.61 13.63,-9.01 17.24,-16.22 3.79,-7.22 5.61,-20.64 5.61,-40.27l0 -503.84 -199.54 678.53 -112.98 0 -193.52 -656.69 0 497.82c0,11.43 2,20.24 6.01,26.45 4.2,6.21 10.01,11.01 17.42,14.42 7.62,3.41 19.64,5.02 36.26,5.02l38.87 0 0 112.98 -334.16 0 0 -112.98 33.05 0c20.83,0 35.06,-1.81 42.87,-5.62 7.62,-3.59 13.23,-9.62 17.04,-17.62 3.81,-8.01 5.61,-22.84 5.61,-44.28l0 -459.36c0,-21.03 -1.41,-34.86 -4.21,-41.07 -3.41,-8.61 -8.81,-14.82 -15.83,-18.83 -7.2,-3.79 -18.23,-5.81 -33.65,-5.81l-44.87 0 0 -112.98zm1593.26 -27.65l77.33 0 8.21 27.65 462.58 0 10.01 -27.65 77.33 0 100.58 287.68 -108.18 38.25c-24.24,-47.67 -41.68,-78.72 -52.29,-93.14 -20.64,-28.45 -44.68,-51.09 -71.72,-67.32 -20.23,-12.62 -40.47,-18.83 -60.49,-18.83 -9.42,0 -15.83,2.21 -19.44,6.81 -3.41,4.41 -5.2,14.62 -5.2,30.65l0 469.99c0,27.85 0.99,45.08 3,52.08 2,7.22 5.2,12.62 10.01,16.84 4.62,4.01 11.23,6.81 19.44,8.21 8.21,1.41 30.25,2.01 66.12,2.01l0 112.98 -399.07 0 0 -112.98 24.24 0c26.64,0 43.88,-1.61 51.28,-5.02 7.42,-3.21 13.23,-9.22 17.24,-17.62 3.81,-8.41 5.81,-25.85 5.81,-52.29l0 -480.61c0,-13.61 -1.61,-22.22 -4.82,-25.83 -3,-3.41 -9.8,-5.22 -19.82,-5.22 -20.43,0 -43.27,7.62 -68.32,22.84 -25.24,15.22 -47.69,36.66 -67.31,64.51 -7.82,10.83 -24.44,41.48 -49.89,91.95l-107.17 -38.25 100.56 -287.68zm1315.81 629.05l80.33 80.74c-46.08,52.49 -93.16,90.76 -141.05,114.19 -47.87,23.65 -99.76,35.47 -155.26,35.47 -89.15,0 -164.26,-30.06 -225.17,-90.35 -61.1,-60.31 -91.55,-133.02 -91.55,-218.56 0,-56.1 13.63,-107.39 41.07,-154.06 27.44,-46.68 65.51,-83.15 113.99,-109.39 48.68,-26.25 103.57,-39.46 165.07,-39.46 39.28,0 74.93,5.61 106.99,17.02 32.04,11.23 60.29,27.44 84.33,48.49 24.05,20.83 43.47,46.28 58.11,76.12 14.82,29.84 24.84,60.7 30.25,92.55 2.4,16.03 3.61,41.27 3.61,75.92l-395.46 0c0.79,49.48 15.43,89.55 43.68,120.01 28.23,30.65 63.1,45.87 103.97,45.87 26.24,0 54.89,-7.82 85.74,-23.45 30.85,-15.83 61.3,-39.46 91.36,-71.12zm-116.81 -169.88c-2.8,-23.23 -8.41,-41.46 -16.82,-54.69 -8.41,-13.43 -19.84,-24.04 -34.06,-32.06 -14.42,-7.81 -29.26,-11.82 -45.08,-11.82 -16.42,0 -32.25,4.01 -47.67,12.22 -15.22,8.02 -27.44,19.03 -36.66,33.07 -9.22,13.81 -15.22,31.64 -18.03,53.28l198.32 0zm542.11 -211.55l0 85.34c31.44,-33.05 58.7,-55.49 81.73,-67.31 22.84,-12.02 45.08,-18.03 66.32,-18.03 19.22,0 36.46,4.4 51.48,13.21 15.22,8.83 27.24,21.45 36.06,37.87 8.81,16.43 13.23,34.06 13.23,52.89 0,24.64 -8.21,46.88 -24.44,66.91 -16.23,19.84 -39.06,29.86 -68.52,29.86 -7.81,0 -14.82,-0.6 -21.03,-1.81 -6.01,-1.19 -18.83,-5 -38.47,-11.62 -10.21,-3 -18.63,-4.6 -25.23,-4.6 -10.22,0 -27.06,6.41 -50.69,19.22l0 228.78c0,19.44 1.41,32.06 4.41,37.87 2.8,6.01 7.6,10.22 14.02,13.03 6.61,2.6 20.83,4.01 42.67,4.01l25.45 0 0 112.98 -360.6 0 0 -112.98 30.05 0c21.64,0 35.06,-1.21 40.27,-3.61 5.41,-2.21 9.42,-6.41 12.02,-12.22 2.8,-5.81 4.21,-18.83 4.21,-39.08l0 -268.45 -86.54 0 0 -112.78c63.7,-4.01 129.82,-20.44 198.52,-49.48l55.1 0zm650.28 244.01l0 -43.07c0,-25.65 -2.2,-43.27 -6.41,-52.89 -4.4,-9.82 -12.22,-17.83 -23.63,-24.24 -11.43,-6.41 -25.65,-9.62 -42.47,-9.62 -13.03,0 -24.84,2.2 -35.47,6.41 -10.62,4.2 -19.03,9.62 -25.24,16.22 -6.41,6.61 -13.61,19.44 -21.84,38.47 -10.61,24.04 -23.23,41.27 -37.85,51.88 -14.64,10.42 -32.06,15.63 -51.9,15.63 -25.04,0 -45.67,-7.81 -61.7,-23.43 -16.03,-15.63 -24.04,-34.86 -24.04,-57.91 0,-26.03 8.21,-49.28 24.64,-69.51 22.04,-27.04 54.69,-49.08 98.16,-66.32 43.47,-17.02 92.35,-25.63 146.65,-25.63 54.49,0 100.76,8.81 139.03,26.24 38.07,17.64 64.71,38.67 79.73,62.91 15.02,24.44 22.64,61.7 22.64,111.59l0 209.35c0,25.85 1.39,42.27 4.2,49.48 2.62,7.22 8.63,13.63 17.64,19.03 9.01,5.41 19.02,8.21 30.05,8.21 11.01,0 25.85,-3.21 44.28,-9.42l0 115c-33.27,10.62 -65.31,15.83 -95.96,15.83 -36.07,0 -66.72,-5.81 -92.35,-17.62 -25.45,-11.83 -46.88,-29.46 -64.12,-53.09 -39.26,25.45 -74.73,43.68 -106.77,54.49 -31.86,10.83 -62.71,16.23 -92.55,16.23 -56.1,0 -101.37,-15.83 -136.03,-47.28 -34.46,-31.46 -51.68,-70.31 -51.68,-116.39 0,-26.25 6.01,-50.29 18.03,-72.13 12.02,-21.84 29.84,-41.07 53.48,-57.49 23.85,-16.43 60.51,-30.85 110.4,-43.68 49.68,-12.62 109.98,-21.84 181.1,-27.24zm0 97.36c-51.48,7.42 -87.94,15.02 -109.19,22.64 -21.23,7.6 -36.46,17.02 -45.47,28.65 -9.01,11.62 -13.61,23.43 -13.61,35.45 0,15.63 5.81,28.65 17.62,39.26 11.82,10.62 27.85,15.83 47.87,15.83 13.03,0 28.05,-3.41 45.29,-10.01 17.02,-6.61 36.26,-16.43 57.49,-29.26l0 -102.57zm593.8 -341.36l0 66.1c44.67,-27.85 78.72,-45.67 102.36,-53.88 23.65,-8.22 49.1,-12.22 75.94,-12.22 68.52,0 124.21,25.24 167.28,75.52 49.28,57.71 73.92,131.43 73.92,220.98 0,85.74 -21.43,157.66 -64.51,215.36 -49.28,66.71 -115.4,99.97 -198.33,99.97 -26.65,0 -49.89,-3 -69.93,-9.01 -19.82,-6.01 -41.66,-17.04 -65.09,-33.07l0 118.81c0,23.63 1.19,37.87 3.59,42.47 2.62,6.01 7.02,10.22 13.23,12.82 6.01,2.6 21.23,3.81 45.67,3.81l27.65 0 0 112.98 -364.21 0 0 -112.98 19.84 0c26.64,0 42.87,-1.01 48.48,-3.21 5.61,-2.2 10.02,-6.61 13.23,-13.43 3.41,-6.81 5,-20.83 5,-41.86l0 -523.28 -86.54 0 0 -115.4c42.08,-5 77.93,-11.41 107.58,-19.02 29.46,-7.42 59.5,-18.04 89.95,-31.46l54.9 0zm21.64 183.9l0 189.52c0,29.84 2.8,51.08 8.41,63.7 5.81,12.42 15.63,22.64 29.44,30.65 13.83,7.82 29.86,11.83 47.89,11.83 31.66,0 57.89,-14.43 78.72,-43.47 21.03,-29.05 31.46,-73.13 31.46,-132.43 0,-54.89 -9.01,-95.56 -27.24,-122.2 -18.23,-26.44 -40.67,-39.66 -67.11,-39.66 -30.65,0 -64.51,14.02 -101.57,42.06zm675.12 -445.94c29.84,0 55.09,10.41 76.12,31.44 21.05,20.85 31.46,46.08 31.46,75.73 0,30.25 -10.41,55.69 -31.46,76.52 -21.03,21.03 -46.28,31.46 -76.12,31.46 -29.84,0 -55.09,-10.42 -76.12,-31.46 -21.03,-20.83 -31.46,-46.08 -31.46,-75.92 0,-29.26 10.81,-54.5 32.25,-75.94 21.64,-21.23 46.68,-31.84 75.33,-31.84zm95.56 262.04l0 432.93c0,20.63 1.21,33.45 3.61,38.05 2.2,4.62 6.41,8.22 12.62,10.83 6.01,2.6 19.64,3.81 40.87,3.81l31.84 0 0 112.98 -363 0 0 -112.98 31.05 0c20.23,0 33.25,-1.01 38.86,-3.21 5.61,-2.21 9.82,-5.82 12.62,-10.83 2.6,-5 4.01,-15.22 4.01,-30.45l0 -278.87 -86.54 0 0 -110.58c30.85,-1.6 60.49,-4.8 88.95,-10.02 28.25,-5 53.7,-11.21 75.92,-18.23 14.43,-4.6 32.26,-12.42 53.49,-23.43l55.69 0zm513.06 244.01l0 -43.07c0,-25.65 -2.2,-43.27 -6.41,-52.89 -4.4,-9.82 -12.22,-17.83 -23.63,-24.24 -11.43,-6.41 -25.65,-9.62 -42.47,-9.62 -13.03,0 -24.84,2.2 -35.47,6.41 -10.62,4.2 -19.03,9.62 -25.24,16.22 -6.41,6.61 -13.61,19.44 -21.84,38.47 -10.61,24.04 -23.23,41.27 -37.85,51.88 -14.64,10.42 -32.06,15.63 -51.9,15.63 -25.04,0 -45.67,-7.81 -61.7,-23.43 -16.03,-15.63 -24.04,-34.86 -24.04,-57.91 0,-26.03 8.21,-49.28 24.64,-69.51 22.04,-27.04 54.69,-49.08 98.16,-66.32 43.47,-17.02 92.35,-25.63 146.65,-25.63 54.49,0 100.76,8.81 139.03,26.24 38.07,17.64 64.71,38.67 79.73,62.91 15.02,24.44 22.64,61.7 22.64,111.59l0 209.35c0,25.85 1.39,42.27 4.2,49.48 2.62,7.22 8.63,13.63 17.64,19.03 9.01,5.41 19.02,8.21 30.05,8.21 11.01,0 25.85,-3.21 44.28,-9.42l0 115c-33.27,10.62 -65.31,15.83 -95.96,15.83 -36.07,0 -66.72,-5.81 -92.35,-17.62 -25.45,-11.83 -46.88,-29.46 -64.12,-53.09 -39.26,25.45 -74.73,43.68 -106.77,54.49 -31.86,10.83 -62.71,16.23 -92.55,16.23 -56.1,0 -101.37,-15.83 -136.03,-47.28 -34.46,-31.46 -51.68,-70.31 -51.68,-116.39 0,-26.25 6.01,-50.29 18.03,-72.13 12.02,-21.84 29.84,-41.07 53.48,-57.49 23.85,-16.43 60.51,-30.85 110.4,-43.68 49.68,-12.62 109.98,-21.84 181.1,-27.24zm0 97.36c-51.48,7.42 -87.94,15.02 -109.19,22.64 -21.23,7.6 -36.46,17.02 -45.47,28.65 -9.01,11.62 -13.61,23.43 -13.61,35.45 0,15.63 5.81,28.65 17.62,39.26 11.82,10.62 27.85,15.83 47.87,15.83 13.03,0 28.05,-3.41 45.29,-10.01 17.02,-6.61 36.26,-16.43 57.49,-29.26l0 -102.57zm737.63 -328.15l76.73 0 47.49 163.29 -110.58 44.67c-21.05,-33.65 -47.49,-60.09 -79.34,-79.33 -31.84,-19.24 -63.5,-28.85 -94.75,-28.85 -20.63,0 -36.06,3.41 -46.28,10.42 -10.22,6.81 -15.22,15.22 -15.22,24.84 0,8.01 3.61,15.63 10.81,22.43 7.22,7.02 22.24,14.43 44.88,22.04l161.07 57.51c28.64,10.02 55.89,22.83 82.13,38.05 26.25,15.24 45.87,33.86 58.9,55.89 13.03,22.04 19.64,47.89 19.64,77.53 0,52.89 -20.24,96.57 -60.91,130.42 -47.67,39.87 -107.17,59.7 -178.29,59.7 -60.9,0 -113.99,-15.22 -159.26,-45.49l-16.43 32.26 -77.93 0 -72.13 -191.32 110.6 -46.68c27.65,43.07 61.9,76.73 102.37,101.37 40.45,24.64 77.72,36.86 111.77,36.86 21.05,0 38.67,-4.8 53.09,-14.62 11.03,-7.81 16.43,-17.02 16.43,-27.65 0,-9.01 -4.21,-17.42 -12.82,-25.65 -8.41,-8.21 -27.24,-17.42 -56.3,-27.65l-126.61 -44.08c-69.91,-24.44 -117.4,-50.68 -142.64,-78.52 -25.23,-28.05 -37.85,-61.1 -37.85,-99.37 0,-49.08 19.62,-90.35 59.1,-124.01 45.07,-38.25 100.56,-57.29 166.48,-57.29 58.7,0 108.77,13.03 150.65,39.26l15.22 -26.05z"/>
   <g>
    <path class="fil1" d="M2069.04 1.12c106.97,-33.75 -370.54,711.5 -431.45,769.07 -94.06,87.88 -208.08,204.28 -329.72,252.4 0.68,-36.13 167.1,-134.31 195.59,-159.34 196.79,-176.17 230.94,-289.76 322.02,-491.42 29.36,-62.38 69.97,-120.97 105.55,-179.94 13.52,-22.27 105.58,-198.61 138.01,-190.78z"/>
    <path class="fil1" d="M2025.64 129.17c68.89,-18.86 -450.84,718.72 -536.21,789.54 -73.06,60.01 -149.56,116.1 -229.45,166.68 -34.83,21.96 -73.29,49.96 -113.34,61.69 0.36,-19.67 90.79,-64.47 105.33,-74.33 32.32,-21.82 64.29,-44.23 95.23,-67.99 211.82,-166.06 258.02,-285.75 369.18,-484.11 37.79,-65.11 87.02,-125.34 131.52,-185.93 17.33,-23.54 143.43,-217.43 177.74,-205.55z"/>
    <path class="fil1" d="M1987.57 150.11c-4.75,339.49 -526.7,712.12 -768.42,870.85 -65.99,42.98 -134.03,82.78 -204.24,118.48 -38.05,19.19 -284.28,151.96 -318.7,115.26 68.42,-41.44 156.02,-58.02 228.63,-92.63 97.34,-47.25 190.85,-102.47 279.09,-165.11 191.81,-136.28 321.99,-309.89 466.04,-491.81 60.73,-76.23 123.08,-151.02 182.83,-228.06 12.24,-15.72 140.18,-154.81 134.77,-126.98z"/>
    <path class="fil1" d="M1912.98 291.52c-46.77,297.84 -460.54,592.54 -684.77,743.73 -118.43,79.34 -243.74,148.82 -376.05,202.21 -95.36,38.02 -200.52,75.33 -303.91,80.92 -3.1,0.2 -17.11,2.51 -19.17,-1.22 5.73,-2.43 11.83,-4.1 17.83,-5.73 71.96,-20.35 144.82,-34.61 215.34,-60.31 159.15,-59.69 311.91,-142.84 444.71,-249.4 126.66,-101.07 228.27,-230.55 336.84,-349.93 70.17,-76.71 141.99,-151.87 211.62,-229.11 17.24,-19.08 165.7,-155.46 157.57,-131.16z"/>
    <path class="fil1" d="M1840.58 332.21c-137.75,267.64 -401.61,484.76 -647.77,647.2 -188.7,123.47 -397.88,226.2 -621.25,266.82 -11.99,2.12 -24.02,4.03 -36.09,5.71 -24.58,3.53 -244.04,-3.89 -240.62,-5.51 79.3,-6.85 157.69,-0.33 236.93,-13.68 0.46,-0.08 0.94,-0.15 1.41,-0.23 232.19,-42 447.87,-151.35 630.92,-298.4 118.02,-94.01 227.87,-198.98 335.21,-304.81 79.84,-78.51 158.81,-157.56 236.17,-238.51 13.13,-13.71 157.96,-149.9 105.08,-58.59z"/>
    <path class="fil1" d="M1736.3 479.96c-130.37,207.74 -334.02,377.23 -534.74,513.23 -199.06,134.39 -422.39,245.05 -661.01,285.2 -48.45,8.12 -97.42,13.2 -146.54,14.17 -56.7,0.91 -113.54,-3.67 -169.05,-15.58 -11.18,-2.42 -108.07,-39.23 -104.34,-39.83 35.88,5.81 70.93,16.48 106.73,23.03 42.11,7.71 84.76,12.42 127.62,12.59 60.79,-0.12 121.33,-6.81 181,-18.24 239.1,-47.52 440.05,-171.31 627.39,-321.62 66.75,-53.03 132.34,-107.55 196.79,-163.36 88.33,-76.31 175.66,-153.39 261.57,-232.41 15.15,-13.92 179.08,-149.89 114.59,-57.18z"/>
    <path class="fil1" d="M1709.97 449.22c-148.11,193.81 -339.55,356.32 -543.82,488.12 -193.91,124.27 -411.32,227.03 -641.67,257.48 -67.22,9.09 -135.39,11.66 -202.9,3.98 -28.09,-3.33 -55.99,-8.72 -83.25,-16.31 -14.14,-3.87 -101.17,-44.26 -83.59,-43.24 29.18,5.99 57.66,15.01 86.58,22.04 31.73,7.84 63.9,13.85 96.55,16.14 60.67,3.7 121.42,-0.29 181.39,-9.77 227.23,-36.38 429.04,-150.49 612.85,-284.03 100.14,-72.56 196.37,-150.52 289.6,-231.74 85.54,-74.33 169.22,-150.43 252.49,-227.25 73.23,-67.15 103.5,-59.95 35.76,24.58z"/>
    <path class="fil2" d="M1589.84 596.24c-120.62,136.88 -262.45,255.21 -414.03,356.32 -194.6,129.1 -413.16,235.09 -645.85,270.65 -98.33,15.05 -199.22,17.04 -296.77,-4.34 -25.26,-5.51 -50.15,-12.61 -74.46,-21.4 -22.29,-8.22 -168.77,-69.86 -158.16,-103.71 2.03,-2.04 6.27,0.03 8.49,0.87 56.62,30.43 108.63,66.58 170.72,85.85 18.72,5.58 37.7,10.24 56.87,13.95 94.95,18.37 192.42,14.39 287.14,-3.36 226.74,-43.88 427.27,-168.15 613.81,-298.82 48.24,-33.75 95.73,-68.55 142.53,-104.28 93.22,-71.06 184.47,-144.24 275.32,-218.3 81.88,-66.47 112.05,-57.86 34.4,26.56z"/>
    <path class="fil1" d="M885.75 518.6c-11.2,-56.73 154.44,28.85 164.74,36.86 25.12,20.34 45.38,46.32 54.81,77.58 5.25,17.81 6.63,36.49 4.52,54.92 -2.15,20.44 -8.6,40.1 -17.67,58.47 -12.87,25.97 -30.57,49.33 -53.06,67.71 -21.54,17.21 -46.59,29.33 -73.35,35.93 -8.38,2.06 -16.9,3.58 -25.48,4.57 -43.5,4.86 -87.61,-3.76 -127.73,-20.68 -25.49,-10.86 -59.26,-26.45 -76.23,-49.68 10.01,-4.54 68.69,35.82 80.29,40.33 11.86,4.6 24.04,8.49 36.46,11.29 36.01,7.79 73.88,8.36 109.31,-2.56 23.79,-7.37 45.83,-19.75 63.65,-37.23 16.77,-17.3 35.45,-45.02 29.86,-70.75 -3.61,-16.91 -15.44,-35.39 -21.74,-51.73 -0.5,-1.58 -1.04,-3.16 -1.6,-4.71 -2.32,-6.71 -4.57,-13.32 -8.02,-19.56 -8.22,-14.81 -20.61,-26.9 -33.28,-37.93 -0.81,-0.7 -1.63,-1.39 -2.45,-2.09 -12.72,-10.72 -110.04,-72.68 -103.04,-90.74z"/>
    <path class="fil1" d="M964.23 552.41c-7.79,-40.25 72.76,0.02 82.67,6.43 26.69,18.17 48.07,43.37 58.56,74.17 5.93,17.8 7.84,36.63 6.18,55.29 -1.6,20.83 -7.67,41.01 -16.49,59.88 -12.56,26.87 -30.22,51.09 -52.86,70.36 -21.96,18.17 -47.62,31.1 -75.15,38.41 -47.78,12.48 -98.16,7.67 -144.62,-7.93 -4.79,-1.64 -9.52,-3.39 -14.23,-5.25 -49.53,-19.56 -95.14,-51.02 -130.05,-91.35 -9.88,-11.48 -21.4,-24.75 -26.56,-39.29 7.37,-0.81 27.99,29.05 32.63,33.84 19.99,20.41 42.06,38.98 66.53,53.8 20.04,11.93 41.29,21.85 63.44,29.18 46.45,15.49 101.77,21.87 147.4,-0.02 34.88,-16.82 29.66,-36.54 40.16,-67.2 2.32,-8.13 5.47,-16.01 8.44,-23.91 4.21,-10.81 9.35,-21.2 13.27,-32.15 3.87,-10.86 6.55,-22.21 6.64,-33.78 0.19,-6.12 -0.4,-12.22 -1.72,-18.2 -0.43,-1.95 -0.93,-3.89 -1.49,-5.82 -5.06,-17.32 -14.84,-32.65 -25.86,-46.77 -5.25,-6.78 -41.46,-40.16 -36.89,-49.68z"/>
    <path class="fil1" d="M973.83 576.22c14.23,0.43 28.39,6.41 40.64,13.27 20.6,12.16 38.27,29.84 47.07,52.39 4.66,12.1 6.4,25.07 5.58,37.99 -0.71,15.72 -5.22,30.98 -11.74,45.21 -9.63,21.06 -23.11,40.22 -40.64,55.45 -16.63,13.99 -36.1,23.94 -57.06,29.63 -43.15,11.51 -88.87,4.79 -129.97,-11.18 -43.33,-16.91 -82.55,-44.17 -114.08,-78.31 -22.22,-24.27 -40.67,-52.16 -52.3,-83.04 -4.49,-12.03 -7.84,-24.52 -9.85,-37.22 -6.1,-44.23 1.8,-97.7 30.29,-133.74 0.82,-0.99 3.14,-4.37 4.82,-3.93 -0.37,1.9 -1.01,3.76 -1.64,5.59 -14.51,39.73 -28.53,77.35 -23.29,120.63 0.39,3.02 0.85,6.02 1.39,9.01 8.75,42.75 32.52,80.83 63.14,111.42 30.96,30.45 69.79,54.7 112.46,64.35 37.09,8.66 75.55,4.55 108.71,-14.68 12.28,-7 23.26,-16 32.38,-26.81 2.06,-2.62 4.03,-5.31 5.89,-8.07 6.41,-9.46 12.16,-19.27 16.84,-29.71 3.58,-8.08 6.37,-16.66 6.91,-25.54 0.42,-5.47 -0.14,-10.9 -1.6,-16.18 -0.57,-2.08 -1.27,-4.14 -2.06,-6.15 -4.49,-11.4 -11.06,-21.78 -18.06,-31.8 -2.62,-3.83 -33.44,-43.46 -13.81,-38.6z"/>
    <path class="fil1" d="M1034.88 624.63c8.49,3.7 15.26,10.83 20.1,18.59 6.77,10.84 9.8,23.57 10.07,36.27 0.84,15.81 -2.9,31.53 -8.77,46.12 -8.81,21.95 -21.87,41.99 -39.26,58.08 -16.76,14.98 -36.69,25.74 -58.22,32.09 -44.33,12.93 -91.75,6.83 -134.51,-8.95 -44.96,-16.66 -85.85,-44.08 -118.93,-78.75 -32.93,-34.91 -58.53,-77.69 -67.37,-125.28 -3.66,-22.4 -3.81,-45.19 -0.36,-67.63 4.23,-27.15 13.71,-53.34 26.96,-77.38 5.5,-9.88 53.63,-86.59 70.5,-77.95 -17.64,29.46 -44.62,51.82 -61.04,82.86 -4.58,8.75 -8.66,17.78 -12.02,27.07 -12.45,35.19 -16.28,73.07 -8.97,109.79 10.07,44.2 35.56,83.35 69.25,113.29 34.29,29.72 75.21,47.21 120.17,51.99 30.73,3.84 63.13,3.81 92.93,-5.41 3.78,-1.16 7.53,-2.4 11.23,-3.79 12.85,-4.79 24.76,-11.55 35.11,-20.6 11.45,-10.35 20.47,-22.94 27.85,-36.43 1.1,-2.03 2.17,-4.07 3.17,-6.15 3.31,-6.88 6.13,-13.99 8.35,-21.3 2.03,-7.16 3.27,-14.48 3.84,-21.88 0.36,-5.39 -2.37,-33.73 9.91,-24.66z"/>
    <path class="fil1" d="M1023.99 655.95c3.07,5.11 4.77,10.87 5.41,16.79 1.78,11.63 -0.85,23.56 -4.93,34.43 -6.52,17.25 -16.18,33.27 -29.49,46.12 -12.51,11.58 -27.49,19.92 -43.78,24.89 -36.47,11.01 -75.89,5.03 -110.94,-8.18 -39.31,-14.9 -74.88,-39.39 -103.57,-70.04 -27.1,-29.29 -48.72,-65.06 -55.65,-104.79 -6.07,-40.56 3.33,-81.28 23.12,-116.87 10.45,-18.55 23.51,-35.56 38.39,-50.75 14.37,-14.57 30.51,-27.43 47.81,-38.35 6.86,-4.31 69.04,-27.38 67.77,-25.34 -19.34,12.98 -41.43,21.57 -60.97,34.41 -11.52,7.59 -22.53,16.01 -32.59,25.49 -18.71,17.87 -34.94,38.52 -46.87,61.55 -16.84,32.8 -24.38,70.19 -16.48,106.6 8.67,34.8 31.35,64.66 58.62,87.24 28.76,23.18 63.19,39.26 99.06,47.78 22.32,5.51 46.03,8.21 68.78,3.81 4.46,-0.88 8.89,-1.92 13.24,-3.3 9.29,-2.91 17.97,-7.33 25.6,-13.38 9.28,-7.51 16.68,-16.97 22.88,-27.13 1.46,-2.42 2.87,-4.88 4.18,-7.37 2.15,-4.1 4.09,-8.32 6.21,-12.44 2.26,-4.88 4.57,-9.94 7.73,-14.33 3.22,-4.49 7.85,-6.64 12.47,-2.52 1.73,1.55 3.02,3.58 3.98,5.67z"/>
    <path class="fil1" d="M1014.58 719.91c-4.17,12.42 -10.67,23.94 -19.25,33.86 -11.88,12.92 -26.86,22.35 -43.35,28.22 -37.15,13.2 -78.35,8.1 -114.86,-4.72 -40.98,-14.36 -78.23,-39.03 -108.4,-70.14 -29.15,-30.45 -52.33,-67.88 -60.36,-109.7 -7.25,-43.46 1.89,-87.4 22.4,-126.07 20.94,-39 52.24,-71.89 88.59,-96.89 7.33,-5 14.84,-9.71 22.57,-14.06 30.39,-17.02 64.23,-29.18 98.97,-32.88 3.3,-0.36 37.03,0.79 34.09,3.07 -10.47,2.82 -21.37,4.14 -32.03,6.2 -27.04,5.2 -53.56,13.01 -78.1,25.66 -12.93,6.78 -25.35,14.56 -37.12,23.18 -33.53,24.64 -62.46,56.53 -80.38,94.3 -16.56,35.19 -22.74,75.1 -11.91,112.9 11.34,34.94 36.67,63.38 64.97,85.86 29.02,22.46 62.24,40.19 97.37,50.94 1.66,0.53 3.35,1.01 5.02,1.49 25.93,7.51 53.45,12.3 80.24,6.6 8.92,-1.95 17.49,-5.11 25.55,-9.4 1.98,-1.07 3.95,-2.18 5.87,-3.35 10.31,-6.12 26.45,-23.96 39,-24.13 1.52,0 2.74,0.56 3.5,1.95 2.66,4.85 -0.5,12.62 -2.37,17.11z"/>
    <path class="fil1" d="M994.86 703.76c-4.23,9.51 -9.79,18.38 -16.96,25.96 -9.11,9.15 -20.24,15.78 -32.49,19.78 -30.45,9.87 -63.93,4.01 -93.14,-7.19 -35.05,-13.51 -66.67,-35.82 -91.93,-63.56 -22.58,-25.03 -41.12,-55.63 -46.2,-89.43 -4.29,-33.08 4.85,-66.21 21.61,-94.66 18.68,-31.22 45.89,-56.9 76.82,-75.81 15.04,-9.11 31.04,-16.65 47.73,-22.22 17.35,-5.68 35.65,-9.2 53.94,-9.17 2.45,0 35.62,3.3 24.75,8.46 -7.26,1.69 -14.7,2.54 -22.09,3.47 -19.42,2.35 -38.67,5.36 -56.93,12.65 -13.15,5.44 -25.77,12.06 -37.7,19.79 -27.94,18.23 -52.64,42.59 -68.3,72.27 -13.04,25.03 -18.96,53.63 -12.1,81.37 7.59,26.58 26.89,49.53 47.07,67.62 23.7,20.82 51.57,37.26 81.45,47.44 12.61,4.32 25.69,7.48 39.01,8.52 9.2,0.73 18.52,0.77 27.65,-0.85 7.03,-1.29 13.81,-3.61 19.99,-7.23 5.44,-3.14 10.28,-7.14 14.78,-11.51 2.69,-2.65 5.3,-5.37 7.91,-8.1 12.62,-12.95 25.06,-7.79 19.59,11.23 -1.13,3.84 -2.66,7.6 -4.46,11.18z"/>
    <path class="fil2" d="M956.93 748.25c-3.45,2 -7.05,3.7 -10.73,5.17 -31.05,12.53 -66.6,7.54 -97.37,-3.17 -36.92,-12.85 -70.39,-35.34 -97.31,-63.59 -24.86,-26.36 -45.01,-58.76 -51.42,-94.86 -5.54,-36.29 3.27,-72.93 20.97,-104.74 19.13,-33.98 47.47,-62.32 79.93,-83.65 32.37,-21.06 69.35,-35.79 107.9,-39.85 5.82,-0.63 11.66,-1.01 17.5,-1.12 10.21,-0.11 79.14,5.92 75.58,25.29 -0.65,1.29 -2.17,1.36 -3.48,1.41 -26.24,-5.03 -49.85,-14.25 -77.22,-12.06 -3.05,0.28 -6.09,0.63 -9.12,1.05 -35.95,5.02 -70.24,19.59 -99.8,40.45 -28.9,20.57 -53.85,47.72 -68.66,80.19 -12.5,27.55 -16.76,58.36 -8.38,87.74 8.97,27.34 28.5,51.17 49.13,70.59 19.02,17.59 40.56,32.49 63.78,44 5.99,2.97 12.08,5.81 18.26,8.41 23.25,9.74 48.35,16.18 73.72,14.28 2.23,-0.19 4.46,-0.43 6.68,-0.73 7.5,-1.02 17.49,-4.23 24.97,-1.7 2.31,0.96 3.73,2.87 3.89,5.37 -0.03,9.71 -11.27,17.61 -18.8,21.51z"/>
    <path class="fil1" d="M69.62 3224.41c-96.1,8.01 277.17,-587.38 306.36,-621.8 43.58,-51.26 90.57,-99.65 141.79,-143.32 49.93,-42.28 104.08,-79.89 162.29,-109.84 48.66,-24.87 111.65,-55.97 168.06,-55.03 -7.36,21.48 -138.03,57.34 -160.68,69.74 -14.96,8.24 -29.61,17.04 -43.85,26.45 -92.82,62.74 -178.46,144.69 -238.49,239.97 -46.15,72.03 -22.24,135.72 -53.79,210.89 -28.93,66.35 -70.82,129.66 -109.57,190.56 -14.57,22.78 -133.75,212.6 -172.11,192.37z"/>
    <path class="fil1" d="M139.16 3097c-82.19,18.38 206.34,-468.93 231.32,-499.68 81.94,-100.78 177.72,-191.78 290.98,-256.57 3.69,-2.09 7.4,-4.15 11.14,-6.18 103.63,-55.94 257.73,-110.81 376.35,-73.19 -22.05,25.43 -198.81,21.22 -240.83,35.65 -43.46,15.38 -85.17,35.45 -124.57,59.36 -173.17,107.96 -155.28,181.21 -224.59,325.94 -1.41,2.76 -2.77,5.54 -4.23,8.29 -35.79,66.01 -82.73,127.96 -125.4,189.6 -17.49,25.2 -151.59,233.29 -190.17,216.78z"/>
    <path class="fil1" d="M180.32 3076.45c14.82,-150.52 152.03,-317.71 243.37,-427.98 79.84,-96.63 173.14,-184.12 283.53,-244.8 113.08,-61.16 240.35,-88.26 368.16,-68.98 25.94,3.98 51.7,9.28 77.08,15.95 76.71,20.32 150.23,54.21 213.79,101.94 7.71,5.73 67.09,46.4 62,59.63 -24.95,-12.2 -46.88,-32.49 -69.83,-47.97 -40.38,-27.26 -83.14,-51.11 -128.75,-68.44 -50.86,-18.96 -104,-31.46 -157.85,-38.18 -121.59,-14.34 -244.87,14.36 -344.51,86.1 -92.54,68.35 -159.37,171.84 -227.2,262.96 -2.18,2.94 -4.43,5.87 -6.64,8.8 -57.26,74.05 -113.08,149.04 -168.86,224.2 -15.07,20.24 -151.56,162.47 -144.28,136.77z"/>
    <path class="fil1" d="M263.32 2927.47c15.63,-101.55 95.9,-204.34 156.81,-282.43 77.55,-100.2 170.55,-190.27 281.08,-253.38 115.21,-64.6 245.57,-93.82 377.11,-75.89 87.54,12.37 172.73,39.08 250.02,82.33 17.98,10.11 35.48,21.13 52.39,32.91 25.06,17.44 203.82,152.91 183.68,192.36 -64.06,-47.31 -108.92,-117.35 -175.41,-164.08 -6.2,-4.31 -12.47,-8.5 -18.8,-12.59 -89.44,-57.13 -190.95,-91.19 -296.48,-101.37 -129.45,-11.32 -241.89,29.97 -339.18,112.81 -44.77,38.9 -87.3,80.6 -128.27,123.47 -40.39,42.02 -80.71,83.93 -119.13,127.79 -22.75,25.83 -44.99,52.12 -67.2,78.41 -18.09,21.39 -164.57,163.49 -156.63,139.65z"/>
    <path class="fil1" d="M336.78 2882.43c33.87,-70.08 77.76,-135.5 125.96,-196.46 73.74,-94.06 162.05,-179.02 266.91,-237.58 103.69,-57.06 220.5,-82.8 338.27,-65.64 98.13,14.78 192.09,49.59 273.53,106.74 53.32,37.42 100.27,83.04 141.73,133.18 14.74,17.89 28.75,36.43 42.16,55.34 10.05,14.19 97.01,168.75 93.64,167.02 -42.3,-46.17 -71.26,-104.99 -108.3,-155.29 -6.72,-9.12 -13.61,-18.12 -20.74,-26.93 -47.13,-57.72 -100.62,-110.52 -163.08,-151.59 -79.62,-51.84 -170.63,-81.02 -265.16,-88.31 -109.27,-7.02 -209.01,32.54 -298.38,92.62 -41.18,28.09 -79.87,59.75 -116.76,93.25 -45.3,41.01 -89.02,83.51 -130.87,128.04 -25.34,26.98 -50.01,54.59 -74.7,82.18 -13.47,15.04 -156.35,158.86 -104.19,63.45z"/>
    <path class="fil1" d="M436.69 2730.72c8.6,-14.81 17.86,-29.23 27.48,-43.38 66.92,-100.31 155.77,-188.7 259.98,-249.94 105.47,-60.9 225.24,-88.82 346.6,-72.88 101.34,13.91 198.54,48.63 283.44,106.04 75.25,51.2 138.4,117.57 192.87,190.11 19.68,26.22 38.36,53.2 56.31,80.63 13.49,20.68 132.65,231.14 129.2,229.57 -52.22,-53.06 -85.06,-126.81 -126.04,-188.28 -24.69,-36.63 -50.27,-72.71 -77.75,-107.31 -54.69,-68.75 -117.49,-131.63 -192.81,-177.63 -83.37,-49.9 -177.26,-73.8 -273.95,-76.9 -107.44,-1.94 -210,35.14 -300.99,90.25 -0.39,0.25 -0.77,0.5 -1.15,0.73l-217.15 167.96c-14.79,13.52 -29.64,26.98 -44.82,40.07 -22.4,19.51 -109.57,85.23 -61.22,10.97z"/>
    <path class="fil1" d="M463.92 2760.67c10.35,-14.5 21.09,-28.73 32.11,-42.73 70.13,-90.12 154.44,-171.51 255,-226.89 94.95,-51.53 201.63,-74.4 308.98,-57.44 90.32,14.65 176.4,47.84 250.56,101.82 66.97,48.72 122,111.33 169.14,179.02 30.77,44.2 58.5,90.48 84.93,137.38 17.14,30.56 84.83,179.61 82.01,177.09 -45.35,-53.09 -73.49,-119.07 -109.23,-178.48 -24.78,-40.67 -50.51,-80.81 -78.68,-119.24 -46.93,-63.82 -101.29,-122.77 -167.89,-166.43 -71.89,-46.52 -154.16,-70.75 -239.1,-78 -95.19,-6.78 -186.29,22.13 -268.34,68.87 -24.92,14.36 -48.97,30.23 -72.27,47.1 -63.24,45.73 -121.95,96.67 -178.49,150.4 -10.87,10.41 -21.67,20.91 -32.51,31.35 -70.3,67.76 -100.34,61.47 -36.23,-23.8z"/>
    <path class="fil2" d="M567.88 2627.58c51.05,-58.08 110.21,-109.53 177.09,-148.63 96.8,-55.88 206.91,-81.2 318.18,-65.57 93.79,13.75 183.56,46.77 261.4,101.24 70.05,49 128.1,112.58 178.25,181.38 65.37,89.84 118.6,187.73 175.44,282.97 13.92,23.39 118.46,156.53 107.67,177.8 -2.62,1.64 -6.88,-2.06 -8.91,-3.5 -53.65,-48.51 -88.51,-115.1 -126.36,-175.71 -55.72,-88.34 -107.98,-179.47 -172.49,-261.88 -50.21,-63.95 -108.4,-122.04 -178.53,-163.97 -75.21,-44.06 -160.1,-66.3 -246.53,-73.67 -79.17,-5.81 -157.28,10.1 -229.94,41.43 -15.83,6.85 -31.49,14.12 -46.88,21.93 -62.54,31.83 -119.66,72.11 -175.52,114.31 -70.78,53.37 -99.57,43.78 -32.86,-28.13z"/>
    <path class="fil3" d="M1161.83 1670.88l-13.99 7.08c-6.57,2.59 -15.84,12.85 -17.08,21.39 -2.43,16.65 5.73,13.52 1.21,31.01l-5.36 1.94c-14.67,11.37 -36.72,4.15 -50.64,0.06 -31.63,-9.25 -73.55,-31.38 -104.62,-45.19 -3.28,-1.47 -15.78,-7.48 -18.07,-9.29 -5.13,1.19 -1.78,0.15 -5.67,2 -0.7,0.34 -2.99,1.83 -4,2.46 -2.83,1.77 -4.38,2.74 -7.14,3.58l-7.08 6.5c-2.68,1.92 -4.37,3.7 -6.55,5.48 -3.75,3.04 -9.7,6.61 -14.4,10.01l-28.19 22.02c-5.82,5.56 -32.59,30.12 -35.42,37.5 -2.69,7.03 -0.03,15.91 3.14,19.51 3.92,-0.6 6.21,2.94 12.9,4.6 16.15,4 53.42,-8.77 82.01,12.72 6.43,4.82 14.37,13.88 16.11,21.87 1.78,10.95 0.03,16.65 -5.06,23.15 -3.69,4.68 -9.91,11.18 -14.95,14 -37.73,21.11 -94.68,15.61 -108.83,-13.38 -3.52,-7.22 -7.74,-11.8 -16.14,-13.89 -24.73,-6.13 -46.65,9.52 -59.32,27.23 -7.03,9.83 -5.71,4.86 -15.83,20.68 -0.25,0.39 -0.98,1.52 -1.24,1.89 -4.71,6.43 -3.98,2.52 -8.33,11.32l-8.49 14.43c-4.85,7.11 -3.83,3.81 -7.64,13.47 -2.14,5.45 -2.82,5.64 -5.47,10.01l-2.32 3.83c-4.41,6.52 -5.41,7.2 -7.14,17.8l0.25 2.9c10.76,1.53 21.31,4.44 32.34,6.44 12.61,2.31 19.41,5.39 30.9,7.73 19.72,4 84.55,19.64 102.96,29.26 1.73,0.9 3.87,2.37 5.44,3.48l5.92 4.77c8.36,8.97 4.01,18.94 -4.93,24.7 -9.74,6.27 -17.58,-0.08 -30.53,-1.49 2.54,3.44 0.82,2.08 5.23,3.95l6.94 2.14c-2.01,0.48 -3.47,0.67 -4.89,1.19 -5.89,2.14 -1.95,0.94 -4.91,2.71 -3.31,1.97 0.6,0.08 -4.06,2.03 -0.34,0.15 -0.77,0.25 -1.13,0.39l-25.82 21.39c-2.42,3 -5.31,5.13 -6.16,9.09 -0.42,1.97 -0.14,3.78 -0.36,5.84 -1.13,11.03 1.49,-7.26 -0.34,2.8 -0.08,0.42 -0.23,0.84 -0.31,1.21 -2.54,11.43 1.07,0.91 0.51,12.5 -0.33,6.98 -0.88,0.42 -0.6,4.99 0.03,0.31 0.05,0.74 0.11,1.04 0.05,0.28 0.19,0.7 0.28,0.96 0.08,0.28 0.29,0.68 0.42,0.93l1.16 1.77c8.47,13.37 9.37,32.35 13.2,38.72 8.35,13.88 1.84,14.62 10.87,22.63 4.2,3.75 5.25,2.52 6.81,8.41l6.09 -1.52c-8.19,-9.94 -12.08,-9.77 -16.42,-24.24 -2.83,-9.45 -9.57,-23.11 -10.61,-33 7.88,3.19 11.74,11.24 30.11,17.78 12.61,4.49 27.86,2.82 41.63,4.29l10.58 -1.98c0.34,-0.37 0.9,-1.36 1.12,-1.04 0.23,0.34 1.12,-1.08 2.21,-1.83 0.2,-0.14 3.16,-1.8 3.22,-1.83 12.87,-6.01 26.95,-7.5 41.37,-29.98 14.4,-22.47 -4.71,-37.67 11.15,-49.9 3.61,-2.79 9.48,-6.55 13.16,-4.2 25.43,-3.79 21.45,-5.68 53.39,7.48 17.1,7.06 30.59,13.74 46.93,21.61 8.05,3.87 14.98,8.35 22.32,11.51 6.97,3 14.74,7.56 22.22,11.14 4.27,2.04 6.61,3.35 10.84,5.82 4.57,2.69 7.17,3.1 11.31,5.42 7.36,4.14 15.24,8.15 23.59,11.71 3.3,-4.17 9.29,-12.73 14.43,-14.11 2.62,-6.5 17.64,-18.04 23.79,-24.56l29.98 -29.6c0.23,-0.19 0.6,-0.45 0.84,-0.62 0.23,-0.19 0.6,-0.46 0.82,-0.65l16.03 -16.91c12.05,-14.85 31.52,-29.92 15.46,-45.53 -4.55,-4.4 -10.47,-4.91 -15.87,-10.18 -16.35,0 -3.41,-3.9 -15.78,-0.74 -8.29,2.12 -40.11,2 -49.1,-1.41l-12.58 -4.09c-0.36,-0.06 -0.79,-0.14 -1.13,-0.17 -0.36,-0.03 -0.87,0 -1.18,0l-2.49 0.31c-14.3,-2.66 -32.48,-24.47 -28.44,-43.68 3.11,-14.85 11.29,-23.17 24.19,-30.77 0.25,-0.14 6.2,-3.22 6.46,-3.27 14.74,-2.97 4.96,-1.67 7.33,2.65 6.07,-1.67 5.65,-3.47 13.27,-5.62 6.57,2.77 52.52,-11.18 83.66,22.94 4.21,4.6 5.54,8.64 11.07,11.68 13.18,7.22 22.97,5.13 39.31,5 4.68,4.89 10.97,16.93 14.17,23.82 0.15,0.31 0.36,0.71 0.5,1.02 0.15,0.33 0.34,0.71 0.5,1.05 4.86,11.21 0.85,12.14 5.33,15.1 -3.13,0.9 -8.33,3.67 -11.1,4.31 -5.23,1.19 -11.49,0.39 -16.99,0.36 1.3,3.13 -0.15,4.52 16.7,3 6.58,-0.59 9.73,-2.85 16.8,-3 0.94,-3.56 0.22,-2.32 0.02,-4.57l2.46 -3.86c3.25,-8.49 -3.44,-10.38 -8.46,-21.71 -6.63,-14.96 -3.9,-16.99 -13.2,-22.05l-2.01 -1.12c8.81,-7.74 16.23,-19.79 21.08,-30.26l19.61 -41.03c0.15,-0.34 0.34,-0.73 0.48,-1.07 0.15,-0.34 0.34,-0.74 0.5,-1.08l16.4 -38.6 0.39 -1.89 -104.06 -20.13c-28.88,-6.43 -78.34,-12.85 -81.36,-40.61 -2.65,-11.31 -9.42,-3.76 -8.29,-20.2 7.06,-5.28 8.74,-8.7 19.44,-10.69 20.06,-3.73 46.31,-19.89 35.82,-46.83 -1.67,3.73 1.75,0.53 -2.37,2.71 -10.53,-5.31 -23.46,-11.91 -36.61,-13.1 -30.14,-2.77 -32.15,2.87 -45.72,4.31z"/>
    <path class="fil4" d="M554.27 1575.52c-5.58,2.42 -7.06,8.07 -11.82,14.59l-43.33 52.61c-0.19,0.25 -0.43,0.62 -0.63,0.88l-17.87 17.14c-8.46,6.4 -39.88,13.94 -45.44,-2.15 -3.11,-8.95 1.21,-3.61 -6.09,-9.25l-1.61 -1.18c-2.91,-2.63 0.45,-1.9 -5.31,-5.42 -26.14,-15.98 -79.28,-11.43 -96.89,1.25 -7.25,5.22 -14.23,9.04 -20.06,16.48 -0.2,0.25 -0.48,0.6 -0.67,0.87l-4.26 6.41c-1.1,2.21 -1.44,3.31 -2.04,5.68 -3.05,11.86 3.16,13.54 4.77,24.47 1.55,10.56 -0.22,5.99 2.68,15.7 0.87,2.91 0.03,-0.34 0.43,1.58 0.43,2.06 1.33,8.18 0,11.69l-1.02 1.97c-0.11,0.22 -0.46,0.62 -0.59,0.99 5.58,-2.31 10.9,5.82 12.19,10.66l5.48 0c-2.71,-4.15 0.56,0.63 -2.39,-2.91 -0.29,-0.36 -1.19,-1.41 -1.49,-1.77 -4.06,-4.94 -7.25,-9.08 -8.25,-15.19 -1.04,-6.37 -3.89,-20.07 -2.91,-23.53 5.33,0.53 3.27,8.81 38.49,14.95 15.18,0.39 28.17,-2.71 41.2,-2.28 31.84,1.08 20.52,31.56 -0.53,39.03 -11.94,4.24 -25.29,3.7 -37.62,1.16 2.9,3.3 -1.02,1.52 7.33,3.19 7.51,1.52 13.99,-0.46 24.66,-0.46l-2.76 1.81c-0.22,0.17 -0.63,0.45 -0.88,0.63l-77.05 55.45c-6.24,4.52 -3.86,1.33 -13.66,9.18 -9.62,7.7 -12.87,0.08 -7.99,26.45l2.31 14.84c0.65,7.65 -0.43,8.97 6.41,10.41 -2.15,-8.36 -7.51,-34.75 -6.91,-42.64l33.69 21.23c18.52,10.87 28.13,17.86 50.37,27.41l15.91 6.89c7.73,3.89 5.78,4.8 16,5.98 9.39,-0.53 12.5,2.8 21.02,3.5 14.37,1.16 29.71,-0.74 37.56,-12.44 5.47,-8.12 0.76,-9.03 1.29,-18.82 1.27,-23.67 29.02,-38.58 49.82,-44.22 62.6,-16.96 120.71,20.26 80.47,62.28 -5.64,5.89 -0.7,3.1 -7.6,4.52 -5.22,-2.83 -2.76,1.64 -13.26,5.02 -10.69,3.45 -6.92,4.62 -13.35,6.47 -7.65,2.2 -0.06,-1.69 -15.5,4.27 -18.89,7.31 -23.59,17.55 -15.7,36.69l3.33 11.32c2.31,7.37 2.71,7.22 2.71,16.94l4.1 0c-1.46,-7.9 -5.98,-25.97 -5.61,-31.78 18.37,14.64 58.96,23.82 81.91,29.21 27.34,6.43 64.04,15.08 92.93,17.58 -0.67,-12.06 -7.71,-21.76 -1.97,-24.27 1.73,-10.59 2.73,-11.27 7.14,-17.8l2.32 -3.83c2.65,-4.37 3.33,-4.55 5.47,-10.01 3.81,-9.66 2.79,-6.37 7.64,-13.47l8.49 -14.43c4.35,-8.8 3.62,-4.89 8.33,-11.32 0.26,-0.37 0.99,-1.5 1.24,-1.89 10.11,-15.81 8.8,-10.84 15.83,-20.68 12.67,-17.7 34.58,-33.36 59.32,-27.23 8.39,2.09 12.62,6.68 16.14,13.89 14.16,28.99 71.1,34.49 108.83,13.38 5.03,-2.82 11.26,-9.32 14.95,-14 5.1,-6.5 6.85,-12.2 5.06,-23.15 -8.89,-2.25 -7.12,-6.35 -26.02,-11.72 -11.46,-3.27 -20.69,-4.18 -34.57,-3.48 -34.86,1.75 -38.1,8.8 -50.43,-23.97 -3.17,-3.61 -5.84,-12.48 -3.14,-19.51 2.83,-7.37 29.6,-31.94 35.42,-37.5l28.19 -22.02c4.71,-3.39 10.66,-6.97 14.4,-10.01 2.18,-1.78 3.87,-3.56 6.55,-5.48l7.08 -6.5c-2.93,-3.96 -9.83,-6.43 -15.32,-9.04 -6.33,-3.04 -8.52,-4.91 -16.01,-8.21 -6.44,-2.82 -11.97,-4.97 -18.23,-7.81 -6.47,-2.96 -10.22,-5 -16.91,-7.47 -23.94,-8.84 -49.06,-21.99 -78.51,-12.03 -4.18,3.96 -9.09,3.19 -10.13,10.87 -0.98,7.25 1.86,10.86 -0.05,19.42 -2.08,9.25 -12.28,18.69 -19.42,21.9 -3.42,3.95 -9.04,7 -15.91,8.19 -13.75,8.92 -41.83,7.2 -58.51,2.62 -8.77,-2.42 -16.14,-4.74 -22.22,-10.79 -6.46,-6.44 -10.24,-11.06 -11.91,-22.13 -1.84,-8.75 -9.8,-8.21 -4.68,-25.46 7.33,-24.63 41.43,-28.47 62.79,-38.18l-0.14 -5.84c-11.17,-3.67 -23.93,-8.92 -35.36,-11.58 -30.63,-7.14 -85.85,-18.43 -116.81,-21.17 -2.71,5.42 -0.94,4.69 -4.88,6.33z"/>
    <path class="fil5" d="M942.55 1540.82c19.3,9.77 23.31,15.64 53.43,15.29 18.79,-0.23 47.53,-9.42 47.9,16.48l-8.27 -1.36 8.6 3.64c-3.84,7.99 -9.8,13.75 -16.22,19.62l-72.56 56.82c-3.55,2.18 -12.76,5.58 -9.4,9.79l43.85 21.64c8.74,4.57 14.81,6.72 22.69,10.76 6.86,3.52 16.54,9.2 25.76,9.63 9.22,-0.08 12.56,3.78 20.6,6.69 7.23,2.6 13.85,5.02 20.86,6.8 16.87,4.32 34.79,1.13 42.61,-11.14 0.4,-8.01 -3.75,-11.15 -3.58,-19.84 0.37,-18.41 24.89,-34.26 38.52,-32.93 18.6,-0.29 46.23,-9.43 73.21,8.67 6.46,4.32 11.62,6.52 16,15.58 10.49,26.95 -15.77,43.1 -35.82,46.83 -10.7,1.98 -12.37,5.41 -19.44,10.69 -1.13,16.43 5.64,8.89 8.29,20.2 33.64,17.22 90.4,26.67 128.97,33.7 9.7,1.77 42.5,5.47 47.59,7.98 0.39,-5.71 0.99,-16.17 4.21,-19.95 2.83,-13.23 32.94,-91.64 55.1,-88.29l4.91 -0.29c39.77,-8.83 31.39,11.2 57.29,24.56 23.93,12.33 43.4,14.17 73.07,8.55 0.31,-0.12 3.73,-1.38 3.78,-1.39 3.28,-1.8 2.45,-1.33 3.31,-2.6 1.58,-4.29 -0.14,-1.42 3.62,-4.65 1.24,-1.05 3.64,-2.46 5.39,-4 2.32,-2.04 6.58,-6.27 8.6,-9.25 7.09,-10.42 3.14,-17.62 0.56,-28.59l1.83 -4.48c-5.75,-3.73 -8.53,-9.06 -14.26,-12.03 -4.31,-2.25 -5.79,-1.55 -10.36,-3.41 -4.27,-1.77 -4.8,-3.95 -10.72,-1.41 -34.69,-8.75 -37.94,-1.38 -57.83,-3.33 -13.68,-1.35 -35.7,-12.68 -25.04,-29.16 4.44,-6.85 8.78,-12.33 13.83,-18.17l11.24 -11.62c2.34,-2.52 0.85,-1.22 3.9,-3.93 0.34,-0.29 2.18,-1.8 2.52,-2.09 0.23,-0.19 0.57,-0.48 0.81,-0.68l30.57 -23.93c2.63,-3.55 1.15,-1.84 4.4,-5 0.54,-0.53 2.79,-2.37 3.33,-2.77 4.14,-2.97 5.1,-2.31 8.21,-5.92 -4.58,-3.22 -4.34,-1.53 -8.12,-6.1 -0.71,-2.18 -1.44,-2.68 -7.11,-5.02 -16.18,-6.69 -44.43,-20.01 -61.22,-25.65 -27.99,-9.39 -79.58,-31.3 -102.25,-7.4 0.31,3.78 0.56,4.54 1.27,7.88l1.42 4.79c4.51,13.3 -1.24,19.7 -10.59,26.65 -3.24,2.4 -8.97,5.17 -13.2,6.58 -17.47,5.82 -32.76,6.46 -50.38,2.73 -5.81,-1.24 -11.17,-3.55 -16.85,-1.42 -10.22,-2.49 -24.04,-11.94 -26.64,-22.86 -4.57,-19.24 6.33,-23.56 15.01,-30.8 4.21,3.98 0.87,0.4 2.23,5.05 3.93,13.44 12.36,21.84 13.58,29.61l4.96 -0.77c6.64,2.21 1.16,1.92 6.97,-0.43 0.09,-0.03 2.71,-1.47 3.05,-1.75 3.56,-2.73 1.07,0.25 3.69,-3.92l-13.71 3.36c-2.37,-14.74 -7.28,-10.16 -14.47,-29.26 7.4,-6.1 15.05,-10.01 28.5,-9.51 2.91,12.2 4.03,10.05 8.61,17.45 6.47,10.5 7.84,10.76 6.32,14.9l1.5 0c2.54,-4.34 -1.86,-0.68 3.08,-4.57 -2.74,-4.8 -5.98,-11.62 -9.71,-17.66 -11.38,-18.43 -5.1,-9 -12.85,-14 24.56,-15.22 -22.18,-27.4 -25.18,-29.01l-2.54 -1.77c-1.38,-2.77 -7.34,-3.53 -11.06,-4.18l-76.85 -14.54c-4.32,-0.84 -11,-0.79 -16.31,-1.97 -6.32,-1.39 -8.83,-3.17 -16.11,-0.96l-5.53 -0.42 -17.11 34.69c-1.36,2.4 -1.49,2.25 -3.02,4.43l-16.85 25.69c-4.89,5.53 -6.74,8.5 -12.08,13.86 -15.57,15.64 -45.05,15.74 -54.47,2.26 -20.34,-29.1 -79.75,-30.4 -112.21,-4.38 -0.25,0.19 -0.62,0.45 -0.84,0.65 -4.2,3.72 -6.47,12.92 -5.99,19.44 0.33,4.43 4.58,14.95 7.2,16.6z"/>
    <path class="fil6" d="M700.06 1431.37l-3.52 -10.69c8.58,1.6 8.64,6.68 31.07,4.52 26.38,-2.52 72.17,0.54 62.62,36.95l-9.03 -2.25c2.18,3.67 -0.03,2.34 4.57,3.44l0 3.04c-9.2,3.33 -11.88,19.82 -56.39,19.84 -17.76,0.02 -32.88,-2.68 -44.65,-13.24 -5.22,-4.66 -6.98,-4.48 -5.56,-11.17 -10.98,-2.56 -15.66,-11.63 -38.08,-4.57 -4.74,1.5 -1.5,0.74 -5.5,2.11 -8.5,2.91 -7.91,2.31 -17.81,9.62l-16.77 16.73c-1.18,1.39 -0.84,1.08 -2,2.57l-20.8 24.89c-0.19,0.26 -0.43,0.63 -0.6,0.91 -0.19,0.28 -0.4,0.68 -0.57,0.96l-17.7 24.94c-9.6,14 -6.72,11.04 -3.17,23.74 2.99,10.66 -0.91,2.03 -1.87,11.82 3.93,-1.64 2.17,-0.91 4.88,-6.33 1.39,-6.98 -0.99,-10.38 -2.35,-16.82 9.11,-0.74 114.96,21.96 134.68,28.16 7.54,2.35 22.6,7.11 24.18,17.27 0.91,5.99 -1.46,6.27 -4.2,9.99 -21.36,9.71 -55.46,13.55 -62.79,38.18 -5.13,17.25 2.83,16.71 4.68,25.46 5.02,2.74 5.39,5.33 12.78,9.04 5.14,2.6 11.35,5.23 16.35,6.24 16.05,3.21 25.85,1.47 40.86,1.73l0 -2.12 -0.17 0.12c11.43,-1.16 25.23,-7.16 33.95,-14.45l1.67 -1.39c0.22,-0.19 2.15,-1.67 2.49,-1.94 16.68,-12.93 8.32,-23.08 10.45,-34.54 1.56,-8.36 12.75,-14.25 22.19,-13.8 17.69,1.05 18.65,-2.71 43.83,7.31 12.89,5.11 24.89,9.82 37.79,15.33 24.22,10.35 48.37,23.51 74.28,33.33l-1.94 -7.36 -1.86 -7.85c-3.36,-4.21 5.85,-7.6 9.4,-9.79l72.56 -56.82c6.41,-5.87 12.37,-11.63 16.22,-19.62l-8.6 -3.64c-15.78,-3.33 -36.74,2.51 -57.71,-1.44 -13.75,-2.59 -31.67,-12.92 -35.36,-28.96 -2.62,-1.66 -6.88,-12.17 -7.2,-16.6 -0.48,-6.52 1.8,-15.72 5.99,-19.44 0.22,-0.2 0.59,-0.46 0.84,-0.65 32.46,-26.02 91.87,-24.72 112.21,4.38 9.42,13.47 38.9,13.38 54.47,-2.26 5.34,-5.36 7.19,-8.33 12.08,-13.86l16.85 -25.69c1.53,-2.18 1.66,-2.03 3.02,-4.43l17.11 -34.69 5.53 0.42c-1.39,-1.58 1.16,-2.73 -9.14,-2.73 -0.25,11.17 -2.01,1.24 -4.57,12.19 -8.5,0 -57.8,-9.26 -66.41,-11.26 -8.52,-1.98 -16.85,-1.97 -21.91,-5.5l-12.19 0c3.59,-4.91 6.68,-5.73 12.19,-4.55l-3.04 -3.05 4.4 -6.1c-7.95,-21.73 -6.89,-26.17 -19.05,-26.69 4.37,-3.1 3.87,-3.7 6.95,-6.83 13.29,-13.44 10.83,-15.3 6.16,-30.43 2.23,-4.1 2.18,-1.67 -3.58,-5.45 -9.8,-6.43 -24.21,-10.21 -39.01,-11.31l-18.41 0c-11.15,0.85 -21.5,3.31 -29.1,7.37 -29.98,15.98 -19,18.03 -21.06,42.89 -6.83,0.56 -18.29,9.32 -43.58,0.93l-96.22 -37.79c-18.65,-8.56 -19.68,-2.09 -27.29,2.26l-48.46 29.21c-2,1.77 -1.92,2.08 -2.2,2.37l-2.43 2.14c-0.28,0.19 -0.67,0.4 -0.96,0.57 -13.43,7.88 -30.2,25.4 -33.19,26.19 0,11.03 -0.48,12.48 2.71,21.2l2.09 4.68c3.56,4.07 0.02,0.46 3.92,3.07z"/>
    <path class="fil7" d="M971.15 2051.66l0.71 0.26c0.63,9.7 2.8,7.7 5.73,16.23l2.43 6.66c2.93,5.67 6.6,15.78 7.23,22.91l4.51 -0.17c11.52,0.46 17.05,-1.94 29.75,0.99 5.65,1.3 18.46,5.02 22.7,9 -0.54,6.52 -1.66,2 11.72,6.97 7.47,2.77 3.44,2.96 13.03,6.78l27.78 11.82c5.22,2.8 1.18,3.17 12.62,7.17 0.65,0.22 2.82,0.98 3.36,1.22l28.08 16.18c5.31,3.13 2.06,2.93 7.4,1.64 7.25,1.69 10.42,3.59 16.4,7.76 5.7,3.95 9.73,6.1 15.92,7.5 -1.22,-8.3 -6.23,-16.87 -9.51,-24.33 -2.17,-4.94 -8.16,-18.83 -9.29,-23.91 -8.35,-3.56 -16.23,-7.57 -23.59,-11.71 -4.14,-2.32 -6.74,-2.73 -11.31,-5.42 -4.23,-2.48 -6.57,-3.78 -10.84,-5.82 -7.48,-3.58 -15.26,-8.13 -22.22,-11.14 -7.34,-3.16 -14.26,-7.64 -22.32,-11.51 -16.34,-7.87 -29.83,-14.54 -46.93,-21.61 -31.94,-13.16 -27.96,-11.27 -53.39,-7.48z"/>
    <path class="fil8" d="M530.98 1965.91c-2.43,4.27 -2.15,2.35 -2.59,7.62 3.7,1.33 3.96,3.35 6.6,7.09l1.98 2.6c3.64,3.72 11.24,5.37 15.64,7.19l4.23 1.86c8.55,3.05 6.46,-0.45 14.82,4.97 2.25,1.46 0.94,1.15 3.89,2.21 1.53,0.56 4.68,0.96 6.35,1.27l26.7 6.81c9.25,4.03 9.68,1.41 16.76,3.04 4.35,0.99 -0.81,-0.33 4.41,1.66l28.02 7.03c12.84,0.68 8.55,0.88 16.31,3.47 4.37,1.46 13.61,2.91 18.77,1.46l22.16 3.81c-1.07,-11.01 -4.55,-12.47 -6.12,-21.93l4.55 -0.26c-3.86,-2.8 -1.18,0.57 -3.84,-3.33l-2.15 -5.95c-2.54,-10.84 -7.22,-20.86 -8.98,-36.98l-0.25 -2.9c-5.75,2.51 1.3,12.2 1.97,24.27 -28.88,-2.49 -65.59,-11.15 -92.93,-17.58 -22.95,-5.39 -63.55,-14.57 -81.91,-29.21 -0.37,5.81 4.15,23.88 5.61,31.78z"/>
    <path class="fil7" d="M713.47 2005.8l17.28 4.27c4.17,0.08 5.98,1.64 9.56,2.8l31.72 6.37c4.14,0.15 3.02,-0.2 6.81,0.79 0.05,0 3.07,1.1 3.35,1.22l3.1 1.47c5.81,2.35 19.93,4.82 27.26,6.26 22.98,4.51 19.45,8.86 28.05,5.45 12.95,1.41 20.78,7.76 30.53,1.49 8.94,-5.76 13.29,-15.74 4.93,-24.7l-5.92 -4.77c-1.56,-1.12 -3.7,-2.59 -5.44,-3.48 -18.41,-9.62 -83.25,-25.26 -102.96,-29.26 -11.49,-2.34 -18.29,-5.42 -30.9,-7.73 -11.03,-2 -21.57,-4.91 -32.34,-6.44 1.77,16.12 6.44,26.14 8.98,36.98l2.15 5.95c2.66,3.9 -0.02,0.53 3.84,3.33z"/>
    <path class="fil9" d="M1176.18 2112.23c9.85,3.42 4.77,-0.7 12.64,-4.23 3.11,-1.39 0.22,-0.37 5.1,-1.49 0.31,0.42 0.63,0.56 0.76,1.33l1.81 3.83c0.59,1.58 1.07,4.03 1.44,5.56 3.08,0 8.47,-0.65 11.14,0.46 6.2,2.54 4.15,3.14 4.15,11.15l3.7 1.42c2.57,2.08 3.81,6.69 3.67,7.76 -1.15,8.84 -10.21,10.95 -11.4,11.96 -10.02,8.47 3.92,-6.61 -2.32,2.88l-9.01 8.74c-4.66,4.43 -3.02,1.87 -3.93,8.36 7.88,-2.62 15.01,-9.87 20.23,-16.35l5.92 -5.39c6.37,-8.02 4.46,-4.24 14.84,-14.95 0.22,-0.22 0.53,-0.54 0.76,-0.76 0.22,-0.22 0.56,-0.51 0.81,-0.71l15.5 -14.95c5.3,-6.85 -2.54,2.21 1.92,-2.66 3.17,-3.47 -0.09,0 3.33,-2.76 3.61,-2.91 2.76,-2.62 5.31,-5.36l30.39 -37.26c0.09,-0.15 0.31,-0.54 0.39,-0.7 0.17,-0.31 0.9,-1.94 1.04,-2.31 2.23,-5.65 1.67,-11.4 -0.91,-18.2 -0.14,-0.34 -0.31,-0.73 -0.46,-1.07 -0.14,-0.33 -0.34,-0.7 -0.48,-1.02l-9.7 -22.3c-0.5,-1.01 -1.36,-2.59 -1.56,-2.99 -0.19,-0.37 -0.82,-1.69 -0.99,-2.06l-4.46 -9.25c-0.17,-0.29 -0.42,-0.65 -0.59,-0.93 -3.75,-6.4 -4.15,-11.17 -6.12,-13.69 -5.06,-6.46 -8.98,-1.86 -11.18,-10.13l-10.66 0c5.41,5.27 11.32,5.78 15.87,10.18 16.06,15.61 -3.41,30.68 -15.46,45.53l-16.03 16.91c-0.22,0.19 -0.59,0.46 -0.82,0.65 -0.23,0.17 -0.6,0.43 -0.84,0.62l-29.98 29.6c-6.15,6.52 -21.17,18.06 -23.79,24.56z"/>
    <path class="fil8" d="M287.05 1871.48c0.4,4.88 2.28,3.95 6.43,6.46l17.62 11.32c0.34,0.15 0.79,0.25 1.15,0.39l8.55 5.16c10.61,6.68 19.87,8.87 30.63,16.63 4.66,3.36 3.9,3.08 9.43,1.83 7.91,2.57 11.09,5.87 20.15,9.63 6.2,2.59 11.82,6.1 18.66,8.36 15.91,5.23 25.21,11.21 45.75,6.72 0.91,-6.37 -3.48,-35.78 -9.06,-42.06 -19.79,-1.81 -22.81,2.37 -40.27,-5.56 -10.22,-1.18 -8.27,-2.09 -16,-5.98l-15.91 -6.89c-22.24,-9.56 -31.84,-16.54 -50.37,-27.41l-33.69 -21.23c-0.6,7.88 4.75,34.27 6.91,42.64z"/>
    <path class="fil9" d="M1347.73 1978.09l7.6 0c0.11,-0.23 0.11,-0.91 0.12,-0.74l18.48 -24.92c1.69,-2.96 1.39,-2.65 2.15,-6.06 1.38,-6.15 -0.51,-1.53 4.44,-8.5 2.51,-3.56 0.03,1.05 2.87,-4.82l22.49 -56.55c4.65,-15.13 9.37,-10.45 4.62,-22.01 -0.06,-0.19 -2.6,-5.03 -2.65,-5.08 -2.26,-3.78 -5.37,-6.47 -6.37,-10.52 -1.53,-6.35 2.93,-13.6 5.62,-14.64 -0.98,-3.69 -0.14,-1.89 -3.04,-4.88 -0.62,2.43 -5.22,13.18 -6.46,15.1 -7,-5.3 -5.19,-13.54 -13.03,-17.18l-16.4 38.6c-0.15,0.34 -0.34,0.74 -0.5,1.08 -0.14,0.34 -0.33,0.73 -0.48,1.07l-19.61 41.03c-4.85,10.47 -12.27,22.52 -21.08,30.26l2.01 1.12c9.29,5.06 6.57,7.09 13.2,22.05 5.02,11.34 11.71,13.23 8.46,21.71l-2.46 3.86z"/>
    <path class="fil7" d="M1206.66 1939.3c8.3,0.81 16.8,-1.1 25.32,-0.82 4.14,0.12 8.19,0.57 12.28,1.02 6.02,0.67 7.43,0.71 10.56,3.56 1.41,4.43 11.1,5.1 16,6.85 4.51,1.61 2.52,1.22 3.87,2.21l11.31 8.49c10.45,9.73 0.63,8.77 17.75,20.4 3.87,2.63 4.89,3.86 10.47,1.66 5.5,0.03 11.76,0.84 16.99,-0.36 2.77,-0.63 7.98,-3.41 11.1,-4.31 -4.48,-2.96 -0.46,-3.89 -5.33,-15.1 -0.15,-0.34 -0.34,-0.73 -0.5,-1.05 -0.14,-0.31 -0.34,-0.71 -0.5,-1.02 -3.21,-6.89 -9.49,-18.93 -14.17,-23.82 -16.34,0.12 -26.13,2.21 -39.31,-5 -5.53,-3.04 -6.86,-7.08 -11.07,-11.68 -31.15,-34.12 -77.1,-20.16 -83.66,-22.94 1.08,6.63 -0.17,1.32 0.77,4.85l11.51 23.57c4.68,3.38 0.62,0.14 2.2,0.5l0.39 12.73 4.01 0.26z"/>
    <path class="fil10" d="M1440.35 1687.83c6.1,3.58 0.56,-0.6 4.23,4.71 2.66,3.83 -0.6,0.46 3.14,4.38 10.24,10.69 4.68,7.43 9.74,13.1 2.09,2.32 0.88,0.7 2.37,2.15 3.87,3.76 5.19,6.1 6.43,11.41 13.04,-0.85 23.8,-1.55 30.31,7.79l13.55 15.78c22.15,16.37 46.73,16.91 73.64,14.68 6.29,-4.85 5.47,0.73 11.72,-6.54 -8.01,-3.11 -3.05,1.61 -7.29,-7.08 -0.15,-0.33 -0.33,-0.74 -0.48,-1.05 -1.13,-2.25 -0.26,-0.71 -1.63,-2.93l-8.15 -14.7c-0.5,-0.98 -2.28,-4.86 -2.46,-5.14 -2.54,-3.44 -0.02,-2.12 -4.77,-3.47 -29.67,5.62 -49.14,3.78 -73.07,-8.55 -25.9,-13.37 -17.52,-33.39 -57.29,-24.56z"/>
    <path class="fil11" d="M396.1 1890.36c17.45,7.93 20.47,3.75 40.27,5.56 0.33,-0.31 0.87,-1.18 1.07,-0.85l4.48 -2.52c2.25,-0.85 5.37,-1.22 7.29,-1.83 2.77,3.89 11.43,31.05 8.89,41.69l-12.67 5.58c-20.54,4.49 -29.84,-1.49 -45.75,-6.72 -6.85,-2.26 -12.47,-5.78 -18.66,-8.36 -9.06,-3.76 -12.24,-7.06 -20.15,-9.63 0,5.51 -0.33,3.39 5.2,6.4 5.76,3.13 -4.79,-2.32 2.09,0.91l20.83 9.59c2.23,1.64 0.36,0.54 2.76,1.83 0.03,0.02 3.08,1.3 3.21,1.35 3.31,1.35 1.69,0.74 4.41,1.69 20.51,7.11 48.15,12.19 66.69,-2.51 4.34,-3.44 6.47,-8.32 7.03,-14.14 2.14,-22.83 -1.44,-32.09 30.71,-48.63 10.5,-5.39 18,-7.19 31.94,-9.2 17.81,-2.57 22.27,1.52 37.67,1.81 -10.42,-8.55 -36.71,-4.57 -48.63,-2.8 -2.79,1.52 -29.61,10.05 -32.46,10.11 -0.51,-24.16 -7.64,-27.18 -5.78,-38.97 6.12,-4.35 14.59,-9.12 24.35,-10.66 20.85,-5.84 45.53,-3.83 62.76,4.58 14.9,7.29 30.82,26.28 17.19,43.68 -4.52,-2.82 -2.54,-2.4 -7.6,-3.78 3.48,7.14 5.9,12.14 -4.57,14.57l0 6.09c6.91,-1.42 1.97,1.36 7.6,-4.52 40.24,-42.02 -17.87,-79.23 -80.47,-62.28 -20.8,5.64 -48.55,20.55 -49.82,44.22 -0.53,9.79 4.18,10.7 -1.29,18.82 -7.85,11.69 -23.18,13.6 -37.56,12.44 -8.52,-0.7 -11.63,-4.03 -21.02,-3.5z"/>
    <path class="fil9" d="M898.92 2140.44c6.29,-1.18 7.59,-2.52 13.27,-2.01 2.31,-3.31 15.84,-7.37 21.3,-8.3 6.86,9.32 9.34,24.27 11.45,35 1.6,8.15 3.72,1.3 2.63,12.47 -3.69,2.82 -10.78,6.43 -15.1,7.87 -3.14,1.35 -5.37,2.25 -8.18,4.32 2.48,0 4.99,0.2 7.4,-0.29 0.42,-0.08 0.81,-0.2 1.21,-0.31l23.73 -12.82 18.48 -25.68c0.74,-2.17 0.37,-0.77 0.98,-3.61l0.22 -19.89c-1.24,-7.16 2.04,-3.81 -3.21,-5.93l0 -4.57c7.54,-3.05 -0.22,-6.98 11.01,-11.83 22.63,-9.76 49.3,2.51 60.12,2.69 -4.24,-3.98 -17.05,-7.7 -22.7,-9 -12.7,-2.93 -18.23,-0.53 -29.75,-0.99l-12.59 4.74c-4.91,-6.16 -5.68,-13.68 -8.69,-22.32l-6.1 -15.3c-0.12,-0.36 -0.31,-0.73 -0.42,-1.08 -1.15,-3.53 -0.93,-2.09 -1.1,-6.3 2.57,-2.18 5.75,-4.1 9,-5.36l-0.71 -0.26c-3.69,-2.35 -9.56,1.41 -13.16,4.2 -15.86,12.24 3.25,27.43 -11.15,49.9 -14.42,22.49 -28.5,23.97 -41.37,29.98 -0.06,0.03 -3.02,1.69 -3.22,1.83 -1.1,0.74 -1.98,2.17 -2.21,1.83 -0.22,-0.33 -0.77,0.67 -1.12,1.04z"/>
    <path class="fil12" d="M1380.33 1776.41c-1.18,9.82 -0.94,2.18 2.42,4.99 3.79,-4.4 4.17,-5.08 6.27,-10.87 2.28,-6.3 1.78,-7.06 5.9,-10.9 8.07,1.33 -0.12,-1.27 11.68,7.77l1.41 1.21c2.01,1.94 0.25,0.43 2.03,2.35l5.5 6.1c-0.23,2.45 -4.99,21.36 -5.28,22.04 -5.41,12.84 6.1,-8.07 -2.28,3.36 -1.73,2.35 -0.91,-0.22 -2.6,3.93 -1.83,4.46 -1.3,6.83 -1.3,12.99 4.1,-2.63 3.83,-4.58 7.87,-12.06l9.15 -22.4c0.19,-0.37 0.76,-1.32 0.91,-1.66l7.57 -17.58c0.08,-0.2 0.17,-0.65 0.25,-0.84l12.51 -20.64c7.84,-18.74 33.17,-20.57 54.22,-12.84 -6.5,-9.34 -17.27,-8.64 -30.31,-7.79 -7.76,1.56 -11.72,4.46 -17.56,5.79l-14.76 -26.42c-2.18,-3.53 -3.45,-4.65 -4.85,-8.13 2.12,-3.84 2.93,-3.31 6.35,-6.71 -22.16,-3.35 -52.27,75.07 -55.1,88.29z"/>
    <path class="fil12" d="M1542.46 1556.23l-30.57 23.93c-0.23,0.2 -0.57,0.5 -0.81,0.68 -0.34,0.29 -2.18,1.8 -2.52,2.09 -3.05,2.71 -1.56,1.41 -3.9,3.93l-11.24 11.62c-5.05,5.84 -9.39,11.32 -13.83,18.17 -10.66,16.48 11.37,27.82 25.04,29.16 19.89,1.95 23.14,-5.42 57.83,3.33 -0.99,-2.35 -0.84,-3.81 -8.43,-5.36 -17.21,-3.53 -23.05,-1.92 -37.26,-0.73 2.29,-4.34 1.36,-2.83 4.31,-6.37l2.09 -2.48c0.2,-0.23 0.5,-0.59 0.7,-0.81 0.84,-0.88 2.21,-2.12 3.16,-2.94l3.9 -3.72c5.62,-6.74 11.55,-10.67 18.8,-16.15l4.04 -3.64c5.78,-5.25 7.31,-4.62 8.69,-12.62l-3.79 1.78c-0.4,0.22 -2.74,1.61 -3.13,1.89l-10.47 9.12c-1.69,1.24 -1.25,0.76 -2.62,1.84 -1.35,1.08 -1.61,1.08 -2.83,2.69l-2.29 -8.89c-2.52,-9.45 1.6,-2.37 -5.22,-6.86 3.86,-1.69 1.58,0.94 2.6,-3.35 1.95,-8.18 -6.92,-15.78 -0.82,-22.19 4.55,-4.8 10.24,-7.02 14.19,-13.21 2.31,-3.66 0.46,0.45 2.79,-5.48l-8.39 4.55z"/>
    <path class="fil7" d="M843.63 2177.59c8.8,0.29 7.79,2.23 12.48,5.47 9.35,6.44 36.86,7.77 49.58,6.89l-5.19 -24.66c-1.13,-3.35 -0.93,-2.51 -2.29,-5.37 -2.83,-5.93 -4.66,-8.52 -4.75,-16.48l-5.11 -1.02c-13.77,-1.47 -29.02,0.2 -41.63,-4.29 -18.37,-6.54 -22.22,-14.59 -30.11,-17.78 1.04,9.9 7.77,23.56 10.61,33 4.34,14.47 8.22,14.3 16.42,24.24z"/>
    <path class="fil8" d="M510.87 1820.04c-3.9,13.71 8.05,26.19 8.15,39.37l5.75 0.14c11.93,-1.77 38.21,-5.75 48.63,2.8 3.21,2.26 5.23,2.9 9.82,2.17 5.06,1.38 3.08,0.96 7.6,3.78 13.63,-17.39 -2.29,-36.38 -17.19,-43.68 -17.22,-8.41 -41.91,-10.42 -62.76,-4.58z"/>
    <path class="fil10" d="M1384.98 1815.43c-2.91,-7.31 -4.68,-13.13 -8.86,-19.07 -5.1,-2.51 -37.9,-6.21 -47.59,-7.98 -38.56,-7.03 -95.33,-16.48 -128.97,-33.7 3.02,27.75 52.47,34.18 81.36,40.61l104.06 20.13z"/>
    <path class="fil13" d="M700.06 1431.37c-1.08,4.93 -0.29,14.2 4.27,19.14 11.82,12.82 43.83,3.93 64.32,7.11 4.07,0.62 7.33,2.42 12.54,2.29l9.03 2.25c9.56,-36.41 -36.24,-39.48 -62.62,-36.95 -22.43,2.15 -22.49,-2.93 -31.07,-4.52l3.52 10.69z"/>
    <path class="fil10" d="M947.89 1668.95c3.78,2.23 0.87,-0.82 3.61,3.62 1.73,2.79 0.6,0.45 1.78,5.3 2.29,1.81 14.79,7.82 18.07,9.29 31.07,13.81 72.99,35.95 104.62,45.19 13.92,4.09 35.98,11.31 50.64,-0.06 0.02,-8.27 -1.73,-7.19 -6.12,-16.01 -8.08,0.08 -12.78,2.49 -20.97,2.88 -18.63,0.85 -48.63,-7.73 -61.21,-16.03 -9.22,-0.43 -18.89,-6.12 -25.76,-9.63 -7.88,-4.04 -13.95,-6.2 -22.69,-10.76l-43.85 -21.64 1.86 7.85z"/>
    <path class="fil14" d="M1176.18 2112.23c-5.14,1.38 -11.14,9.94 -14.43,14.11 1.13,5.08 7.12,18.97 9.29,23.91 3.28,7.47 8.29,16.03 9.51,24.33 -6.2,-1.39 -10.22,-3.55 -15.92,-7.5 -5.98,-4.17 -9.15,-6.07 -16.4,-7.76l8.27 7c6.24,4.68 4.26,2.28 9.17,4.48 1.07,0.48 22.81,20.04 28.25,-0.84 0.91,-6.49 -0.73,-3.93 3.93,-8.36l9.01 -8.74c6.24,-9.49 -7.7,5.59 2.32,-2.88 1.19,-1.01 10.25,-3.11 11.4,-11.96 0.14,-1.07 -1.1,-5.68 -3.67,-7.76l-3.7 -1.42c0,-8.01 2.04,-8.61 -4.15,-11.15 -2.66,-1.12 -8.05,-0.46 -11.14,-0.46 -0.37,-1.53 -0.85,-3.98 -1.44,-5.56l-1.81 -3.83c-0.12,-0.77 -0.45,-0.91 -0.76,-1.33 -4.88,1.12 -1.98,0.09 -5.1,1.49 -7.87,3.53 -2.79,7.65 -12.64,4.23z"/>
    <path class="fil15" d="M559.15 1569.19c30.96,2.74 86.17,14.03 116.81,21.17 11.43,2.66 24.19,7.91 35.36,11.58l0.14 5.84c2.74,-3.72 5.11,-4 4.2,-9.99 -1.58,-10.16 -16.63,-14.91 -24.18,-17.27 -19.72,-6.2 -125.57,-28.9 -134.68,-28.16 1.36,6.44 3.75,9.83 2.35,16.82z"/>
    <path class="fil15" d="M791.49 1641.35c29.44,-9.96 54.56,3.19 78.51,12.03 6.69,2.46 10.44,4.51 16.91,7.47 6.26,2.83 11.79,4.99 18.23,7.81 7.5,3.3 9.68,5.17 16.01,8.21 5.48,2.62 12.39,5.08 15.32,9.04 2.76,-0.84 4.31,-1.81 7.14,-3.58 1.01,-0.63 3.3,-2.12 4,-2.46 3.89,-1.84 0.54,-0.81 5.67,-2 -1.18,-4.85 -0.05,-2.51 -1.78,-5.3 -2.74,-4.44 0.17,-1.39 -3.61,-3.62l1.94 7.36c-25.91,-9.82 -50.06,-22.98 -74.28,-33.33 -12.9,-5.51 -24.9,-10.22 -37.79,-15.33 -25.18,-10.02 -26.14,-6.26 -43.83,-7.31l-9.99 5.96c0.23,5.11 0.4,2.04 1.13,4.12l0.85 2.14c0.17,0.46 0.7,1.84 0.87,2.29 2.34,6.18 -0.39,5.02 4.71,6.5z"/>
    <path class="fil9" d="M1164.96 1978.08c0,-12.73 2.17,-10.58 5.5,-14.31l6.55 -5.61c14.51,-9.35 -0.19,-2.4 18.41,-10.53 24.35,-10.62 34.75,-4.57 59.4,-4.57 -3.13,-2.85 -4.54,-2.9 -10.56,-3.56 -4.09,-0.45 -8.15,-0.9 -12.28,-1.02 -8.52,-0.28 -17.02,1.63 -25.32,0.82 -5.59,3.75 -20.51,7.39 -27.99,11.09 -2.91,-3.83 -0.6,-1.64 -2.43,-5.06l-4.62 -7.43c-0.15,-0.33 -0.31,-0.74 -0.46,-1.08 -0.14,-0.34 -0.28,-0.77 -0.42,-1.12 -4.49,-10.33 -4.8,-8.38 -9.14,-22.66l-0.65 -3.47c4.48,-3 7.25,-6.13 13.55,-6.55 -2.37,-4.32 7.42,-5.62 -7.33,-2.65 -0.26,0.05 -6.21,3.13 -6.46,3.27 -12.9,7.6 -21.08,15.92 -24.19,30.77 -4.04,19.2 14.14,41.01 28.44,43.68z"/>
    <path class="fil16" d="M1542.46 1556.23l8.39 -4.55c-2.32,5.93 -0.48,1.83 -2.79,5.48 -3.95,6.2 -9.63,8.41 -14.19,13.21 -6.1,6.41 2.77,14.02 0.82,22.19 -1.02,4.29 1.25,1.66 -2.6,3.35 6.81,4.49 2.69,-2.59 5.22,6.86l2.29 8.89c1.22,-1.61 1.49,-1.61 2.83,-2.69 1.36,-1.08 0.93,-0.6 2.62,-1.84l10.47 -9.12c0.39,-0.28 2.73,-1.67 3.13,-1.89l3.79 -1.78 4.48 1.83c1.41,-2.28 2.06,-3.64 4.17,-5.39 2.42,-1.98 11.96,-8.07 15.72,-13.21 -1.01,-4.35 -0.85,-3.08 -2.93,-6.21l-1.94 -2.63c-4.77,-6.94 -15.32,-25.71 -18.69,-28.48 -0.77,-0.63 -2.18,-1.64 -2.62,-1.87 -3.55,-1.81 -5.23,-1.92 -10.36,-1.92 3.78,4.57 3.53,2.88 8.12,6.1 -3.11,3.61 -4.07,2.94 -8.21,5.92 -0.54,0.4 -2.79,2.25 -3.33,2.77 -3.25,3.16 -1.77,1.46 -4.4,5z"/>
    <path class="fil17" d="M912.19 2138.42c-5.68,-0.51 -6.98,0.84 -13.27,2.01l-10.58 1.98 5.11 1.02c0.09,7.96 1.92,10.55 4.75,16.48 1.36,2.87 1.16,2.03 2.29,5.37l5.19 24.66c-12.72,0.88 -40.22,-0.45 -49.58,-6.89 -4.69,-3.24 -3.69,-5.17 -12.48,-5.47 0.84,5.75 -1.3,0.56 1.6,4.51 1.84,2.51 -0.39,0.26 3.41,2.68 1.15,0.74 2.65,1.58 3.83,2.28 7.23,4.29 4.65,1.07 15.13,4.66 0.36,0.12 0.73,0.31 1.1,0.42l2.35 0.7c3.38,0.85 7,1.3 10.7,1.52l34.15 0c3.9,-0.45 7.28,-1.66 8.39,-4.57 2.8,-2.08 5.03,-2.97 8.18,-4.32 3.11,-5.1 -0.94,-1.47 3.92,-4.14l-8.18 -24.64c-0.14,-0.29 -0.36,-0.68 -0.51,-0.96l-1.15 -1.78c-11.15,-16.65 -5.2,-15.7 -9.82,-16.43 -3.93,3.61 -4.46,0.91 -4.54,0.91z"/>
    <path class="fil8" d="M322.19 1740.51c0.67,2.39 -1.33,2.37 3.72,4.54 3.67,1.58 3.69,1.33 7.54,0.03 19.67,3.52 16.37,6.81 32.79,3.64l-3.14 -17.14c-1.1,-9.99 -4.37,-3.92 -1.63,-15.63 -2.26,-0.29 -5.96,-0.6 -7.96,-0.94 -2.2,-0.37 -2.14,-0.29 -4.01,-0.91l-3.86 -2.03c-35.22,-6.13 -33.16,-14.42 -38.49,-14.95 -0.98,3.45 1.87,17.16 2.91,23.53 1.01,6.12 4.2,10.25 8.25,15.19 0.29,0.36 1.19,1.41 1.49,1.77 2.94,3.55 -0.33,-1.24 2.39,2.91z"/>
    <path class="fil7" d="M958.99 1826.11c-1.73,-7.99 -9.68,-17.05 -16.11,-21.87 -28.59,-21.48 -65.85,-8.72 -82.01,-12.72 -6.69,-1.66 -8.98,-5.2 -12.9,-4.6 12.33,32.77 15.57,25.72 50.43,23.97 13.88,-0.7 23.11,0.22 34.57,3.48 18.89,5.37 17.13,9.48 26.02,11.72z"/>
    <path class="fil16" d="M1380.33 1776.41c-3.22,3.78 -3.83,14.23 -4.21,19.95 4.18,5.93 5.95,11.76 8.86,19.07l-0.39 1.89c7.84,3.64 6.02,11.88 13.03,17.18 1.24,-1.92 5.84,-12.67 6.46,-15.1 0,-6.16 -0.53,-8.53 1.3,-12.99 1.69,-4.15 0.87,-1.58 2.6,-3.93 8.38,-11.43 -3.13,9.48 2.28,-3.36 0.29,-0.68 5.05,-19.59 5.28,-22.04l-5.5 -6.1c-1.78,-1.92 -0.02,-0.42 -2.03,-2.35l-1.41 -1.21c-11.8,-9.04 -3.61,-6.44 -11.68,-7.77 -4.12,3.84 -3.62,4.6 -5.9,10.9 -2.11,5.79 -2.48,6.47 -6.27,10.87 -3.36,-2.8 -3.59,4.83 -2.42,-4.99z"/>
    <path class="fil18" d="M345.64 1712.06l3.86 2.03c1.87,0.62 1.81,0.54 4.01,0.91 2,0.34 5.7,0.65 7.96,0.94 -2.74,11.71 0.53,5.64 1.63,15.63l3.14 17.14c-16.42,3.17 -13.12,-0.12 -32.79,-3.64 0.09,0.23 0.63,3.52 1.53,4.57 6.15,0.14 7.6,2.18 13.71,0.33 12.33,2.54 25.68,3.08 37.62,-1.16 21.05,-7.47 32.37,-37.94 0.53,-39.03 -13.03,-0.43 -26.02,2.66 -41.2,2.28z"/>
    <path class="fil12" d="M1577.8 1716.94l14.96 -5.34c2.71,3.86 2.87,6.26 5.2,10.14l10.58 13.8c1.75,2.09 2.73,3.39 3.44,5.64 2.56,7.99 0.03,8.22 -3.84,13.04l12.79 -7c10.35,-11.29 2.43,-13.4 11.57,-15.84 -7,-14.6 4.46,-5.61 -11.88,-29.24l-6.01 -9.22c-2.62,-3.93 -2.12,-4.54 -4.17,-8.02 -5.68,-9.71 -8.7,0.26 -9.93,-14.43l-4.55 0c2.59,10.97 6.54,18.17 -0.56,28.59 -2.01,2.97 -6.27,7.2 -8.6,9.25 -1.75,1.53 -4.15,2.94 -5.39,4 -3.76,3.22 -2.04,0.36 -3.62,4.65z"/>
    <path class="fil10" d="M1035.61 1571.22l8.27 1.36c-0.37,-25.9 -29.12,-16.71 -47.9,-16.48 -30.12,0.36 -34.13,-5.51 -53.43,-15.29 3.69,16.05 21.61,26.38 35.36,28.96 20.97,3.95 41.92,-1.89 57.71,1.44z"/>
    <path class="fil19" d="M1174.5 1903.01c-6.3,0.42 -9.08,3.55 -13.55,6.55l0.65 3.47c4.34,14.28 4.65,12.33 9.14,22.66 0.14,0.34 0.28,0.77 0.42,1.12 0.15,0.34 0.31,0.76 0.46,1.08l4.62 7.43c1.83,3.42 -0.48,1.24 2.43,5.06 7.48,-3.7 22.4,-7.34 27.99,-11.09l-4.01 -0.26 -0.39 -12.73c-1.58,-0.36 2.48,2.88 -2.2,-0.5l-11.51 -23.57c-0.94,-3.53 0.31,1.78 -0.77,-4.85 -7.62,2.15 -7.2,3.95 -13.27,5.62z"/>
    <path class="fil15" d="M745.99 1701.73c-14.09,0.46 -12.2,2.88 -15.38,-8.01 -0.81,-2.76 -0.82,-1.08 -1.01,-5.1l-6.27 -0.19c-15.01,-0.26 -24.81,1.47 -40.86,-1.73 -5,-1.01 -11.21,-3.64 -16.35,-6.24 -7.39,-3.72 -7.76,-6.3 -12.78,-9.04 1.67,11.07 5.45,15.69 11.91,22.13 6.09,6.06 13.46,8.38 22.22,10.79 16.68,4.58 44.76,6.3 58.51,-2.62z"/>
    <path class="fil20" d="M1157.33 1652.71l0.09 0.5 4.41 17.67c13.57,-1.44 15.58,-7.08 45.72,-4.31 13.15,1.19 26.08,7.79 36.61,13.1 4.12,-2.18 0.7,1.02 2.37,-2.71 -4.38,-9.06 -9.54,-11.26 -16,-15.58 -26.98,-18.11 -54.61,-8.97 -73.21,-8.67z"/>
    <path class="fil12" d="M1038.32 1703.13c12.58,8.3 42.58,16.88 61.21,16.03 8.19,-0.39 12.89,-2.8 20.97,-2.88 4.38,8.83 6.13,7.74 6.12,16.01l5.36 -1.94c4.52,-17.49 -3.64,-14.36 -1.21,-31.01 1.24,-8.53 10.52,-18.8 17.08,-21.39l-2.54 -6.2c-3.1,-5.54 -3.45,-3.93 -3.42,-10.44 4.88,-3.53 8.84,-6.52 15.53,-8.12l-0.09 -0.5c-13.63,-1.33 -38.15,14.51 -38.52,32.93 -0.17,8.69 3.98,11.83 3.58,19.84 -7.82,12.27 -25.74,15.46 -42.61,11.14 -7.02,-1.78 -13.63,-4.2 -20.86,-6.8 -8.04,-2.91 -11.38,-6.77 -20.6,-6.69z"/>
    <path class="fil21" d="M1058.38 1413.09l6.09 0c1.36,-2.04 0.85,-1.39 2.79,-3.3l7.62 -6.09c4.06,-3.47 1.01,0.25 3.55,-4.07 3.16,-5.41 4.23,-13.52 1.33,-20.1 -0.14,-0.34 -0.37,-0.7 -0.51,-1.01l-15.1 -28.98c-2.11,-5.27 -3.27,-5.79 -7.29,-6.5 4.66,15.13 7.12,16.99 -6.16,30.43 -3.08,3.13 -2.59,3.73 -6.95,6.83 12.16,0.51 11.1,4.96 19.05,26.69l-4.4 6.1z"/>
    <path class="fil21" d="M723.33 1686.32c14.95,-0.51 23.43,-5.85 34.1,-5.9 0.36,2.9 0.68,4.41 1.08,5.98 0.11,0.39 1.05,3.31 1.21,3.64 1.94,4.21 -1.27,0 2.17,3.5 7.14,-3.21 17.35,-12.65 19.42,-21.9 1.9,-8.56 -0.93,-12.17 0.05,-19.42 1.04,-7.68 5.95,-6.91 10.13,-10.87 -5.1,-1.49 -2.37,-0.33 -4.71,-6.5 -0.17,-0.45 -0.7,-1.83 -0.87,-2.29l-0.85 -2.14c-0.73,-2.08 -0.9,0.99 -1.13,-4.12l9.99 -5.96c-9.45,-0.45 -20.63,5.44 -22.19,13.8 -2.14,11.46 6.23,21.61 -10.45,34.54 -0.34,0.26 -2.28,1.75 -2.49,1.94l-1.67 1.39c-8.72,7.29 -22.52,13.29 -33.95,14.45l0.17 -0.12z"/>
    <path class="fil22" d="M524.77 1859.55l-5.75 -0.14c-0.09,-13.18 -12.05,-25.66 -8.15,-39.37 -9.76,1.53 -18.23,6.3 -24.35,10.66 -1.86,11.79 5.27,14.81 5.78,38.97 2.85,-0.06 29.67,-8.6 32.46,-10.11z"/>
    <path class="fil23" d="M1314.22 1519.69c6.35,2.37 2.35,1.73 7.91,0.42l6.38 -2.9c0.2,-0.12 0.65,-0.36 0.96,-0.57 1.52,-4.14 0.15,-4.4 -6.32,-14.9 -4.58,-7.4 -5.7,-5.25 -8.61,-17.45 -13.44,-0.5 -21.09,3.41 -28.5,9.51 7.19,19.1 12.1,14.51 14.47,29.26l13.71 -3.36z"/>
    <path class="fil24" d="M1577.8 1716.94c-0.87,1.27 -0.03,0.81 -3.31,2.6 -0.05,0.02 -3.47,1.27 -3.78,1.39 4.75,1.35 2.23,0.03 4.77,3.47 0.19,0.28 1.97,4.17 2.46,5.14l8.15 14.7c1.36,2.21 0.5,0.68 1.63,2.93 0.15,0.31 0.33,0.73 0.48,1.05 4.24,8.69 -0.71,3.96 7.29,7.08 -6.26,7.26 -5.44,1.69 -11.72,6.54 6.15,0 11,-0.23 15.35,-1.42 2,-0.54 3.83,-0.99 5.68,-2.03 7.36,-4.09 3.13,-0.73 3.35,-4.17 3.87,-4.82 6.4,-5.05 3.84,-13.04 -0.71,-2.25 -1.69,-3.55 -3.44,-5.64l-10.58 -13.8c-2.34,-3.89 -2.49,-6.29 -5.2,-10.14l-14.96 5.34z"/>
    <path class="fil12" d="M1291.37 1545.57c-1.58,-3.78 2.54,-3.04 -3.05,-3.04 0.37,-0.36 1.29,-1.44 1.47,-1.67 0.14,-0.19 0.53,-0.65 0.68,-0.87 3.93,-5.36 1.55,-7.39 10.04,-9.65l0 -4.55 -4.96 0.77c-1.22,-7.77 -9.65,-16.17 -13.58,-29.61 -1.36,-4.65 1.98,-1.07 -2.23,-5.05 -8.67,7.25 -19.58,11.57 -15.01,30.8 2.6,10.92 16.42,20.37 26.64,22.86z"/>
    <path class="fil19" d="M912.19 2138.42c0.08,0 0.6,2.69 4.54,-0.91 4.62,0.73 -1.33,-0.22 9.82,16.43l1.15 1.78c0.15,0.28 0.37,0.67 0.51,0.96l8.18 24.64c-4.86,2.66 -0.81,-0.96 -3.92,4.14 4.32,-1.44 11.41,-5.05 15.1,-7.87 1.08,-11.17 -1.04,-4.32 -2.63,-12.47 -2.11,-10.73 -4.58,-25.68 -11.45,-35 -5.45,0.93 -18.99,4.99 -21.3,8.3z"/>
    <path class="fil25" d="M1020.45 1390.25c1.29,10.45 1.81,8.3 6.57,14.51 4.99,6.5 1.56,7.79 8.5,12.84 10.84,1.29 14.51,-4.38 22.07,-6.04l-9.7 -15.5c-0.56,-1.83 -0.45,-2.97 -1.07,-5.16 -0.5,-1.69 -2.46,-5.67 -3.69,-7.48 -6.46,1.6 -16.6,2.29 -22.69,6.83z"/>
    <path class="fil26" d="M1466.26 1723.59c-1.24,-5.31 -2.56,-7.65 -6.43,-11.41 -1.49,-1.46 -0.28,0.17 -2.37,-2.15 -5.06,-5.67 0.5,-2.42 -9.74,-13.1 -3.75,-3.92 -0.48,-0.56 -3.14,-4.38 -3.67,-5.31 1.87,-1.13 -4.23,-4.71l-4.91 0.29c-3.42,3.39 -4.23,2.87 -6.35,6.71 1.39,3.48 2.66,4.6 4.85,8.13l14.76 26.42c5.84,-1.33 9.8,-4.23 17.56,-5.79z"/>
    <path class="fil12" d="M1330.98 1516.64l6.09 0c2.14,-8.01 5.82,-3.42 6.09,-15.22 -3.81,-1.53 -6.64,-9.56 -9.08,-13.77 -0.17,-0.29 -0.37,-0.7 -0.53,-0.99l-8.24 -13.09c-9.35,-16.31 -22.15,-23.93 -41.54,-23.93l2.54 1.77c3,1.61 49.75,13.78 25.18,29.01 7.76,5 1.47,-4.43 12.85,14 3.73,6.04 6.97,12.85 9.71,17.66 -4.94,3.89 -0.54,0.23 -3.08,4.57z"/>
    <path class="fil22" d="M436.36 1895.92c5.58,6.29 9.97,35.7 9.06,42.06l12.67 -5.58c2.54,-10.64 -6.12,-37.81 -8.89,-41.69 -1.92,0.6 -5.05,0.98 -7.29,1.83l-4.48 2.52c-0.2,-0.33 -0.74,0.54 -1.07,0.85z"/>
    <path class="fil19" d="M991.77 2097.55l-4.51 0.17c-0.63,-7.12 -4.31,-17.24 -7.23,-22.91l-2.43 -6.66c-2.93,-8.53 -5.1,-6.54 -5.73,-16.23 -3.25,1.25 -6.43,3.17 -9,5.36 0.17,4.21 -0.05,2.77 1.1,6.3 0.11,0.36 0.29,0.73 0.42,1.08l6.1 15.3c3,8.64 3.78,16.15 8.69,22.32l12.59 -4.74z"/>
    <path class="fil27" d="M723.33 1686.32l0 2.12 6.27 0.19c0.19,4.01 0.2,2.34 1.01,5.1 3.17,10.89 1.29,8.47 15.38,8.01 6.86,-1.19 12.48,-4.24 15.91,-8.19 -3.44,-3.5 -0.23,0.71 -2.17,-3.5 -0.15,-0.33 -1.1,-3.25 -1.21,-3.64 -0.4,-1.56 -0.73,-3.08 -1.08,-5.98 -10.67,0.05 -19.16,5.39 -34.1,5.9z"/>
    <path class="fil26" d="M1147.85 1677.96l13.99 -7.08 -4.41 -17.67c-6.69,1.6 -10.66,4.58 -15.53,8.12 -0.03,6.5 0.33,4.89 3.42,10.44l2.54 6.2z"/>
    <path class="fil11" d="M692.87 2024.19c2.73,3 0.85,1.6 5.85,2.93l22.57 -2.32c0.25,-0.5 0.76,-1.52 1.02,-2.03l8.44 -12.68 -17.28 -4.27 -4.55 0.26c1.56,9.46 5.05,10.92 6.12,21.93l-22.16 -3.81z"/>
    <path class="fil28" d="M1073.59 1422.23c1.56,1.56 5.51,-2.2 1.78,-0.82 -0.05,0.02 -4.32,-1.73 -1.78,0.82z"/>
    <polygon class="fil28" points="1061.41,1420.69 1064.68,1419.86 "/>
   </g>
  </g>
 </g>
</svg>
