<?xml version="1.0" encoding="UTF-8"?>
<!DOCTYPE svg PUBLIC "-//W3C//DTD SVG 1.1//EN" "http://www.w3.org/Graphics/SVG/1.1/DTD/svg11.dtd">
<!-- Creator: CorelDRAW 2020 (64 Bit) -->
<svg xmlns="http://www.w3.org/2000/svg" xml:space="preserve" width="57mm" height="85mm" version="1.1" style="shape-rendering:geometricPrecision; text-rendering:geometricPrecision; image-rendering:optimizeQuality; fill-rule:evenodd; clip-rule:evenodd"
viewBox="0 0 5700 8500"
 xmlns:xlink="http://www.w3.org/1999/xlink"
 xmlns:xodm="http://www.corel.com/coreldraw/odm/2003">
 <defs>
  <style type="text/css">
   <![CDATA[
    .str0 {stroke:#373435;stroke-width:50;stroke-miterlimit:22.9256}
    .str1 {stroke:#373435;stroke-width:7.62;stroke-miterlimit:22.9256}
    .fil4 {fill:none;fill-rule:nonzero}
    .fil5 {fill:#FEFEFE;fill-rule:nonzero}
    .fil3 {fill:#373435;fill-rule:nonzero}
    .fil2 {fill:#FFF212;fill-rule:nonzero}
    .fil0 {fill:url(#id0)}
    .fil1 {fill:url(#id1)}
   ]]>
  </style>
  <radialGradient id="id0" gradientUnits="userSpaceOnUse" gradientTransform="matrix(0.914594 -0 -0 1.01445 248 -43)" cx="2903.69" cy="2979.23" r="3826.69" fx="2903.69" fy="2979.23">
   <stop offset="0" style="stop-opacity:1; stop-color:#E8E239"/>
   <stop offset="0.290196" style="stop-opacity:1; stop-color:#ABA73A"/>
   <stop offset="1" style="stop-opacity:1; stop-color:#6E6D3B"/>
  </radialGradient>
  <radialGradient id="id1" gradientUnits="userSpaceOnUse" gradientTransform="matrix(0.746228 -0 -0 0.997829 746 7)" cx="2938.75" cy="3388.19" r="1879.91" fx="2938.75" fy="3388.19">
   <stop offset="0" style="stop-opacity:1; stop-color:#C3C949"/>
   <stop offset="0.439216" style="stop-opacity:1; stop-color:#949640"/>
   <stop offset="1" style="stop-opacity:1; stop-color:#666338"/>
  </radialGradient>
 </defs>
 <g id="Camada_x0020_1">
  <metadata id="CorelCorpID_0Corel-Layer"/>
  <path class="fil0" d="M3020.72 5337.39c155.93,-137.87 124.84,-124.53 322.09,-227.42 222.62,-116.12 423.17,-155.27 672.26,-163.24 70.99,-2.27 185.06,0.06 261.45,12.51 208.69,34 240.44,44.88 428.33,102.76 47.11,14.52 80.24,36.83 130.91,47.41 -9.29,-73.54 -139.76,-572.91 -177.02,-733.24 -5.15,-22.14 -57.47,-209.03 -54.1,-226.69 3.13,-16.52 17.28,-38.22 32.43,6.99 4.66,13.93 10.29,28.67 15.89,43.14 9.97,25.72 22.15,57.78 30.19,82.18l62.06 167.01c44.26,112.31 83.53,225.46 124.33,335.51 21.3,57.48 237.86,628.4 245.32,669.77 -20.23,4.13 -44.71,-11.42 -65.09,-21.22 -111.87,-53.76 -388.89,-152.13 -502.57,-188.11 -502.56,-159.06 -1038.13,-172.34 -1493.78,126.29l-130.25 93.49c3.91,-15.35 88.42,-118.19 97.55,-127.14zm-30.39 12.96c-46.24,60.34 -52.4,92.63 -67.16,114.18 -2.97,-31.07 37.69,-115.03 87.3,-199.96 56.23,-96.24 161.97,-204.07 212.66,-255.67 253.59,-258.17 600.36,-423.77 948.58,-414.75 99.27,2.57 168.06,21.96 265.92,36.69 3.11,-39.31 -83.42,-324.67 -78.6,-369.04 14.42,-11.25 148.08,-79.71 166.34,-80.9l133.17 549.65c7.39,28.49 43.48,161.25 42.46,187.54 -44.87,-10.1 -165.51,-64.4 -264.38,-88.38 -407.49,-98.76 -774.49,-3.46 -1126.46,225.45 -100.41,65.29 -276.42,226.54 -319.83,295.19zm-180.76 -7.9c-155.94,-131 -124.86,-118.33 -322.1,-216.08 -222.62,-110.33 -423.17,-147.54 -672.26,-155.1 -70.99,-2.17 -185.06,0.05 -261.45,11.89 -208.69,32.29 -240.44,42.63 -428.33,97.63 -47.11,13.8 -80.24,34.98 -130.92,45.05 9.3,-69.87 139.77,-544.34 177.03,-696.67 5.15,-21.04 57.46,-198.61 54.1,-215.39 -3.13,-15.7 -17.28,-36.3 -32.42,6.64 -4.67,13.23 -10.3,27.25 -15.9,40.99 -9.97,24.45 -22.16,54.9 -30.2,78.09l-62.05 158.67c-44.26,106.73 -83.52,214.22 -124.33,318.78 -21.31,54.61 -237.86,597.06 -245.31,636.37 20.21,3.92 44.69,-10.86 65.08,-20.17 111.87,-51.09 388.88,-144.54 502.57,-178.72 502.55,-151.13 1038.13,-163.75 1493.79,119.98l130.23 88.83c-3.91,-14.59 -88.41,-112.29 -97.53,-120.79zm30.39 12.3c46.23,57.33 52.39,88.01 67.14,108.49 2.99,-29.52 -37.68,-109.29 -87.28,-189.99 -56.23,-91.44 -161.97,-193.89 -212.67,-242.92 -253.58,-245.29 -600.35,-402.61 -948.58,-394.06 -99.27,2.45 -168.06,20.86 -265.92,34.86 -3.11,-37.35 83.42,-308.47 78.6,-350.64 -14.43,-10.67 -148.07,-75.72 -166.34,-76.85l-133.18 522.24c-7.38,27.06 -43.47,153.19 -42.45,178.18 44.88,-9.61 165.51,-61.19 264.38,-83.97 407.49,-93.84 774.48,-3.29 1126.46,214.19 100.41,62.04 276.42,215.24 319.84,280.47zm360.74 -628.1c16.39,-4.12 620.1,-700.06 1082.11,-969.24 415.01,-241.8 589.28,-278.92 590.08,-280.76l-15.87 4.86c-851.1,180.42 -883.2,-164.24 -1028.63,-84.02 -105.99,47.17 -48.07,432.78 -138.32,613.44 -119.21,238.66 -371.46,479.37 -489.37,715.72zm1064.94 -1895.57c-158.69,27.75 -267.47,142.48 -252.31,316.99 12.33,141.96 147.4,278.75 312.44,258.09 146.81,-18.38 261.38,-149.98 249.41,-317.7 -11.17,-156.41 -171.88,-281.47 -309.54,-257.38zm559.5 -433.34l-178.98 1.38c6.28,26.88 49.76,46.1 68.07,59.37l74.1 50.72c2.41,47.17 -42.15,129.85 -48.63,184.23 38.36,-9.44 118.33,-92.19 152.62,-106.79 32.24,7.83 117.9,90.48 157.47,101.2 -5.79,-56.19 -56.12,-136.62 -53.12,-185.14 14.2,-7.11 143.17,-102.64 147.68,-110.91 -51.2,-4.95 -155.75,8.65 -195.92,-4.19 -9.51,-25.25 -18.55,-57.22 -27.57,-81.07l-20.44 -59.85c-3.16,-7.74 -2.24,-6.19 -5.48,-11.81 -4.66,-8.12 -3.71,-6.47 -8.04,-11.26l-5.72 6.65c-15.53,23.95 -35.07,129.61 -56.04,167.47zm-327.4 -821.76l-178.98 1.37c6.28,26.89 49.76,46.12 68.07,59.38l74.09 50.72c2.42,47.18 -42.14,129.84 -48.62,184.24 38.36,-9.45 118.33,-92.2 152.62,-106.8 32.24,7.82 117.9,90.47 157.47,101.2 -5.79,-56.19 -56.12,-136.62 -53.12,-185.14 14.19,-7.11 143.17,-102.64 147.68,-110.91 -51.2,-4.95 -155.75,8.65 -195.93,-4.19 -9.5,-25.25 -18.54,-57.22 -27.57,-81.08l-20.43 -59.84c-3.16,-7.75 -2.25,-6.19 -5.48,-11.81 -4.66,-8.11 -3.71,-6.47 -8.04,-11.25l-5.72 6.64c-15.53,23.95 -35.07,129.6 -56.04,167.47zm-668.45 -582.98l-178.97 1.38c6.28,26.88 49.76,46.1 68.06,59.36l74.1 50.73c2.42,47.17 -42.14,129.84 -48.62,184.23 38.35,-9.45 118.33,-92.2 152.61,-106.79 32.24,7.82 117.9,90.48 157.47,101.2 -5.78,-56.19 -56.11,-136.62 -53.11,-185.14 14.19,-7.11 143.16,-102.65 147.68,-110.91 -51.21,-4.96 -155.76,8.65 -195.94,-4.2 -9.5,-25.24 -18.54,-57.22 -27.57,-81.07l-20.43 -59.84c-3.16,-7.75 -2.24,-6.19 -5.47,-11.81 -4.67,-8.12 -3.72,-6.48 -8.04,-11.26l-5.73 6.64c-15.53,23.95 -35.07,129.61 -56.04,167.48zm-960.98 -324.96l-178.98 1.38c6.28,26.88 49.76,46.1 68.07,59.37l74.09 50.72c2.42,47.18 -42.14,129.84 -48.62,184.23 38.35,-9.44 118.33,-92.19 152.62,-106.78 32.24,7.81 117.9,90.47 157.47,101.19 -5.79,-56.19 -56.12,-136.62 -53.12,-185.14 14.19,-7.11 143.16,-102.64 147.68,-110.91 -51.21,-4.95 -155.76,8.65 -195.93,-4.19 -9.5,-25.25 -18.55,-57.22 -27.57,-81.08l-20.44 -59.84c-3.16,-7.75 -2.24,-6.19 -5.47,-11.81 -4.67,-8.12 -3.71,-6.47 -8.04,-11.25l-5.72 6.64c-15.54,23.95 -35.08,129.6 -56.04,167.47zm-957.37 302.6l-184.22 0.06c12.94,31.34 110.62,95.19 136.66,111.19 4.95,42.74 -46.65,133.8 -52.5,184.65 34.13,-7.75 139,-99.07 151.9,-100.7 35.34,4.75 117.45,95.96 158.29,106.75 -5.22,-50.56 -53.01,-140.66 -44.86,-185.28 8.48,-19.25 130.27,-71.47 138,-109.31l-178.54 -1.82c-20.29,-34.26 -36.78,-153.85 -62.05,-173.31l-62.68 167.77zm-755.7 601.77l-178.98 1.37c6.28,26.89 49.76,46.11 68.06,59.38l74.1 50.72c2.42,47.18 -42.14,129.84 -48.63,184.23 38.36,-9.45 118.34,-92.19 152.62,-106.79 32.25,7.82 117.91,90.47 157.48,101.2 -5.8,-56.2 -56.12,-136.62 -53.12,-185.14 14.19,-7.11 143.17,-102.64 147.68,-110.91 -51.2,-4.96 -155.76,8.65 -195.93,-4.2 -9.51,-25.24 -18.55,-57.21 -27.57,-81.07l-20.44 -59.84c-3.16,-7.75 -2.24,-6.19 -5.47,-11.81 -4.67,-8.12 -3.71,-6.47 -8.05,-11.25l-5.72 6.63c-15.53,23.96 -35.07,129.61 -56.03,167.48zm1490.49 3150.57c-16.39,-4.17 -620.11,-708.88 -1082.12,-981.45 -415,-244.85 -589.28,-282.45 -590.07,-284.3l15.86 4.92c851.11,182.7 883.21,-166.31 1028.63,-85.08 105.99,47.77 48.08,438.23 138.32,621.17 119.21,241.68 371.46,485.42 489.38,724.74zm-1803.71 -2317.42l-178.98 1.37c6.28,26.89 49.76,46.11 68.07,59.37l74.09 50.73c2.42,47.17 -42.14,129.84 -48.62,184.23 38.35,-9.45 118.33,-92.2 152.61,-106.79 32.25,7.82 117.91,90.48 157.48,101.19 -5.79,-56.18 -56.12,-136.61 -53.11,-185.13 14.19,-7.11 143.16,-102.65 147.67,-110.91 -51.2,-4.96 -155.75,8.65 -195.93,-4.2 -9.51,-25.24 -18.55,-57.22 -27.57,-81.07l-20.44 -59.84c-3.15,-7.75 -2.24,-6.19 -5.47,-11.81 -4.67,-8.12 -3.71,-6.48 -8.04,-11.26l-5.72 6.64c-15.53,23.95 -35.08,129.62 -56.04,167.48zm738.77 397.95c158.69,28.11 267.47,144.28 252.3,321 -12.33,143.74 -147.4,282.26 -312.44,261.34 -146.8,-18.61 -261.38,-151.87 -249.41,-321.71 11.17,-158.38 171.88,-285.01 309.55,-260.63z"/>
  <path class="fil1" d="M3819.41 2771.86c-398.34,216.57 -712.45,320.74 -901.67,310.79 -189.16,7.17 -445.78,-73.8 -895.63,-315.88 3.48,23.36 56.34,145.65 158.91,317.57 154.78,259.44 363.75,375.59 508.79,681.68 167.45,353.42 126.52,724.24 212.83,942.62 30.2,60.69 53.04,-19.5 56.01,-25.98 138.35,-301.7 110.77,-610.33 247.18,-912.57 113.43,-251.31 376.69,-408.99 491.99,-658.14 67.6,-161.82 122.91,-340.8 121.59,-340.09zm-1190 -177.33c-0.07,172.74 138.32,304.86 295.33,304.95 155.49,0.09 296.87,-131.95 296.87,-304.95 0,-165.02 -132.5,-302.4 -291.34,-305.13 -165.87,-2.87 -300.8,137.53 -300.86,305.13z"/>
  <path class="fil2 str0" d="M3946.86 5784.25l130.22 0 146.48 349.26c6.48,16.56 13.25,35.98 20.18,58.26 7.08,22.43 13.85,46.07 20.32,71.06l3.62 0c-4.21,-25.59 -7.53,-49.98 -10.24,-73.02 -2.56,-23.03 -4.36,-43.05 -5.27,-59.76l0 -345.8 117.43 0 0 679.26 -128.87 0 -150.85 -363.87c-6.17,-14.46 -12.35,-31.77 -18.37,-52.09 -6.01,-20.33 -11.89,-42.76 -17.76,-67.44l-3.61 0c4.51,28 7.97,53.59 10.69,77.22 2.55,23.49 4.06,43.21 4.36,59.01l0 347.17 -118.33 0 0 -679.26z"/>
  <polygon class="fil3 str0" points="3969.44,5805.02 3969.44,6442.73 4044.42,6442.73 4044.42,5965.95 4054.65,5965.95 4255.78,6442.73 4347.92,6442.73 4347.92,5805.02 4272.94,5805.02 4272.94,6274.72 4264.06,6274.72 4061.57,5805.02 "/>
  <path class="fil3 str0" d="M3623.64 5767.98c82.35,0 139.55,24.7 171.92,74.08 32.37,49.37 48.48,143.31 48.48,281.81 0,138.51 -16.11,232.45 -48.48,281.83 -32.37,49.38 -89.57,74.07 -171.92,74.07 -82.35,0 -139.56,-24.69 -171.93,-74.07 -32.37,-49.38 -48.48,-143.32 -48.48,-281.83 0,-138.5 16.11,-232.44 48.48,-281.81 32.37,-49.38 89.58,-74.08 171.93,-74.08z"/>
  <path class="fil4 str0" d="M3624.39 5788.76c-75.43,0 -127.21,22.58 -155.82,67.9 -28.46,45.31 -42.76,134.28 -42.76,267.21 0,132.63 14.16,221.46 42.61,266.47 28.3,45.17 80.4,67.75 155.97,67.75 75.27,0 127.06,-22.43 155.36,-67.3 28.46,-44.7 42.61,-133.83 42.61,-266.92 0,-133.53 -14.15,-222.66 -42.61,-267.67 -28.3,-45.01 -80.09,-67.44 -155.36,-67.44z"/>
  <path class="fil5 str0" d="M3625.95 5853.12c42.9,0 72.41,16.26 88.67,48.93 16.11,32.66 24.24,108.39 24.24,227.47 0,118.48 -8.13,193.91 -24.24,226.57 -16.26,32.67 -45.77,48.93 -88.67,48.93 -43.21,0 -73.02,-16.26 -89.28,-48.93 -16.41,-32.66 -24.54,-108.09 -24.54,-226.57 0,-119.08 8.13,-194.81 24.54,-227.47 16.26,-32.67 46.07,-48.93 89.28,-48.93z"/>
  <polygon class="fil2 str0" points="2932.62,5784.25 3349.94,5784.25 3349.94,5896.25 3204.51,5896.25 3204.51,6463.51 3078.05,6463.51 3078.05,5896.25 2932.62,5896.25 "/>
  <polygon class="fil3 str0" points="2954.3,5805.02 2954.3,5874.57 3100.63,5874.57 3100.63,6442.73 3182.84,6442.73 3182.84,5874.57 3328.26,5874.57 3328.26,5805.02 "/>
  <polygon class="fil2 str0" points="2476.46,5784.25 2893.77,5784.25 2893.77,5896.25 2748.35,5896.25 2748.35,6463.51 2621.89,6463.51 2621.89,5896.25 2476.46,5896.25 "/>
  <polygon class="fil3 str0" points="2498.14,5805.02 2498.14,5874.57 2644.47,5874.57 2644.47,6442.73 2726.67,6442.73 2726.67,5874.57 2872.1,5874.57 2872.1,5805.02 "/>
  <polygon class="fil3 str0" points="2077.96,5784.25 2426.63,5784.25 2426.63,5897.15 2203.53,5897.15 2203.53,6054.33 2411.28,6054.33 2411.28,6161.81 2203.53,6161.81 2203.53,6348.79 2432.05,6348.79 2432.05,6463.51 2077.96,6463.51 "/>
  <polygon class="fil3 str0" points="2100.55,5805.02 2100.55,6442.73 2409.47,6442.73 2409.47,6369.56 2181.85,6369.56 2181.85,6141.04 2389.6,6141.04 2389.6,6076 2181.85,6076 2181.85,5876.38 2404.05,5876.38 2404.05,5805.02 "/>
  <path class="fil3 str0" d="M1967.01 5998.32l-118.33 0 0 -11.45c0,-38.23 -7.83,-67.59 -23.49,-87.91 -15.5,-20.48 -38.08,-30.71 -67.89,-30.71 -36.13,0 -60.97,13.7 -74.37,40.95 -13.55,27.39 -20.32,101.31 -20.32,221.9 0,99.06 6.77,164.85 20.32,197.22 13.4,32.37 37.94,48.47 73.62,48.47 30.71,0 53.3,-12.19 67.29,-36.58 14.15,-24.54 21.23,-63.53 21.23,-116.98l0 -21.67 -87.62 0 0 -108.4 209.56 0 0 370.35 -85.81 0 -5.27 -72.11c-16.11,30.71 -36.13,53.14 -59.91,67.29 -23.79,14 -53.75,21.08 -89.88,21.08 -71.51,0 -121.65,-26.5 -150.4,-79.34 -28.75,-52.99 -43.21,-151.75 -43.21,-296.43 0,-129.02 16.41,-217.09 49.23,-264.36 32.68,-47.12 90.19,-70.75 172.23,-70.75 73.16,0 127.06,17.46 161.39,52.24 34.47,34.92 51.63,89.27 51.63,163.04l0 14.15z"/>
  <path class="fil3 str1" d="M1944.43 5977.54c0,-65.03 -15.21,-112.6 -45.61,-142.71 -30.57,-30.11 -78.6,-45.17 -144.23,-45.17 -75.88,0 -128.11,21.53 -156.72,64.44 -28.46,42.9 -42.76,130.37 -42.76,262.7 0,129.92 12.95,219.34 38.69,268.12 25.75,48.78 70.31,73.17 133.84,73.17 34.78,0 63.38,-6.78 85.66,-20.17 22.44,-13.55 41.4,-35.38 57.06,-65.64l17.92 0 9.18 70.45 47.87 0 0 -328.79 -166.2 0 0 66.84 88.53 0c0,3.76 0.14,9.34 0.44,16.42 0.3,6.92 0.46,12.19 0.46,15.35 0,64.74 -9.04,111.86 -26.95,141.06 -17.92,29.36 -46.52,43.96 -85.96,43.96 -42.91,0 -72.87,-17.91 -89.58,-53.74 -16.71,-35.98 -25.14,-106.59 -25.14,-211.83 0,-123.29 8.28,-201.42 24.69,-234.69 16.4,-33.28 45.92,-49.84 88.22,-49.84 36.73,0 64.88,10.84 84.3,32.37 19.42,21.67 30.11,54.19 32.22,97.7l74.07 0z"/>
 </g>
</svg>
