<?xml version="1.0" encoding="UTF-8"?>
<!DOCTYPE svg PUBLIC "-//W3C//DTD SVG 1.1//EN" "http://www.w3.org/Graphics/SVG/1.1/DTD/svg11.dtd">
<!-- Creator: CorelDRAW 2020 (64 Bit) -->
<svg xmlns="http://www.w3.org/2000/svg" xml:space="preserve" width="52.5497mm" height="70.25mm" version="1.1" style="shape-rendering:geometricPrecision; text-rendering:geometricPrecision; image-rendering:optimizeQuality; fill-rule:evenodd; clip-rule:evenodd"
viewBox="0 0 706.7 944.73"
 xmlns:xlink="http://www.w3.org/1999/xlink"
 xmlns:xodm="http://www.corel.com/coreldraw/odm/2003">
 <defs>
  <style type="text/css">
   <![CDATA[
    .str0 {stroke:#6E6D3B;stroke-width:6.72;stroke-miterlimit:22.9256}
    .fil4 {fill:#FEFEFE;fill-rule:nonzero}
    .fil3 {fill:#ACA77B;fill-rule:nonzero}
    .fil2 {fill:#6E6D3B;fill-rule:nonzero}
    .fil0 {fill:url(#id0)}
    .fil1 {fill:url(#id1)}
   ]]>
  </style>
  <radialGradient id="id0" gradientUnits="userSpaceOnUse" gradientTransform="matrix(0.901565 -0 -0 0.999999 35 0)" cx="353.35" cy="391.93" r="522.13" fx="353.35" fy="391.93">
   <stop offset="0" style="stop-opacity:1; stop-color:#E8E239"/>
   <stop offset="0.290196" style="stop-opacity:1; stop-color:#ABA73A"/>
   <stop offset="1" style="stop-opacity:1; stop-color:#6E6D3B"/>
  </radialGradient>
  <radialGradient id="id1" gradientUnits="userSpaceOnUse" gradientTransform="matrix(0.766716 -0 -0 1.04166 84 -19)" cx="361.71" cy="456.42" r="246.24" fx="361.71" fy="456.42">
   <stop offset="0" style="stop-opacity:1; stop-color:#C3C949"/>
   <stop offset="0.439216" style="stop-opacity:1; stop-color:#949640"/>
   <stop offset="1" style="stop-opacity:1; stop-color:#666338"/>
  </radialGradient>
 </defs>
 <g id="Camada_x0020_1">
  <metadata id="CorelCorpID_0Corel-Layer"/>
  <g id="_1869060924816">
   <path class="fil0" d="M371.8 763.81c24.59,-21.74 19.69,-19.64 50.79,-35.86 35.11,-18.31 66.73,-24.49 106.01,-25.74 11.19,-0.36 29.18,0.01 41.23,1.97 32.91,5.36 37.92,7.08 67.55,16.21 7.43,2.29 12.65,5.81 20.64,7.48 -1.47,-11.6 -22.04,-90.35 -27.92,-115.63 -0.81,-3.49 -9.06,-32.96 -8.53,-35.75 0.49,-2.6 2.72,-6.03 5.11,1.1 0.74,2.2 1.62,4.52 2.51,6.8 1.57,4.06 3.49,9.11 4.76,12.96l9.78 26.34c6.98,17.71 13.17,35.56 19.61,52.91 3.36,9.06 37.51,99.1 38.69,105.62 -3.19,0.65 -7.05,-1.8 -10.26,-3.35 -17.64,-8.48 -61.33,-23.99 -79.26,-29.67 -79.25,-25.08 -163.71,-27.18 -235.57,19.92l-20.54 14.74c0.62,-2.42 13.94,-18.64 15.38,-20.05zm-4.79 2.04c-7.29,9.51 -8.26,14.61 -10.59,18 -0.47,-4.9 5.94,-18.14 13.77,-31.53 8.87,-15.18 25.54,-32.18 33.54,-40.32 39.99,-40.71 94.67,-66.83 149.59,-65.41 15.65,0.4 26.5,3.46 41.94,5.79 0.49,-6.2 -13.16,-51.2 -12.4,-58.2 2.28,-1.77 23.35,-12.57 26.23,-12.76l21 86.68c1.17,4.49 6.86,25.43 6.7,29.57 -7.08,-1.59 -26.1,-10.16 -41.69,-13.94 -64.26,-15.58 -122.14,-0.55 -177.64,35.55 -15.84,10.3 -43.59,35.72 -50.44,46.55zm-28.5 -1.25c-24.59,-20.66 -19.69,-18.66 -50.79,-34.08 -35.11,-17.4 -66.73,-23.27 -106.01,-24.46 -11.2,-0.34 -29.18,0.01 -41.23,1.87 -32.91,5.09 -37.92,6.72 -67.55,15.4 -7.43,2.17 -12.65,5.52 -20.65,7.1 1.47,-11.02 22.04,-85.84 27.92,-109.86 0.81,-3.32 9.06,-31.32 8.53,-33.97 -0.49,-2.47 -2.72,-5.72 -5.11,1.05 -0.74,2.09 -1.62,4.3 -2.51,6.46 -1.57,3.85 -3.49,8.66 -4.76,12.31l-9.78 25.02c-6.98,16.83 -13.17,33.78 -19.61,50.27 -3.36,8.61 -37.51,94.16 -38.69,100.36 3.19,0.62 7.05,-1.71 10.26,-3.18 17.64,-8.06 61.33,-22.79 79.26,-28.18 79.25,-23.83 163.71,-25.82 235.57,18.92l20.54 14.01c-0.62,-2.3 -13.94,-17.71 -15.38,-19.05zm4.79 1.94c7.29,9.04 8.26,13.88 10.59,17.11 0.47,-4.65 -5.94,-17.23 -13.77,-29.96 -8.87,-14.42 -25.54,-30.58 -33.54,-38.31 -39.99,-38.68 -94.67,-63.49 -149.59,-62.14 -15.65,0.38 -26.5,3.29 -41.94,5.5 -0.49,-5.89 13.15,-48.64 12.4,-55.29 -2.28,-1.68 -23.35,-11.94 -26.23,-12.12l-21 82.36c-1.16,4.27 -6.85,24.16 -6.7,28.1 7.08,-1.51 26.1,-9.65 41.69,-13.24 64.26,-14.8 122.14,-0.52 177.64,33.78 15.83,9.78 43.59,33.94 50.44,44.23zm56.89 -99.05c2.58,-0.65 97.79,-110.4 170.65,-152.85 65.45,-38.13 92.93,-43.98 93.05,-44.28l-2.5 0.77c-134.22,28.45 -139.28,-25.9 -162.21,-13.25 -16.71,7.44 -7.58,68.25 -21.81,96.74 -18.8,37.64 -58.58,75.6 -77.17,112.87zm167.94 -298.93c-25.02,4.38 -42.18,22.47 -39.79,49.99 1.94,22.39 23.25,43.96 49.27,40.7 23.15,-2.9 41.22,-23.65 39.33,-50.1 -1.76,-24.67 -27.1,-44.39 -48.81,-40.59zm88.23 -68.34l-28.22 0.22c0.99,4.24 7.85,7.27 10.73,9.36l11.69 8c0.38,7.44 -6.65,20.48 -7.67,29.05 6.05,-1.49 18.66,-14.54 24.07,-16.84 5.08,1.23 18.59,14.27 24.83,15.96 -0.91,-8.86 -8.85,-21.54 -8.38,-29.2 2.24,-1.12 22.58,-16.19 23.29,-17.49 -8.07,-0.78 -24.56,1.36 -30.9,-0.66 -1.5,-3.98 -2.93,-9.02 -4.35,-12.78l-3.22 -9.44c-0.5,-1.22 -0.35,-0.98 -0.86,-1.86 -0.74,-1.28 -0.58,-1.02 -1.27,-1.77l-0.9 1.05c-2.45,3.78 -5.53,20.44 -8.84,26.41zm-51.63 -129.59l-28.22 0.22c0.99,4.24 7.85,7.27 10.73,9.36l11.68 8c0.38,7.44 -6.64,20.48 -7.67,29.05 6.05,-1.49 18.66,-14.54 24.07,-16.84 5.08,1.23 18.59,14.27 24.83,15.96 -0.91,-8.86 -8.85,-21.54 -8.38,-29.2 2.24,-1.12 22.58,-16.19 23.29,-17.49 -8.08,-0.78 -24.56,1.36 -30.9,-0.66 -1.5,-3.98 -2.92,-9.02 -4.35,-12.78l-3.22 -9.44c-0.5,-1.22 -0.35,-0.98 -0.86,-1.86 -0.74,-1.28 -0.59,-1.02 -1.27,-1.78l-0.9 1.05c-2.45,3.78 -5.53,20.44 -8.84,26.41zm-105.41 -91.94l-28.22 0.22c0.99,4.24 7.85,7.27 10.73,9.36l11.68 8c0.38,7.44 -6.64,20.48 -7.67,29.05 6.05,-1.49 18.66,-14.54 24.07,-16.84 5.08,1.23 18.59,14.27 24.83,15.96 -0.91,-8.86 -8.85,-21.54 -8.38,-29.2 2.24,-1.12 22.58,-16.19 23.29,-17.49 -8.07,-0.78 -24.56,1.36 -30.9,-0.66 -1.5,-3.98 -2.93,-9.02 -4.35,-12.79l-3.22 -9.44c-0.5,-1.22 -0.35,-0.98 -0.86,-1.86 -0.74,-1.28 -0.58,-1.02 -1.27,-1.78l-0.9 1.05c-2.45,3.78 -5.53,20.44 -8.84,26.41zm-151.55 -51.24l-28.22 0.22c0.99,4.24 7.85,7.27 10.73,9.36l11.68 8c0.38,7.44 -6.64,20.48 -7.67,29.05 6.05,-1.49 18.66,-14.54 24.07,-16.84 5.08,1.23 18.59,14.27 24.83,15.96 -0.91,-8.86 -8.85,-21.54 -8.38,-29.2 2.24,-1.12 22.58,-16.19 23.29,-17.49 -8.08,-0.78 -24.56,1.36 -30.9,-0.66 -1.5,-3.98 -2.92,-9.02 -4.35,-12.78l-3.22 -9.44c-0.5,-1.22 -0.35,-0.98 -0.86,-1.86 -0.74,-1.28 -0.59,-1.02 -1.27,-1.78l-0.9 1.05c-2.45,3.78 -5.53,20.44 -8.84,26.41zm-150.98 47.72l-29.05 0.01c2.04,4.94 17.44,15.01 21.55,17.54 0.78,6.74 -7.36,21.1 -8.28,29.12 5.38,-1.22 21.92,-15.62 23.96,-15.88 5.57,0.75 18.52,15.13 24.96,16.83 -0.82,-7.97 -8.36,-22.18 -7.08,-29.22 1.34,-3.04 20.54,-11.27 21.76,-17.24l-28.16 -0.29c-3.2,-5.4 -5.8,-24.26 -9.78,-27.33l-9.88 26.46zm-119.17 94.9l-28.22 0.22c0.99,4.24 7.85,7.27 10.73,9.36l11.68 8c0.38,7.44 -6.64,20.48 -7.67,29.05 6.05,-1.49 18.66,-14.54 24.07,-16.84 5.08,1.23 18.59,14.27 24.83,15.96 -0.91,-8.86 -8.85,-21.54 -8.38,-29.2 2.24,-1.12 22.58,-16.19 23.29,-17.49 -8.08,-0.78 -24.56,1.36 -30.9,-0.66 -1.5,-3.98 -2.92,-9.02 -4.35,-12.78l-3.22 -9.44c-0.5,-1.22 -0.35,-0.98 -0.86,-1.86 -0.74,-1.28 -0.59,-1.02 -1.27,-1.78l-0.9 1.05c-2.45,3.78 -5.53,20.44 -8.84,26.41zm235.05 496.84c-2.58,-0.66 -97.79,-111.79 -170.65,-154.77 -65.45,-38.61 -92.93,-44.54 -93.05,-44.83l2.5 0.77c134.22,28.81 139.28,-26.23 162.21,-13.42 16.71,7.53 7.58,69.11 21.81,97.96 18.8,38.11 58.58,76.55 77.17,114.29zm-284.44 -365.46l-28.22 0.22c0.99,4.24 7.85,7.27 10.73,9.36l11.68 8c0.38,7.44 -6.64,20.48 -7.67,29.05 6.05,-1.49 18.66,-14.54 24.07,-16.84 5.08,1.23 18.59,14.27 24.83,15.96 -0.91,-8.86 -8.85,-21.54 -8.38,-29.2 2.24,-1.12 22.58,-16.19 23.29,-17.49 -8.08,-0.78 -24.56,1.36 -30.9,-0.66 -1.5,-3.98 -2.92,-9.02 -4.35,-12.79l-3.22 -9.44c-0.5,-1.22 -0.35,-0.98 -0.86,-1.86 -0.74,-1.28 -0.59,-1.02 -1.27,-1.78l-0.9 1.05c-2.45,3.78 -5.53,20.44 -8.84,26.41zm116.5 62.76c25.02,4.43 42.18,22.75 39.79,50.62 -1.94,22.67 -23.25,44.51 -49.27,41.21 -23.15,-2.94 -41.22,-23.95 -39.33,-50.73 1.76,-24.98 27.1,-44.95 48.81,-41.1z"/>
   <path class="fil1" d="M497.75 359.23c-62.82,34.15 -112.35,50.58 -142.19,49.01 -29.83,1.13 -70.3,-11.64 -141.24,-49.81 0.55,3.68 8.89,22.97 25.06,50.08 24.41,40.91 57.36,59.23 80.24,107.5 26.41,55.73 19.95,114.21 33.56,148.65 4.76,9.57 8.36,-3.08 8.83,-4.1 21.82,-47.58 17.47,-96.25 38.98,-143.91 17.89,-39.63 59.4,-64.5 77.58,-103.79 10.66,-25.52 19.38,-53.74 19.18,-53.63zm-187.66 -27.96c-0.01,27.24 21.81,48.08 46.57,48.09 24.52,0.01 46.82,-20.81 46.82,-48.09 0,-26.02 -20.9,-47.69 -45.94,-48.12 -26.16,-0.45 -47.44,21.69 -47.45,48.12z"/>
   <polygon class="fil2 str0" points="481.36,831.69 508.12,831.69 532.45,938.81 510.97,938.81 505.7,911.88 482.76,911.88 477.61,938.81 457.24,938.81 "/>
   <path class="fil2 str0" d="M493.28 858.18c-0.43,3.3 -1,6.55 -1.71,9.8l-5.7 27.8 16.97 0 -5.84 -27.8c-0.05,-0.14 -0.09,-0.33 -0.14,-0.57 -2.31,-11.13 -0.94,-28.54 -3.58,-9.23z"/>
   <polygon class="fil3 str0" points="484,834.96 461.56,935.53 474.76,935.53 479.89,908.61 508.54,908.61 513.74,935.53 528.15,935.53 505.41,834.96 "/>
   <polygon class="fil4 str0" points="493.33,846.22 495.27,846.22 506.93,899.06 481.91,899.06 "/>
   <polygon class="fil2 str0" points="396.51,831.69 462.32,831.69 462.32,849.35 439.39,849.35 439.39,938.81 419.44,938.81 419.44,849.35 396.51,849.35 "/>
   <polygon class="fil3 str0" points="399.93,834.96 399.93,845.93 423.01,845.93 423.01,935.53 435.97,935.53 435.97,845.93 458.9,845.93 458.9,834.96 "/>
   <polygon class="fil2 str0" points="324.57,831.69 390.38,831.69 390.38,849.35 367.45,849.35 367.45,938.81 347.51,938.81 347.51,849.35 324.57,849.35 "/>
   <polygon class="fil3 str0" points="327.99,834.96 327.99,845.93 351.07,845.93 351.07,935.53 364.03,935.53 364.03,845.93 386.97,845.93 386.97,834.96 "/>
   <polygon class="fil2 str0" points="278.45,831.69 305.2,831.69 329.54,938.81 308.05,938.81 302.78,911.88 279.84,911.88 274.69,938.81 254.32,938.81 "/>
   <path class="fil2 str0" d="M290.36 858.18c-0.43,3.3 -1,6.55 -1.71,9.8l-5.7 27.8 16.98 0 -5.84 -27.8c-0.05,-0.14 -0.1,-0.33 -0.14,-0.57 -2.31,-11.13 -0.95,-28.54 -3.59,-9.23z"/>
   <polygon class="fil3 str0" points="281.08,834.96 258.65,935.53 271.85,935.53 276.97,908.61 305.63,908.61 310.83,935.53 325.24,935.53 302.49,834.96 "/>
   <polygon class="fil4 str0" points="290.41,846.22 292.36,846.22 304.01,899.06 278.99,899.06 "/>
   <path class="fil2 str0" d="M244.66 865.45l-18.66 0 0 -1.8c0,-6.03 -1.23,-10.66 -3.7,-13.87 -2.44,-3.23 -6.01,-4.84 -10.71,-4.84 -5.7,0 -9.62,2.16 -11.73,6.46 -2.14,4.32 -3.2,15.98 -3.2,34.99 0,15.62 1.07,26 3.2,31.1 2.11,5.1 5.98,7.65 11.61,7.65 4.84,0 8.41,-1.92 10.61,-5.77 2.23,-3.87 3.35,-10.02 3.35,-18.45l0 -3.42 -13.82 0 0 -17.09 33.05 0 0 58.4 -13.53 0 -0.83 -11.37c-2.54,4.84 -5.7,8.38 -9.45,10.61 -3.75,2.21 -8.48,3.32 -14.17,3.32 -11.28,0 -19.18,-4.18 -23.72,-12.51 -4.53,-8.36 -6.81,-23.93 -6.81,-46.75 0,-20.35 2.59,-34.23 7.76,-41.69 5.15,-7.43 14.22,-11.16 27.16,-11.16 11.54,0 20.04,2.75 25.45,8.24 5.44,5.51 8.14,14.08 8.14,25.71l0 2.23z"/>
   <path class="fil3 str0" d="M241.1 862.17c0,-10.26 -2.4,-17.76 -7.19,-22.51 -4.82,-4.75 -12.39,-7.12 -22.74,-7.12 -11.96,0 -20.2,3.4 -24.71,10.16 -4.49,6.77 -6.74,20.56 -6.74,41.43 0,20.49 2.04,34.59 6.1,42.28 4.06,7.69 11.09,11.54 21.11,11.54 5.48,0 10,-1.07 13.51,-3.18 3.54,-2.14 6.53,-5.58 9,-10.35l2.83 0 1.45 11.11 7.55 0 0 -51.85 -26.21 0 0 10.54 13.96 0c0,0.59 0.02,1.47 0.07,2.59 0.05,1.09 0.07,1.92 0.07,2.42 0,10.21 -1.43,17.64 -4.25,22.24 -2.83,4.63 -7.33,6.93 -13.56,6.93 -6.77,0 -11.49,-2.83 -14.13,-8.48 -2.63,-5.67 -3.96,-16.81 -3.96,-33.4 0,-19.44 1.31,-31.76 3.89,-37.01 2.59,-5.25 7.24,-7.86 13.91,-7.86 5.79,0 10.23,1.71 13.29,5.1 3.06,3.42 4.75,8.55 5.08,15.41l11.68 0z"/>
  </g>
 </g>
</svg>
