<?xml version="1.0" encoding="UTF-8"?>
<!DOCTYPE svg PUBLIC "-//W3C//DTD SVG 1.1//EN" "http://www.w3.org/Graphics/SVG/1.1/DTD/svg11.dtd">
<!-- Creator: CorelDRAW 2020 (64 Bit) -->
<svg xmlns="http://www.w3.org/2000/svg" xml:space="preserve" width="66.5093mm" height="69.9999mm" version="1.1" style="shape-rendering:geometricPrecision; text-rendering:geometricPrecision; image-rendering:optimizeQuality; fill-rule:evenodd; clip-rule:evenodd"
viewBox="0 0 2422.63 2549.77"
 xmlns:xlink="http://www.w3.org/1999/xlink"
 xmlns:xodm="http://www.corel.com/coreldraw/odm/2003">
 <defs>
  <style type="text/css">
   <![CDATA[
    .fil2 {fill:#FEFEFE}
    .fil0 {fill:black}
    .fil1 {fill:#FFE610}
   ]]>
  </style>
 </defs>
 <g id="Camada_x0020_1">
  <metadata id="CorelCorpID_0Corel-Layer"/>
  <g id="_1868949128560">
   <path class="fil0" d="M882.2 1960.46c-6.32,5.47 -5.49,2.58 -13.27,5.9 -11.33,4.83 -21.28,20.43 -16.9,37.07 5.9,22.39 26.11,20.03 49.98,24.22l4.79 17.1c-9.37,9.52 -22.31,16.79 -18.32,35.46 4.11,19.16 15.71,19.45 26.73,26.99 4.6,3.15 5.34,35.73 4.68,41.35 -11.77,9.08 -25.32,10.97 -24.45,32.48 0.7,17.28 12.3,26.88 28.58,29.9l2.12 43.17c-7.93,5.85 -20.43,4.72 -27.27,21.29 -8.53,20.68 3.32,35.43 23.02,42.76 8.26,3.07 12.98,2.47 16.71,9.14 1.76,3.16 11.72,34.28 12.5,38.13 -3.23,2.84 0.31,0.67 -5.68,3.66 -10.33,5.15 -23.78,10.33 -23.45,30.85 0.34,20.7 14.64,26.26 30.18,31.82 9.93,3.56 42.38,10.36 48.45,15.51 5.02,4.24 20.11,23.55 30.6,32.53 105.65,90.52 267.96,98.66 361.32,-7.56 5.24,-5.96 9.19,-10.95 13.55,-17.08 28.41,-40 7.86,-16 36.59,-27.51 13.32,-5.34 22.63,-24.21 15.89,-39.54 -4.28,-9.72 -11.09,-9.55 -6.86,-23 2.67,-8.49 5.59,-16.07 7.98,-24.78 11.69,-42.54 3.35,-16.54 21.59,-34.75 14.46,-14.44 11.81,-36.24 -4.49,-46.59l2.52 -40.51c13.6,-6.8 26.69,-9.83 26.78,-31.53 0.09,-21.15 -12.84,-25.48 -27.31,-31.45l-0.02 -32.45c19.79,-3.8 33.5,-8.06 37.6,-27.37 4.47,-21.1 -11.86,-32.7 -28.06,-36.16l7.69 -28.7c8.14,-14.58 23.44,1.13 35.51,-21.87 8.03,-15.32 2.93,-25.13 -3.6,-35.54 -0.32,-0.5 -1.28,-2.09 -1.56,-2.55l-1.54 -2.71c12.95,-28 48.74,-70.48 68.3,-91.89 13.42,-14.68 25.44,-27.93 38.58,-42.1 72.19,-77.86 121.81,-124.88 178.23,-224.4 77.19,-136.13 129.24,-320.2 100.8,-524.45 -21.53,-154.65 -55.34,-294.63 -156.08,-407.39 -37.22,-41.66 -82.9,-81.44 -131.35,-110.08 -113.47,-67.08 -236.54,-102.19 -379.64,-103.43 -168.78,-1.46 -305.54,34.57 -431.38,130.16 -8.21,6.24 -14.24,11.52 -22.23,18.02 -18.05,14.71 -48.28,42.75 -61.75,58.98 -46.72,56.28 -59.39,67.88 -104.42,137.21 -41.49,63.89 -75.78,137.53 -91.84,230.08 -32.68,188.34 22.33,400.34 93.92,532.14 40.98,75.44 85.52,126.39 136.49,185.65 36.22,42.11 107.35,150.77 119.75,203.82z"/>
   <path class="fil1" d="M589.8 981.82c-5.82,31.47 -16.72,60.36 -18.08,95.14l-0.12 18.36c51.01,32.8 75.74,-6.45 96.14,-25.55 11.23,-10.52 65.69,-60.3 78.28,-64.51l-88.17 89.19c-15.55,15.24 -27.89,29.35 -42.85,45.44 -13.42,14.44 -31.37,29.49 -29.86,60.58 1.23,25.39 18.9,42.17 39.45,49.23 49.56,17.04 176.98,-75.54 186.53,-77.54l-76.96 77.27c-24.08,26.42 -48.34,54.47 -70.82,84.7 -11.7,15.73 -22.03,31.46 -14.12,57.62 5.51,18.23 20.73,34.05 40.44,38.39 33.48,7.38 70.17,-20.89 96.37,-38.56l8.73 -6.69c0.27,-0.24 0.74,-0.68 0.98,-0.9l1.9 -1.79c-13.68,-15.8 -28.31,-34.25 -35.84,-58.85 -8.24,-26.93 -0.96,-57.9 13.92,-74.55 17.11,-19.15 46.02,-21.55 72.57,-8.08 28.62,14.52 48.61,39.46 53.32,41.36l9.59 8.87c9.7,-1.91 46.95,-37.03 56.79,-45.68 30.68,-27.01 142.27,-121.24 174.3,-132.73 -9.42,-42.83 3.23,-158.54 29.86,-196.66 26.45,-37.87 144.7,40.61 122.53,246.92 -5.23,48.72 -9.19,90.71 -21.03,134.75 -5.61,20.85 -11.88,37.95 -19.45,57.3 -12.22,31.22 -15.58,21.79 -0.74,54.61 14.41,31.88 37.48,75.38 86.08,65.34 19.64,-4.06 13.6,-7.91 29.17,-49.5 7.21,-19.25 14.81,-37.41 23.13,-55.65 27.81,-61.01 80.5,-151.77 164.74,-146.42 21.91,1.39 39.22,13.89 44.66,32.28 17.87,60.36 -116.61,191.39 -164.91,223.97 -8.47,5.71 -14.98,9.45 -24.18,14.27 -29.32,15.37 -21.1,5.17 -32.35,44.26 -21.48,74.65 -47.55,229.34 -47.96,305.15l-2.21 59.25c7.07,-1.83 125.47,-74.1 142.28,-84.08 57.76,-34.32 123.22,-69.88 186.18,-97.67 16.74,-7.39 24.32,-10.79 33.2,-24.73 19.23,-30.16 5.44,-63.65 -16.44,-78.42 -29.98,-20.24 -61.93,-1.9 -86.7,9.89 -11.03,5.25 -72.48,36.34 -76.85,36.82l131.13 -111.06c29.76,-26.75 163.51,-154.37 167.96,-197.29 3.85,-37.13 -22.42,-66.04 -58.09,-65.22 -34,0.79 -143.3,78.59 -160.82,84.03 2.54,-9.58 134.67,-147.75 147.6,-160.58 10.13,-10.06 23.63,-20.5 29.79,-31.72 19.38,-35.29 -2.09,-72.18 -30.25,-81.71 -35.29,-11.95 -63.63,12.7 -87.67,27.18l-228.21 143.19c5.01,-10.83 106.54,-105.07 122.88,-119.89 41.17,-37.29 85.49,-71.75 140.71,-102.92 73.46,-41.46 18.04,-142.96 -58.1,-98.56 -17.95,10.47 -147.89,88.26 -155.22,88.86l100.37 -103.35c19.01,-19.47 32.52,-34.55 49.83,-51.94 19.56,-19.65 38.21,-35.88 42.03,-61.63 4.55,-30.58 -17.62,-53.92 -39.8,-60.7 -27.48,-8.41 -58.3,10.22 -80.34,19.22l-107.3 48.29c-9.34,4.47 -26.92,14.14 -34.33,16.3 2.85,-10.25 175.87,-170.77 196.3,-188.31 11.26,-9.67 17.04,-22.06 16.62,-41.02 -11.29,-4.64 -29.69,-17.95 -42.95,-24.91 -7.22,-3.8 -42.88,-20.05 -46.41,-23.88 -12.75,19.39 -345.46,210.21 -349.56,210.58 4.44,-12.42 134.49,-111.64 145.6,-140.34 14.05,-36.28 -9.58,-81.86 -60.32,-78.13 -16.76,1.23 -21.82,7.55 -32.91,15.67 -18.74,13.73 -36.8,25.13 -56.82,39.08 -88.03,61.35 -260.06,150.99 -360.73,211.21 -40.87,24.45 -79.17,49.56 -116.55,75.39 -19.7,13.61 -34.35,25.89 -54.66,41.28l-47.7 40.31c-2.79,1.03 -1.07,0.93 -3.59,0.17z"/>
   <path class="fil2" d="M1331.83 1843.17c-5.18,9.52 -3.97,51.08 -4.61,65.47l1.72 59.53c0.35,2.15 0.55,6.03 3.42,8.18 5.79,4.34 125.41,-5.45 137.19,-8.07 12.08,-2.69 8.21,-5.64 22.94,-29.98 8.87,-14.67 17.95,-27.88 28.09,-40.86 86.5,-110.77 166.45,-164.62 244.99,-296.38 33.06,-55.46 62.35,-122.43 81.45,-191.43 41.74,-150.86 34.32,-318.83 -8.4,-471.44 -20.21,-72.2 -38.11,-129.74 -81.61,-189.43 -19.72,-27.06 -40.28,-53.64 -63.64,-73 -6.43,-5.33 -10.04,-10.69 -16.64,-15.98 -14.67,-11.77 -44.93,-38.49 -60.34,-44.4 0.42,18.96 -5.36,31.35 -16.62,41.02 -20.43,17.54 -193.45,178.06 -196.3,188.31 7.42,-2.16 24.99,-11.83 34.33,-16.3l107.3 -48.29c22.03,-9 52.85,-27.63 80.34,-19.22 22.18,6.79 44.35,30.12 39.8,60.7 -3.83,25.75 -22.48,41.98 -42.03,61.63 -17.31,17.39 -30.82,32.47 -49.83,51.94l-100.37 103.35c7.33,-0.6 137.28,-78.39 155.22,-88.86 76.14,-44.4 131.56,57.1 58.1,98.56 -55.23,31.17 -99.55,65.63 -140.71,102.92 -16.35,14.81 -117.88,109.06 -122.88,119.89l228.21 -143.19c24.04,-14.48 52.39,-39.12 87.67,-27.18 28.16,9.53 49.63,46.42 30.25,81.71 -6.16,11.22 -19.66,21.66 -29.79,31.72 -12.92,12.83 -145.06,151.01 -147.6,160.58 17.52,-5.44 126.82,-83.24 160.82,-84.03 35.66,-0.83 61.93,28.09 58.09,65.22 -4.45,42.93 -138.21,170.54 -167.96,197.29l-131.13 111.06c4.37,-0.48 65.82,-31.57 76.85,-36.82 24.77,-11.79 56.72,-30.13 86.7,-9.89 21.88,14.78 35.67,48.26 16.44,78.42 -8.88,13.93 -16.46,17.33 -33.2,24.73 -62.95,27.79 -128.41,63.35 -186.18,97.67 -16.81,9.98 -135.2,82.25 -142.28,84.08l2.21 -59.25z"/>
   <path class="fil2" d="M571.72 1076.96c-9.98,19.63 -5.55,120.61 -3.1,148.8 14.27,163.76 75.78,331.38 181.12,449.35 72.38,81.05 137.94,173.13 175.65,276.71 0.91,2.49 1.7,5.3 2.4,7.06 5.81,14.69 15.41,10.79 60.6,12.36 9.67,0.34 18.5,1.65 28.79,1.84l21.68 0.51c5.03,-0.66 2.94,-0.04 5.76,-1.84 10.15,-19.23 -8.33,-157.77 -9.07,-191.65 -2.13,-97.23 -9.66,-166.78 -34.98,-255.32 -3.21,-11.21 -1.54,-12.23 -11.55,-16.44 -53.03,-22.3 -59.86,-28.52 -102.9,-54.26 -10.57,-6.33 -21.25,-14.62 -31.22,-22.33 -9.94,-7.69 -18.89,-15.88 -28.42,-23.41 -11.46,-9.05 -16.1,-17.66 -28.86,-26.13l-1.9 1.79c-0.24,0.21 -0.71,0.66 -0.98,0.9l-8.73 6.69c-26.2,17.66 -62.89,45.94 -96.37,38.56 -19.72,-4.35 -34.94,-20.16 -40.44,-38.39 -7.91,-26.17 2.42,-41.89 14.12,-57.62 22.49,-30.23 46.74,-58.28 70.82,-84.7l76.96 -77.27c-9.55,2 -136.97,94.57 -186.53,77.54 -20.54,-7.06 -38.22,-23.84 -39.45,-49.23 -1.5,-31.1 16.44,-46.15 29.86,-60.58 14.97,-16.09 27.3,-30.2 42.85,-45.44l88.17 -89.19c-12.59,4.21 -67.05,53.99 -78.28,64.51 -20.4,19.1 -45.13,58.35 -96.14,25.55l0.12 -18.36z"/>
   <path class="fil2" d="M589.8 981.82c2.52,0.76 0.8,0.86 3.59,-0.17l47.7 -40.31c20.31,-15.39 34.95,-27.67 54.66,-41.28 37.39,-25.83 75.69,-50.94 116.55,-75.39 100.67,-60.23 272.7,-149.87 360.73,-211.21 20.02,-13.95 38.08,-25.35 56.82,-39.08 11.08,-8.12 16.15,-14.44 32.91,-15.67 50.74,-3.72 74.37,41.85 60.32,78.13 -11.11,28.7 -141.16,127.91 -145.6,140.34 4.09,-0.36 336.81,-191.19 349.56,-210.58 -26.35,-15.86 -107.22,-37.33 -139.76,-44.07 -156.25,-32.39 -333.99,-15.79 -465.54,52.34 -74.64,38.65 -148.59,103.14 -199.9,169.05 -37.08,47.64 -125.56,177.24 -132.03,237.9z"/>
   <path class="fil2" d="M1047.03 1524.04c-0.48,11.86 8.04,37.15 10.92,51.4 10.45,51.51 17.63,111.75 19.41,164.49 1.34,39.7 5.45,76.55 7.75,115.12 1.15,19.32 3.63,38.08 3.93,57.41 0.25,16.6 -1.67,49.33 0.87,63.54 69.95,1.75 127.79,3.52 196.68,2.56 1.6,-36.61 -6.03,-73.13 -0.53,-123.84 9.61,-88.53 12.7,-137.67 28.01,-229.55 5.19,-31.14 22.51,-94.48 23.58,-104.16 -41.5,-3.49 -53.91,-3.42 -81.91,-29.37 -15.39,-14.26 -30.13,-34.98 -38.98,-58.27 -10.63,2.72 -3.19,-2.44 -10.51,8.46 -36.59,54.48 -87.19,86.67 -159.24,82.22z"/>
   <path class="fil2" d="M901.6 1282.08l36.31 43.57c31.25,35.17 75.99,105.1 90.8,151.15 44.15,13.48 79.71,2.39 113.12,-25.13 10.75,-8.86 25.58,-27.97 33.25,-39.9 5.18,-8.06 9.08,-14.56 13.87,-22.74 6.99,-11.93 4.53,-13.53 -0.14,-27.59 -11.7,-35.28 -21.71,-78.02 -29.13,-116.59 -8.74,-45.48 -11.8,-85.64 -17.41,-132.3 -32.02,11.48 -143.61,105.72 -174.3,132.73 -9.83,8.65 -47.08,43.77 -56.79,45.68l-9.59 -8.87z"/>
   <path class="fil2" d="M970.24 2270.31c25.3,3.57 38.96,10.38 77.39,13.89 115.46,10.56 205.2,5.16 321.24,-13.48 21.18,-3.4 44.3,-9.3 63.75,-11.92l2.89 -32.63 -93.99 9.8c-110.05,7.72 -242.85,4.05 -349.67,-13.03 -5.61,-0.9 -11.56,-2.35 -16.8,-2.84 -10.43,-0.99 -8.82,0.09 -8.11,10.2 0.91,13.01 2.69,27.56 3.31,40z"/>
   <path class="fil1" d="M1209.2 231.72c-2.19,-16.98 8.03,-78.53 10.41,-99.1 3.31,-28.63 5.42,-79.32 -2.14,-105.13 -6.49,-8.86 -1.8,-16.56 -16.63,-24.21 -12.42,-6.41 -25.71,-2.64 -32.97,4.33 -16.17,15.51 -3.27,42.53 -3.06,68.1 0.31,36.83 -9.68,113.44 -14.4,152.88 -2.91,24.34 -4.56,52.75 -2.77,79.38 4.95,73.89 49.97,53.52 57.79,36.48 5.88,-12.81 1.72,-20.02 -0.63,-33.99 -2.72,-16.19 -1.39,-43.15 0.12,-60.5 0.25,-2.87 0.09,-6.72 0.39,-9.04l3.89 -9.21z"/>
   <path class="fil1" d="M2115.55 939.38l49.2 -17.48c50.66,-15.15 108.78,-27.55 157.26,-45.08 17.44,-15.89 49.82,-10.7 46.49,-44.77 -1.17,-11.99 -10.13,-21.35 -21.53,-23.1 -14.72,-2.26 -24.7,4.95 -35.85,9.79 -81.44,35.29 -184.92,37.42 -265.81,95.13 -9.8,6.99 -17.35,11.99 -15.32,29.4 1.46,12.52 10.8,22.07 22.49,24.33 18.89,3.66 40.89,-22.53 63.09,-28.21z"/>
   <path class="fil1" d="M1891.71 354.73c2.49,-5.74 23.05,-15.71 29.87,-19.44 22.16,-12.14 83.79,-45.63 87.96,-65.22 0.68,-18.07 -4.45,-29.13 -18.57,-33.91 -17.93,-6.07 -28.23,5.74 -38.72,12.67 -65.63,43.43 -138.81,75.37 -197.42,121.28 -13.25,10.38 -48.17,36.39 -49.33,56.88 -0.94,16.4 9.58,27.76 23.73,29.2 19.55,1.99 26.16,-10.16 35.11,-19.05 30.7,-30.46 71.15,-54.62 109.65,-76.44l12.3 -6.81c7.72,-1.3 2.23,-1.17 5.43,0.83z"/>
   <path class="fil0" d="M2322.01 876.81c-48.47,17.54 -106.59,29.93 -157.26,45.08l-49.2 17.48c-3.3,8.47 -10.52,16.31 -7.29,30.31 8.74,37.97 59.31,16.32 81.91,9.66 20.07,-5.91 40.85,-11.7 61.21,-17.48l123.16 -34.24c21.98,-6.05 41.97,-7.93 47.29,-30.05 5.09,-21.14 -14.93,-40.15 -34.91,-36.79 -21.47,3.62 -44.32,14.67 -64.91,16.01z"/>
   <path class="fil2" d="M989.27 2337.71c0.47,9.97 12.68,39.22 19.23,44.26 6.33,4.87 40.73,8.6 52.18,9.94 73.34,8.54 158.6,5.63 232.02,-3.45 23.63,-2.92 93.11,-9.33 109.17,-15.98 0.36,-0.38 0.85,-1.52 0.99,-1.21 0.67,1.44 19.35,-42.04 13.18,-45.38 -2.29,-1.23 -49.42,7.41 -56.65,8.54 -122.28,19.07 -250.28,21.19 -370.11,3.28z"/>
   <path class="fil2" d="M1442.51 2067.21c2.04,-11.15 6.21,-23.73 7.04,-34.26l-120.71 6.64c-43.19,1.23 -87.95,0.71 -131.25,0.41 -38.53,-0.26 -84.12,0.18 -121.13,-2.97 -19.22,-1.63 -43.9,-2.41 -63.12,-2.78 -21.51,-0.4 -42.7,-2.8 -63.82,-3.22 -2.47,25.2 7.08,23.2 11.87,24.33 9.46,2.24 18.87,4.32 28.42,6.13 20.21,3.82 39.58,7.33 60.7,10.41 128.71,18.78 263.56,14.97 391.99,-4.7z"/>
   <path class="fil0" d="M467.78 416.98c19.18,16.14 43.81,32 64.82,47.35 13.03,9.52 56.92,37.69 60.77,51.7 13.15,14.97 51.67,-14.16 35.02,-42.18 -5.03,-8.46 -137.59,-119.18 -155.57,-133.8 -17.85,-14.51 -34.41,-28.59 -52.38,-43.47 -21.47,-17.78 -52.42,-3.37 -51.1,24.76 0.84,18.05 26.05,34.12 45.45,49.61 15.81,12.62 41.65,32.47 52.98,46.04z"/>
   <path class="fil1" d="M2030.91 1627.18c25.68,24.6 54.35,47.17 85.7,68.72 16.26,11.17 30.67,20.05 48.02,30.67 13.39,8.2 36.95,23.37 49.87,28.44 18.06,5.92 38.76,28.54 58.01,2.02 17.13,-23.6 -7.85,-40.05 -24.3,-48.84 -36.03,-19.25 -73.39,-41.69 -104.72,-64.15 -33.9,-24.3 -64.55,-49.38 -91.73,-77.11 -33.04,-33.72 -73.11,6.72 -41.7,37.88 5.38,5.33 18.38,17.11 20.85,22.37z"/>
   <path class="fil0" d="M148.48 989.43c12.37,2.72 26.89,3.55 39.8,5.57 13.54,2.12 25.9,4.29 39.1,6.94 20.45,4.11 60.31,10.12 74.04,17.95 21.51,-15.01 16.11,-44.48 -7.53,-53.24 -23.8,-8.82 -178.64,-51.02 -204.92,-57.94 -16.63,-4.38 -54.65,-18.13 -69.49,-12.58 -19.89,7.44 -27.69,38.13 -8.31,52.89 8.35,6.36 52.5,16.59 67.19,20.69l70.12 19.71z"/>
   <path class="fil0" d="M2009.54 270.06c-4.17,19.59 -65.8,53.08 -87.96,65.22 -6.82,3.74 -27.38,13.71 -29.87,19.44l-53.3 45.34c-8.92,7.51 -17.97,14.83 -27.01,22.89 -7.85,7.01 -19.66,13 -21.35,27.61 -3.37,29.19 27.98,45.63 51.41,27.04 49.78,-39.49 110.34,-96.37 161.11,-136.33 12.05,-9.49 46.28,-34.3 49.35,-47.66 3.81,-16.54 -4.52,-28.3 -13.16,-33.85 -5.14,-3.3 -11.71,-5.54 -19.71,-4.77 -11.17,1.07 -5.3,8.13 -9.52,15.06z"/>
   <path class="fil1" d="M593.38 516.03c-3.85,-14.01 -47.74,-42.18 -60.77,-51.7 -21.01,-15.35 -45.64,-31.21 -64.82,-47.35 -16.85,-5.33 -94.54,-68.93 -110.84,-71.24 -31.73,-4.48 -43.74,31.21 -23.41,49.06l160.14 112.37c17.9,13.1 34.7,25.3 51.82,38.45 11.02,8.46 20.16,12.1 34.07,4.05 12.31,-7.13 13.81,-15.14 13.82,-33.64z"/>
   <path class="fil0" d="M1217.47 27.5c7.55,25.8 5.45,76.5 2.14,105.13 -2.38,20.56 -12.6,82.11 -10.41,99.1 3.91,37.22 -13.94,107.2 32.5,106.15 20.56,-0.46 30.04,-16.07 29.83,-37.51 -0.42,-41.3 1.45,-252.57 -7.7,-270.14 -9.28,-17.81 -25.53,-21.25 -46.59,-10.94l0.24 8.21z"/>
   <path class="fil0" d="M2214.49 1755.01c-12.92,-5.07 -36.48,-20.25 -49.87,-28.44 -17.35,-10.61 -31.76,-19.5 -48.02,-30.67 -31.35,-21.55 -60.02,-44.12 -85.7,-68.72 -21.02,3.58 -39.62,27.81 -22.62,48.61 7.99,9.78 126.66,97.18 143.19,109.77l71.75 54.93c8.28,6.02 18.54,10.51 31.08,5.45 20.27,-8.17 27.02,-35.41 7.98,-51.89 -11.13,-9.64 -36.7,-27.39 -44.9,-35.77 -1.76,-1.8 -1.44,-1.44 -2.91,-3.27z"/>
   <path class="fil2" d="M1219.6 1312.66c6.71,-4.23 6.34,-7.99 9.82,-19.59 2.16,-7.21 3.56,-13.91 5.26,-21.74 17.88,-82.15 34.94,-226.46 -18.17,-299 -3.39,-4.63 -2.1,-3.42 -6.37,-6.95 -6.47,-5.34 -2.49,-3.22 -9.65,-5.71 -33.22,91.5 -7.62,267.07 19.1,352.98z"/>
   <path class="fil0" d="M372.38 1651.76c-2.58,15.35 -27.32,27.52 -40.31,36.22 -16.28,10.9 -29.4,20.9 -44.69,32.03 -14.29,10.4 -77.36,58 -90.96,62.13l-11.68 3.4c-13.9,2.64 -29.53,21.43 -24.95,38.77 5.98,22.64 29.34,31.05 50.31,15.92l95.74 -73.16c32,-24.28 63.31,-47.58 95.01,-71.86 13.17,-10.09 38.81,-22.8 26.82,-49.62 -4.16,-9.29 -12.53,-16.28 -23.2,-17.79 -18.19,-2.57 -19.6,6.38 -29.97,10.16l-0.86 10.94c-0.13,0.46 -0.47,1.11 -0.59,1.46 -0.12,0.35 -0.38,0.97 -0.66,1.41z"/>
   <path class="fil2" d="M965.73 2155.86c69.15,20.3 279.47,26.89 356.61,20.27l114.11 -13.27c0.39,-23.59 2.22,-31.3 -7.52,-31.27l-49.18 6.14c-75.1,6.39 -104.33,9.96 -185.92,7.67 -81.76,-2.29 -158.22,-12.95 -231.38,-26.5 -0.61,11.42 0.12,26.45 3.27,36.95z"/>
   <path class="fil1" d="M301.42 1019.89c-13.73,-7.84 -53.59,-13.85 -74.04,-17.95 -13.2,-2.65 -25.56,-4.82 -39.1,-6.94 -12.91,-2.02 -27.43,-2.84 -39.8,-5.57l-14.07 1.63c-26.31,-0.72 -89.06,-6.31 -98.94,20.4 -8.21,22.16 6.98,38.53 26.06,39.2 9.18,0.32 17.59,-3.42 28.59,-3.74 63.14,-1.84 92.51,5.07 152.06,17 16.2,3.25 42.25,12.55 57.01,1.97 23.61,-16.92 3.19,-42.17 2.24,-46.01z"/>
   <path class="fil1" d="M196.42 1782.13c13.6,-4.13 76.67,-51.74 90.96,-62.13 15.29,-11.12 28.41,-21.13 44.69,-32.03 12.99,-8.69 37.73,-20.86 40.31,-36.22 0.54,-18.96 -5.43,-31.74 -21.51,-34.73 -17.36,-3.23 -30.78,9.11 -40.93,16.14 -23.03,15.97 -44.17,31.5 -66.13,47.1 -23.11,16.42 -42.67,31.18 -66.86,46.37 -33.72,21.18 -23.44,59.34 19.47,55.49z"/>
   <path class="fil2" d="M1132.34 2458.16c-11.99,-0.09 -51.67,-5.24 -58.77,-0.62 3.29,5.85 7.46,7.77 13.19,11.34 40.95,25.45 84.47,39.34 135.86,37.35 29.7,-1.15 57.51,-6.52 80.3,-17.75 17.37,-8.56 51.1,-31.24 56.32,-44.89 -13.39,-1.69 -39.55,3.69 -54.3,5.13 -17.59,1.71 -37.51,4.53 -55.65,5.59 -39.44,2.3 -76.77,3.68 -116.96,3.84z"/>
   <path class="fil2" d="M969.49 1450.4c-8.34,-32.17 -89.15,-135.23 -128.48,-162.3 -8.75,-6.02 -16.72,-13.32 -31.3,-11.06 -27.75,37.74 34.93,91.29 52.2,105.74 20.33,17.01 86.19,66.64 107.58,67.62z"/>
   <path class="fil2" d="M1411.93 1440.87c8.63,-2.8 27.58,-17.25 34.21,-24.5l39.4 -39.32c12.56,-11.71 76.02,-85.73 70.87,-109.33 -45.7,-6.74 -76.09,38.81 -93.39,64.12 -10.53,15.4 -51.44,88.14 -51.09,109.02z"/>
  </g>
 </g>
</svg>
